<svg version="1.1" xmlns="http://www.w3.org/2000/svg" xmlns:xlink="http://www.w3.org/1999/xlink" width="38.14286" height="14.92857" viewBox="0,0,38.14286,14.92857"><g transform="translate(-220.92857,-172.53571)"><g data-paper-data="{&quot;isPaintingLayer&quot;:true}" fill-rule="nonzero" stroke-linecap="butt" stroke-linejoin="miter" stroke-miterlimit="10" stroke-dasharray="" stroke-dashoffset="0" style="mix-blend-mode: normal"><g fill="#999654" stroke="#b3b037" stroke-width="1.5"><path d="M242.32817,182.77223v-5.54445l12.91509,2.77222z"/><path d="M234.5,180c0,-3.03757 2.46243,-5.5 5.5,-5.5c3.03757,0 5.5,2.46243 5.5,5.5c0,3.03757 -2.46243,5.5 -5.5,5.5c-3.03757,0 -5.5,-2.46243 -5.5,-5.5z"/></g><path d="M220.92857,187.46429v-14.92857h38.14286v14.92857z" fill="none" stroke="#000000" stroke-width="0"/><g fill="#fffa8a" stroke="#000000" stroke-width="0"><path d="M242.32817,182.77223v-5.54445l12.91508,2.77223z"/><path d="M234.5,180c0,-3.03757 2.46243,-5.5 5.5,-5.5c3.03757,0 5.5,2.46243 5.5,5.5c0,3.03757 -2.46243,5.5 -5.5,5.5c-3.03757,0 -5.5,-2.46243 -5.5,-5.5z"/></g></g></g></svg>