<svg version="1.1" xmlns="http://www.w3.org/2000/svg" xmlns:xlink="http://www.w3.org/1999/xlink" width="92.40506" height="92.40506" viewBox="0,0,92.40506,92.40506"><g transform="translate(-193.79747,-133.79747)"><g data-paper-data="{&quot;isPaintingLayer&quot;:true}" fill-rule="nonzero" stroke-linecap="butt" stroke-linejoin="miter" stroke-miterlimit="10" stroke-dasharray="" stroke-dashoffset="0" style="mix-blend-mode: normal"><text transform="translate(208.44686,182.41729) scale(0.20952,0.20952)" font-size="40" xml:space="preserve" fill="#ac4040" fill-rule="nonzero" stroke="none" stroke-width="1" stroke-linecap="butt" stroke-linejoin="miter" stroke-miterlimit="10" stroke-dasharray="" stroke-dashoffset="0" font-family="Sans Serif" font-weight="normal" text-anchor="start" style="mix-blend-mode: normal"><tspan x="0" dy="0">awesome-llama</tspan></text><path d="M195.79747,180c0,-24.41238 19.79015,-44.20253 44.20253,-44.20253c24.41238,0 44.20253,19.79015 44.20253,44.20253c0,24.41238 -19.79015,44.20253 -44.20253,44.20253c-24.41238,0 -44.20253,-19.79015 -44.20253,-44.20253z" fill="#6aff66" stroke="#000000" stroke-width="4"/><text transform="translate(214.17791,192.61666) scale(1.05139,1.05139)" font-size="40" xml:space="preserve" fill="#000000" fill-rule="nonzero" stroke="#5dd957" stroke-width="4" stroke-linecap="butt" stroke-linejoin="miter" stroke-miterlimit="10" stroke-dasharray="" stroke-dashoffset="0" font-family="Sans Serif" font-weight="normal" text-anchor="start" style="mix-blend-mode: normal"><tspan x="0" dy="0">Aa</tspan></text><text transform="translate(214.17791,192.61666) scale(1.05139,1.05139)" font-size="40" xml:space="preserve" fill="#000000" fill-rule="nonzero" stroke="none" stroke-width="1" stroke-linecap="butt" stroke-linejoin="miter" stroke-miterlimit="10" stroke-dasharray="" stroke-dashoffset="0" font-family="Sans Serif" font-weight="normal" text-anchor="start" style="mix-blend-mode: normal"><tspan x="0" dy="0">Aa</tspan></text><path d="M197.8481,180c0,-23.27985 18.87205,-42.1519 42.1519,-42.1519c23.27985,0 42.1519,18.87205 42.1519,42.1519c0,23.27985 -18.87205,42.1519 -42.1519,42.1519c-23.27985,0 -42.1519,-18.87205 -42.1519,-42.1519z" fill="none" stroke="#5dd957" stroke-width="2"/></g></g></svg>