<svg version="1.1" xmlns="http://www.w3.org/2000/svg" xmlns:xlink="http://www.w3.org/1999/xlink" width="62.44658" height="60.26072" viewBox="0,0,62.44658,60.26072"><defs><linearGradient x1="271.06156" y1="121.10228" x2="271.06156" y2="179.86298" gradientUnits="userSpaceOnUse" id="color-1"><stop offset="0" stop-color="#755569"/><stop offset="1" stop-color="#542844"/></linearGradient><linearGradient x1="270.89207" y1="167.40481" x2="270.89207" y2="179.97645" gradientUnits="userSpaceOnUse" id="color-2"><stop offset="0" stop-color="#a559a2"/><stop offset="1" stop-color="#733473"/></linearGradient><linearGradient x1="271.09004" y1="134.11953" x2="271.09004" y2="169.89483" gradientUnits="userSpaceOnUse" id="color-3"><stop offset="0" stop-color="#210b29"/><stop offset="1" stop-color="#210b29" stop-opacity="0"/></linearGradient><radialGradient cx="271.25001" cy="148.44171" r="27.5" gradientUnits="userSpaceOnUse" id="color-4"><stop offset="0" stop-color="#611d4f"/><stop offset="1" stop-color="#611d4f" stop-opacity="0"/></radialGradient><radialGradient cx="256.69444" cy="148.79724" r="4.75" gradientUnits="userSpaceOnUse" id="color-5"><stop offset="0" stop-color="#c3bc8b"/><stop offset="1" stop-color="#c38971"/></radialGradient><radialGradient cx="284.44444" cy="148.71391" r="5" gradientUnits="userSpaceOnUse" id="color-6"><stop offset="0" stop-color="#c3bc8b"/><stop offset="1" stop-color="#c38971"/></radialGradient><radialGradient cx="270.52779" cy="140.63056" r="14.25" gradientUnits="userSpaceOnUse" id="color-7"><stop offset="0" stop-color="#ffffff"/><stop offset="1" stop-color="#ffffff" stop-opacity="0"/></radialGradient><radialGradient cx="271.02779" cy="131.46391" r="4.75" gradientUnits="userSpaceOnUse" id="color-8"><stop offset="0" stop-color="#c3bc8b"/><stop offset="1" stop-color="#c38971"/></radialGradient><radialGradient cx="271.25001" cy="148.44171" r="27.5" gradientUnits="userSpaceOnUse" id="color-9"><stop offset="0" stop-color="#d34ad6" stop-opacity="0"/><stop offset="1" stop-color="#d34ad6"/></radialGradient></defs><g transform="translate(-239.79673,-120.35226)"><g data-paper-data="{&quot;isPaintingLayer&quot;:true}" fill-rule="nonzero" stroke-linejoin="miter" stroke-miterlimit="10" stroke-dasharray="" stroke-dashoffset="0" style="mix-blend-mode: normal"><path d="M240.54674,179.86298v-58.76072h60.94658v58.76072z" fill="url(#color-1)" stroke="#7e1b8b" stroke-width="1.5" stroke-linecap="butt"/><path d="M239.96357,179.97645v-12.57143c0,0 9.2599,0 15.94982,0c11.34971,0 45.90733,0 45.90733,0v12.57143z" fill="url(#color-2)" stroke="none" stroke-width="0" stroke-linecap="butt"/><path d="M241.20637,169.89483v-35.77529h59.76739v35.77529z" data-paper-data="{&quot;index&quot;:null}" fill="url(#color-3)" stroke="none" stroke-width="0" stroke-linecap="butt"/><path d="M300.78398,134.07716h-59.38095" fill="none" stroke="#d487ff" stroke-width="0.5" stroke-linecap="round"/><path d="M243.75002,146.7917c0,-13.36528 55,-13.36528 55,0c0,13.36529 -12.40383,19.98334 -27.59166,19.98334c-15.18783,0 -27.40834,-6.61805 -27.40834,-19.98334z" fill="url(#color-4)" stroke="none" stroke-width="0.5" stroke-linecap="butt"/><path d="M251.94447,148.79724c0,-2.62335 2.12664,-4.75 4.74999,-4.75c2.62335,0 4.75,2.12665 4.75,4.75c0,2.62335 -2.12665,4.75 -4.75,4.75c-2.62335,0 -4.74999,-2.12665 -4.74999,-4.75z" fill="url(#color-5)" stroke="none" stroke-width="0" stroke-linecap="butt"/><path d="M279.44444,148.71391c0,-2.76142 2.23858,-5 5,-5c2.76142,0 5,2.23858 5,5c0,2.76142 -2.23858,5 -5,5c-2.76142,0 -5,-2.23858 -5,-5z" fill="url(#color-6)" stroke="none" stroke-width="0" stroke-linecap="butt"/><path d="M271.11112,131.88056l13.66667,17.5h-28.5z" fill="none" stroke="url(#color-7)" stroke-width="2.5" stroke-linecap="round"/><path d="M266.27781,131.46391c0,-2.62335 2.12664,-4.75 4.75,-4.75c2.62335,0 4.75,2.12665 4.75,4.75c0,2.62335 -2.12665,4.75 -4.75,4.75c-2.62335,0 -4.75,-2.12665 -4.75,-4.75z" fill="url(#color-8)" stroke="none" stroke-width="0" stroke-linecap="butt"/><path d="M243.75002,146.7917c0,-13.36528 12.31218,-24.2 27.5,-24.2c15.18783,0 27.5,10.83472 27.5,24.2c0,13.36529 -11.9455,20.16667 -27.13333,20.16667c-15.18782,0 -27.86667,-6.80139 -27.86667,-20.16667z" fill="url(#color-9)" stroke="none" stroke-width="0.5" stroke-linecap="butt"/></g></g></svg>