<svg version="1.1" xmlns="http://www.w3.org/2000/svg" xmlns:xlink="http://www.w3.org/1999/xlink" width="62.44658" height="60.26072" viewBox="0,0,62.44658,60.26072"><defs><linearGradient x1="271.06156" y1="121.10225" x2="271.06156" y2="179.86296" gradientUnits="userSpaceOnUse" id="color-1"><stop offset="0" stop-color="#755569"/><stop offset="1" stop-color="#542844"/></linearGradient><linearGradient x1="270.89207" y1="167.57146" x2="270.89207" y2="180.14309" gradientUnits="userSpaceOnUse" id="color-2"><stop offset="0" stop-color="#a559a2"/><stop offset="1" stop-color="#733473"/></linearGradient><radialGradient cx="269.74294" cy="137.55726" r="22.06927" gradientUnits="userSpaceOnUse" id="color-3"><stop offset="0" stop-color="#f444ff"/><stop offset="1" stop-color="#f444ff" stop-opacity="0"/></radialGradient><radialGradient cx="270.85355" cy="142.23276" r="26.94296" gradientUnits="userSpaceOnUse" id="color-4"><stop offset="0" stop-color="#f444ff"/><stop offset="1" stop-color="#f444ff" stop-opacity="0"/></radialGradient><radialGradient cx="254.72131" cy="149.70579" r="7.46561" gradientUnits="userSpaceOnUse" id="color-5"><stop offset="0" stop-color="#74127b"/><stop offset="1" stop-color="#ca20d7"/></radialGradient><linearGradient x1="254.72132" y1="142.24019" x2="254.72132" y2="157.17138" gradientUnits="userSpaceOnUse" id="color-6"><stop offset="0" stop-color="#e7a9ff"/><stop offset="1" stop-color="#ffa8c3"/></linearGradient><radialGradient cx="265.10756" cy="153.98807" r="8.67346" gradientUnits="userSpaceOnUse" id="color-7"><stop offset="0" stop-color="#74127b"/><stop offset="1" stop-color="#ca20d7"/></radialGradient><linearGradient x1="265.40306" y1="145.31462" x2="265.40306" y2="162.66154" gradientUnits="userSpaceOnUse" id="color-8"><stop offset="0" stop-color="#e7a9ff"/><stop offset="1" stop-color="#ffa8c3"/></linearGradient><radialGradient cx="258.02988" cy="137.36327" r="8.05401" gradientUnits="userSpaceOnUse" id="color-9"><stop offset="0" stop-color="#74127b"/><stop offset="1" stop-color="#ca20d7"/></radialGradient><linearGradient x1="257.69012" y1="129.90033" x2="257.69012" y2="145.41731" gradientUnits="userSpaceOnUse" id="color-10"><stop offset="0" stop-color="#e7a9ff"/><stop offset="1" stop-color="#ffa8c3"/></linearGradient><radialGradient cx="268.77937" cy="150.6442" r="12.01353" gradientUnits="userSpaceOnUse" id="color-11"><stop offset="0" stop-color="#74127b"/><stop offset="1" stop-color="#ca20d7"/></radialGradient><linearGradient x1="268.77939" y1="138.8458" x2="268.77939" y2="162.64943" gradientUnits="userSpaceOnUse" id="color-12"><stop offset="0" stop-color="#e7a9ff"/><stop offset="1" stop-color="#ffa8c3"/></linearGradient><radialGradient cx="268.71598" cy="135.92546" r="11.15287" gradientUnits="userSpaceOnUse" id="color-13"><stop offset="0" stop-color="#74127b"/><stop offset="1" stop-color="#ca20d7"/></radialGradient><linearGradient x1="268.71594" y1="127.24298" x2="268.71594" y2="144.60796" gradientUnits="userSpaceOnUse" id="color-14"><stop offset="0" stop-color="#e7a9ff"/><stop offset="1" stop-color="#ffa8c3"/></linearGradient><radialGradient cx="275.88978" cy="132.95072" r="8.49692" gradientUnits="userSpaceOnUse" id="color-15"><stop offset="0" stop-color="#74127b"/><stop offset="1" stop-color="#ca20d7"/></radialGradient><linearGradient x1="276.32331" y1="127.77445" x2="276.32331" y2="138.12702" gradientUnits="userSpaceOnUse" id="color-16"><stop offset="0" stop-color="#e7a9ff"/><stop offset="1" stop-color="#ffa8c3"/></linearGradient><radialGradient cx="284.92735" cy="141.53668" r="8.45906" gradientUnits="userSpaceOnUse" id="color-17"><stop offset="0" stop-color="#74127b"/><stop offset="1" stop-color="#ca20d7"/></radialGradient><linearGradient x1="284.92733" y1="133.07763" x2="284.92733" y2="149.99575" gradientUnits="userSpaceOnUse" id="color-18"><stop offset="0" stop-color="#e7a9ff"/><stop offset="1" stop-color="#ffa8c3"/></linearGradient><radialGradient cx="282.88993" cy="151.03569" r="11.26577" gradientUnits="userSpaceOnUse" id="color-19"><stop offset="0" stop-color="#74127b"/><stop offset="1" stop-color="#ca20d7"/></radialGradient><linearGradient x1="282.9885" y1="139.76986" x2="282.9885" y2="162.49845" gradientUnits="userSpaceOnUse" id="color-20"><stop offset="0" stop-color="#e7a9ff"/><stop offset="1" stop-color="#ffa8c3"/></linearGradient><radialGradient cx="271.05373" cy="149.32558" r="26.94296" gradientUnits="userSpaceOnUse" id="color-21"><stop offset="0" stop-color="#f444ff"/><stop offset="1" stop-color="#f444ff" stop-opacity="0"/></radialGradient><radialGradient cx="270.47833" cy="141.79564" r="22.06927" gradientUnits="userSpaceOnUse" id="color-22"><stop offset="0" stop-color="#f444ff"/><stop offset="1" stop-color="#f444ff" stop-opacity="0"/></radialGradient><radialGradient cx="271.33943" cy="150.32558" r="26.94296" gradientUnits="userSpaceOnUse" id="color-23"><stop offset="0" stop-color="#f444ff"/><stop offset="1" stop-color="#f444ff" stop-opacity="0"/></radialGradient><radialGradient cx="269.19261" cy="143.79564" r="22.06927" gradientUnits="userSpaceOnUse" id="color-24"><stop offset="0" stop-color="#f444ff"/><stop offset="1" stop-color="#f444ff" stop-opacity="0"/></radialGradient></defs><g transform="translate(-239.79667,-120.35224)"><g data-paper-data="{&quot;isPaintingLayer&quot;:true}" fill-rule="nonzero" stroke-linejoin="miter" stroke-miterlimit="10" stroke-dasharray="" stroke-dashoffset="0" style="mix-blend-mode: normal"><path d="M240.54668,179.86296v-58.76072h60.94658v58.76072z" fill="url(#color-1)" stroke="#7e1b8b" stroke-width="1.5" stroke-linecap="butt"/><path d="M239.96353,180.14309v-12.57143c0,0 9.2599,0 15.94982,0c11.34971,0 45.90733,0 45.90733,0v12.57143z" fill="url(#color-2)" stroke="none" stroke-width="0" stroke-linecap="butt"/><path d="M247.67367,144.9457c0,0 1.89271,-10.73795 22.91824,-10.33079c14.12761,0.27359 20.73606,4.11752 20.73606,4.11752" fill="none" stroke="url(#color-3)" stroke-width="3" stroke-linecap="round"/><path d="M243.9106,151.25284c0,0 2.31068,-13.10928 27.97941,-12.6122c17.24748,0.334 24.73199,4.77681 24.73199,4.77681" fill="none" stroke="url(#color-4)" stroke-width="4" stroke-linecap="round"/><g stroke-width="1" stroke-linecap="round"><path d="M256.86856,145.10926l-0.69455,12.06213l-3.59992,-14.93121z" fill="url(#color-5)" stroke="url(#color-6)"/><path d="M256.66321,145.31462l16.88871,17.34691l-16.78602,-1.84225z" fill="url(#color-7)" stroke="url(#color-8)"/><path d="M263.70921,129.30926l-6.94338,16.10801l-4.41525,-4.41525z" fill="url(#color-9)" stroke="url(#color-10)"/><path d="M280.7929,138.8458l-6.12643,23.5968l-17.90064,-17.64137z" fill="url(#color-11)" stroke="url(#color-12)"/><path d="M257.56309,144.60796l8.03325,-17.36499l14.27249,10.98673z" fill="url(#color-13)" stroke="url(#color-14)"/><path d="M284.38669,132.58232l-3.79915,5.5447l-13.19469,-10.35257z" fill="url(#color-15)" stroke="url(#color-16)"/><path d="M289.16443,149.99575l-8.47415,-11.14995l4.16755,-5.76816z" fill="url(#color-17)" stroke="url(#color-18)"/><path d="M290.03412,152.70756l-14.28839,9.59389l5.04717,-22.53155z" fill="url(#color-19)" stroke="url(#color-20)"/></g><path d="M296.99669,144.47215c0,0 -1.01515,14.36075 -26.68388,13.86367c-17.24748,-0.334 -22.89215,-4.66543 -24.73169,-7.64436c-0.98426,-1.59389 -0.87917,-2.80059 -0.87917,-2.80059" fill="none" stroke="url(#color-21)" stroke-width="4" stroke-linecap="round"/><path d="M292.21428,137.4072c0,0 -1.3173,12.176 -22.34283,11.76884c-14.12761,-0.27358 -18.75121,-3.8215 -20.258,-6.26157c-0.80622,-1.30558 -0.72014,-2.294 -0.72014,-2.294" fill="none" stroke="url(#color-22)" stroke-width="3" stroke-linecap="round"/><path d="M297.2824,145.47215c0,0 -1.01515,14.36075 -26.68388,13.86367c-17.24748,-0.334 -22.89215,-4.66543 -24.73169,-7.64436c-0.98426,-1.59389 -0.87917,-2.80059 -0.87917,-2.80059" fill="none" stroke="url(#color-23)" stroke-width="4" stroke-linecap="round"/><path d="M290.92855,139.4072c0,0 -1.3173,12.176 -22.34283,11.76884c-14.12761,-0.27358 -18.75121,-3.8215 -20.258,-6.26157c-0.80622,-1.30558 -0.72014,-2.294 -0.72014,-2.294" fill="none" stroke="url(#color-24)" stroke-width="3" stroke-linecap="round"/></g></g></svg>