<svg version="1.1" xmlns="http://www.w3.org/2000/svg" xmlns:xlink="http://www.w3.org/1999/xlink" width="62.44658" height="60.26072" viewBox="0,0,62.44658,60.26072"><defs><linearGradient x1="271.06155" y1="121.10222" x2="271.06155" y2="179.86293" gradientUnits="userSpaceOnUse" id="color-1"><stop offset="0" stop-color="#567357"/><stop offset="1" stop-color="#2e5729"/></linearGradient><linearGradient x1="270.89206" y1="167.57146" x2="270.89206" y2="180.14306" gradientUnits="userSpaceOnUse" id="color-2"><stop offset="0" stop-color="#70bb5b"/><stop offset="1" stop-color="#296f15"/></linearGradient><linearGradient x1="270.23446" y1="135.79564" x2="270.23446" y2="142.9623" gradientUnits="userSpaceOnUse" id="color-3"><stop offset="0" stop-color="#6dff72"/><stop offset="1" stop-color="#c6ffbc"/></linearGradient><linearGradient x1="261.9011" y1="137.4623" x2="261.9011" y2="156.9623" gradientUnits="userSpaceOnUse" id="color-4"><stop offset="0" stop-color="#6dff72"/><stop offset="1" stop-color="#c6ffbc"/></linearGradient><linearGradient x1="278.3178" y1="136.79564" x2="278.3178" y2="157.12898" gradientUnits="userSpaceOnUse" id="color-5"><stop offset="0" stop-color="#6dff72"/><stop offset="1" stop-color="#c6ffbc"/></linearGradient><linearGradient x1="189.65112" y1="110.12895" x2="189.65112" y2="132.46229" gradientUnits="userSpaceOnUse" id="color-6"><stop offset="0" stop-color="#ffffff"/><stop offset="1" stop-color="#ffffff" stop-opacity="0"/></linearGradient><linearGradient x1="254.40112" y1="132.79562" x2="254.40112" y2="150.96229" gradientUnits="userSpaceOnUse" id="color-7"><stop offset="0" stop-color="#ffffff"/><stop offset="1" stop-color="#ffffff" stop-opacity="0"/></linearGradient><linearGradient x1="288.6511" y1="131.12895" x2="288.6511" y2="145.29562" gradientUnits="userSpaceOnUse" id="color-8"><stop offset="0" stop-color="#ffffff"/><stop offset="1" stop-color="#ffffff" stop-opacity="0"/></linearGradient><linearGradient x1="271.31778" y1="154.12895" x2="271.31778" y2="164.46229" gradientUnits="userSpaceOnUse" id="color-9"><stop offset="0" stop-color="#ffffff" stop-opacity="0"/><stop offset="1" stop-color="#ffffff"/></linearGradient><linearGradient x1="270.15519" y1="134.84248" x2="270.15519" y2="151.875" gradientUnits="userSpaceOnUse" id="color-10"><stop offset="0" stop-color="#ffffff" stop-opacity="0"/><stop offset="1" stop-color="#ffffff"/></linearGradient></defs><g transform="translate(-239.79663,-120.35221)"><g data-paper-data="{&quot;isPaintingLayer&quot;:true}" fill-rule="nonzero" stroke-linejoin="miter" stroke-miterlimit="10" stroke-dasharray="" stroke-dashoffset="0" style="mix-blend-mode: normal"><path d="M240.54664,179.86293v-58.76072h60.94658v58.76072z" fill="url(#color-1)" stroke="#3dab20" stroke-width="1.5" stroke-linecap="butt"/><path d="M239.96348,180.14306v-12.57143h61.85715v12.57143z" fill="url(#color-2)" stroke="none" stroke-width="0" stroke-linecap="butt"/><g fill="none" stroke-width="1.5" stroke-linecap="round"><path d="M284.65112,136.4623l-14.66667,6.5l-14.33333,-6.33334z" stroke="url(#color-3)"/><path d="M268.98446,143.62895l0.5,13.33334l-15.16667,-19.5z" stroke="url(#color-4)"/><path d="M286.3178,137.29565l-15.5,19.83333l-0.33333,-13.5z" stroke="url(#color-5)"/></g><path d="" fill="none" stroke="url(#color-6)" stroke-width="1.5" stroke-linecap="round"/><path d="M256.48444,150.96229l-11.16667,-21l18.83334,1.83333" fill="none" stroke="url(#color-7)" stroke-width="3" stroke-linecap="round"/><path d="M276.81778,131.96229l19,-2.83334l-11.66667,19" fill="none" stroke="url(#color-8)" stroke-width="3" stroke-linecap="round"/><path d="M281.1511,155.29562l-11,9.16667l-10.33333,-8.33334" fill="none" stroke="url(#color-9)" stroke-width="3" stroke-linecap="round"/><path d="M297.88256,143.35876c0,4.70341 -12.41399,8.51627 -27.7274,8.51627c-15.31342,0 -27.72739,-3.81286 -27.72739,-8.51627c0,-2.40199 14.34273,-7.0642 28.49643,-7.01284c13.56103,0.04921 26.95836,4.71143 26.95836,7.01284z" fill="none" stroke="url(#color-10)" stroke-width="1.5" stroke-linecap="butt"/></g></g></svg>