<svg width="480px" height="360px" xmlns="http://www.w3.org/2000/svg"><path fill="#F00" d="M252.340 175.985L252.340 175.985Q252.340 177.001 251.923 177.790Q251.507 178.580 250.761 179.119Q250.014 179.657 248.998 179.939Q247.982 180.220 246.794 180.220L246.794 180.220Q245.484 180.220 244.487 179.927Q243.489 179.633 242.816 179.106Q242.142 178.580 241.800 177.858Q241.457 177.135 241.457 176.266L241.457 176.266Q241.457 174.797 242.277 173.732Q243.097 172.667 244.811 171.798L244.811 171.798Q243.244 171.002 242.522 170.029Q241.800 169.056 241.800 167.795L241.800 167.795Q241.800 167.024 242.118 166.301Q242.436 165.579 243.079 165.016Q243.721 164.453 244.689 164.116Q245.656 163.780 246.966 163.780L246.966 163.780Q248.202 163.780 249.138 164.043Q250.075 164.306 250.712 164.796Q251.348 165.285 251.666 165.983Q251.985 166.681 251.985 167.538L251.985 167.538Q251.985 168.933 251.207 169.913Q250.430 170.892 248.998 171.627L248.998 171.627Q249.708 171.982 250.320 172.410Q250.932 172.839 251.385 173.365Q251.838 173.891 252.089 174.540Q252.340 175.189 252.340 175.985ZM249.806 167.709L249.806 167.709Q249.806 166.620 249.041 166.087Q248.275 165.555 246.892 165.555L246.892 165.555Q245.521 165.555 244.756 166.081Q243.991 166.607 243.991 167.660L243.991 167.660Q243.991 168.138 244.174 168.542Q244.358 168.946 244.744 169.301Q245.129 169.656 245.705 169.998Q246.280 170.341 247.076 170.696L247.076 170.696Q248.459 170.047 249.132 169.344Q249.806 168.640 249.806 167.709ZM250.026 176.144L250.026 176.144Q250.026 175.691 249.879 175.262Q249.732 174.834 249.353 174.418Q248.973 174.002 248.337 173.585Q247.700 173.169 246.721 172.728L246.721 172.728Q245.888 173.132 245.319 173.530Q244.750 173.928 244.401 174.338Q244.052 174.748 243.905 175.189Q243.758 175.630 243.758 176.119L243.758 176.119Q243.758 176.670 243.997 177.093Q244.236 177.515 244.652 177.809Q245.068 178.103 245.643 178.249Q246.219 178.396 246.892 178.396L246.892 178.396Q247.541 178.396 248.116 178.262Q248.692 178.127 249.114 177.852Q249.536 177.576 249.781 177.154Q250.026 176.731 250.026 176.144Z"/></svg>