<svg version="1.1" xmlns="http://www.w3.org/2000/svg" xmlns:xlink="http://www.w3.org/1999/xlink" width="62.36325" height="60.26072" viewBox="0,0,62.36325,60.26072"><defs><linearGradient x1="270.89485" y1="121.20212" x2="270.89485" y2="179.96284" gradientUnits="userSpaceOnUse" id="color-1"><stop offset="0" stop-color="#8a7088"/><stop offset="1" stop-color="#615060"/></linearGradient><linearGradient x1="270.892" y1="167.57146" x2="270.892" y2="180.14295" gradientUnits="userSpaceOnUse" id="color-2"><stop offset="0" stop-color="#d091ce"/><stop offset="1" stop-color="#674866"/></linearGradient><radialGradient cx="262.73909" cy="140.13219" r="18.03908" gradientUnits="userSpaceOnUse" id="color-3"><stop offset="0" stop-color="#f07bff" stop-opacity="0"/><stop offset="1" stop-color="#f07bff"/></radialGradient><radialGradient cx="277.90664" cy="151.37104" r="18.07527" gradientUnits="userSpaceOnUse" id="color-4"><stop offset="0" stop-color="#f07bff" stop-opacity="0"/><stop offset="1" stop-color="#f07bff"/></radialGradient><radialGradient cx="266.71504" cy="148.82039" r="3.46056" gradientUnits="userSpaceOnUse" id="color-5"><stop offset="0" stop-color="#ffb9f6"/><stop offset="1" stop-color="#ffb9f6" stop-opacity="0"/></radialGradient><radialGradient cx="282.54526" cy="134.97816" r="3.90233" gradientUnits="userSpaceOnUse" id="color-6"><stop offset="0" stop-color="#ffb9f6"/><stop offset="1" stop-color="#ffb9f6" stop-opacity="0"/></radialGradient><radialGradient cx="285.34316" cy="131.88575" r="5.52216" gradientUnits="userSpaceOnUse" id="color-7"><stop offset="0" stop-color="#ffb9f6"/><stop offset="1" stop-color="#ffb9f6" stop-opacity="0"/></radialGradient><radialGradient cx="273.15" cy="161.1" r="3.2" gradientUnits="userSpaceOnUse" id="color-8"><stop offset="0" stop-color="#ffb9f6"/><stop offset="1" stop-color="#ffb9f6" stop-opacity="0"/></radialGradient><radialGradient cx="285.7" cy="159.45" r="2.75" gradientUnits="userSpaceOnUse" id="color-9"><stop offset="0" stop-color="#ffb9f6"/><stop offset="1" stop-color="#ffb9f6" stop-opacity="0"/></radialGradient><radialGradient cx="249.2" cy="148.5" r="4.85" gradientUnits="userSpaceOnUse" id="color-10"><stop offset="0" stop-color="#ffb9f6"/><stop offset="1" stop-color="#ffb9f6" stop-opacity="0"/></radialGradient><radialGradient cx="249" cy="140.6" r="3.95" gradientUnits="userSpaceOnUse" id="color-11"><stop offset="0" stop-color="#ffb9f6"/><stop offset="1" stop-color="#ffb9f6" stop-opacity="0"/></radialGradient><radialGradient cx="289.20748" cy="129.71883" r="7.60515" gradientUnits="userSpaceOnUse" id="color-12"><stop offset="0" stop-color="#ffb9f6"/><stop offset="1" stop-color="#ffb9f6" stop-opacity="0"/></radialGradient><radialGradient cx="271.9" cy="144.2" r="6.75" gradientUnits="userSpaceOnUse" id="color-13"><stop offset="0" stop-color="#ffb9f6"/><stop offset="1" stop-color="#ffb9f6" stop-opacity="0"/></radialGradient><radialGradient cx="274.95" cy="142.25" r="3.8" gradientUnits="userSpaceOnUse" id="color-14"><stop offset="0" stop-color="#ffb9f6"/><stop offset="1" stop-color="#ffb9f6" stop-opacity="0"/></radialGradient><radialGradient cx="249" cy="164.2" r="2.65" gradientUnits="userSpaceOnUse" id="color-15"><stop offset="0" stop-color="#ffb9f6"/><stop offset="1" stop-color="#ffb9f6" stop-opacity="0"/></radialGradient></defs><g transform="translate(-239.71327,-120.45211)"><g data-paper-data="{&quot;isPaintingLayer&quot;:true}" fill-rule="nonzero" stroke-linejoin="miter" stroke-miterlimit="10" stroke-dasharray="" stroke-dashoffset="0" style="mix-blend-mode: normal"><path d="M240.46327,179.96284v-58.76072h60.86325v58.76072z" fill="url(#color-1)" stroke="#bf86bd" stroke-width="1.5" stroke-linecap="butt"/><path d="M239.96343,180.14295v-12.57143h61.85715v12.57143z" fill="url(#color-2)" stroke="none" stroke-width="0" stroke-linecap="butt"/><path d="M249,156.44046c0,0 1.94918,-3.33547 9.80892,-4.13768c4.40495,-0.44959 13.57823,2.58693 18.30505,-0.51448c2.63322,-1.72773 2.66783,-7.39146 2.65596,-11.74635c-0.00952,-3.49007 -0.76852,-8.25578 -0.60398,-10.8614c0.29852,-4.72741 1.51222,-5.05665 1.51222,-5.05665" fill="none" stroke="url(#color-3)" stroke-width="4" stroke-linecap="round"/><path d="M257.98864,165.1459c0.10573,-0.61089 4.63049,-3.46021 5.2043,-7.70956c0.69844,-5.17229 -2.24422,-14.1074 0.69939,-17.97691c1.90681,-2.50659 7.5592,-2.14693 11.90271,-1.83199c3.48095,0.2524 8.18227,1.34124 10.79303,1.35845c4.73672,0.03123 9.39384,-4.13193 9.39384,-4.13193" data-paper-data="{&quot;index&quot;:null}" fill="none" stroke="url(#color-4)" stroke-width="4" stroke-linecap="round"/><path d="M263.25449,145.35984l6.92111,6.92112" fill="none" stroke="url(#color-5)" stroke-width="1.5" stroke-linecap="round"/><path d="M279.89462,131.07583l6.50128,7.40466" fill="none" stroke="url(#color-6)" stroke-width="1.5" stroke-linecap="round"/><path d="M280.9364,127.26358l8.91353,9.94434" fill="none" stroke="url(#color-7)" stroke-width="1.5" stroke-linecap="round"/><path d="M269.95,160.15l6.4,1.9" fill="none" stroke="url(#color-8)" stroke-width="1.5" stroke-linecap="round"/><path d="M282.95,157.65l5.5,3.6" fill="none" stroke="url(#color-9)" stroke-width="1.5" stroke-linecap="round"/><path d="M244.35,148.55l9.7,-0.1" fill="none" stroke="url(#color-10)" stroke-width="1.5" stroke-linecap="round"/><path d="M245.05,138.15l7.9,4.9" fill="none" stroke="url(#color-11)" stroke-width="1.5" stroke-linecap="round"/><path d="M281.33768,123.218l13.11232,13.632" fill="none" stroke="url(#color-12)" stroke-width="1.5" stroke-linecap="round"/><path d="M265.35,137.45l13.1,13.5" fill="none" stroke="url(#color-13)" stroke-width="1.5" stroke-linecap="round"/><path d="M271.25,138.45l7.4,7.6" fill="none" stroke="url(#color-14)" stroke-width="1.5" stroke-linecap="round"/><path d="M246.35,164.85l5.3,-1.3" fill="none" stroke="url(#color-15)" stroke-width="1.5" stroke-linecap="round"/></g></g></svg>