<svg version="1.1" xmlns="http://www.w3.org/2000/svg" xmlns:xlink="http://www.w3.org/1999/xlink" width="62.44658" height="60.86297" viewBox="0,0,62.44658,60.86297"><defs><linearGradient x1="271.06156" y1="121.10226" x2="271.06156" y2="179.86297" gradientUnits="userSpaceOnUse" id="color-1"><stop offset="0" stop-color="#8c896b"/><stop offset="1" stop-color="#52503f"/></linearGradient><linearGradient x1="271.09001" y1="134.11949" x2="271.09001" y2="169.89479" gradientUnits="userSpaceOnUse" id="color-2"><stop offset="0" stop-color="#2f2c0f"/><stop offset="1" stop-color="#2f2c0f" stop-opacity="0"/></linearGradient><radialGradient cx="271.12501" cy="144.75" r="22.5" gradientUnits="userSpaceOnUse" id="color-3"><stop offset="0" stop-color="#fff4c1"/><stop offset="1" stop-color="#fff4c1" stop-opacity="0"/></radialGradient><radialGradient cx="271.12501" cy="144.75" r="22.5" gradientUnits="userSpaceOnUse" id="color-4"><stop offset="0" stop-color="#f8ff95"/><stop offset="1" stop-color="#f8ff95" stop-opacity="0"/></radialGradient><radialGradient cx="271.12501" cy="144.75" r="17.75" gradientUnits="userSpaceOnUse" id="color-5"><stop offset="0" stop-color="#fff4c1"/><stop offset="1" stop-color="#fff4c1" stop-opacity="0"/></radialGradient><radialGradient cx="271.12501" cy="144.75" r="17.75" gradientUnits="userSpaceOnUse" id="color-6"><stop offset="0" stop-color="#f8ff95"/><stop offset="1" stop-color="#f8ff95" stop-opacity="0"/></radialGradient><radialGradient cx="271.22501" cy="144.75" r="11.8125" gradientUnits="userSpaceOnUse" id="color-7"><stop offset="0" stop-color="#fff4c1"/><stop offset="1" stop-color="#fff4c1" stop-opacity="0"/></radialGradient><radialGradient cx="271.22501" cy="144.75" r="11.8125" gradientUnits="userSpaceOnUse" id="color-8"><stop offset="0" stop-color="#f8ff95"/><stop offset="1" stop-color="#f8ff95" stop-opacity="0"/></radialGradient><linearGradient x1="270.89207" y1="167.69645" x2="270.89207" y2="180.2681" gradientUnits="userSpaceOnUse" id="color-9"><stop offset="0" stop-color="#aba682"/><stop offset="1" stop-color="#848064"/></linearGradient><radialGradient cx="271.12501" cy="144.75" r="25.42856" gradientUnits="userSpaceOnUse" id="color-10"><stop offset="0" stop-color="#ffffff" stop-opacity="0"/><stop offset="1" stop-color="#ffffff"/></radialGradient><radialGradient cx="271.12501" cy="144.75" r="3.88889" gradientUnits="userSpaceOnUse" id="color-11"><stop offset="0" stop-color="#ffffff"/><stop offset="1" stop-color="#ffffff" stop-opacity="0"/></radialGradient><radialGradient cx="256.48659" cy="138.54152" r="4.47097" gradientUnits="userSpaceOnUse" id="color-12"><stop offset="0" stop-color="#ffffff" stop-opacity="0"/><stop offset="1" stop-color="#ffffff"/></radialGradient><radialGradient cx="259.75253" cy="130.52286" r="4.47097" gradientUnits="userSpaceOnUse" id="color-13"><stop offset="0" stop-color="#ffffff" stop-opacity="0"/><stop offset="1" stop-color="#ffffff"/></radialGradient><radialGradient cx="254.49583" cy="154.15896" r="4.47097" gradientUnits="userSpaceOnUse" id="color-14"><stop offset="0" stop-color="#ffffff" stop-opacity="0"/><stop offset="1" stop-color="#ffffff"/></radialGradient><radialGradient cx="264.87442" cy="159.94916" r="4.47097" gradientUnits="userSpaceOnUse" id="color-15"><stop offset="0" stop-color="#ffffff" stop-opacity="0"/><stop offset="1" stop-color="#ffffff"/></radialGradient><radialGradient cx="273.64516" cy="158.87202" r="4.47097" gradientUnits="userSpaceOnUse" id="color-16"><stop offset="0" stop-color="#ffffff" stop-opacity="0"/><stop offset="1" stop-color="#ffffff"/></radialGradient><radialGradient cx="283.40261" cy="152.5715" r="4.47097" gradientUnits="userSpaceOnUse" id="color-17"><stop offset="0" stop-color="#ffffff" stop-opacity="0"/><stop offset="1" stop-color="#ffffff"/></radialGradient><radialGradient cx="280.48996" cy="133.19266" r="4.47097" gradientUnits="userSpaceOnUse" id="color-18"><stop offset="0" stop-color="#ffffff" stop-opacity="0"/><stop offset="1" stop-color="#ffffff"/></radialGradient><radialGradient cx="285.8821" cy="138.34635" r="4.47097" gradientUnits="userSpaceOnUse" id="color-19"><stop offset="0" stop-color="#ffffff" stop-opacity="0"/><stop offset="1" stop-color="#ffffff"/></radialGradient><radialGradient cx="276.75865" cy="127.59686" r="4.47097" gradientUnits="userSpaceOnUse" id="color-20"><stop offset="0" stop-color="#ffffff" stop-opacity="0"/><stop offset="1" stop-color="#ffffff"/></radialGradient><radialGradient cx="270.79269" cy="129.70177" r="4.47097" gradientUnits="userSpaceOnUse" id="color-21"><stop offset="0" stop-color="#ffffff" stop-opacity="0"/><stop offset="1" stop-color="#ffffff"/></radialGradient><radialGradient cx="279.64793" cy="159.81683" r="4.47097" gradientUnits="userSpaceOnUse" id="color-22"><stop offset="0" stop-color="#ffffff" stop-opacity="0"/><stop offset="1" stop-color="#ffffff"/></radialGradient></defs><g transform="translate(-239.7967,-119.75)"><g data-paper-data="{&quot;isPaintingLayer&quot;:true}" fill-rule="nonzero" stroke-linejoin="miter" stroke-miterlimit="10" stroke-dasharray="" stroke-dashoffset="0" style="mix-blend-mode: normal"><path d="M240.5467,179.86297v-58.76072h60.94658v58.76072z" fill="url(#color-1)" stroke="#c0bb92" stroke-width="1.5" stroke-linecap="butt"/><path d="M241.20636,169.89479v-35.77529h59.76739v35.77529z" data-paper-data="{&quot;index&quot;:null}" fill="url(#color-2)" stroke="none" stroke-width="0" stroke-linecap="butt"/><path d="M241.40303,134.07713h59.38095" fill="none" stroke="#524e2a" stroke-width="0.5" stroke-linecap="round"/><path d="M248.62501,144.75c0,-12.42641 10.07359,-22.5 22.5,-22.5c12.42641,0 22.5,10.07359 22.5,22.5c0,12.42641 -10.07359,22.5 -22.5,22.5c-12.42641,0 -22.5,-10.07359 -22.5,-22.5z" fill="url(#color-3)" stroke="url(#color-4)" stroke-width="5" stroke-linecap="butt"/><path d="M253.37501,144.75c0,-9.80305 7.94695,-17.75 17.75,-17.75c9.80305,0 17.75,7.94695 17.75,17.75c0,9.80306 -7.94695,17.75 -17.75,17.75c-9.80305,0 -17.75,-7.94694 -17.75,-17.75z" fill="url(#color-5)" stroke="url(#color-6)" stroke-width="5" stroke-linecap="butt"/><path d="M259.41251,144.75c0,-6.52387 5.28863,-11.8125 11.8125,-11.8125c6.52387,0 11.8125,5.28863 11.8125,11.8125c0,6.52387 -5.28863,11.8125 -11.8125,11.8125c-6.52387,0 -11.8125,-5.28863 -11.8125,-11.8125z" fill="url(#color-7)" stroke="url(#color-8)" stroke-width="5" stroke-linecap="butt"/><path d="M239.96356,180.2681v-12.57143h61.85715v12.57143z" fill="url(#color-9)" stroke="none" stroke-width="0" stroke-linecap="butt"/><path d="M296.55357,144.75h-50.85714" fill="none" stroke="#ffffff" stroke-width="1.5" stroke-linecap="round"/><path d="M296.55357,144.75h-50.85714" fill="none" stroke="url(#color-10)" stroke-width="3" stroke-linecap="round"/><path d="M267.23612,144.75c0,-2.14777 1.74111,-3.88889 3.88889,-3.88889c2.14778,0 3.88889,1.74112 3.88889,3.88889c0,2.14777 -1.74111,3.88889 -3.88889,3.88889c-2.14778,0 -3.88889,-1.74112 -3.88889,-3.88889z" fill="#ffffff" stroke="url(#color-11)" stroke-width="3.5" stroke-linecap="butt"/><path d="M262.43764,140.59305l-6.36529,-1.80766" fill="none" stroke="url(#color-12)" stroke-width="1" stroke-linecap="round"/><path d="M263.63773,135.47553l-4.36548,-4.97264" fill="none" stroke="url(#color-13)" stroke-width="1" stroke-linecap="round"/><path d="M260.13061,151.35309l-5.75126,3.27224" fill="none" stroke="url(#color-14)" stroke-width="1" stroke-linecap="round"/><path d="M267.42805,154.19567l-2.34613,6.1871" fill="none" stroke="url(#color-15)" stroke-width="1" stroke-linecap="round"/><path d="M272.6547,152.65568l1.40057,6.46707" fill="none" stroke="url(#color-16)" stroke-width="1" stroke-linecap="round"/><path d="M283.8735,152.4749l-5.43703,-3.77138" fill="none" stroke="url(#color-17)" stroke-width="1" stroke-linecap="round"/><path d="M276.06008,137.66479l4.38983,-4.95116" fill="none" stroke="url(#color-18)" stroke-width="1" stroke-linecap="round"/><path d="M286.08229,137.90932l-6.25459,2.1598" fill="none" stroke="url(#color-19)" stroke-width="1" stroke-linecap="round"/><path d="M273.93829,133.22442l2.63341,-6.0704" fill="none" stroke="url(#color-20)" stroke-width="1" stroke-linecap="round"/><path d="M270.67704,135.99546l-0.24412,-6.61249" fill="none" stroke="url(#color-21)" stroke-width="1" stroke-linecap="round"/><path d="M280.106,159.96256l-2.90201,-5.94668" fill="none" stroke="url(#color-22)" stroke-width="1" stroke-linecap="round"/></g></g></svg>