<svg width="480px" height="360px" xmlns="http://www.w3.org/2000/svg"><path fill="#F00" d="M249.830 174.834L244.884 174.834Q245.276 176.585 246.249 177.454Q247.223 178.323 248.900 178.323L248.900 178.323Q249.806 178.323 250.644 178.084Q251.483 177.845 252.254 177.417L252.254 177.417L252.254 179.425Q251.409 179.816 250.522 180.018Q249.634 180.220 248.679 180.220L248.679 180.220Q246.096 180.220 244.572 178.874Q243.048 177.527 242.583 174.834L242.583 174.834L240.624 174.834L240.624 173.169L242.387 173.169Q242.363 172.936 242.363 172.704Q242.363 172.471 242.363 172.190L242.363 172.190Q242.363 171.884 242.375 171.584Q242.387 171.284 242.412 170.990L242.412 170.990L240.624 170.990L240.624 169.325L242.656 169.325Q242.938 168.040 243.489 167.011Q244.040 165.983 244.823 165.267Q245.607 164.551 246.604 164.165Q247.602 163.780 248.802 163.780L248.802 163.780Q249.781 163.780 250.620 163.976Q251.458 164.171 252.254 164.551L252.254 164.551L252.254 166.644Q251.483 166.179 250.656 165.928Q249.830 165.677 248.851 165.677L248.851 165.677Q247.333 165.677 246.353 166.607Q245.374 167.538 244.909 169.325L244.909 169.325L249.830 169.325L249.830 170.990L244.664 170.990Q244.640 171.247 244.627 171.510Q244.615 171.774 244.615 172.043L244.615 172.043Q244.615 172.349 244.627 172.618Q244.640 172.888 244.640 173.169L244.640 173.169L249.830 173.169L249.830 174.834Z"/></svg>