<svg version="1.1" xmlns="http://www.w3.org/2000/svg" xmlns:xlink="http://www.w3.org/1999/xlink" width="240.8" height="192.8" viewBox="0,0,240.8,192.8"><defs><linearGradient x1="120" y1="84" x2="120" y2="276" gradientUnits="userSpaceOnUse" id="color-1"><stop offset="0" stop-color="#4d6066"/><stop offset="1" stop-color="#00141a"/></linearGradient></defs><g transform="translate(-119.6,-83.6)"><g data-paper-data="{&quot;isPaintingLayer&quot;:true}" fill-rule="nonzero" stroke-linejoin="miter" stroke-miterlimit="10" stroke-dasharray="" stroke-dashoffset="0" style="mix-blend-mode: normal"><path d="M120,276v-192h240v192z" fill="url(#color-1)" stroke="none" stroke-width="1" stroke-linecap="butt"/><path d="M120,84h240" fill="#000000" stroke-opacity="0.5" stroke="#ffffff" stroke-width="0.8" stroke-linecap="butt"/><path d="M120,100h240" fill="#000000" stroke-opacity="0.5" stroke="#ffffff" stroke-width="0.8" stroke-linecap="butt"/><path d="M120,116h240" fill="#000000" stroke-opacity="0.5" stroke="#ffffff" stroke-width="0.8" stroke-linecap="butt"/><path d="M120,132h240" fill="#000000" stroke-opacity="0.5" stroke="#ffffff" stroke-width="0.8" stroke-linecap="butt"/><path d="M120,148h240" fill="#000000" stroke-opacity="0.5" stroke="#ffffff" stroke-width="0.8" stroke-linecap="butt"/><path d="M120,164h240" fill="#000000" stroke-opacity="0.5" stroke="#ffffff" stroke-width="0.8" stroke-linecap="butt"/><path d="M120,180h240" fill="#000000" stroke-opacity="0.5" stroke="#ffffff" stroke-width="0.8" stroke-linecap="butt"/><path d="M120,196h240" fill="#000000" stroke-opacity="0.5" stroke="#ffffff" stroke-width="0.8" stroke-linecap="butt"/><path d="M120,212h240" fill="#000000" stroke-opacity="0.5" stroke="#ffffff" stroke-width="0.8" stroke-linecap="butt"/><path d="M120,228h240" fill="#000000" stroke-opacity="0.5" stroke="#ffffff" stroke-width="0.8" stroke-linecap="butt"/><path d="M120,244h240" fill="#000000" stroke-opacity="0.5" stroke="#ffffff" stroke-width="0.8" stroke-linecap="butt"/><path d="M120,260h240" fill="#000000" stroke-opacity="0.5" stroke="#ffffff" stroke-width="0.8" stroke-linecap="butt"/><path d="M120,276h240" fill="#000000" stroke-opacity="0.5" stroke="#ffffff" stroke-width="0.8" stroke-linecap="butt"/><path d="M120,84v192" fill="#000000" stroke-opacity="0.5" stroke="#ffffff" stroke-width="0.8" stroke-linecap="butt"/><path d="M136,84v192" fill="#000000" stroke-opacity="0.5" stroke="#ffffff" stroke-width="0.8" stroke-linecap="butt"/><path d="M152,84v192" fill="#000000" stroke-opacity="0.5" stroke="#ffffff" stroke-width="0.8" stroke-linecap="butt"/><path d="M168,84v192" fill="#000000" stroke-opacity="0.5" stroke="#ffffff" stroke-width="0.8" stroke-linecap="butt"/><path d="M184,84v192" fill="#000000" stroke-opacity="0.5" stroke="#ffffff" stroke-width="0.8" stroke-linecap="butt"/><path d="M200,84v192" fill="#000000" stroke-opacity="0.5" stroke="#ffffff" stroke-width="0.8" stroke-linecap="butt"/><path d="M216,84v192" fill="#000000" stroke-opacity="0.5" stroke="#ffffff" stroke-width="0.8" stroke-linecap="butt"/><path d="M232,84v192" fill="#000000" stroke-opacity="0.5" stroke="#ffffff" stroke-width="0.8" stroke-linecap="butt"/><path d="M248,84v192" fill="#000000" stroke-opacity="0.5" stroke="#ffffff" stroke-width="0.8" stroke-linecap="butt"/><path d="M264,84v192" fill="#000000" stroke-opacity="0.5" stroke="#ffffff" stroke-width="0.8" stroke-linecap="butt"/><path d="M280,84v192" fill="#000000" stroke-opacity="0.5" stroke="#ffffff" stroke-width="0.8" stroke-linecap="butt"/><path d="M296,84v192" fill="#000000" stroke-opacity="0.5" stroke="#ffffff" stroke-width="0.8" stroke-linecap="butt"/><path d="M312,84v192" fill="#000000" stroke-opacity="0.5" stroke="#ffffff" stroke-width="0.8" stroke-linecap="butt"/><path d="M328,84v192" fill="#000000" stroke-opacity="0.5" stroke="#ffffff" stroke-width="0.8" stroke-linecap="butt"/><path d="M344,84v192" fill="#000000" stroke-opacity="0.5" stroke="#ffffff" stroke-width="0.8" stroke-linecap="butt"/><path d="M360,84v192" fill="#000000" stroke-opacity="0.5" stroke="#ffffff" stroke-width="0.8" stroke-linecap="butt"/><path d="M240,268v-64" fill="#000000" stroke-opacity="0.5" stroke="#a3ff33" stroke-width="15.2" stroke-linecap="round"/><path d="M240,204v-96" fill="#000000" stroke-opacity="0.5" stroke="#a3ff33" stroke-width="15.2" stroke-linecap="round"/><path d="M208,220v48" fill="#000000" stroke-opacity="0.5" stroke="#a3ff33" stroke-width="15.2" stroke-linecap="round"/><path d="M208,220h-64" fill="#000000" stroke-opacity="0.5" stroke="#a3ff33" stroke-width="15.2" stroke-linecap="round"/><path d="M272,220v48" fill="#000000" stroke-opacity="0.5" stroke="#a3ff33" stroke-width="15.2" stroke-linecap="round"/><path d="M272,220h64" fill="#000000" stroke-opacity="0.5" stroke="#a3ff33" stroke-width="15.2" stroke-linecap="round"/><path d="M240,268v-64" fill="#000000" stroke="#bbff3d" stroke-width="10.4" stroke-linecap="round"/><path d="M240,204v-96" fill="#000000" stroke="#bbff3d" stroke-width="10.4" stroke-linecap="round"/><path d="M208,220v48" fill="#000000" stroke="#bbff3d" stroke-width="10.4" stroke-linecap="round"/><path d="M208,220h-64" fill="#000000" stroke="#bbff3d" stroke-width="10.4" stroke-linecap="round"/><path d="M272,220v48" fill="#000000" stroke="#bbff3d" stroke-width="10.4" stroke-linecap="round"/><path d="M272,220h64" fill="#000000" stroke="#bbff3d" stroke-width="10.4" stroke-linecap="round"/><path d="M224,276c-4.41828,0 -8,-3.58172 -8,-8v-160c0,-4.41828 3.58172,-8 8,-8v0c4.41828,0 8,3.58172 8,8v160c0,4.41828 -3.58172,8 -8,8z" fill="#bcd5e0" stroke="none" stroke-width="1" stroke-linecap="butt"/><path d="M176,116c-4.41828,0 -8,-3.58172 -8,-8v0c0,-4.41828 3.58172,-8 8,-8h48c4.41828,0 8,3.58172 8,8v0c0,4.41828 -3.58172,8 -8,8z" fill="#bcd5e0" stroke="none" stroke-width="1" stroke-linecap="butt"/><path d="M176,180c-4.41828,0 -8,-3.58172 -8,-8v-64c0,-4.41828 3.58172,-8 8,-8v0c4.41828,0 8,3.58172 8,8v64c0,4.41828 -3.58172,8 -8,8z" fill="#bcd5e0" stroke="none" stroke-width="1" stroke-linecap="butt"/><path d="M144,180c-4.41828,0 -8,-3.58172 -8,-8v0c0,-4.41828 3.58172,-8 8,-8h32c4.41828,0 8,3.58172 8,8v0c0,4.41828 -3.58172,8 -8,8z" fill="#bcd5e0" stroke="none" stroke-width="1" stroke-linecap="butt"/><path d="M144,212c-4.41828,0 -8,-3.58172 -8,-8v-32c0,-4.41828 3.58172,-8 8,-8v0c4.41828,0 8,3.58172 8,8v32c0,4.41828 -3.58172,8 -8,8z" fill="#bcd5e0" stroke="none" stroke-width="1" stroke-linecap="butt"/><path d="M144,212c-4.41828,0 -8,-3.58172 -8,-8v0c0,-4.41828 3.58172,-8 8,-8h192c4.41828,0 8,3.58172 8,8v0c0,4.41828 -3.58172,8 -8,8z" fill="#bcd5e0" stroke="none" stroke-width="1" stroke-linecap="butt"/><path d="M336,212c-4.41828,0 -8,-3.58172 -8,-8v-32c0,-4.41828 3.58172,-8 8,-8v0c4.41828,0 8,3.58172 8,8v32c0,4.41828 -3.58172,8 -8,8z" fill="#bcd5e0" stroke="none" stroke-width="1" stroke-linecap="butt"/><path d="M304,180c-4.41828,0 -8,-3.58172 -8,-8v0c0,-4.41828 3.58172,-8 8,-8h32c4.41828,0 8,3.58172 8,8v0c0,4.41828 -3.58172,8 -8,8z" fill="#bcd5e0" stroke="none" stroke-width="1" stroke-linecap="butt"/><path d="M304,180c-4.41828,0 -8,-3.58172 -8,-8v-64c0,-4.41828 3.58172,-8 8,-8v0c4.41828,0 8,3.58172 8,8v64c0,4.41828 -3.58172,8 -8,8z" fill="#bcd5e0" stroke="none" stroke-width="1" stroke-linecap="butt"/><path d="M256,116c-4.41828,0 -8,-3.58172 -8,-8v0c0,-4.41828 3.58172,-8 8,-8h48c4.41828,0 8,3.58172 8,8v0c0,4.41828 -3.58172,8 -8,8z" fill="#bcd5e0" stroke="none" stroke-width="1" stroke-linecap="butt"/><path d="M256,276c-4.41828,0 -8,-3.58172 -8,-8v-160c0,-4.41828 3.58172,-8 8,-8v0c4.41828,0 8,3.58172 8,8v160c0,4.41828 -3.58172,8 -8,8z" fill="#bcd5e0" stroke="none" stroke-width="1" stroke-linecap="butt"/><path d="M224,108v160" fill="#000000" stroke="#213a34" stroke-width="12" stroke-linecap="round"/><path d="M224,108h-48" fill="#000000" stroke="#213a34" stroke-width="12" stroke-linecap="round"/><path d="M176,108v64" fill="#000000" stroke="#213a34" stroke-width="12" stroke-linecap="round"/><path d="M176,172h-32" fill="#000000" stroke="#213a34" stroke-width="12" stroke-linecap="round"/><path d="M144,172v32" fill="#000000" stroke="#213a34" stroke-width="12" stroke-linecap="round"/><path d="M144,204h192" fill="#000000" stroke="#213a34" stroke-width="12" stroke-linecap="round"/><path d="M336,172v32" fill="#000000" stroke="#213a34" stroke-width="12" stroke-linecap="round"/><path d="M336,172h-32" fill="#000000" stroke="#213a34" stroke-width="12" stroke-linecap="round"/><path d="M304,172v-64" fill="#000000" stroke="#213a34" stroke-width="12" stroke-linecap="round"/><path d="M304,108h-48" fill="#000000" stroke="#213a34" stroke-width="12" stroke-linecap="round"/><path d="M256,108v160" fill="#000000" stroke="#213a34" stroke-width="12" stroke-linecap="round"/><path d="M235.2,204h-22.4" fill="#000000" stroke="#1c332c" stroke-width="9.6" stroke-linecap="round"/><path d="M224,192.8v22.4" fill="#000000" stroke="#213a33" stroke-width="9.6" stroke-linecap="round"/><path d="M256,192.8v22.4" fill="#000000" stroke="#1c332c" stroke-width="9.6" stroke-linecap="round"/><path d="M267.2,204h-22.4" fill="#000000" stroke="#213a33" stroke-width="9.6" stroke-linecap="round"/><path d="M128,188c0,-17.67311 14.32689,-32 32,-32c17.67311,0 32,14.32689 32,32c0,17.67311 -14.32689,32 -32,32c-17.67311,0 -32,-14.32689 -32,-32z" fill-opacity="0.3" fill="#bbfff4" stroke-opacity="0.6" stroke="#bbfff4" stroke-width="1.6" stroke-linecap="butt"/><path d="M288,188c0,-17.67311 14.32689,-32 32,-32c17.67311,0 32,14.32689 32,32c0,17.67311 -14.32689,32 -32,32c-17.67311,0 -32,-14.32689 -32,-32z" fill-opacity="0.3" fill="#bbfff4" stroke-opacity="0.6" stroke="#bbfff4" stroke-width="1.6" stroke-linecap="butt"/><path d="M216,268c0,-4.41828 3.58172,-8 8,-8c4.41828,0 8,3.58172 8,8c0,4.41828 -3.58172,8 -8,8c-4.41828,0 -8,-3.58172 -8,-8z" fill-opacity="0.35" fill="#00ff44" stroke="none" stroke-width="1" stroke-linecap="butt"/><path d="M248,268c0,-4.41828 3.58172,-8 8,-8c4.41828,0 8,3.58172 8,8c0,4.41828 -3.58172,8 -8,8c-4.41828,0 -8,-3.58172 -8,-8z" fill-opacity="0.35" fill="#ff0404" stroke="none" stroke-width="1" stroke-linecap="butt"/><path d="M236,236c0,-2.20914 1.79086,-4 4,-4c2.20914,0 4,1.79086 4,4c0,2.20914 -1.79086,4 -4,4c-2.20914,0 -4,-1.79086 -4,-4z" fill-opacity="0.8" fill="#3a627f" stroke="none" stroke-width="1" stroke-linecap="butt"/><path d="M236,172c0,-2.20914 1.79086,-4 4,-4c2.20914,0 4,1.79086 4,4c0,2.20914 -1.79086,4 -4,4c-2.20914,0 -4,-1.79086 -4,-4z" fill-opacity="0.8" fill="#3a627f" stroke="none" stroke-width="1" stroke-linecap="butt"/><path d="M240,236v-64" fill="#000000" stroke-opacity="0.8" stroke="#75c5ff" stroke-width="4" stroke-linecap="round"/></g></g></svg>