<svg version="1.1" xmlns="http://www.w3.org/2000/svg" xmlns:xlink="http://www.w3.org/1999/xlink" width="240.8" height="144.8" viewBox="0,0,240.8,144.8"><defs><linearGradient x1="120" y1="108" x2="120" y2="252" gradientUnits="userSpaceOnUse" id="color-1"><stop offset="0" stop-color="#5a950d"/><stop offset="1" stop-color="#203504"/></linearGradient></defs><g transform="translate(-119.6,-107.6)"><g data-paper-data="{&quot;isPaintingLayer&quot;:true}" fill-rule="nonzero" stroke-linejoin="miter" stroke-miterlimit="10" stroke-dasharray="" stroke-dashoffset="0" style="mix-blend-mode: normal"><path d="M120,252v-144h240v144z" fill="url(#color-1)" stroke="none" stroke-width="1" stroke-linecap="butt"/><path d="M120,108h240" fill="#000000" stroke-opacity="0.5" stroke="#ffffff" stroke-width="0.8" stroke-linecap="butt"/><path d="M120,124h240" fill="#000000" stroke-opacity="0.5" stroke="#ffffff" stroke-width="0.8" stroke-linecap="butt"/><path d="M120,140h240" fill="#000000" stroke-opacity="0.5" stroke="#ffffff" stroke-width="0.8" stroke-linecap="butt"/><path d="M120,156h240" fill="#000000" stroke-opacity="0.5" stroke="#ffffff" stroke-width="0.8" stroke-linecap="butt"/><path d="M120,172h240" fill="#000000" stroke-opacity="0.5" stroke="#ffffff" stroke-width="0.8" stroke-linecap="butt"/><path d="M120,188h240" fill="#000000" stroke-opacity="0.5" stroke="#ffffff" stroke-width="0.8" stroke-linecap="butt"/><path d="M120,204h240" fill="#000000" stroke-opacity="0.5" stroke="#ffffff" stroke-width="0.8" stroke-linecap="butt"/><path d="M120,220h240" fill="#000000" stroke-opacity="0.5" stroke="#ffffff" stroke-width="0.8" stroke-linecap="butt"/><path d="M120,236h240" fill="#000000" stroke-opacity="0.5" stroke="#ffffff" stroke-width="0.8" stroke-linecap="butt"/><path d="M120,252h240" fill="#000000" stroke-opacity="0.5" stroke="#ffffff" stroke-width="0.8" stroke-linecap="butt"/><path d="M120,108v144" fill="#000000" stroke-opacity="0.5" stroke="#ffffff" stroke-width="0.8" stroke-linecap="butt"/><path d="M136,108v144" fill="#000000" stroke-opacity="0.5" stroke="#ffffff" stroke-width="0.8" stroke-linecap="butt"/><path d="M152,108v144" fill="#000000" stroke-opacity="0.5" stroke="#ffffff" stroke-width="0.8" stroke-linecap="butt"/><path d="M168,108v144" fill="#000000" stroke-opacity="0.5" stroke="#ffffff" stroke-width="0.8" stroke-linecap="butt"/><path d="M184,108v144" fill="#000000" stroke-opacity="0.5" stroke="#ffffff" stroke-width="0.8" stroke-linecap="butt"/><path d="M200,108v144" fill="#000000" stroke-opacity="0.5" stroke="#ffffff" stroke-width="0.8" stroke-linecap="butt"/><path d="M216,108v144" fill="#000000" stroke-opacity="0.5" stroke="#ffffff" stroke-width="0.8" stroke-linecap="butt"/><path d="M232,108v144" fill="#000000" stroke-opacity="0.5" stroke="#ffffff" stroke-width="0.8" stroke-linecap="butt"/><path d="M248,108v144" fill="#000000" stroke-opacity="0.5" stroke="#ffffff" stroke-width="0.8" stroke-linecap="butt"/><path d="M264,108v144" fill="#000000" stroke-opacity="0.5" stroke="#ffffff" stroke-width="0.8" stroke-linecap="butt"/><path d="M280,108v144" fill="#000000" stroke-opacity="0.5" stroke="#ffffff" stroke-width="0.8" stroke-linecap="butt"/><path d="M296,108v144" fill="#000000" stroke-opacity="0.5" stroke="#ffffff" stroke-width="0.8" stroke-linecap="butt"/><path d="M312,108v144" fill="#000000" stroke-opacity="0.5" stroke="#ffffff" stroke-width="0.8" stroke-linecap="butt"/><path d="M328,108v144" fill="#000000" stroke-opacity="0.5" stroke="#ffffff" stroke-width="0.8" stroke-linecap="butt"/><path d="M344,108v144" fill="#000000" stroke-opacity="0.5" stroke="#ffffff" stroke-width="0.8" stroke-linecap="butt"/><path d="M360,108v144" fill="#000000" stroke-opacity="0.5" stroke="#ffffff" stroke-width="0.8" stroke-linecap="butt"/><path d="M240,132v112" fill="#000000" stroke-opacity="0.5" stroke="#a3ff33" stroke-width="15.2" stroke-linecap="round"/><path d="M272,164h-64" fill="#000000" stroke-opacity="0.5" stroke="#a3ff33" stroke-width="15.2" stroke-linecap="round"/><path d="M208,212h64" fill="#000000" stroke-opacity="0.5" stroke="#a3ff33" stroke-width="15.2" stroke-linecap="round"/><path d="M128,132v-16" fill="#000000" stroke-opacity="0.5" stroke="#a3ff33" stroke-width="15.2" stroke-linecap="round"/><path d="M128,116h16" fill="#000000" stroke-opacity="0.5" stroke="#a3ff33" stroke-width="15.2" stroke-linecap="round"/><path d="M336,116h16" fill="#000000" stroke-opacity="0.5" stroke="#a3ff33" stroke-width="15.2" stroke-linecap="round"/><path d="M352,116v16" fill="#000000" stroke-opacity="0.5" stroke="#a3ff33" stroke-width="15.2" stroke-linecap="round"/><path d="M208,116h64" fill="#000000" stroke-opacity="0.5" stroke="#a3ff33" stroke-width="15.2" stroke-linecap="round"/><path d="M160,164v48" fill="#000000" stroke-opacity="0.5" stroke="#a3ff33" stroke-width="15.2" stroke-linecap="round"/><path d="M176,164v48" fill="#000000" stroke-opacity="0.5" stroke="#a3ff33" stroke-width="15.2" stroke-linecap="round"/><path d="M304,164v48" fill="#000000" stroke-opacity="0.5" stroke="#a3ff33" stroke-width="15.2" stroke-linecap="round"/><path d="M320,164v48" fill="#000000" stroke-opacity="0.5" stroke="#a3ff33" stroke-width="15.2" stroke-linecap="round"/><path d="M240,132v112" fill="#000000" stroke="#2d456f" stroke-width="10.4" stroke-linecap="round"/><path d="M272,164h-64" fill="#000000" stroke="#2d456f" stroke-width="10.4" stroke-linecap="round"/><path d="M208,212h64" fill="#000000" stroke="#2d456f" stroke-width="10.4" stroke-linecap="round"/><path d="M128,132v-16" fill="#000000" stroke="#2d456f" stroke-width="10.4" stroke-linecap="round"/><path d="M128,116h16" fill="#000000" stroke="#2d456f" stroke-width="10.4" stroke-linecap="round"/><path d="M336,116h16" fill="#000000" stroke="#2d456f" stroke-width="10.4" stroke-linecap="round"/><path d="M352,116v16" fill="#000000" stroke="#2d456f" stroke-width="10.4" stroke-linecap="round"/><path d="M208,116h64" fill="#000000" stroke="#2d456f" stroke-width="10.4" stroke-linecap="round"/><path d="M160,164v48" fill="#000000" stroke="#2d456f" stroke-width="10.4" stroke-linecap="round"/><path d="M176,164v48" fill="#000000" stroke="#2d456f" stroke-width="10.4" stroke-linecap="round"/><path d="M304,164v48" fill="#000000" stroke="#2d456f" stroke-width="10.4" stroke-linecap="round"/><path d="M320,164v48" fill="#000000" stroke="#2d456f" stroke-width="10.4" stroke-linecap="round"/><path d="M128,236c-4.41828,0 -8,-3.58172 -8,-8v0c0,-4.41828 3.58172,-8 8,-8h80c4.41828,0 8,3.58172 8,8v0c0,4.41828 -3.58172,8 -8,8z" fill="#bcd5e0" stroke="none" stroke-width="1" stroke-linecap="butt"/><path d="M208,236c-4.41828,0 -8,-3.58172 -8,-8v-16c0,-4.41828 3.58172,-8 8,-8v0c4.41828,0 8,3.58172 8,8v16c0,4.41828 -3.58172,8 -8,8z" fill="#bcd5e0" stroke="none" stroke-width="1" stroke-linecap="butt"/><path d="M144,220c-4.41828,0 -8,-3.58172 -8,-8v0c0,-4.41828 3.58172,-8 8,-8h64c4.41828,0 8,3.58172 8,8v0c0,4.41828 -3.58172,8 -8,8z" fill="#bcd5e0" stroke="none" stroke-width="1" stroke-linecap="butt"/><path d="M144,220c-4.41828,0 -8,-3.58172 -8,-8v-48c0,-4.41828 3.58172,-8 8,-8v0c4.41828,0 8,3.58172 8,8v48c0,4.41828 -3.58172,8 -8,8z" fill="#bcd5e0" stroke="none" stroke-width="1" stroke-linecap="butt"/><path d="M144,172c-4.41828,0 -8,-3.58172 -8,-8v0c0,-4.41828 3.58172,-8 8,-8h64c4.41828,0 8,3.58172 8,8v0c0,4.41828 -3.58172,8 -8,8z" fill="#bcd5e0" stroke="none" stroke-width="1" stroke-linecap="butt"/><path d="M208,172c-4.41828,0 -8,-3.58172 -8,-8v-16c0,-4.41828 3.58172,-8 8,-8v0c4.41828,0 8,3.58172 8,8v16c0,4.41828 -3.58172,8 -8,8z" fill="#bcd5e0" stroke="none" stroke-width="1" stroke-linecap="butt"/><path d="M144,156c-4.41828,0 -8,-3.58172 -8,-8v0c0,-4.41828 3.58172,-8 8,-8h64c4.41828,0 8,3.58172 8,8v0c0,4.41828 -3.58172,8 -8,8z" fill="#bcd5e0" stroke="none" stroke-width="1" stroke-linecap="butt"/><path d="M144,156c-4.41828,0 -8,-3.58172 -8,-8v-16c0,-4.41828 3.58172,-8 8,-8v0c4.41828,0 8,3.58172 8,8v16c0,4.41828 -3.58172,8 -8,8z" fill="#bcd5e0" stroke="none" stroke-width="1" stroke-linecap="butt"/><path d="M144,140c-4.41828,0 -8,-3.58172 -8,-8v0c0,-4.41828 3.58172,-8 8,-8h192c4.41828,0 8,3.58172 8,8v0c0,4.41828 -3.58172,8 -8,8z" fill="#bcd5e0" stroke="none" stroke-width="1" stroke-linecap="butt"/><path d="M336,156c-4.41828,0 -8,-3.58172 -8,-8v-16c0,-4.41828 3.58172,-8 8,-8v0c4.41828,0 8,3.58172 8,8v16c0,4.41828 -3.58172,8 -8,8z" fill="#bcd5e0" stroke="none" stroke-width="1" stroke-linecap="butt"/><path d="M272,156c-4.41828,0 -8,-3.58172 -8,-8v0c0,-4.41828 3.58172,-8 8,-8h64c4.41828,0 8,3.58172 8,8v0c0,4.41828 -3.58172,8 -8,8z" fill="#bcd5e0" stroke="none" stroke-width="1" stroke-linecap="butt"/><path d="M272,172c-4.41828,0 -8,-3.58172 -8,-8v-16c0,-4.41828 3.58172,-8 8,-8v0c4.41828,0 8,3.58172 8,8v16c0,4.41828 -3.58172,8 -8,8z" fill="#bcd5e0" stroke="none" stroke-width="1" stroke-linecap="butt"/><path d="M272,172c-4.41828,0 -8,-3.58172 -8,-8v0c0,-4.41828 3.58172,-8 8,-8h64c4.41828,0 8,3.58172 8,8v0c0,4.41828 -3.58172,8 -8,8z" fill="#bcd5e0" stroke="none" stroke-width="1" stroke-linecap="butt"/><path d="M336,220c-4.41828,0 -8,-3.58172 -8,-8v-48c0,-4.41828 3.58172,-8 8,-8v0c4.41828,0 8,3.58172 8,8v48c0,4.41828 -3.58172,8 -8,8z" fill="#bcd5e0" stroke="none" stroke-width="1" stroke-linecap="butt"/><path d="M272,220c-4.41828,0 -8,-3.58172 -8,-8v0c0,-4.41828 3.58172,-8 8,-8h64c4.41828,0 8,3.58172 8,8v0c0,4.41828 -3.58172,8 -8,8z" fill="#bcd5e0" stroke="none" stroke-width="1" stroke-linecap="butt"/><path d="M272,236c-4.41828,0 -8,-3.58172 -8,-8v-16c0,-4.41828 3.58172,-8 8,-8v0c4.41828,0 8,3.58172 8,8v16c0,4.41828 -3.58172,8 -8,8z" fill="#bcd5e0" stroke="none" stroke-width="1" stroke-linecap="butt"/><path d="M272,236c-4.41828,0 -8,-3.58172 -8,-8v0c0,-4.41828 3.58172,-8 8,-8h80c4.41828,0 8,3.58172 8,8v0c0,4.41828 -3.58172,8 -8,8z" fill="#bcd5e0" stroke="none" stroke-width="1" stroke-linecap="butt"/><path d="M128,228h80" fill="#000000" stroke="#213a34" stroke-width="12" stroke-linecap="round"/><path d="M208,228v-16" fill="#000000" stroke="#213a34" stroke-width="12" stroke-linecap="round"/><path d="M208,212h-64" fill="#000000" stroke="#213a34" stroke-width="12" stroke-linecap="round"/><path d="M144,212v-48" fill="#000000" stroke="#213a34" stroke-width="12" stroke-linecap="round"/><path d="M144,164h64" fill="#000000" stroke="#213a34" stroke-width="12" stroke-linecap="round"/><path d="M208,148v16" fill="#000000" stroke="#213a34" stroke-width="12" stroke-linecap="round"/><path d="M144,148h64" fill="#000000" stroke="#213a34" stroke-width="12" stroke-linecap="round"/><path d="M144,148v-16" fill="#000000" stroke="#213a34" stroke-width="12" stroke-linecap="round"/><path d="M144,132h192" fill="#000000" stroke="#213a34" stroke-width="12" stroke-linecap="round"/><path d="M336,132v16" fill="#000000" stroke="#213a34" stroke-width="12" stroke-linecap="round"/><path d="M336,148h-64" fill="#000000" stroke="#213a34" stroke-width="12" stroke-linecap="round"/><path d="M272,164v-16" fill="#000000" stroke="#213a34" stroke-width="12" stroke-linecap="round"/><path d="M272,164h64" fill="#000000" stroke="#213a34" stroke-width="12" stroke-linecap="round"/><path d="M336,164v48" fill="#000000" stroke="#213a34" stroke-width="12" stroke-linecap="round"/><path d="M336,212h-64" fill="#000000" stroke="#213a34" stroke-width="12" stroke-linecap="round"/><path d="M272,212v16" fill="#000000" stroke="#213a34" stroke-width="12" stroke-linecap="round"/><path d="M272,228h80" fill="#000000" stroke="#213a34" stroke-width="12" stroke-linecap="round"/><path d="M238.4,164c0,-0.88366 0.71634,-1.6 1.6,-1.6c0.88366,0 1.6,0.71634 1.6,1.6c0,0.88366 -0.71634,1.6 -1.6,1.6c-0.88366,0 -1.6,-0.71634 -1.6,-1.6z" fill-opacity="0.8" fill="#75c3ff" stroke="none" stroke-width="1" stroke-linecap="butt"/><path d="M235.2,164c0,-2.65097 2.14903,-4.8 4.8,-4.8c2.65097,0 4.8,2.14903 4.8,4.8c0,2.65097 -2.14903,4.8 -4.8,4.8c-2.65097,0 -4.8,-2.14903 -4.8,-4.8z" fill-opacity="0.6" fill="#75c3ff" stroke="none" stroke-width="1" stroke-linecap="butt"/><path d="M238.4,212c0,-0.88366 0.71634,-1.6 1.6,-1.6c0.88366,0 1.6,0.71634 1.6,1.6c0,0.88366 -0.71634,1.6 -1.6,1.6c-0.88366,0 -1.6,-0.71634 -1.6,-1.6z" fill-opacity="0.8" fill="#8a75ff" stroke="none" stroke-width="1" stroke-linecap="butt"/><path d="M235.2,212c0,-2.65097 2.14903,-4.8 4.8,-4.8c2.65097,0 4.8,2.14903 4.8,4.8c0,2.65097 -2.14903,4.8 -4.8,4.8c-2.65097,0 -4.8,-2.14903 -4.8,-4.8z" fill-opacity="0.6" fill="#8a75ff" stroke="none" stroke-width="1" stroke-linecap="butt"/><path d="M238.4,116c0,-0.88366 0.71634,-1.6 1.6,-1.6c0.88366,0 1.6,0.71634 1.6,1.6c0,0.88366 -0.71634,1.6 -1.6,1.6c-0.88366,0 -1.6,-0.71634 -1.6,-1.6z" fill-opacity="0.8" fill="#75ffd7" stroke="none" stroke-width="1" stroke-linecap="butt"/><path d="M235.2,116c0,-2.65097 2.14903,-4.8 4.8,-4.8c2.65097,0 4.8,2.14903 4.8,4.8c0,2.65097 -2.14903,4.8 -4.8,4.8c-2.65097,0 -4.8,-2.14903 -4.8,-4.8z" fill-opacity="0.6" fill="#75ffd7" stroke="none" stroke-width="1" stroke-linecap="butt"/><path d="M126.4,116c0,-0.88366 0.71634,-1.6 1.6,-1.6c0.88366,0 1.6,0.71634 1.6,1.6c0,0.88366 -0.71634,1.6 -1.6,1.6c-0.88366,0 -1.6,-0.71634 -1.6,-1.6z" fill-opacity="0.8" fill="#75ffd0" stroke="none" stroke-width="1" stroke-linecap="butt"/><path d="M123.2,116c0,-2.65097 2.14903,-4.8 4.8,-4.8c2.65097,0 4.8,2.14903 4.8,4.8c0,2.65097 -2.14903,4.8 -4.8,4.8c-2.65097,0 -4.8,-2.14903 -4.8,-4.8z" fill-opacity="0.6" fill="#75ffd0" stroke="none" stroke-width="1" stroke-linecap="butt"/><path d="M350.4,116c0,-0.88366 0.71634,-1.6 1.6,-1.6c0.88366,0 1.6,0.71634 1.6,1.6c0,0.88366 -0.71634,1.6 -1.6,1.6c-0.88366,0 -1.6,-0.71634 -1.6,-1.6z" fill-opacity="0.8" fill="#75ffdd" stroke="none" stroke-width="1" stroke-linecap="butt"/><path d="M347.2,116c0,-2.65097 2.14903,-4.8 4.8,-4.8c2.65097,0 4.8,2.14903 4.8,4.8c0,2.65097 -2.14903,4.8 -4.8,4.8c-2.65097,0 -4.8,-2.14903 -4.8,-4.8z" fill-opacity="0.6" fill="#75ffdd" stroke="none" stroke-width="1" stroke-linecap="butt"/><path d="M120,228c0,-4.41828 3.58172,-8 8,-8c4.41828,0 8,3.58172 8,8c0,4.41828 -3.58172,8 -8,8c-4.41828,0 -8,-3.58172 -8,-8z" fill-opacity="0.35" fill="#00ff44" stroke="none" stroke-width="1" stroke-linecap="butt"/><path d="M344,228c0,-4.41828 3.58172,-8 8,-8c4.41828,0 8,3.58172 8,8c0,4.41828 -3.58172,8 -8,8c-4.41828,0 -8,-3.58172 -8,-8z" fill-opacity="0.35" fill="#ff0404" stroke="none" stroke-width="1" stroke-linecap="butt"/></g></g></svg>