<svg width="480px" height="360px" xmlns="http://www.w3.org/2000/svg"><path fill="#F00" d="M248.998 167.636L247.847 176.119Q248.716 176.119 249.524 175.942Q250.332 175.764 251.103 175.385L251.103 175.385L251.103 177.319Q249.463 177.919 247.627 177.919L247.627 177.919L246.917 183.060L245.142 183.060L245.839 177.772Q243.746 177.344 242.638 175.887Q241.530 174.430 241.530 171.957L241.530 171.957Q241.530 170.586 241.959 169.466Q242.387 168.346 243.171 167.538Q243.954 166.730 245.044 166.271Q246.133 165.812 247.443 165.763L247.443 165.763L247.969 161.699L249.781 161.699L249.230 165.861Q249.720 165.922 250.185 166.038Q250.650 166.155 251.103 166.314L251.103 166.314L251.103 168.321Q250.589 168.077 250.063 167.905Q249.536 167.734 248.998 167.636L248.998 167.636ZM246.096 175.862L247.198 167.587Q246.476 167.685 245.845 168.009Q245.215 168.334 244.750 168.878Q244.285 169.423 244.021 170.170Q243.758 170.917 243.758 171.847L243.758 171.847Q243.758 173.451 244.370 174.448Q244.982 175.446 246.096 175.862L246.096 175.862Z"/></svg>