<svg width="480px" height="360px" xmlns="http://www.w3.org/2000/svg"><path fill="#F00" d="M252.658 173.757L252.658 173.757Q252.658 175.189 252.254 176.383Q251.850 177.576 251.091 178.427Q250.332 179.278 249.243 179.749Q248.153 180.220 246.770 180.220L246.770 180.220Q245.448 180.220 244.401 179.810Q243.354 179.400 242.626 178.604Q241.897 177.809 241.512 176.634Q241.126 175.458 241.126 173.928L241.126 173.928Q241.126 172.496 241.530 171.314Q241.934 170.133 242.693 169.282Q243.452 168.432 244.542 167.960Q245.631 167.489 247.015 167.489L247.015 167.489Q248.337 167.489 249.383 167.899Q250.430 168.309 251.158 169.099Q251.887 169.888 252.272 171.064Q252.658 172.239 252.658 173.757ZM250.479 173.855L250.479 173.855Q250.479 172.716 250.228 171.865Q249.977 171.015 249.512 170.445Q249.047 169.876 248.379 169.588Q247.712 169.301 246.892 169.301L246.892 169.301Q245.937 169.301 245.258 169.674Q244.578 170.047 244.144 170.672Q243.709 171.296 243.507 172.122Q243.305 172.949 243.305 173.855L243.305 173.855Q243.305 174.993 243.556 175.850Q243.807 176.707 244.272 177.276Q244.738 177.845 245.399 178.133Q246.060 178.421 246.892 178.421L246.892 178.421Q247.847 178.421 248.526 178.047Q249.206 177.674 249.640 177.050Q250.075 176.425 250.277 175.599Q250.479 174.773 250.479 173.855Z"/></svg>