<svg version="1.1" xmlns="http://www.w3.org/2000/svg" xmlns:xlink="http://www.w3.org/1999/xlink" width="62.36325" height="29.68929" viewBox="0,0,62.36325,29.68929"><defs><linearGradient x1="270.75203" y1="151.67344" x2="270.75203" y2="179.86273" gradientUnits="userSpaceOnUse" id="color-1"><stop offset="0" stop-color="#455c8f"/><stop offset="1" stop-color="#003758"/></linearGradient><linearGradient x1="270.78229" y1="171.30076" x2="270.78229" y2="179.27941" gradientUnits="userSpaceOnUse" id="color-2"><stop offset="0" stop-color="#0b1228"/><stop offset="1" stop-color="#0b1228" stop-opacity="0"/></linearGradient><radialGradient cx="260.14468" cy="163.94791" r="14.75263" gradientUnits="userSpaceOnUse" id="color-3"><stop offset="0" stop-color="#ffa5a5"/><stop offset="1" stop-color="#ffa3a3"/></radialGradient><linearGradient x1="255.74799" y1="170.94607" x2="255.74799" y2="176.023" gradientUnits="userSpaceOnUse" id="color-4"><stop offset="0" stop-color="#870000"/><stop offset="1" stop-color="#d65d5d"/></linearGradient><radialGradient cx="256.18474" cy="164.8964" r="11.27629" gradientUnits="userSpaceOnUse" id="color-5"><stop offset="0" stop-color="#ff9e9e"/><stop offset="1" stop-color="#ff3333"/></radialGradient><linearGradient x1="272.13685" y1="165.7735" x2="272.06692" y2="169.2728" gradientUnits="userSpaceOnUse" id="color-6"><stop offset="0" stop-color="#fff7f7"/><stop offset="1" stop-color="#ffd2d2"/></linearGradient><radialGradient cx="257.18872" cy="167.47645" r="12.92164" gradientUnits="userSpaceOnUse" id="color-7"><stop offset="0" stop-color="#ffa5a5"/><stop offset="1" stop-color="#ffa3a3"/></radialGradient><linearGradient x1="290.19471" y1="168.35386" x2="290.19471" y2="169.85386" gradientUnits="userSpaceOnUse" id="color-8"><stop offset="0" stop-color="#ff1900"/><stop offset="1" stop-color="#ff3030"/></linearGradient></defs><g transform="translate(-239.57049,-150.92344)"><g data-paper-data="{&quot;isPaintingLayer&quot;:true}" fill-rule="nonzero" stroke-linejoin="miter" stroke-miterlimit="10" stroke-dasharray="" stroke-dashoffset="0" style="mix-blend-mode: normal"><path d="M240.3205,179.86273v-28.18929h60.86325v28.18929z" fill="url(#color-1)" stroke="#733434" stroke-width="1.5" stroke-linecap="butt"/><g><path d="M241.09529,171.15407h59.38095" fill="none" stroke-opacity="0.70968" stroke="#ffffff" stroke-width="0.5" stroke-linecap="round"/><path d="M240.89862,179.27941v-7.97865h59.76739v7.97865z" data-paper-data="{&quot;index&quot;:null}" fill="url(#color-2)" stroke="none" stroke-width="0" stroke-linecap="butt"/></g><text transform="translate(294.15076,160.49344) scale(0.20672,0.20672)" font-size="40" xml:space="preserve" fill="#ffffff" fill-rule="nonzero" stroke="none" stroke-width="1" stroke-linecap="butt" stroke-linejoin="miter" stroke-miterlimit="10" stroke-dasharray="" stroke-dashoffset="0" font-family="Sans Serif" font-weight="normal" text-anchor="start" style="mix-blend-mode: normal"><tspan x="0" dy="0">2</tspan></text><path d="M259.84268,165.2682c-8.09748,-0.68225 -14.52658,-1.82645 -14.3598,-2.55563c0.16676,-0.72918 6.86627,-0.76721 14.96375,-0.08496c8.09749,0.68225 12.74881,2.2709 12.58204,3.00008c0,0 -6.15666,0.23278 -13.18599,-0.35949z" fill="url(#color-3)" stroke="none" stroke-width="0" stroke-linecap="butt"/><path d="M260.36334,171.13838l3.96154,3.96154c0,0 -3.33882,1.95654 -8.37912,1.70879c-4.81847,0.25712 -8.77472,-1.70879 -8.77472,-1.70879l4.23077,-4.15385z" fill="url(#color-4)" stroke="none" stroke-width="0" stroke-linecap="round"/><path d="M244.86581,162.6027c0.38221,-4.22102 5.8211,-6.18633 12.01104,-5.34912c6.18993,0.83721 10.73136,5.8266 10.34915,10.04762c-0.38221,4.22102 -5.54332,6.07522 -11.73326,5.23801c-6.18993,-0.83721 -11.00914,-5.71549 -10.62693,-9.93651z" fill="url(#color-5)" stroke="none" stroke-width="0" stroke-linecap="butt"/><path d="M280.85934,167.46454c0,0 0.69027,0.81463 0.62868,1.14079c-0.06727,0.35623 -1.01679,1.13659 -1.01679,1.13659l-14.98539,-2.53855c0,0 -0.04113,-0.62512 0.04568,-0.90839c0.07702,-0.25137 0.33369,-0.70935 0.33369,-0.70935z" fill="url(#color-6)" stroke="none" stroke-width="0" stroke-linecap="round"/><path d="M271.41792,171.01175c-0.15909,1.80084 -7.42576,1.09492 -14.51725,-0.2746c-7.09151,-1.36952 -12.26687,-5.38408 -12.10778,-7.18492c0.1591,-1.80084 4.77525,0.70795 11.86674,2.07747c7.0915,1.36952 14.91738,3.58122 14.75829,5.38205z" fill="url(#color-7)" stroke="none" stroke-width="0" stroke-linecap="butt"/><path d="M281.05582,168.5483l18.55555,2.55555" fill="none" stroke="url(#color-8)" stroke-width="2.5" stroke-linecap="round"/></g></g></svg>