<svg width="480px" height="360px" xmlns="http://www.w3.org/2000/svg"><path fill="#F00" d="M252.438 168.897L252.438 168.897Q252.438 169.876 252.070 170.837Q251.703 171.798 250.932 172.557Q250.161 173.316 248.961 173.787Q247.761 174.259 246.096 174.259L246.096 174.259L244.113 174.259L244.113 180L241.934 180L241.934 164L246.439 164Q247.627 164 248.716 164.263Q249.806 164.526 250.632 165.114Q251.458 165.702 251.948 166.632Q252.438 167.562 252.438 168.897ZM250.173 168.995L250.173 168.995Q250.173 167.452 249.163 166.632Q248.153 165.812 246.341 165.812L246.341 165.812L244.113 165.812L244.113 172.398L246.145 172.398Q248.080 172.398 249.126 171.553Q250.173 170.708 250.173 168.995Z"/></svg>