<svg version="1.1" xmlns="http://www.w3.org/2000/svg" xmlns:xlink="http://www.w3.org/1999/xlink" width="62.44658" height="60.26072" viewBox="0,0,62.44658,60.26072"><defs><linearGradient x1="271.06156" y1="121.10225" x2="271.06156" y2="179.86296" gradientUnits="userSpaceOnUse" id="color-1"><stop offset="0" stop-color="#8c896b"/><stop offset="1" stop-color="#52503f"/></linearGradient><linearGradient x1="270.89207" y1="167.57145" x2="270.89207" y2="180.1431" gradientUnits="userSpaceOnUse" id="color-2"><stop offset="0" stop-color="#aba682"/><stop offset="1" stop-color="#848064"/></linearGradient><radialGradient cx="281.78887" cy="144.96504" r="11.93337" gradientUnits="userSpaceOnUse" id="color-3"><stop offset="0" stop-color="#ffffc2"/><stop offset="1" stop-color="#ffffc2" stop-opacity="0"/></radialGradient><radialGradient cx="281.78887" cy="144.96504" r="11.93338" gradientUnits="userSpaceOnUse" id="color-4"><stop offset="0" stop-color="#ffffff"/><stop offset="1" stop-color="#ffffff" stop-opacity="0"/></radialGradient><radialGradient cx="271.47146" cy="157.09234" r="6.43383" gradientUnits="userSpaceOnUse" id="color-5"><stop offset="0" stop-color="#ffffc2"/><stop offset="1" stop-color="#ffffc2" stop-opacity="0"/></radialGradient><radialGradient cx="271.47146" cy="157.09234" r="6.43338" gradientUnits="userSpaceOnUse" id="color-6"><stop offset="0" stop-color="#ffffff"/><stop offset="1" stop-color="#ffffff" stop-opacity="0"/></radialGradient><radialGradient cx="263.73809" cy="159.31261" r="5.29064" gradientUnits="userSpaceOnUse" id="color-7"><stop offset="0" stop-color="#ffffc2"/><stop offset="1" stop-color="#ffffc2" stop-opacity="0"/></radialGradient><radialGradient cx="263.73809" cy="159.31261" r="5.29054" gradientUnits="userSpaceOnUse" id="color-8"><stop offset="0" stop-color="#ffffff"/><stop offset="1" stop-color="#ffffff" stop-opacity="0"/></radialGradient><radialGradient cx="256.09974" cy="158.74786" r="4.50655" gradientUnits="userSpaceOnUse" id="color-9"><stop offset="0" stop-color="#ffffc2"/><stop offset="1" stop-color="#ffffc2" stop-opacity="0"/></radialGradient><radialGradient cx="256.09974" cy="158.74786" r="4.50533" gradientUnits="userSpaceOnUse" id="color-10"><stop offset="0" stop-color="#ffffff"/><stop offset="1" stop-color="#ffffff" stop-opacity="0"/></radialGradient><radialGradient cx="250.13384" cy="154.69716" r="4.50566" gradientUnits="userSpaceOnUse" id="color-11"><stop offset="0" stop-color="#ffffc2"/><stop offset="1" stop-color="#ffffc2" stop-opacity="0"/></radialGradient><radialGradient cx="250.13384" cy="154.69716" r="4.50533" gradientUnits="userSpaceOnUse" id="color-12"><stop offset="0" stop-color="#ffffff"/><stop offset="1" stop-color="#ffffff" stop-opacity="0"/></radialGradient><radialGradient cx="246.96991" cy="148.74157" r="3.57762" gradientUnits="userSpaceOnUse" id="color-13"><stop offset="0" stop-color="#ffffc2"/><stop offset="1" stop-color="#ffffc2" stop-opacity="0"/></radialGradient><radialGradient cx="246.96991" cy="148.74157" r="3.57683" gradientUnits="userSpaceOnUse" id="color-14"><stop offset="0" stop-color="#ffffff"/><stop offset="1" stop-color="#ffffff" stop-opacity="0"/></radialGradient><radialGradient cx="246.9463" cy="143.09831" r="2.93439" gradientUnits="userSpaceOnUse" id="color-15"><stop offset="0" stop-color="#ffffc2"/><stop offset="1" stop-color="#ffffc2" stop-opacity="0"/></radialGradient><radialGradient cx="246.9463" cy="143.09831" r="2.93402" gradientUnits="userSpaceOnUse" id="color-16"><stop offset="0" stop-color="#ffffff"/><stop offset="1" stop-color="#ffffff" stop-opacity="0"/></radialGradient><radialGradient cx="248.48437" cy="138.61119" r="2.7201" gradientUnits="userSpaceOnUse" id="color-17"><stop offset="0" stop-color="#ffffc2"/><stop offset="1" stop-color="#ffffc2" stop-opacity="0"/></radialGradient><radialGradient cx="248.48437" cy="138.61119" r="2.71976" gradientUnits="userSpaceOnUse" id="color-18"><stop offset="0" stop-color="#ffffff"/><stop offset="1" stop-color="#ffffff" stop-opacity="0"/></radialGradient><radialGradient cx="251.22882" cy="135.06289" r="2.29153" gradientUnits="userSpaceOnUse" id="color-19"><stop offset="0" stop-color="#ffffc2"/><stop offset="1" stop-color="#ffffc2" stop-opacity="0"/></radialGradient><radialGradient cx="251.22882" cy="135.06289" r="2.29124" gradientUnits="userSpaceOnUse" id="color-20"><stop offset="0" stop-color="#ffffff"/><stop offset="1" stop-color="#ffffff" stop-opacity="0"/></radialGradient><radialGradient cx="253.9808" cy="133.2316" r="1.69153" gradientUnits="userSpaceOnUse" id="color-21"><stop offset="0" stop-color="#ffffc2"/><stop offset="1" stop-color="#ffffc2" stop-opacity="0"/></radialGradient><radialGradient cx="253.9808" cy="133.2316" r="1.69132" gradientUnits="userSpaceOnUse" id="color-22"><stop offset="0" stop-color="#ffffff"/><stop offset="1" stop-color="#ffffff" stop-opacity="0"/></radialGradient><radialGradient cx="256.56687" cy="132.20347" r="1.6779" gradientUnits="userSpaceOnUse" id="color-23"><stop offset="0" stop-color="#ffffc2"/><stop offset="1" stop-color="#ffffc2" stop-opacity="0"/></radialGradient><radialGradient cx="256.56687" cy="132.20347" r="1.67768" gradientUnits="userSpaceOnUse" id="color-24"><stop offset="0" stop-color="#ffffff"/><stop offset="1" stop-color="#ffffff" stop-opacity="0"/></radialGradient><radialGradient cx="258.7215" cy="131.70772" r="1.2723" gradientUnits="userSpaceOnUse" id="color-25"><stop offset="0" stop-color="#ffffc2"/><stop offset="1" stop-color="#ffffc2" stop-opacity="0"/></radialGradient><radialGradient cx="258.7215" cy="131.70772" r="1.27214" gradientUnits="userSpaceOnUse" id="color-26"><stop offset="0" stop-color="#ffffff"/><stop offset="1" stop-color="#ffffff" stop-opacity="0"/></radialGradient><radialGradient cx="260.81998" cy="132.06118" r="1.11845" gradientUnits="userSpaceOnUse" id="color-27"><stop offset="0" stop-color="#ffffc2"/><stop offset="1" stop-color="#ffffc2" stop-opacity="0"/></radialGradient><radialGradient cx="260.81998" cy="132.06118" r="1.11831" gradientUnits="userSpaceOnUse" id="color-28"><stop offset="0" stop-color="#ffffff"/><stop offset="1" stop-color="#ffffff" stop-opacity="0"/></radialGradient><radialGradient cx="262.64351" cy="132.26196" r="0.81076" gradientUnits="userSpaceOnUse" id="color-29"><stop offset="0" stop-color="#ffffc2"/><stop offset="1" stop-color="#ffffc2" stop-opacity="0"/></radialGradient><radialGradient cx="262.64351" cy="132.26196" r="0.81066" gradientUnits="userSpaceOnUse" id="color-30"><stop offset="0" stop-color="#ffffff"/><stop offset="1" stop-color="#ffffff" stop-opacity="0"/></radialGradient><radialGradient cx="263.84394" cy="132.75292" r="0.63768" gradientUnits="userSpaceOnUse" id="color-31"><stop offset="0" stop-color="#ffffc2"/><stop offset="1" stop-color="#ffffc2" stop-opacity="0"/></radialGradient><radialGradient cx="263.84394" cy="132.75292" r="0.63761" gradientUnits="userSpaceOnUse" id="color-32"><stop offset="0" stop-color="#ffffff"/><stop offset="1" stop-color="#ffffff" stop-opacity="0"/></radialGradient><radialGradient cx="260.62077" cy="144.14784" r="11.93338" gradientUnits="userSpaceOnUse" id="color-33"><stop offset="0" stop-color="#cf3bb8"/><stop offset="1" stop-color="#cf3bb8" stop-opacity="0"/></radialGradient><radialGradient cx="260.62077" cy="144.14784" r="11.93338" gradientUnits="userSpaceOnUse" id="color-34"><stop offset="0" stop-color="#fef7ff"/><stop offset="1" stop-color="#fef7ff" stop-opacity="0"/></radialGradient><radialGradient cx="270.83507" cy="131.93355" r="6.43383" gradientUnits="userSpaceOnUse" id="color-35"><stop offset="0" stop-color="#cf3bb8"/><stop offset="1" stop-color="#cf3bb8" stop-opacity="0"/></radialGradient><radialGradient cx="270.83506" cy="131.93355" r="6.43338" gradientUnits="userSpaceOnUse" id="color-36"><stop offset="0" stop-color="#fef7ff"/><stop offset="1" stop-color="#fef7ff" stop-opacity="0"/></radialGradient><radialGradient cx="278.54934" cy="129.64784" r="5.29064" gradientUnits="userSpaceOnUse" id="color-37"><stop offset="0" stop-color="#cf3bb8"/><stop offset="1" stop-color="#cf3bb8" stop-opacity="0"/></radialGradient><radialGradient cx="278.54934" cy="129.64784" r="5.29054" gradientUnits="userSpaceOnUse" id="color-38"><stop offset="0" stop-color="#fef7ff"/><stop offset="1" stop-color="#fef7ff" stop-opacity="0"/></radialGradient><radialGradient cx="286.19221" cy="130.14784" r="4.50655" gradientUnits="userSpaceOnUse" id="color-39"><stop offset="0" stop-color="#cf3bb8"/><stop offset="1" stop-color="#cf3bb8" stop-opacity="0"/></radialGradient><radialGradient cx="286.19221" cy="130.14784" r="4.50533" gradientUnits="userSpaceOnUse" id="color-40"><stop offset="0" stop-color="#fef7ff"/><stop offset="1" stop-color="#fef7ff" stop-opacity="0"/></radialGradient><radialGradient cx="292.19221" cy="134.14784" r="4.50566" gradientUnits="userSpaceOnUse" id="color-41"><stop offset="0" stop-color="#cf3bb8"/><stop offset="1" stop-color="#cf3bb8" stop-opacity="0"/></radialGradient><radialGradient cx="292.19221" cy="134.14784" r="4.50533" gradientUnits="userSpaceOnUse" id="color-42"><stop offset="0" stop-color="#fef7ff"/><stop offset="1" stop-color="#fef7ff" stop-opacity="0"/></radialGradient><radialGradient cx="295.40648" cy="140.07642" r="3.57762" gradientUnits="userSpaceOnUse" id="color-43"><stop offset="0" stop-color="#cf3bb8"/><stop offset="1" stop-color="#cf3bb8" stop-opacity="0"/></radialGradient><radialGradient cx="295.40648" cy="140.07642" r="3.57683" gradientUnits="userSpaceOnUse" id="color-44"><stop offset="0" stop-color="#fef7ff"/><stop offset="1" stop-color="#fef7ff" stop-opacity="0"/></radialGradient><radialGradient cx="295.47792" cy="145.71927" r="2.93439" gradientUnits="userSpaceOnUse" id="color-45"><stop offset="0" stop-color="#cf3bb8"/><stop offset="1" stop-color="#cf3bb8" stop-opacity="0"/></radialGradient><radialGradient cx="295.47792" cy="145.71927" r="2.93402" gradientUnits="userSpaceOnUse" id="color-46"><stop offset="0" stop-color="#fef7ff"/><stop offset="1" stop-color="#fef7ff" stop-opacity="0"/></radialGradient><radialGradient cx="293.97792" cy="150.21927" r="2.7201" gradientUnits="userSpaceOnUse" id="color-47"><stop offset="0" stop-color="#cf3bb8"/><stop offset="1" stop-color="#cf3bb8" stop-opacity="0"/></radialGradient><radialGradient cx="293.97792" cy="150.21927" r="2.71976" gradientUnits="userSpaceOnUse" id="color-48"><stop offset="0" stop-color="#fef7ff"/><stop offset="1" stop-color="#fef7ff" stop-opacity="0"/></radialGradient><radialGradient cx="291.26363" cy="153.7907" r="2.29153" gradientUnits="userSpaceOnUse" id="color-49"><stop offset="0" stop-color="#cf3bb8"/><stop offset="1" stop-color="#cf3bb8" stop-opacity="0"/></radialGradient><radialGradient cx="291.26363" cy="153.7907" r="2.29124" gradientUnits="userSpaceOnUse" id="color-50"><stop offset="0" stop-color="#fef7ff"/><stop offset="1" stop-color="#fef7ff" stop-opacity="0"/></radialGradient><radialGradient cx="288.52727" cy="155.64524" r="1.69153" gradientUnits="userSpaceOnUse" id="color-51"><stop offset="0" stop-color="#cf3bb8"/><stop offset="1" stop-color="#cf3bb8" stop-opacity="0"/></radialGradient><radialGradient cx="288.52727" cy="155.64524" r="1.69132" gradientUnits="userSpaceOnUse" id="color-52"><stop offset="0" stop-color="#fef7ff"/><stop offset="1" stop-color="#fef7ff" stop-opacity="0"/></radialGradient><radialGradient cx="285.95" cy="156.69525" r="1.67789" gradientUnits="userSpaceOnUse" id="color-53"><stop offset="0" stop-color="#cf3bb8"/><stop offset="1" stop-color="#cf3bb8" stop-opacity="0"/></radialGradient><radialGradient cx="285.95" cy="156.69525" r="1.67768" gradientUnits="userSpaceOnUse" id="color-54"><stop offset="0" stop-color="#fef7ff"/><stop offset="1" stop-color="#fef7ff" stop-opacity="0"/></radialGradient><radialGradient cx="283.79965" cy="157.20923" r="1.2723" gradientUnits="userSpaceOnUse" id="color-55"><stop offset="0" stop-color="#cf3bb8"/><stop offset="1" stop-color="#cf3bb8" stop-opacity="0"/></radialGradient><radialGradient cx="283.79965" cy="157.20923" r="1.27214" gradientUnits="userSpaceOnUse" id="color-56"><stop offset="0" stop-color="#fef7ff"/><stop offset="1" stop-color="#fef7ff" stop-opacity="0"/></radialGradient><radialGradient cx="281.69825" cy="156.87356" r="1.11845" gradientUnits="userSpaceOnUse" id="color-57"><stop offset="0" stop-color="#cf3bb8"/><stop offset="1" stop-color="#cf3bb8" stop-opacity="0"/></radialGradient><radialGradient cx="281.69825" cy="156.87356" r="1.11831" gradientUnits="userSpaceOnUse" id="color-58"><stop offset="0" stop-color="#fef7ff"/><stop offset="1" stop-color="#fef7ff" stop-opacity="0"/></radialGradient><radialGradient cx="279.87307" cy="156.68826" r="0.81076" gradientUnits="userSpaceOnUse" id="color-59"><stop offset="0" stop-color="#cf3bb8"/><stop offset="1" stop-color="#cf3bb8" stop-opacity="0"/></radialGradient><radialGradient cx="279.87307" cy="156.68826" r="0.81066" gradientUnits="userSpaceOnUse" id="color-60"><stop offset="0" stop-color="#fef7ff"/><stop offset="1" stop-color="#fef7ff" stop-opacity="0"/></radialGradient><radialGradient cx="278.66853" cy="156.20749" r="0.63768" gradientUnits="userSpaceOnUse" id="color-61"><stop offset="0" stop-color="#cf3bb8"/><stop offset="1" stop-color="#cf3bb8" stop-opacity="0"/></radialGradient><radialGradient cx="278.66853" cy="156.20749" r="0.63761" gradientUnits="userSpaceOnUse" id="color-62"><stop offset="0" stop-color="#fef7ff"/><stop offset="1" stop-color="#fef7ff" stop-opacity="0"/></radialGradient></defs><g transform="translate(-239.7967,-120.35224)"><g data-paper-data="{&quot;isPaintingLayer&quot;:true}" fill-rule="nonzero" stroke-linecap="butt" stroke-linejoin="miter" stroke-miterlimit="10" stroke-dasharray="" stroke-dashoffset="0" style="mix-blend-mode: normal"><path d="M240.5467,179.86296v-58.76072h60.94658v58.76072z" fill="url(#color-1)" stroke="#c0bb92" stroke-width="1.5"/><path d="M239.96355,180.1431v-12.57143h61.85715v12.57143z" fill="url(#color-2)" stroke="none" stroke-width="0"/><g><path d="M293.72182,145.06614c-0.05584,6.59039 -5.44367,11.88768 -12.03406,11.83184c-6.59039,-0.05584 -11.88768,-5.44367 -11.83184,-12.03406c0.05584,-6.59039 5.44367,-11.88768 12.03406,-11.83184c6.59039,0.05584 11.88768,5.44367 11.83184,12.03406z" fill="url(#color-3)" stroke="url(#color-4)" stroke-width="9"/><path d="M276.63939,160.92388c-2.1161,2.85417 -6.14531,3.4525 -8.99949,1.33639c-2.85417,-2.1161 -3.4525,-6.14531 -1.33639,-8.99949c2.1161,-2.85417 6.14531,-3.4525 8.99949,-1.33639c2.85417,2.1161 3.4525,6.14531 1.33639,8.99949z" fill="url(#color-5)" stroke="url(#color-6)" stroke-width="4.5"/><path d="M267.72704,162.78795c-1.91938,2.20304 -5.26126,2.43299 -7.4643,0.51361c-2.20304,-1.91938 -2.43299,-5.26126 -0.51361,-7.4643c1.91938,-2.20304 5.26126,-2.43299 7.4643,-0.51361c2.20304,1.91938 2.43299,5.26126 0.51361,7.4643z" fill="url(#color-7)" stroke="url(#color-8)" stroke-width="4"/><path d="M257.51707,163.02444c-2.36189,0.78277 -4.91114,-0.49736 -5.69391,-2.85925c-0.78277,-2.36189 0.49736,-4.91115 2.85925,-5.69392c2.36189,-0.78277 4.91115,0.49737 5.69392,2.85926c0.78277,2.36189 -0.49737,4.91114 -2.85926,5.69391z" fill="url(#color-9)" stroke="url(#color-10)" stroke-width="3.5"/><path d="M250.53772,159.18436c-2.4782,0.22306 -4.66801,-1.60511 -4.89106,-4.08331c-0.22306,-2.4782 1.60511,-4.66801 4.08331,-4.89107c2.4782,-0.22306 4.66801,1.60511 4.89107,4.08332c0.22306,2.4782 -1.60511,4.66801 -4.08332,4.89106z" fill="url(#color-11)" stroke="url(#color-12)" stroke-width="3"/><path d="M246.14045,152.22089c-1.92157,-0.4581 -3.10796,-2.3872 -2.64986,-4.30878c0.4581,-1.92157 2.38721,-3.10796 4.30878,-2.64987c1.92157,0.4581 3.10796,2.38721 2.64986,4.30879c-0.4581,1.92157 -2.38721,3.10795 -4.30878,2.64986z" fill="url(#color-13)" stroke="url(#color-14)" stroke-width="2.5"/><path d="M245.35114,145.56083c-1.36,-0.88097 -1.74834,-2.69766 -0.86736,-4.05766c0.88097,-1.36 2.69766,-1.74833 4.05766,-0.86736c1.36,0.88097 1.74833,2.69766 0.86736,4.05766c-0.88097,1.36 -2.69765,1.74833 -4.05765,0.86736z" fill="url(#color-15)" stroke="url(#color-16)" stroke-width="2.5"/><path d="M247.0057,140.89387c-1.26069,-0.81664 -1.62067,-2.50066 -0.80402,-3.76135c0.81664,-1.26069 2.50066,-1.62066 3.76135,-0.80402c1.26069,0.81664 1.62066,2.50066 0.80402,3.76135c-0.81664,1.26069 -2.50065,1.62066 -3.76134,0.80402z" fill="url(#color-17)" stroke="url(#color-18)" stroke-width="2"/><path d="M249.98313,136.98591c-1.06206,-0.68797 -1.36532,-2.10666 -0.67735,-3.16872c0.68797,-1.06206 2.10666,-1.36531 3.16872,-0.67734c1.06206,0.68797 1.36531,2.10666 0.67734,3.16872c-0.68797,1.06206 -2.10665,1.36531 -3.16871,0.67734z" fill="url(#color-19)" stroke="url(#color-20)" stroke-width="1.5"/><path d="M253.06128,134.65111c-0.78398,-0.50784 -1.00784,-1.55507 -0.49999,-2.33904c0.50784,-0.78398 1.55507,-1.00783 2.33904,-0.49999c0.78398,0.50784 1.00783,1.55507 0.49999,2.33905c-0.50784,0.78398 -1.55506,1.00783 -2.33904,0.49998z" fill="url(#color-21)" stroke="url(#color-22)" stroke-width="1.5"/><path d="M255.65477,133.61153c-0.77765,-0.50375 -0.99971,-1.54253 -0.49596,-2.32019c0.50375,-0.77765 1.54253,-0.99971 2.32019,-0.49596c0.77765,0.50375 0.99971,1.54254 0.49596,2.32019c-0.50375,0.77765 -1.54253,0.9997 -2.32018,0.49595z" fill="url(#color-23)" stroke="url(#color-24)" stroke-width="1.5"/><path d="M258.02986,132.77541c-0.58967,-0.38197 -0.75805,-1.16965 -0.37607,-1.75933c0.38197,-0.58967 1.16965,-0.75805 1.75933,-0.37607c0.58967,0.38197 0.75805,1.16966 0.37607,1.75933c-0.38197,0.58967 -1.16965,0.75804 -1.75933,0.37607z" fill="url(#color-25)" stroke="url(#color-26)" stroke-width="1"/><path d="M260.21198,132.99978c-0.51837,-0.33578 -0.66638,-1.02822 -0.33059,-1.54659c0.33578,-0.51837 1.02822,-0.66638 1.54659,-0.3306c0.51837,0.33578 0.66638,1.02822 0.3306,1.5466c-0.33578,0.51837 -1.02822,0.66638 -1.5466,0.33059z" fill="url(#color-27)" stroke="url(#color-28)" stroke-width="1"/><path d="M262.20279,132.94233c-0.37577,-0.24341 -0.48305,-0.74535 -0.23964,-1.12112c0.24341,-0.37577 0.74535,-0.48306 1.12112,-0.23965c0.37577,0.24341 0.48306,0.74535 0.23965,1.12112c-0.24341,0.37577 -0.74535,0.48305 -1.12112,0.23964z" fill="url(#color-29)" stroke="url(#color-30)" stroke-width="0.5"/><path d="M263.4973,133.28804c-0.29555,-0.19145 -0.37993,-0.58624 -0.18849,-0.88178c0.19145,-0.29555 0.58624,-0.37994 0.88179,-0.18849c0.29555,0.19145 0.37993,0.58624 0.18849,0.88179c-0.19145,0.29555 -0.58624,0.37993 -0.88179,0.18849z" fill="url(#color-31)" stroke="url(#color-32)" stroke-width="0.5"/></g><g><path d="M248.68739,144.14784c0,-6.59062 5.34275,-11.93337 11.93337,-11.93337c6.59062,0 11.93338,5.34275 11.93338,11.93337c0,6.59062 -5.34276,11.93338 -11.93338,11.93338c-6.59062,0 -11.93337,-5.34275 -11.93337,-11.93338z" fill="url(#color-33)" stroke="url(#color-34)" stroke-width="9"/><path d="M265.63485,128.14593c2.09184,-2.872 6.11584,-3.50444 8.98784,-1.41259c2.872,2.09185 3.50444,6.11584 1.4126,8.98784c-2.09184,2.872 -6.11584,3.50444 -8.98784,1.41259c-2.872,-2.09185 -3.50444,-6.11584 -1.4126,-8.98784z" fill="url(#color-35)" stroke="url(#color-36)" stroke-width="4.5"/><path d="M274.53108,126.20642c1.90064,-2.21922 5.24046,-2.47748 7.45969,-0.57684c2.21922,1.90065 2.47749,5.24046 0.57684,7.45968c-1.90064,2.21922 -5.24046,2.47749 -7.45969,0.57684c-2.21922,-1.90064 -2.47749,-5.24046 -0.57684,-7.45969z" fill="url(#color-37)" stroke="url(#color-38)" stroke-width="4"/><path d="M284.73868,125.88342c2.35517,-0.80276 4.91518,0.45574 5.71794,2.81091c0.80275,2.35517 -0.45574,4.91519 -2.8109,5.71794c-2.35517,0.80275 -4.91519,-0.45574 -5.71794,-2.81091c-0.80275,-2.35517 0.45574,-4.91518 2.81091,-5.71793z" fill="url(#color-39)" stroke="url(#color-40)" stroke-width="3.5"/><path d="M291.75032,129.66424c2.47622,-0.24404 4.68144,1.5655 4.92549,4.04173c0.24405,2.47622 -1.5655,4.68144 -4.04173,4.92549c-2.47622,0.24404 -4.68144,-1.56551 -4.92549,-4.04173c-0.24405,-2.47622 1.5655,-4.68144 4.04173,-4.92549z" fill="url(#color-41)" stroke="url(#color-42)" stroke-width="3"/><path d="M296.20644,136.5902c1.92539,0.4418 3.12808,2.36078 2.68628,4.28617c-0.4418,1.92539 -2.36079,3.12808 -4.28618,2.68628c-1.92539,-0.4418 -3.12808,-2.36079 -2.68628,-4.28618c0.4418,-1.92539 2.36079,-3.12807 4.28618,-2.68627z" fill="url(#color-43)" stroke="url(#color-44)" stroke-width="2.5"/><path d="M297.05215,143.24333c1.36742,0.86942 1.77113,2.68274 0.90171,4.05016c-0.86942,1.36742 -2.68275,1.77112 -4.05016,0.9017c-1.36742,-0.86942 -1.77112,-2.68274 -0.9017,-4.05016c0.86942,-1.36742 2.68274,-1.77112 4.05016,-0.9017z" fill="url(#color-45)" stroke="url(#color-46)" stroke-width="2.5"/><path d="M295.43719,147.92414c1.26756,0.80593 1.6418,2.48684 0.83587,3.7544c-0.80593,1.26756 -2.48684,1.64179 -3.7544,0.83586c-1.26756,-0.80593 -1.64179,-2.48684 -0.83586,-3.7544c0.80593,-1.26756 2.48683,-1.64179 3.75439,-0.83586z" fill="url(#color-47)" stroke="url(#color-48)" stroke-width="2"/><path d="M292.49298,151.85718c1.06785,0.67895 1.38312,2.09502 0.70417,3.16287c-0.67895,1.06785 -2.09501,1.38311 -3.16286,0.70416c-1.06785,-0.67895 -1.38312,-2.09502 -0.70417,-3.16287c0.67895,-1.06785 2.09501,-1.38311 3.16286,-0.70416z" fill="url(#color-49)" stroke="url(#color-50)" stroke-width="1.5"/><path d="M289.43473,154.21799c0.78825,0.50118 1.02097,1.54647 0.51979,2.33472c-0.50118,0.78825 -1.54647,1.02097 -2.33472,0.51979c-0.78825,-0.50118 -1.02097,-1.54647 -0.51979,-2.33472c0.50118,-0.78825 1.54647,-1.02097 2.33472,-0.51979z" fill="url(#color-51)" stroke="url(#color-52)" stroke-width="1.5"/><path d="M286.85015,155.2795c0.7819,0.49714 1.01274,1.53401 0.5156,2.3159c-0.49714,0.78189 -1.534,1.01274 -2.3159,0.5156c-0.7819,-0.49714 -1.01274,-1.53401 -0.5156,-2.31591c0.49714,-0.78189 1.534,-1.01273 2.3159,-0.51559z" fill="url(#color-53)" stroke="url(#color-54)" stroke-width="1.5"/><path d="M284.4822,156.13571c0.59289,0.37697 0.76793,1.16319 0.39096,1.75608c-0.37696,0.59289 -1.16319,0.76793 -1.75608,0.39096c-0.59289,-0.37697 -0.76793,-1.16319 -0.39096,-1.75608c0.37696,-0.59289 1.16319,-0.76793 1.75608,-0.39096z" fill="url(#color-55)" stroke="url(#color-56)" stroke-width="1"/><path d="M282.29828,155.92985c0.5212,0.33138 0.67507,1.02254 0.34368,1.54373c-0.33138,0.5212 -1.02253,0.67507 -1.54373,0.34369c-0.5212,-0.33138 -0.67507,-1.02254 -0.34369,-1.54374c0.33138,-0.5212 1.02254,-0.67506 1.54374,-0.34368z" fill="url(#color-57)" stroke="url(#color-58)" stroke-width="1"/><path d="M280.30803,156.00417c0.37781,0.24022 0.48935,0.74123 0.24914,1.11904c-0.24021,0.37781 -0.74123,0.48936 -1.11905,0.24914c-0.37781,-0.24022 -0.48935,-0.74124 -0.24914,-1.11905c0.24021,-0.37781 0.74124,-0.48935 1.11905,-0.24913z" fill="url(#color-59)" stroke="url(#color-60)" stroke-width="0.5"/><path d="M279.01063,155.66944c0.29716,0.18893 0.38488,0.58299 0.19595,0.88015c-0.18894,0.29716 -0.583,0.38489 -0.88016,0.19596c-0.29716,-0.18893 -0.38488,-0.583 -0.19595,-0.88016c0.18894,-0.29716 0.583,-0.38488 0.88016,-0.19595z" fill="url(#color-61)" stroke="url(#color-62)" stroke-width="0.5"/></g></g></g></svg>