<svg version="1.1" xmlns="http://www.w3.org/2000/svg" xmlns:xlink="http://www.w3.org/1999/xlink" width="62.36325" height="60.26072" viewBox="0,0,62.36325,60.26072"><defs><linearGradient x1="270.89485" y1="121.10216" x2="270.89485" y2="179.86287" gradientUnits="userSpaceOnUse" id="color-1"><stop offset="0" stop-color="#5a4882"/><stop offset="1" stop-color="#342d42"/></linearGradient><linearGradient x1="270.892" y1="167.57146" x2="270.892" y2="180.14297" gradientUnits="userSpaceOnUse" id="color-2"><stop offset="0" stop-color="#a78be3"/><stop offset="1" stop-color="#643db8"/></linearGradient><radialGradient cx="270.31875" cy="143.11737" r="22.30504" gradientUnits="userSpaceOnUse" id="color-3"><stop offset="0" stop-color="#ff6bf3"/><stop offset="1" stop-color="#823779" stop-opacity="0.29738"/></radialGradient><radialGradient cx="270.31297" cy="144.72404" r="24.66135" gradientUnits="userSpaceOnUse" id="color-4"><stop offset="0" stop-color="#fb59ff" stop-opacity="0.65323"/><stop offset="1" stop-color="#fb59ff" stop-opacity="0"/></radialGradient><radialGradient cx="256.6584" cy="135.74363" r="4.00989" gradientUnits="userSpaceOnUse" id="color-5"><stop offset="0" stop-color="#ff8b8b"/><stop offset="1" stop-color="#ffffff" stop-opacity="0.21963"/></radialGradient><radialGradient cx="255.27215" cy="144.33394" r="3.65171" gradientUnits="userSpaceOnUse" id="color-6"><stop offset="0" stop-color="#ff8b8b"/><stop offset="1" stop-color="#ffffff" stop-opacity="0.21963"/></radialGradient><radialGradient cx="254.58099" cy="151.62566" r="4.0015" gradientUnits="userSpaceOnUse" id="color-7"><stop offset="0" stop-color="#ff8b8b"/><stop offset="1" stop-color="#ffffff" stop-opacity="0.21963"/></radialGradient><radialGradient cx="259.45328" cy="151.45522" r="4.72174" gradientUnits="userSpaceOnUse" id="color-8"><stop offset="0" stop-color="#ff8b8b"/><stop offset="1" stop-color="#ffffff" stop-opacity="0.21963"/></radialGradient><radialGradient cx="259.61557" cy="143.04339" r="3.14805" gradientUnits="userSpaceOnUse" id="color-9"><stop offset="0" stop-color="#ff8b8b"/><stop offset="1" stop-color="#ffffff" stop-opacity="0.21963"/></radialGradient><radialGradient cx="265.26016" cy="142.13953" r="5.97519" gradientUnits="userSpaceOnUse" id="color-10"><stop offset="0" stop-color="#ff8b8b"/><stop offset="1" stop-color="#ffffff" stop-opacity="0.21963"/></radialGradient><radialGradient cx="265.20369" cy="152.72073" r="4.0808" gradientUnits="userSpaceOnUse" id="color-11"><stop offset="0" stop-color="#ff8b8b"/><stop offset="1" stop-color="#ffffff" stop-opacity="0.21963"/></radialGradient><radialGradient cx="268.36014" cy="148.05695" r="4.81292" gradientUnits="userSpaceOnUse" id="color-12"><stop offset="0" stop-color="#ff8b8b"/><stop offset="1" stop-color="#ffffff" stop-opacity="0.21963"/></radialGradient><radialGradient cx="272.25676" cy="138.55817" r="4.85073" gradientUnits="userSpaceOnUse" id="color-13"><stop offset="0" stop-color="#ff8b8b"/><stop offset="1" stop-color="#ffffff" stop-opacity="0.21963"/></radialGradient><radialGradient cx="271.25318" cy="145.47507" r="3.4201" gradientUnits="userSpaceOnUse" id="color-14"><stop offset="0" stop-color="#ff8b8b"/><stop offset="1" stop-color="#ffffff" stop-opacity="0.21963"/></radialGradient><radialGradient cx="271.32006" cy="153.7911" r="3.9432" gradientUnits="userSpaceOnUse" id="color-15"><stop offset="0" stop-color="#ff8b8b"/><stop offset="1" stop-color="#ffffff" stop-opacity="0.21963"/></radialGradient><radialGradient cx="276.05537" cy="144.15103" r="4.60548" gradientUnits="userSpaceOnUse" id="color-16"><stop offset="0" stop-color="#ff8b8b"/><stop offset="1" stop-color="#ffffff" stop-opacity="0.21963"/></radialGradient><radialGradient cx="279.89457" cy="154.5013" r="6.1128" gradientUnits="userSpaceOnUse" id="color-17"><stop offset="0" stop-color="#ff8b8b"/><stop offset="1" stop-color="#ffffff" stop-opacity="0.21963"/></radialGradient><radialGradient cx="276.59686" cy="150.65565" r="4.39696" gradientUnits="userSpaceOnUse" id="color-18"><stop offset="0" stop-color="#ff8b8b"/><stop offset="1" stop-color="#ffffff" stop-opacity="0.21963"/></radialGradient><radialGradient cx="281.13142" cy="148.39834" r="6.52088" gradientUnits="userSpaceOnUse" id="color-19"><stop offset="0" stop-color="#ff8b8b"/><stop offset="1" stop-color="#ffffff" stop-opacity="0.21963"/></radialGradient><radialGradient cx="282.46806" cy="154.29474" r="4.95526" gradientUnits="userSpaceOnUse" id="color-20"><stop offset="0" stop-color="#ff8b8b"/><stop offset="1" stop-color="#ffffff" stop-opacity="0.21963"/></radialGradient><radialGradient cx="286.18056" cy="147.04069" r="10.97614" gradientUnits="userSpaceOnUse" id="color-21"><stop offset="0" stop-color="#ff8b8b"/><stop offset="1" stop-color="#ffffff" stop-opacity="0.21963"/></radialGradient></defs><g transform="translate(-239.71327,-120.35215)"><g data-paper-data="{&quot;isPaintingLayer&quot;:true}" fill-rule="nonzero" stroke-linejoin="miter" stroke-miterlimit="10" stroke-dasharray="" stroke-dashoffset="0" style="mix-blend-mode: normal"><path d="M240.46327,179.86287v-58.76072h60.86325v58.76072z" fill="url(#color-1)" stroke="#916fdc" stroke-width="1.5" stroke-linecap="butt"/><path d="M239.96343,180.14297v-12.57143h61.85715v12.57143z" fill="url(#color-2)" stroke="none" stroke-width="0" stroke-linecap="butt"/><path d="M293.27559,156.0154c-0.70051,8.41675 -13.39954,7.34171 -25.64432,5.99387c-12.24478,-1.34784 -22.6467,-3.04943 -21.9462,-11.46612c0.30711,-3.68995 1.03374,-18.61024 4.56763,-22.57747c3.47604,-3.9023 6.78532,3.00023 12.17155,4.70592c1.62831,0.51565 8.6722,-6.32502 10.26849,-6.14932c2.05444,0.22614 5.92829,10.49611 8.25637,10.29264c5.41118,-0.47294 10.39148,-9.79881 12.89548,-5.40533c2.83962,4.98233 -0.56901,24.60581 -0.56901,24.60581z" fill="url(#color-3)" stroke="url(#color-4)" stroke-width="2" stroke-linecap="butt"/><path d="M259.88859,139.53075l-6.46039,0.22277l1.00247,-8.01979z" fill="url(#color-5)" stroke="none" stroke-width="0" stroke-linecap="round"/><path d="M258.92386,140.73593l-1.93326,4.72574l-5.37015,2.47027l0.75182,-7.19601z" fill="url(#color-6)" stroke="none" stroke-width="0" stroke-linecap="round"/><path d="M254.47285,147.7323l4.10964,7.78668l-8.00299,-0.97334l0.64889,-6.27261z" fill="url(#color-7)" stroke="none" stroke-width="0" stroke-linecap="round"/><path d="M257.61704,146.73348l3.98726,0.52464l1.78378,8.91885l-4.19711,-0.52464l-3.67247,-7.55479z" fill="url(#color-8)" stroke="none" stroke-width="0" stroke-linecap="round"/><path d="M259.55725,139.89536l1.74892,2.0987l0.93276,-0.69957l-0.58297,4.89696l-4.66377,-0.46637z" fill="url(#color-9)" stroke="none" stroke-width="0" stroke-linecap="round"/><path d="M262.9244,140.61857l5.32335,-4.45423l-0.10865,8.69119l-5.32335,3.25919l-0.5432,-2.60736z" fill="url(#color-10)" stroke="none" stroke-width="0" stroke-linecap="round"/><path d="M266.77771,150.62201l1.39914,6.17951l-4.43059,-0.69957l-1.51573,-7.46203z" fill="url(#color-11)" stroke="none" stroke-width="0" stroke-linecap="round"/><path d="M267.97289,145.73348l5.20017,3.54054l-6.08531,1.10642l-3.54054,-1.65963z" fill="url(#color-12)" stroke="none" stroke-width="0" stroke-linecap="round"/><path d="M275.4225,138.71135l-1.9403,4.69755l-4.39118,-3.06362l0.10213,-4.49332l2.75726,-2.14453z" fill="url(#color-13)" stroke="none" stroke-width="0" stroke-linecap="round"/><path d="M273.0121,144.59946l0.68402,4.70641l-4.88587,-3.8308l0.09772,-3.8308z" fill="url(#color-14)" stroke="none" stroke-width="0" stroke-linecap="round"/><path d="M273.64277,149.84791l1.18835,7.88639l-5.72573,-0.6482l-1.29639,-6.15786z" fill="url(#color-15)" stroke="none" stroke-width="0" stroke-linecap="round"/><path d="M278.67874,144.20934v4.54718l-5.24675,-3.49783l2.2153,-5.71312z" fill="url(#color-16)" stroke="none" stroke-width="0" stroke-linecap="round"/><path d="M273.78178,150.10237l3.54199,5.02736l3.54199,0.7998l5.14161,2.9707l-10.96876,-0.91407z" fill="url(#color-17)" stroke="none" stroke-width="0" stroke-linecap="round"/><path d="M278.79534,149.60876l-0.94221,5.44386l-3.35007,-4.50166l-0.10469,-4.29228z" fill="url(#color-18)" stroke="none" stroke-width="0" stroke-linecap="round"/><path d="M279.12942,149.19915v-4.69046l2.97443,-2.63123l2.28802,7.43609l-6.52088,5.60566z" fill="url(#color-19)" stroke="none" stroke-width="0" stroke-linecap="round"/><path d="M284.62505,149.3395l2.0987,9.91052l-5.47994,-3.38124l-3.03145,-0.58298z" fill="url(#color-20)" stroke="none" stroke-width="0" stroke-linecap="round"/><path d="M289.65542,136.06455l-2.42688,21.95227l-4.52283,-16.54694z" fill="url(#color-21)" stroke="none" stroke-width="0" stroke-linecap="round"/></g></g></svg>