<svg width="480px" height="360px" xmlns="http://www.w3.org/2000/svg"><path fill="#F00" d="M250.332 174.736L252.866 180L250.406 180L248.018 174.883Q247.749 174.295 247.467 173.910Q247.186 173.524 246.862 173.298Q246.537 173.071 246.151 172.973Q245.766 172.875 245.288 172.875L245.288 172.875L244.260 172.875L244.260 180L242.081 180L242.081 164L246.366 164Q247.761 164 248.765 164.306Q249.769 164.612 250.412 165.163Q251.054 165.714 251.354 166.491Q251.654 167.269 251.654 168.211L251.654 168.211Q251.654 168.958 251.434 169.625Q251.213 170.292 250.779 170.837Q250.344 171.382 249.702 171.780Q249.059 172.178 248.226 172.373L248.226 172.373Q248.900 172.606 249.371 173.187Q249.842 173.769 250.332 174.736L250.332 174.736ZM249.377 168.395L249.377 168.395Q249.377 167.109 248.575 166.473Q247.774 165.836 246.317 165.836L246.317 165.836L244.260 165.836L244.260 171.125L246.023 171.125Q246.794 171.125 247.412 170.947Q248.031 170.770 248.465 170.421Q248.900 170.072 249.138 169.564Q249.377 169.056 249.377 168.395Z"/></svg>