<svg version="1.1" xmlns="http://www.w3.org/2000/svg" xmlns:xlink="http://www.w3.org/1999/xlink" width="62.44658" height="60.26072" viewBox="0,0,62.44658,60.26072"><defs><linearGradient x1="271.06156" y1="121.10222" x2="271.06156" y2="179.86293" gradientUnits="userSpaceOnUse" id="color-1"><stop offset="0" stop-color="#567357"/><stop offset="1" stop-color="#2e5729"/></linearGradient><linearGradient x1="271.30868" y1="144.15661" x2="264.33365" y2="161.8884" gradientUnits="userSpaceOnUse" id="color-2"><stop offset="0" stop-color="#00ff21"/><stop offset="1" stop-color="#deffd8"/></linearGradient><linearGradient x1="270.89207" y1="167.57146" x2="270.89207" y2="180.14306" gradientUnits="userSpaceOnUse" id="color-3"><stop offset="0" stop-color="#70bb5b"/><stop offset="1" stop-color="#296f15"/></linearGradient><linearGradient x1="270.23447" y1="135.79564" x2="270.23447" y2="142.9623" gradientUnits="userSpaceOnUse" id="color-4"><stop offset="0" stop-color="#6dff72"/><stop offset="1" stop-color="#c6ffbc"/></linearGradient><linearGradient x1="261.90111" y1="137.4623" x2="261.90111" y2="156.9623" gradientUnits="userSpaceOnUse" id="color-5"><stop offset="0" stop-color="#6dff72"/><stop offset="1" stop-color="#c6ffbc"/></linearGradient><linearGradient x1="278.31782" y1="136.79564" x2="278.31782" y2="157.12898" gradientUnits="userSpaceOnUse" id="color-6"><stop offset="0" stop-color="#6dff72"/><stop offset="1" stop-color="#c6ffbc"/></linearGradient><linearGradient x1="189.65113" y1="110.12895" x2="189.65113" y2="132.46229" gradientUnits="userSpaceOnUse" id="color-7"><stop offset="0" stop-color="#ffffff"/><stop offset="1" stop-color="#ffffff" stop-opacity="0"/></linearGradient><linearGradient x1="254.40113" y1="132.79562" x2="254.40113" y2="150.96229" gradientUnits="userSpaceOnUse" id="color-8"><stop offset="0" stop-color="#ffffff"/><stop offset="1" stop-color="#ffffff" stop-opacity="0"/></linearGradient><linearGradient x1="288.65111" y1="131.12895" x2="288.65111" y2="145.29562" gradientUnits="userSpaceOnUse" id="color-9"><stop offset="0" stop-color="#ffffff"/><stop offset="1" stop-color="#ffffff" stop-opacity="0"/></linearGradient><linearGradient x1="271.31782" y1="154.12895" x2="271.31782" y2="164.46229" gradientUnits="userSpaceOnUse" id="color-10"><stop offset="0" stop-color="#ffffff" stop-opacity="0"/><stop offset="1" stop-color="#ffffff"/></linearGradient><linearGradient x1="270.0022" y1="135.31695" x2="270.0022" y2="164.97882" gradientUnits="userSpaceOnUse" id="color-11"><stop offset="0" stop-color="#3fb330" stop-opacity="0"/><stop offset="1" stop-color="#3fb330"/></linearGradient><linearGradient x1="281.78234" y1="145.0929" x2="281.78234" y2="155.45085" gradientUnits="userSpaceOnUse" id="color-12"><stop offset="0" stop-color="#b4ffbb" stop-opacity="0"/><stop offset="1" stop-color="#b4ffbb"/></linearGradient><linearGradient x1="278.88828" y1="147.94009" x2="278.88828" y2="152.36068" gradientUnits="userSpaceOnUse" id="color-13"><stop offset="0" stop-color="#0b4c00" stop-opacity="0"/><stop offset="1" stop-color="#0b4c00"/></linearGradient><linearGradient x1="253.76925" y1="135.31695" x2="253.76925" y2="164.9838" gradientUnits="userSpaceOnUse" id="color-14"><stop offset="0" stop-color="#59d051" stop-opacity="0"/><stop offset="1" stop-color="#59d051"/></linearGradient><linearGradient x1="259.16576" y1="127.64364" x2="267.36221" y2="144.84497" gradientUnits="userSpaceOnUse" id="color-15"><stop offset="0" stop-color="#00ff21"/><stop offset="1" stop-color="#deffd8"/></linearGradient><linearGradient x1="279.86882" y1="126.93991" x2="279.77352" y2="145.994" gradientUnits="userSpaceOnUse" id="color-16"><stop offset="0" stop-color="#00ff21"/><stop offset="1" stop-color="#deffd8"/></linearGradient></defs><g transform="translate(-239.79664,-120.35221)"><g data-paper-data="{&quot;isPaintingLayer&quot;:true}" fill-rule="nonzero" stroke-linejoin="miter" stroke-miterlimit="10" stroke-dasharray="" stroke-dashoffset="0" style="mix-blend-mode: normal"><path d="M240.54665,179.86293v-58.76072h60.94658v58.76072z" fill="url(#color-1)" stroke="#3dab20" stroke-width="1.5" stroke-linecap="butt"/><path d="M264.37203,151.66574l5.54064,-3.97103l1.35023,6.68165l-5.5406,3.971zM263.19663,151.20338l1.8095,8.96467l7.43956,-5.32642l-1.81683,-8.96756zM262.07999,150.76414l9.22502,-6.60897l2.25733,11.12571l-9.23237,6.60607z" fill="url(#color-2)" stroke="none" stroke-width="0.26459" stroke-linecap="butt"/><path d="M239.96352,180.14306v-12.57143h61.85715v12.57143z" fill="url(#color-3)" stroke="none" stroke-width="0" stroke-linecap="butt"/><g fill="none" stroke-width="1.5" stroke-linecap="round"><path d="" stroke="url(#color-4)"/><path d="" stroke="url(#color-5)"/><path d="" stroke="url(#color-6)"/></g><path d="" fill="none" stroke="url(#color-7)" stroke-width="1.5" stroke-linecap="round"/><path d="" fill="none" stroke="url(#color-8)" stroke-width="3" stroke-linecap="round"/><path d="" fill="none" stroke="url(#color-9)" stroke-width="3" stroke-linecap="round"/><path d="" fill="none" stroke="url(#color-10)" stroke-width="3" stroke-linecap="round"/><path d="M288.15854,164.97882h-36.30771c-0.97792,0 -1.77123,-0.79331 -1.77123,-1.77123v-26.11939c0,-0.97792 0.79331,-1.77124 1.77123,-1.77124h36.30273c0.97792,0 1.77123,0.79332 1.77123,1.77124c0,0 0,6.59412 0,10.42313c0,4.69953 0,15.70125 0,15.70125c0.005,0.97792 -0.78833,1.76624 -1.76623,1.76624z" fill="url(#color-11)" stroke="none" stroke-width="0" stroke-linecap="butt"/><path d="M273.17814,150.27187c0,-2.85892 2.32006,-5.17897 5.17898,-5.17897h11.14627c0.48897,0 0.88312,0.39416 0.88312,0.88312v8.59171c0,0.48896 -0.39415,0.88312 -0.88312,0.88312h-11.14627c-2.85891,0 -5.17898,-2.32006 -5.17898,-5.17897z" fill="url(#color-12)" stroke="none" stroke-width="0" stroke-linecap="butt"/><path d="M278.88828,150.15038M278.88828,147.94009c1.22071,0 2.2103,0.98957 2.2103,2.21029c0,1.22072 -0.98958,2.2103 -2.2103,2.2103c-1.22071,0 -2.21029,-0.98959 -2.21029,-2.2103c0,-1.22072 0.98958,-2.21029 2.21029,-2.21029z" fill="url(#color-13)" stroke="none" stroke-width="1" stroke-linecap="butt"/><path d="M257.4589,135.31695v29.66686h-5.60806c-0.97792,0 -1.77123,-0.79331 -1.77123,-1.77123v-26.12437c0,-0.97792 0.79331,-1.77124 1.77123,-1.77124z" fill="url(#color-14)" stroke="none" stroke-width="0" stroke-linecap="butt"/><path d="M259.91804,137.83866l0.88029,-6.75964l5.80443,3.57437l-0.88029,6.7596zM258.7778,138.38198l7.78629,4.79721l1.18608,-9.07254l-7.79341,-4.79382zM257.69456,138.89814l1.46764,-11.25281l9.67121,5.94514l-1.47477,11.2562z" fill="url(#color-15)" stroke="none" stroke-width="0.26459" stroke-linecap="butt"/><path d="M276.11483,136.44841l3.73101,-5.70502l3.67373,5.74206l-3.73099,5.70499zM274.85177,136.4421l4.92704,7.70479l5.01175,-7.65508l-4.93492,-7.70484zM273.65186,136.4361l6.21302,-9.49621l6.12561,9.55793l-6.22091,9.49616z" fill="url(#color-16)" stroke="none" stroke-width="0.26459" stroke-linecap="butt"/></g></g></svg>