<svg width="480px" height="360px" xmlns="http://www.w3.org/2000/svg"><path fill="#F00" d="M252.340 177.968L252.340 180L241.800 180L241.800 178.090L245.937 173.977Q246.953 172.973 247.590 172.239Q248.226 171.504 248.581 170.898Q248.936 170.292 249.059 169.754Q249.181 169.215 249.181 168.591L249.181 168.591Q249.181 168.003 249.022 167.471Q248.863 166.938 248.533 166.534Q248.202 166.130 247.676 165.897Q247.149 165.665 246.415 165.665L246.415 165.665Q245.399 165.665 244.566 166.118Q243.734 166.571 243.036 167.293L243.036 167.293L241.861 165.885Q242.767 164.930 243.948 164.355Q245.129 163.780 246.696 163.780L246.696 163.780Q247.761 163.780 248.637 164.098Q249.512 164.416 250.148 165.016Q250.785 165.616 251.134 166.485Q251.483 167.354 251.483 168.444L251.483 168.444Q251.483 169.362 251.238 170.145Q250.993 170.929 250.497 171.706Q250.002 172.484 249.249 173.316Q248.496 174.148 247.467 175.140L247.467 175.140L244.566 177.968L252.340 177.968Z"/></svg>