<svg width="480px" height="360px" xmlns="http://www.w3.org/2000/svg"><path fill="#F00" d="M252.462 173.634L252.462 173.634Q252.462 175.275 252.003 176.499Q251.544 177.723 250.736 178.531Q249.928 179.339 248.826 179.743Q247.725 180.147 246.439 180.147L246.439 180.147Q245.852 180.147 245.270 180.086Q244.689 180.024 244.089 179.878L244.089 179.878L244.089 185.019L241.959 185.019L241.959 167.709L243.856 167.709L243.991 169.766Q244.909 168.505 245.950 167.997Q246.990 167.489 248.202 167.489L248.202 167.489Q249.255 167.489 250.050 167.930Q250.846 168.370 251.385 169.172Q251.923 169.974 252.193 171.106Q252.462 172.239 252.462 173.634ZM250.283 173.732L250.283 173.732Q250.283 172.765 250.142 171.957Q250.002 171.149 249.695 170.574Q249.389 169.998 248.912 169.674Q248.435 169.350 247.774 169.350L247.774 169.350Q247.370 169.350 246.953 169.478Q246.537 169.607 246.090 169.907Q245.643 170.207 245.148 170.702Q244.652 171.198 244.089 171.933L244.089 171.933L244.089 177.894Q244.676 178.139 245.325 178.280Q245.974 178.421 246.598 178.421L246.598 178.421Q248.324 178.421 249.304 177.252Q250.283 176.083 250.283 173.732Z"/></svg>