<svg version="1.1" xmlns="http://www.w3.org/2000/svg" xmlns:xlink="http://www.w3.org/1999/xlink" width="17.15386" height="17.15384" viewBox="0,0,17.15386,17.15384"><g transform="translate(-238.15384,-165)"><g data-paper-data="{&quot;isPaintingLayer&quot;:true}" fill="#ff0000" fill-rule="nonzero" stroke="none" stroke-width="1" stroke-linecap="butt" stroke-linejoin="miter" stroke-miterlimit="10" stroke-dasharray="" stroke-dashoffset="0" style="mix-blend-mode: normal"><path d="M251.73397,165c0,7.00663 -3.6409,8.6148 -3.99614,11.4359h-2.00485c-0.35666,-2.82109 -4.00542,-4.42926 -4.00542,-11.4359zM247.83791,173.34033c1.01422,-1.74326 2.14709,-3.69022 2.41011,-6.91085h-7.0345c0.26303,3.21991 1.39875,5.16689 2.41511,6.90943c0.41384,0.71045 0.81481,1.39732 1.10642,2.11064c0.2909,-0.7126 0.69044,-1.39946 1.10285,-2.10921zM244.415,167.14423h0.98849c0.00571,2.10706 0.52319,4.27703 1.32728,6.10891c-0.98849,-1.08926 -2.04845,-3.88034 -2.31576,-6.10891zM255.30768,166.42877h-2.9133c-0.02574,0.34522 -0.05718,0.68258 -0.09935,1.00421h1.92124c-0.3052,1.4302 -1.10714,3.38074 -3.19061,4.46786c-0.20441,0.456 -0.41813,0.87985 -0.6304,1.27439c2.90544,-0.96276 4.64655,-3.81173 4.91244,-6.74575zM241.06786,166.42948c0.02574,0.3445 0.05718,0.68258 0.09864,1.0035h-1.92124c0.3052,1.4302 1.10714,3.38074 3.19061,4.46786c0.20441,0.456 0.41813,0.87985 0.6304,1.27439c-2.90544,-0.96276 -4.64655,-3.81173 -4.91244,-6.74575zM250.3052,179.02255v3.13129h-7.14744v-3.13129c1.38731,0 2.40797,-1.02351 2.55235,-1.87191h2.04845c0.13724,0.8484 1.11786,1.87191 2.54664,1.87191zM249.58973,180.00961h-5.71795v1.42949h5.71795z"/></g></g></svg>