<svg version="1.1" xmlns="http://www.w3.org/2000/svg" xmlns:xlink="http://www.w3.org/1999/xlink" width="62.36325" height="60.26072" viewBox="0,0,62.36325,60.26072"><defs><linearGradient x1="270.89485" y1="121.10217" x2="270.89485" y2="179.86288" gradientUnits="userSpaceOnUse" id="color-1"><stop offset="0" stop-color="#5a4882"/><stop offset="1" stop-color="#342d42"/></linearGradient><linearGradient x1="270.892" y1="167.57146" x2="270.892" y2="180.14297" gradientUnits="userSpaceOnUse" id="color-2"><stop offset="0" stop-color="#a78be3"/><stop offset="1" stop-color="#643db8"/></linearGradient><radialGradient cx="272.78728" cy="145.91566" r="4.27992" gradientUnits="userSpaceOnUse" id="color-3"><stop offset="0" stop-color="#00ff78" stop-opacity="0.82119"/><stop offset="1" stop-color="#00ff78" stop-opacity="0.52419"/></radialGradient><radialGradient cx="272.74714" cy="146.25976" r="11.68483" gradientUnits="userSpaceOnUse" id="color-4"><stop offset="0" stop-color="#00ff78" stop-opacity="0.82119"/><stop offset="1" stop-color="#00ff78" stop-opacity="0.52419"/></radialGradient><radialGradient cx="271.00797" cy="151.62346" r="5.91034" gradientUnits="userSpaceOnUse" id="color-5"><stop offset="0" stop-color="#00ff78" stop-opacity="0.82119"/><stop offset="1" stop-color="#00ff78" stop-opacity="0.52419"/></radialGradient><radialGradient cx="275.60725" cy="151.31505" r="4.17924" gradientUnits="userSpaceOnUse" id="color-6"><stop offset="0" stop-color="#00ff78" stop-opacity="0.82119"/><stop offset="1" stop-color="#00ff78" stop-opacity="0.52419"/></radialGradient><radialGradient cx="278.43546" cy="147.97984" r="5.91035" gradientUnits="userSpaceOnUse" id="color-7"><stop offset="0" stop-color="#00ff78" stop-opacity="0.82119"/><stop offset="1" stop-color="#00ff78" stop-opacity="0.52419"/></radialGradient><radialGradient cx="278.12706" cy="143.38056" r="4.17924" gradientUnits="userSpaceOnUse" id="color-8"><stop offset="0" stop-color="#00ff78" stop-opacity="0.82119"/><stop offset="1" stop-color="#00ff78" stop-opacity="0.52419"/></radialGradient><radialGradient cx="274.35373" cy="140.8774" r="5.91036" gradientUnits="userSpaceOnUse" id="color-9"><stop offset="0" stop-color="#00ff78" stop-opacity="0.82119"/><stop offset="1" stop-color="#00ff78" stop-opacity="0.52419"/></radialGradient><radialGradient cx="269.75446" cy="141.18582" r="4.17924" gradientUnits="userSpaceOnUse" id="color-10"><stop offset="0" stop-color="#00ff78" stop-opacity="0.82119"/><stop offset="1" stop-color="#00ff78" stop-opacity="0.52419"/></radialGradient><radialGradient cx="266.92622" cy="144.52101" r="5.91035" gradientUnits="userSpaceOnUse" id="color-11"><stop offset="0" stop-color="#00ff78" stop-opacity="0.82119"/><stop offset="1" stop-color="#00ff78" stop-opacity="0.52419"/></radialGradient><radialGradient cx="267.23464" cy="149.1203" r="4.17925" gradientUnits="userSpaceOnUse" id="color-12"><stop offset="0" stop-color="#00ff78" stop-opacity="0.82119"/><stop offset="1" stop-color="#00ff78" stop-opacity="0.52419"/></radialGradient><radialGradient cx="252.55169" cy="134.17423" r="3.25003" gradientUnits="userSpaceOnUse" id="color-13"><stop offset="0" stop-color="#00ff78" stop-opacity="0.82119"/><stop offset="1" stop-color="#00ff78" stop-opacity="0.52419"/></radialGradient><radialGradient cx="252.68464" cy="133.94724" r="8.87309" gradientUnits="userSpaceOnUse" id="color-14"><stop offset="0" stop-color="#00ff78" stop-opacity="0.82119"/><stop offset="1" stop-color="#00ff78" stop-opacity="0.52419"/></radialGradient><radialGradient cx="254.08209" cy="129.8999" r="4.48813" gradientUnits="userSpaceOnUse" id="color-15"><stop offset="0" stop-color="#00ff78" stop-opacity="0.82119"/><stop offset="1" stop-color="#00ff78" stop-opacity="0.52419"/></radialGradient><radialGradient cx="256.72987" cy="132.18945" r="3.17359" gradientUnits="userSpaceOnUse" id="color-16"><stop offset="0" stop-color="#00ff78" stop-opacity="0.82119"/><stop offset="1" stop-color="#00ff78" stop-opacity="0.52419"/></radialGradient><radialGradient cx="256.92008" cy="135.50465" r="4.48814" gradientUnits="userSpaceOnUse" id="color-17"><stop offset="0" stop-color="#00ff78" stop-opacity="0.82119"/><stop offset="1" stop-color="#00ff78" stop-opacity="0.52419"/></radialGradient><radialGradient cx="254.63056" cy="138.15243" r="3.17359" gradientUnits="userSpaceOnUse" id="color-18"><stop offset="0" stop-color="#00ff78" stop-opacity="0.82119"/><stop offset="1" stop-color="#00ff78" stop-opacity="0.52419"/></radialGradient><radialGradient cx="251.19829" cy="137.94528" r="4.48814" gradientUnits="userSpaceOnUse" id="color-19"><stop offset="0" stop-color="#00ff78" stop-opacity="0.82119"/><stop offset="1" stop-color="#00ff78" stop-opacity="0.52419"/></radialGradient><radialGradient cx="248.55051" cy="135.65571" r="3.17359" gradientUnits="userSpaceOnUse" id="color-20"><stop offset="0" stop-color="#00ff78" stop-opacity="0.82119"/><stop offset="1" stop-color="#00ff78" stop-opacity="0.52419"/></radialGradient><radialGradient cx="248.36027" cy="132.34053" r="4.48814" gradientUnits="userSpaceOnUse" id="color-21"><stop offset="0" stop-color="#00ff78" stop-opacity="0.82119"/><stop offset="1" stop-color="#00ff78" stop-opacity="0.52419"/></radialGradient><radialGradient cx="250.64982" cy="129.69275" r="3.1736" gradientUnits="userSpaceOnUse" id="color-22"><stop offset="0" stop-color="#00ff78" stop-opacity="0.82119"/><stop offset="1" stop-color="#00ff78" stop-opacity="0.52419"/></radialGradient><radialGradient cx="253.46414" cy="159.48529" r="2.33459" gradientUnits="userSpaceOnUse" id="color-23"><stop offset="0" stop-color="#00ff78" stop-opacity="0.82119"/><stop offset="1" stop-color="#00ff78" stop-opacity="0.52419"/></radialGradient><radialGradient cx="253.55964" cy="159.32224" r="6.37377" gradientUnits="userSpaceOnUse" id="color-24"><stop offset="0" stop-color="#00ff78" stop-opacity="0.82119"/><stop offset="1" stop-color="#00ff78" stop-opacity="0.52419"/></radialGradient><radialGradient cx="254.56346" cy="156.41494" r="3.22394" gradientUnits="userSpaceOnUse" id="color-25"><stop offset="0" stop-color="#00ff78" stop-opacity="0.82119"/><stop offset="1" stop-color="#00ff78" stop-opacity="0.52419"/></radialGradient><radialGradient cx="256.46543" cy="158.05959" r="2.27967" gradientUnits="userSpaceOnUse" id="color-26"><stop offset="0" stop-color="#00ff78" stop-opacity="0.82119"/><stop offset="1" stop-color="#00ff78" stop-opacity="0.52419"/></radialGradient><radialGradient cx="256.60207" cy="160.44098" r="3.22394" gradientUnits="userSpaceOnUse" id="color-27"><stop offset="0" stop-color="#00ff78" stop-opacity="0.82119"/><stop offset="1" stop-color="#00ff78" stop-opacity="0.52419"/></radialGradient><radialGradient cx="254.95744" cy="162.34294" r="2.27967" gradientUnits="userSpaceOnUse" id="color-28"><stop offset="0" stop-color="#00ff78" stop-opacity="0.82119"/><stop offset="1" stop-color="#00ff78" stop-opacity="0.52419"/></radialGradient><radialGradient cx="252.49195" cy="162.19413" r="3.22395" gradientUnits="userSpaceOnUse" id="color-29"><stop offset="0" stop-color="#00ff78" stop-opacity="0.82119"/><stop offset="1" stop-color="#00ff78" stop-opacity="0.52419"/></radialGradient><radialGradient cx="250.58998" cy="160.5495" r="2.27967" gradientUnits="userSpaceOnUse" id="color-30"><stop offset="0" stop-color="#00ff78" stop-opacity="0.82119"/><stop offset="1" stop-color="#00ff78" stop-opacity="0.52419"/></radialGradient><radialGradient cx="250.45333" cy="158.16811" r="3.22395" gradientUnits="userSpaceOnUse" id="color-31"><stop offset="0" stop-color="#00ff78" stop-opacity="0.82119"/><stop offset="1" stop-color="#00ff78" stop-opacity="0.52419"/></radialGradient><radialGradient cx="252.09798" cy="156.26612" r="2.27967" gradientUnits="userSpaceOnUse" id="color-32"><stop offset="0" stop-color="#00ff78" stop-opacity="0.82119"/><stop offset="1" stop-color="#00ff78" stop-opacity="0.52419"/></radialGradient><radialGradient cx="290.46414" cy="130.48529" r="2.33458" gradientUnits="userSpaceOnUse" id="color-33"><stop offset="0" stop-color="#00ff78" stop-opacity="0.82119"/><stop offset="1" stop-color="#00ff78" stop-opacity="0.52419"/></radialGradient><radialGradient cx="290.55964" cy="130.32224" r="6.37378" gradientUnits="userSpaceOnUse" id="color-34"><stop offset="0" stop-color="#00ff78" stop-opacity="0.82119"/><stop offset="1" stop-color="#00ff78" stop-opacity="0.52419"/></radialGradient><radialGradient cx="291.56346" cy="127.41494" r="3.22394" gradientUnits="userSpaceOnUse" id="color-35"><stop offset="0" stop-color="#00ff78" stop-opacity="0.82119"/><stop offset="1" stop-color="#00ff78" stop-opacity="0.52419"/></radialGradient><radialGradient cx="293.46543" cy="129.05958" r="2.27967" gradientUnits="userSpaceOnUse" id="color-36"><stop offset="0" stop-color="#00ff78" stop-opacity="0.82119"/><stop offset="1" stop-color="#00ff78" stop-opacity="0.52419"/></radialGradient><radialGradient cx="293.60207" cy="131.44096" r="3.22394" gradientUnits="userSpaceOnUse" id="color-37"><stop offset="0" stop-color="#00ff78" stop-opacity="0.82119"/><stop offset="1" stop-color="#00ff78" stop-opacity="0.52419"/></radialGradient><radialGradient cx="291.95744" cy="133.34293" r="2.27967" gradientUnits="userSpaceOnUse" id="color-38"><stop offset="0" stop-color="#00ff78" stop-opacity="0.82119"/><stop offset="1" stop-color="#00ff78" stop-opacity="0.52419"/></radialGradient><radialGradient cx="289.49195" cy="133.19413" r="3.22395" gradientUnits="userSpaceOnUse" id="color-39"><stop offset="0" stop-color="#00ff78" stop-opacity="0.82119"/><stop offset="1" stop-color="#00ff78" stop-opacity="0.52419"/></radialGradient><radialGradient cx="287.58998" cy="131.5495" r="2.27967" gradientUnits="userSpaceOnUse" id="color-40"><stop offset="0" stop-color="#00ff78" stop-opacity="0.82119"/><stop offset="1" stop-color="#00ff78" stop-opacity="0.52419"/></radialGradient><radialGradient cx="287.45333" cy="129.1681" r="3.22394" gradientUnits="userSpaceOnUse" id="color-41"><stop offset="0" stop-color="#00ff78" stop-opacity="0.82119"/><stop offset="1" stop-color="#00ff78" stop-opacity="0.52419"/></radialGradient><radialGradient cx="289.09798" cy="127.26613" r="2.27967" gradientUnits="userSpaceOnUse" id="color-42"><stop offset="0" stop-color="#00ff78" stop-opacity="0.82119"/><stop offset="1" stop-color="#00ff78" stop-opacity="0.52419"/></radialGradient><radialGradient cx="291.33914" cy="159.23529" r="2.33459" gradientUnits="userSpaceOnUse" id="color-43"><stop offset="0" stop-color="#00ff78" stop-opacity="0.82119"/><stop offset="1" stop-color="#00ff78" stop-opacity="0.52419"/></radialGradient><radialGradient cx="291.43464" cy="159.07224" r="6.37378" gradientUnits="userSpaceOnUse" id="color-44"><stop offset="0" stop-color="#00ff78" stop-opacity="0.82119"/><stop offset="1" stop-color="#00ff78" stop-opacity="0.52419"/></radialGradient><radialGradient cx="292.43846" cy="156.16493" r="3.22394" gradientUnits="userSpaceOnUse" id="color-45"><stop offset="0" stop-color="#00ff78" stop-opacity="0.82119"/><stop offset="1" stop-color="#00ff78" stop-opacity="0.52419"/></radialGradient><radialGradient cx="294.34043" cy="157.80958" r="2.27967" gradientUnits="userSpaceOnUse" id="color-46"><stop offset="0" stop-color="#00ff78" stop-opacity="0.82119"/><stop offset="1" stop-color="#00ff78" stop-opacity="0.52419"/></radialGradient><radialGradient cx="294.47707" cy="160.19096" r="3.22394" gradientUnits="userSpaceOnUse" id="color-47"><stop offset="0" stop-color="#00ff78" stop-opacity="0.82119"/><stop offset="1" stop-color="#00ff78" stop-opacity="0.52419"/></radialGradient><radialGradient cx="292.83244" cy="162.09293" r="2.27967" gradientUnits="userSpaceOnUse" id="color-48"><stop offset="0" stop-color="#00ff78" stop-opacity="0.82119"/><stop offset="1" stop-color="#00ff78" stop-opacity="0.52419"/></radialGradient><radialGradient cx="290.36695" cy="161.94413" r="3.22395" gradientUnits="userSpaceOnUse" id="color-49"><stop offset="0" stop-color="#00ff78" stop-opacity="0.82119"/><stop offset="1" stop-color="#00ff78" stop-opacity="0.52419"/></radialGradient><radialGradient cx="288.46498" cy="160.2995" r="2.27967" gradientUnits="userSpaceOnUse" id="color-50"><stop offset="0" stop-color="#00ff78" stop-opacity="0.82119"/><stop offset="1" stop-color="#00ff78" stop-opacity="0.52419"/></radialGradient><radialGradient cx="288.32833" cy="157.9181" r="3.22395" gradientUnits="userSpaceOnUse" id="color-51"><stop offset="0" stop-color="#00ff78" stop-opacity="0.82119"/><stop offset="1" stop-color="#00ff78" stop-opacity="0.52419"/></radialGradient><radialGradient cx="289.97298" cy="156.01612" r="2.27967" gradientUnits="userSpaceOnUse" id="color-52"><stop offset="0" stop-color="#00ff78" stop-opacity="0.82119"/><stop offset="1" stop-color="#00ff78" stop-opacity="0.52419"/></radialGradient><radialGradient cx="246.5082" cy="147.86862" r="1.39625" gradientUnits="userSpaceOnUse" id="color-53"><stop offset="0" stop-color="#00ff78" stop-opacity="0.82119"/><stop offset="1" stop-color="#00ff78" stop-opacity="0.52419"/></radialGradient><radialGradient cx="246.56532" cy="147.77111" r="3.81197" gradientUnits="userSpaceOnUse" id="color-54"><stop offset="0" stop-color="#00ff78" stop-opacity="0.82119"/><stop offset="1" stop-color="#00ff78" stop-opacity="0.52419"/></radialGradient><radialGradient cx="247.16568" cy="146.03233" r="1.92815" gradientUnits="userSpaceOnUse" id="color-55"><stop offset="0" stop-color="#00ff78" stop-opacity="0.82119"/><stop offset="1" stop-color="#00ff78" stop-opacity="0.52419"/></radialGradient><radialGradient cx="248.30319" cy="147.01594" r="1.36341" gradientUnits="userSpaceOnUse" id="color-56"><stop offset="0" stop-color="#00ff78" stop-opacity="0.82119"/><stop offset="1" stop-color="#00ff78" stop-opacity="0.52419"/></radialGradient><radialGradient cx="248.38491" cy="148.44019" r="1.92815" gradientUnits="userSpaceOnUse" id="color-57"><stop offset="0" stop-color="#00ff78" stop-opacity="0.82119"/><stop offset="1" stop-color="#00ff78" stop-opacity="0.52419"/></radialGradient><radialGradient cx="247.4013" cy="149.57769" r="1.36341" gradientUnits="userSpaceOnUse" id="color-58"><stop offset="0" stop-color="#00ff78" stop-opacity="0.82119"/><stop offset="1" stop-color="#00ff78" stop-opacity="0.52419"/></radialGradient><radialGradient cx="245.92677" cy="149.48869" r="1.92815" gradientUnits="userSpaceOnUse" id="color-59"><stop offset="0" stop-color="#00ff78" stop-opacity="0.82119"/><stop offset="1" stop-color="#00ff78" stop-opacity="0.52419"/></radialGradient><radialGradient cx="244.78925" cy="148.5051" r="1.36341" gradientUnits="userSpaceOnUse" id="color-60"><stop offset="0" stop-color="#00ff78" stop-opacity="0.82119"/><stop offset="1" stop-color="#00ff78" stop-opacity="0.52419"/></radialGradient><radialGradient cx="244.70753" cy="147.08084" r="1.92815" gradientUnits="userSpaceOnUse" id="color-61"><stop offset="0" stop-color="#00ff78" stop-opacity="0.82119"/><stop offset="1" stop-color="#00ff78" stop-opacity="0.52419"/></radialGradient><radialGradient cx="245.69114" cy="145.94332" r="1.36341" gradientUnits="userSpaceOnUse" id="color-62"><stop offset="0" stop-color="#00ff78" stop-opacity="0.82119"/><stop offset="1" stop-color="#00ff78" stop-opacity="0.52419"/></radialGradient><radialGradient cx="265.23547" cy="163.05045" r="1.39625" gradientUnits="userSpaceOnUse" id="color-63"><stop offset="0" stop-color="#00ff78" stop-opacity="0.82119"/><stop offset="1" stop-color="#00ff78" stop-opacity="0.52419"/></radialGradient><radialGradient cx="265.29259" cy="162.95293" r="3.81197" gradientUnits="userSpaceOnUse" id="color-64"><stop offset="0" stop-color="#00ff78" stop-opacity="0.82119"/><stop offset="1" stop-color="#00ff78" stop-opacity="0.52419"/></radialGradient><radialGradient cx="265.89295" cy="161.21415" r="1.92814" gradientUnits="userSpaceOnUse" id="color-65"><stop offset="0" stop-color="#00ff78" stop-opacity="0.82119"/><stop offset="1" stop-color="#00ff78" stop-opacity="0.52419"/></radialGradient><radialGradient cx="267.03046" cy="162.19777" r="1.36341" gradientUnits="userSpaceOnUse" id="color-66"><stop offset="0" stop-color="#00ff78" stop-opacity="0.82119"/><stop offset="1" stop-color="#00ff78" stop-opacity="0.52419"/></radialGradient><radialGradient cx="267.11218" cy="163.62201" r="1.92815" gradientUnits="userSpaceOnUse" id="color-67"><stop offset="0" stop-color="#00ff78" stop-opacity="0.82119"/><stop offset="1" stop-color="#00ff78" stop-opacity="0.52419"/></radialGradient><radialGradient cx="266.12857" cy="164.7595" r="1.36341" gradientUnits="userSpaceOnUse" id="color-68"><stop offset="0" stop-color="#00ff78" stop-opacity="0.82119"/><stop offset="1" stop-color="#00ff78" stop-opacity="0.52419"/></radialGradient><radialGradient cx="264.65404" cy="164.67052" r="1.92815" gradientUnits="userSpaceOnUse" id="color-69"><stop offset="0" stop-color="#00ff78" stop-opacity="0.82119"/><stop offset="1" stop-color="#00ff78" stop-opacity="0.52419"/></radialGradient><radialGradient cx="263.51652" cy="163.68692" r="1.36341" gradientUnits="userSpaceOnUse" id="color-70"><stop offset="0" stop-color="#00ff78" stop-opacity="0.82119"/><stop offset="1" stop-color="#00ff78" stop-opacity="0.52419"/></radialGradient><radialGradient cx="263.4348" cy="162.26267" r="1.92815" gradientUnits="userSpaceOnUse" id="color-71"><stop offset="0" stop-color="#00ff78" stop-opacity="0.82119"/><stop offset="1" stop-color="#00ff78" stop-opacity="0.52419"/></radialGradient><radialGradient cx="264.41841" cy="161.12515" r="1.36341" gradientUnits="userSpaceOnUse" id="color-72"><stop offset="0" stop-color="#00ff78" stop-opacity="0.82119"/><stop offset="1" stop-color="#00ff78" stop-opacity="0.52419"/></radialGradient><radialGradient cx="290.69002" cy="145.95953" r="1.39625" gradientUnits="userSpaceOnUse" id="color-73"><stop offset="0" stop-color="#00ff78" stop-opacity="0.82119"/><stop offset="1" stop-color="#00ff78" stop-opacity="0.52419"/></radialGradient><radialGradient cx="290.74714" cy="145.86202" r="3.81197" gradientUnits="userSpaceOnUse" id="color-74"><stop offset="0" stop-color="#00ff78" stop-opacity="0.82119"/><stop offset="1" stop-color="#00ff78" stop-opacity="0.52419"/></radialGradient><radialGradient cx="291.3475" cy="144.12325" r="1.92815" gradientUnits="userSpaceOnUse" id="color-75"><stop offset="0" stop-color="#00ff78" stop-opacity="0.82119"/><stop offset="1" stop-color="#00ff78" stop-opacity="0.52419"/></radialGradient><radialGradient cx="292.48501" cy="145.10686" r="1.36341" gradientUnits="userSpaceOnUse" id="color-76"><stop offset="0" stop-color="#00ff78" stop-opacity="0.82119"/><stop offset="1" stop-color="#00ff78" stop-opacity="0.52419"/></radialGradient><radialGradient cx="292.56673" cy="146.53111" r="1.92815" gradientUnits="userSpaceOnUse" id="color-77"><stop offset="0" stop-color="#00ff78" stop-opacity="0.82119"/><stop offset="1" stop-color="#00ff78" stop-opacity="0.52419"/></radialGradient><radialGradient cx="291.58312" cy="147.66861" r="1.36341" gradientUnits="userSpaceOnUse" id="color-78"><stop offset="0" stop-color="#00ff78" stop-opacity="0.82119"/><stop offset="1" stop-color="#00ff78" stop-opacity="0.52419"/></radialGradient><radialGradient cx="290.10859" cy="147.57961" r="1.92815" gradientUnits="userSpaceOnUse" id="color-79"><stop offset="0" stop-color="#00ff78" stop-opacity="0.82119"/><stop offset="1" stop-color="#00ff78" stop-opacity="0.52419"/></radialGradient><radialGradient cx="288.97107" cy="146.59601" r="1.36341" gradientUnits="userSpaceOnUse" id="color-80"><stop offset="0" stop-color="#00ff78" stop-opacity="0.82119"/><stop offset="1" stop-color="#00ff78" stop-opacity="0.52419"/></radialGradient><radialGradient cx="288.88935" cy="145.17177" r="1.92815" gradientUnits="userSpaceOnUse" id="color-81"><stop offset="0" stop-color="#00ff78" stop-opacity="0.82119"/><stop offset="1" stop-color="#00ff78" stop-opacity="0.52419"/></radialGradient><radialGradient cx="289.87296" cy="144.03425" r="1.36341" gradientUnits="userSpaceOnUse" id="color-82"><stop offset="0" stop-color="#00ff78" stop-opacity="0.82119"/><stop offset="1" stop-color="#00ff78" stop-opacity="0.52419"/></radialGradient><radialGradient cx="272.87184" cy="127.68681" r="1.39625" gradientUnits="userSpaceOnUse" id="color-83"><stop offset="0" stop-color="#00ff78" stop-opacity="0.82119"/><stop offset="1" stop-color="#00ff78" stop-opacity="0.52419"/></radialGradient><radialGradient cx="272.92896" cy="127.58929" r="3.81197" gradientUnits="userSpaceOnUse" id="color-84"><stop offset="0" stop-color="#00ff78" stop-opacity="0.82119"/><stop offset="1" stop-color="#00ff78" stop-opacity="0.52419"/></radialGradient><radialGradient cx="273.52931" cy="125.85052" r="1.92815" gradientUnits="userSpaceOnUse" id="color-85"><stop offset="0" stop-color="#00ff78" stop-opacity="0.82119"/><stop offset="1" stop-color="#00ff78" stop-opacity="0.52419"/></radialGradient><radialGradient cx="274.66683" cy="126.83413" r="1.36341" gradientUnits="userSpaceOnUse" id="color-86"><stop offset="0" stop-color="#00ff78" stop-opacity="0.82119"/><stop offset="1" stop-color="#00ff78" stop-opacity="0.52419"/></radialGradient><radialGradient cx="274.74855" cy="128.25838" r="1.92815" gradientUnits="userSpaceOnUse" id="color-87"><stop offset="0" stop-color="#00ff78" stop-opacity="0.82119"/><stop offset="1" stop-color="#00ff78" stop-opacity="0.52419"/></radialGradient><radialGradient cx="273.76494" cy="129.39587" r="1.36341" gradientUnits="userSpaceOnUse" id="color-88"><stop offset="0" stop-color="#00ff78" stop-opacity="0.82119"/><stop offset="1" stop-color="#00ff78" stop-opacity="0.52419"/></radialGradient><radialGradient cx="272.2904" cy="129.30689" r="1.92815" gradientUnits="userSpaceOnUse" id="color-89"><stop offset="0" stop-color="#00ff78" stop-opacity="0.82119"/><stop offset="1" stop-color="#00ff78" stop-opacity="0.52419"/></radialGradient><radialGradient cx="271.15289" cy="128.32328" r="1.36341" gradientUnits="userSpaceOnUse" id="color-90"><stop offset="0" stop-color="#00ff78" stop-opacity="0.82119"/><stop offset="1" stop-color="#00ff78" stop-opacity="0.52419"/></radialGradient><radialGradient cx="271.07116" cy="126.89904" r="1.92815" gradientUnits="userSpaceOnUse" id="color-91"><stop offset="0" stop-color="#00ff78" stop-opacity="0.82119"/><stop offset="1" stop-color="#00ff78" stop-opacity="0.52419"/></radialGradient><radialGradient cx="272.05478" cy="125.76152" r="1.36341" gradientUnits="userSpaceOnUse" id="color-92"><stop offset="0" stop-color="#00ff78" stop-opacity="0.82119"/><stop offset="1" stop-color="#00ff78" stop-opacity="0.52419"/></radialGradient></defs><g transform="translate(-239.71327,-120.35215)"><g data-paper-data="{&quot;isPaintingLayer&quot;:true}" fill-rule="nonzero" stroke-linejoin="miter" stroke-miterlimit="10" stroke-dasharray="" stroke-dashoffset="0" style="mix-blend-mode: normal"><path d="M240.46327,179.86288v-58.76072h60.86325v58.76072z" fill="url(#color-1)" stroke="#916fdc" stroke-width="1.5" stroke-linecap="butt"/><path d="M239.96343,180.14297v-12.57143h61.85715v12.57143z" fill="url(#color-2)" stroke="none" stroke-width="0" stroke-linecap="butt"/><path d="M274.10738,141.84444c2.24849,0.72906 3.48021,3.14283 2.75115,5.39132c-0.72908,2.24848 -3.14283,3.48022 -5.39132,2.75116c-2.24849,-0.72906 -3.48023,-3.14284 -2.75117,-5.39133c0.72906,-2.24849 3.14285,-3.48021 5.39134,-2.75115z" data-paper-data="{&quot;index&quot;:null}" fill="none" stroke="url(#color-3)" stroke-width="4" stroke-linecap="butt"/><path d="M276.35118,135.14461c6.13871,1.99045 9.50154,8.58045 7.51109,14.71917c-1.99045,6.13871 -8.58045,9.50154 -14.71917,7.51109c-6.13871,-1.99045 -9.50155,-8.58045 -7.51109,-14.71917c1.99045,-6.13871 8.58045,-9.50155 14.71917,-7.51109z" data-paper-data="{&quot;index&quot;:null}" fill="none" stroke="url(#color-4)" stroke-width="3" stroke-linecap="butt"/><path d="M272.83095,146.00125l-3.64594,11.24439" data-paper-data="{&quot;index&quot;:null}" fill="none" stroke="url(#color-5)" stroke-width="4" stroke-linecap="round"/><path d="M278.29371,156.57956l-5.37291,-10.52905" data-paper-data="{&quot;index&quot;:null}" fill="none" stroke="url(#color-6)" stroke-width="4" stroke-linecap="round"/><path d="M272.81329,146.15687l11.24438,3.64596" data-paper-data="{&quot;index&quot;:null}" fill="none" stroke="url(#color-7)" stroke-width="4" stroke-linecap="round"/><path d="M283.39159,140.69411l-10.52906,5.37292" data-paper-data="{&quot;index&quot;:null}" fill="none" stroke="url(#color-8)" stroke-width="4" stroke-linecap="round"/><path d="M272.53075,146.4996l3.64594,-11.24439" data-paper-data="{&quot;index&quot;:null}" fill="none" stroke="url(#color-9)" stroke-width="4" stroke-linecap="round"/><path d="M267.06799,135.92129l5.37291,10.52905" data-paper-data="{&quot;index&quot;:null}" fill="none" stroke="url(#color-10)" stroke-width="4" stroke-linecap="round"/><path d="M272.54841,146.34398l-11.24438,-3.64595" data-paper-data="{&quot;index&quot;:null}" fill="none" stroke="url(#color-11)" stroke-width="4" stroke-linecap="round"/><path d="M272.49918,146.43383l-10.52907,5.37292" data-paper-data="{&quot;index&quot;:null}" fill="none" stroke="url(#color-12)" stroke-width="4" stroke-linecap="round"/><g fill="none"><path d="M249.47962,133.11351c0.58582,-1.69665 2.43613,-2.59717 4.13278,-2.01135c1.69665,0.58582 2.59716,2.43613 2.01135,4.13278c-0.58582,1.69665 -2.43611,2.59717 -4.13277,2.01135c-1.69665,-0.58582 -2.59718,-2.43613 -2.01136,-4.13278z" stroke="url(#color-13)" stroke-width="3" stroke-linecap="butt"/><path d="M244.29742,131.05131c1.59937,-4.63214 6.651,-7.09067 11.28313,-5.4913c4.63213,1.59937 7.09068,6.651 5.49131,11.28313c-1.59937,4.63214 -6.65101,7.09068 -11.28314,5.49131c-4.63214,-1.59937 -7.09068,-6.65101 -5.49131,-11.28314z" stroke="url(#color-14)" stroke-width="2" stroke-linecap="butt"/><path d="M252.61729,134.14229l2.9296,-8.48476" stroke="url(#color-15)" stroke-width="3" stroke-linecap="round"/><path d="M260.76545,130.2254l-8.07116,3.92809" stroke="url(#color-16)" stroke-width="3" stroke-linecap="round"/><path d="M252.67772,134.03985l8.48476,2.92959" stroke="url(#color-17)" stroke-width="3" stroke-linecap="round"/><path d="M252.66651,134.11685l3.92809,8.07117" stroke="url(#color-18)" stroke-width="3" stroke-linecap="round"/><path d="M252.66308,133.70289l-2.9296,8.48476" stroke="url(#color-19)" stroke-width="3" stroke-linecap="round"/><path d="M252.58608,133.69168l-8.07116,3.92809" stroke="url(#color-20)" stroke-width="3" stroke-linecap="round"/><path d="M244.11789,130.87572l8.48476,2.92959" stroke="url(#color-21)" stroke-width="3" stroke-linecap="round"/><path d="M252.61387,133.72833l-3.92809,-8.07117" stroke="url(#color-22)" stroke-width="3" stroke-linecap="round"/></g><g fill="none"><path d="M251.25739,158.72336c0.42081,-1.21875 1.74994,-1.86561 2.96869,-1.44481c1.21875,0.42081 1.8656,1.74994 1.44481,2.96869c-0.42081,1.21875 -1.74993,1.86561 -2.96868,1.44481c-1.21875,-0.42081 -1.86562,-1.74994 -1.44481,-2.96869z" stroke="url(#color-23)" stroke-width="2.5" stroke-linecap="butt"/><path d="M247.53488,157.24203c1.14887,-3.32738 4.77759,-5.09342 8.10497,-3.94455c3.32738,1.14887 5.09342,4.77759 3.94455,8.10497c-1.14887,3.32738 -4.77759,5.09342 -8.10497,3.94455c-3.32738,-1.14887 -5.09342,-4.77759 -3.94455,-8.10497z" stroke="url(#color-24)" stroke-width="1" stroke-linecap="butt"/><path d="M255.61567,153.36754l-2.10441,6.09482" stroke="url(#color-25)" stroke-width="2.5" stroke-linecap="round"/><path d="M253.56657,159.47041l5.79772,-2.82165" stroke="url(#color-26)" stroke-width="2.5" stroke-linecap="round"/><path d="M253.55467,159.38877l6.09483,2.1044" stroke="url(#color-27)" stroke-width="2.5" stroke-linecap="round"/><path d="M253.54661,159.44409l2.82165,5.79773" stroke="url(#color-28)" stroke-width="2.5" stroke-linecap="round"/><path d="M251.43974,165.24155l2.10441,-6.09482" stroke="url(#color-29)" stroke-width="2.5" stroke-linecap="round"/><path d="M253.48884,159.13868l-5.79773,2.82165" stroke="url(#color-30)" stroke-width="2.5" stroke-linecap="round"/><path d="M253.50074,159.22031l-6.09482,-2.1044" stroke="url(#color-31)" stroke-width="2.5" stroke-linecap="round"/><path d="M253.5088,159.165l-2.82165,-5.79773" stroke="url(#color-32)" stroke-width="2.5" stroke-linecap="round"/></g><g fill="none"><path d="M288.25739,129.72335c0.42081,-1.21875 1.74994,-1.86561 2.96869,-1.44481c1.21875,0.42081 1.8656,1.74994 1.4448,2.96869c-0.42081,1.21875 -1.74992,1.86561 -2.96868,1.44481c-1.21875,-0.42081 -1.86562,-1.74994 -1.44481,-2.96869z" stroke="url(#color-33)" stroke-width="2.5" stroke-linecap="butt"/><path d="M284.53488,128.24203c1.14887,-3.32738 4.77759,-5.09342 8.10497,-3.94455c3.32739,1.14887 5.09342,4.77759 3.94455,8.10497c-1.14887,3.32738 -4.77759,5.09342 -8.10497,3.94455c-3.32738,-1.14887 -5.09342,-4.77759 -3.94455,-8.10497z" stroke="url(#color-34)" stroke-width="1" stroke-linecap="butt"/><path d="M290.51126,130.46235l2.10441,-6.09482" stroke="url(#color-35)" stroke-width="2.5" stroke-linecap="round"/><path d="M290.56657,130.47041l5.79773,-2.82165" stroke="url(#color-36)" stroke-width="2.5" stroke-linecap="round"/><path d="M290.55467,130.38877l6.09483,2.1044" stroke="url(#color-37)" stroke-width="2.5" stroke-linecap="round"/><path d="M290.54661,130.44408l2.82165,5.79773" stroke="url(#color-38)" stroke-width="2.5" stroke-linecap="round"/><path d="M288.43974,136.24154l2.10441,-6.09482" stroke="url(#color-39)" stroke-width="2.5" stroke-linecap="round"/><path d="M284.69111,132.96032l5.79773,-2.82165" stroke="url(#color-40)" stroke-width="2.5" stroke-linecap="round"/><path d="M284.40592,128.1159l6.09482,2.1044" stroke="url(#color-41)" stroke-width="2.5" stroke-linecap="round"/><path d="M287.68715,124.36727l2.82165,5.79773" stroke="url(#color-42)" stroke-width="2.5" stroke-linecap="round"/></g><g fill="none"><path d="M289.13239,158.47335c0.42081,-1.21875 1.74993,-1.86561 2.96868,-1.44481c1.21875,0.42081 1.86561,1.74994 1.44481,2.96869c-0.42081,1.21875 -1.74993,1.86561 -2.96868,1.44481c-1.21875,-0.42081 -1.86562,-1.74994 -1.44481,-2.96869z" stroke="url(#color-43)" stroke-width="2.5" stroke-linecap="butt"/><path d="M285.40988,156.99203c1.14887,-3.32738 4.77759,-5.09342 8.10497,-3.94455c3.32738,1.14887 5.09342,4.77759 3.94455,8.10497c-1.14887,3.32738 -4.77759,5.09342 -8.10497,3.94455c-3.32738,-1.14887 -5.09342,-4.77759 -3.94455,-8.10497z" stroke="url(#color-44)" stroke-width="1" stroke-linecap="butt"/><path d="M291.38626,159.21235l2.1044,-6.09482" stroke="url(#color-45)" stroke-width="2.5" stroke-linecap="round"/><path d="M291.44157,159.22041l5.79773,-2.82165" stroke="url(#color-46)" stroke-width="2.5" stroke-linecap="round"/><path d="M291.42967,159.13877l6.09483,2.1044" stroke="url(#color-47)" stroke-width="2.5" stroke-linecap="round"/><path d="M291.42161,159.19408l2.82165,5.79773" stroke="url(#color-48)" stroke-width="2.5" stroke-linecap="round"/><path d="M291.41915,158.89672l-2.1044,6.09482" stroke="url(#color-49)" stroke-width="2.5" stroke-linecap="round"/><path d="M285.56612,161.71032l5.79772,-2.82165" stroke="url(#color-50)" stroke-width="2.5" stroke-linecap="round"/><path d="M291.37574,158.97028l-6.09482,-2.1044" stroke="url(#color-51)" stroke-width="2.5" stroke-linecap="round"/><path d="M291.3838,158.915l-2.82165,-5.79773" stroke="url(#color-52)" stroke-width="2.5" stroke-linecap="round"/></g><path d="M245.18841,147.41293c0.25168,-0.7289 1.04658,-1.11577 1.77549,-0.8641c0.7289,0.25168 1.11576,1.04658 0.86409,1.77549c-0.25168,0.7289 -1.04657,1.11577 -1.77548,0.8641c-0.7289,-0.25168 -1.11578,-1.04658 -0.8641,-1.77549z" fill="none" stroke="url(#color-53)" stroke-width="1.5" stroke-linecap="butt"/><path d="M242.96208,146.527c0.68711,-1.99001 2.85734,-3.04622 4.84735,-2.35912c1.99001,0.68711 3.04622,2.85734 2.35912,4.84735c-0.68711,1.99001 -2.85734,3.04622 -4.84735,2.35912c-1.99001,-0.68711 -3.04622,-2.85734 -2.35912,-4.84735z" fill="none" stroke="url(#color-54)" stroke-width="1" stroke-linecap="butt"/><path d="M246.53639,147.85491l1.25858,-3.64514" fill="none" stroke="url(#color-55)" stroke-width="1.5" stroke-linecap="round"/><path d="M250.03692,146.17217l-3.46745,1.68755" fill="none" stroke="url(#color-56)" stroke-width="1.5" stroke-linecap="round"/><path d="M250.20749,149.06947l-3.64514,-1.25858" fill="none" stroke="url(#color-57)" stroke-width="1.5" stroke-linecap="round"/><path d="M246.55753,147.84397l1.68755,3.46746" fill="none" stroke="url(#color-58)" stroke-width="1.5" stroke-linecap="round"/><path d="M246.55606,147.66614l-1.25859,3.64514" fill="none" stroke="url(#color-59)" stroke-width="1.5" stroke-linecap="round"/><path d="M246.52298,147.66132l-3.46746,1.68755" fill="none" stroke="url(#color-60)" stroke-width="1.5" stroke-linecap="round"/><path d="M242.88496,146.45156l3.64513,1.25858" fill="none" stroke="url(#color-61)" stroke-width="1.5" stroke-linecap="round"/><path d="M246.53492,147.67706l-1.68755,-3.46746" fill="none" stroke="url(#color-62)" stroke-width="1.5" stroke-linecap="round"/><path d="M263.91568,162.59474c0.25168,-0.7289 1.04658,-1.11578 1.77549,-0.8641c0.7289,0.25168 1.11576,1.04658 0.86409,1.77549c-0.25167,0.7289 -1.04657,1.11578 -1.77548,0.8641c-0.7289,-0.25168 -1.11578,-1.04658 -0.8641,-1.77549z" fill="none" stroke="url(#color-63)" stroke-width="1.5" stroke-linecap="butt"/><path d="M261.68935,161.70881c0.68711,-1.99001 2.85734,-3.04623 4.84735,-2.35912c1.99002,0.68711 3.04623,2.85734 2.35912,4.84735c-0.6871,1.99001 -2.85734,3.04622 -4.84735,2.35912c-1.99002,-0.68711 -3.04623,-2.85734 -2.35912,-4.84735z" fill="none" stroke="url(#color-64)" stroke-width="1" stroke-linecap="butt"/><path d="M266.52224,159.39159l-1.25858,3.64514" fill="none" stroke="url(#color-65)" stroke-width="1.5" stroke-linecap="round"/><path d="M265.29674,163.04153l3.46745,-1.68755" fill="none" stroke="url(#color-66)" stroke-width="1.5" stroke-linecap="round"/><path d="M268.93476,164.2513l-3.64514,-1.25858" fill="none" stroke="url(#color-67)" stroke-width="1.5" stroke-linecap="round"/><path d="M265.2848,163.02579l1.68755,3.46746" fill="none" stroke="url(#color-68)" stroke-width="1.5" stroke-linecap="round"/><path d="M264.02475,166.49308l1.25858,-3.64513" fill="none" stroke="url(#color-69)" stroke-width="1.5" stroke-linecap="round"/><path d="M261.78279,164.53068l3.46746,-1.68755" fill="none" stroke="url(#color-70)" stroke-width="1.5" stroke-linecap="round"/><path d="M261.61223,161.63338l3.64514,1.25858" fill="none" stroke="url(#color-71)" stroke-width="1.5" stroke-linecap="round"/><path d="M263.57464,159.39143l1.68755,3.46746" fill="none" stroke="url(#color-72)" stroke-width="1.5" stroke-linecap="round"/><path d="M289.37023,145.50384c0.25167,-0.7289 1.04658,-1.11577 1.77549,-0.8641c0.7289,0.25168 1.11577,1.04658 0.8641,1.77549c-0.25167,0.7289 -1.04658,1.11577 -1.77548,0.8641c-0.7289,-0.25168 -1.11577,-1.04658 -0.8641,-1.77549z" fill="none" stroke="url(#color-73)" stroke-width="1.5" stroke-linecap="butt"/><path d="M287.1439,144.6179c0.6871,-1.99001 2.85734,-3.04622 4.84735,-2.35912c1.99002,0.68711 3.04622,2.85734 2.35912,4.84735c-0.6871,1.99001 -2.85734,3.04622 -4.84735,2.35912c-1.99002,-0.68711 -3.04622,-2.85734 -2.35912,-4.84735z" fill="none" stroke="url(#color-74)" stroke-width="1" stroke-linecap="butt"/><path d="M291.97679,142.30067l-1.25858,3.64514" fill="none" stroke="url(#color-75)" stroke-width="1.5" stroke-linecap="round"/><path d="M294.21874,144.26308l-3.46745,1.68755" fill="none" stroke="url(#color-76)" stroke-width="1.5" stroke-linecap="round"/><path d="M290.74417,145.90182l3.64514,1.25858" fill="none" stroke="url(#color-77)" stroke-width="1.5" stroke-linecap="round"/><path d="M290.73935,145.93488l1.68755,3.46746" fill="none" stroke="url(#color-78)" stroke-width="1.5" stroke-linecap="round"/><path d="M290.73788,145.75704l-1.25858,3.64514" fill="none" stroke="url(#color-79)" stroke-width="1.5" stroke-linecap="round"/><path d="M290.7048,145.75224l-3.46745,1.68755" fill="none" stroke="url(#color-80)" stroke-width="1.5" stroke-linecap="round"/><path d="M287.06678,144.54247l3.64513,1.25858" fill="none" stroke="url(#color-81)" stroke-width="1.5" stroke-linecap="round"/><path d="M289.02919,142.3005l1.68755,3.46746" fill="none" stroke="url(#color-82)" stroke-width="1.5" stroke-linecap="round"/><path d="M271.55205,127.23112c0.25167,-0.7289 1.04658,-1.11578 1.77549,-0.8641c0.7289,0.25168 1.11577,1.04658 0.8641,1.77549c-0.25167,0.7289 -1.04658,1.11577 -1.77548,0.8641c-0.7289,-0.25168 -1.11577,-1.04658 -0.8641,-1.77549z" fill="none" stroke="url(#color-83)" stroke-width="1.5" stroke-linecap="butt"/><path d="M269.32572,126.34518c0.6871,-1.99001 2.85734,-3.04622 4.84735,-2.35912c1.99002,0.68711 3.04622,2.85734 2.35912,4.84735c-0.6871,1.99002 -2.85734,3.04622 -4.84735,2.35912c-1.99002,-0.68711 -3.04622,-2.85734 -2.35912,-4.84735z" fill="none" stroke="url(#color-84)" stroke-width="1" stroke-linecap="butt"/><path d="M272.90002,127.67309l1.25858,-3.64514" fill="none" stroke="url(#color-85)" stroke-width="1.5" stroke-linecap="round"/><path d="M272.9331,127.67791l3.46745,-1.68755" fill="none" stroke="url(#color-86)" stroke-width="1.5" stroke-linecap="round"/><path d="M272.92598,127.62909l3.64514,1.25858" fill="none" stroke="url(#color-87)" stroke-width="1.5" stroke-linecap="round"/><path d="M272.92116,127.66216l1.68755,3.46746" fill="none" stroke="url(#color-88)" stroke-width="1.5" stroke-linecap="round"/><path d="M271.66111,131.12946l1.25858,-3.64514" fill="none" stroke="url(#color-89)" stroke-width="1.5" stroke-linecap="round"/><path d="M272.88661,127.47951l-3.46745,1.68755" fill="none" stroke="url(#color-90)" stroke-width="1.5" stroke-linecap="round"/><path d="M272.89372,127.52833l-3.64513,-1.25858" fill="none" stroke="url(#color-91)" stroke-width="1.5" stroke-linecap="round"/><path d="M272.89855,127.49525l-1.68755,-3.46746" fill="none" stroke="url(#color-92)" stroke-width="1.5" stroke-linecap="round"/></g></g></svg>