<svg version="1.1" xmlns="http://www.w3.org/2000/svg" xmlns:xlink="http://www.w3.org/1999/xlink" width="62.36325" height="60.26072" viewBox="0,0,62.36325,60.26072"><defs><linearGradient x1="270.89485" y1="121.10215" x2="270.89485" y2="179.86286" gradientUnits="userSpaceOnUse" id="color-1"><stop offset="0" stop-color="#735656"/><stop offset="1" stop-color="#562828"/></linearGradient><linearGradient x1="270.892" y1="167.57146" x2="270.892" y2="180.14297" gradientUnits="userSpaceOnUse" id="color-2"><stop offset="0" stop-color="#a04848"/><stop offset="1" stop-color="#5b2929"/></linearGradient><linearGradient x1="245.11238" y1="115.98845" x2="245.11238" y2="155.15805" gradientUnits="userSpaceOnUse" id="color-3"><stop offset="0" stop-color="#ff0000"/><stop offset="1" stop-color="#ff0000" stop-opacity="0"/></linearGradient><linearGradient x1="250.86387" y1="109.87933" x2="250.86387" y2="149.04893" gradientUnits="userSpaceOnUse" id="color-4"><stop offset="0" stop-color="#ff0000"/><stop offset="1" stop-color="#ff0000" stop-opacity="0"/></linearGradient><linearGradient x1="256.61535" y1="114.82776" x2="256.61535" y2="153.99736" gradientUnits="userSpaceOnUse" id="color-5"><stop offset="0" stop-color="#ff0000"/><stop offset="1" stop-color="#ff0000" stop-opacity="0"/></linearGradient><linearGradient x1="262.36683" y1="108.387" x2="262.36683" y2="147.5566" gradientUnits="userSpaceOnUse" id="color-6"><stop offset="0" stop-color="#ff0000"/><stop offset="1" stop-color="#ff0000" stop-opacity="0"/></linearGradient><linearGradient x1="268.10857" y1="121.47659" x2="268.10857" y2="160.64619" gradientUnits="userSpaceOnUse" id="color-7"><stop offset="0" stop-color="#ff0000"/><stop offset="1" stop-color="#ff0000" stop-opacity="0"/></linearGradient><linearGradient x1="273.4634" y1="115.92343" x2="273.4634" y2="155.09303" gradientUnits="userSpaceOnUse" id="color-8"><stop offset="0" stop-color="#ff0000"/><stop offset="1" stop-color="#ff0000" stop-opacity="0"/></linearGradient><linearGradient x1="279.2344" y1="110.96524" x2="279.2344" y2="150.13486" gradientUnits="userSpaceOnUse" id="color-9"><stop offset="0" stop-color="#ff0000"/><stop offset="1" stop-color="#ff0000" stop-opacity="0"/></linearGradient><linearGradient x1="284.8916" y1="119.49332" x2="284.8916" y2="158.66293" gradientUnits="userSpaceOnUse" id="color-10"><stop offset="0" stop-color="#ff0000"/><stop offset="1" stop-color="#ff0000" stop-opacity="0"/></linearGradient><linearGradient x1="290.63334" y1="114.73347" x2="290.63334" y2="153.90308" gradientUnits="userSpaceOnUse" id="color-11"><stop offset="0" stop-color="#ff0000"/><stop offset="1" stop-color="#ff0000" stop-opacity="0"/></linearGradient><linearGradient x1="295.88412" y1="127.22807" x2="295.88412" y2="166.39768" gradientUnits="userSpaceOnUse" id="color-12"><stop offset="0" stop-color="#ff0000"/><stop offset="1" stop-color="#ff0000" stop-opacity="0"/></linearGradient><linearGradient x1="278.61341" y1="125.45614" x2="278.61341" y2="164.62575" gradientUnits="userSpaceOnUse" id="color-13"><stop offset="0" stop-color="#ff6f00"/><stop offset="1" stop-color="#ff6f00" stop-opacity="0"/></linearGradient><linearGradient x1="284.78105" y1="118.93085" x2="284.78105" y2="158.10044" gradientUnits="userSpaceOnUse" id="color-14"><stop offset="0" stop-color="#ff6f00"/><stop offset="1" stop-color="#ff6f00" stop-opacity="0"/></linearGradient><linearGradient x1="290.11638" y1="123.6712" x2="290.11638" y2="162.8408" gradientUnits="userSpaceOnUse" id="color-15"><stop offset="0" stop-color="#ff6f00"/><stop offset="1" stop-color="#ff6f00" stop-opacity="0"/></linearGradient><linearGradient x1="295.45171" y1="117.1264" x2="295.45171" y2="156.296" gradientUnits="userSpaceOnUse" id="color-16"><stop offset="0" stop-color="#ff6f00"/><stop offset="1" stop-color="#ff6f00" stop-opacity="0"/></linearGradient><linearGradient x1="245.5318" y1="126.47053" x2="245.5318" y2="165.64013" gradientUnits="userSpaceOnUse" id="color-17"><stop offset="0" stop-color="#ff6f00"/><stop offset="1" stop-color="#ff6f00" stop-opacity="0"/></linearGradient><linearGradient x1="250.99066" y1="120.91737" x2="250.99066" y2="160.08697" gradientUnits="userSpaceOnUse" id="color-18"><stop offset="0" stop-color="#ff6f00"/><stop offset="1" stop-color="#ff6f00" stop-opacity="0"/></linearGradient><linearGradient x1="256.65762" y1="115.95919" x2="256.65762" y2="155.1288" gradientUnits="userSpaceOnUse" id="color-19"><stop offset="0" stop-color="#ff6f00"/><stop offset="1" stop-color="#ff6f00" stop-opacity="0"/></linearGradient><linearGradient x1="262.31482" y1="124.48726" x2="262.31482" y2="163.65686" gradientUnits="userSpaceOnUse" id="color-20"><stop offset="0" stop-color="#ff6f00"/><stop offset="1" stop-color="#ff6f00" stop-opacity="0"/></linearGradient><linearGradient x1="268.05655" y1="119.72741" x2="268.05655" y2="158.89702" gradientUnits="userSpaceOnUse" id="color-21"><stop offset="0" stop-color="#ff6f00"/><stop offset="1" stop-color="#ff6f00" stop-opacity="0"/></linearGradient><linearGradient x1="273.2033" y1="132.22201" x2="273.2033" y2="171.39162" gradientUnits="userSpaceOnUse" id="color-22"><stop offset="0" stop-color="#ff6f00"/><stop offset="1" stop-color="#ff6f00" stop-opacity="0"/></linearGradient><linearGradient x1="289.43361" y1="141.62593" x2="289.43361" y2="162.04487" gradientUnits="userSpaceOnUse" id="color-23"><stop offset="0" stop-color="#ffdb5f"/><stop offset="1" stop-color="#ffdb5f" stop-opacity="0"/></linearGradient><linearGradient x1="294.97701" y1="137.90333" x2="294.97701" y2="158.32227" gradientUnits="userSpaceOnUse" id="color-24"><stop offset="0" stop-color="#ffdb5f"/><stop offset="1" stop-color="#ffdb5f" stop-opacity="0"/></linearGradient><linearGradient x1="245.27494" y1="141.02528" x2="245.27494" y2="161.44424" gradientUnits="userSpaceOnUse" id="color-25"><stop offset="0" stop-color="#ffdb5f"/><stop offset="1" stop-color="#ffdb5f" stop-opacity="0"/></linearGradient><linearGradient x1="250.61026" y1="137.71754" x2="250.61026" y2="158.13651" gradientUnits="userSpaceOnUse" id="color-26"><stop offset="0" stop-color="#ffdb5f"/><stop offset="1" stop-color="#ffdb5f" stop-opacity="0"/></linearGradient><linearGradient x1="256.35199" y1="144.54109" x2="256.35199" y2="164.96006" gradientUnits="userSpaceOnUse" id="color-27"><stop offset="0" stop-color="#ffdb5f"/><stop offset="1" stop-color="#ffdb5f" stop-opacity="0"/></linearGradient><linearGradient x1="261.81087" y1="141.7503" x2="261.81087" y2="162.16924" gradientUnits="userSpaceOnUse" id="color-28"><stop offset="0" stop-color="#ffdb5f"/><stop offset="1" stop-color="#ffdb5f" stop-opacity="0"/></linearGradient><linearGradient x1="267.47782" y1="139.06158" x2="267.47782" y2="159.48053" gradientUnits="userSpaceOnUse" id="color-29"><stop offset="0" stop-color="#ffdb5f"/><stop offset="1" stop-color="#ffdb5f" stop-opacity="0"/></linearGradient><linearGradient x1="270.63804" y1="144.9638" x2="270.63804" y2="165.38275" gradientUnits="userSpaceOnUse" id="color-30"><stop offset="0" stop-color="#ffdb5f"/><stop offset="1" stop-color="#ffdb5f" stop-opacity="0"/></linearGradient><linearGradient x1="278.87675" y1="141.02594" x2="278.87675" y2="161.44489" gradientUnits="userSpaceOnUse" id="color-31"><stop offset="0" stop-color="#ffdb5f"/><stop offset="1" stop-color="#ffdb5f" stop-opacity="0"/></linearGradient><linearGradient x1="284.12755" y1="147.53931" x2="284.12755" y2="167.95829" gradientUnits="userSpaceOnUse" id="color-32"><stop offset="0" stop-color="#ffdb5f"/><stop offset="1" stop-color="#ffdb5f" stop-opacity="0"/></linearGradient></defs><g transform="translate(-239.71327,-120.35214)"><g data-paper-data="{&quot;isPaintingLayer&quot;:true}" fill-rule="nonzero" stroke-linejoin="miter" stroke-miterlimit="10" stroke-dasharray="" stroke-dashoffset="0" style="mix-blend-mode: normal"><path d="M240.46327,179.86286v-58.76072h60.86325v58.76072z" fill="url(#color-1)" stroke="#733434" stroke-width="1.5" stroke-linecap="butt"/><path d="M239.96343,180.14297v-12.57143h61.85715v12.57143z" fill="url(#color-2)" stroke="none" stroke-width="0" stroke-linecap="butt"/><path d="M244.9043,129.97213c0,0 2.74871,6.74074 2.7763,10.08014c0.03823,4.62793 -2.56822,15.10577 -2.56822,15.10577" fill="none" stroke="url(#color-3)" stroke-width="3.5" stroke-linecap="round"/><path d="M250.86387,149.04893c0,0 -2.70505,-5.60022 -2.70505,-9.31162c0,-3.97254 2.70505,-13.79349 2.70505,-13.79349" fill="none" stroke="url(#color-4)" stroke-width="3.5" stroke-linecap="round"/><path d="M256.61535,130.89225c0,0 3.12121,6.99782 3.12121,10.50971c0,4.09876 -3.12121,12.5954 -3.12121,12.5954" fill="none" stroke="url(#color-5)" stroke-width="3.5" stroke-linecap="round"/><path d="M262.36683,147.5566c0,0 -2.49697,-3.24379 -2.49697,-6.5708c0,-4.17882 2.49697,-16.5343 2.49697,-16.5343" fill="none" stroke="url(#color-6)" stroke-width="3.5" stroke-linecap="round"/><path d="M268.10857,137.54109c0,0 3.22526,6.33714 3.22526,9.37502c0,4.24948 -3.22526,13.73009 -3.22526,13.73009" fill="none" stroke="url(#color-7)" stroke-width="3.5" stroke-linecap="round"/><path d="M273.4634,155.09303c0,0 -2.70505,-5.60815 -2.70505,-9.32137c0,-3.97114 2.70505,-13.78374 2.70505,-13.78374" fill="none" stroke="url(#color-8)" stroke-width="3.5" stroke-linecap="round"/><path d="M279.2344,127.02975c0,0 2.28889,7.98864 2.28889,11.87524c0,3.81373 -2.28889,11.22987 -2.28889,11.22987" fill="none" stroke="url(#color-9)" stroke-width="3.5" stroke-linecap="round"/><path d="M284.8916,135.55781v23.10512" fill="none" stroke="url(#color-10)" stroke-width="3.5" stroke-linecap="round"/><path d="M290.63334,130.79796c0,0 1.66465,3.82586 1.66465,6.85854c0,4.25022 -1.66465,16.24657 -1.66465,16.24657" fill="none" stroke="url(#color-11)" stroke-width="3.5" stroke-linecap="round"/><path d="M295.88412,143.29257c0,0 1.45657,5.49058 1.45657,8.92959c0,4.13404 -1.45657,14.17552 -1.45657,14.17552" fill="none" stroke="url(#color-12)" stroke-width="3.5" stroke-linecap="round"/><path d="M278.61341,164.62575v-23.10512" fill="none" stroke="url(#color-13)" stroke-width="3.5" stroke-linecap="round"/><path d="M284.78105,158.10044c0,0 -1.66465,-9.8014 -1.66465,-13.99344c0,-3.28779 1.66465,-9.11166 1.66465,-9.11166" fill="none" stroke="url(#color-14)" stroke-width="3.5" stroke-linecap="round"/><path d="M290.11638,162.8408c0,0 -1.56061,-11.58269 -1.56061,-15.82066c0,-2.49075 1.56061,-7.28446 1.56061,-7.28446" fill="none" stroke="url(#color-15)" stroke-width="3.5" stroke-linecap="round"/><path d="M295.45171,133.1909c0,0 2.91314,4.76124 2.91314,8.10703c0,4.17207 -2.91314,14.99808 -2.91314,14.99808" fill="none" stroke="url(#color-16)" stroke-width="3.5" stroke-linecap="round"/><path d="M245.5318,165.64013v-23.10511" fill="none" stroke="url(#color-17)" stroke-width="3.5" stroke-linecap="round"/><path d="M250.99066,136.98186v23.10511" fill="none" stroke="url(#color-18)" stroke-width="3.5" stroke-linecap="round"/><path d="M256.65762,155.1288c0,0 -2.28889,-8.98932 -2.28889,-13.20664c0,-3.19994 2.28889,-9.89847 2.28889,-9.89847" fill="none" stroke="url(#color-19)" stroke-width="3.5" stroke-linecap="round"/><path d="M262.31482,140.55176v23.10511" fill="none" stroke="url(#color-20)" stroke-width="3.5" stroke-linecap="round"/><path d="M268.05655,158.89702c0,0 -2.18485,-11.18303 -2.18485,-15.41424c0,-2.4547 2.18485,-7.69087 2.18485,-7.69087" fill="none" stroke="url(#color-21)" stroke-width="3.5" stroke-linecap="round"/><path d="M273.2033,148.2865l0.20808,16.75864" fill="none" stroke="url(#color-22)" stroke-width="3.5" stroke-linecap="round"/><path d="M289.43361,150.00027c0,0 2.70506,2.75442 2.70506,4.61482c0,2.12036 -2.70506,7.42978 -2.70506,7.42978" fill="none" stroke="url(#color-23)" stroke-width="3.5" stroke-linecap="round"/><path d="M294.97701,158.32227c0,0 -1.14445,-6.48229 -1.14445,-8.70113c0,-1.55516 1.14445,-3.34347 1.14445,-3.34347" fill="none" stroke="url(#color-24)" stroke-width="3.5" stroke-linecap="round"/><path d="M245.27494,161.44424c0,0 -1.76869,-3.2373 -1.76869,-5.37258c0,-1.8334 1.76869,-6.67202 1.76869,-6.67202" fill="none" stroke="url(#color-25)" stroke-width="3.5" stroke-linecap="round"/><path d="M250.61026,146.09192c0,0 2.18484,4.54726 2.18484,6.7545c0,1.62976 -2.18484,5.29009 -2.18484,5.29009" fill="none" stroke="url(#color-26)" stroke-width="3.5" stroke-linecap="round"/><path d="M256.35199,164.96006c0,0 -2.08081,-4.31146 -2.08081,-6.39142c0,-1.92249 2.08081,-5.65318 2.08081,-5.65318" fill="none" stroke="url(#color-27)" stroke-width="3.5" stroke-linecap="round"/><path d="M261.81087,150.12464c0,0 1.87273,5.79673 1.87273,7.7157c0,2.0825 -1.87273,4.3289 -1.87273,4.3289" fill="none" stroke="url(#color-28)" stroke-width="3.5" stroke-linecap="round"/><path d="M267.47782,147.43594c0,0 3.32929,2.98317 3.32929,5.09834c0,1.86921 -3.32929,6.94625 -3.32929,6.94625" fill="none" stroke="url(#color-29)" stroke-width="3.5" stroke-linecap="round"/><path d="M270.63804,165.38275c0,0 -1.0404,-2.47591 -1.0404,-4.42119c0,-2.0627 1.0404,-7.62342 1.0404,-7.62342" fill="none" stroke="url(#color-30)" stroke-width="3.5" stroke-linecap="round"/><path d="M278.87675,149.40029c0,0 2.91314,3.4656 2.91314,5.42289c0,2.05301 -2.91314,6.62172 -2.91314,6.62172" fill="none" stroke="url(#color-31)" stroke-width="3.5" stroke-linecap="round"/><path d="M284.12755,167.95829c0,0 -2.28889,-4.69701 -2.28889,-6.78864c0,-1.90595 2.28889,-5.25597 2.28889,-5.25597" fill="none" stroke="url(#color-32)" stroke-width="3.5" stroke-linecap="round"/></g></g></svg>