<svg width="480px" height="360px" xmlns="http://www.w3.org/2000/svg"><path fill="#F00" d="M252.438 175.213L252.438 175.213Q252.438 176.364 251.991 177.252Q251.544 178.139 250.718 178.751Q249.891 179.363 248.722 179.682Q247.553 180 246.121 180L246.121 180L241.934 180L241.934 164L246.513 164Q251.862 164 251.862 167.893L251.862 167.893Q251.862 169.191 251.244 170.121Q250.626 171.051 249.230 171.504L249.230 171.504Q249.879 171.627 250.461 171.920Q251.042 172.214 251.483 172.679Q251.923 173.145 252.181 173.781Q252.438 174.418 252.438 175.213ZM249.598 168.187L249.598 168.187Q249.598 167.697 249.451 167.262Q249.304 166.828 248.936 166.516Q248.569 166.204 247.945 166.020Q247.321 165.836 246.366 165.836L246.366 165.836L244.113 165.836L244.113 170.843L246.292 170.843Q247.039 170.843 247.645 170.684Q248.251 170.525 248.686 170.194Q249.120 169.864 249.359 169.368Q249.598 168.872 249.598 168.187ZM250.124 175.287L250.124 175.287Q250.124 174.675 249.867 174.185Q249.610 173.695 249.120 173.359Q248.630 173.022 247.927 172.839Q247.223 172.655 246.341 172.655L246.341 172.655L244.113 172.655L244.113 178.164L246.415 178.164Q248.288 178.164 249.206 177.466Q250.124 176.768 250.124 175.287Z"/></svg>