<svg version="1.1" xmlns="http://www.w3.org/2000/svg" xmlns:xlink="http://www.w3.org/1999/xlink" width="55.125" height="55.125" viewBox="0,0,55.125,55.125"><defs><linearGradient x1="240" y1="153.1875" x2="240" y2="206.8125" gradientUnits="userSpaceOnUse" id="color-1"><stop offset="0" stop-color="#360202"/><stop offset="1" stop-color="#000000" stop-opacity="0.60925"/></linearGradient><linearGradient x1="240" y1="153.1875" x2="240" y2="206.8125" gradientUnits="userSpaceOnUse" id="color-2"><stop offset="0" stop-color="#ff0000"/><stop offset="1" stop-color="#ff0000" stop-opacity="0"/></linearGradient><radialGradient cx="229.24658" cy="180.4235" r="17.3" gradientUnits="userSpaceOnUse" id="color-3"><stop offset="0" stop-color="#ff0000"/><stop offset="1" stop-color="#ff0000" stop-opacity="0.51613"/></radialGradient><radialGradient cx="250.57825" cy="179.98246" r="17.3" gradientUnits="userSpaceOnUse" id="color-4"><stop offset="0" stop-color="#ff0000"/><stop offset="1" stop-color="#ff0000" stop-opacity="0.51613"/></radialGradient><linearGradient x1="234.96561" y1="178.98372" x2="247.66561" y2="178.98372" gradientUnits="userSpaceOnUse" id="color-5"><stop offset="0" stop-color="#f3cc7b"/><stop offset="1" stop-color="#ead777"/></linearGradient><linearGradient x1="234.96561" y1="178.98372" x2="247.66561" y2="178.98372" gradientUnits="userSpaceOnUse" id="color-6"><stop offset="0" stop-color="#bfa161"/><stop offset="1" stop-color="#d2c16b"/></linearGradient><linearGradient x1="240.95049" y1="184.95237" x2="238.12518" y2="172.57063" gradientUnits="userSpaceOnUse" id="color-7"><stop offset="0" stop-color="#f3cc7b"/><stop offset="1" stop-color="#ead777"/></linearGradient><linearGradient x1="240.95049" y1="184.95237" x2="238.12518" y2="172.57063" gradientUnits="userSpaceOnUse" id="color-8"><stop offset="0" stop-color="#bfa161"/><stop offset="1" stop-color="#d2c16b"/></linearGradient></defs><g transform="translate(-212.4375,-152.4375)"><g data-paper-data="{&quot;isPaintingLayer&quot;:true}" fill-rule="nonzero" stroke-linejoin="miter" stroke-miterlimit="10" stroke-dasharray="" stroke-dashoffset="0" style="mix-blend-mode: normal"><path d="M213.1875,206.8125v-53.625h53.625v53.625z" fill="url(#color-1)" stroke="url(#color-2)" stroke-width="1.5" stroke-linecap="butt"/><path d="M238.52559,168.62858c0,0 0.28159,2.57096 -0.11202,5.07538c-0.2026,1.28913 -2.2493,2.97498 -1.12176,3.41664c0.85143,0.33351 2.63932,4.20584 2.78999,7.32914c0.05553,1.15115 -1.66329,1.09907 -1.51366,2.30598c0.64112,5.17135 2.19113,10.18558 2.19113,10.18558c0,0 -13.4296,-8.57448 -17.0928,-12.48218c-3.78808,-4.04092 -5.2736,-11.37707 -5.2736,-11.37707c0,0 0.25807,-4.24598 1.3342,-5.75732c1.21431,-1.70541 5.58732,-3.96342 5.58732,-3.96342c0,0 4.96757,-0.13886 7.14792,0.73044c2.22258,0.88614 6.06329,4.53682 6.06329,4.53682z" fill="url(#color-3)" stroke="none" stroke-width="0" stroke-linecap="round"/><path d="M246.17712,163.92953c2.11096,-1.02638 7.07539,-1.25107 7.07539,-1.25107c0,0 4.52639,1.93225 5.86214,3.54431c1.18374,1.42861 1.75155,5.64436 1.75155,5.64436c0,0 -0.94519,7.42513 -4.4277,11.73218c-3.3677,4.16506 -16.13447,13.69845 -16.13447,13.69845c0,0 -0.73642,-5.33716 -0.88457,-10.8609c-0.01316,-0.4908 1.06435,-0.99059 1.03288,-1.49037c-0.22586,-3.58726 -0.51383,-6.95893 -1.53688,-8.59745c0.01846,-3.32416 1.5463,-7.45155 1.5463,-7.45155c0,0 3.56353,-3.92171 5.71537,-4.96797z" data-paper-data="{&quot;index&quot;:null}" fill="url(#color-4)" stroke="none" stroke-width="0" stroke-linecap="round"/><path d="M234.96561,185.33372l12.7,-12.7" fill="none" stroke="url(#color-5)" stroke-width="8" stroke-linecap="round"/><path d="M234.96561,185.33372l12.7,-12.7" fill="none" stroke="url(#color-6)" stroke-width="5" stroke-linecap="round"/><path d="M247.14136,183.53971l-15.20706,-9.55643" fill="none" stroke="url(#color-7)" stroke-width="8" stroke-linecap="round"/><path d="M247.14136,183.53971l-15.20706,-9.55643" fill="none" stroke="url(#color-8)" stroke-width="5" stroke-linecap="round"/></g></g></svg>