<svg width="480px" height="360px" xmlns="http://www.w3.org/2000/svg"><path fill="#F00" d="M252.682 180L250.724 180L250.724 171.174Q250.724 170.598 250.681 170.231Q250.638 169.864 250.546 169.650Q250.454 169.435 250.314 169.350Q250.173 169.264 249.965 169.264L249.965 169.264Q249.720 169.264 249.512 169.411Q249.304 169.558 249.065 169.888Q248.826 170.219 248.539 170.764Q248.251 171.308 247.859 172.104L247.859 172.104L247.859 180L245.913 180L245.913 171.406Q245.913 170.733 245.870 170.317Q245.827 169.901 245.735 169.668Q245.643 169.435 245.497 169.350Q245.350 169.264 245.142 169.264L245.142 169.264Q244.921 169.264 244.725 169.386Q244.529 169.509 244.291 169.827Q244.052 170.145 243.758 170.696Q243.464 171.247 243.060 172.104L243.060 172.104L243.060 180L241.102 180L241.102 167.709L242.730 167.709L242.828 170.047Q243.146 169.350 243.446 168.860Q243.746 168.370 244.064 168.070Q244.383 167.770 244.744 167.630Q245.105 167.489 245.546 167.489L245.546 167.489Q246.537 167.489 247.051 168.138Q247.565 168.787 247.565 170.145L247.565 170.145Q247.859 169.509 248.141 169.013Q248.422 168.517 248.747 168.181Q249.071 167.844 249.463 167.666Q249.855 167.489 250.369 167.489L250.369 167.489Q252.682 167.489 252.682 171.051L252.682 171.051L252.682 180Z"/></svg>