<svg version="1.1" xmlns="http://www.w3.org/2000/svg" xmlns:xlink="http://www.w3.org/1999/xlink" width="62.36325" height="60.26072" viewBox="0,0,62.36325,60.26072"><defs><linearGradient x1="270.81796" y1="121.56365" x2="270.81796" y2="180.32437" gradientUnits="userSpaceOnUse" id="color-1"><stop offset="0" stop-color="#005761"/><stop offset="1" stop-color="#223f47"/></linearGradient><linearGradient x1="271.09" y1="134.04258" x2="271.09" y2="169.81788" gradientUnits="userSpaceOnUse" id="color-2"><stop offset="0" stop-color="#0b1228"/><stop offset="1" stop-color="#0b1228" stop-opacity="0"/></linearGradient><linearGradient x1="270.89203" y1="167.57145" x2="270.89203" y2="180.14295" gradientUnits="userSpaceOnUse" id="color-3"><stop offset="0" stop-color="#20a3ab"/><stop offset="1" stop-color="#15696d"/></linearGradient><linearGradient x1="271.71943" y1="138.66787" x2="271.71943" y2="151.875" gradientUnits="userSpaceOnUse" id="color-4"><stop offset="0" stop-color="#ffffff" stop-opacity="0"/><stop offset="1" stop-color="#ffffff"/></linearGradient><linearGradient x1="271.32185" y1="137.34247" x2="271.32185" y2="154.375" gradientUnits="userSpaceOnUse" id="color-5"><stop offset="0" stop-color="#ffffff" stop-opacity="0"/><stop offset="1" stop-color="#ffffff"/></linearGradient><linearGradient x1="270.3695" y1="146.01751" x2="270.3695" y2="148.43316" gradientUnits="userSpaceOnUse" id="color-6"><stop offset="0" stop-color="#006f88"/><stop offset="1" stop-color="#06afd5"/></linearGradient><radialGradient cx="270.35884" cy="142.60044" r="4.48051" gradientUnits="userSpaceOnUse" id="color-7"><stop offset="0" stop-color="#9ee7ff"/><stop offset="1" stop-color="#34fff5"/></radialGradient></defs><g transform="translate(-239.63637,-120.81365)"><g data-paper-data="{&quot;isPaintingLayer&quot;:true}" fill-rule="nonzero" stroke-linejoin="miter" stroke-miterlimit="10" stroke-dasharray="" stroke-dashoffset="0" style="mix-blend-mode: normal"><path d="M240.38638,180.32437v-58.76072h60.86325v58.76072z" fill="url(#color-1)" stroke="#166f73" stroke-width="1.5" stroke-linecap="butt"/><path d="M241.403,133.84637h59.38095" fill="none" stroke="#87eaff" stroke-width="0.5" stroke-linecap="round"/><path d="M241.20633,169.81788v-35.77529h59.76739v35.77529z" data-paper-data="{&quot;index&quot;:null}" fill="url(#color-2)" stroke="none" stroke-width="0" stroke-linecap="butt"/><path d="M300.73631,167.24835h-59.42857" fill="none" stroke="#87eaff" stroke-width="0.5" stroke-linecap="round"/><path d="M239.96346,180.14295v-12.57143h61.85715v12.57143z" fill="url(#color-3)" stroke="none" stroke-width="0" stroke-linecap="butt"/><path d="M293.21943,145.27145c0,3.64705 -9.62588,6.60357 -21.5,6.60357c-11.87412,0 -21.5,-2.95652 -21.5,-6.60357c0,-1.80939 10.58401,-5.5961 21.25005,-5.61012c10.83267,-0.01424 21.74995,3.77246 21.74995,5.61012z" fill="none" stroke="url(#color-4)" stroke-width="1" stroke-linecap="butt"/><path d="M299.04922,145.85875c0,4.70341 -12.41399,8.51627 -27.7274,8.51627c-15.31342,0 -27.72739,-3.81286 -27.72739,-8.51627c0,-2.40199 14.34273,-7.0642 28.49643,-7.01284c13.56103,0.04921 26.95836,4.71143 26.95836,7.01284z" fill="none" stroke="url(#color-5)" stroke-width="0.5" stroke-linecap="butt"/><g stroke="none" stroke-width="0"><path d="M272.56552,146.10902l1.88493,1.88492c0,0 -1.58863,0.93094 -3.98684,0.81306c-2.29266,0.12234 -4.17507,-0.81306 -4.17507,-0.81306l2.01303,-1.97643z" fill="url(#color-6)" stroke-linecap="round"/><path d="M265.87834,142.60044c0,-2.47452 2.006,-4.48051 4.48052,-4.48051c2.47452,0 4.48051,2.00599 4.48051,4.48051c0,2.47452 -2.00599,4.48052 -4.48051,4.48052c-2.47452,0 -4.48052,-2.006 -4.48052,-4.48052z" fill="url(#color-7)" stroke-linecap="butt"/><path d="M272.15889,143.72341c0,0 -0.27134,-0.54602 -0.24189,-0.78584c0.03002,-0.24446 0.42034,-0.66726 0.42034,-0.66726l8.06473,0.9904c0,0 0.23837,0.55309 0.20971,0.78638c-0.03069,0.24992 -0.38817,0.66672 -0.38817,0.66672z" fill="#00b2da" stroke-linecap="butt"/></g></g></g></svg>