<svg version="1.1" xmlns="http://www.w3.org/2000/svg" xmlns:xlink="http://www.w3.org/1999/xlink" width="62.44658" height="60.26072" viewBox="0,0,62.44658,60.26072"><defs><linearGradient x1="271.06156" y1="121.10232" x2="271.06156" y2="179.86302" gradientUnits="userSpaceOnUse" id="color-1"><stop offset="0" stop-color="#81704a"/><stop offset="1" stop-color="#54472c"/></linearGradient><radialGradient cx="271.20876" cy="141.52678" r="26.5" gradientUnits="userSpaceOnUse" id="color-2"><stop offset="0" stop-color="#885837"/><stop offset="1" stop-color="#825b36"/></radialGradient><radialGradient cx="271.20876" cy="141.52678" r="26.5" gradientUnits="userSpaceOnUse" id="color-3"><stop offset="0" stop-color="#ff9c3d"/><stop offset="1" stop-color="#ff9c3d" stop-opacity="0"/></radialGradient><linearGradient x1="270.89207" y1="167.57145" x2="270.89207" y2="180.14315" gradientUnits="userSpaceOnUse" id="color-4"><stop offset="0" stop-color="#8d7134"/><stop offset="1" stop-color="#5b4d28"/></linearGradient><linearGradient x1="253.88903" y1="142.07638" x2="253.3483" y2="143.26052" gradientUnits="userSpaceOnUse" id="color-5"><stop offset="0" stop-color="#fff9af"/><stop offset="1" stop-color="#f9ff4d"/></linearGradient><linearGradient x1="258.59907" y1="144.35987" x2="259.1398" y2="143.17574" gradientUnits="userSpaceOnUse" id="color-6"><stop offset="0" stop-color="#fff9af"/><stop offset="1" stop-color="#f9ff4d"/></linearGradient><linearGradient x1="264.76973" y1="143.40452" x2="264.229" y2="144.58865" gradientUnits="userSpaceOnUse" id="color-7"><stop offset="0" stop-color="#fff9af"/><stop offset="1" stop-color="#f9ff4d"/></linearGradient><linearGradient x1="269.47977" y1="145.68802" x2="270.0205" y2="144.50388" gradientUnits="userSpaceOnUse" id="color-8"><stop offset="0" stop-color="#fff9af"/><stop offset="1" stop-color="#f9ff4d"/></linearGradient><linearGradient x1="275.64968" y1="144.8998" x2="275.10895" y2="146.08393" gradientUnits="userSpaceOnUse" id="color-9"><stop offset="0" stop-color="#fff9af"/><stop offset="1" stop-color="#f9ff4d"/></linearGradient><linearGradient x1="280.35971" y1="147.18329" x2="280.90045" y2="145.99916" gradientUnits="userSpaceOnUse" id="color-10"><stop offset="0" stop-color="#fff9af"/><stop offset="1" stop-color="#f9ff4d"/></linearGradient><linearGradient x1="286.53038" y1="146.22793" x2="285.98965" y2="147.41207" gradientUnits="userSpaceOnUse" id="color-11"><stop offset="0" stop-color="#fff9af"/><stop offset="1" stop-color="#f9ff4d"/></linearGradient><linearGradient x1="256.8105" y1="135.34777" x2="257.35123" y2="134.16363" gradientUnits="userSpaceOnUse" id="color-12"><stop offset="0" stop-color="#fff9af"/><stop offset="1" stop-color="#f9ff4d"/></linearGradient><linearGradient x1="262.96247" y1="134.4736" x2="262.42173" y2="135.65774" gradientUnits="userSpaceOnUse" id="color-13"><stop offset="0" stop-color="#fff9af"/><stop offset="1" stop-color="#f9ff4d"/></linearGradient><linearGradient x1="267.6191" y1="136.83378" x2="268.15983" y2="135.64965" gradientUnits="userSpaceOnUse" id="color-14"><stop offset="0" stop-color="#fff9af"/><stop offset="1" stop-color="#f9ff4d"/></linearGradient><linearGradient x1="273.77106" y1="135.95962" x2="273.23033" y2="137.14376" gradientUnits="userSpaceOnUse" id="color-15"><stop offset="0" stop-color="#fff9af"/><stop offset="1" stop-color="#f9ff4d"/></linearGradient><linearGradient x1="278.57115" y1="138.17118" x2="279.11188" y2="136.98705" gradientUnits="userSpaceOnUse" id="color-16"><stop offset="0" stop-color="#fff9af"/><stop offset="1" stop-color="#f9ff4d"/></linearGradient><linearGradient x1="284.72311" y1="137.29702" x2="284.18238" y2="138.48115" gradientUnits="userSpaceOnUse" id="color-17"><stop offset="0" stop-color="#fff9af"/><stop offset="1" stop-color="#f9ff4d"/></linearGradient><linearGradient x1="289.37975" y1="139.6572" x2="289.92048" y2="138.47307" gradientUnits="userSpaceOnUse" id="color-18"><stop offset="0" stop-color="#fff9af"/><stop offset="1" stop-color="#f9ff4d"/></linearGradient><radialGradient cx="263.00877" cy="162.72679" r="26.5" gradientUnits="userSpaceOnUse" id="color-19"><stop offset="0" stop-color="#4c301e"/><stop offset="1" stop-color="#5b4026"/></radialGradient><radialGradient cx="263.00877" cy="162.72679" r="26.5" gradientUnits="userSpaceOnUse" id="color-20"><stop offset="0" stop-color="#a96628"/><stop offset="1" stop-color="#a96628" stop-opacity="0"/></radialGradient><radialGradient cx="314.70876" cy="149.32679" r="26.5" gradientUnits="userSpaceOnUse" id="color-21"><stop offset="0" stop-color="#452c1c"/><stop offset="1" stop-color="#48331e"/></radialGradient><radialGradient cx="314.70876" cy="149.32679" r="26.5" gradientUnits="userSpaceOnUse" id="color-22"><stop offset="0" stop-color="#845020"/><stop offset="1" stop-color="#845020" stop-opacity="0"/></radialGradient><radialGradient cx="251.75877" cy="152.54629" r="4.25" gradientUnits="userSpaceOnUse" id="color-23"><stop offset="0" stop-color="#f2c294"/><stop offset="1" stop-color="#f2c294" stop-opacity="0"/></radialGradient><radialGradient cx="261.85877" cy="154.34629" r="4.25" gradientUnits="userSpaceOnUse" id="color-24"><stop offset="0" stop-color="#f2c294"/><stop offset="1" stop-color="#f2c294" stop-opacity="0"/></radialGradient><radialGradient cx="282.45877" cy="157.64629" r="4.25" gradientUnits="userSpaceOnUse" id="color-25"><stop offset="0" stop-color="#f2c294"/><stop offset="1" stop-color="#f2c294" stop-opacity="0"/></radialGradient><radialGradient cx="271.95877" cy="155.94629" r="4.25" gradientUnits="userSpaceOnUse" id="color-26"><stop offset="0" stop-color="#f2c294"/><stop offset="1" stop-color="#f2c294" stop-opacity="0"/></radialGradient></defs><g transform="translate(-239.79678,-120.35229)"><g data-paper-data="{&quot;isPaintingLayer&quot;:true}" fill-rule="nonzero" stroke-linejoin="miter" stroke-miterlimit="10" stroke-dasharray="" stroke-dashoffset="0" style="mix-blend-mode: normal"><path d="M240.54679,179.86302v-58.76072h60.94658v58.76072z" fill="url(#color-1)" stroke="#543f10" stroke-width="1.5" stroke-linecap="butt"/><path d="M253.6154,126.95729l44.09336,7.03734l-8.35684,22.10166l-44.64316,-8.35685z" fill="url(#color-2)" stroke="url(#color-3)" stroke-width="1.5" stroke-linecap="round"/><path d="M239.96362,180.14315v-12.57143c0,0 9.2599,0 15.94982,0c11.34971,0 45.90733,0 45.90733,0v12.57143z" fill="url(#color-4)" stroke="none" stroke-width="0" stroke-linecap="butt"/><path d="M250.90751,142.31668c0,0 1.7929,-3.43907 4.36865,-3.11243c2.94427,0.37338 1.05367,3.81597 1.05367,3.81597" fill="none" stroke="url(#color-5)" stroke-width="1.5" stroke-linecap="round"/><path d="M261.5806,144.11958c0,0 -1.79291,3.43907 -4.36866,3.11243c-2.94428,-0.37338 -1.05367,-3.81597 -1.05367,-3.81597" fill="none" stroke="url(#color-6)" stroke-width="1.5" stroke-linecap="round"/><path d="M261.78821,143.64482c0,0 1.7929,-3.43907 4.36865,-3.11243c2.94428,0.37338 1.05367,3.81597 1.05367,3.81597" fill="none" stroke="url(#color-7)" stroke-width="1.5" stroke-linecap="round"/><path d="M272.46129,145.44771c0,0 -1.7929,3.43907 -4.36865,3.11243c-2.94428,-0.37338 -1.05367,-3.81597 -1.05367,-3.81597" fill="none" stroke="url(#color-8)" stroke-width="1.5" stroke-linecap="round"/><path d="M272.66816,145.1401c0,0 1.7929,-3.43907 4.36865,-3.11243c2.94428,0.37338 1.05367,3.81597 1.05367,3.81597" fill="none" stroke="url(#color-9)" stroke-width="1.5" stroke-linecap="round"/><path d="M283.34124,146.94299c0,0 -1.7929,3.43907 -4.36865,3.11243c-2.94428,-0.37338 -1.05367,-3.81597 -1.05367,-3.81597" fill="none" stroke="url(#color-10)" stroke-width="1.5" stroke-linecap="round"/><path d="M283.54886,146.46823c0,0 1.7929,-3.43907 4.36865,-3.11243c2.94428,0.37338 1.05367,3.81597 1.05367,3.81597" fill="none" stroke="url(#color-11)" stroke-width="1.5" stroke-linecap="round"/><path d="M259.79202,135.10747c0,0 -1.28913,3.52063 -4.22596,3.13094c-2.56923,-0.34091 -1.19636,-3.83448 -1.19636,-3.83448" data-paper-data="{&quot;index&quot;:null}" fill="none" stroke="url(#color-12)" stroke-width="1.5" stroke-linecap="round"/><path d="M259.98094,134.7139c0,0 1.28914,-3.52063 4.22596,-3.13094c2.56923,0.34091 1.19636,3.83449 1.19636,3.83449" data-paper-data="{&quot;index&quot;:null}" fill="none" stroke="url(#color-13)" stroke-width="1.5" stroke-linecap="round"/><path d="M270.60063,136.59349c0,0 -1.28914,3.52063 -4.22596,3.13094c-2.56923,-0.34091 -1.19636,-3.83449 -1.19636,-3.83449" data-paper-data="{&quot;index&quot;:null}" fill="none" stroke="url(#color-14)" stroke-width="1.5" stroke-linecap="round"/><path d="M270.78954,136.19992c0,0 1.28914,-3.52063 4.22596,-3.13094c2.56923,0.34091 1.19636,3.83449 1.19636,3.83449" data-paper-data="{&quot;index&quot;:null}" fill="none" stroke="url(#color-15)" stroke-width="1.5" stroke-linecap="round"/><path d="M281.55267,137.93088c0,0 -1.28913,3.52063 -4.22596,3.13094c-2.56923,-0.34091 -1.19636,-3.83448 -1.19636,-3.83448" data-paper-data="{&quot;index&quot;:null}" fill="none" stroke="url(#color-16)" stroke-width="1.5" stroke-linecap="round"/><path d="M281.74158,137.53732c0,0 1.28914,-3.52063 4.22596,-3.13094c2.56923,0.34091 1.19636,3.83449 1.19636,3.83449" data-paper-data="{&quot;index&quot;:null}" fill="none" stroke="url(#color-17)" stroke-width="1.5" stroke-linecap="round"/><path d="M292.36127,139.4169c0,0 -1.28914,3.52063 -4.22596,3.13094c-2.56923,-0.34091 -1.19636,-3.83449 -1.19636,-3.83449" data-paper-data="{&quot;index&quot;:null}" fill="none" stroke="url(#color-18)" stroke-width="1.5" stroke-linecap="round"/><path d="M245.41541,148.15729l44.09336,7.03734l-0.95684,6.90166l-43.44315,-6.95685z" fill="url(#color-19)" stroke="url(#color-20)" stroke-width="1.5" stroke-linecap="round"/><path d="M297.01541,137.25729l-0.10664,3.23735l-8.55685,21.80166l1.05684,-7.15685z" fill="url(#color-21)" stroke="url(#color-22)" stroke-width="1.5" stroke-linecap="round"/><path d="M247.50877,151.79629l8.5,1.5" fill="none" stroke="url(#color-23)" stroke-width="1.5" stroke-linecap="round"/><path d="M257.60876,153.59629l8.5,1.5" fill="none" stroke="url(#color-24)" stroke-width="1.5" stroke-linecap="round"/><path d="M278.20877,156.89629l8.5,1.5" fill="none" stroke="url(#color-25)" stroke-width="1.5" stroke-linecap="round"/><path d="M267.70877,155.19629l8.5,1.5" fill="none" stroke="url(#color-26)" stroke-width="1.5" stroke-linecap="round"/></g></g></svg>