<svg version="1.1" xmlns="http://www.w3.org/2000/svg" xmlns:xlink="http://www.w3.org/1999/xlink" width="62.44658" height="60.26072" viewBox="0,0,62.44658,60.26072"><defs><linearGradient x1="271.12823" y1="121.18567" x2="271.12823" y2="179.94638" gradientUnits="userSpaceOnUse" id="color-1"><stop offset="0" stop-color="#545f96"/><stop offset="1" stop-color="#2a3569"/></linearGradient><linearGradient x1="270.89207" y1="167.57145" x2="270.89207" y2="180.14318" gradientUnits="userSpaceOnUse" id="color-2"><stop offset="0" stop-color="#5a76ff"/><stop offset="1" stop-color="#2843c8"/></linearGradient><radialGradient cx="282.17933" cy="144.11999" r="19.77774" gradientUnits="userSpaceOnUse" id="color-3"><stop offset="0" stop-color="#6490ef"/><stop offset="1" stop-color="#6490ef" stop-opacity="0"/></radialGradient><radialGradient cx="262.32985" cy="146.83927" r="17.25898" gradientUnits="userSpaceOnUse" id="color-4"><stop offset="0" stop-color="#6490ef"/><stop offset="1" stop-color="#6490ef" stop-opacity="0"/></radialGradient><radialGradient cx="268.97581" cy="127.86163" r="20.63835" gradientUnits="userSpaceOnUse" id="color-5"><stop offset="0" stop-color="#6490ef"/><stop offset="1" stop-color="#6490ef" stop-opacity="0"/></radialGradient><radialGradient cx="275.13796" cy="162.99657" r="2.88753" gradientUnits="userSpaceOnUse" id="color-6"><stop offset="0" stop-color="#58e6ff"/><stop offset="1" stop-color="#59ccff"/></radialGradient><radialGradient cx="248.48379" cy="130.30078" r="2.88754" gradientUnits="userSpaceOnUse" id="color-7"><stop offset="0" stop-color="#58e6ff"/><stop offset="1" stop-color="#59ccff"/></radialGradient><radialGradient cx="272.675" cy="129.05675" r="9.8" gradientUnits="userSpaceOnUse" id="color-8"><stop offset="0" stop-color="#fffdb3"/><stop offset="1" stop-color="#fffdb3" stop-opacity="0"/></radialGradient><radialGradient cx="276.38182" cy="132.52196" r="2.88754" gradientUnits="userSpaceOnUse" id="color-9"><stop offset="0" stop-color="#58e6ff"/><stop offset="1" stop-color="#59ccff"/></radialGradient><radialGradient cx="288.59832" cy="124.83668" r="2.04349" gradientUnits="userSpaceOnUse" id="color-10"><stop offset="0" stop-color="#58e6ff"/><stop offset="1" stop-color="#59ccff"/></radialGradient><radialGradient cx="283.3119" cy="142.65055" r="2.88754" gradientUnits="userSpaceOnUse" id="color-11"><stop offset="0" stop-color="#f3fab6"/><stop offset="1" stop-color="#d5d825"/></radialGradient><radialGradient cx="271.80619" cy="126.70248" r="2.22117" gradientUnits="userSpaceOnUse" id="color-12"><stop offset="0" stop-color="#f3fab6"/><stop offset="1" stop-color="#d5d825"/></radialGradient><radialGradient cx="282.6605" cy="128.28387" r="2.33754" gradientUnits="userSpaceOnUse" id="color-13"><stop offset="0" stop-color="#f3fab6"/><stop offset="1" stop-color="#d5d825"/></radialGradient><radialGradient cx="267.725" cy="139.40675" r="7.95" gradientUnits="userSpaceOnUse" id="color-14"><stop offset="0" stop-color="#fffdb3"/><stop offset="1" stop-color="#fffdb3" stop-opacity="0"/></radialGradient><radialGradient cx="279.825" cy="137.00675" r="8.95" gradientUnits="userSpaceOnUse" id="color-15"><stop offset="0" stop-color="#fffdb3"/><stop offset="1" stop-color="#fffdb3" stop-opacity="0"/></radialGradient><radialGradient cx="275.84873" cy="145.76021" r="3.33177" gradientUnits="userSpaceOnUse" id="color-16"><stop offset="0" stop-color="#f3fab6"/><stop offset="1" stop-color="#d5d825"/></radialGradient><radialGradient cx="260.38932" cy="147.62599" r="2.88754" gradientUnits="userSpaceOnUse" id="color-17"><stop offset="0" stop-color="#f3fab6"/><stop offset="1" stop-color="#d5d825"/></radialGradient><radialGradient cx="262.6105" cy="130.83387" r="2.88754" gradientUnits="userSpaceOnUse" id="color-18"><stop offset="0" stop-color="#f3fab6"/><stop offset="1" stop-color="#d5d825"/></radialGradient><radialGradient cx="272.925" cy="136.35674" r="9" gradientUnits="userSpaceOnUse" id="color-19"><stop offset="0" stop-color="#fffdb3"/><stop offset="1" stop-color="#fffdb3" stop-opacity="0"/></radialGradient></defs><g transform="translate(-239.86343,-120.43566)"><g data-paper-data="{&quot;isPaintingLayer&quot;:true}" stroke-linejoin="miter" stroke-miterlimit="10" stroke-dasharray="" stroke-dashoffset="0" style="mix-blend-mode: normal"><path d="M240.61343,179.94638v-58.76072h60.94658v58.76072z" fill="url(#color-1)" fill-rule="nonzero" stroke="#2843c8" stroke-width="1.5" stroke-linecap="butt"/><path d="M239.96364,180.14318v-12.57143h61.85715v12.57143z" fill="url(#color-2)" fill-rule="nonzero" stroke="none" stroke-width="0" stroke-linecap="butt"/><path d="M276.42278,131.5355l12.9382,-7.19325l-14.36331,39.55548z" fill="none" fill-rule="evenodd" stroke="url(#color-3)" stroke-width="2" stroke-linecap="butt"/><path d="M247.97537,129.5803l28.70896,1.88375l-1.48082,32.63421z" fill="none" fill-rule="evenodd" stroke="url(#color-4)" stroke-width="2" stroke-linecap="butt"/><path d="M248.33746,129.607l41.27671,-5.39028l-12.74509,7.28979z" fill="none" fill-rule="evenodd" stroke="url(#color-5)" stroke-width="2" stroke-linecap="butt"/><path d="M272.25043,162.99657c0,-1.59474 1.2928,-2.88754 2.88754,-2.88754c1.59474,0 2.88753,1.2928 2.88753,2.88754c0,1.59474 -1.29279,2.88753 -2.88753,2.88753c-1.59474,0 -2.88754,-1.29279 -2.88754,-2.88753z" fill="url(#color-6)" fill-rule="nonzero" stroke="none" stroke-width="0" stroke-linecap="butt"/><path d="M245.59626,130.30078c0,-1.59474 1.29279,-2.88753 2.88753,-2.88753c1.59474,0 2.88754,1.29279 2.88754,2.88753c0,1.59474 -1.2928,2.88754 -2.88754,2.88754c-1.59474,0 -2.88753,-1.2928 -2.88753,-2.88754z" fill="url(#color-7)" fill-rule="nonzero" stroke="none" stroke-width="0" stroke-linecap="butt"/><path d="M262.875,131.05675l8.2,-4l11.4,1.9z" fill="none" fill-rule="nonzero" stroke="url(#color-8)" stroke-width="1.5" stroke-linecap="round"/><path d="M273.49429,132.52196c0,-1.59474 1.2928,-2.88754 2.88754,-2.88754c1.59474,0 2.88754,1.2928 2.88754,2.88754c0,1.59474 -1.2928,2.88753 -2.88754,2.88753c-1.59474,0 -2.88754,-1.29279 -2.88754,-2.88753z" fill="url(#color-9)" fill-rule="nonzero" stroke="none" stroke-width="0" stroke-linecap="butt"/><path d="M286.55483,124.83668c0,-1.12859 0.9149,-2.04349 2.04349,-2.04349c1.12859,0 2.04349,0.9149 2.04349,2.04349c0,1.12859 -0.9149,2.04349 -2.04349,2.04349c-1.12859,0 -2.04349,-0.9149 -2.04349,-2.04349z" fill="url(#color-10)" fill-rule="nonzero" stroke="none" stroke-width="0" stroke-linecap="butt"/><path d="M280.42437,142.65055c0,-1.59474 1.29279,-2.88754 2.88753,-2.88754c1.59474,0 2.88754,1.2928 2.88754,2.88754c0,1.59474 -1.2928,2.88753 -2.88754,2.88753c-1.59474,0 -2.88753,-1.29279 -2.88753,-2.88753z" fill="url(#color-11)" fill-rule="nonzero" stroke="none" stroke-width="0" stroke-linecap="butt"/><path d="M269.58501,126.70248c0,-1.22672 0.99446,-2.22119 2.22118,-2.22119c1.22672,0 2.22117,0.99447 2.22117,2.22119c0,1.22672 -0.99445,2.22118 -2.22117,2.22118c-1.22672,0 -2.22118,-0.99446 -2.22118,-2.22118z" fill="url(#color-12)" fill-rule="nonzero" stroke="none" stroke-width="0" stroke-linecap="butt"/><path d="M280.32297,128.28387c0,-1.29099 1.04655,-2.33753 2.33754,-2.33753c1.29098,0 2.33754,1.04655 2.33754,2.33753c0,1.29099 -1.04655,2.33754 -2.33754,2.33754c-1.29098,0 -2.33754,-1.04655 -2.33754,-2.33754z" fill="url(#color-13)" fill-rule="nonzero" stroke="none" stroke-width="0" stroke-linecap="butt"/><path d="M260.375,147.95675l1.7,-17.6" fill="none" fill-rule="nonzero" stroke="none" stroke-width="0" stroke-linecap="round"/><path d="M260.475,147.35674l1.8,-15.9l12.7,14.3z" fill="none" fill-rule="nonzero" stroke="url(#color-14)" stroke-width="1.5" stroke-linecap="round"/><path d="M275.875,145.95675l7.9,-3.1l-1.8,-14.8z" fill="none" fill-rule="nonzero" stroke="url(#color-15)" stroke-width="1.5" stroke-linecap="round"/><path d="M272.51697,145.76021c0,-1.84009 1.49168,-3.33177 3.33177,-3.33177c1.84009,0 3.33177,1.49168 3.33177,3.33177c0,1.84009 -1.49168,3.33177 -3.33177,3.33177c-1.84009,0 -3.33177,-1.49168 -3.33177,-3.33177z" fill="url(#color-16)" fill-rule="nonzero" stroke="none" stroke-width="0" stroke-linecap="butt"/><path d="M257.50178,147.62599c0,-1.59474 1.2928,-2.88753 2.88754,-2.88753c1.59474,0 2.88754,1.29279 2.88754,2.88753c0,1.59474 -1.2928,2.88754 -2.88754,2.88754c-1.59474,0 -2.88754,-1.2928 -2.88754,-2.88754z" fill="url(#color-17)" fill-rule="nonzero" stroke="none" stroke-width="0" stroke-linecap="butt"/><path d="M259.72297,130.83387c0,-1.59474 1.2928,-2.88753 2.88754,-2.88753c1.59474,0 2.88754,1.29279 2.88754,2.88754c0,1.59474 -1.2928,2.88753 -2.88754,2.88753c-1.59474,0 -2.88754,-1.29279 -2.88754,-2.88753z" fill="url(#color-18)" fill-rule="nonzero" stroke="none" stroke-width="0" stroke-linecap="butt"/><path d="M275.375,145.95675l-3.6,-18.6" fill="none" fill-rule="nonzero" stroke="url(#color-19)" stroke-width="1.5" stroke-linecap="round"/></g></g></svg>