<svg version="1.1" xmlns="http://www.w3.org/2000/svg" xmlns:xlink="http://www.w3.org/1999/xlink" width="62.36325" height="60.26072" viewBox="0,0,62.36325,60.26072"><defs><linearGradient x1="270.89485" y1="121.10216" x2="270.89485" y2="179.86285" gradientUnits="userSpaceOnUse" id="color-1"><stop offset="0" stop-color="#455f06"/><stop offset="1" stop-color="#233103"/></linearGradient><linearGradient x1="270.892" y1="167.57146" x2="270.892" y2="180.14299" gradientUnits="userSpaceOnUse" id="color-2"><stop offset="0" stop-color="#6b8d06"/><stop offset="1" stop-color="#324203"/></linearGradient><linearGradient x1="271.04419" y1="159.41188" x2="271.04419" y2="167.39053" gradientUnits="userSpaceOnUse" id="color-3"><stop offset="0" stop-color="#0b1228"/><stop offset="1" stop-color="#0b1228" stop-opacity="0"/></linearGradient><radialGradient cx="267.03815" cy="142.62849" r="20" gradientUnits="userSpaceOnUse" id="color-4"><stop offset="0" stop-color="#29ff5d"/><stop offset="1" stop-color="#29ff7c" stop-opacity="0.36747"/></radialGradient><radialGradient cx="290.62813" cy="132.00079" r="6.7328" gradientUnits="userSpaceOnUse" id="color-5"><stop offset="0" stop-color="#ffe687"/><stop offset="1" stop-color="#eb9c5e"/></radialGradient><radialGradient cx="263.64529" cy="146.98562" r="19.03572" gradientUnits="userSpaceOnUse" id="color-6"><stop offset="0" stop-color="#29ff5d"/><stop offset="1" stop-color="#29ff7c" stop-opacity="0.36747"/></radialGradient><radialGradient cx="284.77099" cy="143.50079" r="4.37566" gradientUnits="userSpaceOnUse" id="color-7"><stop offset="0" stop-color="#ffe687"/><stop offset="1" stop-color="#eb9c5e"/></radialGradient><radialGradient cx="259.93101" cy="152.05704" r="16.25" gradientUnits="userSpaceOnUse" id="color-8"><stop offset="0" stop-color="#29ff5d"/><stop offset="1" stop-color="#29ff7c" stop-opacity="0.36747"/></radialGradient><radialGradient cx="278.44956" cy="152.17936" r="3.05423" gradientUnits="userSpaceOnUse" id="color-9"><stop offset="0" stop-color="#ffe687"/><stop offset="1" stop-color="#eb9c5e"/></radialGradient></defs><g transform="translate(-239.71327,-120.35212)"><g data-paper-data="{&quot;isPaintingLayer&quot;:true}" fill-rule="nonzero" stroke-linejoin="miter" stroke-miterlimit="10" stroke-dasharray="" stroke-dashoffset="0" style="mix-blend-mode: normal"><path d="M240.46327,179.86285v-58.76072h60.86325v58.76072z" fill="url(#color-1)" stroke="#9cbf3d" stroke-width="1.5" stroke-linecap="butt"/><path d="M239.96343,180.14299v-12.57143h61.85715v12.57143z" fill="url(#color-2)" stroke="none" stroke-width="0" stroke-linecap="butt"/><g><path d="M241.39662,159.26519h59.3021" fill="none" stroke-opacity="0.70968" stroke="#ffffff" stroke-width="0.5" stroke-linecap="round"/><path d="M241.20021,167.39053v-7.97865h59.68802v7.97865z" data-paper-data="{&quot;index&quot;:null}" fill="url(#color-3)" stroke="none" stroke-width="0" stroke-linecap="butt"/></g><path d="M243.89529,151.94991c0,0 17.9302,-17.04916 27.86434,-20.47037c10.43705,-3.5944 16.92137,-0.02963 16.92137,-0.02963" fill="none" stroke="url(#color-4)" stroke-width="5.5" stroke-linecap="round"/><path d="M283.89533,132.00079c0,-3.71842 3.01438,-6.73281 6.73281,-6.73281c3.71843,0 6.7328,3.01439 6.7328,6.73281c0,3.71842 -3.01438,6.73281 -6.7328,6.73281c-3.71843,0 -6.73281,-3.01439 -6.73281,-6.73281z" fill="url(#color-5)" stroke="none" stroke-width="0" stroke-linecap="butt"/><path d="M244.60958,152.9499c0,0 12.68696,-7.45458 19.40168,-9.55845c5.85863,-1.83563 17.16975,0.2013 17.16975,0.2013" fill="none" stroke="url(#color-6)" stroke-width="4.5" stroke-linecap="round"/><path d="M280.39533,143.50079c0,-2.41661 1.95905,-4.37566 4.37567,-4.37566c2.41661,0 4.37566,1.95906 4.37566,4.37566c0,2.41661 -1.95905,4.37566 -4.37566,4.37566c-2.41661,0 -4.37567,-1.95906 -4.37567,-4.37566z" fill="url(#color-7)" stroke="none" stroke-width="0" stroke-linecap="butt"/><path d="M243.68101,153.59276c0,0 10.9547,-2.55158 16.4552,-2.86107c2.9583,-0.04977 12.71647,-0.19911 16.3038,0.80028" fill="none" stroke="url(#color-8)" stroke-width="3" stroke-linecap="round"/><path d="M275.39533,152.17936c0,-1.68681 1.36743,-3.05423 3.05423,-3.05423c1.68681,0 3.05423,1.36743 3.05423,3.05423c0,1.68681 -1.36743,3.05424 -3.05423,3.05424c-1.68681,0 -3.05423,-1.36743 -3.05423,-3.05424z" fill="url(#color-9)" stroke="none" stroke-width="0" stroke-linecap="butt"/></g></g></svg>