<svg version="1.1" xmlns="http://www.w3.org/2000/svg" xmlns:xlink="http://www.w3.org/1999/xlink" width="62.36325" height="60.26072" viewBox="0,0,62.36325,60.26072"><defs><linearGradient x1="270.89485" y1="121.10212" x2="270.89485" y2="179.86283" gradientUnits="userSpaceOnUse" id="color-1"><stop offset="0" stop-color="#735656"/><stop offset="1" stop-color="#562828"/></linearGradient><linearGradient x1="270.892" y1="167.57146" x2="270.892" y2="180.14295" gradientUnits="userSpaceOnUse" id="color-2"><stop offset="0" stop-color="#a04848"/><stop offset="1" stop-color="#5b2929"/></linearGradient><linearGradient x1="267.39405" y1="132.50607" x2="267.39405" y2="159.63411" gradientUnits="userSpaceOnUse" id="color-3"><stop offset="0" stop-color="#a96262"/><stop offset="1" stop-color="#ff9696"/></linearGradient><linearGradient x1="267.39405" y1="132.50607" x2="267.39405" y2="159.63411" gradientUnits="userSpaceOnUse" id="color-4"><stop offset="0" stop-color="#4a0000"/><stop offset="1" stop-color="#6d0000"/></linearGradient><linearGradient x1="251.59068" y1="135.64184" x2="251.59068" y2="144.64583" gradientUnits="userSpaceOnUse" id="color-5"><stop offset="0" stop-color="#ff6363"/><stop offset="1" stop-color="#d95555"/></linearGradient><linearGradient x1="257.9716" y1="133.1624" x2="257.9716" y2="159.19657" gradientUnits="userSpaceOnUse" id="color-6"><stop offset="0" stop-color="#6d0000"/><stop offset="1" stop-color="#760c0c"/></linearGradient></defs><g transform="translate(-239.71327,-120.3521)"><g data-paper-data="{&quot;isPaintingLayer&quot;:true}" fill-rule="nonzero" stroke-linejoin="miter" stroke-miterlimit="10" stroke-dasharray="" stroke-dashoffset="0" style="mix-blend-mode: normal"><path d="M240.46327,179.86283v-58.76072h60.86325v58.76072z" fill="url(#color-1)" stroke="#733434" stroke-width="1.5" stroke-linecap="butt"/><path d="M239.96343,180.14295v-12.57143h61.85715v12.57143z" fill="url(#color-2)" stroke="none" stroke-width="0" stroke-linecap="butt"/><path d="M285.53719,132.50607h-39.88989v27.05512l40.10866,0.07292c0,0 3.75786,-4.44329 3.35454,-13.19939c-0.3926,-8.52348 -3.57331,-13.92865 -3.57331,-13.92865z" fill="url(#color-3)" stroke="url(#color-4)" stroke-width="1.5" stroke-linecap="round"/><path d="M249.58525,144.64583v-9.00398h4.01087v9.00398z" fill="url(#color-5)" stroke="#3e0000" stroke-width="1" stroke-linecap="butt"/><path d="M257.0965,159.19657v-26.03416h1.7502v26.03417z" fill="url(#color-6)" stroke="none" stroke-width="0" stroke-linecap="butt"/><path d="M251.55422,145.12207v7.9488h35.56628" fill="none" stroke="#3a0000" stroke-width="1.5" stroke-linecap="round"/><path d="M262.26269,146.50608h34.84615" fill="none" stroke="#ff1b1b" stroke-width="5" stroke-linecap="round"/><path d="M253.955,140.50608c0,0 8.23077,4.07775 8.23077,5.61539c0,1.5889 1.76923,3.6923 1.76923,3.6923" fill="none" stroke="#481212" stroke-width="1.5" stroke-linecap="round"/><path d="M265.87808,143.73684l2.38461,5.61539" fill="none" stroke="#481212" stroke-width="1.5" stroke-linecap="round"/><path d="M270.33961,143.65992l2.46154,5.53846" fill="none" stroke="#481212" stroke-width="1.5" stroke-linecap="round"/><path d="M275.03192,143.27531l2.69231,5.92307" fill="none" stroke="#481212" stroke-width="1.5" stroke-linecap="round"/><path d="M279.64731,143.27531l2.84616,6" fill="none" stroke="#481212" stroke-width="1.5" stroke-linecap="round"/><path d="M284.955,143.50608l2.61539,5.76923" fill="none" stroke="#481212" stroke-width="1.5" stroke-linecap="round"/></g></g></svg>