<svg version="1.1" xmlns="http://www.w3.org/2000/svg" xmlns:xlink="http://www.w3.org/1999/xlink" width="55.125" height="55.125" viewBox="0,0,55.125,55.125"><defs><linearGradient x1="240" y1="153.1875" x2="240" y2="206.8125" gradientUnits="userSpaceOnUse" id="color-1"><stop offset="0" stop-color="#103602"/><stop offset="1" stop-color="#000000" stop-opacity="0.60925"/></linearGradient><linearGradient x1="240" y1="153.1875" x2="240" y2="206.8125" gradientUnits="userSpaceOnUse" id="color-2"><stop offset="0" stop-color="#44ff00"/><stop offset="1" stop-color="#44ff00" stop-opacity="0"/></linearGradient><radialGradient cx="235.10379" cy="175.80589" r="4.00223" gradientUnits="userSpaceOnUse" id="color-3"><stop offset="0" stop-color="#27ff00"/><stop offset="1" stop-color="#27ff00" stop-opacity="0"/></radialGradient><radialGradient cx="243.00104" cy="175.34135" r="4.14516" gradientUnits="userSpaceOnUse" id="color-4"><stop offset="0" stop-color="#27ff00"/><stop offset="1" stop-color="#27ff00" stop-opacity="0"/></radialGradient><radialGradient cx="235.06805" cy="184.13196" r="4.18089" gradientUnits="userSpaceOnUse" id="color-5"><stop offset="0" stop-color="#27ff00"/><stop offset="1" stop-color="#27ff00" stop-opacity="0"/></radialGradient><radialGradient cx="243.96586" cy="184.02475" r="4.07369" gradientUnits="userSpaceOnUse" id="color-6"><stop offset="0" stop-color="#27ff00"/><stop offset="1" stop-color="#27ff00" stop-opacity="0"/></radialGradient><radialGradient cx="227.49241" cy="174.91254" r="3.03741" gradientUnits="userSpaceOnUse" id="color-7"><stop offset="0" stop-color="#27ff00"/><stop offset="1" stop-color="#27ff00" stop-opacity="0"/></radialGradient><radialGradient cx="234.46057" cy="169.87402" r="2.28699" gradientUnits="userSpaceOnUse" id="color-8"><stop offset="0" stop-color="#27ff00"/><stop offset="1" stop-color="#27ff00" stop-opacity="0"/></radialGradient><radialGradient cx="226.88493" cy="187.9555" r="2.7158" gradientUnits="userSpaceOnUse" id="color-9"><stop offset="0" stop-color="#27ff00"/><stop offset="1" stop-color="#27ff00" stop-opacity="0"/></radialGradient><radialGradient cx="243.35838" cy="189.20621" r="4.32383" gradientUnits="userSpaceOnUse" id="color-10"><stop offset="0" stop-color="#27ff00"/><stop offset="1" stop-color="#27ff00" stop-opacity="0"/></radialGradient><radialGradient cx="251.39857" cy="185.52558" r="2.21551" gradientUnits="userSpaceOnUse" id="color-11"><stop offset="0" stop-color="#27ff00"/><stop offset="1" stop-color="#27ff00" stop-opacity="0"/></radialGradient><radialGradient cx="249.39746" cy="169.87402" r="3.43048" gradientUnits="userSpaceOnUse" id="color-12"><stop offset="0" stop-color="#27ff00"/><stop offset="1" stop-color="#27ff00" stop-opacity="0"/></radialGradient><linearGradient x1="239.45852" y1="172.92405" x2="239.39406" y2="185.81517" gradientUnits="userSpaceOnUse" id="color-13"><stop offset="0" stop-color="#00ff21"/><stop offset="1" stop-color="#deffd8"/></linearGradient><linearGradient x1="231.38144" y1="167.00636" x2="231.33361" y2="176.56894" gradientUnits="userSpaceOnUse" id="color-14"><stop offset="0" stop-color="#00ff21"/><stop offset="1" stop-color="#deffd8"/></linearGradient><linearGradient x1="230.55454" y1="182.71744" x2="230.50671" y2="192.28002" gradientUnits="userSpaceOnUse" id="color-15"><stop offset="0" stop-color="#00ff21"/><stop offset="1" stop-color="#deffd8"/></linearGradient><linearGradient x1="246.34079" y1="166.48016" x2="246.29296" y2="176.04273" gradientUnits="userSpaceOnUse" id="color-16"><stop offset="0" stop-color="#00ff21"/><stop offset="1" stop-color="#deffd8"/></linearGradient><linearGradient x1="247.99459" y1="182.41675" x2="247.94676" y2="191.97932" gradientUnits="userSpaceOnUse" id="color-17"><stop offset="0" stop-color="#00ff21"/><stop offset="1" stop-color="#deffd8"/></linearGradient><linearGradient x1="224.75695" y1="173.62155" x2="224.72771" y2="179.46936" gradientUnits="userSpaceOnUse" id="color-18"><stop offset="0" stop-color="#00ff21"/><stop offset="1" stop-color="#deffd8"/></linearGradient><linearGradient x1="224.30592" y1="184.52158" x2="224.27667" y2="190.36939" gradientUnits="userSpaceOnUse" id="color-19"><stop offset="0" stop-color="#00ff21"/><stop offset="1" stop-color="#deffd8"/></linearGradient><linearGradient x1="224.75695" y1="173.62155" x2="224.72771" y2="179.46936" gradientUnits="userSpaceOnUse" id="color-20"><stop offset="0" stop-color="#00ff21"/><stop offset="1" stop-color="#deffd8"/></linearGradient><linearGradient x1="239.26527" y1="187.52848" x2="239.23602" y2="193.3763" gradientUnits="userSpaceOnUse" id="color-21"><stop offset="0" stop-color="#00ff21"/><stop offset="1" stop-color="#deffd8"/></linearGradient><linearGradient x1="254.14945" y1="180.38709" x2="254.1202" y2="186.23489" gradientUnits="userSpaceOnUse" id="color-22"><stop offset="0" stop-color="#00ff21"/><stop offset="1" stop-color="#deffd8"/></linearGradient><linearGradient x1="253.09703" y1="166.10429" x2="253.06779" y2="171.9521" gradientUnits="userSpaceOnUse" id="color-23"><stop offset="0" stop-color="#00ff21"/><stop offset="1" stop-color="#deffd8"/></linearGradient><linearGradient x1="237.38596" y1="164.90153" x2="237.35671" y2="170.74933" gradientUnits="userSpaceOnUse" id="color-24"><stop offset="0" stop-color="#00ff21"/><stop offset="1" stop-color="#deffd8"/></linearGradient><linearGradient x1="225.81453" y1="161.90153" x2="225.78528" y2="167.74933" gradientUnits="userSpaceOnUse" id="color-25"><stop offset="0" stop-color="#00ff21"/><stop offset="1" stop-color="#deffd8"/></linearGradient><linearGradient x1="249.17167" y1="159.68724" x2="249.14242" y2="165.53505" gradientUnits="userSpaceOnUse" id="color-26"><stop offset="0" stop-color="#00ff21"/><stop offset="1" stop-color="#deffd8"/></linearGradient><linearGradient x1="253.38596" y1="192.04438" x2="253.35671" y2="197.89219" gradientUnits="userSpaceOnUse" id="color-27"><stop offset="0" stop-color="#00ff21"/><stop offset="1" stop-color="#deffd8"/></linearGradient><linearGradient x1="230.67167" y1="195.11581" x2="230.64242" y2="200.96362" gradientUnits="userSpaceOnUse" id="color-28"><stop offset="0" stop-color="#00ff21"/><stop offset="1" stop-color="#deffd8"/></linearGradient><linearGradient x1="259.59054" y1="162.90153" x2="259.57129" y2="166.74933" gradientUnits="userSpaceOnUse" id="color-29"><stop offset="0" stop-color="#00ff21"/><stop offset="1" stop-color="#deffd8"/></linearGradient><linearGradient x1="254.37625" y1="157.11581" x2="254.35701" y2="160.96362" gradientUnits="userSpaceOnUse" id="color-30"><stop offset="0" stop-color="#00ff21"/><stop offset="1" stop-color="#deffd8"/></linearGradient><linearGradient x1="258.94768" y1="171.11581" x2="258.92843" y2="174.96362" gradientUnits="userSpaceOnUse" id="color-31"><stop offset="0" stop-color="#00ff21"/><stop offset="1" stop-color="#deffd8"/></linearGradient><linearGradient x1="243.87625" y1="157.8301" x2="243.85701" y2="161.6779" gradientUnits="userSpaceOnUse" id="color-32"><stop offset="0" stop-color="#00ff21"/><stop offset="1" stop-color="#deffd8"/></linearGradient><linearGradient x1="220.66197" y1="161.40153" x2="220.64272" y2="165.24933" gradientUnits="userSpaceOnUse" id="color-33"><stop offset="0" stop-color="#00ff21"/><stop offset="1" stop-color="#deffd8"/></linearGradient><linearGradient x1="224.29833" y1="157.76516" x2="224.27909" y2="161.61297" gradientUnits="userSpaceOnUse" id="color-34"><stop offset="0" stop-color="#00ff21"/><stop offset="1" stop-color="#deffd8"/></linearGradient><linearGradient x1="221.06197" y1="177.80153" x2="221.04272" y2="181.64933" gradientUnits="userSpaceOnUse" id="color-35"><stop offset="0" stop-color="#00ff21"/><stop offset="1" stop-color="#deffd8"/></linearGradient><linearGradient x1="222.46197" y1="169.46819" x2="222.44272" y2="173.316" gradientUnits="userSpaceOnUse" id="color-36"><stop offset="0" stop-color="#00ff21"/><stop offset="1" stop-color="#deffd8"/></linearGradient><linearGradient x1="218.52863" y1="182.86819" x2="218.50939" y2="186.716" gradientUnits="userSpaceOnUse" id="color-37"><stop offset="0" stop-color="#00ff21"/><stop offset="1" stop-color="#deffd8"/></linearGradient><linearGradient x1="220.26197" y1="191.13486" x2="220.24272" y2="194.98267" gradientUnits="userSpaceOnUse" id="color-38"><stop offset="0" stop-color="#00ff21"/><stop offset="1" stop-color="#deffd8"/></linearGradient><linearGradient x1="224.5953" y1="198.80153" x2="224.57606" y2="202.64933" gradientUnits="userSpaceOnUse" id="color-39"><stop offset="0" stop-color="#00ff21"/><stop offset="1" stop-color="#deffd8"/></linearGradient><linearGradient x1="235.66197" y1="200.66819" x2="235.64272" y2="204.516" gradientUnits="userSpaceOnUse" id="color-40"><stop offset="0" stop-color="#00ff21"/><stop offset="1" stop-color="#deffd8"/></linearGradient><linearGradient x1="248.52863" y1="198.73486" x2="248.50939" y2="202.58267" gradientUnits="userSpaceOnUse" id="color-41"><stop offset="0" stop-color="#00ff21"/><stop offset="1" stop-color="#deffd8"/></linearGradient><linearGradient x1="259.12863" y1="194.53486" x2="259.10938" y2="198.38267" gradientUnits="userSpaceOnUse" id="color-42"><stop offset="0" stop-color="#00ff21"/><stop offset="1" stop-color="#deffd8"/></linearGradient><linearGradient x1="260.3953" y1="185.06819" x2="260.37606" y2="188.916" gradientUnits="userSpaceOnUse" id="color-43"><stop offset="0" stop-color="#00ff21"/><stop offset="1" stop-color="#deffd8"/></linearGradient><radialGradient cx="228.35801" cy="167.93354" r="2.8" gradientUnits="userSpaceOnUse" id="color-44"><stop offset="0" stop-color="#27ff00"/><stop offset="1" stop-color="#27ff00" stop-opacity="0"/></radialGradient><radialGradient cx="222.80801" cy="178.78354" r="1.65" gradientUnits="userSpaceOnUse" id="color-45"><stop offset="0" stop-color="#27ff00"/><stop offset="1" stop-color="#27ff00" stop-opacity="0"/></radialGradient><radialGradient cx="230.30801" cy="193.43354" r="4.6" gradientUnits="userSpaceOnUse" id="color-46"><stop offset="0" stop-color="#27ff00"/><stop offset="1" stop-color="#27ff00" stop-opacity="0"/></radialGradient><radialGradient cx="247.80801" cy="166.43354" r="3.5" gradientUnits="userSpaceOnUse" id="color-47"><stop offset="0" stop-color="#27ff00"/><stop offset="1" stop-color="#27ff00" stop-opacity="0"/></radialGradient><radialGradient cx="251.15801" cy="191.58354" r="3.45" gradientUnits="userSpaceOnUse" id="color-48"><stop offset="0" stop-color="#27ff00"/><stop offset="1" stop-color="#27ff00" stop-opacity="0"/></radialGradient><radialGradient cx="224.80801" cy="161.48354" r="2.45" gradientUnits="userSpaceOnUse" id="color-49"><stop offset="0" stop-color="#27ff00"/><stop offset="1" stop-color="#27ff00" stop-opacity="0"/></radialGradient><radialGradient cx="223.70801" cy="164.38354" r="2.95" gradientUnits="userSpaceOnUse" id="color-50"><stop offset="0" stop-color="#27ff00"/><stop offset="1" stop-color="#27ff00" stop-opacity="0"/></radialGradient><radialGradient cx="223.85801" cy="168.78354" r="3.05" gradientUnits="userSpaceOnUse" id="color-51"><stop offset="0" stop-color="#27ff00"/><stop offset="1" stop-color="#27ff00" stop-opacity="0"/></radialGradient><radialGradient cx="221.35801" cy="185.73354" r="2.9" gradientUnits="userSpaceOnUse" id="color-52"><stop offset="0" stop-color="#27ff00"/><stop offset="1" stop-color="#27ff00" stop-opacity="0"/></radialGradient><radialGradient cx="221.90801" cy="190.88354" r="2.15" gradientUnits="userSpaceOnUse" id="color-53"><stop offset="0" stop-color="#27ff00"/><stop offset="1" stop-color="#27ff00" stop-opacity="0"/></radialGradient><radialGradient cx="227.10801" cy="199.38354" r="2.55" gradientUnits="userSpaceOnUse" id="color-54"><stop offset="0" stop-color="#27ff00"/><stop offset="1" stop-color="#27ff00" stop-opacity="0"/></radialGradient><radialGradient cx="233.40801" cy="200.18354" r="2.05" gradientUnits="userSpaceOnUse" id="color-55"><stop offset="0" stop-color="#27ff00"/><stop offset="1" stop-color="#27ff00" stop-opacity="0"/></radialGradient><radialGradient cx="250.50801" cy="197.93354" r="2.7" gradientUnits="userSpaceOnUse" id="color-56"><stop offset="0" stop-color="#27ff00"/><stop offset="1" stop-color="#27ff00" stop-opacity="0"/></radialGradient><radialGradient cx="256.60801" cy="195.68354" r="2.65" gradientUnits="userSpaceOnUse" id="color-57"><stop offset="0" stop-color="#27ff00"/><stop offset="1" stop-color="#27ff00" stop-opacity="0"/></radialGradient><radialGradient cx="257.35801" cy="185.58354" r="2.8" gradientUnits="userSpaceOnUse" id="color-58"><stop offset="0" stop-color="#27ff00"/><stop offset="1" stop-color="#27ff00" stop-opacity="0"/></radialGradient><radialGradient cx="256.40801" cy="171.43354" r="2.75" gradientUnits="userSpaceOnUse" id="color-59"><stop offset="0" stop-color="#27ff00"/><stop offset="1" stop-color="#27ff00" stop-opacity="0"/></radialGradient><radialGradient cx="256.40801" cy="166.63354" r="2.85" gradientUnits="userSpaceOnUse" id="color-60"><stop offset="0" stop-color="#27ff00"/><stop offset="1" stop-color="#27ff00" stop-opacity="0"/></radialGradient><radialGradient cx="252.25801" cy="161.18354" r="2.1" gradientUnits="userSpaceOnUse" id="color-61"><stop offset="0" stop-color="#27ff00"/><stop offset="1" stop-color="#27ff00" stop-opacity="0"/></radialGradient><radialGradient cx="245.85801" cy="161.43354" r="2.2" gradientUnits="userSpaceOnUse" id="color-62"><stop offset="0" stop-color="#27ff00"/><stop offset="1" stop-color="#27ff00" stop-opacity="0"/></radialGradient></defs><g transform="translate(-212.4375,-152.4375)"><g data-paper-data="{&quot;isPaintingLayer&quot;:true}" fill-rule="nonzero" stroke-linejoin="miter" stroke-miterlimit="10" stroke-dasharray="" stroke-dashoffset="0" style="mix-blend-mode: normal"><path d="M213.1875,206.8125v-53.625h53.625v53.625z" fill="url(#color-1)" stroke="url(#color-2)" stroke-width="1.5" stroke-linecap="butt"/><path d="M239.10602,179.70091l-8.00446,-7.79004" fill="none" stroke="url(#color-3)" stroke-width="2.5" stroke-linecap="round"/><path d="M239.67777,179.48652l6.64655,-8.29032" fill="none" stroke="url(#color-4)" stroke-width="2.5" stroke-linecap="round"/><path d="M230.88716,188.06271l8.3618,-7.86151" fill="none" stroke="url(#color-5)" stroke-width="2.5" stroke-linecap="round"/><path d="M239.89216,180.55853l8.14739,6.93243" fill="none" stroke="url(#color-6)" stroke-width="2.5" stroke-linecap="round"/><path d="M224.45501,176.62777l6.07481,-3.43048" fill="none" stroke="url(#color-7)" stroke-width="1.5" stroke-linecap="round"/><path d="M232.17359,171.19619l4.57397,-2.64433" fill="none" stroke="url(#color-8)" stroke-width="1.5" stroke-linecap="round"/><path d="M224.16913,187.77683l5.43159,0.35735" fill="none" stroke="url(#color-9)" stroke-width="1.5" stroke-linecap="round"/><path d="M239.03454,190.56411l8.64767,-2.7158" fill="none" stroke="url(#color-10)" stroke-width="1.5" stroke-linecap="round"/><path d="M253.61408,183.5602l-4.43104,3.93076" fill="none" stroke="url(#color-11)" stroke-width="1.5" stroke-linecap="round"/><path d="M252.82793,168.9092l-6.86096,1.92964" fill="none" stroke="url(#color-12)" stroke-width="1.5" stroke-linecap="round"/><path d="M236.91875,179.35707l2.52423,-3.85976l2.48548,3.88481l-2.52421,3.85972zM236.06422,179.3528l3.3334,5.2127l3.39071,-5.17907l-3.33873,-5.21273zM235.25242,179.34874l4.20343,-6.42469l4.14431,6.46644l-4.20878,6.42467z" fill="url(#color-13)" stroke="none" stroke-width="0.26459" stroke-linecap="butt"/><path d="M229.49744,171.77834l1.87247,-2.86314l1.84372,2.88173l-1.87245,2.86313zM228.86356,171.77518l2.4727,3.86676l2.51522,-3.84181l-2.47666,-3.86678zM228.26137,171.77217l3.11808,-4.76582l3.07423,4.79679l-3.12205,4.76579z" fill="url(#color-14)" stroke="none" stroke-width="0.26459" stroke-linecap="butt"/><path d="M228.67054,187.48942l1.87247,-2.86315l1.84372,2.88173l-1.87245,2.86313zM228.03666,187.48625l2.47271,3.86676l2.51522,-3.84181l-2.47666,-3.86678zM227.43447,187.48324l3.11809,-4.7658l3.07422,4.79678l-3.12205,4.76578z" fill="url(#color-15)" stroke="none" stroke-width="0.26459" stroke-linecap="butt"/><path d="M244.45679,171.25213l1.87247,-2.86315l1.84372,2.88173l-1.87245,2.86314zM243.82291,171.24896l2.4727,3.86676l2.51522,-3.84181l-2.47666,-3.86679zM243.22072,171.24596l3.11808,-4.7658l3.07423,4.79678l-3.12205,4.76578z" fill="url(#color-16)" stroke="none" stroke-width="0.26459" stroke-linecap="butt"/><path d="M246.11059,187.18873l1.87247,-2.86315l1.84372,2.88173l-1.87245,2.86313zM245.47671,187.18556l2.4727,3.86677l2.51522,-3.84182l-2.47666,-3.86678zM244.87451,187.18255l3.11809,-4.7658l3.07423,4.79678l-3.12205,4.76579z" fill="url(#color-17)" stroke="none" stroke-width="0.26459" stroke-linecap="butt"/><path d="M223.60483,176.53977l1.14507,-1.7509l1.12749,1.76227l-1.14506,1.7509zM223.21719,176.53782l1.51214,2.36464l1.53813,-2.34939l-1.51456,-2.36466zM222.84894,176.53598l1.9068,-2.91443l1.87999,2.93338l-1.90923,2.91442z" fill="url(#color-18)" stroke="none" stroke-width="0.26459" stroke-linecap="butt"/><path d="M223.15379,187.4398l1.14507,-1.75091l1.12749,1.76227l-1.14506,1.75089zM222.76616,187.43785l1.51214,2.36465l1.53813,-2.3494l-1.51455,-2.36465zM222.3979,187.43601l1.90681,-2.91443l1.87998,2.93338l-1.90923,2.91442z" fill="url(#color-19)" stroke="none" stroke-width="0.26459" stroke-linecap="butt"/><path d="M223.60483,176.53977l1.14507,-1.7509l1.12749,1.76227l-1.14506,1.75089zM223.21719,176.53782l1.51214,2.36465l1.53813,-2.34939l-1.51456,-2.36466zM222.84894,176.53598l1.90681,-2.91443l1.87998,2.93338l-1.90923,2.91442z" fill="url(#color-20)" stroke="none" stroke-width="0.26459" stroke-linecap="butt"/><path d="M238.11314,190.4467l1.14507,-1.7509l1.12749,1.76226l-1.14506,1.75089zM237.72551,190.44476l1.51214,2.36465l1.53813,-2.3494l-1.51455,-2.36465zM237.35725,190.44292l1.90681,-2.91444l1.87998,2.93338l-1.90923,2.91442z" fill="url(#color-21)" stroke="none" stroke-width="0.26459" stroke-linecap="butt"/><path d="M252.99732,183.3053l1.14506,-1.7509l1.12749,1.76227l-1.14506,1.75089zM252.60968,183.30336l1.51214,2.36464l1.53813,-2.34939l-1.51455,-2.36465zM252.24143,183.30152l1.90681,-2.91443l1.87998,2.93338l-1.90923,2.91442z" fill="url(#color-22)" stroke="none" stroke-width="0.26459" stroke-linecap="butt"/><path d="M251.94491,169.0225l1.14507,-1.7509l1.12749,1.76227l-1.14506,1.75089zM251.55727,169.02056l1.51214,2.36465l1.53814,-2.34939l-1.51456,-2.36466zM251.18901,169.01872l1.9068,-2.91443l1.87999,2.93338l-1.90923,2.91442z" fill="url(#color-23)" stroke="none" stroke-width="0.26459" stroke-linecap="butt"/><path d="M236.23383,167.81973l1.14507,-1.7509l1.12749,1.76227l-1.14506,1.75089zM235.8462,167.8178l1.51214,2.36465l1.53813,-2.34939l-1.51455,-2.36466zM235.47793,167.81596l1.90682,-2.91443l1.87998,2.93338l-1.90923,2.91443z" fill="url(#color-24)" stroke="none" stroke-width="0.26459" stroke-linecap="butt"/><path d="M224.6624,164.81973l1.14507,-1.7509l1.12749,1.76227l-1.14506,1.75089zM224.27477,164.81779l1.51214,2.36465l1.53813,-2.34939l-1.51455,-2.36466zM223.9065,164.81596l1.90681,-2.91443l1.87999,2.93338l-1.90923,2.91443z" fill="url(#color-25)" stroke="none" stroke-width="0.26459" stroke-linecap="butt"/><path d="M248.01955,162.60545l1.14507,-1.7509l1.12749,1.76227l-1.14506,1.75089zM247.63191,162.60351l1.51214,2.36465l1.53813,-2.34939l-1.51455,-2.36466zM247.26365,162.60167l1.90681,-2.91444l1.87999,2.93338l-1.90923,2.91443z" fill="url(#color-26)" stroke="none" stroke-width="0.26459" stroke-linecap="butt"/><path d="M252.23383,194.96259l1.14507,-1.7509l1.12749,1.76227l-1.14506,1.75089zM251.8462,194.96065l1.51214,2.36465l1.53813,-2.34939l-1.51455,-2.36466zM251.47793,194.95881l1.90682,-2.91443l1.87998,2.93338l-1.90923,2.91443z" fill="url(#color-27)" stroke="none" stroke-width="0.26459" stroke-linecap="butt"/><path d="M229.51955,198.03402l1.14507,-1.7509l1.12749,1.76227l-1.14506,1.75088zM229.13191,198.03208l1.51214,2.36465l1.53813,-2.34939l-1.51455,-2.36466zM228.76365,198.03024l1.90681,-2.91443l1.87999,2.93338l-1.90923,2.91443z" fill="url(#color-28)" stroke="none" stroke-width="0.26459" stroke-linecap="butt"/><path d="M258.83245,164.82168l0.75344,-1.15208l0.74188,1.15956l-0.75344,1.15206zM258.57739,164.82041l0.99497,1.55592l1.01207,-1.54588l-0.99656,-1.55593zM258.33508,164.8192l1.25466,-1.91768l1.23701,1.93014l-1.25626,1.91767z" fill="url(#color-29)" stroke="none" stroke-width="0.26459" stroke-linecap="butt"/><path d="M253.61817,159.03597l0.75344,-1.15208l0.74188,1.15956l-0.75344,1.15207zM253.36311,159.03469l0.99497,1.55592l1.01207,-1.54588l-0.99656,-1.55592zM253.12079,159.03348l1.25466,-1.91768l1.23702,1.93014l-1.25626,1.91767z" fill="url(#color-30)" stroke="none" stroke-width="0.26459" stroke-linecap="butt"/><path d="M258.1896,173.03597l0.75344,-1.15208l0.74188,1.15956l-0.75344,1.15207zM257.93454,173.03469l0.99497,1.55592l1.01207,-1.54588l-0.99656,-1.55592zM257.69222,173.03348l1.25466,-1.91768l1.23701,1.93014l-1.25626,1.91767z" fill="url(#color-31)" stroke="none" stroke-width="0.26459" stroke-linecap="butt"/><path d="M243.11817,159.75025l0.75344,-1.15208l0.74188,1.15956l-0.75344,1.15206zM242.86311,159.74898l0.99497,1.55592l1.01207,-1.54588l-0.99656,-1.55593zM242.62079,159.74776l1.25466,-1.91767l1.23702,1.93014l-1.25626,1.91767z" fill="url(#color-32)" stroke="none" stroke-width="0.26459" stroke-linecap="butt"/><path d="M219.90388,163.32168l0.75344,-1.15208l0.74188,1.15956l-0.75344,1.15206zM219.64882,163.32041l0.99497,1.55592l1.01208,-1.54588l-0.99656,-1.55593zM219.40651,163.3192l1.25466,-1.91768l1.23702,1.93014l-1.25626,1.91767z" fill="url(#color-33)" stroke="none" stroke-width="0.26459" stroke-linecap="butt"/><path d="M223.54025,159.68532l0.75344,-1.15208l0.74188,1.15956l-0.75344,1.15207zM223.28519,159.68404l0.99497,1.55592l1.01207,-1.54588l-0.99656,-1.55593zM223.04287,159.68283l1.25467,-1.91768l1.23701,1.93014l-1.25626,1.91767z" fill="url(#color-34)" stroke="none" stroke-width="0.26459" stroke-linecap="butt"/><path d="M220.30388,179.72168l0.75344,-1.15208l0.74188,1.15956l-0.75344,1.15206zM220.04882,179.72041l0.99497,1.55592l1.01208,-1.54588l-0.99656,-1.55593zM219.80651,179.7192l1.25467,-1.91768l1.23701,1.93014l-1.25626,1.91767z" fill="url(#color-35)" stroke="none" stroke-width="0.26459" stroke-linecap="butt"/><path d="M221.70388,171.38835l0.75344,-1.15208l0.74188,1.15956l-0.75344,1.15206zM221.44882,171.38707l0.99497,1.55592l1.01207,-1.54588l-0.99656,-1.55593zM221.20651,171.38586l1.25467,-1.91768l1.23701,1.93014l-1.25626,1.91767z" fill="url(#color-36)" stroke="none" stroke-width="0.26459" stroke-linecap="butt"/><path d="M217.77055,184.78835l0.75344,-1.15208l0.74188,1.15956l-0.75344,1.15206zM217.51549,184.78707l0.99497,1.55592l1.01207,-1.54588l-0.99656,-1.55593zM217.27317,184.78586l1.25467,-1.91768l1.23701,1.93014l-1.25626,1.91767z" fill="url(#color-37)" stroke="none" stroke-width="0.26459" stroke-linecap="butt"/><path d="M219.50388,193.05502l0.75344,-1.15208l0.74188,1.15956l-0.75344,1.15206zM219.24882,193.05374l0.99497,1.55592l1.01208,-1.54588l-0.99656,-1.55593zM219.00651,193.05253l1.25466,-1.91768l1.23702,1.93014l-1.25626,1.91767z" fill="url(#color-38)" stroke="none" stroke-width="0.26459" stroke-linecap="butt"/><path d="M223.83722,200.72168l0.75345,-1.15208l0.74188,1.15956l-0.75344,1.15206zM223.58216,200.72041l0.99497,1.55592l1.01208,-1.54588l-0.99656,-1.55593zM223.33984,200.7192l1.25466,-1.91768l1.23702,1.93014l-1.25626,1.91767z" fill="url(#color-39)" stroke="none" stroke-width="0.26459" stroke-linecap="butt"/><path d="M234.90388,202.58835l0.75344,-1.15208l0.74188,1.15956l-0.75344,1.15207zM234.64882,202.58707l0.99497,1.55592l1.01208,-1.54588l-0.99656,-1.55592zM234.40651,202.58586l1.25466,-1.91768l1.23702,1.93014l-1.25626,1.91767z" fill="url(#color-40)" stroke="none" stroke-width="0.26459" stroke-linecap="butt"/><path d="M247.77055,200.65502l0.75344,-1.15208l0.74188,1.15956l-0.75344,1.15206zM247.51549,200.65374l0.99497,1.55592l1.01207,-1.54588l-0.99656,-1.55593zM247.27317,200.65253l1.25467,-1.91768l1.23701,1.93014l-1.25626,1.91767z" fill="url(#color-41)" stroke="none" stroke-width="0.26459" stroke-linecap="butt"/><path d="M258.37055,196.45502l0.75344,-1.15208l0.74188,1.15956l-0.75344,1.15207zM258.11548,196.45374l0.99497,1.55592l1.01207,-1.54588l-0.99656,-1.55593zM257.87317,196.45253l1.25466,-1.91768l1.23701,1.93014l-1.25626,1.91767z" fill="url(#color-42)" stroke="none" stroke-width="0.26459" stroke-linecap="butt"/><path d="M259.63722,186.98835l0.75344,-1.15208l0.74188,1.15956l-0.75344,1.15206zM259.38216,186.98707l0.99497,1.55592l1.01208,-1.54588l-0.99656,-1.55593zM259.13984,186.98586l1.25466,-1.91768l1.23702,1.93014l-1.25626,1.91767z" fill="url(#color-43)" stroke="none" stroke-width="0.26459" stroke-linecap="butt"/><path d="M249.05801,162.23354l4.5,6.7" fill="none" stroke="none" stroke-width="0" stroke-linecap="round"/><path d="M225.75801,165.13354l5.2,5.6" fill="none" stroke="url(#color-44)" stroke-width="1" stroke-linecap="round"/><path d="M224.45801,177.43354l-3.3,2.7" fill="none" stroke="url(#color-45)" stroke-width="1" stroke-linecap="round"/><path d="M230.15801,188.83354l0.3,9.2" fill="none" stroke="url(#color-46)" stroke-width="1" stroke-linecap="round"/><path d="M246.45801,169.93354l2.7,-7" fill="none" stroke="url(#color-47)" stroke-width="1" stroke-linecap="round"/><path d="M248.95801,188.13354l4.4,6.9" fill="none" stroke="url(#color-48)" stroke-width="1" stroke-linecap="round"/><path d="M224.15801,159.03354l1.3,4.9" fill="none" stroke="url(#color-49)" stroke-width="0.5" stroke-linecap="round"/><path d="M220.75801,163.73354l5.9,1.3" fill="none" stroke="url(#color-50)" stroke-width="0.5" stroke-linecap="round"/><path d="M222.45801,171.83354l2.8,-6.1" fill="none" stroke="url(#color-51)" stroke-width="0.5" stroke-linecap="round"/><path d="M218.45801,185.03354l5.8,1.4" fill="none" stroke="url(#color-52)" stroke-width="0.5" stroke-linecap="round"/><path d="M220.05801,193.03354l3.7,-4.3" fill="none" stroke="url(#color-53)" stroke-width="0.5" stroke-linecap="round"/><path d="M224.55801,200.63354l5.1,-2.5" fill="none" stroke="url(#color-54)" stroke-width="0.5" stroke-linecap="round"/><path d="M235.45801,202.23354l-4.1,-4.1" fill="none" stroke="url(#color-55)" stroke-width="0.5" stroke-linecap="round"/><path d="M248.45801,200.63354l4.1,-5.4" fill="none" stroke="url(#color-56)" stroke-width="0.5" stroke-linecap="round"/><path d="M259.25801,196.63354l-5.3,-1.9" fill="none" stroke="url(#color-57)" stroke-width="0.5" stroke-linecap="round"/><path d="M260.15801,187.23354l-5.6,-3.3" fill="none" stroke="url(#color-58)" stroke-width="0.5" stroke-linecap="round"/><path d="M253.65801,169.63354l5.5,3.6" fill="none" stroke="url(#color-59)" stroke-width="0.5" stroke-linecap="round"/><path d="M259.25801,164.93354l-5.7,3.4" fill="none" stroke="url(#color-60)" stroke-width="0.5" stroke-linecap="round"/><path d="M250.15801,162.83354l4.2,-3.3" fill="none" stroke="url(#color-61)" stroke-width="0.5" stroke-linecap="round"/><path d="M248.05801,162.63354l-4.4,-2.4" fill="none" stroke="url(#color-62)" stroke-width="0.5" stroke-linecap="round"/></g></g></svg>