<svg width="480px" height="360px" xmlns="http://www.w3.org/2000/svg"><path fill="#F00" d="M246.672 162.555L246.672 164.135Q246.133 164.122 245.625 164.239Q245.117 164.355 244.719 164.600Q244.321 164.845 244.077 165.212Q243.832 165.579 243.832 166.057L243.832 166.057Q243.832 166.534 243.991 166.828Q244.150 167.122 244.346 167.379Q244.542 167.636 244.701 167.923Q244.860 168.211 244.860 168.689L244.860 168.689Q244.860 168.933 244.768 169.197Q244.676 169.460 244.487 169.674Q244.297 169.888 244.003 170.029Q243.709 170.170 243.305 170.170L243.305 170.170Q242.901 170.170 242.534 169.998Q242.167 169.827 241.885 169.484Q241.604 169.142 241.438 168.627Q241.273 168.113 241.273 167.415L241.273 167.415Q241.273 166.461 241.622 165.585Q241.971 164.710 242.650 164.037Q243.330 163.363 244.340 162.959Q245.350 162.555 246.672 162.555L246.672 162.555ZM253.086 162.555L253.086 164.135Q252.548 164.122 252.040 164.239Q251.532 164.355 251.134 164.600Q250.736 164.845 250.497 165.212Q250.259 165.579 250.259 166.057L250.259 166.057Q250.259 166.534 250.418 166.828Q250.577 167.122 250.773 167.379Q250.969 167.636 251.128 167.923Q251.287 168.211 251.287 168.689L251.287 168.689Q251.287 168.933 251.195 169.197Q251.103 169.460 250.914 169.674Q250.724 169.888 250.430 170.029Q250.136 170.170 249.732 170.170L249.732 170.170Q249.328 170.170 248.961 169.998Q248.594 169.827 248.312 169.484Q248.031 169.142 247.865 168.627Q247.700 168.113 247.700 167.415L247.700 167.415Q247.700 166.461 248.043 165.585Q248.386 164.710 249.065 164.037Q249.744 163.363 250.754 162.959Q251.764 162.555 253.086 162.555L253.086 162.555Z"/></svg>