<svg width="480px" height="360px" xmlns="http://www.w3.org/2000/svg"><path fill="#F00" d="M252.462 173.634L252.462 173.634Q252.462 175.164 252.040 176.370Q251.617 177.576 250.840 178.415Q250.063 179.253 248.949 179.700Q247.835 180.147 246.439 180.147L246.439 180.147Q245.350 180.147 244.211 179.939Q243.073 179.731 241.959 179.278L241.959 179.278L241.959 162.702L244.089 162.702L244.089 167.464L243.991 169.741Q244.909 168.505 245.956 167.997Q247.002 167.489 248.202 167.489L248.202 167.489Q249.255 167.489 250.050 167.930Q250.846 168.370 251.385 169.172Q251.923 169.974 252.193 171.106Q252.462 172.239 252.462 173.634ZM250.283 173.732L250.283 173.732Q250.283 172.765 250.142 171.957Q250.002 171.149 249.695 170.574Q249.389 169.998 248.912 169.674Q248.435 169.350 247.774 169.350L247.774 169.350Q247.370 169.350 246.953 169.478Q246.537 169.607 246.090 169.907Q245.643 170.207 245.148 170.702Q244.652 171.198 244.089 171.933L244.089 171.933L244.089 177.894Q244.713 178.139 245.362 178.280Q246.011 178.421 246.598 178.421L246.598 178.421Q247.333 178.421 248 178.188Q248.667 177.956 249.175 177.411Q249.683 176.866 249.983 175.966Q250.283 175.067 250.283 173.732Z"/></svg>