<svg width="480px" height="360px" xmlns="http://www.w3.org/2000/svg"><path fill="#F00" d="M252.254 171.100L252.254 171.100Q252.254 173.438 251.691 175.122Q251.128 176.805 250.026 177.888Q248.924 178.972 247.296 179.486Q245.668 180 243.538 180L243.538 180L242.204 180L242.204 178.139L243.685 178.139Q245.264 178.139 246.415 177.821Q247.565 177.503 248.331 176.884Q249.096 176.266 249.500 175.379Q249.904 174.491 250.002 173.353L250.002 173.353L250.050 172.851Q249.279 173.304 248.275 173.579Q247.272 173.855 246.096 173.855L246.096 173.855Q244.884 173.855 243.966 173.500Q243.048 173.145 242.442 172.508Q241.836 171.871 241.530 170.996Q241.224 170.121 241.224 169.093L241.224 169.093Q241.224 167.979 241.628 167.011Q242.032 166.044 242.761 165.328Q243.489 164.612 244.505 164.196Q245.521 163.780 246.745 163.780L246.745 163.780Q247.933 163.780 248.943 164.171Q249.953 164.563 250.687 165.438Q251.422 166.314 251.838 167.709Q252.254 169.105 252.254 171.100ZM246.647 165.530L246.647 165.530Q245.962 165.530 245.380 165.757Q244.799 165.983 244.376 166.418Q243.954 166.852 243.709 167.489Q243.464 168.125 243.464 168.946L243.464 168.946Q243.464 169.692 243.642 170.280Q243.819 170.868 244.193 171.278Q244.566 171.688 245.154 171.908Q245.741 172.129 246.549 172.129L246.549 172.129Q247.002 172.129 247.486 172.043Q247.969 171.957 248.428 171.810Q248.888 171.663 249.304 171.467Q249.720 171.272 250.050 171.051L250.050 171.051Q250.050 169.472 249.818 168.413Q249.585 167.354 249.145 166.712Q248.704 166.069 248.073 165.800Q247.443 165.530 246.647 165.530Z"/></svg>