<svg width="480px" height="360px" xmlns="http://www.w3.org/2000/svg"><path fill="#F00" d="M241.334 174.112L241.334 174.112Q241.334 172.790 241.683 171.602Q242.032 170.415 242.761 169.515Q243.489 168.615 244.627 168.089Q245.766 167.562 247.345 167.562L247.345 167.562Q247.969 167.562 248.581 167.660Q249.194 167.758 249.879 167.966L249.879 167.966L251.764 167.489L251.764 185.019L249.622 185.019L249.622 180.379L249.732 177.748Q247.994 180.220 245.594 180.220L245.594 180.220Q244.517 180.220 243.721 179.780Q242.926 179.339 242.393 178.531Q241.861 177.723 241.598 176.597Q241.334 175.471 241.334 174.112ZM243.513 173.977L243.513 173.977Q243.513 175.005 243.666 175.826Q243.819 176.646 244.132 177.215Q244.444 177.784 244.915 178.090Q245.386 178.396 246.023 178.396L246.023 178.396Q246.831 178.396 247.731 177.674Q248.630 176.952 249.622 175.532L249.622 175.532L249.622 169.827Q249.132 169.594 248.514 169.448Q247.896 169.301 247.198 169.301L247.198 169.301Q245.399 169.301 244.456 170.488Q243.513 171.676 243.513 173.977Z"/></svg>