<svg width="480px" height="360px" xmlns="http://www.w3.org/2000/svg"><path fill="#F00" d="M250.883 162.555L250.883 164.233Q250.259 164.220 249.671 164.343Q249.083 164.465 248.637 164.728Q248.190 164.992 247.920 165.383Q247.651 165.775 247.651 166.289L247.651 166.289Q247.651 166.803 247.829 167.116Q248.006 167.428 248.226 167.697Q248.447 167.966 248.624 168.279Q248.802 168.591 248.802 169.093L248.802 169.093Q248.802 169.350 248.704 169.631Q248.606 169.913 248.404 170.145Q248.202 170.378 247.890 170.525Q247.578 170.672 247.149 170.672L247.149 170.672Q246.708 170.672 246.317 170.494Q245.925 170.317 245.625 169.950Q245.325 169.582 245.148 169.031Q244.970 168.480 244.970 167.746L244.970 167.746Q244.970 166.730 245.337 165.787Q245.705 164.845 246.445 164.129Q247.186 163.412 248.294 162.984Q249.402 162.555 250.883 162.555L250.883 162.555Z"/></svg>