<svg width="480px" height="360px" xmlns="http://www.w3.org/2000/svg"><path fill="#F00" d="M246.892 167.489L246.892 167.489Q247.272 167.489 247.614 167.642Q247.957 167.795 248.214 168.052Q248.471 168.309 248.624 168.652Q248.777 168.995 248.777 169.374L248.777 169.374Q248.777 169.766 248.624 170.103Q248.471 170.439 248.214 170.696Q247.957 170.953 247.614 171.100Q247.272 171.247 246.892 171.247L246.892 171.247Q246.500 171.247 246.164 171.100Q245.827 170.953 245.570 170.696Q245.313 170.439 245.166 170.103Q245.019 169.766 245.019 169.374L245.019 169.374Q245.019 168.995 245.166 168.652Q245.313 168.309 245.570 168.052Q245.827 167.795 246.164 167.642Q246.500 167.489 246.892 167.489ZM246.892 176.462L246.892 176.462Q247.272 176.462 247.614 176.615Q247.957 176.768 248.214 177.025Q248.471 177.282 248.624 177.625Q248.777 177.968 248.777 178.347L248.777 178.347Q248.777 178.739 248.624 179.076Q248.471 179.412 248.214 179.669Q247.957 179.927 247.614 180.073Q247.272 180.220 246.892 180.220L246.892 180.220Q246.500 180.220 246.164 180.073Q245.827 179.927 245.570 179.669Q245.313 179.412 245.166 179.076Q245.019 178.739 245.019 178.347L245.019 178.347Q245.019 177.968 245.166 177.625Q245.313 177.282 245.570 177.025Q245.827 176.768 246.164 176.615Q246.500 176.462 246.892 176.462Z"/></svg>