<svg version="1.1" xmlns="http://www.w3.org/2000/svg" xmlns:xlink="http://www.w3.org/1999/xlink" width="44.99642" height="44.99642" viewBox="0,0,44.99642,44.99642"><defs><radialGradient cx="240" cy="180" r="17.74821" gradientUnits="userSpaceOnUse" id="color-1"><stop offset="0" stop-color="#ab6fff"/><stop offset="1" stop-color="#ab6fff" stop-opacity="0"/></radialGradient><radialGradient cx="240" cy="180" r="17.74821" gradientUnits="userSpaceOnUse" id="color-2"><stop offset="0" stop-color="#c942ff"/><stop offset="1" stop-color="#c942ff" stop-opacity="0"/></radialGradient><radialGradient cx="240" cy="180" r="13.39184" gradientUnits="userSpaceOnUse" id="color-3"><stop offset="0" stop-color="#a800ff"/><stop offset="1" stop-color="#a800ff" stop-opacity="0"/></radialGradient><radialGradient cx="240" cy="180" r="13.39184" gradientUnits="userSpaceOnUse" id="color-4"><stop offset="0" stop-color="#bb00ff"/><stop offset="1" stop-color="#bb00ff" stop-opacity="0"/></radialGradient></defs><g transform="translate(-217.50179,-157.50179)"><g data-paper-data="{&quot;isPaintingLayer&quot;:true}" fill-rule="nonzero" stroke-width="9.5" stroke-linecap="butt" stroke-linejoin="miter" stroke-miterlimit="10" stroke-dasharray="" stroke-dashoffset="0" style="mix-blend-mode: normal"><path d="M222.25179,180c0,-9.80207 7.94615,-17.74821 17.74821,-17.74821c9.80207,0 17.74821,7.94615 17.74821,17.74821c0,9.80207 -7.94615,17.74821 -17.74821,17.74821c-9.80207,0 -17.74821,-7.94615 -17.74821,-17.74821z" fill="url(#color-1)" stroke="url(#color-2)"/><path d="M226.60816,180c0,-7.3961 5.99573,-13.39184 13.39184,-13.39184c7.3961,0 13.39184,5.99573 13.39184,13.39184c0,7.3961 -5.99573,13.39184 -13.39184,13.39184c-7.3961,0 -13.39184,-5.99573 -13.39184,-13.39184z" fill="url(#color-3)" stroke="url(#color-4)"/></g></g></svg>