<svg version="1.1" xmlns="http://www.w3.org/2000/svg" xmlns:xlink="http://www.w3.org/1999/xlink" width="62.36325" height="60.26072" viewBox="0,0,62.36325,60.26072"><defs><linearGradient x1="270.89485" y1="121.10217" x2="270.89485" y2="179.86288" gradientUnits="userSpaceOnUse" id="color-1"><stop offset="0" stop-color="#5a4882"/><stop offset="1" stop-color="#342d42"/></linearGradient><radialGradient cx="271.58" cy="156.6875" r="9.8125" gradientUnits="userSpaceOnUse" id="color-2"><stop offset="0" stop-color="#9affff"/><stop offset="1" stop-color="#d5edff" stop-opacity="0.26613"/></radialGradient><radialGradient cx="271.58" cy="156.6875" r="9.8125" gradientUnits="userSpaceOnUse" id="color-3"><stop offset="0" stop-color="#7bfafa"/><stop offset="1" stop-color="#7bfafa" stop-opacity="0"/></radialGradient><linearGradient x1="270.892" y1="167.57146" x2="270.892" y2="180.14296" gradientUnits="userSpaceOnUse" id="color-4"><stop offset="0" stop-color="#a78be3"/><stop offset="1" stop-color="#643db8"/></linearGradient><radialGradient cx="257.83544" cy="140.60159" r="17.02341" gradientUnits="userSpaceOnUse" id="color-5"><stop offset="0" stop-color="#56ff29"/><stop offset="1" stop-color="#56ff29" stop-opacity="0"/></radialGradient><radialGradient cx="258.205" cy="140.625" r="17" gradientUnits="userSpaceOnUse" id="color-6"><stop offset="0" stop-color="#00370d"/><stop offset="1" stop-color="#00370d" stop-opacity="0"/></radialGradient><radialGradient cx="249.205" cy="141.0625" r="3.3125" gradientUnits="userSpaceOnUse" id="color-7"><stop offset="0" stop-color="#9cff66" stop-opacity="0.47581"/><stop offset="1" stop-color="#8fd48c" stop-opacity="0.33065"/></radialGradient><radialGradient cx="249.205" cy="141.0625" r="3.3125" gradientUnits="userSpaceOnUse" id="color-8"><stop offset="0" stop-color="#00370d" stop-opacity="0.45968"/><stop offset="1" stop-color="#00370d" stop-opacity="0"/></radialGradient><radialGradient cx="284.21044" cy="140.60159" r="17.02341" gradientUnits="userSpaceOnUse" id="color-9"><stop offset="0" stop-color="#bc29ff"/><stop offset="1" stop-color="#bc29ff" stop-opacity="0"/></radialGradient><radialGradient cx="283.84088" cy="140.625" r="17" gradientUnits="userSpaceOnUse" id="color-10"><stop offset="0" stop-color="#1a0038"/><stop offset="1" stop-color="#1a0038" stop-opacity="0"/></radialGradient><radialGradient cx="250.83" cy="135.0625" r="3.3125" gradientUnits="userSpaceOnUse" id="color-11"><stop offset="0" stop-color="#9cff66" stop-opacity="0.47581"/><stop offset="1" stop-color="#8fd48c" stop-opacity="0.33065"/></radialGradient><radialGradient cx="250.83" cy="135.0625" r="3.3125" gradientUnits="userSpaceOnUse" id="color-12"><stop offset="0" stop-color="#00370d" stop-opacity="0.45968"/><stop offset="1" stop-color="#00370d" stop-opacity="0"/></radialGradient><radialGradient cx="255.705" cy="130.9375" r="3.3125" gradientUnits="userSpaceOnUse" id="color-13"><stop offset="0" stop-color="#9cff66" stop-opacity="0.47581"/><stop offset="1" stop-color="#8fd48c" stop-opacity="0.33065"/></radialGradient><radialGradient cx="255.705" cy="130.9375" r="3.3125" gradientUnits="userSpaceOnUse" id="color-14"><stop offset="0" stop-color="#00370d" stop-opacity="0.45968"/><stop offset="1" stop-color="#00370d" stop-opacity="0"/></radialGradient><radialGradient cx="261.33" cy="128.5625" r="3.3125" gradientUnits="userSpaceOnUse" id="color-15"><stop offset="0" stop-color="#9cff66" stop-opacity="0.47581"/><stop offset="1" stop-color="#8fd48c" stop-opacity="0.33065"/></radialGradient><radialGradient cx="261.33" cy="128.5625" r="3.3125" gradientUnits="userSpaceOnUse" id="color-16"><stop offset="0" stop-color="#00370d" stop-opacity="0.45968"/><stop offset="1" stop-color="#00370d" stop-opacity="0"/></radialGradient><radialGradient cx="254.83" cy="140.4375" r="3.3125" gradientUnits="userSpaceOnUse" id="color-17"><stop offset="0" stop-color="#9cff66" stop-opacity="0.47581"/><stop offset="1" stop-color="#8fd48c" stop-opacity="0.33065"/></radialGradient><radialGradient cx="254.83" cy="140.4375" r="3.3125" gradientUnits="userSpaceOnUse" id="color-18"><stop offset="0" stop-color="#00370d" stop-opacity="0.45968"/><stop offset="1" stop-color="#00370d" stop-opacity="0"/></radialGradient><radialGradient cx="256.33" cy="136.1875" r="3.3125" gradientUnits="userSpaceOnUse" id="color-19"><stop offset="0" stop-color="#9cff66" stop-opacity="0.47581"/><stop offset="1" stop-color="#8fd48c" stop-opacity="0.33065"/></radialGradient><radialGradient cx="256.33" cy="136.1875" r="3.3125" gradientUnits="userSpaceOnUse" id="color-20"><stop offset="0" stop-color="#00370d" stop-opacity="0.45968"/><stop offset="1" stop-color="#00370d" stop-opacity="0"/></radialGradient><radialGradient cx="261.205" cy="134.8125" r="3.3125" gradientUnits="userSpaceOnUse" id="color-21"><stop offset="0" stop-color="#9cff66" stop-opacity="0.47581"/><stop offset="1" stop-color="#8fd48c" stop-opacity="0.33065"/></radialGradient><radialGradient cx="261.205" cy="134.8125" r="3.3125" gradientUnits="userSpaceOnUse" id="color-22"><stop offset="0" stop-color="#00370d" stop-opacity="0.45968"/><stop offset="1" stop-color="#00370d" stop-opacity="0"/></radialGradient><radialGradient cx="260.455" cy="139.5625" r="3.3125" gradientUnits="userSpaceOnUse" id="color-23"><stop offset="0" stop-color="#9cff66" stop-opacity="0.47581"/><stop offset="1" stop-color="#8fd48c" stop-opacity="0.33065"/></radialGradient><radialGradient cx="260.455" cy="139.5625" r="3.3125" gradientUnits="userSpaceOnUse" id="color-24"><stop offset="0" stop-color="#00370d" stop-opacity="0.45968"/><stop offset="1" stop-color="#00370d" stop-opacity="0"/></radialGradient><radialGradient cx="258.705" cy="144.0625" r="3.3125" gradientUnits="userSpaceOnUse" id="color-25"><stop offset="0" stop-color="#9cff66" stop-opacity="0.47581"/><stop offset="1" stop-color="#8fd48c" stop-opacity="0.33065"/></radialGradient><radialGradient cx="258.705" cy="144.0625" r="3.3125" gradientUnits="userSpaceOnUse" id="color-26"><stop offset="0" stop-color="#00370d" stop-opacity="0.45968"/><stop offset="1" stop-color="#00370d" stop-opacity="0"/></radialGradient><radialGradient cx="253.705" cy="144.6875" r="3.3125" gradientUnits="userSpaceOnUse" id="color-27"><stop offset="0" stop-color="#9cff66" stop-opacity="0.47581"/><stop offset="1" stop-color="#8fd48c" stop-opacity="0.33065"/></radialGradient><radialGradient cx="253.705" cy="144.6875" r="3.3125" gradientUnits="userSpaceOnUse" id="color-28"><stop offset="0" stop-color="#00370d" stop-opacity="0.45968"/><stop offset="1" stop-color="#00370d" stop-opacity="0"/></radialGradient><radialGradient cx="264.08" cy="143.8125" r="3.3125" gradientUnits="userSpaceOnUse" id="color-29"><stop offset="0" stop-color="#9cff66" stop-opacity="0.47581"/><stop offset="1" stop-color="#8fd48c" stop-opacity="0.33065"/></radialGradient><radialGradient cx="264.08" cy="143.8125" r="3.3125" gradientUnits="userSpaceOnUse" id="color-30"><stop offset="0" stop-color="#00370d" stop-opacity="0.45968"/><stop offset="1" stop-color="#00370d" stop-opacity="0"/></radialGradient><radialGradient cx="261.955" cy="148.6875" r="3.3125" gradientUnits="userSpaceOnUse" id="color-31"><stop offset="0" stop-color="#9cff66" stop-opacity="0.47581"/><stop offset="1" stop-color="#8fd48c" stop-opacity="0.33065"/></radialGradient><radialGradient cx="261.955" cy="148.6875" r="3.3125" gradientUnits="userSpaceOnUse" id="color-32"><stop offset="0" stop-color="#00370d" stop-opacity="0.45968"/><stop offset="1" stop-color="#00370d" stop-opacity="0"/></radialGradient><radialGradient cx="292.96889" cy="140.95139" r="3.3125" gradientUnits="userSpaceOnUse" id="color-33"><stop offset="0" stop-color="#a466ff" stop-opacity="0.45161"/><stop offset="1" stop-color="#9d8cd4" stop-opacity="0.32258"/></radialGradient><radialGradient cx="292.96889" cy="140.95139" r="3.3125" gradientUnits="userSpaceOnUse" id="color-34"><stop offset="0" stop-color="#140038" stop-opacity="0.46799"/><stop offset="1" stop-color="#140038" stop-opacity="0"/></radialGradient><radialGradient cx="291.34389" cy="134.95139" r="3.3125" gradientUnits="userSpaceOnUse" id="color-35"><stop offset="0" stop-color="#a466ff" stop-opacity="0.45161"/><stop offset="1" stop-color="#9d8cd4" stop-opacity="0.32258"/></radialGradient><radialGradient cx="291.34389" cy="134.95139" r="3.3125" gradientUnits="userSpaceOnUse" id="color-36"><stop offset="0" stop-color="#140038" stop-opacity="0.46799"/><stop offset="1" stop-color="#140038" stop-opacity="0"/></radialGradient><radialGradient cx="286.46889" cy="130.82639" r="3.3125" gradientUnits="userSpaceOnUse" id="color-37"><stop offset="0" stop-color="#a466ff" stop-opacity="0.45161"/><stop offset="1" stop-color="#9d8cd4" stop-opacity="0.32258"/></radialGradient><radialGradient cx="286.46889" cy="130.82639" r="3.3125" gradientUnits="userSpaceOnUse" id="color-38"><stop offset="0" stop-color="#140038" stop-opacity="0.46799"/><stop offset="1" stop-color="#140038" stop-opacity="0"/></radialGradient><radialGradient cx="280.84389" cy="128.45139" r="3.3125" gradientUnits="userSpaceOnUse" id="color-39"><stop offset="0" stop-color="#a466ff" stop-opacity="0.45161"/><stop offset="1" stop-color="#9d8cd4" stop-opacity="0.32258"/></radialGradient><radialGradient cx="280.84389" cy="128.45139" r="3.3125" gradientUnits="userSpaceOnUse" id="color-40"><stop offset="0" stop-color="#140038" stop-opacity="0.46799"/><stop offset="1" stop-color="#140038" stop-opacity="0"/></radialGradient><radialGradient cx="287.34389" cy="140.32639" r="3.3125" gradientUnits="userSpaceOnUse" id="color-41"><stop offset="0" stop-color="#a466ff" stop-opacity="0.45161"/><stop offset="1" stop-color="#9d8cd4" stop-opacity="0.32258"/></radialGradient><radialGradient cx="287.34389" cy="140.32639" r="3.3125" gradientUnits="userSpaceOnUse" id="color-42"><stop offset="0" stop-color="#140038" stop-opacity="0.46799"/><stop offset="1" stop-color="#140038" stop-opacity="0"/></radialGradient><radialGradient cx="285.84389" cy="136.07639" r="3.3125" gradientUnits="userSpaceOnUse" id="color-43"><stop offset="0" stop-color="#a466ff" stop-opacity="0.45161"/><stop offset="1" stop-color="#9d8cd4" stop-opacity="0.32258"/></radialGradient><radialGradient cx="285.84389" cy="136.07639" r="3.3125" gradientUnits="userSpaceOnUse" id="color-44"><stop offset="0" stop-color="#140038" stop-opacity="0.46799"/><stop offset="1" stop-color="#140038" stop-opacity="0"/></radialGradient><radialGradient cx="280.96889" cy="134.70139" r="3.3125" gradientUnits="userSpaceOnUse" id="color-45"><stop offset="0" stop-color="#a466ff" stop-opacity="0.45161"/><stop offset="1" stop-color="#9d8cd4" stop-opacity="0.32258"/></radialGradient><radialGradient cx="280.96889" cy="134.70139" r="3.3125" gradientUnits="userSpaceOnUse" id="color-46"><stop offset="0" stop-color="#140038" stop-opacity="0.46799"/><stop offset="1" stop-color="#140038" stop-opacity="0"/></radialGradient><radialGradient cx="281.71889" cy="139.45139" r="3.3125" gradientUnits="userSpaceOnUse" id="color-47"><stop offset="0" stop-color="#a466ff" stop-opacity="0.45161"/><stop offset="1" stop-color="#9d8cd4" stop-opacity="0.32258"/></radialGradient><radialGradient cx="281.71889" cy="139.45139" r="3.3125" gradientUnits="userSpaceOnUse" id="color-48"><stop offset="0" stop-color="#140038" stop-opacity="0.46799"/><stop offset="1" stop-color="#140038" stop-opacity="0"/></radialGradient><radialGradient cx="283.46889" cy="143.95139" r="3.3125" gradientUnits="userSpaceOnUse" id="color-49"><stop offset="0" stop-color="#a466ff" stop-opacity="0.45161"/><stop offset="1" stop-color="#9d8cd4" stop-opacity="0.32258"/></radialGradient><radialGradient cx="283.46889" cy="143.95139" r="3.3125" gradientUnits="userSpaceOnUse" id="color-50"><stop offset="0" stop-color="#140038" stop-opacity="0.46799"/><stop offset="1" stop-color="#140038" stop-opacity="0"/></radialGradient><radialGradient cx="288.46889" cy="144.57639" r="3.3125" gradientUnits="userSpaceOnUse" id="color-51"><stop offset="0" stop-color="#a466ff" stop-opacity="0.45161"/><stop offset="1" stop-color="#9d8cd4" stop-opacity="0.32258"/></radialGradient><radialGradient cx="288.46889" cy="144.57639" r="3.3125" gradientUnits="userSpaceOnUse" id="color-52"><stop offset="0" stop-color="#140038" stop-opacity="0.46799"/><stop offset="1" stop-color="#140038" stop-opacity="0"/></radialGradient><radialGradient cx="278.09389" cy="143.70139" r="3.3125" gradientUnits="userSpaceOnUse" id="color-53"><stop offset="0" stop-color="#a466ff" stop-opacity="0.45161"/><stop offset="1" stop-color="#9d8cd4" stop-opacity="0.32258"/></radialGradient><radialGradient cx="278.09389" cy="143.70139" r="3.3125" gradientUnits="userSpaceOnUse" id="color-54"><stop offset="0" stop-color="#140038" stop-opacity="0.46799"/><stop offset="1" stop-color="#140038" stop-opacity="0"/></radialGradient><radialGradient cx="280.21889" cy="148.57639" r="3.3125" gradientUnits="userSpaceOnUse" id="color-55"><stop offset="0" stop-color="#a466ff" stop-opacity="0.45161"/><stop offset="1" stop-color="#9d8cd4" stop-opacity="0.32258"/></radialGradient><radialGradient cx="280.21889" cy="148.57639" r="3.3125" gradientUnits="userSpaceOnUse" id="color-56"><stop offset="0" stop-color="#140038" stop-opacity="0.46799"/><stop offset="1" stop-color="#140038" stop-opacity="0"/></radialGradient><radialGradient cx="264.84389" cy="138.84028" r="2.70139" gradientUnits="userSpaceOnUse" id="color-57"><stop offset="0" stop-color="#9cff66" stop-opacity="0.47581"/><stop offset="1" stop-color="#8fd48c" stop-opacity="0.33065"/></radialGradient><radialGradient cx="264.84389" cy="138.84028" r="2.70139" gradientUnits="userSpaceOnUse" id="color-58"><stop offset="0" stop-color="#00370d" stop-opacity="0.45968"/><stop offset="1" stop-color="#00370d" stop-opacity="0"/></radialGradient><radialGradient cx="257.34389" cy="148.00695" r="2.20139" gradientUnits="userSpaceOnUse" id="color-59"><stop offset="0" stop-color="#9cff66" stop-opacity="0.47581"/><stop offset="1" stop-color="#8fd48c" stop-opacity="0.33065"/></radialGradient><radialGradient cx="257.34389" cy="148.00695" r="2.20139" gradientUnits="userSpaceOnUse" id="color-60"><stop offset="0" stop-color="#00370d" stop-opacity="0.45968"/><stop offset="1" stop-color="#00370d" stop-opacity="0"/></radialGradient><radialGradient cx="266.39945" cy="148.50694" r="2.03472" gradientUnits="userSpaceOnUse" id="color-61"><stop offset="0" stop-color="#9cff66" stop-opacity="0.47581"/><stop offset="1" stop-color="#8fd48c" stop-opacity="0.33065"/></radialGradient><radialGradient cx="266.39945" cy="148.50694" r="2.03472" gradientUnits="userSpaceOnUse" id="color-62"><stop offset="0" stop-color="#00370d" stop-opacity="0.45968"/><stop offset="1" stop-color="#00370d" stop-opacity="0"/></radialGradient><radialGradient cx="277.09389" cy="138.8125" r="2.42361" gradientUnits="userSpaceOnUse" id="color-63"><stop offset="0" stop-color="#a466ff" stop-opacity="0.45161"/><stop offset="1" stop-color="#9d8cd4" stop-opacity="0.32258"/></radialGradient><radialGradient cx="277.09389" cy="138.8125" r="2.42361" gradientUnits="userSpaceOnUse" id="color-64"><stop offset="0" stop-color="#140038" stop-opacity="0.46799"/><stop offset="1" stop-color="#140038" stop-opacity="0"/></radialGradient><radialGradient cx="284.76056" cy="148.47917" r="1.86805" gradientUnits="userSpaceOnUse" id="color-65"><stop offset="0" stop-color="#a466ff" stop-opacity="0.45161"/><stop offset="1" stop-color="#9d8cd4" stop-opacity="0.32258"/></radialGradient><radialGradient cx="284.76056" cy="148.47917" r="1.86805" gradientUnits="userSpaceOnUse" id="color-66"><stop offset="0" stop-color="#140038" stop-opacity="0.46799"/><stop offset="1" stop-color="#140038" stop-opacity="0"/></radialGradient><radialGradient cx="275.42722" cy="147.47917" r="1.86806" gradientUnits="userSpaceOnUse" id="color-67"><stop offset="0" stop-color="#a466ff" stop-opacity="0.45161"/><stop offset="1" stop-color="#9d8cd4" stop-opacity="0.32258"/></radialGradient><radialGradient cx="275.42722" cy="147.47917" r="1.86806" gradientUnits="userSpaceOnUse" id="color-68"><stop offset="0" stop-color="#140038" stop-opacity="0.46799"/><stop offset="1" stop-color="#140038" stop-opacity="0"/></radialGradient><radialGradient cx="263.56611" cy="131.5625" r="2.20139" gradientUnits="userSpaceOnUse" id="color-69"><stop offset="0" stop-color="#9cff66" stop-opacity="0.47581"/><stop offset="1" stop-color="#8fd48c" stop-opacity="0.33065"/></radialGradient><radialGradient cx="263.56611" cy="131.5625" r="2.20139" gradientUnits="userSpaceOnUse" id="color-70"><stop offset="0" stop-color="#00370d" stop-opacity="0.45968"/><stop offset="1" stop-color="#00370d" stop-opacity="0"/></radialGradient><radialGradient cx="264.23278" cy="135.11806" r="2.20139" gradientUnits="userSpaceOnUse" id="color-71"><stop offset="0" stop-color="#9cff66" stop-opacity="0.47581"/><stop offset="1" stop-color="#8fd48c" stop-opacity="0.33065"/></radialGradient><radialGradient cx="264.23278" cy="135.11806" r="2.20139" gradientUnits="userSpaceOnUse" id="color-72"><stop offset="0" stop-color="#00370d" stop-opacity="0.45968"/><stop offset="1" stop-color="#00370d" stop-opacity="0"/></radialGradient><radialGradient cx="277.87166" cy="131.8125" r="1.86805" gradientUnits="userSpaceOnUse" id="color-73"><stop offset="0" stop-color="#a466ff" stop-opacity="0.45161"/><stop offset="1" stop-color="#9d8cd4" stop-opacity="0.32258"/></radialGradient><radialGradient cx="277.87166" cy="131.8125" r="1.86805" gradientUnits="userSpaceOnUse" id="color-74"><stop offset="0" stop-color="#140038" stop-opacity="0.46799"/><stop offset="1" stop-color="#140038" stop-opacity="0"/></radialGradient><radialGradient cx="277.205" cy="135.36806" r="1.86806" gradientUnits="userSpaceOnUse" id="color-75"><stop offset="0" stop-color="#a466ff" stop-opacity="0.45161"/><stop offset="1" stop-color="#9d8cd4" stop-opacity="0.32258"/></radialGradient><radialGradient cx="277.205" cy="135.36806" r="1.86806" gradientUnits="userSpaceOnUse" id="color-76"><stop offset="0" stop-color="#140038" stop-opacity="0.46799"/><stop offset="1" stop-color="#140038" stop-opacity="0"/></radialGradient></defs><g transform="translate(-239.71327,-120.35215)"><g data-paper-data="{&quot;isPaintingLayer&quot;:true}" fill-rule="nonzero" stroke-linejoin="miter" stroke-miterlimit="10" stroke-dasharray="" stroke-dashoffset="0" style="mix-blend-mode: normal"><path d="M240.46327,179.86288v-58.76072h60.86325v58.76072z" fill="url(#color-1)" stroke="#916fdc" stroke-width="1.5" stroke-linecap="butt"/><path d="M261.7675,156.6875c0,-5.4193 4.39321,-9.8125 9.8125,-9.8125c5.41929,0 9.8125,4.3932 9.8125,9.8125c0,5.4193 -4.39321,9.8125 -9.8125,9.8125c-5.41929,0 -9.8125,-4.3932 -9.8125,-9.8125z" fill="url(#color-2)" stroke="url(#color-3)" stroke-width="4.5" stroke-linecap="butt"/><path d="M239.96343,180.14296v-12.57143h61.85715v12.57143z" fill="url(#color-4)" stroke="none" stroke-width="0" stroke-linecap="butt"/><path d="M245.0175,145l26.375,12.625l-6.125,-34c0,0 -8.50174,-1.02195 -16.51058,6.4834c-6.94642,6.50972 -3.73941,14.8916 -3.73941,14.8916z" fill="url(#color-5)" stroke="url(#color-6)" stroke-width="2.5" stroke-linecap="round"/><path d="M245.8925,141.0625c0,-1.82944 1.48306,-3.3125 3.3125,-3.3125c1.82944,0 3.3125,1.48306 3.3125,3.3125c0,1.82944 -1.48306,3.3125 -3.3125,3.3125c-1.82944,0 -3.3125,-1.48306 -3.3125,-3.3125z" fill="url(#color-7)" stroke="url(#color-8)" stroke-width="2.5" stroke-linecap="butt"/><path d="M297.02838,145l-26.375,12.625l6.125,-34c0,0 8.50174,-1.02195 16.51058,6.4834c6.94642,6.50972 3.73942,14.8916 3.73942,14.8916z" data-paper-data="{&quot;index&quot;:null}" fill="url(#color-9)" stroke="url(#color-10)" stroke-width="2.5" stroke-linecap="round"/><path d="M247.5175,135.0625c0,-1.82944 1.48306,-3.3125 3.3125,-3.3125c1.82944,0 3.3125,1.48306 3.3125,3.3125c0,1.82944 -1.48306,3.3125 -3.3125,3.3125c-1.82944,0 -3.3125,-1.48306 -3.3125,-3.3125z" fill="url(#color-11)" stroke="url(#color-12)" stroke-width="2.5" stroke-linecap="butt"/><path d="M252.3925,130.9375c0,-1.82944 1.48306,-3.3125 3.3125,-3.3125c1.82944,0 3.3125,1.48306 3.3125,3.3125c0,1.82944 -1.48305,3.3125 -3.3125,3.3125c-1.82944,0 -3.3125,-1.48306 -3.3125,-3.3125z" fill="url(#color-13)" stroke="url(#color-14)" stroke-width="2.5" stroke-linecap="butt"/><path d="M258.0175,128.5625c0,-1.82945 1.48305,-3.3125 3.3125,-3.3125c1.82945,0 3.3125,1.48305 3.3125,3.3125c0,1.82944 -1.48305,3.3125 -3.3125,3.3125c-1.82945,0 -3.3125,-1.48306 -3.3125,-3.3125z" fill="url(#color-15)" stroke="url(#color-16)" stroke-width="2.5" stroke-linecap="butt"/><path d="M251.5175,140.4375c0,-1.82944 1.48306,-3.3125 3.3125,-3.3125c1.82944,0 3.3125,1.48306 3.3125,3.3125c0,1.82944 -1.48305,3.3125 -3.3125,3.3125c-1.82944,0 -3.3125,-1.48306 -3.3125,-3.3125z" fill="url(#color-17)" stroke="url(#color-18)" stroke-width="2.5" stroke-linecap="butt"/><path d="M253.0175,136.1875c0,-1.82944 1.48305,-3.3125 3.3125,-3.3125c1.82945,0 3.3125,1.48306 3.3125,3.3125c0,1.82944 -1.48305,3.3125 -3.3125,3.3125c-1.82944,0 -3.3125,-1.48306 -3.3125,-3.3125z" fill="url(#color-19)" stroke="url(#color-20)" stroke-width="2.5" stroke-linecap="butt"/><path d="M257.8925,134.8125c0,-1.82944 1.48305,-3.3125 3.3125,-3.3125c1.82945,0 3.3125,1.48306 3.3125,3.3125c0,1.82944 -1.48305,3.3125 -3.3125,3.3125c-1.82945,0 -3.3125,-1.48306 -3.3125,-3.3125z" fill="url(#color-21)" stroke="url(#color-22)" stroke-width="2.5" stroke-linecap="butt"/><path d="M257.1425,139.5625c0,-1.82944 1.48305,-3.3125 3.3125,-3.3125c1.82945,0 3.3125,1.48306 3.3125,3.3125c0,1.82944 -1.48305,3.3125 -3.3125,3.3125c-1.82945,0 -3.3125,-1.48306 -3.3125,-3.3125z" fill="url(#color-23)" stroke="url(#color-24)" stroke-width="2.5" stroke-linecap="butt"/><path d="M255.3925,144.0625c0,-1.82944 1.48305,-3.3125 3.3125,-3.3125c1.82945,0 3.3125,1.48306 3.3125,3.3125c0,1.82944 -1.48305,3.3125 -3.3125,3.3125c-1.82945,0 -3.3125,-1.48306 -3.3125,-3.3125z" fill="url(#color-25)" stroke="url(#color-26)" stroke-width="2.5" stroke-linecap="butt"/><path d="M250.3925,144.6875c0,-1.82944 1.48305,-3.3125 3.3125,-3.3125c1.82945,0 3.3125,1.48306 3.3125,3.3125c0,1.82944 -1.48305,3.3125 -3.3125,3.3125c-1.82945,0 -3.3125,-1.48306 -3.3125,-3.3125z" fill="url(#color-27)" stroke="url(#color-28)" stroke-width="2.5" stroke-linecap="butt"/><path d="M260.7675,143.8125c0,-1.82944 1.48305,-3.3125 3.3125,-3.3125c1.82944,0 3.3125,1.48306 3.3125,3.3125c0,1.82944 -1.48305,3.3125 -3.3125,3.3125c-1.82945,0 -3.3125,-1.48306 -3.3125,-3.3125z" fill="url(#color-29)" stroke="url(#color-30)" stroke-width="2.5" stroke-linecap="butt"/><path d="M258.6425,148.6875c0,-1.82944 1.48305,-3.3125 3.3125,-3.3125c1.82945,0 3.3125,1.48306 3.3125,3.3125c0,1.82944 -1.48305,3.3125 -3.3125,3.3125c-1.82945,0 -3.3125,-1.48306 -3.3125,-3.3125z" fill="url(#color-31)" stroke="url(#color-32)" stroke-width="2.5" stroke-linecap="butt"/><path d="M292.96889,144.26389c-1.82944,0 -3.3125,-1.48306 -3.3125,-3.3125c0,-1.82944 1.48306,-3.3125 3.3125,-3.3125c1.82945,0 3.3125,1.48306 3.3125,3.3125c0,1.82944 -1.48305,3.3125 -3.3125,3.3125z" data-paper-data="{&quot;index&quot;:null}" fill="url(#color-33)" stroke="url(#color-34)" stroke-width="2.5" stroke-linecap="butt"/><path d="M291.34389,138.26389c-1.82944,0 -3.3125,-1.48306 -3.3125,-3.3125c0,-1.82944 1.48306,-3.3125 3.3125,-3.3125c1.82945,0 3.3125,1.48306 3.3125,3.3125c0,1.82944 -1.48305,3.3125 -3.3125,3.3125z" data-paper-data="{&quot;index&quot;:null}" fill="url(#color-35)" stroke="url(#color-36)" stroke-width="2.5" stroke-linecap="butt"/><path d="M286.46889,134.13889c-1.82944,0 -3.3125,-1.48306 -3.3125,-3.3125c0,-1.82944 1.48305,-3.3125 3.3125,-3.3125c1.82945,0 3.3125,1.48306 3.3125,3.3125c0,1.82944 -1.48306,3.3125 -3.3125,3.3125z" data-paper-data="{&quot;index&quot;:null}" fill="url(#color-37)" stroke="url(#color-38)" stroke-width="2.5" stroke-linecap="butt"/><path d="M280.84389,131.76389c-1.82945,0 -3.3125,-1.48306 -3.3125,-3.3125c0,-1.82945 1.48305,-3.3125 3.3125,-3.3125c1.82945,0 3.3125,1.48305 3.3125,3.3125c0,1.82944 -1.48305,3.3125 -3.3125,3.3125z" data-paper-data="{&quot;index&quot;:null}" fill="url(#color-39)" stroke="url(#color-40)" stroke-width="2.5" stroke-linecap="butt"/><path d="M287.34389,143.63889c-1.82944,0 -3.3125,-1.48306 -3.3125,-3.3125c0,-1.82944 1.48305,-3.3125 3.3125,-3.3125c1.82945,0 3.3125,1.48306 3.3125,3.3125c0,1.82944 -1.48306,3.3125 -3.3125,3.3125z" data-paper-data="{&quot;index&quot;:null}" fill="url(#color-41)" stroke="url(#color-42)" stroke-width="2.5" stroke-linecap="butt"/><path d="M285.84389,139.38889c-1.82945,0 -3.3125,-1.48306 -3.3125,-3.3125c0,-1.82944 1.48305,-3.3125 3.3125,-3.3125c1.82945,0 3.3125,1.48306 3.3125,3.3125c0,1.82944 -1.48305,3.3125 -3.3125,3.3125z" data-paper-data="{&quot;index&quot;:null}" fill="url(#color-43)" stroke="url(#color-44)" stroke-width="2.5" stroke-linecap="butt"/><path d="M280.96889,138.01389c-1.82945,0 -3.3125,-1.48306 -3.3125,-3.3125c0,-1.82944 1.48305,-3.3125 3.3125,-3.3125c1.82945,0 3.3125,1.48306 3.3125,3.3125c0,1.82944 -1.48305,3.3125 -3.3125,3.3125z" data-paper-data="{&quot;index&quot;:null}" fill="url(#color-45)" stroke="url(#color-46)" stroke-width="2.5" stroke-linecap="butt"/><path d="M281.71889,142.76389c-1.82945,0 -3.3125,-1.48306 -3.3125,-3.3125c0,-1.82944 1.48305,-3.3125 3.3125,-3.3125c1.82945,0 3.3125,1.48306 3.3125,3.3125c0,1.82944 -1.48305,3.3125 -3.3125,3.3125z" data-paper-data="{&quot;index&quot;:null}" fill="url(#color-47)" stroke="url(#color-48)" stroke-width="2.5" stroke-linecap="butt"/><path d="M283.46889,147.26389c-1.82945,0 -3.3125,-1.48306 -3.3125,-3.3125c0,-1.82944 1.48305,-3.3125 3.3125,-3.3125c1.82944,0 3.3125,1.48306 3.3125,3.3125c0,1.82944 -1.48305,3.3125 -3.3125,3.3125z" data-paper-data="{&quot;index&quot;:null}" fill="url(#color-49)" stroke="url(#color-50)" stroke-width="2.5" stroke-linecap="butt"/><path d="M288.46889,147.88889c-1.82944,0 -3.3125,-1.48306 -3.3125,-3.3125c0,-1.82944 1.48305,-3.3125 3.3125,-3.3125c1.82945,0 3.3125,1.48306 3.3125,3.3125c0,1.82944 -1.48306,3.3125 -3.3125,3.3125z" data-paper-data="{&quot;index&quot;:null}" fill="url(#color-51)" stroke="url(#color-52)" stroke-width="2.5" stroke-linecap="butt"/><path d="M278.09389,147.01389c-1.82945,0 -3.3125,-1.48306 -3.3125,-3.3125c0,-1.82944 1.48305,-3.3125 3.3125,-3.3125c1.82945,0 3.3125,1.48306 3.3125,3.3125c0,1.82944 -1.48305,3.3125 -3.3125,3.3125z" data-paper-data="{&quot;index&quot;:null}" fill="url(#color-53)" stroke="url(#color-54)" stroke-width="2.5" stroke-linecap="butt"/><path d="M280.21889,151.88889c-1.82945,0 -3.3125,-1.48306 -3.3125,-3.3125c0,-1.82944 1.48305,-3.3125 3.3125,-3.3125c1.82945,0 3.3125,1.48306 3.3125,3.3125c0,1.82944 -1.48305,3.3125 -3.3125,3.3125z" data-paper-data="{&quot;index&quot;:null}" fill="url(#color-55)" stroke="url(#color-56)" stroke-width="2.5" stroke-linecap="butt"/><path d="M262.1425,138.84028c0,-1.49194 1.20945,-2.70139 2.70139,-2.70139c1.49194,0 2.70139,1.20945 2.70139,2.70139c0,1.49194 -1.20945,2.70139 -2.70139,2.70139c-1.49194,0 -2.70139,-1.20945 -2.70139,-2.70139z" fill="url(#color-57)" stroke="url(#color-58)" stroke-width="2.5" stroke-linecap="butt"/><path d="M255.1425,148.00695c0,-1.21579 0.9856,-2.20139 2.20139,-2.20139c1.21579,0 2.20139,0.9856 2.20139,2.20139c0,1.21579 -0.9856,2.20139 -2.20139,2.20139c-1.21579,0 -2.20139,-0.98559 -2.20139,-2.20139z" fill="url(#color-59)" stroke="url(#color-60)" stroke-width="2.5" stroke-linecap="butt"/><path d="M264.36472,148.50694c0,-1.12375 0.91098,-2.03472 2.03472,-2.03472c1.12375,0 2.03472,0.91098 2.03472,2.03472c0,1.12375 -0.91098,2.03472 -2.03472,2.03472c-1.12375,0 -2.03472,-0.91097 -2.03472,-2.03472z" fill="url(#color-61)" stroke="url(#color-62)" stroke-width="2.5" stroke-linecap="butt"/><path d="M277.09389,141.23611c-1.33852,0 -2.42361,-1.08509 -2.42361,-2.42361c0,-1.33852 1.08509,-2.42361 2.42361,-2.42361c1.33852,0 2.42361,1.08509 2.42361,2.42361c0,1.33852 -1.08509,2.42361 -2.42361,2.42361z" data-paper-data="{&quot;index&quot;:null}" fill="url(#color-63)" stroke="url(#color-64)" stroke-width="2.5" stroke-linecap="butt"/><path d="M284.76056,150.34722c-1.0317,0 -1.86805,-0.83635 -1.86805,-1.86805c0,-1.0317 0.83635,-1.86805 1.86805,-1.86805c1.0317,0 1.86805,0.83635 1.86805,1.86805c0,1.0317 -0.83635,1.86805 -1.86805,1.86805z" data-paper-data="{&quot;index&quot;:null}" fill="url(#color-65)" stroke="url(#color-66)" stroke-width="2.5" stroke-linecap="butt"/><path d="M275.42722,149.34722c-1.0317,0 -1.86806,-0.83635 -1.86806,-1.86805c0,-1.0317 0.83636,-1.86805 1.86806,-1.86805c1.0317,0 1.86805,0.83635 1.86805,1.86805c0,1.0317 -0.83635,1.86805 -1.86805,1.86805z" data-paper-data="{&quot;index&quot;:null}" fill="url(#color-67)" stroke="url(#color-68)" stroke-width="2.5" stroke-linecap="butt"/><path d="M261.36472,131.5625c0,-1.21579 0.98559,-2.20139 2.20139,-2.20139c1.2158,0 2.20139,0.9856 2.20139,2.20139c0,1.21579 -0.98559,2.20138 -2.20139,2.20138c-1.2158,0 -2.20139,-0.98559 -2.20139,-2.20138z" fill="url(#color-69)" stroke="url(#color-70)" stroke-width="2.5" stroke-linecap="butt"/><path d="M262.03139,135.11806c0,-1.2158 0.98559,-2.20139 2.20139,-2.20139c1.2158,0 2.20139,0.98559 2.20139,2.20139c0,1.2158 -0.98559,2.20138 -2.20139,2.20138c-1.2158,0 -2.20139,-0.98559 -2.20139,-2.20138z" fill="url(#color-71)" stroke="url(#color-72)" stroke-width="2.5" stroke-linecap="butt"/><path d="M277.87166,133.68055c-1.0317,0 -1.86805,-0.83635 -1.86805,-1.86805c0,-1.0317 0.83635,-1.86805 1.86805,-1.86805c1.0317,0 1.86806,0.83635 1.86806,1.86805c0,1.0317 -0.83636,1.86805 -1.86806,1.86805z" data-paper-data="{&quot;index&quot;:null}" fill="url(#color-73)" stroke="url(#color-74)" stroke-width="2.5" stroke-linecap="butt"/><path d="M277.205,137.23611c-1.0317,0 -1.86806,-0.83635 -1.86806,-1.86805c0,-1.0317 0.83636,-1.86805 1.86806,-1.86805c1.0317,0 1.86805,0.83635 1.86805,1.86805c0,1.0317 -0.83635,1.86805 -1.86805,1.86805z" data-paper-data="{&quot;index&quot;:null}" fill="url(#color-75)" stroke="url(#color-76)" stroke-width="2.5" stroke-linecap="butt"/></g></g></svg>