<svg width="480px" height="360px" xmlns="http://www.w3.org/2000/svg"><path fill="#F00" d="M251.177 166.583L251.177 166.583Q251.177 167.464 250.858 168.230Q250.540 168.995 249.965 169.558Q249.389 170.121 248.588 170.445Q247.786 170.770 246.819 170.770L246.819 170.770Q245.803 170.770 245.019 170.476Q244.236 170.182 243.697 169.650Q243.158 169.117 242.883 168.376Q242.607 167.636 242.607 166.742L242.607 166.742Q242.607 165.861 242.926 165.096Q243.244 164.331 243.819 163.767Q244.395 163.204 245.197 162.880Q245.998 162.555 246.966 162.555L246.966 162.555Q247.982 162.555 248.771 162.849Q249.561 163.143 250.093 163.676Q250.626 164.208 250.901 164.949Q251.177 165.689 251.177 166.583ZM249.194 166.656L249.194 166.656Q249.194 166.130 249.059 165.683Q248.924 165.236 248.649 164.906Q248.373 164.575 247.939 164.392Q247.504 164.208 246.892 164.208L246.892 164.208Q246.341 164.208 245.913 164.386Q245.484 164.563 245.191 164.881Q244.897 165.200 244.744 165.653Q244.591 166.106 244.591 166.656L244.591 166.656Q244.591 167.183 244.719 167.636Q244.848 168.089 245.129 168.419Q245.411 168.750 245.845 168.933Q246.280 169.117 246.892 169.117L246.892 169.117Q247.994 169.117 248.594 168.444Q249.194 167.770 249.194 166.656Z"/></svg>