<svg version="1.1" xmlns="http://www.w3.org/2000/svg" xmlns:xlink="http://www.w3.org/1999/xlink" width="240.6" height="180.6" viewBox="0,0,240.6,180.6"><defs><linearGradient x1="120" y1="90" x2="120" y2="270" gradientUnits="userSpaceOnUse" id="color-1"><stop offset="0" stop-color="#0b697c"/><stop offset="1" stop-color="#021618"/></linearGradient></defs><g transform="translate(-119.7,-89.7)"><g data-paper-data="{&quot;isPaintingLayer&quot;:true}" fill-rule="nonzero" stroke-linejoin="miter" stroke-miterlimit="10" stroke-dasharray="" stroke-dashoffset="0" style="mix-blend-mode: normal"><path d="M120,270v-180h240v180z" fill="url(#color-1)" stroke="none" stroke-width="1" stroke-linecap="butt"/><path d="M120,90h240" fill="#000000" stroke-opacity="0.5" stroke="#ffffff" stroke-width="0.6" stroke-linecap="butt"/><path d="M120,102h240" fill="#000000" stroke-opacity="0.5" stroke="#ffffff" stroke-width="0.6" stroke-linecap="butt"/><path d="M120,114h240" fill="#000000" stroke-opacity="0.5" stroke="#ffffff" stroke-width="0.6" stroke-linecap="butt"/><path d="M120,126h240" fill="#000000" stroke-opacity="0.5" stroke="#ffffff" stroke-width="0.6" stroke-linecap="butt"/><path d="M120,138h240" fill="#000000" stroke-opacity="0.5" stroke="#ffffff" stroke-width="0.6" stroke-linecap="butt"/><path d="M120,150h240" fill="#000000" stroke-opacity="0.5" stroke="#ffffff" stroke-width="0.6" stroke-linecap="butt"/><path d="M120,162h240" fill="#000000" stroke-opacity="0.5" stroke="#ffffff" stroke-width="0.6" stroke-linecap="butt"/><path d="M120,174h240" fill="#000000" stroke-opacity="0.5" stroke="#ffffff" stroke-width="0.6" stroke-linecap="butt"/><path d="M120,186h240" fill="#000000" stroke-opacity="0.5" stroke="#ffffff" stroke-width="0.6" stroke-linecap="butt"/><path d="M120,198h240" fill="#000000" stroke-opacity="0.5" stroke="#ffffff" stroke-width="0.6" stroke-linecap="butt"/><path d="M120,210h240" fill="#000000" stroke-opacity="0.5" stroke="#ffffff" stroke-width="0.6" stroke-linecap="butt"/><path d="M120,222h240" fill="#000000" stroke-opacity="0.5" stroke="#ffffff" stroke-width="0.6" stroke-linecap="butt"/><path d="M120,234h240" fill="#000000" stroke-opacity="0.5" stroke="#ffffff" stroke-width="0.6" stroke-linecap="butt"/><path d="M120,246h240" fill="#000000" stroke-opacity="0.5" stroke="#ffffff" stroke-width="0.6" stroke-linecap="butt"/><path d="M120,258h240" fill="#000000" stroke-opacity="0.5" stroke="#ffffff" stroke-width="0.6" stroke-linecap="butt"/><path d="M120,270h240" fill="#000000" stroke-opacity="0.5" stroke="#ffffff" stroke-width="0.6" stroke-linecap="butt"/><path d="M120,90v180" fill="#000000" stroke-opacity="0.5" stroke="#ffffff" stroke-width="0.6" stroke-linecap="butt"/><path d="M132,90v180" fill="#000000" stroke-opacity="0.5" stroke="#ffffff" stroke-width="0.6" stroke-linecap="butt"/><path d="M144,90v180" fill="#000000" stroke-opacity="0.5" stroke="#ffffff" stroke-width="0.6" stroke-linecap="butt"/><path d="M156,90v180" fill="#000000" stroke-opacity="0.5" stroke="#ffffff" stroke-width="0.6" stroke-linecap="butt"/><path d="M168,90v180" fill="#000000" stroke-opacity="0.5" stroke="#ffffff" stroke-width="0.6" stroke-linecap="butt"/><path d="M180,90v180" fill="#000000" stroke-opacity="0.5" stroke="#ffffff" stroke-width="0.6" stroke-linecap="butt"/><path d="M192,90v180" fill="#000000" stroke-opacity="0.5" stroke="#ffffff" stroke-width="0.6" stroke-linecap="butt"/><path d="M204,90v180" fill="#000000" stroke-opacity="0.5" stroke="#ffffff" stroke-width="0.6" stroke-linecap="butt"/><path d="M216,90v180" fill="#000000" stroke-opacity="0.5" stroke="#ffffff" stroke-width="0.6" stroke-linecap="butt"/><path d="M228,90v180" fill="#000000" stroke-opacity="0.5" stroke="#ffffff" stroke-width="0.6" stroke-linecap="butt"/><path d="M240,90v180" fill="#000000" stroke-opacity="0.5" stroke="#ffffff" stroke-width="0.6" stroke-linecap="butt"/><path d="M252,90v180" fill="#000000" stroke-opacity="0.5" stroke="#ffffff" stroke-width="0.6" stroke-linecap="butt"/><path d="M264,90v180" fill="#000000" stroke-opacity="0.5" stroke="#ffffff" stroke-width="0.6" stroke-linecap="butt"/><path d="M276,90v180" fill="#000000" stroke-opacity="0.5" stroke="#ffffff" stroke-width="0.6" stroke-linecap="butt"/><path d="M288,90v180" fill="#000000" stroke-opacity="0.5" stroke="#ffffff" stroke-width="0.6" stroke-linecap="butt"/><path d="M300,90v180" fill="#000000" stroke-opacity="0.5" stroke="#ffffff" stroke-width="0.6" stroke-linecap="butt"/><path d="M312,90v180" fill="#000000" stroke-opacity="0.5" stroke="#ffffff" stroke-width="0.6" stroke-linecap="butt"/><path d="M324,90v180" fill="#000000" stroke-opacity="0.5" stroke="#ffffff" stroke-width="0.6" stroke-linecap="butt"/><path d="M336,90v180" fill="#000000" stroke-opacity="0.5" stroke="#ffffff" stroke-width="0.6" stroke-linecap="butt"/><path d="M348,90v180" fill="#000000" stroke-opacity="0.5" stroke="#ffffff" stroke-width="0.6" stroke-linecap="butt"/><path d="M360,90v180" fill="#000000" stroke-opacity="0.5" stroke="#ffffff" stroke-width="0.6" stroke-linecap="butt"/><path d="M138,156v36" fill="#000000" stroke-opacity="0.5" stroke="#a3ff33" stroke-width="11.4" stroke-linecap="round"/><path d="M150,156v36" fill="#000000" stroke-opacity="0.5" stroke="#a3ff33" stroke-width="11.4" stroke-linecap="round"/><path d="M330,156v36" fill="#000000" stroke-opacity="0.5" stroke="#a3ff33" stroke-width="11.4" stroke-linecap="round"/><path d="M342,156v36" fill="#000000" stroke-opacity="0.5" stroke="#a3ff33" stroke-width="11.4" stroke-linecap="round"/><path d="M150,216h36" fill="#000000" stroke-opacity="0.5" stroke="#a3ff33" stroke-width="11.4" stroke-linecap="round"/><path d="M150,228h48" fill="#000000" stroke-opacity="0.5" stroke="#a3ff33" stroke-width="11.4" stroke-linecap="round"/><path d="M150,240h48" fill="#000000" stroke-opacity="0.5" stroke="#a3ff33" stroke-width="11.4" stroke-linecap="round"/><path d="M294,216h36" fill="#000000" stroke-opacity="0.5" stroke="#a3ff33" stroke-width="11.4" stroke-linecap="round"/><path d="M282,228h48" fill="#000000" stroke-opacity="0.5" stroke="#a3ff33" stroke-width="11.4" stroke-linecap="round"/><path d="M282,240h48" fill="#000000" stroke-opacity="0.5" stroke="#a3ff33" stroke-width="11.4" stroke-linecap="round"/><path d="M222,240h36" fill="#000000" stroke-opacity="0.5" stroke="#a3ff33" stroke-width="11.4" stroke-linecap="round"/><path d="M222,252h36" fill="#000000" stroke-opacity="0.5" stroke="#a3ff33" stroke-width="11.4" stroke-linecap="round"/><path d="M138,156v36" fill="#000000" stroke="#bbff3d" stroke-width="7.8" stroke-linecap="round"/><path d="M150,156v36" fill="#000000" stroke="#bbff3d" stroke-width="7.8" stroke-linecap="round"/><path d="M330,156v36" fill="#000000" stroke="#bbff3d" stroke-width="7.8" stroke-linecap="round"/><path d="M342,156v36" fill="#000000" stroke="#bbff3d" stroke-width="7.8" stroke-linecap="round"/><path d="M150,216h36" fill="#000000" stroke="#bbff3d" stroke-width="7.8" stroke-linecap="round"/><path d="M150,228h48" fill="#000000" stroke="#bbff3d" stroke-width="7.8" stroke-linecap="round"/><path d="M150,240h48" fill="#000000" stroke="#bbff3d" stroke-width="7.8" stroke-linecap="round"/><path d="M294,216h36" fill="#000000" stroke="#bbff3d" stroke-width="7.8" stroke-linecap="round"/><path d="M282,228h48" fill="#000000" stroke="#bbff3d" stroke-width="7.8" stroke-linecap="round"/><path d="M282,240h48" fill="#000000" stroke="#bbff3d" stroke-width="7.8" stroke-linecap="round"/><path d="M222,240h36" fill="#000000" stroke="#bbff3d" stroke-width="7.8" stroke-linecap="round"/><path d="M222,252h36" fill="#000000" stroke="#bbff3d" stroke-width="7.8" stroke-linecap="round"/><path d="M138,150c-3.31371,0 -6,-2.68629 -6,-6v-48c0,-3.31371 2.68629,-6 6,-6v0c3.31371,0 6,2.68629 6,6v48c0,3.31371 -2.68629,6 -6,6z" fill="#bcd5e0" stroke="none" stroke-width="1" stroke-linecap="butt"/><path d="M138,150c-3.31371,0 -6,-2.68629 -6,-6v0c0,-3.31371 2.68629,-6 6,-6h24c3.31371,0 6,2.68629 6,6v0c0,3.31371 -2.68629,6 -6,6z" fill="#bcd5e0" stroke="none" stroke-width="1" stroke-linecap="butt"/><path d="M162,210c-3.31371,0 -6,-2.68629 -6,-6v-60c0,-3.31371 2.68629,-6 6,-6v0c3.31371,0 6,2.68629 6,6v60c0,3.31371 -2.68629,6 -6,6z" fill="#bcd5e0" stroke="none" stroke-width="1" stroke-linecap="butt"/><path d="M138,210c-3.31371,0 -6,-2.68629 -6,-6v0c0,-3.31371 2.68629,-6 6,-6h24c3.31371,0 6,2.68629 6,6v0c0,3.31371 -2.68629,6 -6,6z" fill="#bcd5e0" stroke="none" stroke-width="1" stroke-linecap="butt"/><path d="M138,258c-3.31371,0 -6,-2.68629 -6,-6v-48c0,-3.31371 2.68629,-6 6,-6v0c3.31371,0 6,2.68629 6,6v48c0,3.31371 -2.68629,6 -6,6z" fill="#bcd5e0" stroke="none" stroke-width="1" stroke-linecap="butt"/><path d="M138,258c-3.31371,0 -6,-2.68629 -6,-6v0c0,-3.31371 2.68629,-6 6,-6h72c3.31371,0 6,2.68629 6,6v0c0,3.31371 -2.68629,6 -6,6z" fill="#bcd5e0" stroke="none" stroke-width="1" stroke-linecap="butt"/><path d="M210,258c-3.31371,0 -6,-2.68629 -6,-6v-24c0,-3.31371 2.68629,-6 6,-6v0c3.31371,0 6,2.68629 6,6v24c0,3.31371 -2.68629,6 -6,6z" fill="#bcd5e0" stroke="none" stroke-width="1" stroke-linecap="butt"/><path d="M210,234c-3.31371,0 -6,-2.68629 -6,-6v0c0,-3.31371 2.68629,-6 6,-6h60c3.31371,0 6,2.68629 6,6v0c0,3.31371 -2.68629,6 -6,6z" fill="#bcd5e0" stroke="none" stroke-width="1" stroke-linecap="butt"/><path d="M270,258c-3.31371,0 -6,-2.68629 -6,-6v-24c0,-3.31371 2.68629,-6 6,-6v0c3.31371,0 6,2.68629 6,6v24c0,3.31371 -2.68629,6 -6,6z" fill="#bcd5e0" stroke="none" stroke-width="1" stroke-linecap="butt"/><path d="M270,258c-3.31371,0 -6,-2.68629 -6,-6v0c0,-3.31371 2.68629,-6 6,-6h72c3.31371,0 6,2.68629 6,6v0c0,3.31371 -2.68629,6 -6,6z" fill="#bcd5e0" stroke="none" stroke-width="1" stroke-linecap="butt"/><path d="M342,258c-3.31371,0 -6,-2.68629 -6,-6v-48c0,-3.31371 2.68629,-6 6,-6v0c3.31371,0 6,2.68629 6,6v48c0,3.31371 -2.68629,6 -6,6z" fill="#bcd5e0" stroke="none" stroke-width="1" stroke-linecap="butt"/><path d="M318,210c-3.31371,0 -6,-2.68629 -6,-6v0c0,-3.31371 2.68629,-6 6,-6h24c3.31371,0 6,2.68629 6,6v0c0,3.31371 -2.68629,6 -6,6z" fill="#bcd5e0" stroke="none" stroke-width="1" stroke-linecap="butt"/><path d="M318,210c-3.31371,0 -6,-2.68629 -6,-6v-60c0,-3.31371 2.68629,-6 6,-6v0c3.31371,0 6,2.68629 6,6v60c0,3.31371 -2.68629,6 -6,6z" fill="#bcd5e0" stroke="none" stroke-width="1" stroke-linecap="butt"/><path d="M318,150c-3.31371,0 -6,-2.68629 -6,-6v0c0,-3.31371 2.68629,-6 6,-6h24c3.31371,0 6,2.68629 6,6v0c0,3.31371 -2.68629,6 -6,6z" fill="#bcd5e0" stroke="none" stroke-width="1" stroke-linecap="butt"/><path d="M342,150c-3.31371,0 -6,-2.68629 -6,-6v-48c0,-3.31371 2.68629,-6 6,-6v0c3.31371,0 6,2.68629 6,6v48c0,3.31371 -2.68629,6 -6,6z" fill="#bcd5e0" stroke="none" stroke-width="1" stroke-linecap="butt"/><path d="M138,96v48" fill="#000000" stroke="#213a34" stroke-width="9" stroke-linecap="round"/><path d="M138,144h24" fill="#000000" stroke="#213a34" stroke-width="9" stroke-linecap="round"/><path d="M162,144v60" fill="#000000" stroke="#213a34" stroke-width="9" stroke-linecap="round"/><path d="M162,204h-24" fill="#000000" stroke="#213a34" stroke-width="9" stroke-linecap="round"/><path d="M138,204v48" fill="#000000" stroke="#213a34" stroke-width="9" stroke-linecap="round"/><path d="M138,252h72" fill="#000000" stroke="#213a34" stroke-width="9" stroke-linecap="round"/><path d="M210,252v-24" fill="#000000" stroke="#213a34" stroke-width="9" stroke-linecap="round"/><path d="M210,228h60" fill="#000000" stroke="#213a34" stroke-width="9" stroke-linecap="round"/><path d="M270,228v24" fill="#000000" stroke="#213a34" stroke-width="9" stroke-linecap="round"/><path d="M270,252h72" fill="#000000" stroke="#213a34" stroke-width="9" stroke-linecap="round"/><path d="M342,252v-48" fill="#000000" stroke="#213a34" stroke-width="9" stroke-linecap="round"/><path d="M342,204h-24" fill="#000000" stroke="#213a34" stroke-width="9" stroke-linecap="round"/><path d="M318,204v-60" fill="#000000" stroke="#213a34" stroke-width="9" stroke-linecap="round"/><path d="M318,144h24" fill="#000000" stroke="#213a34" stroke-width="9" stroke-linecap="round"/><path d="M342,144v-48" fill="#000000" stroke="#213a34" stroke-width="9" stroke-linecap="round"/><path d="M172.8,120c0,-0.66274 0.53726,-1.2 1.2,-1.2c0.66274,0 1.2,0.53726 1.2,1.2c0,0.66274 -0.53726,1.2 -1.2,1.2c-0.66274,0 -1.2,-0.53726 -1.2,-1.2z" fill-opacity="0.8" fill="#9075ff" stroke="none" stroke-width="1" stroke-linecap="butt"/><path d="M170.4,120c0,-1.98823 1.61177,-3.6 3.6,-3.6c1.98823,0 3.6,1.61177 3.6,3.6c0,1.98823 -1.61177,3.6 -3.6,3.6c-1.98823,0 -3.6,-1.61177 -3.6,-3.6z" fill-opacity="0.6" fill="#9075ff" stroke="none" stroke-width="1" stroke-linecap="butt"/><path d="M124.8,120c0,-0.66274 0.53726,-1.2 1.2,-1.2c0.66274,0 1.2,0.53726 1.2,1.2c0,0.66274 -0.53726,1.2 -1.2,1.2c-0.66274,0 -1.2,-0.53726 -1.2,-1.2z" fill-opacity="0.8" fill="#75ebff" stroke="none" stroke-width="1" stroke-linecap="butt"/><path d="M122.4,120c0,-1.98823 1.61177,-3.6 3.6,-3.6c1.98823,0 3.6,1.61177 3.6,3.6c0,1.98823 -1.61177,3.6 -3.6,3.6c-1.98823,0 -3.6,-1.61177 -3.6,-3.6z" fill-opacity="0.6" fill="#75ebff" stroke="none" stroke-width="1" stroke-linecap="butt"/><path d="M124.8,204c0,-0.66274 0.53726,-1.2 1.2,-1.2c0.66274,0 1.2,0.53726 1.2,1.2c0,0.66274 -0.53726,1.2 -1.2,1.2c-0.66274,0 -1.2,-0.53726 -1.2,-1.2z" fill-opacity="0.8" fill="#c575ff" stroke="none" stroke-width="1" stroke-linecap="butt"/><path d="M122.4,204c0,-1.98823 1.61177,-3.6 3.6,-3.6c1.98823,0 3.6,1.61177 3.6,3.6c0,1.98823 -1.61177,3.6 -3.6,3.6c-1.98823,0 -3.6,-1.61177 -3.6,-3.6z" fill-opacity="0.6" fill="#c575ff" stroke="none" stroke-width="1" stroke-linecap="butt"/><path d="M148.8,264c0,-0.66274 0.53726,-1.2 1.2,-1.2c0.66274,0 1.2,0.53726 1.2,1.2c0,0.66274 -0.53726,1.2 -1.2,1.2c-0.66274,0 -1.2,-0.53726 -1.2,-1.2z" fill-opacity="0.8" fill="#7581ff" stroke="none" stroke-width="1" stroke-linecap="butt"/><path d="M146.4,264c0,-1.98823 1.61177,-3.6 3.6,-3.6c1.98823,0 3.6,1.61177 3.6,3.6c0,1.98823 -1.61177,3.6 -3.6,3.6c-1.98823,0 -3.6,-1.61177 -3.6,-3.6z" fill-opacity="0.6" fill="#7581ff" stroke="none" stroke-width="1" stroke-linecap="butt"/><path d="M220.8,264c0,-0.66274 0.53726,-1.2 1.2,-1.2c0.66274,0 1.2,0.53726 1.2,1.2c0,0.66274 -0.53726,1.2 -1.2,1.2c-0.66274,0 -1.2,-0.53726 -1.2,-1.2z" fill-opacity="0.8" fill="#9e75ff" stroke="none" stroke-width="1" stroke-linecap="butt"/><path d="M218.4,264c0,-1.98823 1.61177,-3.6 3.6,-3.6c1.98823,0 3.6,1.61177 3.6,3.6c0,1.98823 -1.61177,3.6 -3.6,3.6c-1.98823,0 -3.6,-1.61177 -3.6,-3.6z" fill-opacity="0.6" fill="#9e75ff" stroke="none" stroke-width="1" stroke-linecap="butt"/><path d="M352.8,264c0,-0.66274 0.53726,-1.2 1.2,-1.2c0.66274,0 1.2,0.53726 1.2,1.2c0,0.66274 -0.53726,1.2 -1.2,1.2c-0.66274,0 -1.2,-0.53726 -1.2,-1.2z" fill-opacity="0.8" fill="#75ffff" stroke="none" stroke-width="1" stroke-linecap="butt"/><path d="M350.4,264c0,-1.98823 1.61177,-3.6 3.6,-3.6c1.98823,0 3.6,1.61177 3.6,3.6c0,1.98823 -1.61177,3.6 -3.6,3.6c-1.98823,0 -3.6,-1.61177 -3.6,-3.6z" fill-opacity="0.6" fill="#75ffff" stroke="none" stroke-width="1" stroke-linecap="butt"/><path d="M352.8,180c0,-0.66274 0.53726,-1.2 1.2,-1.2c0.66274,0 1.2,0.53726 1.2,1.2c0,0.66274 -0.53726,1.2 -1.2,1.2c-0.66274,0 -1.2,-0.53726 -1.2,-1.2z" fill-opacity="0.8" fill="#757aff" stroke="none" stroke-width="1" stroke-linecap="butt"/><path d="M350.4,180c0,-1.98823 1.61177,-3.6 3.6,-3.6c1.98823,0 3.6,1.61177 3.6,3.6c0,1.98823 -1.61177,3.6 -3.6,3.6c-1.98823,0 -3.6,-1.61177 -3.6,-3.6z" fill-opacity="0.6" fill="#757aff" stroke="none" stroke-width="1" stroke-linecap="butt"/><path d="M352.8,108c0,-0.66274 0.53726,-1.2 1.2,-1.2c0.66274,0 1.2,0.53726 1.2,1.2c0,0.66274 -0.53726,1.2 -1.2,1.2c-0.66274,0 -1.2,-0.53726 -1.2,-1.2z" fill-opacity="0.8" fill="#b175ff" stroke="none" stroke-width="1" stroke-linecap="butt"/><path d="M350.4,108c0,-1.98823 1.61177,-3.6 3.6,-3.6c1.98823,0 3.6,1.61177 3.6,3.6c0,1.98823 -1.61177,3.6 -3.6,3.6c-1.98823,0 -3.6,-1.61177 -3.6,-3.6z" fill-opacity="0.6" fill="#b175ff" stroke="none" stroke-width="1" stroke-linecap="butt"/><path d="M196.8,204c0,-0.66274 0.53726,-1.2 1.2,-1.2c0.66274,0 1.2,0.53726 1.2,1.2c0,0.66274 -0.53726,1.2 -1.2,1.2c-0.66274,0 -1.2,-0.53726 -1.2,-1.2z" fill-opacity="0.8" fill="#75ffc3" stroke="none" stroke-width="1" stroke-linecap="butt"/><path d="M194.4,204c0,-1.98823 1.61177,-3.6 3.6,-3.6c1.98823,0 3.6,1.61177 3.6,3.6c0,1.98823 -1.61177,3.6 -3.6,3.6c-1.98823,0 -3.6,-1.61177 -3.6,-3.6z" fill-opacity="0.6" fill="#75ffc3" stroke="none" stroke-width="1" stroke-linecap="butt"/><path d="M196.8,168c0,-0.66274 0.53726,-1.2 1.2,-1.2c0.66274,0 1.2,0.53726 1.2,1.2c0,0.66274 -0.53726,1.2 -1.2,1.2c-0.66274,0 -1.2,-0.53726 -1.2,-1.2z" fill-opacity="0.8" fill="#7675ff" stroke="none" stroke-width="1" stroke-linecap="butt"/><path d="M194.4,168c0,-1.98823 1.61177,-3.6 3.6,-3.6c1.98823,0 3.6,1.61177 3.6,3.6c0,1.98823 -1.61177,3.6 -3.6,3.6c-1.98823,0 -3.6,-1.61177 -3.6,-3.6z" fill-opacity="0.6" fill="#7675ff" stroke="none" stroke-width="1" stroke-linecap="butt"/><path d="M196.8,108c0,-0.66274 0.53726,-1.2 1.2,-1.2c0.66274,0 1.2,0.53726 1.2,1.2c0,0.66274 -0.53726,1.2 -1.2,1.2c-0.66274,0 -1.2,-0.53726 -1.2,-1.2z" fill-opacity="0.8" fill="#7675ff" stroke="none" stroke-width="1" stroke-linecap="butt"/><path d="M194.4,108c0,-1.98823 1.61177,-3.6 3.6,-3.6c1.98823,0 3.6,1.61177 3.6,3.6c0,1.98823 -1.61177,3.6 -3.6,3.6c-1.98823,0 -3.6,-1.61177 -3.6,-3.6z" fill-opacity="0.6" fill="#7675ff" stroke="none" stroke-width="1" stroke-linecap="butt"/><path d="M220.8,192c0,-0.66274 0.53726,-1.2 1.2,-1.2c0.66274,0 1.2,0.53726 1.2,1.2c0,0.66274 -0.53726,1.2 -1.2,1.2c-0.66274,0 -1.2,-0.53726 -1.2,-1.2z" fill-opacity="0.8" fill="#e075ff" stroke="none" stroke-width="1" stroke-linecap="butt"/><path d="M218.4,192c0,-1.98823 1.61177,-3.6 3.6,-3.6c1.98823,0 3.6,1.61177 3.6,3.6c0,1.98823 -1.61177,3.6 -3.6,3.6c-1.98823,0 -3.6,-1.61177 -3.6,-3.6z" fill-opacity="0.6" fill="#e075ff" stroke="none" stroke-width="1" stroke-linecap="butt"/><path d="M232.8,156c0,-0.66274 0.53726,-1.2 1.2,-1.2c0.66274,0 1.2,0.53726 1.2,1.2c0,0.66274 -0.53726,1.2 -1.2,1.2c-0.66274,0 -1.2,-0.53726 -1.2,-1.2z" fill-opacity="0.8" fill="#75bcff" stroke="none" stroke-width="1" stroke-linecap="butt"/><path d="M230.4,156c0,-1.98823 1.61177,-3.6 3.6,-3.6c1.98823,0 3.6,1.61177 3.6,3.6c0,1.98823 -1.61177,3.6 -3.6,3.6c-1.98823,0 -3.6,-1.61177 -3.6,-3.6z" fill-opacity="0.6" fill="#75bcff" stroke="none" stroke-width="1" stroke-linecap="butt"/><path d="M208.8,120c0,-0.66274 0.53726,-1.2 1.2,-1.2c0.66274,0 1.2,0.53726 1.2,1.2c0,0.66274 -0.53726,1.2 -1.2,1.2c-0.66274,0 -1.2,-0.53726 -1.2,-1.2z" fill-opacity="0.8" fill="#75e4ff" stroke="none" stroke-width="1" stroke-linecap="butt"/><path d="M206.4,120c0,-1.98823 1.61177,-3.6 3.6,-3.6c1.98823,0 3.6,1.61177 3.6,3.6c0,1.98823 -1.61177,3.6 -3.6,3.6c-1.98823,0 -3.6,-1.61177 -3.6,-3.6z" fill-opacity="0.6" fill="#75e4ff" stroke="none" stroke-width="1" stroke-linecap="butt"/><path d="M256.8,192c0,-0.66274 0.53726,-1.2 1.2,-1.2c0.66274,0 1.2,0.53726 1.2,1.2c0,0.66274 -0.53726,1.2 -1.2,1.2c-0.66274,0 -1.2,-0.53726 -1.2,-1.2z" fill-opacity="0.8" fill="#7595ff" stroke="none" stroke-width="1" stroke-linecap="butt"/><path d="M254.4,192c0,-1.98823 1.61177,-3.6 3.6,-3.6c1.98823,0 3.6,1.61177 3.6,3.6c0,1.98823 -1.61177,3.6 -3.6,3.6c-1.98823,0 -3.6,-1.61177 -3.6,-3.6z" fill-opacity="0.6" fill="#7595ff" stroke="none" stroke-width="1" stroke-linecap="butt"/><path d="M304.8,180c0,-0.66274 0.53726,-1.2 1.2,-1.2c0.66274,0 1.2,0.53726 1.2,1.2c0,0.66274 -0.53726,1.2 -1.2,1.2c-0.66274,0 -1.2,-0.53726 -1.2,-1.2z" fill-opacity="0.8" fill="#75fff1" stroke="none" stroke-width="1" stroke-linecap="butt"/><path d="M302.4,180c0,-1.98823 1.61177,-3.6 3.6,-3.6c1.98823,0 3.6,1.61177 3.6,3.6c0,1.98823 -1.61177,3.6 -3.6,3.6c-1.98823,0 -3.6,-1.61177 -3.6,-3.6z" fill-opacity="0.6" fill="#75fff1" stroke="none" stroke-width="1" stroke-linecap="butt"/><path d="M280.8,144c0,-0.66274 0.53726,-1.2 1.2,-1.2c0.66274,0 1.2,0.53726 1.2,1.2c0,0.66274 -0.53726,1.2 -1.2,1.2c-0.66274,0 -1.2,-0.53726 -1.2,-1.2z" fill-opacity="0.8" fill="#75ffca" stroke="none" stroke-width="1" stroke-linecap="butt"/><path d="M278.4,144c0,-1.98823 1.61177,-3.6 3.6,-3.6c1.98823,0 3.6,1.61177 3.6,3.6c0,1.98823 -1.61177,3.6 -3.6,3.6c-1.98823,0 -3.6,-1.61177 -3.6,-3.6z" fill-opacity="0.6" fill="#75ffca" stroke="none" stroke-width="1" stroke-linecap="butt"/><path d="M328.8,132c0,-0.66274 0.53726,-1.2 1.2,-1.2c0.66274,0 1.2,0.53726 1.2,1.2c0,0.66274 -0.53726,1.2 -1.2,1.2c-0.66274,0 -1.2,-0.53726 -1.2,-1.2z" fill-opacity="0.8" fill="#8a75ff" stroke="none" stroke-width="1" stroke-linecap="butt"/><path d="M326.4,132c0,-1.98823 1.61177,-3.6 3.6,-3.6c1.98823,0 3.6,1.61177 3.6,3.6c0,1.98823 -1.61177,3.6 -3.6,3.6c-1.98823,0 -3.6,-1.61177 -3.6,-3.6z" fill-opacity="0.6" fill="#8a75ff" stroke="none" stroke-width="1" stroke-linecap="butt"/><path d="M292.8,96c0,-0.66274 0.53726,-1.2 1.2,-1.2c0.66274,0 1.2,0.53726 1.2,1.2c0,0.66274 -0.53726,1.2 -1.2,1.2c-0.66274,0 -1.2,-0.53726 -1.2,-1.2z" fill-opacity="0.8" fill="#9075ff" stroke="none" stroke-width="1" stroke-linecap="butt"/><path d="M290.4,96c0,-1.98823 1.61177,-3.6 3.6,-3.6c1.98823,0 3.6,1.61177 3.6,3.6c0,1.98823 -1.61177,3.6 -3.6,3.6c-1.98823,0 -3.6,-1.61177 -3.6,-3.6z" fill-opacity="0.6" fill="#9075ff" stroke="none" stroke-width="1" stroke-linecap="butt"/><path d="M132,96c0,-3.31371 2.68629,-6 6,-6c3.31371,0 6,2.68629 6,6c0,3.31371 -2.68629,6 -6,6c-3.31371,0 -6,-2.68629 -6,-6z" fill-opacity="0.35" fill="#00ff44" stroke="none" stroke-width="1" stroke-linecap="butt"/><path d="M336,96c0,-3.31371 2.68629,-6 6,-6c3.31371,0 6,2.68629 6,6c0,3.31371 -2.68629,6 -6,6c-3.31371,0 -6,-2.68629 -6,-6z" fill-opacity="0.35" fill="#ff0404" stroke="none" stroke-width="1" stroke-linecap="butt"/></g></g></svg>