<svg version="1.1" xmlns="http://www.w3.org/2000/svg" xmlns:xlink="http://www.w3.org/1999/xlink" width="55.125" height="55.125" viewBox="0,0,55.125,55.125"><defs><linearGradient x1="239.7455" y1="152.69822" x2="239.7455" y2="206.32322" gradientUnits="userSpaceOnUse" id="color-1"><stop offset="0" stop-color="#021a36"/><stop offset="1" stop-color="#000000" stop-opacity="0.60925"/></linearGradient><linearGradient x1="239.7455" y1="152.69822" x2="239.7455" y2="206.32322" gradientUnits="userSpaceOnUse" id="color-2"><stop offset="0" stop-color="#0062ff"/><stop offset="1" stop-color="#0062ff" stop-opacity="0"/></linearGradient><linearGradient x1="239.6409" y1="158.67343" x2="239.6409" y2="194.97384" gradientUnits="userSpaceOnUse" id="color-3"><stop offset="0" stop-color="#455c8f"/><stop offset="1" stop-color="#003758"/></linearGradient><linearGradient x1="239.64095" y1="158.67343" x2="239.64095" y2="194.97384" gradientUnits="userSpaceOnUse" id="color-4"><stop offset="0" stop-color="#1e8d96"/><stop offset="1" stop-color="#2bd9a1"/></linearGradient><linearGradient x1="239.6639" y1="183.94827" x2="239.6639" y2="194.22268" gradientUnits="userSpaceOnUse" id="color-5"><stop offset="0" stop-color="#0b1228"/><stop offset="1" stop-color="#0b1228" stop-opacity="0"/></linearGradient><linearGradient x1="221.72222" y1="171.24306" x2="221.72222" y2="187.6875" gradientUnits="userSpaceOnUse" id="color-6"><stop offset="0" stop-color="#00bfdc"/><stop offset="1" stop-color="#007771"/></linearGradient><linearGradient x1="256.61111" y1="175.79861" x2="256.61111" y2="192.24305" gradientUnits="userSpaceOnUse" id="color-7"><stop offset="0" stop-color="#00bfdc"/><stop offset="1" stop-color="#007771"/></linearGradient></defs><g transform="translate(-212.183,-151.94822)"><g data-paper-data="{&quot;isPaintingLayer&quot;:true}" fill-rule="nonzero" stroke-linejoin="miter" stroke-miterlimit="10" stroke-dasharray="" stroke-dashoffset="0" style="mix-blend-mode: normal"><path d="M212.933,206.32322v-53.625h53.625v53.625z" fill="url(#color-1)" stroke="url(#color-2)" stroke-width="1.5" stroke-linecap="butt"/><path d="M216.54266,194.97384v-36.3004l45.97436,5.33334l0.44444,36.18929z" fill="url(#color-3)" stroke="url(#color-4)" stroke-width="1.5" stroke-linecap="butt"/><g><path d="M217.1308,183.75937l45.07148,4.11111" fill="none" stroke-opacity="0.70968" stroke="#ffffff" stroke-width="0.5" stroke-linecap="round"/><path d="M216.98152,194.22268v-10.27441l45.3648,4.33334l0.11111,11.49663z" data-paper-data="{&quot;index&quot;:null}" fill="url(#color-5)" stroke="none" stroke-width="0" stroke-linecap="butt"/></g><path d="M221.72222,171.24306v16.44445" fill="none" stroke="url(#color-6)" stroke-width="3.5" stroke-linecap="round"/><path d="M256.61111,175.79861v16.44445" fill="none" stroke="url(#color-7)" stroke-width="3.5" stroke-linecap="round"/><path d="M222.58803,171.4949l2.55576,3.28844l4.35631,-2.17684l4.0953,3.51102l3.80648,-2.25633l3.0102,4.02774l4.98565,-2.64718l4.08073,2.83531l3.0685,-2.58755l3.59581,1.53027" fill="none" stroke-opacity="0.64516" stroke="#d6faff" stroke-width="2" stroke-linecap="round"/></g></g></svg>