<svg version="1.1" xmlns="http://www.w3.org/2000/svg" xmlns:xlink="http://www.w3.org/1999/xlink" width="67.24596" height="60.26072" viewBox="0,0,67.24596,60.26072"><defs><linearGradient x1="270.96157" y1="121.20227" x2="270.96157" y2="179.96298" gradientUnits="userSpaceOnUse" id="color-1"><stop offset="0" stop-color="#755569"/><stop offset="1" stop-color="#542844"/></linearGradient><linearGradient x1="270.79208" y1="167.67147" x2="270.79208" y2="180.24311" gradientUnits="userSpaceOnUse" id="color-2"><stop offset="0" stop-color="#a559a2"/><stop offset="1" stop-color="#733473"/></linearGradient><radialGradient cx="286.41662" cy="143.0617" r="10.84589" gradientUnits="userSpaceOnUse" id="color-3"><stop offset="0" stop-color="#db4dff"/><stop offset="1" stop-color="#db4dff" stop-opacity="0"/></radialGradient><radialGradient cx="279.21651" cy="152.84296" r="12.83302" gradientUnits="userSpaceOnUse" id="color-4"><stop offset="0" stop-color="#db4dff"/><stop offset="1" stop-color="#db4dff" stop-opacity="0"/></radialGradient><radialGradient cx="257.06014" cy="145.53692" r="10.1918" gradientUnits="userSpaceOnUse" id="color-5"><stop offset="0" stop-color="#db4dff"/><stop offset="1" stop-color="#db4dff" stop-opacity="0"/></radialGradient><radialGradient cx="276.54556" cy="136.38158" r="14.14655" gradientUnits="userSpaceOnUse" id="color-6"><stop offset="0" stop-color="#db4dff"/><stop offset="1" stop-color="#db4dff" stop-opacity="0"/></radialGradient><radialGradient cx="264.35771" cy="153.33423" r="14.0904" gradientUnits="userSpaceOnUse" id="color-7"><stop offset="0" stop-color="#db4dff"/><stop offset="1" stop-color="#db4dff" stop-opacity="0"/></radialGradient><radialGradient cx="263.08087" cy="137.57534" r="12.69216" gradientUnits="userSpaceOnUse" id="color-8"><stop offset="0" stop-color="#db4dff"/><stop offset="1" stop-color="#db4dff" stop-opacity="0"/></radialGradient><radialGradient cx="282.41714" cy="139.42616" r="12.78166" gradientUnits="userSpaceOnUse" id="color-9"><stop offset="0" stop-color="#090075"/><stop offset="1" stop-color="#090075" stop-opacity="0"/></radialGradient><radialGradient cx="286.05474" cy="148.16695" r="10.17382" gradientUnits="userSpaceOnUse" id="color-10"><stop offset="0" stop-color="#090075"/><stop offset="1" stop-color="#090075" stop-opacity="0"/></radialGradient><radialGradient cx="272.24267" cy="154.74294" r="14.16443" gradientUnits="userSpaceOnUse" id="color-11"><stop offset="0" stop-color="#090075"/><stop offset="1" stop-color="#090075" stop-opacity="0"/></radialGradient><radialGradient cx="258.73579" cy="150.90718" r="12.63586" gradientUnits="userSpaceOnUse" id="color-12"><stop offset="0" stop-color="#090075"/><stop offset="1" stop-color="#090075" stop-opacity="0"/></radialGradient><radialGradient cx="258.22346" cy="141.91853" r="10.78724" gradientUnits="userSpaceOnUse" id="color-13"><stop offset="0" stop-color="#090075"/><stop offset="1" stop-color="#090075" stop-opacity="0"/></radialGradient><radialGradient cx="269.60747" cy="136.61195" r="14.11302" gradientUnits="userSpaceOnUse" id="color-14"><stop offset="0" stop-color="#090075"/><stop offset="1" stop-color="#090075" stop-opacity="0"/></radialGradient></defs><g transform="translate(-237.91262,-120.45225)"><g data-paper-data="{&quot;isPaintingLayer&quot;:true}" fill-rule="nonzero" stroke-linejoin="miter" stroke-miterlimit="10" stroke-dasharray="" stroke-dashoffset="0" style="mix-blend-mode: normal"><path d="M240.44671,179.96298v-58.76072h60.94658v58.76072z" fill="url(#color-1)" stroke="#7e1b8b" stroke-width="1.5" stroke-linecap="butt"/><path d="M239.86355,180.24311v-12.57143c0,0 9.2599,0 15.94982,0c11.34971,0 45.90733,0 45.90733,0v12.57143z" fill="url(#color-2)" stroke="none" stroke-width="0" stroke-linecap="butt"/><path d="M296.09344,135.02378c0,0 6.29818,3.4292 -6.62048,12.09689c-7.98183,5.35536 -16.82791,-1.54502 -16.82791,-1.54502" fill="none" stroke="url(#color-3)" stroke-width="8.5" stroke-linecap="round"/><path d="M294.45704,156.34887c0,0 -3.63576,4.66265 -20.75314,-0.58491c-10.57604,-3.24222 -2.20785,-10.36398 -2.20785,-10.36398" fill="none" stroke="url(#color-4)" stroke-width="8.5" stroke-linecap="round"/><path d="M244.10205,151.58506c0,0 -4.47986,-4.37666 11.87748,-10.47078c10.10643,-3.76527 15.44719,4.38224 15.44719,4.38224" fill="none" stroke="url(#color-5)" stroke-width="8.5" stroke-linecap="round"/><path d="M271.1176,126.95675c0,0 8.1509,-1.28725 12.61414,10.14045c2.75764,7.06065 -11.50195,7.7024 -11.50195,7.7024" fill="none" stroke="url(#color-6)" stroke-width="8.5" stroke-linecap="round"/><path d="M269.21417,162.876c0,0 -8.22285,1.10108 -11.99463,-10.42026c-2.33039,-7.1185 11.95809,-7.43565 11.95809,-7.43565" fill="none" stroke="url(#color-7)" stroke-width="8.5" stroke-linecap="round"/><path d="M247.64437,134.40946c0,0 3.35957,-4.74019 20.77398,0.12461c10.75955,3.00573 2.81504,10.30832 2.81504,10.30832" fill="none" stroke="url(#color-8)" stroke-width="8.5" stroke-linecap="round"/><path d="M284.79661,129.53631c0,0 8.18432,1.20458 3.42703,12.58743c-2.93931,7.03293 -16.03119,3.50238 -16.03119,3.50238" fill="none" stroke="url(#color-9)" stroke-width="8.5" stroke-linecap="round"/><path d="M300.72828,143.84353c0,0 2.95529,4.84077 -15.06309,8.7892c-11.13272,2.43955 -13.69666,-6.20136 -13.69666,-6.20136" fill="none" stroke="url(#color-10)" stroke-width="8.5" stroke-linecap="round"/><path d="M283.04313,162.22124c0,0 -6.76399,3.07623 -17.89705,-6.48075c-6.8786,-5.90482 5.94069,-9.79458 5.94069,-9.79458" fill="none" stroke="url(#color-11)" stroke-width="8.5" stroke-linecap="round"/><path d="M254.42881,163.40283c0,0 -6.7728,-4.05647 -1.33306,-15.32337c3.36096,-6.9613 16.23118,-3.13555 16.23118,-3.13555" fill="none" stroke="url(#color-12)" stroke-width="8.5" stroke-linecap="round"/><path d="M242.165,143.54038c0,0 -0.62669,-5.15563 18.47118,-5.84128c11.79968,-0.42362 10.31581,8.31222 10.31581,8.31222" fill="none" stroke="url(#color-13)" stroke-width="8.5" stroke-linecap="round"/><path d="M258.37487,129.37786c0,0 6.57892,-3.22414 18.26598,6.0799c7.22089,5.74853 -5.36164,9.91986 -5.36164,9.91986" fill="none" stroke="url(#color-14)" stroke-width="8.5" stroke-linecap="round"/></g></g></svg>