<svg width="480px" height="360px" xmlns="http://www.w3.org/2000/svg"><path fill="#F00" d="M251.838 171.982L251.838 180L249.708 180L249.708 172.153Q249.708 170.733 249.175 170.029Q248.643 169.325 247.651 169.325L247.651 169.325Q247.223 169.325 246.849 169.441Q246.476 169.558 246.072 169.845Q245.668 170.133 245.191 170.623Q244.713 171.112 244.089 171.847L244.089 171.847L244.089 180L241.959 180L241.959 162.702L244.089 162.702L244.089 167.709L244.015 169.643Q244.517 169.044 245.001 168.634Q245.484 168.223 245.968 167.966Q246.451 167.709 246.953 167.599Q247.455 167.489 247.994 167.489L247.994 167.489Q249.830 167.489 250.834 168.609Q251.838 169.729 251.838 171.982L251.838 171.982Z"/></svg>