<svg version="1.1" xmlns="http://www.w3.org/2000/svg" xmlns:xlink="http://www.w3.org/1999/xlink" width="62.44658" height="60.26072" viewBox="0,0,62.44658,60.26072"><defs><linearGradient x1="271.06156" y1="121.10225" x2="271.06156" y2="179.86296" gradientUnits="userSpaceOnUse" id="color-1"><stop offset="0" stop-color="#8c896b"/><stop offset="1" stop-color="#52503f"/></linearGradient><linearGradient x1="270.89207" y1="167.57145" x2="270.89207" y2="180.1431" gradientUnits="userSpaceOnUse" id="color-2"><stop offset="0" stop-color="#aba682"/><stop offset="1" stop-color="#848064"/></linearGradient><radialGradient cx="270.9091" cy="144.97269" r="25.83402" gradientUnits="userSpaceOnUse" id="color-3"><stop offset="0" stop-color="#fff8dd" stop-opacity="0"/><stop offset="1" stop-color="#fff8dd"/></radialGradient><radialGradient cx="270.9091" cy="144.97269" r="22.28618" gradientUnits="userSpaceOnUse" id="color-4"><stop offset="0" stop-color="#fff8dd" stop-opacity="0"/><stop offset="1" stop-color="#fff8dd"/></radialGradient><radialGradient cx="270.9091" cy="144.97269" r="22.28618" gradientUnits="userSpaceOnUse" id="color-5"><stop offset="0" stop-color="#fff8dd" stop-opacity="0"/><stop offset="1" stop-color="#fff8dd"/></radialGradient><radialGradient cx="270.43613" cy="144.87549" r="5.4321" gradientUnits="userSpaceOnUse" id="color-6"><stop offset="0" stop-color="#fcff4a"/><stop offset="1" stop-color="#fffee3"/></radialGradient><radialGradient cx="267.64777" cy="127.02855" r="4.4664" gradientUnits="userSpaceOnUse" id="color-7"><stop offset="0" stop-color="#fffeed"/><stop offset="1" stop-color="#fffeed" stop-opacity="0"/></radialGradient><radialGradient cx="253.32223" cy="155.12116" r="4.4664" gradientUnits="userSpaceOnUse" id="color-8"><stop offset="0" stop-color="#fffeed"/><stop offset="1" stop-color="#fffeed" stop-opacity="0"/></radialGradient><radialGradient cx="290.40873" cy="153.68058" r="4.4664" gradientUnits="userSpaceOnUse" id="color-9"><stop offset="0" stop-color="#fffeed"/><stop offset="1" stop-color="#fffeed" stop-opacity="0"/></radialGradient></defs><g transform="translate(-239.79669,-120.35224)"><g data-paper-data="{&quot;isPaintingLayer&quot;:true}" fill-rule="nonzero" stroke-linecap="butt" stroke-linejoin="miter" stroke-miterlimit="10" stroke-dasharray="" stroke-dashoffset="0" style="mix-blend-mode: normal"><path d="M240.5467,179.86296v-58.76072h60.94658v58.76072z" fill="url(#color-1)" stroke="#c0bb92" stroke-width="1.5"/><path d="M239.96355,180.1431v-12.57143h61.85715v12.57143z" fill="url(#color-2)" stroke="none" stroke-width="0"/><path d="M269.42871,152.71933c-13.9757,-2.87196 -24.64245,-8.66843 -23.82485,-12.9468c0.8176,-4.27836 12.80993,-5.41846 26.78563,-2.5465c13.9757,2.87196 24.64245,8.66843 23.82485,12.9468c-0.8176,4.27836 -12.80993,5.41846 -26.78563,2.5465z" data-paper-data="{&quot;index&quot;:null}" fill="none" stroke="url(#color-3)" stroke-width="2"/><path d="M262.23115,147.44876c-5.5068,-11.39454 -6.08569,-21.74022 -1.293,-23.10771c4.7927,-1.3675 13.14209,6.76102 18.64889,18.15556c5.5068,11.39454 6.0857,21.74022 1.293,23.10771c-4.7927,1.3675 -13.14209,-6.76102 -18.64889,-18.15556z" data-paper-data="{&quot;index&quot;:null}" fill="none" stroke="url(#color-4)" stroke-width="2"/><path d="M254.10422,160.10197c-3.92759,-3.15949 0.41227,-12.49438 9.69335,-20.85005c9.28107,-8.35568 19.98881,-12.56801 23.9164,-9.40852c3.92759,3.15949 -0.41227,12.49438 -9.69335,20.85005c-9.28107,8.35568 -19.98881,12.56801 -23.9164,9.40852z" data-paper-data="{&quot;index&quot;:null}" fill="none" stroke="url(#color-5)" stroke-width="2"/><path d="M265.11521,143.78206c0.58235,-3.04734 3.43669,-5.02816 6.37535,-4.42427c2.93866,0.60389 4.84883,3.56379 4.26648,6.61113c-0.58235,3.04734 -3.43669,5.02816 -6.37535,4.42427c-2.93866,-0.60389 -4.84883,-3.56379 -4.26648,-6.61113z" fill="url(#color-6)" stroke="none" stroke-width="2"/><path d="M263.27279,126.1295c0.47882,-2.5056 2.82572,-4.13426 5.24196,-3.63773c2.41624,0.49653 3.98682,2.93023 3.508,5.43582c-0.47882,2.5056 -2.82572,4.13426 -5.24196,3.63773c-2.41624,-0.49653 -3.98682,-2.93023 -3.508,-5.43582z" fill="url(#color-7)" stroke="none" stroke-width="2"/><path d="M248.94725,154.22212c0.47882,-2.5056 2.82572,-4.13426 5.24196,-3.63773c2.41624,0.49653 3.98682,2.93023 3.508,5.43582c-0.47882,2.5056 -2.82572,4.13426 -5.24196,3.63773c-2.41624,-0.49653 -3.98682,-2.93023 -3.508,-5.43582z" fill="url(#color-8)" stroke="none" stroke-width="2"/><path d="M286.03375,152.78153c0.47882,-2.5056 2.82572,-4.13426 5.24196,-3.63773c2.41624,0.49653 3.98682,2.93023 3.508,5.43582c-0.47882,2.5056 -2.82572,4.13426 -5.24196,3.63773c-2.41624,-0.49653 -3.98682,-2.93023 -3.508,-5.43582z" fill="url(#color-9)" stroke="none" stroke-width="2"/></g></g></svg>