<svg width="480px" height="360px" xmlns="http://www.w3.org/2000/svg"><path fill="#F00" d="M242.914 170.672L242.914 168.995Q243.538 169.019 244.125 168.891Q244.713 168.762 245.160 168.499Q245.607 168.236 245.876 167.844Q246.145 167.452 246.145 166.938L246.145 166.938Q246.145 166.424 245.968 166.106Q245.790 165.787 245.570 165.518Q245.350 165.249 245.172 164.943Q244.995 164.637 244.995 164.135L244.995 164.135Q244.995 163.865 245.093 163.590Q245.191 163.314 245.393 163.082Q245.594 162.849 245.907 162.702Q246.219 162.555 246.647 162.555L246.647 162.555Q247.076 162.555 247.474 162.733Q247.871 162.910 248.171 163.272Q248.471 163.633 248.649 164.184Q248.826 164.735 248.826 165.481L248.826 165.481Q248.826 166.497 248.453 167.434Q248.080 168.370 247.339 169.093Q246.598 169.815 245.490 170.243Q244.383 170.672 242.914 170.672L242.914 170.672Z"/></svg>