<svg version="1.1" xmlns="http://www.w3.org/2000/svg" xmlns:xlink="http://www.w3.org/1999/xlink" width="17.26338" height="17.26052" viewBox="0,0,17.26338,17.26052"><g transform="translate(-237.71911,-164.75255)"><g data-paper-data="{&quot;isPaintingLayer&quot;:true}" fill="#ff0000" fill-rule="nonzero" stroke="none" stroke-width="1" stroke-linecap="butt" stroke-linejoin="miter" stroke-miterlimit="10" stroke-dasharray="" stroke-dashoffset="0" style="mix-blend-mode: normal"><path d="M246.35061,164.755c0.47071,0.00573 0.6424,0.01431 1.00866,0.05437l0.15023,0.01717l0.18027,1.14173c0.09872,0.62666 0.18313,1.14315 0.18599,1.14458c0.00286,0.00286 0.06009,0.02003 0.12734,0.0372c0.43066,0.11446 0.93141,0.31476 1.34346,0.53652c0.08298,0.04435 0.15595,0.08012 0.16453,0.08012c0.00858,0 0.45354,-0.30188 0.98864,-0.67102l0.9729,-0.66958l0.05723,0.04149c0.26326,0.18742 0.78404,0.65527 1.07018,0.96289c0.20888,0.22319 0.50791,0.56943 0.52079,0.60234c0.00429,0.01002 -0.29616,0.43495 -0.66672,0.94285c-0.37056,0.50791 -0.67388,0.92711 -0.67388,0.93141c0,0.00429 0.04865,0.08871 0.10873,0.18886c0.13019,0.21605 0.38058,0.72252 0.46212,0.93284c0.03291,0.08298 0.08871,0.24036 0.12734,0.35053l0.06725,0.2003l1.14744,0.20745c0.63238,0.1159 1.15174,0.21318 1.15746,0.2189c0.01144,0.01144 0.07154,0.45641 0.09872,0.73254c0.03291,0.33193 0.04292,0.82839 0.02289,1.19466c-0.01002,0.17741 -0.02146,0.32478 -0.02432,0.32764c-0.00286,0.00286 -0.36483,0.06296 -0.80264,0.13306c-0.43924,0.06867 -0.94857,0.15023 -1.13314,0.18027l-0.33622,0.05294l-0.01002,0.04292c-0.16882,0.7168 -0.28901,1.06733 -0.54225,1.57953l-0.12734,0.25897l0.67244,0.9729c0.4192,0.60806 0.66815,0.98005 0.66242,0.99149c-0.02719,0.04435 -0.26755,0.3491 -0.39918,0.50362c-0.27184,0.32049 -0.60948,0.66242 -0.92282,0.93713c-0.06725,0.05866 -0.13592,0.11732 -0.15165,0.13306c-0.03148,0.02719 -0.03291,0.02575 -0.94428,-0.63667c-0.50362,-0.36626 -0.92139,-0.66958 -0.93141,-0.67388c-0.01002,-0.00573 -0.07869,0.03004 -0.15738,0.08155c-0.30761,0.20173 -0.73396,0.41777 -1.12027,0.56943c-0.15738,0.06296 -0.50219,0.17884 -0.62237,0.21032l-0.05723,0.01431l-0.08298,0.44781c-0.21747,1.18321 -0.34766,1.8714 -0.35482,1.87712c-0.01144,0.01144 -0.43351,0.0515 -0.69248,0.06725c-0.2747,0.01717 -1.18321,0.00858 -1.3878,-0.01288l-0.10015,-0.01002l-0.03863,-0.23607c-0.02003,-0.13019 -0.10015,-0.62952 -0.17455,-1.10881c-0.07583,-0.48073 -0.14021,-0.88562 -0.1445,-0.90136c-0.00573,-0.02575 -0.0372,-0.0372 -0.20603,-0.07583c-0.56943,-0.13306 -1.19037,-0.38058 -1.70829,-0.68103l-0.13878,-0.08012l-0.95859,0.65957c-0.52794,0.36197 -0.96718,0.65671 -0.9772,0.65242c-0.04578,-0.01717 -0.38916,-0.31047 -0.68103,-0.58231c-0.29616,-0.2747 -0.86988,-0.9171 -0.84842,-0.95143c0.00429,-0.00715 0.31047,-0.42922 0.6796,-0.9357l0.67244,-0.92139l-0.02432,-0.0372c-0.07726,-0.12161 -0.25324,-0.44495 -0.33049,-0.60663c-0.19744,-0.41491 -0.33479,-0.80836 -0.46212,-1.31913c-0.01002,-0.04149 -0.01431,-0.04292 -0.15309,-0.06581c-0.19172,-0.03291 -1.98299,-0.35339 -2.07599,-0.37199l-0.07296,-0.01431l-0.01717,-0.21032c-0.02719,-0.31905 -0.03577,-0.96002 -0.01717,-1.27621c0.01431,-0.2418 0.0558,-0.71536 0.06581,-0.72681c0.00143,-0.00143 0.5122,-0.08298 1.13743,-0.1817c0.6238,-0.09872 1.13887,-0.18313 1.14602,-0.18742c0.00715,-0.00429 0.01288,-0.01573 0.01288,-0.02719c0,-0.0372 0.13019,-0.45354 0.20173,-0.64669c0.13019,-0.35197 0.3677,-0.84413 0.52222,-1.08879c0.02719,-0.04149 0.04865,-0.08155 0.04865,-0.08871c0,-0.00858 -0.26611,-0.40204 -0.59089,-0.87703c-0.32478,-0.47358 -0.61808,-0.90136 -0.65242,-0.95143l-0.06152,-0.09013l0.03577,-0.04578c0.21461,-0.28186 0.76115,-0.85272 1.06875,-1.12027c0.2189,-0.19029 0.48645,-0.40633 0.50219,-0.40633c0.00715,0 0.42349,0.29474 0.92426,0.65671c0.50219,0.36055 0.92568,0.66386 0.94285,0.67388c0.02719,0.01717 0.05007,0.00715 0.21605,-0.08298c0.43781,-0.24036 1.06733,-0.48931 1.45649,-0.57658l0.07726,-0.01717l0.01431,-0.07296c0.00858,-0.04006 0.10301,-0.5494 0.20888,-1.13171c0.10588,-0.58231 0.19601,-1.07305 0.2003,-1.09164c0.00715,-0.02861 0.01573,-0.03148 0.1116,-0.03291c0.0558,0 0.2003,-0.01288 0.31762,-0.02719c0.18457,-0.02432 0.28472,-0.02719 0.71536,-0.02146zM246.10024,170.95293c-0.42064,0.06296 -0.73682,0.17455 -1.02297,0.36197c-0.71394,0.46785 -1.12885,1.27192 -1.08879,2.11176c0.05294,1.14029 0.88133,2.05882 2.01876,2.2391c0.14736,0.02432 0.53939,0.02432 0.68675,0c0.47071,-0.0744 0.87274,-0.26039 1.22327,-0.56227c0.63811,-0.55083 0.93426,-1.42215 0.76401,-2.25483c-0.03291,-0.16311 -0.12304,-0.42349 -0.19888,-0.57658c-0.35768,-0.7168 -1.04014,-1.20325 -1.8342,-1.30769c-0.14736,-0.0186 -0.45497,-0.02575 -0.54797,-0.01144z"/></g></g></svg>