<svg width="480px" height="360px" xmlns="http://www.w3.org/2000/svg"><path fill="#F00" d="M242.461 180L242.461 167.709L244.407 167.709L244.468 169.974Q245.558 168.664 246.617 168.077Q247.676 167.489 248.753 167.489L248.753 167.489Q250.663 167.489 251.648 168.725Q252.634 169.962 252.560 172.398L252.560 172.398L250.406 172.398Q250.442 170.782 249.934 170.054Q249.426 169.325 248.447 169.325L248.447 169.325Q248.018 169.325 247.584 169.478Q247.149 169.631 246.690 169.968Q246.231 170.305 245.717 170.831Q245.203 171.357 244.615 172.104L244.615 172.104L244.615 180L242.461 180Z"/></svg>