<svg version="1.1" xmlns="http://www.w3.org/2000/svg" xmlns:xlink="http://www.w3.org/1999/xlink" width="62.36325" height="60.26072" viewBox="0,0,62.36325,60.26072"><defs><linearGradient x1="270.89485" y1="121.10213" x2="270.89485" y2="179.86284" gradientUnits="userSpaceOnUse" id="color-1"><stop offset="0" stop-color="#735656"/><stop offset="1" stop-color="#562828"/></linearGradient><radialGradient cx="249.30786" cy="154.10129" r="28.11358" gradientUnits="userSpaceOnUse" id="color-2"><stop offset="0" stop-color="#ff7171"/><stop offset="1" stop-color="#ff7171" stop-opacity="0"/></radialGradient><radialGradient cx="259.66599" cy="163.79153" r="28.11358" gradientUnits="userSpaceOnUse" id="color-3"><stop offset="0" stop-color="#ff7171"/><stop offset="1" stop-color="#ff7171" stop-opacity="0"/></radialGradient><radialGradient cx="275.43497" cy="140.74543" r="16.72847" gradientUnits="userSpaceOnUse" id="color-4"><stop offset="0" stop-color="#ffffff"/><stop offset="1" stop-color="#ffffff" stop-opacity="0"/></radialGradient><radialGradient cx="275.43497" cy="140.74543" r="16.72847" gradientUnits="userSpaceOnUse" id="color-5"><stop offset="0" stop-color="#ffd6d6" stop-opacity="0"/><stop offset="1" stop-color="#ffd6d6"/></radialGradient><linearGradient x1="270.892" y1="167.57147" x2="270.892" y2="180.14296" gradientUnits="userSpaceOnUse" id="color-6"><stop offset="0" stop-color="#a04848"/><stop offset="1" stop-color="#5b2929"/></linearGradient><radialGradient cx="247.27858" cy="163.91781" r="28.11358" gradientUnits="userSpaceOnUse" id="color-7"><stop offset="0" stop-color="#ff7171"/><stop offset="1" stop-color="#ff7171" stop-opacity="0"/></radialGradient><radialGradient cx="256.52858" cy="145.04281" r="28.11358" gradientUnits="userSpaceOnUse" id="color-8"><stop offset="0" stop-color="#ffd6d6" stop-opacity="0"/><stop offset="1" stop-color="#ffd6d6"/></radialGradient></defs><g transform="translate(-239.71327,-120.35212)"><g data-paper-data="{&quot;isPaintingLayer&quot;:true}" fill-rule="nonzero" stroke-linejoin="miter" stroke-miterlimit="10" stroke-dasharray="" stroke-dashoffset="0" style="mix-blend-mode: normal"><path d="M240.46327,179.86284v-58.76072h60.86325v58.76072z" fill="url(#color-1)" stroke="#733434" stroke-width="1.5" stroke-linecap="butt"/><path d="M265.60958,141.32396l-22.24113,6.05815" fill="none" stroke="url(#color-2)" stroke-width="4" stroke-linecap="round"/><path d="M275.09601,148.58622l-5.43123,17.0316" fill="none" stroke="url(#color-3)" stroke-width="4" stroke-linecap="round"/><path d="M283.28993,155.28935c-2.23245,2.16817 -10.93425,0.15933 -17.37103,-6.46826c-6.43677,-6.62758 -8.23161,-13.80857 -5.99915,-15.97675c2.23245,-2.16817 7.17572,3.29591 13.6125,9.92349c0,0 11.99014,10.35334 9.75769,12.52151z" fill="url(#color-4)" stroke="url(#color-5)" stroke-width="1.5" stroke-linecap="butt"/><path d="M239.96343,180.14296v-12.57143h61.85715v12.57143z" fill="url(#color-6)" stroke="none" stroke-width="0" stroke-linecap="butt"/><path d="M243.43714,165.29625l26.07944,-19.3763" fill="none" stroke="url(#color-7)" stroke-width="4" stroke-linecap="round"/><path d="M296.81215,124.79625l-25.54557,20.24871" fill="none" stroke="url(#color-8)" stroke-width="4.5" stroke-linecap="round"/></g></g></svg>