<svg version="1.1" xmlns="http://www.w3.org/2000/svg" xmlns:xlink="http://www.w3.org/1999/xlink" width="62.44658" height="60.26072" viewBox="0,0,62.44658,60.26072"><defs><linearGradient x1="271.06156" y1="120.97728" x2="271.06156" y2="179.73799" gradientUnits="userSpaceOnUse" id="color-1"><stop offset="0" stop-color="#755569"/><stop offset="1" stop-color="#542844"/></linearGradient><radialGradient cx="270.76702" cy="145.8125" r="18.1875" gradientUnits="userSpaceOnUse" id="color-2"><stop offset="0" stop-color="#d99cbb"/><stop offset="1" stop-color="#d99cbb" stop-opacity="0"/></radialGradient><radialGradient cx="270.76702" cy="145.8125" r="18.1875" gradientUnits="userSpaceOnUse" id="color-3"><stop offset="0" stop-color="#ffffff" stop-opacity="0"/><stop offset="1" stop-color="#ffffff" stop-opacity="0"/></radialGradient><linearGradient x1="271.05874" y1="167.57145" x2="271.05874" y2="180.14312" gradientUnits="userSpaceOnUse" id="color-4"><stop offset="0" stop-color="#a559a2"/><stop offset="1" stop-color="#733473"/></linearGradient><radialGradient cx="271.40373" cy="145.05623" r="23.56442" gradientUnits="userSpaceOnUse" id="color-5"><stop offset="0" stop-color="#9c00da"/><stop offset="1" stop-color="#9c00da" stop-opacity="0"/></radialGradient><radialGradient cx="271.40373" cy="145.05623" r="23.56442" gradientUnits="userSpaceOnUse" id="color-6"><stop offset="0" stop-color="#ffb2fc"/><stop offset="1" stop-color="#ffb2fc" stop-opacity="0"/></radialGradient><radialGradient cx="289.53033" cy="148.15871" r="10.64915" gradientUnits="userSpaceOnUse" id="color-7"><stop offset="0" stop-color="#e2b8ef"/><stop offset="1" stop-color="#e2b8ef" stop-opacity="0"/></radialGradient><radialGradient cx="274.74701" cy="129.53184" r="7.38921" gradientUnits="userSpaceOnUse" id="color-8"><stop offset="0" stop-color="#e2b8ef"/><stop offset="1" stop-color="#e2b8ef" stop-opacity="0"/></radialGradient><radialGradient cx="250.76306" cy="147.21051" r="7.46165" gradientUnits="userSpaceOnUse" id="color-9"><stop offset="0" stop-color="#e2b8ef"/><stop offset="1" stop-color="#e2b8ef" stop-opacity="0"/></radialGradient><radialGradient cx="254.07342" cy="132.98773" r="6.80966" gradientUnits="userSpaceOnUse" id="color-10"><stop offset="0" stop-color="#e2b8ef"/><stop offset="1" stop-color="#e2b8ef" stop-opacity="0"/></radialGradient><radialGradient cx="293.80538" cy="136.47663" r="5.94034" gradientUnits="userSpaceOnUse" id="color-11"><stop offset="0" stop-color="#e2b8ef"/><stop offset="1" stop-color="#e2b8ef" stop-opacity="0"/></radialGradient><radialGradient cx="284.36858" cy="160.50866" r="3.98438" gradientUnits="userSpaceOnUse" id="color-12"><stop offset="0" stop-color="#e2b8ef"/><stop offset="1" stop-color="#e2b8ef" stop-opacity="0"/></radialGradient><radialGradient cx="259.58734" cy="161.58632" r="3.40483" gradientUnits="userSpaceOnUse" id="color-13"><stop offset="0" stop-color="#e2b8ef"/><stop offset="1" stop-color="#e2b8ef" stop-opacity="0"/></radialGradient><radialGradient cx="274.09683" cy="159.69616" r="5.07103" gradientUnits="userSpaceOnUse" id="color-14"><stop offset="0" stop-color="#e2b8ef"/><stop offset="1" stop-color="#e2b8ef" stop-opacity="0"/></radialGradient><radialGradient cx="286.39402" cy="153.67864" r="4.78125" gradientUnits="userSpaceOnUse" id="color-15"><stop offset="0" stop-color="#e2b8ef"/><stop offset="1" stop-color="#e2b8ef" stop-opacity="0"/></radialGradient><radialGradient cx="249.01881" cy="139.83927" r="7.67898" gradientUnits="userSpaceOnUse" id="color-16"><stop offset="0" stop-color="#e2b8ef"/><stop offset="1" stop-color="#e2b8ef" stop-opacity="0"/></radialGradient><radialGradient cx="284.1273" cy="131.76581" r="4.20171" gradientUnits="userSpaceOnUse" id="color-17"><stop offset="0" stop-color="#e2b8ef"/><stop offset="1" stop-color="#e2b8ef" stop-opacity="0"/></radialGradient><radialGradient cx="264.89529" cy="130.06062" r="3.04262" gradientUnits="userSpaceOnUse" id="color-18"><stop offset="0" stop-color="#e2b8ef"/><stop offset="1" stop-color="#e2b8ef" stop-opacity="0"/></radialGradient><radialGradient cx="255.16335" cy="156.2824" r="6.66477" gradientUnits="userSpaceOnUse" id="color-19"><stop offset="0" stop-color="#e2b8ef"/><stop offset="1" stop-color="#e2b8ef" stop-opacity="0"/></radialGradient><radialGradient cx="264.24985" cy="137.96576" r="4.12926" gradientUnits="userSpaceOnUse" id="color-20"><stop offset="0" stop-color="#e2b8ef"/><stop offset="1" stop-color="#e2b8ef" stop-opacity="0"/></radialGradient><radialGradient cx="277.8635" cy="138.34782" r="3.54972" gradientUnits="userSpaceOnUse" id="color-21"><stop offset="0" stop-color="#e2b8ef"/><stop offset="1" stop-color="#e2b8ef" stop-opacity="0"/></radialGradient><radialGradient cx="267.01527" cy="152.49713" r="4.12926" gradientUnits="userSpaceOnUse" id="color-22"><stop offset="0" stop-color="#e2b8ef"/><stop offset="1" stop-color="#e2b8ef" stop-opacity="0"/></radialGradient><radialGradient cx="274.87852" cy="148.91619" r="3.1875" gradientUnits="userSpaceOnUse" id="color-23"><stop offset="0" stop-color="#e2b8ef"/><stop offset="1" stop-color="#e2b8ef" stop-opacity="0"/></radialGradient><radialGradient cx="271.23706" cy="145.05623" r="23.56442" gradientUnits="userSpaceOnUse" id="color-24"><stop offset="0" stop-color="#9c00da"/><stop offset="1" stop-color="#9c00da" stop-opacity="0"/></radialGradient><radialGradient cx="271.23706" cy="145.05623" r="23.56442" gradientUnits="userSpaceOnUse" id="color-25"><stop offset="0" stop-color="#ffb2fc"/><stop offset="1" stop-color="#ffb2fc" stop-opacity="0"/></radialGradient></defs><g transform="translate(-239.79672,-120.22726)"><g data-paper-data="{&quot;isPaintingLayer&quot;:true}" fill-rule="nonzero" stroke-linejoin="miter" stroke-miterlimit="10" stroke-dasharray="" stroke-dashoffset="0" style="mix-blend-mode: normal"><path d="M240.54673,179.73799v-58.76072h60.94658v58.76072z" fill="url(#color-1)" stroke="#7e1b8b" stroke-width="1.5" stroke-linecap="butt"/><path d="M252.57952,145.8125c0,-10.04468 8.14282,-18.1875 18.1875,-18.1875c10.04468,0 18.1875,8.14282 18.1875,18.1875c0,10.04468 -8.14282,18.1875 -18.1875,18.1875c-10.04468,0 -18.1875,-8.14282 -18.1875,-18.1875z" fill="url(#color-2)" stroke="url(#color-3)" stroke-width="0" stroke-linecap="butt"/><path d="M240.13023,180.14312v-12.57143c0,0 9.2599,0 15.94982,0c11.34971,0 45.90733,0 45.90733,0v12.57143z" fill="url(#color-4)" stroke="none" stroke-width="0" stroke-linecap="butt"/><path d="M266.14555,145.78167c1.1074,-3.27051 6.80942,-8.57941 9.49199,-10.8556c5.88576,-4.99414 -6.54224,-10.78547 2.1707,-8.78442c6.34202,1.45654 9.15175,3.3861 12.14889,7.76348c0.15533,0.22689 2.52031,1.96248 2.66465,2.19428c0.23759,0.38153 -6.53905,4.89741 -6.33194,5.29122c2.09469,3.98308 9.60642,4.4334 8.08041,8.94021c-2.03089,5.99788 -7.6467,5.98114 -14.10789,8.23196c-4.79198,1.66933 1.26316,5.77353 -4.13813,4.53305c-3.40819,-0.78274 -7.27693,-4.85488 -5.36605,-7.38234c1.44795,-1.91516 4.43604,-2.16272 3.125,-3.90145c-3.39794,-4.5064 -2.31247,1.73208 -0.44594,-3.78038z" fill="url(#color-5)" stroke="url(#color-6)" stroke-width="3.5" stroke-linecap="butt"/><path d="M278.84823,147.33664c0,0 5.95467,-1.66983 9.34492,-1.40891c3.70346,0.28501 12.01932,3.05307 12.01932,3.05307" fill="none" stroke="url(#color-7)" stroke-width="1" stroke-linecap="round"/><path d="M272.46835,135.95475l4.55735,-12.84582" fill="none" stroke="url(#color-8)" stroke-width="3" stroke-linecap="round"/><path d="M259.21146,145.09187c0,0 -4.87541,3.17576 -7.76553,3.90053c-2.7334,0.68546 -9.13129,0.3367 -9.13129,0.3367" fill="none" stroke="url(#color-9)" stroke-width="1.5" stroke-linecap="round"/><path d="M246.46455,129.77758c0,0 7.05511,2.90627 8.63261,5.28773c1.65777,2.50263 3.83513,7.50758 3.83513,7.50758" fill="none" stroke="url(#color-10)" stroke-width="1.5" stroke-linecap="round"/><path d="M300.40675,135.19483c0,0 -4.52781,2.02532 -6.77285,2.46125c-2.15192,0.41785 -6.42989,0.10235 -6.42989,0.10235" fill="none" stroke="url(#color-11)" stroke-width="1" stroke-linecap="round"/><path d="M281.36748,156.73088c0,0 3.15774,1.96123 4.22089,3.29954c0.91537,1.15228 1.78132,4.25602 1.78132,4.25602" fill="none" stroke="url(#color-12)" stroke-width="1" stroke-linecap="round"/><path d="M263.17676,159.2687c0,0 -1.58423,2.69315 -2.85336,3.5126c-1.09936,0.70984 -4.32548,1.12269 -4.32548,1.12269" fill="none" stroke="url(#color-13)" stroke-width="1" stroke-linecap="round"/><path d="M277.68138,165.26823c0,0 -4.14961,-1.80402 -5.26861,-3.54348c-1.25506,-1.95093 -1.9005,-7.60066 -1.9005,-7.60066" fill="none" stroke="url(#color-14)" stroke-width="2" stroke-linecap="round"/><path d="M291.04902,154.78675c0,0 -3.04779,1.2001 -4.64374,0.82019c-1.50166,-0.35746 -4.66631,-3.0364 -4.66631,-3.0364" fill="none" stroke="url(#color-15)" stroke-width="2" stroke-linecap="round"/><path d="M256.44401,141.78488c0,0 -6.43316,1.07276 -8.90768,0.42437c-2.47562,-0.64868 -5.94276,-4.31556 -5.94276,-4.31556" fill="none" stroke="url(#color-16)" stroke-width="2" stroke-linecap="round"/><path d="M280.67362,134.87255c0,0 1.19933,-3.08821 2.33532,-4.11007c1.16571,-1.04861 4.57206,-2.10341 4.57206,-2.10341" fill="none" stroke="url(#color-17)" stroke-width="2" stroke-linecap="round"/><path d="M262.57222,127.27764l4.64617,5.56596" fill="none" stroke="url(#color-18)" stroke-width="2" stroke-linecap="round"/><path d="M247.76171,157.70496c0,0 3.83671,-2.55008 6.13805,-2.9924c2.5972,-0.49919 8.66522,0.14722 8.66522,0.14722" fill="none" stroke="url(#color-19)" stroke-width="3.5" stroke-linecap="round"/><path d="M267.37183,141.84271c0,0 -3.41125,-1.64285 -4.47015,-2.95783c-1.02103,-1.26794 -1.77381,-4.79608 -1.77381,-4.79608" fill="none" stroke="url(#color-20)" stroke-width="2.5" stroke-linecap="round"/><path d="M281.98374,136.02713c0,0 -2.23942,1.71985 -3.62352,2.49944c-1.36237,0.76735 -4.61693,2.14195 -4.61693,2.14195" fill="none" stroke="url(#color-21)" stroke-width="2.5" stroke-linecap="round"/><path d="M266.81194,156.3569c0,0 -1.1918,-2.07325 -1.12566,-3.32874c0.06928,-1.31493 1.53234,-4.39077 1.53234,-4.39077" fill="none" stroke="url(#color-22)" stroke-width="2.5" stroke-linecap="round"/><path d="M272.33663,146.35235c0,0 2.14816,1.62067 3.01331,2.49329" fill="none" stroke="url(#color-23)" stroke-width="3" stroke-linecap="round"/><path d="M248.27056,139.78167c1.1074,-3.27051 7.14276,-3.57941 9.82532,-5.8556c5.88576,-4.99414 6.83276,-9.28547 15.5457,-7.28442c6.34202,1.45654 -1.22325,2.3861 1.77389,6.76348c0.07445,0.10874 -1.89883,1.3966 -3.95828,2.73394c-2.23775,1.45311 -4.57724,2.96463 -4.50207,3.08534c0.23759,0.38153 -1.20571,6.60575 -0.9986,6.99956c2.09469,3.98308 8.02308,1.60007 6.49707,6.10688c-0.76644,2.26354 -3.40406,2.92071 -3.62562,3.81272c-0.36552,1.47161 6.54052,3.76786 2.51773,5.16924c-4.79198,1.66933 -1.11184,3.89853 -6.51313,2.65805c-5.99071,-1.37585 -8.03315,-6.00045 -11.07439,-10.0338c-3.39794,-4.5064 -7.35413,-8.64292 -5.4876,-14.15538z" fill="url(#color-24)" stroke="url(#color-25)" stroke-width="3.5" stroke-linecap="butt"/></g></g></svg>