<svg version="1.1" xmlns="http://www.w3.org/2000/svg" xmlns:xlink="http://www.w3.org/1999/xlink" width="66.22964" height="60.26072" viewBox="0,0,66.22964,60.26072"><defs><linearGradient x1="271.06156" y1="121.10233" x2="271.06156" y2="179.86303" gradientUnits="userSpaceOnUse" id="color-1"><stop offset="0" stop-color="#81704a"/><stop offset="1" stop-color="#54472c"/></linearGradient><linearGradient x1="270.89207" y1="167.57145" x2="270.89207" y2="180.14316" gradientUnits="userSpaceOnUse" id="color-2"><stop offset="0" stop-color="#8d7134"/><stop offset="1" stop-color="#5b4d28"/></linearGradient><radialGradient cx="274.91888" cy="145.19293" r="25.00001" gradientUnits="userSpaceOnUse" id="color-3"><stop offset="0" stop-color="#203d66"/><stop offset="1" stop-color="#568294"/></radialGradient><radialGradient cx="274.91888" cy="145.54702" r="25" gradientUnits="userSpaceOnUse" id="color-4"><stop offset="0" stop-color="#b0dbff"/><stop offset="1" stop-color="#b0dbff" stop-opacity="0"/></radialGradient><radialGradient cx="267.18924" cy="145.19294" r="25.00001" gradientUnits="userSpaceOnUse" id="color-5"><stop offset="0" stop-color="#655c1f"/><stop offset="1" stop-color="#948c56"/></radialGradient><radialGradient cx="267.18924" cy="145.54703" r="25" gradientUnits="userSpaceOnUse" id="color-6"><stop offset="0" stop-color="#fff9af"/><stop offset="1" stop-color="#fff9af" stop-opacity="0"/></radialGradient></defs><g transform="translate(-237.93924,-120.3523)"><g data-paper-data="{&quot;isPaintingLayer&quot;:true}" fill-rule="nonzero" stroke-linecap="butt" stroke-linejoin="miter" stroke-miterlimit="10" stroke-dasharray="" stroke-dashoffset="0" style="mix-blend-mode: normal"><path d="M240.5468,179.86303v-58.76072h60.94658v58.76072z" fill="url(#color-1)" stroke="#543f10" stroke-width="1.5"/><path d="M239.96363,180.14316v-12.57143c0,0 9.2599,0 15.94982,0c11.34971,0 45.90733,0 45.90733,0v12.57143z" fill="url(#color-2)" stroke="none" stroke-width="0"/><path d="M292.76538,163.05423c-4.63311,4.72291 -12.64292,-13.61059 -18.76981,-13.35692c-3.32065,0.13748 -3.66856,-11.77989 0.82455,-10.11189c3.19616,1.18652 15.01485,-14.42675 17.60597,-11.8849c9.85635,9.66896 10.00826,25.49735 0.3393,35.35371z" data-paper-data="{&quot;index&quot;:null}" fill="url(#color-3)" stroke="url(#color-4)" stroke-width="8.5"/><path d="M249.68204,127.70053c2.59112,-2.54185 14.40981,13.07142 17.60597,11.8849c4.4931,-1.66799 4.14519,10.24938 0.82455,10.11189c-6.12689,-0.25367 -14.13671,18.07983 -18.76982,13.35692c-9.66896,-9.85636 -9.51705,-25.68475 0.3393,-35.35371z" fill="url(#color-5)" stroke="url(#color-6)" stroke-width="8.5"/></g></g></svg>