<svg version="1.1" xmlns="http://www.w3.org/2000/svg" xmlns:xlink="http://www.w3.org/1999/xlink" width="13.66667" height="13.41667" viewBox="0,0,13.66667,13.41667"><g transform="translate(-239.95835,-167.25)"><g data-paper-data="{&quot;isPaintingLayer&quot;:true}" fill="#ffc54d" fill-rule="nonzero" stroke="none" stroke-width="5" stroke-linecap="butt" stroke-linejoin="miter" stroke-miterlimit="10" stroke-dasharray="" stroke-dashoffset="0" style="mix-blend-mode: normal"><path d="M239.95836,174.125c0,-2.55432 2.07068,-4.625 4.625,-4.625c2.55432,0 4.625,2.07068 4.625,4.625c0,2.55432 -2.07068,4.625 -4.625,4.625c-2.55432,0 -4.625,-2.07068 -4.625,-4.625z"/><path d="M247.70837,169.16667c0,-1.05855 0.85812,-1.91667 1.91667,-1.91667c1.05855,0 1.91666,0.85812 1.91666,1.91667c0,1.05855 -0.85812,1.91667 -1.91666,1.91667c-1.05855,0 -1.91667,-0.85813 -1.91667,-1.91667z"/><path d="M249.7917,174.08333c0,-1.05855 0.85812,-1.91667 1.91666,-1.91667c1.05855,0 1.91667,0.85812 1.91667,1.91667c0,1.05855 -0.85812,1.91667 -1.91667,1.91667c-1.05855,0 -1.91666,-0.85813 -1.91666,-1.91667z"/><path d="M248.20837,178.75c0,-1.05855 0.85812,-1.91667 1.91667,-1.91667c1.05855,0 1.91666,0.85813 1.91666,1.91667c0,1.05855 -0.85812,1.91667 -1.91666,1.91667c-1.05855,0 -1.91667,-0.85812 -1.91667,-1.91667z"/></g></g></svg>