<svg version="1.1" xmlns="http://www.w3.org/2000/svg" xmlns:xlink="http://www.w3.org/1999/xlink" width="25.44361" height="25.44362" viewBox="0,0,25.44361,25.44362"><defs><radialGradient cx="239.99997" cy="179.99999" r="12.71877" gradientUnits="userSpaceOnUse" id="color-1"><stop offset="0" stop-color="#fffcd0"/><stop offset="1" stop-color="#fffcd0" stop-opacity="0"/></radialGradient><radialGradient cx="239.99997" cy="179.99999" r="5.66787" gradientUnits="userSpaceOnUse" id="color-2"><stop offset="0" stop-color="#ffff5e"/><stop offset="1" stop-color="#ffff5e" stop-opacity="0"/></radialGradient><radialGradient cx="239.99997" cy="179.99999" r="4.32131" gradientUnits="userSpaceOnUse" id="color-3"><stop offset="0" stop-color="#fffac4"/><stop offset="1" stop-color="#fffac4" stop-opacity="0"/></radialGradient><radialGradient cx="239.99997" cy="179.99999" r="4.32131" gradientUnits="userSpaceOnUse" id="color-4"><stop offset="0" stop-color="#ffffff" stop-opacity="0"/><stop offset="1" stop-color="#ffffff" stop-opacity="0"/></radialGradient></defs><g transform="translate(-227.27819,-167.27818)"><g data-paper-data="{&quot;isPaintingLayer&quot;:true}" fill-rule="nonzero" stroke-width="0" stroke-linecap="butt" stroke-linejoin="miter" stroke-miterlimit="10" stroke-dasharray="" stroke-dashoffset="0" style="mix-blend-mode: normal"><path d="M234.66328,168.45502c6.37613,-2.94736 13.9343,-0.16783 16.88168,6.20829c2.94736,6.37613 0.16783,13.9343 -6.20827,16.88166c-6.37613,2.94736 -13.9343,0.16783 -16.88166,-6.20827c-2.94736,-6.37613 -0.16786,-13.93433 6.20827,-16.88168z" fill="url(#color-1)" stroke="none"/><path d="M234.3321,179.99999c0,-3.13028 2.53762,-5.66787 5.6679,-5.66787c3.13028,0 5.66787,2.53759 5.66787,5.66787c0,3.13028 -2.53759,5.66787 -5.66787,5.66787c-3.13028,0 -5.6679,-2.53759 -5.6679,-5.66787z" fill="url(#color-2)" stroke="none"/><path d="M235.67867,179.99999c0,-2.38657 1.93473,-4.32131 4.32131,-4.32131c2.38657,0 4.32131,1.93473 4.32131,4.32131c0,2.38657 -1.9347,4.32131 -4.32131,4.32131c-2.38657,0 -4.32131,-1.93473 -4.32131,-4.32131z" fill="url(#color-3)" stroke="url(#color-4)"/></g></g></svg>