<svg version="1.1" xmlns="http://www.w3.org/2000/svg" xmlns:xlink="http://www.w3.org/1999/xlink" width="55.125" height="55.125" viewBox="0,0,55.125,55.125"><defs><linearGradient x1="240" y1="153.1875" x2="240" y2="206.8125" gradientUnits="userSpaceOnUse" id="color-1"><stop offset="0" stop-color="#360202"/><stop offset="1" stop-color="#000000" stop-opacity="0.60925"/></linearGradient><linearGradient x1="240" y1="153.1875" x2="240" y2="206.8125" gradientUnits="userSpaceOnUse" id="color-2"><stop offset="0" stop-color="#ff0000"/><stop offset="1" stop-color="#ff0000" stop-opacity="0"/></linearGradient><radialGradient cx="239.642" cy="193.31857" r="12.5625" gradientUnits="userSpaceOnUse" id="color-3"><stop offset="0" stop-color="#ff2323"/><stop offset="1" stop-color="#ff2323" stop-opacity="0"/></radialGradient><linearGradient x1="239.642" y1="187.76765" x2="239.642" y2="198.8695" gradientUnits="userSpaceOnUse" id="color-4"><stop offset="0" stop-color="#ff0000" stop-opacity="0"/><stop offset="1" stop-color="#ff0000" stop-opacity="0"/></linearGradient><radialGradient cx="221.3295" cy="168.74236" r="5.75" gradientUnits="userSpaceOnUse" id="color-5"><stop offset="0" stop-color="#5cffef"/><stop offset="1" stop-color="#5cffef" stop-opacity="0"/></radialGradient><linearGradient x1="221.3295" y1="166.20163" x2="221.3295" y2="171.28308" gradientUnits="userSpaceOnUse" id="color-6"><stop offset="0" stop-color="#ff0000" stop-opacity="0"/><stop offset="1" stop-color="#ff0000" stop-opacity="0"/></linearGradient><radialGradient cx="233.2045" cy="163.02322" r="5.75" gradientUnits="userSpaceOnUse" id="color-7"><stop offset="0" stop-color="#5cffef"/><stop offset="1" stop-color="#5cffef" stop-opacity="0"/></radialGradient><linearGradient x1="233.2045" y1="160.4825" x2="233.2045" y2="165.56394" gradientUnits="userSpaceOnUse" id="color-8"><stop offset="0" stop-color="#ff0000" stop-opacity="0"/><stop offset="1" stop-color="#ff0000" stop-opacity="0"/></linearGradient><radialGradient cx="247.3295" cy="163.52785" r="5.75" gradientUnits="userSpaceOnUse" id="color-9"><stop offset="0" stop-color="#5cffef"/><stop offset="1" stop-color="#5cffef" stop-opacity="0"/></radialGradient><linearGradient x1="247.3295" y1="160.98713" x2="247.3295" y2="166.06857" gradientUnits="userSpaceOnUse" id="color-10"><stop offset="0" stop-color="#ff0000" stop-opacity="0"/><stop offset="1" stop-color="#ff0000" stop-opacity="0"/></linearGradient><radialGradient cx="258.5795" cy="170.25625" r="5.75" gradientUnits="userSpaceOnUse" id="color-11"><stop offset="0" stop-color="#5cffef"/><stop offset="1" stop-color="#5cffef" stop-opacity="0"/></radialGradient><linearGradient x1="258.5795" y1="167.71552" x2="258.5795" y2="172.79697" gradientUnits="userSpaceOnUse" id="color-12"><stop offset="0" stop-color="#ff0000" stop-opacity="0"/><stop offset="1" stop-color="#ff0000" stop-opacity="0"/></linearGradient><radialGradient cx="228.642" cy="178.60021" r="12.1875" gradientUnits="userSpaceOnUse" id="color-13"><stop offset="0" stop-color="#ff3c3c"/><stop offset="1" stop-color="#ff3c3c" stop-opacity="0"/></radialGradient><radialGradient cx="235.2045" cy="175.65654" r="13.125" gradientUnits="userSpaceOnUse" id="color-14"><stop offset="0" stop-color="#ff3c3c"/><stop offset="1" stop-color="#ff3c3c" stop-opacity="0"/></radialGradient><radialGradient cx="243.9545" cy="174.73138" r="11.1875" gradientUnits="userSpaceOnUse" id="color-15"><stop offset="0" stop-color="#ff3c3c"/><stop offset="1" stop-color="#ff3c3c" stop-opacity="0"/></radialGradient><radialGradient cx="249.4545" cy="180.36641" r="10.25" gradientUnits="userSpaceOnUse" id="color-16"><stop offset="0" stop-color="#ff3c3c"/><stop offset="1" stop-color="#ff3c3c" stop-opacity="0"/></radialGradient></defs><g transform="translate(-212.4375,-152.4375)"><g data-paper-data="{&quot;isPaintingLayer&quot;:true}" fill-rule="nonzero" stroke-linejoin="miter" stroke-miterlimit="10" stroke-dasharray="" stroke-dashoffset="0" style="mix-blend-mode: normal"><path d="M213.1875,206.8125v-53.625h53.625v53.625z" fill="url(#color-1)" stroke="url(#color-2)" stroke-width="1.5" stroke-linecap="butt"/><path d="M252.2045,193.31857c0,3.06569 -5.62443,5.55093 -12.5625,5.55093c-6.93807,0 -12.5625,-2.48523 -12.5625,-5.55093c0,-3.06569 5.62443,-5.55093 12.5625,-5.55093c6.93807,0 12.5625,2.48523 12.5625,5.55093z" fill="url(#color-3)" stroke="url(#color-4)" stroke-width="0" stroke-linecap="butt"/><path d="M227.0795,168.74236c0,1.4032 -2.57437,2.54072 -5.75,2.54072c-3.17563,0 -5.75,-1.13752 -5.75,-2.54072c0,-1.4032 2.57437,-2.54072 5.75,-2.54072c3.17564,0 5.75,1.13752 5.75,2.54072z" fill="url(#color-5)" stroke="url(#color-6)" stroke-width="0" stroke-linecap="butt"/><path d="M238.9545,163.02322c0,1.4032 -2.57437,2.54072 -5.75,2.54072c-3.17563,0 -5.75,-1.13752 -5.75,-2.54072c0,-1.4032 2.57437,-2.54072 5.75,-2.54072c3.17564,0 5.75,1.13752 5.75,2.54072z" fill="url(#color-7)" stroke="url(#color-8)" stroke-width="0" stroke-linecap="butt"/><path d="M253.0795,163.52785c0,1.4032 -2.57437,2.54072 -5.75,2.54072c-3.17563,0 -5.75,-1.13752 -5.75,-2.54072c0,-1.4032 2.57437,-2.54072 5.75,-2.54072c3.17564,0 5.75,1.13752 5.75,2.54072z" fill="url(#color-9)" stroke="url(#color-10)" stroke-width="0" stroke-linecap="butt"/><path d="M264.3295,170.25625c0,1.4032 -2.57437,2.54072 -5.75,2.54072c-3.17563,0 -5.75,-1.13752 -5.75,-2.54072c0,-1.4032 2.57437,-2.54072 5.75,-2.54072c3.17564,0 5.75,1.13752 5.75,2.54072z" fill="url(#color-11)" stroke="url(#color-12)" stroke-width="0" stroke-linecap="butt"/><path d="M240.8295,195.00068l-24.375,-32.80093" fill="none" stroke="url(#color-13)" stroke-width="2.5" stroke-linecap="round"/><path d="M232.0795,157.9945l6.25,35.32407" fill="none" stroke="url(#color-14)" stroke-width="2.5" stroke-linecap="round"/><path d="M248.3295,159.6766l-8.25,33.10957" fill="none" stroke="url(#color-15)" stroke-width="2.5" stroke-linecap="round"/><path d="M259.7045,167.58246l-20.5,25.5679" fill="none" stroke="url(#color-16)" stroke-width="2.5" stroke-linecap="round"/></g></g></svg>