<svg version="1.1" xmlns="http://www.w3.org/2000/svg" xmlns:xlink="http://www.w3.org/1999/xlink" width="62.44658" height="60.26072" viewBox="0,0,62.44658,60.26072"><defs><linearGradient x1="271.06156" y1="121.10228" x2="271.06156" y2="179.86299" gradientUnits="userSpaceOnUse" id="color-1"><stop offset="0" stop-color="#755569"/><stop offset="1" stop-color="#542844"/></linearGradient><radialGradient cx="269.8578" cy="150.86386" r="26.85078" gradientUnits="userSpaceOnUse" id="color-2"><stop offset="0" stop-color="#f444ff"/><stop offset="1" stop-color="#f444ff" stop-opacity="0"/></radialGradient><radialGradient cx="271.55107" cy="155.16827" r="26.72134" gradientUnits="userSpaceOnUse" id="color-3"><stop offset="0" stop-color="#f444ff"/><stop offset="1" stop-color="#f444ff" stop-opacity="0"/></radialGradient><radialGradient cx="269.8578" cy="141.53053" r="26.85078" gradientUnits="userSpaceOnUse" id="color-4"><stop offset="0" stop-color="#f567ff"/><stop offset="1" stop-color="#f567ff" stop-opacity="0"/></radialGradient><radialGradient cx="271.55107" cy="145.83493" r="26.72134" gradientUnits="userSpaceOnUse" id="color-5"><stop offset="0" stop-color="#f567ff"/><stop offset="1" stop-color="#f567ff" stop-opacity="0"/></radialGradient><linearGradient x1="270.89207" y1="167.57146" x2="270.89207" y2="180.14312" gradientUnits="userSpaceOnUse" id="color-6"><stop offset="0" stop-color="#a559a2"/><stop offset="1" stop-color="#733473"/></linearGradient><radialGradient cx="269.74295" cy="134.89059" r="22.06927" gradientUnits="userSpaceOnUse" id="color-7"><stop offset="0" stop-color="#fab6ff"/><stop offset="1" stop-color="#fab6ff" stop-opacity="0"/></radialGradient><radialGradient cx="269.28694" cy="129.30658" r="12.72437" gradientUnits="userSpaceOnUse" id="color-8"><stop offset="0" stop-color="#fab6ff"/><stop offset="1" stop-color="#fab6ff" stop-opacity="0"/></radialGradient><linearGradient x1="262.68541" y1="129.21229" x2="260.71843" y2="138.22456" gradientUnits="userSpaceOnUse" id="color-9"><stop offset="0" stop-color="#6600cc"/><stop offset="1" stop-color="#d996ff"/></linearGradient><linearGradient x1="262.69064" y1="129.65887" x2="261.2009" y2="136.4845" gradientUnits="userSpaceOnUse" id="color-10"><stop offset="0" stop-color="#e7a9ff"/><stop offset="1" stop-color="#ffa8c3"/></linearGradient><linearGradient x1="267.44918" y1="132.16984" x2="265.62562" y2="140.52496" gradientUnits="userSpaceOnUse" id="color-11"><stop offset="0" stop-color="#6600cc"/><stop offset="1" stop-color="#d996ff"/></linearGradient><linearGradient x1="267.26692" y1="132.13006" x2="265.53616" y2="140.06" gradientUnits="userSpaceOnUse" id="color-12"><stop offset="0" stop-color="#e7a9ff"/><stop offset="1" stop-color="#ffa8c3"/></linearGradient><linearGradient x1="266.06041" y1="123.21197" x2="264.24709" y2="131.52015" gradientUnits="userSpaceOnUse" id="color-13"><stop offset="0" stop-color="#d996ff"/><stop offset="1" stop-color="#6600cc"/></linearGradient><linearGradient x1="265.27897" y1="124.31405" x2="263.73079" y2="131.40747" gradientUnits="userSpaceOnUse" id="color-14"><stop offset="0" stop-color="#e7a9ff"/><stop offset="1" stop-color="#ffa8c3"/></linearGradient><linearGradient x1="269.45579" y1="129.50977" x2="267.02779" y2="140.6343" gradientUnits="userSpaceOnUse" id="color-15"><stop offset="0" stop-color="#6600cc"/><stop offset="1" stop-color="#d996ff"/></linearGradient><linearGradient x1="269.45579" y1="129.50977" x2="267.08081" y2="140.39135" gradientUnits="userSpaceOnUse" id="color-16"><stop offset="0" stop-color="#e7a9ff"/><stop offset="1" stop-color="#ffa8c3"/></linearGradient><linearGradient x1="270.40223" y1="124.1596" x2="268.62989" y2="132.28" gradientUnits="userSpaceOnUse" id="color-17"><stop offset="0" stop-color="#d996ff"/><stop offset="1" stop-color="#6600cc"/></linearGradient><linearGradient x1="270.58444" y1="124.19937" x2="268.85188" y2="132.13755" gradientUnits="userSpaceOnUse" id="color-18"><stop offset="0" stop-color="#e7a9ff"/><stop offset="1" stop-color="#ffa8c3"/></linearGradient><linearGradient x1="273.75833" y1="124.89209" x2="272.6724" y2="129.86758" gradientUnits="userSpaceOnUse" id="color-19"><stop offset="0" stop-color="#d996ff"/><stop offset="1" stop-color="#6600cc"/></linearGradient><linearGradient x1="274.00904" y1="125.20133" x2="272.97613" y2="129.93387" gradientUnits="userSpaceOnUse" id="color-20"><stop offset="0" stop-color="#e7a9ff"/><stop offset="1" stop-color="#ffa8c3"/></linearGradient><linearGradient x1="277.51196" y1="128.76017" x2="275.67816" y2="137.16222" gradientUnits="userSpaceOnUse" id="color-21"><stop offset="0" stop-color="#6600cc"/><stop offset="1" stop-color="#d996ff"/></linearGradient><linearGradient x1="277.41315" y1="128.48407" x2="275.72517" y2="136.21798" gradientUnits="userSpaceOnUse" id="color-22"><stop offset="0" stop-color="#e7a9ff"/><stop offset="1" stop-color="#ffa8c3"/></linearGradient><linearGradient x1="275.67688" y1="131.31013" x2="273.28985" y2="142.2469" gradientUnits="userSpaceOnUse" id="color-23"><stop offset="0" stop-color="#6600cc"/><stop offset="1" stop-color="#d996ff"/></linearGradient><linearGradient x1="275.85911" y1="131.34991" x2="273.59139" y2="141.74001" gradientUnits="userSpaceOnUse" id="color-24"><stop offset="0" stop-color="#e7a9ff"/><stop offset="1" stop-color="#ffa8c3"/></linearGradient><radialGradient cx="271.13469" cy="138.42848" r="21.96287" gradientUnits="userSpaceOnUse" id="color-25"><stop offset="0" stop-color="#f78bff"/><stop offset="1" stop-color="#f78bff" stop-opacity="0"/></radialGradient><radialGradient cx="270.08937" cy="131.34641" r="12.66303" gradientUnits="userSpaceOnUse" id="color-26"><stop offset="0" stop-color="#fab6ff"/><stop offset="1" stop-color="#fab6ff" stop-opacity="0"/></radialGradient></defs><g transform="translate(-239.79673,-120.35226)"><g data-paper-data="{&quot;isPaintingLayer&quot;:true}" fill-rule="nonzero" stroke-linejoin="miter" stroke-miterlimit="10" stroke-dasharray="" stroke-dashoffset="0" style="mix-blend-mode: normal"><path d="M240.54674,179.86299v-58.76072h60.94658v58.76072z" fill="url(#color-1)" stroke="#7e1b8b" stroke-width="1.5" stroke-linecap="butt"/><path d="M243.00701,159.85307c0,0 2.30278,-13.06443 27.88369,-12.56905c17.18849,0.33286 25.22872,5.00962 25.22872,5.00962" fill="none" stroke="url(#color-2)" stroke-width="3" stroke-linecap="round"/><path d="M296.39176,152.46587c0,0 -0.11791,12.13151 -25.5755,11.63852c-17.1056,-0.33125 -22.70384,-4.62706 -24.52825,-7.58148c-0.97616,-1.58078 -0.4275,-1.66643 -0.4275,-1.66643" fill="none" stroke="url(#color-3)" stroke-width="4" stroke-linecap="round"/><path d="M243.00701,150.51974c0,0 2.30278,-13.06443 27.88369,-12.56906c17.18849,0.33286 25.22872,5.00962 25.22872,5.00962" fill="none" stroke="url(#color-4)" stroke-width="3" stroke-linecap="round"/><path d="M295.28065,143.02143c0,0 0.9932,12.24262 -24.46438,11.74963c-17.1056,-0.33125 -22.70384,-4.62706 -24.52825,-7.58148c-0.97616,-1.58078 -0.87194,-2.77755 -0.87194,-2.77755" fill="none" stroke="url(#color-5)" stroke-width="4" stroke-linecap="round"/><path d="M239.96357,180.14312v-12.57143c0,0 9.2599,0 15.94982,0c11.34971,0 45.90733,0 45.90733,0v12.57143z" fill="url(#color-6)" stroke="none" stroke-width="0" stroke-linecap="butt"/><path d="M250.22923,139.72347c0,0 -0.66285,-8.18239 20.36268,-7.77523c14.12761,0.27359 20.73606,4.11752 20.73606,4.11752" fill="none" stroke="url(#color-7)" stroke-width="3.5" stroke-linecap="round"/><path d="M256.56257,133.5665c0,0 1.09127,-6.19113 13.21386,-5.95637c8.14549,0.15774 11.95569,2.37402 11.95569,2.37402" fill="none" stroke="url(#color-8)" stroke-width="3" stroke-linecap="round"/><g stroke-width="0.5" stroke-linecap="round"><path d="M263.38597,131.18466l-1.52099,5.44476l-0.15592,-7.18481z" fill="url(#color-9)" stroke="url(#color-10)"/><path d="M263.2716,131.25805l6.25992,9.67397l-7.75993,-2.57594z" fill="url(#color-11)" stroke="url(#color-12)"/><path d="M267.94201,124.84678l-4.63374,6.46844l-1.57785,-2.45889z" fill="url(#color-13)" stroke="url(#color-14)"/><path d="M274.94763,130.7084l-5.13055,10.28014l-6.44733,-9.95494z" fill="url(#color-15)" stroke="url(#color-16)"/><path d="M263.75349,131.0248l5.40488,-7.02559l5.42831,6.33536z" fill="url(#color-17)" stroke="url(#color-18)"/><path d="M277.21542,128.2037l-2.28996,2.15563l-4.93589,-5.96253z" fill="url(#color-19)" stroke="url(#color-20)"/><path d="M277.66211,136.64073l-2.7614,-5.94257l2.48066,-2.22104z" fill="url(#color-21)" stroke="url(#color-22)"/><path d="M277.78909,137.96719l-7.41858,3.06986l4.48489,-9.90618z" fill="url(#color-23)" stroke="url(#color-24)"/></g><path d="M291.1713,136.24993c0,0 0.2836,9.92856 -20.64057,9.52336c-14.05948,-0.27227 -18.66081,-3.80308 -20.16033,-6.23139c-0.80233,-1.29928 -0.71666,-2.28293 -0.71666,-2.28293" fill="none" stroke="url(#color-25)" stroke-width="4" stroke-linecap="round"/><path d="M281.39352,130.17644c0,0 0.41177,5.63835 -11.65238,5.40473c-8.10621,-0.15698 -10.75917,-2.19272 -11.62375,-3.5928c-0.4626,-0.74912 -0.4132,-1.31626 -0.4132,-1.31626" fill="none" stroke="url(#color-26)" stroke-width="3" stroke-linecap="round"/></g></g></svg>