<svg width="480px" height="360px" xmlns="http://www.w3.org/2000/svg"><path fill="#F00" d="M252.462 164L252.462 174.430Q252.462 175.752 252.089 176.823Q251.715 177.894 250.993 178.647Q250.271 179.400 249.224 179.810Q248.178 180.220 246.819 180.220L246.819 180.220Q245.325 180.220 244.285 179.829Q243.244 179.437 242.589 178.721Q241.934 178.005 241.634 177.001Q241.334 175.997 241.334 174.761L241.334 174.761L241.334 164L243.513 164L243.513 174.589Q243.513 175.532 243.691 176.242Q243.868 176.952 244.272 177.429Q244.676 177.907 245.319 178.151Q245.962 178.396 246.892 178.396L246.892 178.396Q248.630 178.396 249.457 177.393Q250.283 176.389 250.283 174.565L250.283 174.565L250.283 164L252.462 164Z"/></svg>