<svg version="1.1" xmlns="http://www.w3.org/2000/svg" xmlns:xlink="http://www.w3.org/1999/xlink" width="63.15771" height="60.26072" viewBox="0,0,63.15771,60.26072"><defs><linearGradient x1="271.06156" y1="121.10233" x2="271.06156" y2="179.86303" gradientUnits="userSpaceOnUse" id="color-1"><stop offset="0" stop-color="#81704a"/><stop offset="1" stop-color="#54472c"/></linearGradient><linearGradient x1="270.89207" y1="167.57145" x2="270.89207" y2="180.14316" gradientUnits="userSpaceOnUse" id="color-2"><stop offset="0" stop-color="#8d7134"/><stop offset="1" stop-color="#5b4d28"/></linearGradient><radialGradient cx="270.38777" cy="133.6875" r="29.93328" gradientUnits="userSpaceOnUse" id="color-3"><stop offset="0" stop-color="#ffca89"/><stop offset="1" stop-color="#ffca89" stop-opacity="0"/></radialGradient><radialGradient cx="271.4638" cy="139.0625" r="29.93328" gradientUnits="userSpaceOnUse" id="color-4"><stop offset="0" stop-color="#ffca89"/><stop offset="1" stop-color="#ffca89" stop-opacity="0"/></radialGradient><radialGradient cx="271.53981" cy="144.9375" r="29.93327" gradientUnits="userSpaceOnUse" id="color-5"><stop offset="0" stop-color="#ffca89"/><stop offset="1" stop-color="#ffca89" stop-opacity="0"/></radialGradient><radialGradient cx="271.39961" cy="151.4375" r="29.93328" gradientUnits="userSpaceOnUse" id="color-6"><stop offset="0" stop-color="#ffca89"/><stop offset="1" stop-color="#ffca89" stop-opacity="0"/></radialGradient><radialGradient cx="272.52124" cy="157.1875" r="29.93327" gradientUnits="userSpaceOnUse" id="color-7"><stop offset="0" stop-color="#ffca89"/><stop offset="1" stop-color="#ffca89" stop-opacity="0"/></radialGradient><linearGradient x1="262.76701" y1="137.22686" x2="262.76701" y2="160.625" gradientUnits="userSpaceOnUse" id="color-8"><stop offset="0" stop-color="#ff7a6c"/><stop offset="1" stop-color="#ffc9b3"/></linearGradient><linearGradient x1="284.89201" y1="129" x2="284.89201" y2="145.875" gradientUnits="userSpaceOnUse" id="color-9"><stop offset="0" stop-color="#ff6f56"/><stop offset="1" stop-color="#ffc9b3"/></linearGradient><linearGradient x1="268.14201" y1="156.92054" x2="268.14201" y2="161.95839" gradientUnits="userSpaceOnUse" id="color-10"><stop offset="0" stop-color="#ffdada"/><stop offset="1" stop-color="#ff9a90"/></linearGradient><radialGradient cx="268.14201" cy="159.43946" r="4.5766" gradientUnits="userSpaceOnUse" id="color-11"><stop offset="0" stop-color="#ff936d" stop-opacity="0"/><stop offset="1" stop-color="#ff936d" stop-opacity="0"/></radialGradient><linearGradient x1="256.26701" y1="159.92054" x2="256.26701" y2="164.95839" gradientUnits="userSpaceOnUse" id="color-12"><stop offset="0" stop-color="#ffdada"/><stop offset="1" stop-color="#ff9a90"/></linearGradient><radialGradient cx="256.26701" cy="162.43946" r="4.5766" gradientUnits="userSpaceOnUse" id="color-13"><stop offset="0" stop-color="#ff936d" stop-opacity="0"/><stop offset="1" stop-color="#ff936d" stop-opacity="0"/></radialGradient><linearGradient x1="283.89201" y1="145.29554" x2="283.89201" y2="150.33339" gradientUnits="userSpaceOnUse" id="color-14"><stop offset="0" stop-color="#ffdada"/><stop offset="1" stop-color="#ff9a90"/></linearGradient><radialGradient cx="283.89201" cy="147.81446" r="4.5766" gradientUnits="userSpaceOnUse" id="color-15"><stop offset="0" stop-color="#ff936d" stop-opacity="0"/><stop offset="1" stop-color="#ff936d" stop-opacity="0"/></radialGradient></defs><g transform="translate(-239.7968,-120.3523)"><g data-paper-data="{&quot;isPaintingLayer&quot;:true}" fill-rule="nonzero" stroke-linejoin="miter" stroke-miterlimit="10" stroke-dasharray="" stroke-dashoffset="0" style="mix-blend-mode: normal"><path d="M240.54681,179.86303v-58.76072h60.94658v58.76072z" fill="url(#color-1)" stroke="#543f10" stroke-width="1.5" stroke-linecap="butt"/><path d="M239.96363,180.14316v-12.57143c0,0 9.2599,0 15.94982,0c11.34971,0 45.90733,0 45.90733,0v12.57143z" fill="url(#color-2)" stroke="none" stroke-width="0" stroke-linecap="butt"/><path d="M240.45451,139.125c0,0 18.37575,-4.97427 28.1809,-6.75541c10.13918,-1.84182 31.68566,-4.11959 31.68566,-4.11959" fill="none" stroke="url(#color-3)" stroke-width="1" stroke-linecap="round"/><path d="M241.53053,144.5c0,0 19.00526,-4.87279 28.83822,-6.659c10.1146,-1.83736 31.02833,-4.216 31.02833,-4.216" fill="none" stroke="url(#color-4)" stroke-width="1" stroke-linecap="round"/><path d="M241.60654,150.375c0,0 19.77089,-5.23917 29.73669,-7.0495c9.98966,-1.81466 30.12986,-3.8255 30.12986,-3.8255" fill="none" stroke="url(#color-5)" stroke-width="1" stroke-linecap="round"/><path d="M241.46634,156.875c0,0 19.77055,-5.45494 29.83446,-7.28308c9.88853,-1.79629 30.03209,-3.59191 30.03209,-3.59191" fill="none" stroke="url(#color-6)" stroke-width="1" stroke-linecap="round"/><path d="M242.58796,162.625c0,0 20.53229,-5.50248 30.64569,-7.33962c9.83432,-1.78644 29.22087,-3.53538 29.22087,-3.53538" fill="none" stroke="url(#color-7)" stroke-width="1" stroke-linecap="round"/><path d="M259.07257,160.625c0,0 -2.78519,-7.23324 -3.57723,-10.98221c-0.74435,-3.52326 -1.04083,-10.87658 -1.04083,-10.87658c0,0 3.5947,-1.99684 5.53118,-2.52738c1.79916,-0.49292 5.70609,-0.55132 5.70609,-0.55132c0,0 1.31665,7.92509 2.26836,11.74833c0.92688,3.7235 3.36937,10.89982 3.36937,10.89982" fill="none" stroke="url(#color-8)" stroke-width="1.5" stroke-linecap="round"/><path d="M286.95451,145.875c0,0 -1.53134,-5.27593 -2.26427,-8.27429c-0.6247,-2.5556 -1.86073,-8.60071 -1.86073,-8.60071" fill="none" stroke="url(#color-9)" stroke-width="1.5" stroke-linecap="round"/><path d="M272.63948,158.59211c0.24675,1.30969 -1.56681,2.75077 -4.05069,3.21875c-2.48388,0.46798 -4.69751,-0.21436 -4.94426,-1.52405c-0.24675,-1.30969 1.56681,-2.75077 4.05069,-3.21875c2.48388,-0.46798 4.69751,0.21436 4.94426,1.52405z" fill="url(#color-10)" stroke="url(#color-11)" stroke-width="0" stroke-linecap="butt"/><path d="M260.76448,161.59211c0.24675,1.30969 -1.56681,2.75077 -4.05069,3.21875c-2.48388,0.46798 -4.69751,-0.21436 -4.94426,-1.52405c-0.24675,-1.30969 1.56681,-2.75077 4.05069,-3.21875c2.48389,-0.46798 4.69751,0.21436 4.94426,1.52405z" fill="url(#color-12)" stroke="url(#color-13)" stroke-width="0" stroke-linecap="butt"/><path d="M288.38948,146.96711c0.24675,1.30969 -1.56681,2.75077 -4.05069,3.21875c-2.48388,0.46798 -4.69751,-0.21436 -4.94426,-1.52405c-0.24675,-1.30969 1.56681,-2.75077 4.05069,-3.21875c2.48388,-0.46798 4.69751,0.21436 4.94426,1.52405z" fill="url(#color-14)" stroke="url(#color-15)" stroke-width="0" stroke-linecap="butt"/></g></g></svg>