<svg version="1.1" xmlns="http://www.w3.org/2000/svg" xmlns:xlink="http://www.w3.org/1999/xlink" width="240.6" height="168.6" viewBox="0,0,240.6,168.6"><defs><linearGradient x1="120" y1="96" x2="120" y2="264" gradientUnits="userSpaceOnUse" id="color-1"><stop offset="0" stop-color="#0b697c"/><stop offset="1" stop-color="#021618"/></linearGradient></defs><g transform="translate(-119.7,-95.7)"><g data-paper-data="{&quot;isPaintingLayer&quot;:true}" fill-rule="nonzero" stroke-linejoin="miter" stroke-miterlimit="10" stroke-dasharray="" stroke-dashoffset="0" style="mix-blend-mode: normal"><path d="M120,264v-168h240v168z" fill="url(#color-1)" stroke="none" stroke-width="1" stroke-linecap="butt"/><path d="M120,96h240" fill="#000000" stroke-opacity="0.5" stroke="#ffffff" stroke-width="0.6" stroke-linecap="butt"/><path d="M120,108h240" fill="#000000" stroke-opacity="0.5" stroke="#ffffff" stroke-width="0.6" stroke-linecap="butt"/><path d="M120,120h240" fill="#000000" stroke-opacity="0.5" stroke="#ffffff" stroke-width="0.6" stroke-linecap="butt"/><path d="M120,132h240" fill="#000000" stroke-opacity="0.5" stroke="#ffffff" stroke-width="0.6" stroke-linecap="butt"/><path d="M120,144h240" fill="#000000" stroke-opacity="0.5" stroke="#ffffff" stroke-width="0.6" stroke-linecap="butt"/><path d="M120,156h240" fill="#000000" stroke-opacity="0.5" stroke="#ffffff" stroke-width="0.6" stroke-linecap="butt"/><path d="M120,168h240" fill="#000000" stroke-opacity="0.5" stroke="#ffffff" stroke-width="0.6" stroke-linecap="butt"/><path d="M120,180h240" fill="#000000" stroke-opacity="0.5" stroke="#ffffff" stroke-width="0.6" stroke-linecap="butt"/><path d="M120,192h240" fill="#000000" stroke-opacity="0.5" stroke="#ffffff" stroke-width="0.6" stroke-linecap="butt"/><path d="M120,204h240" fill="#000000" stroke-opacity="0.5" stroke="#ffffff" stroke-width="0.6" stroke-linecap="butt"/><path d="M120,216h240" fill="#000000" stroke-opacity="0.5" stroke="#ffffff" stroke-width="0.6" stroke-linecap="butt"/><path d="M120,228h240" fill="#000000" stroke-opacity="0.5" stroke="#ffffff" stroke-width="0.6" stroke-linecap="butt"/><path d="M120,240h240" fill="#000000" stroke-opacity="0.5" stroke="#ffffff" stroke-width="0.6" stroke-linecap="butt"/><path d="M120,252h240" fill="#000000" stroke-opacity="0.5" stroke="#ffffff" stroke-width="0.6" stroke-linecap="butt"/><path d="M120,264h240" fill="#000000" stroke-opacity="0.5" stroke="#ffffff" stroke-width="0.6" stroke-linecap="butt"/><path d="M120,96v168" fill="#000000" stroke-opacity="0.5" stroke="#ffffff" stroke-width="0.6" stroke-linecap="butt"/><path d="M132,96v168" fill="#000000" stroke-opacity="0.5" stroke="#ffffff" stroke-width="0.6" stroke-linecap="butt"/><path d="M144,96v168" fill="#000000" stroke-opacity="0.5" stroke="#ffffff" stroke-width="0.6" stroke-linecap="butt"/><path d="M156,96v168" fill="#000000" stroke-opacity="0.5" stroke="#ffffff" stroke-width="0.6" stroke-linecap="butt"/><path d="M168,96v168" fill="#000000" stroke-opacity="0.5" stroke="#ffffff" stroke-width="0.6" stroke-linecap="butt"/><path d="M180,96v168" fill="#000000" stroke-opacity="0.5" stroke="#ffffff" stroke-width="0.6" stroke-linecap="butt"/><path d="M192,96v168" fill="#000000" stroke-opacity="0.5" stroke="#ffffff" stroke-width="0.6" stroke-linecap="butt"/><path d="M204,96v168" fill="#000000" stroke-opacity="0.5" stroke="#ffffff" stroke-width="0.6" stroke-linecap="butt"/><path d="M216,96v168" fill="#000000" stroke-opacity="0.5" stroke="#ffffff" stroke-width="0.6" stroke-linecap="butt"/><path d="M228,96v168" fill="#000000" stroke-opacity="0.5" stroke="#ffffff" stroke-width="0.6" stroke-linecap="butt"/><path d="M240,96v168" fill="#000000" stroke-opacity="0.5" stroke="#ffffff" stroke-width="0.6" stroke-linecap="butt"/><path d="M252,96v168" fill="#000000" stroke-opacity="0.5" stroke="#ffffff" stroke-width="0.6" stroke-linecap="butt"/><path d="M264,96v168" fill="#000000" stroke-opacity="0.5" stroke="#ffffff" stroke-width="0.6" stroke-linecap="butt"/><path d="M276,96v168" fill="#000000" stroke-opacity="0.5" stroke="#ffffff" stroke-width="0.6" stroke-linecap="butt"/><path d="M288,96v168" fill="#000000" stroke-opacity="0.5" stroke="#ffffff" stroke-width="0.6" stroke-linecap="butt"/><path d="M300,96v168" fill="#000000" stroke-opacity="0.5" stroke="#ffffff" stroke-width="0.6" stroke-linecap="butt"/><path d="M312,96v168" fill="#000000" stroke-opacity="0.5" stroke="#ffffff" stroke-width="0.6" stroke-linecap="butt"/><path d="M324,96v168" fill="#000000" stroke-opacity="0.5" stroke="#ffffff" stroke-width="0.6" stroke-linecap="butt"/><path d="M336,96v168" fill="#000000" stroke-opacity="0.5" stroke="#ffffff" stroke-width="0.6" stroke-linecap="butt"/><path d="M348,96v168" fill="#000000" stroke-opacity="0.5" stroke="#ffffff" stroke-width="0.6" stroke-linecap="butt"/><path d="M360,96v168" fill="#000000" stroke-opacity="0.5" stroke="#ffffff" stroke-width="0.6" stroke-linecap="butt"/><path d="M126,102h228" fill="#000000" stroke-opacity="0.5" stroke="#a3ff33" stroke-width="11.4" stroke-linecap="round"/><path d="M126,114h144" fill="#000000" stroke-opacity="0.5" stroke="#a3ff33" stroke-width="11.4" stroke-linecap="round"/><path d="M126,126h132" fill="#000000" stroke-opacity="0.5" stroke="#a3ff33" stroke-width="11.4" stroke-linecap="round"/><path d="M126,138h120" fill="#000000" stroke-opacity="0.5" stroke="#a3ff33" stroke-width="11.4" stroke-linecap="round"/><path d="M126,150h120" fill="#000000" stroke-opacity="0.5" stroke="#a3ff33" stroke-width="11.4" stroke-linecap="round"/><path d="M126,162h108" fill="#000000" stroke-opacity="0.5" stroke="#a3ff33" stroke-width="11.4" stroke-linecap="round"/><path d="M126,174h108" fill="#000000" stroke-opacity="0.5" stroke="#a3ff33" stroke-width="11.4" stroke-linecap="round"/><path d="M210,258v-24" fill="#000000" stroke-opacity="0.5" stroke="#a3ff33" stroke-width="11.4" stroke-linecap="round"/><path d="M210,234h-12" fill="#000000" stroke-opacity="0.5" stroke="#a3ff33" stroke-width="11.4" stroke-linecap="round"/><path d="M198,234v-60" fill="#000000" stroke-opacity="0.5" stroke="#a3ff33" stroke-width="11.4" stroke-linecap="round"/><path d="M282,258v-60" fill="#000000" stroke-opacity="0.5" stroke="#a3ff33" stroke-width="11.4" stroke-linecap="round"/><path d="M282,198h36" fill="#000000" stroke-opacity="0.5" stroke="#a3ff33" stroke-width="11.4" stroke-linecap="round"/><path d="M318,198v-96" fill="#000000" stroke-opacity="0.5" stroke="#a3ff33" stroke-width="11.4" stroke-linecap="round"/><path d="M282,198h-12" fill="#000000" stroke-opacity="0.5" stroke="#a3ff33" stroke-width="11.4" stroke-linecap="round"/><path d="M270,198v-24" fill="#000000" stroke-opacity="0.5" stroke="#a3ff33" stroke-width="11.4" stroke-linecap="round"/><path d="M270,174h-36" fill="#000000" stroke-opacity="0.5" stroke="#a3ff33" stroke-width="11.4" stroke-linecap="round"/><path d="M126,102h228" fill="#000000" stroke="#bbff3d" stroke-width="7.8" stroke-linecap="round"/><path d="M126,114h144" fill="#000000" stroke="#bbff3d" stroke-width="7.8" stroke-linecap="round"/><path d="M126,126h132" fill="#000000" stroke="#bbff3d" stroke-width="7.8" stroke-linecap="round"/><path d="M126,138h120" fill="#000000" stroke="#bbff3d" stroke-width="7.8" stroke-linecap="round"/><path d="M126,150h120" fill="#000000" stroke="#bbff3d" stroke-width="7.8" stroke-linecap="round"/><path d="M126,162h108" fill="#000000" stroke="#bbff3d" stroke-width="7.8" stroke-linecap="round"/><path d="M126,174h108" fill="#000000" stroke="#bbff3d" stroke-width="7.8" stroke-linecap="round"/><path d="M210,258v-24" fill="#000000" stroke="#bbff3d" stroke-width="7.8" stroke-linecap="round"/><path d="M210,234h-12" fill="#000000" stroke="#bbff3d" stroke-width="7.8" stroke-linecap="round"/><path d="M198,234v-60" fill="#000000" stroke="#bbff3d" stroke-width="7.8" stroke-linecap="round"/><path d="M282,258v-60" fill="#000000" stroke="#bbff3d" stroke-width="7.8" stroke-linecap="round"/><path d="M282,198h36" fill="#000000" stroke="#bbff3d" stroke-width="7.8" stroke-linecap="round"/><path d="M318,198v-96" fill="#000000" stroke="#bbff3d" stroke-width="7.8" stroke-linecap="round"/><path d="M282,198h-12" fill="#000000" stroke="#bbff3d" stroke-width="7.8" stroke-linecap="round"/><path d="M270,198v-24" fill="#000000" stroke="#bbff3d" stroke-width="7.8" stroke-linecap="round"/><path d="M270,174h-36" fill="#000000" stroke="#bbff3d" stroke-width="7.8" stroke-linecap="round"/><path d="M138,264c-3.31371,0 -6,-2.68629 -6,-6v-24c0,-3.31371 2.68629,-6 6,-6v0c3.31371,0 6,2.68629 6,6v24c0,3.31371 -2.68629,6 -6,6z" fill="#bcd5e0" stroke="none" stroke-width="1" stroke-linecap="butt"/><path d="M138,240c-3.31371,0 -6,-2.68629 -6,-6v0c0,-3.31371 2.68629,-6 6,-6h24c3.31371,0 6,2.68629 6,6v0c0,3.31371 -2.68629,6 -6,6z" fill="#bcd5e0" stroke="none" stroke-width="1" stroke-linecap="butt"/><path d="M162,240c-3.31371,0 -6,-2.68629 -6,-6v-24c0,-3.31371 2.68629,-6 6,-6v0c3.31371,0 6,2.68629 6,6v24c0,3.31371 -2.68629,6 -6,6z" fill="#bcd5e0" stroke="none" stroke-width="1" stroke-linecap="butt"/><path d="M162,216c-3.31371,0 -6,-2.68629 -6,-6v0c0,-3.31371 2.68629,-6 6,-6h96c3.31371,0 6,2.68629 6,6v0c0,3.31371 -2.68629,6 -6,6z" fill="#bcd5e0" stroke="none" stroke-width="1" stroke-linecap="butt"/><path d="M258,228c-3.31371,0 -6,-2.68629 -6,-6v-12c0,-3.31371 2.68629,-6 6,-6v0c3.31371,0 6,2.68629 6,6v12c0,3.31371 -2.68629,6 -6,6z" fill="#bcd5e0" stroke="none" stroke-width="1" stroke-linecap="butt"/><path d="M258,228c-3.31371,0 -6,-2.68629 -6,-6v0c0,-3.31371 2.68629,-6 6,-6h48c3.31371,0 6,2.68629 6,6v0c0,3.31371 -2.68629,6 -6,6z" fill="#bcd5e0" stroke="none" stroke-width="1" stroke-linecap="butt"/><path d="M306,228c-3.31371,0 -6,-2.68629 -6,-6v-48c0,-3.31371 2.68629,-6 6,-6v0c3.31371,0 6,2.68629 6,6v48c0,3.31371 -2.68629,6 -6,6z" fill="#bcd5e0" stroke="none" stroke-width="1" stroke-linecap="butt"/><path d="M294,180c-3.31371,0 -6,-2.68629 -6,-6v0c0,-3.31371 2.68629,-6 6,-6h12c3.31371,0 6,2.68629 6,6v0c0,3.31371 -2.68629,6 -6,6z" fill="#bcd5e0" stroke="none" stroke-width="1" stroke-linecap="butt"/><path d="M294,180c-3.31371,0 -6,-2.68629 -6,-6v-48c0,-3.31371 2.68629,-6 6,-6v0c3.31371,0 6,2.68629 6,6v48c0,3.31371 -2.68629,6 -6,6z" fill="#bcd5e0" stroke="none" stroke-width="1" stroke-linecap="butt"/><path d="M294,132c-3.31371,0 -6,-2.68629 -6,-6v0c0,-3.31371 2.68629,-6 6,-6h48c3.31371,0 6,2.68629 6,6v0c0,3.31371 -2.68629,6 -6,6z" fill="#bcd5e0" stroke="none" stroke-width="1" stroke-linecap="butt"/><path d="M342,144c-3.31371,0 -6,-2.68629 -6,-6v-12c0,-3.31371 2.68629,-6 6,-6v0c3.31371,0 6,2.68629 6,6v12c0,3.31371 -2.68629,6 -6,6z" fill="#bcd5e0" stroke="none" stroke-width="1" stroke-linecap="butt"/><path d="M342,144c-3.31371,0 -6,-2.68629 -6,-6v0c0,-3.31371 2.68629,-6 6,-6h12c3.31371,0 6,2.68629 6,6v0c0,3.31371 -2.68629,6 -6,6z" fill="#bcd5e0" stroke="none" stroke-width="1" stroke-linecap="butt"/><path d="M138,258v-24" fill="#000000" stroke="#213a34" stroke-width="9" stroke-linecap="round"/><path d="M138,234h24" fill="#000000" stroke="#213a34" stroke-width="9" stroke-linecap="round"/><path d="M162,234v-24" fill="#000000" stroke="#213a34" stroke-width="9" stroke-linecap="round"/><path d="M162,210h96" fill="#000000" stroke="#213a34" stroke-width="9" stroke-linecap="round"/><path d="M258,210v12" fill="#000000" stroke="#213a34" stroke-width="9" stroke-linecap="round"/><path d="M258,222h48" fill="#000000" stroke="#213a34" stroke-width="9" stroke-linecap="round"/><path d="M306,222v-48" fill="#000000" stroke="#213a34" stroke-width="9" stroke-linecap="round"/><path d="M306,174h-12" fill="#000000" stroke="#213a34" stroke-width="9" stroke-linecap="round"/><path d="M294,174v-48" fill="#000000" stroke="#213a34" stroke-width="9" stroke-linecap="round"/><path d="M294,126h48" fill="#000000" stroke="#213a34" stroke-width="9" stroke-linecap="round"/><path d="M342,126v12" fill="#000000" stroke="#213a34" stroke-width="9" stroke-linecap="round"/><path d="M342,138h12" fill="#000000" stroke="#213a34" stroke-width="9" stroke-linecap="round"/><path d="M124.8,234c0,-0.66274 0.53726,-1.2 1.2,-1.2c0.66274,0 1.2,0.53726 1.2,1.2c0,0.66274 -0.53726,1.2 -1.2,1.2c-0.66274,0 -1.2,-0.53726 -1.2,-1.2z" fill-opacity="0.8" fill="#75ebff" stroke="none" stroke-width="1" stroke-linecap="butt"/><path d="M122.4,234c0,-1.98823 1.61177,-3.6 3.6,-3.6c1.98823,0 3.6,1.61177 3.6,3.6c0,1.98823 -1.61177,3.6 -3.6,3.6c-1.98823,0 -3.6,-1.61177 -3.6,-3.6z" fill-opacity="0.6" fill="#75ebff" stroke="none" stroke-width="1" stroke-linecap="butt"/><path d="M136.8,198c0,-0.66274 0.53726,-1.2 1.2,-1.2c0.66274,0 1.2,0.53726 1.2,1.2c0,0.66274 -0.53726,1.2 -1.2,1.2c-0.66274,0 -1.2,-0.53726 -1.2,-1.2z" fill-opacity="0.8" fill="#9775ff" stroke="none" stroke-width="1" stroke-linecap="butt"/><path d="M134.4,198c0,-1.98823 1.61177,-3.6 3.6,-3.6c1.98823,0 3.6,1.61177 3.6,3.6c0,1.98823 -1.61177,3.6 -3.6,3.6c-1.98823,0 -3.6,-1.61177 -3.6,-3.6z" fill-opacity="0.6" fill="#9775ff" stroke="none" stroke-width="1" stroke-linecap="butt"/><path d="M184.8,246c0,-0.66274 0.53726,-1.2 1.2,-1.2c0.66274,0 1.2,0.53726 1.2,1.2c0,0.66274 -0.53726,1.2 -1.2,1.2c-0.66274,0 -1.2,-0.53726 -1.2,-1.2z" fill-opacity="0.8" fill="#75caff" stroke="none" stroke-width="1" stroke-linecap="butt"/><path d="M182.4,246c0,-1.98823 1.61177,-3.6 3.6,-3.6c1.98823,0 3.6,1.61177 3.6,3.6c0,1.98823 -1.61177,3.6 -3.6,3.6c-1.98823,0 -3.6,-1.61177 -3.6,-3.6z" fill-opacity="0.6" fill="#75caff" stroke="none" stroke-width="1" stroke-linecap="butt"/><path d="M184.8,186c0,-0.66274 0.53726,-1.2 1.2,-1.2c0.66274,0 1.2,0.53726 1.2,1.2c0,0.66274 -0.53726,1.2 -1.2,1.2c-0.66274,0 -1.2,-0.53726 -1.2,-1.2z" fill-opacity="0.8" fill="#75caff" stroke="none" stroke-width="1" stroke-linecap="butt"/><path d="M182.4,186c0,-1.98823 1.61177,-3.6 3.6,-3.6c1.98823,0 3.6,1.61177 3.6,3.6c0,1.98823 -1.61177,3.6 -3.6,3.6c-1.98823,0 -3.6,-1.61177 -3.6,-3.6z" fill-opacity="0.6" fill="#75caff" stroke="none" stroke-width="1" stroke-linecap="butt"/><path d="M220.8,198c0,-0.66274 0.53726,-1.2 1.2,-1.2c0.66274,0 1.2,0.53726 1.2,1.2c0,0.66274 -0.53726,1.2 -1.2,1.2c-0.66274,0 -1.2,-0.53726 -1.2,-1.2z" fill-opacity="0.8" fill="#9e75ff" stroke="none" stroke-width="1" stroke-linecap="butt"/><path d="M218.4,198c0,-1.98823 1.61177,-3.6 3.6,-3.6c1.98823,0 3.6,1.61177 3.6,3.6c0,1.98823 -1.61177,3.6 -3.6,3.6c-1.98823,0 -3.6,-1.61177 -3.6,-3.6z" fill-opacity="0.6" fill="#9e75ff" stroke="none" stroke-width="1" stroke-linecap="butt"/><path d="M232.8,258c0,-0.66274 0.53726,-1.2 1.2,-1.2c0.66274,0 1.2,0.53726 1.2,1.2c0,0.66274 -0.53726,1.2 -1.2,1.2c-0.66274,0 -1.2,-0.53726 -1.2,-1.2z" fill-opacity="0.8" fill="#757aff" stroke="none" stroke-width="1" stroke-linecap="butt"/><path d="M230.4,258c0,-1.98823 1.61177,-3.6 3.6,-3.6c1.98823,0 3.6,1.61177 3.6,3.6c0,1.98823 -1.61177,3.6 -3.6,3.6c-1.98823,0 -3.6,-1.61177 -3.6,-3.6z" fill-opacity="0.6" fill="#757aff" stroke="none" stroke-width="1" stroke-linecap="butt"/><path d="M244.8,198c0,-0.66274 0.53726,-1.2 1.2,-1.2c0.66274,0 1.2,0.53726 1.2,1.2c0,0.66274 -0.53726,1.2 -1.2,1.2c-0.66274,0 -1.2,-0.53726 -1.2,-1.2z" fill-opacity="0.8" fill="#75a9ff" stroke="none" stroke-width="1" stroke-linecap="butt"/><path d="M242.4,198c0,-1.98823 1.61177,-3.6 3.6,-3.6c1.98823,0 3.6,1.61177 3.6,3.6c0,1.98823 -1.61177,3.6 -3.6,3.6c-1.98823,0 -3.6,-1.61177 -3.6,-3.6z" fill-opacity="0.6" fill="#75a9ff" stroke="none" stroke-width="1" stroke-linecap="butt"/><path d="M280.8,174c0,-0.66274 0.53726,-1.2 1.2,-1.2c0.66274,0 1.2,0.53726 1.2,1.2c0,0.66274 -0.53726,1.2 -1.2,1.2c-0.66274,0 -1.2,-0.53726 -1.2,-1.2z" fill-opacity="0.8" fill="#75afff" stroke="none" stroke-width="1" stroke-linecap="butt"/><path d="M278.4,174c0,-1.98823 1.61177,-3.6 3.6,-3.6c1.98823,0 3.6,1.61177 3.6,3.6c0,1.98823 -1.61177,3.6 -3.6,3.6c-1.98823,0 -3.6,-1.61177 -3.6,-3.6z" fill-opacity="0.6" fill="#75afff" stroke="none" stroke-width="1" stroke-linecap="butt"/><path d="M256.8,246c0,-0.66274 0.53726,-1.2 1.2,-1.2c0.66274,0 1.2,0.53726 1.2,1.2c0,0.66274 -0.53726,1.2 -1.2,1.2c-0.66274,0 -1.2,-0.53726 -1.2,-1.2z" fill-opacity="0.8" fill="#7595ff" stroke="none" stroke-width="1" stroke-linecap="butt"/><path d="M254.4,246c0,-1.98823 1.61177,-3.6 3.6,-3.6c1.98823,0 3.6,1.61177 3.6,3.6c0,1.98823 -1.61177,3.6 -3.6,3.6c-1.98823,0 -3.6,-1.61177 -3.6,-3.6z" fill-opacity="0.6" fill="#7595ff" stroke="none" stroke-width="1" stroke-linecap="butt"/><path d="M304.8,258c0,-0.66274 0.53726,-1.2 1.2,-1.2c0.66274,0 1.2,0.53726 1.2,1.2c0,0.66274 -0.53726,1.2 -1.2,1.2c-0.66274,0 -1.2,-0.53726 -1.2,-1.2z" fill-opacity="0.8" fill="#a475ff" stroke="none" stroke-width="1" stroke-linecap="butt"/><path d="M302.4,258c0,-1.98823 1.61177,-3.6 3.6,-3.6c1.98823,0 3.6,1.61177 3.6,3.6c0,1.98823 -1.61177,3.6 -3.6,3.6c-1.98823,0 -3.6,-1.61177 -3.6,-3.6z" fill-opacity="0.6" fill="#a475ff" stroke="none" stroke-width="1" stroke-linecap="butt"/><path d="M328.8,234c0,-0.66274 0.53726,-1.2 1.2,-1.2c0.66274,0 1.2,0.53726 1.2,1.2c0,0.66274 -0.53726,1.2 -1.2,1.2c-0.66274,0 -1.2,-0.53726 -1.2,-1.2z" fill-opacity="0.8" fill="#cc75ff" stroke="none" stroke-width="1" stroke-linecap="butt"/><path d="M326.4,234c0,-1.98823 1.61177,-3.6 3.6,-3.6c1.98823,0 3.6,1.61177 3.6,3.6c0,1.98823 -1.61177,3.6 -3.6,3.6c-1.98823,0 -3.6,-1.61177 -3.6,-3.6z" fill-opacity="0.6" fill="#cc75ff" stroke="none" stroke-width="1" stroke-linecap="butt"/><path d="M352.8,210c0,-0.66274 0.53726,-1.2 1.2,-1.2c0.66274,0 1.2,0.53726 1.2,1.2c0,0.66274 -0.53726,1.2 -1.2,1.2c-0.66274,0 -1.2,-0.53726 -1.2,-1.2z" fill-opacity="0.8" fill="#75ffbc" stroke="none" stroke-width="1" stroke-linecap="butt"/><path d="M350.4,210c0,-1.98823 1.61177,-3.6 3.6,-3.6c1.98823,0 3.6,1.61177 3.6,3.6c0,1.98823 -1.61177,3.6 -3.6,3.6c-1.98823,0 -3.6,-1.61177 -3.6,-3.6z" fill-opacity="0.6" fill="#75ffbc" stroke="none" stroke-width="1" stroke-linecap="butt"/><path d="M328.8,174c0,-0.66274 0.53726,-1.2 1.2,-1.2c0.66274,0 1.2,0.53726 1.2,1.2c0,0.66274 -0.53726,1.2 -1.2,1.2c-0.66274,0 -1.2,-0.53726 -1.2,-1.2z" fill-opacity="0.8" fill="#cc75ff" stroke="none" stroke-width="1" stroke-linecap="butt"/><path d="M326.4,174c0,-1.98823 1.61177,-3.6 3.6,-3.6c1.98823,0 3.6,1.61177 3.6,3.6c0,1.98823 -1.61177,3.6 -3.6,3.6c-1.98823,0 -3.6,-1.61177 -3.6,-3.6z" fill-opacity="0.6" fill="#cc75ff" stroke="none" stroke-width="1" stroke-linecap="butt"/><path d="M352.8,114c0,-0.66274 0.53726,-1.2 1.2,-1.2c0.66274,0 1.2,0.53726 1.2,1.2c0,0.66274 -0.53726,1.2 -1.2,1.2c-0.66274,0 -1.2,-0.53726 -1.2,-1.2z" fill-opacity="0.8" fill="#757aff" stroke="none" stroke-width="1" stroke-linecap="butt"/><path d="M350.4,114c0,-1.98823 1.61177,-3.6 3.6,-3.6c1.98823,0 3.6,1.61177 3.6,3.6c0,1.98823 -1.61177,3.6 -3.6,3.6c-1.98823,0 -3.6,-1.61177 -3.6,-3.6z" fill-opacity="0.6" fill="#757aff" stroke="none" stroke-width="1" stroke-linecap="butt"/><path d="M268.8,150c0,-0.66274 0.53726,-1.2 1.2,-1.2c0.66274,0 1.2,0.53726 1.2,1.2c0,0.66274 -0.53726,1.2 -1.2,1.2c-0.66274,0 -1.2,-0.53726 -1.2,-1.2z" fill-opacity="0.8" fill="#ed75ff" stroke="none" stroke-width="1" stroke-linecap="butt"/><path d="M266.4,150c0,-1.98823 1.61177,-3.6 3.6,-3.6c1.98823,0 3.6,1.61177 3.6,3.6c0,1.98823 -1.61177,3.6 -3.6,3.6c-1.98823,0 -3.6,-1.61177 -3.6,-3.6z" fill-opacity="0.6" fill="#ed75ff" stroke="none" stroke-width="1" stroke-linecap="butt"/><path d="M132,258c0,-3.31371 2.68629,-6 6,-6c3.31371,0 6,2.68629 6,6c0,3.31371 -2.68629,6 -6,6c-3.31371,0 -6,-2.68629 -6,-6z" fill-opacity="0.35" fill="#00ff44" stroke="none" stroke-width="1" stroke-linecap="butt"/><path d="M348,138c0,-3.31371 2.68629,-6 6,-6c3.31371,0 6,2.68629 6,6c0,3.31371 -2.68629,6 -6,6c-3.31371,0 -6,-2.68629 -6,-6z" fill-opacity="0.35" fill="#ff0404" stroke="none" stroke-width="1" stroke-linecap="butt"/></g></g></svg>