<svg version="1.1" xmlns="http://www.w3.org/2000/svg" xmlns:xlink="http://www.w3.org/1999/xlink" width="240.66667" height="174" viewBox="0,0,240.66667,174"><defs><linearGradient x1="120" y1="93.33333" x2="120" y2="266.66667" gradientUnits="userSpaceOnUse" id="color-1"><stop offset="0" stop-color="#4d6066"/><stop offset="1" stop-color="#00141a"/></linearGradient></defs><g transform="translate(-119.66667,-93)"><g data-paper-data="{&quot;isPaintingLayer&quot;:true}" fill-rule="nonzero" stroke-linejoin="miter" stroke-miterlimit="10" stroke-dasharray="" stroke-dashoffset="0" style="mix-blend-mode: normal"><path d="M120,266.66667v-173.33333h240v173.33333z" fill="url(#color-1)" stroke="none" stroke-width="1" stroke-linecap="butt"/><path d="M120,93.33333h240" fill="#000000" stroke-opacity="0.5" stroke="#ffffff" stroke-width="0.66667" stroke-linecap="butt"/><path d="M360,106.66667h-240" fill="#000000" stroke-opacity="0.5" stroke="#ffffff" stroke-width="0.66667" stroke-linecap="butt"/><path d="M360,120h-240" fill="#000000" stroke-opacity="0.5" stroke="#ffffff" stroke-width="0.66667" stroke-linecap="butt"/><path d="M120,133.33333h240" fill="#000000" stroke-opacity="0.5" stroke="#ffffff" stroke-width="0.66667" stroke-linecap="butt"/><path d="M360,146.66667h-240" fill="#000000" stroke-opacity="0.5" stroke="#ffffff" stroke-width="0.66667" stroke-linecap="butt"/><path d="M120,160h240" fill="#000000" stroke-opacity="0.5" stroke="#ffffff" stroke-width="0.66667" stroke-linecap="butt"/><path d="M120,173.33333h240" fill="#000000" stroke-opacity="0.5" stroke="#ffffff" stroke-width="0.66667" stroke-linecap="butt"/><path d="M120,186.66667h240" fill="#000000" stroke-opacity="0.5" stroke="#ffffff" stroke-width="0.66667" stroke-linecap="butt"/><path d="M360,200h-240" fill="#000000" stroke-opacity="0.5" stroke="#ffffff" stroke-width="0.66667" stroke-linecap="butt"/><path d="M120,213.33333h240" fill="#000000" stroke-opacity="0.5" stroke="#ffffff" stroke-width="0.66667" stroke-linecap="butt"/><path d="M120,226.66667h240" fill="#000000" stroke-opacity="0.5" stroke="#ffffff" stroke-width="0.66667" stroke-linecap="butt"/><path d="M120,240h240" fill="#000000" stroke-opacity="0.5" stroke="#ffffff" stroke-width="0.66667" stroke-linecap="butt"/><path d="M120,253.33333h240" fill="#000000" stroke-opacity="0.5" stroke="#ffffff" stroke-width="0.66667" stroke-linecap="butt"/><path d="M120,266.66667h240" fill="#000000" stroke-opacity="0.5" stroke="#ffffff" stroke-width="0.66667" stroke-linecap="butt"/><path d="M120,93.33333v173.33333" fill="#000000" stroke-opacity="0.5" stroke="#ffffff" stroke-width="0.66667" stroke-linecap="butt"/><path d="M133.33333,93.33333v173.33333" fill="#000000" stroke-opacity="0.5" stroke="#ffffff" stroke-width="0.66667" stroke-linecap="butt"/><path d="M146.66667,93.33333v173.33333" fill="#000000" stroke-opacity="0.5" stroke="#ffffff" stroke-width="0.66667" stroke-linecap="butt"/><path d="M160,93.33333v173.33333" fill="#000000" stroke-opacity="0.5" stroke="#ffffff" stroke-width="0.66667" stroke-linecap="butt"/><path d="M173.33333,93.33333v173.33333" fill="#000000" stroke-opacity="0.5" stroke="#ffffff" stroke-width="0.66667" stroke-linecap="butt"/><path d="M186.66667,93.33333v173.33333" fill="#000000" stroke-opacity="0.5" stroke="#ffffff" stroke-width="0.66667" stroke-linecap="butt"/><path d="M200,93.33333v173.33333" fill="#000000" stroke-opacity="0.5" stroke="#ffffff" stroke-width="0.66667" stroke-linecap="butt"/><path d="M213.33333,266.66667v-173.33333" fill="#000000" stroke-opacity="0.5" stroke="#ffffff" stroke-width="0.66667" stroke-linecap="butt"/><path d="M226.66667,93.33333v173.33333" fill="#000000" stroke-opacity="0.5" stroke="#ffffff" stroke-width="0.66667" stroke-linecap="butt"/><path d="M240,93.33333v173.33333" fill="#000000" stroke-opacity="0.5" stroke="#ffffff" stroke-width="0.66667" stroke-linecap="butt"/><path d="M253.33333,93.33333v173.33333" fill="#000000" stroke-opacity="0.5" stroke="#ffffff" stroke-width="0.66667" stroke-linecap="butt"/><path d="M266.66667,93.33333v173.33333" fill="#000000" stroke-opacity="0.5" stroke="#ffffff" stroke-width="0.66667" stroke-linecap="butt"/><path d="M280,93.33333v173.33333" fill="#000000" stroke-opacity="0.5" stroke="#ffffff" stroke-width="0.66667" stroke-linecap="butt"/><path d="M293.33333,93.33333v173.33333" fill="#000000" stroke-opacity="0.5" stroke="#ffffff" stroke-width="0.66667" stroke-linecap="butt"/><path d="M306.66667,266.66667v-173.33333" fill="#000000" stroke-opacity="0.5" stroke="#ffffff" stroke-width="0.66667" stroke-linecap="butt"/><path d="M320,93.33333v173.33333" fill="#000000" stroke-opacity="0.5" stroke="#ffffff" stroke-width="0.66667" stroke-linecap="butt"/><path d="M333.33333,93.33333v173.33333" fill="#000000" stroke-opacity="0.5" stroke="#ffffff" stroke-width="0.66667" stroke-linecap="butt"/><path d="M346.66667,93.33333v173.33333" fill="#000000" stroke-opacity="0.5" stroke="#ffffff" stroke-width="0.66667" stroke-linecap="butt"/><path d="M360,93.33333v173.33333" fill="#000000" stroke-opacity="0.5" stroke="#ffffff" stroke-width="0.66667" stroke-linecap="butt"/><path d="M313.33333,193.33333h-146.66667" fill="#000000" stroke-opacity="0.5" stroke="#a3ff33" stroke-width="12.66667" stroke-linecap="round"/><path d="M166.66667,206.66667h146.66667" fill="#000000" stroke-opacity="0.5" stroke="#a3ff33" stroke-width="12.66667" stroke-linecap="round"/><path d="M180,180v40" fill="#000000" stroke-opacity="0.5" stroke="#a3ff33" stroke-width="12.66667" stroke-linecap="round"/><path d="M193.33333,180v40" fill="#000000" stroke-opacity="0.5" stroke="#a3ff33" stroke-width="12.66667" stroke-linecap="round"/><path d="M286.66667,180v40" fill="#000000" stroke-opacity="0.5" stroke="#a3ff33" stroke-width="12.66667" stroke-linecap="round"/><path d="M300,220v-40" fill="#000000" stroke-opacity="0.5" stroke="#a3ff33" stroke-width="12.66667" stroke-linecap="round"/><path d="M313.33333,193.33333h-146.66667" fill="#000000" stroke="#bbff3d" stroke-width="8.66667" stroke-linecap="round"/><path d="M166.66667,206.66667h146.66667" fill="#000000" stroke="#bbff3d" stroke-width="8.66667" stroke-linecap="round"/><path d="M180,180v40" fill="#000000" stroke="#bbff3d" stroke-width="8.66667" stroke-linecap="round"/><path d="M193.33333,180v40" fill="#000000" stroke="#bbff3d" stroke-width="8.66667" stroke-linecap="round"/><path d="M286.66667,180v40" fill="#000000" stroke="#bbff3d" stroke-width="8.66667" stroke-linecap="round"/><path d="M300,220v-40" fill="#000000" stroke="#bbff3d" stroke-width="8.66667" stroke-linecap="round"/><path d="M126.66667,186.66667c-3.6819,0 -6.66667,-2.98477 -6.66667,-6.66667v0c0,-3.6819 2.98477,-6.66667 6.66667,-6.66667h26.66667c3.6819,0 6.66667,2.98477 6.66667,6.66667v0c0,3.6819 -2.98477,6.66667 -6.66667,6.66667z" fill="#bcd5e0" stroke="none" stroke-width="1" stroke-linecap="butt"/><path d="M153.33333,186.66667c-3.6819,0 -6.66667,-2.98477 -6.66667,-6.66667v-13.33333c0,-3.6819 2.98477,-6.66667 6.66667,-6.66667v0c3.6819,0 6.66667,2.98477 6.66667,6.66667v13.33333c0,3.6819 -2.98477,6.66667 -6.66667,6.66667z" fill="#bcd5e0" stroke="none" stroke-width="1" stroke-linecap="butt"/><path d="M153.33333,173.33333c-3.6819,0 -6.66667,-2.98477 -6.66667,-6.66667v0c0,-3.6819 2.98477,-6.66667 6.66667,-6.66667h13.33333c3.6819,0 6.66667,2.98477 6.66667,6.66667v0c0,3.6819 -2.98477,6.66667 -6.66667,6.66667z" fill="#bcd5e0" stroke="none" stroke-width="1" stroke-linecap="butt"/><path d="M166.66667,173.33333c-3.6819,0 -6.66667,-2.98477 -6.66667,-6.66667v-13.33333c0,-3.6819 2.98477,-6.66667 6.66667,-6.66667v0c3.6819,0 6.66667,2.98477 6.66667,6.66667v13.33333c0,3.6819 -2.98477,6.66667 -6.66667,6.66667z" fill="#bcd5e0" stroke="none" stroke-width="1" stroke-linecap="butt"/><path d="M166.66667,160c-3.6819,0 -6.66667,-2.98477 -6.66667,-6.66667v0c0,-3.6819 2.98477,-6.66667 6.66667,-6.66667h40c3.6819,0 6.66667,2.98477 6.66667,6.66667v0c0,3.6819 -2.98477,6.66667 -6.66667,6.66667z" fill="#bcd5e0" stroke="none" stroke-width="1" stroke-linecap="butt"/><path d="M206.66667,160c-3.6819,0 -6.66667,-2.98477 -6.66667,-6.66667v-26.66667c0,-3.6819 2.98477,-6.66667 6.66667,-6.66667v0c3.6819,0 6.66667,2.98477 6.66667,6.66667v26.66667c0,3.6819 -2.98477,6.66667 -6.66667,6.66667z" fill="#bcd5e0" stroke="none" stroke-width="1" stroke-linecap="butt"/><path d="M206.66667,133.33333c-3.6819,0 -6.66667,-2.98477 -6.66667,-6.66667v0c0,-3.6819 2.98477,-6.66667 6.66667,-6.66667h13.33333c3.6819,0 6.66667,2.98477 6.66667,6.66667v0c0,3.6819 -2.98477,6.66667 -6.66667,6.66667z" fill="#bcd5e0" stroke="none" stroke-width="1" stroke-linecap="butt"/><path d="M220,133.33333c-3.6819,0 -6.66667,-2.98477 -6.66667,-6.66667v-13.33333c0,-3.6819 2.98477,-6.66667 6.66667,-6.66667v0c3.6819,0 6.66667,2.98477 6.66667,6.66667v13.33333c0,3.6819 -2.98477,6.66667 -6.66667,6.66667z" fill="#bcd5e0" stroke="none" stroke-width="1" stroke-linecap="butt"/><path d="M220,120c-3.6819,0 -6.66667,-2.98477 -6.66667,-6.66667v0c0,-3.6819 2.98477,-6.66667 6.66667,-6.66667h40c3.6819,0 6.66667,2.98477 6.66667,6.66667v0c0,3.6819 -2.98477,6.66667 -6.66667,6.66667z" fill="#bcd5e0" stroke="none" stroke-width="1" stroke-linecap="butt"/><path d="M260,133.33333c-3.6819,0 -6.66667,-2.98477 -6.66667,-6.66667v-13.33333c0,-3.6819 2.98477,-6.66667 6.66667,-6.66667v0c3.6819,0 6.66667,2.98477 6.66667,6.66667v13.33333c0,3.6819 -2.98477,6.66667 -6.66667,6.66667z" fill="#bcd5e0" stroke="none" stroke-width="1" stroke-linecap="butt"/><path d="M260,133.33333c-3.6819,0 -6.66667,-2.98477 -6.66667,-6.66667v0c0,-3.6819 2.98477,-6.66667 6.66667,-6.66667h13.33333c3.6819,0 6.66667,2.98477 6.66667,6.66667v0c0,3.6819 -2.98477,6.66667 -6.66667,6.66667z" fill="#bcd5e0" stroke="none" stroke-width="1" stroke-linecap="butt"/><path d="M273.33333,160c-3.6819,0 -6.66667,-2.98477 -6.66667,-6.66667v-26.66667c0,-3.6819 2.98477,-6.66667 6.66667,-6.66667v0c3.6819,0 6.66667,2.98477 6.66667,6.66667v26.66667c0,3.6819 -2.98477,6.66667 -6.66667,6.66667z" fill="#bcd5e0" stroke="none" stroke-width="1" stroke-linecap="butt"/><path d="M273.33333,160c-3.6819,0 -6.66667,-2.98477 -6.66667,-6.66667v0c0,-3.6819 2.98477,-6.66667 6.66667,-6.66667h40c3.6819,0 6.66667,2.98477 6.66667,6.66667v0c0,3.6819 -2.98477,6.66667 -6.66667,6.66667z" fill="#bcd5e0" stroke="none" stroke-width="1" stroke-linecap="butt"/><path d="M313.33333,173.33333c-3.6819,0 -6.66667,-2.98477 -6.66667,-6.66667v-13.33333c0,-3.6819 2.98477,-6.66667 6.66667,-6.66667v0c3.6819,0 6.66667,2.98477 6.66667,6.66667v13.33333c0,3.6819 -2.98477,6.66667 -6.66667,6.66667z" fill="#bcd5e0" stroke="none" stroke-width="1" stroke-linecap="butt"/><path d="M313.33333,173.33333c-3.6819,0 -6.66667,-2.98477 -6.66667,-6.66667v0c0,-3.6819 2.98477,-6.66667 6.66667,-6.66667h13.33333c3.6819,0 6.66667,2.98477 6.66667,6.66667v0c0,3.6819 -2.98477,6.66667 -6.66667,6.66667z" fill="#bcd5e0" stroke="none" stroke-width="1" stroke-linecap="butt"/><path d="M326.66667,186.66667c-3.6819,0 -6.66667,-2.98477 -6.66667,-6.66667v-13.33333c0,-3.6819 2.98477,-6.66667 6.66667,-6.66667v0c3.6819,0 6.66667,2.98477 6.66667,6.66667v13.33333c0,3.6819 -2.98477,6.66667 -6.66667,6.66667z" fill="#bcd5e0" stroke="none" stroke-width="1" stroke-linecap="butt"/><path d="M326.66667,186.66667c-3.6819,0 -6.66667,-2.98477 -6.66667,-6.66667v0c0,-3.6819 2.98477,-6.66667 6.66667,-6.66667h13.33333c3.6819,0 6.66667,2.98477 6.66667,6.66667v0c0,3.6819 -2.98477,6.66667 -6.66667,6.66667z" fill="#bcd5e0" stroke="none" stroke-width="1" stroke-linecap="butt"/><path d="M340,226.66667c-3.6819,0 -6.66667,-2.98477 -6.66667,-6.66667v-40c0,-3.6819 2.98477,-6.66667 6.66667,-6.66667v0c3.6819,0 6.66667,2.98477 6.66667,6.66667v40c0,3.6819 -2.98477,6.66667 -6.66667,6.66667z" fill="#bcd5e0" stroke="none" stroke-width="1" stroke-linecap="butt"/><path d="M326.66667,226.66667c-3.6819,0 -6.66667,-2.98477 -6.66667,-6.66667v0c0,-3.6819 2.98477,-6.66667 6.66667,-6.66667h13.33333c3.6819,0 6.66667,2.98477 6.66667,6.66667v0c0,3.6819 -2.98477,6.66667 -6.66667,6.66667z" fill="#bcd5e0" stroke="none" stroke-width="1" stroke-linecap="butt"/><path d="M326.66667,240c-3.6819,0 -6.66667,-2.98477 -6.66667,-6.66667v-13.33333c0,-3.6819 2.98477,-6.66667 6.66667,-6.66667v0c3.6819,0 6.66667,2.98477 6.66667,6.66667v13.33333c0,3.6819 -2.98477,6.66667 -6.66667,6.66667z" fill="#bcd5e0" stroke="none" stroke-width="1" stroke-linecap="butt"/><path d="M313.33333,240c-3.6819,0 -6.66667,-2.98477 -6.66667,-6.66667v0c0,-3.6819 2.98477,-6.66667 6.66667,-6.66667h13.33333c3.6819,0 6.66667,2.98477 6.66667,6.66667v0c0,3.6819 -2.98477,6.66667 -6.66667,6.66667z" fill="#bcd5e0" stroke="none" stroke-width="1" stroke-linecap="butt"/><path d="M313.33333,253.33333c-3.6819,0 -6.66667,-2.98477 -6.66667,-6.66667v-13.33333c0,-3.6819 2.98477,-6.66667 6.66667,-6.66667v0c3.6819,0 6.66667,2.98477 6.66667,6.66667v13.33333c0,3.6819 -2.98477,6.66667 -6.66667,6.66667z" fill="#bcd5e0" stroke="none" stroke-width="1" stroke-linecap="butt"/><path d="M273.33333,253.33333c-3.6819,0 -6.66667,-2.98477 -6.66667,-6.66667v0c0,-3.6819 2.98477,-6.66667 6.66667,-6.66667h40c3.6819,0 6.66667,2.98477 6.66667,6.66667v0c0,3.6819 -2.98477,6.66667 -6.66667,6.66667z" fill="#bcd5e0" stroke="none" stroke-width="1" stroke-linecap="butt"/><path d="M273.33333,253.33333c-3.6819,0 -6.66667,-2.98477 -6.66667,-6.66667v-13.33333c0,-3.6819 2.98477,-6.66667 6.66667,-6.66667v0c3.6819,0 6.66667,2.98477 6.66667,6.66667v13.33333c0,3.6819 -2.98477,6.66667 -6.66667,6.66667z" fill="#bcd5e0" stroke="none" stroke-width="1" stroke-linecap="butt"/><path d="M260,240c-3.6819,0 -6.66667,-2.98477 -6.66667,-6.66667v0c0,-3.6819 2.98477,-6.66667 6.66667,-6.66667h13.33333c3.6819,0 6.66667,2.98477 6.66667,6.66667v0c0,3.6819 -2.98477,6.66667 -6.66667,6.66667z" fill="#bcd5e0" stroke="none" stroke-width="1" stroke-linecap="butt"/><path d="M260,240c-3.6819,0 -6.66667,-2.98477 -6.66667,-6.66667v-13.33333c0,-3.6819 2.98477,-6.66667 6.66667,-6.66667v0c3.6819,0 6.66667,2.98477 6.66667,6.66667v13.33333c0,3.6819 -2.98477,6.66667 -6.66667,6.66667z" fill="#bcd5e0" stroke="none" stroke-width="1" stroke-linecap="butt"/><path d="M220,226.66667c-3.6819,0 -6.66667,-2.98477 -6.66667,-6.66667v0c0,-3.6819 2.98477,-6.66667 6.66667,-6.66667h40c3.6819,0 6.66667,2.98477 6.66667,6.66667v0c0,3.6819 -2.98477,6.66667 -6.66667,6.66667z" fill="#bcd5e0" stroke="none" stroke-width="1" stroke-linecap="butt"/><path d="M220,240c-3.6819,0 -6.66667,-2.98477 -6.66667,-6.66667v-13.33333c0,-3.6819 2.98477,-6.66667 6.66667,-6.66667v0c3.6819,0 6.66667,2.98477 6.66667,6.66667v13.33333c0,3.6819 -2.98477,6.66667 -6.66667,6.66667z" fill="#bcd5e0" stroke="none" stroke-width="1" stroke-linecap="butt"/><path d="M206.66667,240c-3.6819,0 -6.66667,-2.98477 -6.66667,-6.66667v0c0,-3.6819 2.98477,-6.66667 6.66667,-6.66667h13.33333c3.6819,0 6.66667,2.98477 6.66667,6.66667v0c0,3.6819 -2.98477,6.66667 -6.66667,6.66667z" fill="#bcd5e0" stroke="none" stroke-width="1" stroke-linecap="butt"/><path d="M206.66667,253.33333c-3.6819,0 -6.66667,-2.98477 -6.66667,-6.66667v-13.33333c0,-3.6819 2.98477,-6.66667 6.66667,-6.66667v0c3.6819,0 6.66667,2.98477 6.66667,6.66667v13.33333c0,3.6819 -2.98477,6.66667 -6.66667,6.66667z" fill="#bcd5e0" stroke="none" stroke-width="1" stroke-linecap="butt"/><path d="M166.66667,253.33333c-3.6819,0 -6.66667,-2.98477 -6.66667,-6.66667v0c0,-3.6819 2.98477,-6.66667 6.66667,-6.66667h40c3.6819,0 6.66667,2.98477 6.66667,6.66667v0c0,3.6819 -2.98477,6.66667 -6.66667,6.66667z" fill="#bcd5e0" stroke="none" stroke-width="1" stroke-linecap="butt"/><path d="M166.66667,253.33333c-3.6819,0 -6.66667,-2.98477 -6.66667,-6.66667v-13.33333c0,-3.6819 2.98477,-6.66667 6.66667,-6.66667v0c3.6819,0 6.66667,2.98477 6.66667,6.66667v13.33333c0,3.6819 -2.98477,6.66667 -6.66667,6.66667z" fill="#bcd5e0" stroke="none" stroke-width="1" stroke-linecap="butt"/><path d="M153.33333,240c-3.6819,0 -6.66667,-2.98477 -6.66667,-6.66667v0c0,-3.6819 2.98477,-6.66667 6.66667,-6.66667h13.33333c3.6819,0 6.66667,2.98477 6.66667,6.66667v0c0,3.6819 -2.98477,6.66667 -6.66667,6.66667z" fill="#bcd5e0" stroke="none" stroke-width="1" stroke-linecap="butt"/><path d="M153.33333,240c-3.6819,0 -6.66667,-2.98477 -6.66667,-6.66667v-13.33333c0,-3.6819 2.98477,-6.66667 6.66667,-6.66667v0c3.6819,0 6.66667,2.98477 6.66667,6.66667v13.33333c0,3.6819 -2.98477,6.66667 -6.66667,6.66667z" fill="#bcd5e0" stroke="none" stroke-width="1" stroke-linecap="butt"/><path d="M126.66667,226.66667c-3.6819,0 -6.66667,-2.98477 -6.66667,-6.66667v0c0,-3.6819 2.98477,-6.66667 6.66667,-6.66667h26.66667c3.6819,0 6.66667,2.98477 6.66667,6.66667v0c0,3.6819 -2.98477,6.66667 -6.66667,6.66667z" fill="#bcd5e0" stroke="none" stroke-width="1" stroke-linecap="butt"/><path d="M126.66667,180h26.66667" fill="#000000" stroke="#213a34" stroke-width="10" stroke-linecap="round"/><path d="M153.33333,180v-13.33333" fill="#000000" stroke="#213a34" stroke-width="10" stroke-linecap="round"/><path d="M153.33333,166.66667h13.33333" fill="#000000" stroke="#213a34" stroke-width="10" stroke-linecap="round"/><path d="M166.66667,166.66667v-13.33333" fill="#000000" stroke="#213a34" stroke-width="10" stroke-linecap="round"/><path d="M206.66667,153.33333h-40" fill="#000000" stroke="#213a34" stroke-width="10" stroke-linecap="round"/><path d="M206.66667,126.66667v26.66667" fill="#000000" stroke="#213a34" stroke-width="10" stroke-linecap="round"/><path d="M220,126.66667h-13.33333" fill="#000000" stroke="#213a34" stroke-width="10" stroke-linecap="round"/><path d="M220,126.66667v-13.33333" fill="#000000" stroke="#213a34" stroke-width="10" stroke-linecap="round"/><path d="M260,113.33333h-40" fill="#000000" stroke="#213a34" stroke-width="10" stroke-linecap="round"/><path d="M260,126.66667v-13.33333" fill="#000000" stroke="#213a34" stroke-width="10" stroke-linecap="round"/><path d="M260,126.66667h13.33333" fill="#000000" stroke="#213a34" stroke-width="10" stroke-linecap="round"/><path d="M273.33333,126.66667v26.66667" fill="#000000" stroke="#213a34" stroke-width="10" stroke-linecap="round"/><path d="M313.33333,153.33333h-40" fill="#000000" stroke="#213a34" stroke-width="10" stroke-linecap="round"/><path d="M313.33333,166.66667v-13.33333" fill="#000000" stroke="#213a34" stroke-width="10" stroke-linecap="round"/><path d="M313.33333,166.66667h13.33333" fill="#000000" stroke="#213a34" stroke-width="10" stroke-linecap="round"/><path d="M326.66667,166.66667v13.33333" fill="#000000" stroke="#213a34" stroke-width="10" stroke-linecap="round"/><path d="M326.66667,180h13.33333" fill="#000000" stroke="#213a34" stroke-width="10" stroke-linecap="round"/><path d="M340,220v-40" fill="#000000" stroke="#213a34" stroke-width="10" stroke-linecap="round"/><path d="M340,220h-13.33333" fill="#000000" stroke="#213a34" stroke-width="10" stroke-linecap="round"/><path d="M326.66667,220v13.33333" fill="#000000" stroke="#213a34" stroke-width="10" stroke-linecap="round"/><path d="M313.33333,233.33333h13.33333" fill="#000000" stroke="#213a34" stroke-width="10" stroke-linecap="round"/><path d="M313.33333,246.66667v-13.33333" fill="#000000" stroke="#213a34" stroke-width="10" stroke-linecap="round"/><path d="M313.33333,246.66667h-40" fill="#000000" stroke="#213a34" stroke-width="10" stroke-linecap="round"/><path d="M273.33333,246.66667v-13.33333" fill="#000000" stroke="#213a34" stroke-width="10" stroke-linecap="round"/><path d="M273.33333,233.33333h-13.33333" fill="#000000" stroke="#213a34" stroke-width="10" stroke-linecap="round"/><path d="M260,220v13.33333" fill="#000000" stroke="#213a34" stroke-width="10" stroke-linecap="round"/><path d="M260,220h-40" fill="#000000" stroke="#213a34" stroke-width="10" stroke-linecap="round"/><path d="M220,233.33333v-13.33333" fill="#000000" stroke="#213a34" stroke-width="10" stroke-linecap="round"/><path d="M220,233.33333h-13.33333" fill="#000000" stroke="#213a34" stroke-width="10" stroke-linecap="round"/><path d="M206.66667,246.66667v-13.33333" fill="#000000" stroke="#213a34" stroke-width="10" stroke-linecap="round"/><path d="M206.66667,246.66667h-40" fill="#000000" stroke="#213a34" stroke-width="10" stroke-linecap="round"/><path d="M166.66667,246.66667v-13.33333" fill="#000000" stroke="#213a34" stroke-width="10" stroke-linecap="round"/><path d="M166.66667,233.33333h-13.33333" fill="#000000" stroke="#213a34" stroke-width="10" stroke-linecap="round"/><path d="M153.33333,233.33333v-13.33333" fill="#000000" stroke="#213a34" stroke-width="10" stroke-linecap="round"/><path d="M153.33333,220h-26.66667" fill="#000000" stroke="#213a34" stroke-width="10" stroke-linecap="round"/><path d="M126.66667,200c0,-33.13708 26.86292,-60 60,-60c33.13708,0 60,26.86292 60,60c0,33.13708 -26.86292,60 -60,60c-33.13708,0 -60,-26.86292 -60,-60z" fill-opacity="0.3" fill="#ff7dfb" stroke-opacity="0.6" stroke="#ff7dfb" stroke-width="3" stroke-linecap="butt"/><path d="M233.33333,200c0,-33.13708 26.86292,-60 60,-60c33.13708,0 60,26.86292 60,60c0,33.13708 -26.86292,60 -60,60c-33.13708,0 -60,-26.86292 -60,-60z" fill-opacity="0.3" fill="#bbfff4" stroke-opacity="0.6" stroke="#bbfff4" stroke-width="3" stroke-linecap="butt"/><path d="M193.33333,146.66667c0,-25.77329 20.89338,-46.66667 46.66667,-46.66667c25.77329,0 46.66667,20.89338 46.66667,46.66667c0,25.77329 -20.89338,46.66667 -46.66667,46.66667c-25.77329,0 -46.66667,-20.89338 -46.66667,-46.66667z" fill-opacity="0.3" fill="#2d00b5" stroke-opacity="0.6" stroke="#2d00b5" stroke-width="2.33333" stroke-linecap="butt"/><path d="M120,180c0,-3.6819 2.98477,-6.66667 6.66667,-6.66667c3.6819,0 6.66667,2.98477 6.66667,6.66667c0,3.6819 -2.98477,6.66667 -6.66667,6.66667c-3.6819,0 -6.66667,-2.98477 -6.66667,-6.66667z" fill-opacity="0.35" fill="#00ff44" stroke="none" stroke-width="1" stroke-linecap="butt"/><path d="M120,220c0,-3.6819 2.98477,-6.66667 6.66667,-6.66667c3.6819,0 6.66667,2.98477 6.66667,6.66667c0,3.6819 -2.98477,6.66667 -6.66667,6.66667c-3.6819,0 -6.66667,-2.98477 -6.66667,-6.66667z" fill-opacity="0.35" fill="#ff0404" stroke="none" stroke-width="1" stroke-linecap="butt"/></g></g></svg>