<svg version="1.1" xmlns="http://www.w3.org/2000/svg" xmlns:xlink="http://www.w3.org/1999/xlink" width="62.36325" height="60.26072" viewBox="0,0,62.36325,60.26072"><defs><linearGradient x1="270.89485" y1="121.10211" x2="270.89485" y2="179.86283" gradientUnits="userSpaceOnUse" id="color-1"><stop offset="0" stop-color="#8a7088"/><stop offset="1" stop-color="#615060"/></linearGradient><linearGradient x1="270.892" y1="167.57146" x2="270.892" y2="180.14294" gradientUnits="userSpaceOnUse" id="color-2"><stop offset="0" stop-color="#d091ce"/><stop offset="1" stop-color="#674866"/></linearGradient><radialGradient cx="264.95176" cy="136.89442" r="16.36149" gradientUnits="userSpaceOnUse" id="color-3"><stop offset="0" stop-color="#ffffff"/><stop offset="1" stop-color="#ffffff" stop-opacity="0"/></radialGradient><radialGradient cx="268.0783" cy="138.61861" r="16.36149" gradientUnits="userSpaceOnUse" id="color-4"><stop offset="0" stop-color="#ffffff"/><stop offset="1" stop-color="#ffffff" stop-opacity="0"/></radialGradient><radialGradient cx="271.50749" cy="141.59528" r="16.36149" gradientUnits="userSpaceOnUse" id="color-5"><stop offset="0" stop-color="#ffffff"/><stop offset="1" stop-color="#ffffff" stop-opacity="0"/></radialGradient><radialGradient cx="273.5301" cy="143.99728" r="16.36149" gradientUnits="userSpaceOnUse" id="color-6"><stop offset="0" stop-color="#ffffff"/><stop offset="1" stop-color="#ffffff" stop-opacity="0"/></radialGradient><radialGradient cx="274.8458" cy="147.31645" r="16.3615" gradientUnits="userSpaceOnUse" id="color-7"><stop offset="0" stop-color="#ffffff"/><stop offset="1" stop-color="#ffffff" stop-opacity="0"/></radialGradient><radialGradient cx="275.59833" cy="151.79459" r="16.36149" gradientUnits="userSpaceOnUse" id="color-8"><stop offset="0" stop-color="#ffffff"/><stop offset="1" stop-color="#ffffff" stop-opacity="0"/></radialGradient><radialGradient cx="283.37479" cy="143.36997" r="16.36149" gradientUnits="userSpaceOnUse" id="color-9"><stop offset="0" stop-color="#ffffff"/><stop offset="1" stop-color="#ffffff" stop-opacity="0"/></radialGradient><radialGradient cx="279.85705" cy="142.75875" r="16.36149" gradientUnits="userSpaceOnUse" id="color-10"><stop offset="0" stop-color="#ffffff"/><stop offset="1" stop-color="#ffffff" stop-opacity="0"/></radialGradient><radialGradient cx="275.31957" cy="142.9352" r="16.36149" gradientUnits="userSpaceOnUse" id="color-11"><stop offset="0" stop-color="#ffffff"/><stop offset="1" stop-color="#ffffff" stop-opacity="0"/></radialGradient><radialGradient cx="272.23889" cy="143.54343" r="16.36149" gradientUnits="userSpaceOnUse" id="color-12"><stop offset="0" stop-color="#ffffff"/><stop offset="1" stop-color="#ffffff" stop-opacity="0"/></radialGradient><radialGradient cx="269.13579" cy="145.30944" r="16.36149" gradientUnits="userSpaceOnUse" id="color-13"><stop offset="0" stop-color="#ffffff"/><stop offset="1" stop-color="#ffffff" stop-opacity="0"/></radialGradient><radialGradient cx="265.74686" cy="148.33188" r="16.36149" gradientUnits="userSpaceOnUse" id="color-14"><stop offset="0" stop-color="#ffffff"/><stop offset="1" stop-color="#ffffff" stop-opacity="0"/></radialGradient><radialGradient cx="264.25206" cy="138.1095" r="15.20675" gradientUnits="userSpaceOnUse" id="color-15"><stop offset="0" stop-color="#fea9ff"/><stop offset="1" stop-color="#fea9ff" stop-opacity="0"/></radialGradient><radialGradient cx="267.15793" cy="139.712" r="15.20676" gradientUnits="userSpaceOnUse" id="color-16"><stop offset="0" stop-color="#fea9ff"/><stop offset="1" stop-color="#fea9ff" stop-opacity="0"/></radialGradient><radialGradient cx="270.34511" cy="142.47859" r="15.20675" gradientUnits="userSpaceOnUse" id="color-17"><stop offset="0" stop-color="#fea9ff"/><stop offset="1" stop-color="#fea9ff" stop-opacity="0"/></radialGradient><radialGradient cx="272.22497" cy="144.71105" r="15.20675" gradientUnits="userSpaceOnUse" id="color-18"><stop offset="0" stop-color="#fea9ff"/><stop offset="1" stop-color="#fea9ff" stop-opacity="0"/></radialGradient><radialGradient cx="273.4478" cy="147.79598" r="15.20676" gradientUnits="userSpaceOnUse" id="color-19"><stop offset="0" stop-color="#fea9ff"/><stop offset="1" stop-color="#fea9ff" stop-opacity="0"/></radialGradient><radialGradient cx="274.14723" cy="151.95806" r="15.20676" gradientUnits="userSpaceOnUse" id="color-20"><stop offset="0" stop-color="#fea9ff"/><stop offset="1" stop-color="#fea9ff" stop-opacity="0"/></radialGradient><radialGradient cx="281.37485" cy="144.12803" r="15.20675" gradientUnits="userSpaceOnUse" id="color-21"><stop offset="0" stop-color="#fea9ff"/><stop offset="1" stop-color="#fea9ff" stop-opacity="0"/></radialGradient><radialGradient cx="278.10539" cy="143.55994" r="15.20676" gradientUnits="userSpaceOnUse" id="color-22"><stop offset="0" stop-color="#fea9ff"/><stop offset="1" stop-color="#fea9ff" stop-opacity="0"/></radialGradient><radialGradient cx="273.88814" cy="143.72394" r="15.20676" gradientUnits="userSpaceOnUse" id="color-23"><stop offset="0" stop-color="#fea9ff"/><stop offset="1" stop-color="#fea9ff" stop-opacity="0"/></radialGradient><radialGradient cx="271.02489" cy="144.28924" r="15.20676" gradientUnits="userSpaceOnUse" id="color-24"><stop offset="0" stop-color="#fea9ff"/><stop offset="1" stop-color="#fea9ff" stop-opacity="0"/></radialGradient><radialGradient cx="268.14079" cy="145.93061" r="15.20676" gradientUnits="userSpaceOnUse" id="color-25"><stop offset="0" stop-color="#fea9ff"/><stop offset="1" stop-color="#fea9ff" stop-opacity="0"/></radialGradient><radialGradient cx="264.99104" cy="148.73973" r="15.20676" gradientUnits="userSpaceOnUse" id="color-26"><stop offset="0" stop-color="#fea9ff"/><stop offset="1" stop-color="#fea9ff" stop-opacity="0"/></radialGradient><radialGradient cx="263.03867" cy="139.25021" r="14.65449" gradientUnits="userSpaceOnUse" id="color-27"><stop offset="0" stop-color="#fecfff"/><stop offset="1" stop-color="#fecfff" stop-opacity="0"/></radialGradient><radialGradient cx="265.83901" cy="140.79451" r="14.65449" gradientUnits="userSpaceOnUse" id="color-28"><stop offset="0" stop-color="#fecfff"/><stop offset="1" stop-color="#fecfff" stop-opacity="0"/></radialGradient><radialGradient cx="268.91044" cy="143.46063" r="14.65449" gradientUnits="userSpaceOnUse" id="color-29"><stop offset="0" stop-color="#fecfff"/><stop offset="1" stop-color="#fecfff" stop-opacity="0"/></radialGradient><radialGradient cx="270.72202" cy="145.61202" r="14.65449" gradientUnits="userSpaceOnUse" id="color-30"><stop offset="0" stop-color="#fecfff"/><stop offset="1" stop-color="#fecfff" stop-opacity="0"/></radialGradient><radialGradient cx="271.90046" cy="148.58491" r="14.6545" gradientUnits="userSpaceOnUse" id="color-31"><stop offset="0" stop-color="#fecfff"/><stop offset="1" stop-color="#fecfff" stop-opacity="0"/></radialGradient><radialGradient cx="272.57448" cy="152.59584" r="14.65449" gradientUnits="userSpaceOnUse" id="color-32"><stop offset="0" stop-color="#fecfff"/><stop offset="1" stop-color="#fecfff" stop-opacity="0"/></radialGradient><radialGradient cx="279.53962" cy="145.05017" r="14.65449" gradientUnits="userSpaceOnUse" id="color-33"><stop offset="0" stop-color="#fecfff"/><stop offset="1" stop-color="#fecfff" stop-opacity="0"/></radialGradient><radialGradient cx="276.38888" cy="144.50271" r="14.65449" gradientUnits="userSpaceOnUse" id="color-34"><stop offset="0" stop-color="#fecfff"/><stop offset="1" stop-color="#fecfff" stop-opacity="0"/></radialGradient><radialGradient cx="272.3248" cy="144.66075" r="14.65449" gradientUnits="userSpaceOnUse" id="color-35"><stop offset="0" stop-color="#fecfff"/><stop offset="1" stop-color="#fecfff" stop-opacity="0"/></radialGradient><radialGradient cx="269.56553" cy="145.20552" r="14.65449" gradientUnits="userSpaceOnUse" id="color-36"><stop offset="0" stop-color="#fecfff"/><stop offset="1" stop-color="#fecfff" stop-opacity="0"/></radialGradient><radialGradient cx="266.78618" cy="146.78728" r="14.6545" gradientUnits="userSpaceOnUse" id="color-37"><stop offset="0" stop-color="#fecfff"/><stop offset="1" stop-color="#fecfff" stop-opacity="0"/></radialGradient><radialGradient cx="263.75082" cy="149.49439" r="14.65449" gradientUnits="userSpaceOnUse" id="color-38"><stop offset="0" stop-color="#fecfff"/><stop offset="1" stop-color="#fecfff" stop-opacity="0"/></radialGradient></defs><g transform="translate(-239.71327,-120.3521)"><g data-paper-data="{&quot;isPaintingLayer&quot;:true}" fill-rule="nonzero" stroke-linejoin="miter" stroke-miterlimit="10" stroke-dasharray="" stroke-dashoffset="0" style="mix-blend-mode: normal"><path d="M240.46327,179.86283v-58.76072h60.86325v58.76072z" fill="url(#color-1)" stroke="#bf86bd" stroke-width="1.5" stroke-linecap="butt"/><path d="M239.96343,180.14294v-12.57143h61.85715v12.57143z" fill="url(#color-2)" stroke="none" stroke-width="0" stroke-linecap="butt"/><g fill="none" stroke-width="3" stroke-linecap="round"><path d="M272.30677,122.13689c0,0 13.55307,5.274 4.36167,21.73075c-8.20031,14.68224 -19.07168,7.78432 -19.07168,7.78432" stroke="url(#color-3)"/><path d="M280.01907,127.24764c0,0 10.94713,9.57397 -3.2989,21.91727c-12.7099,11.01235 -20.58263,0.82469 -20.58263,0.82469" stroke="url(#color-4)"/><path d="M285.61791,133.06433c0,0 8.62704,11.70789 -7.944,20.6916c-14.78422,8.01503 -20.27684,-3.62968 -20.27684,-3.62968" stroke="url(#color-5)"/><path d="M288.59253,137.28876c0,0 7.10286,12.69056 -10.45742,19.54207c-15.66678,6.11273 -19.66746,-6.12503 -19.66746,-6.12503" stroke="url(#color-6)"/><path d="M291.29245,146.13805c0,0 2.35689,14.3508 -16.48701,14.8131c-16.812,0.41244 -16.40629,-12.45626 -16.40629,-12.45626" stroke="url(#color-7)"/><path d="M291.91256,154.18767c0,0 -0.79069,14.52155 -19.29155,10.91263c-16.50596,-3.21977 -13.33692,-15.69877 -13.33692,-15.69877" stroke="url(#color-8)"/><path d="M279.87871,159.48389c0,0 -12.79642,-1.42112 -10.00686,-18.0052c3.12671,-18.58844 16.99901,-14.22264 16.99901,-14.22264" data-paper-data="{&quot;index&quot;:null}" stroke="url(#color-9)"/><path d="M282.05714,159.10013c0,0 -12.51558,3.02133 -15.54005,-13.52152c-3.39,-18.54223 11.13988,-19.16124 11.13988,-19.16124" data-paper-data="{&quot;index&quot;:null}" stroke="url(#color-10)"/><path d="M280.98909,158.41866c0,0 -11.57056,5.64713 -18.08853,-9.85544c-7.30572,-17.37621 6.74946,-21.11147 6.74946,-21.11147" data-paper-data="{&quot;index&quot;:null}" stroke="url(#color-11)"/><path d="M279.79134,158.2009c0,0 -10.7778,7.04325 -19.17446,-7.52759c-9.4115,-16.33188 4.06956,-21.78735 4.06956,-21.78735" data-paper-data="{&quot;index&quot;:null}" stroke="url(#color-12)"/><path d="M281.22812,156.5191c0,0 -7.73525,10.29243 -20.59185,-0.5483c-14.41045,-12.15094 -3.59284,-21.87101 -3.59284,-21.87101" data-paper-data="{&quot;index&quot;:null}" stroke="url(#color-13)"/><path d="M279.97053,156.67264c0,0 -5.3358,11.71739 -20.22629,3.90157c-16.69014,-8.76045 -8.22105,-20.58309 -8.22105,-20.58309" data-paper-data="{&quot;index&quot;:null}" stroke="url(#color-14)"/></g><g fill="none" stroke-width="3" stroke-linecap="round"><path d="M271.08797,124.39349c0,0 12.59654,4.90178 4.05384,20.19707c-7.62156,13.64603 -17.72567,7.23494 -17.72567,7.23494" stroke="url(#color-15)"/><path d="M278.25597,129.14354c0,0 10.17451,8.89827 -3.06608,20.37043c-11.81288,10.23513 -19.12998,0.76648 -19.12998,0.76648" stroke="url(#color-16)"/><path d="M283.45966,134.54972c0,0 8.01818,10.8816 -7.38334,19.23127c-13.7408,7.44935 -18.84577,-3.37352 -18.84577,-3.37352" stroke="url(#color-17)"/><path d="M286.22434,138.476c0,0 6.60157,11.7949 -9.71937,18.16286c-14.56108,5.68131 -18.27939,-5.69275 -18.27939,-5.69275" stroke="url(#color-18)"/><path d="M288.73372,146.70074c0,0 2.19054,13.33799 -15.32343,13.76765c-15.62547,0.38333 -15.24839,-11.57715 -15.24839,-11.57715" stroke="url(#color-19)"/><path d="M289.31006,154.18224c0,0 -0.73489,13.49667 -17.93003,10.14245c-15.34103,-2.99254 -12.39564,-14.59081 -12.39564,-14.59081" stroke="url(#color-20)"/><path d="M278.12552,159.10468c0,0 -11.8933,-1.32083 -9.30061,-16.73446c2.90605,-17.27653 15.79928,-13.21885 15.79928,-13.21885" data-paper-data="{&quot;index&quot;:null}" stroke="url(#color-21)"/><path d="M280.15019,158.74801c0,0 -11.63227,2.80809 -14.44328,-12.56723c-3.15074,-17.23359 10.35366,-17.80891 10.35366,-17.80891" data-paper-data="{&quot;index&quot;:null}" stroke="url(#color-22)"/><path d="M279.15753,158.11463c0,0 -10.75396,5.24857 -16.81191,-9.15988c-6.79012,-16.14987 6.27311,-19.6215 6.27311,-19.6215" data-paper-data="{&quot;index&quot;:null}" stroke="url(#color-23)"/><path d="M278.04432,157.91224c0,0 -10.01714,6.54616 -17.8212,-6.99632c-8.74726,-15.17924 3.78234,-20.24968 3.78234,-20.24968" data-paper-data="{&quot;index&quot;:null}" stroke="url(#color-24)"/><path d="M279.37969,156.34913c0,0 -7.18932,9.56602 -19.13855,-0.5096c-13.39341,-11.29337 -3.33927,-20.32744 -3.33927,-20.32744" data-paper-data="{&quot;index&quot;:null}" stroke="url(#color-25)"/><path d="M278.21085,156.49184c0,0 -4.95923,10.89043 -18.79879,3.62621c-15.51221,-8.14217 -7.64084,-19.13042 -7.64084,-19.13042" data-paper-data="{&quot;index&quot;:null}" stroke="url(#color-26)"/></g><g fill="none" stroke-width="3" stroke-linecap="round"><path d="M269.62633,126.03233c0,0 12.13907,4.72377 3.90661,19.46358c-7.34476,13.15044 -17.08193,6.97218 -17.08193,6.97218" stroke="url(#color-27)"/><path d="M276.534,130.60987c0,0 9.805,8.57512 -2.95473,19.63064c-11.38387,9.86343 -18.43524,0.73865 -18.43524,0.73865" stroke="url(#color-28)"/><path d="M281.54871,135.81971c0,0 7.72697,10.4864 -7.1152,18.53285c-13.24178,7.17881 -18.16135,-3.251 -18.16135,-3.251" stroke="url(#color-29)"/><path d="M284.21299,139.60341c0,0 6.36182,11.36655 -9.36639,17.50323c-14.03226,5.47498 -17.61554,-5.48601 -17.61554,-5.48601" stroke="url(#color-30)"/><path d="M286.63123,147.52944c0,0 2.11098,12.85359 -14.76693,13.26765c-15.058,0.36942 -14.69461,-11.15669 -14.69461,-11.15669" stroke="url(#color-31)"/><path d="M287.18664,154.73924c0,0 -0.7082,13.00652 -17.27886,9.77411c-14.78388,-2.88385 -11.94547,-14.06091 -11.94547,-14.06091" stroke="url(#color-32)"/><path d="M276.40828,159.48292c0,0 -11.46136,-1.27286 -8.96283,-16.12671c2.8005,-16.6491 15.2255,-12.73879 15.2255,-12.73879" data-paper-data="{&quot;index&quot;:null}" stroke="url(#color-33)"/><path d="M278.35943,159.13919c0,0 -11.20983,2.70611 -13.91875,-12.11082c-3.03632,-16.60771 9.97765,-17.16214 9.97765,-17.16214" data-paper-data="{&quot;index&quot;:null}" stroke="url(#color-34)"/><path d="M277.40282,158.52882c0,0 -10.3634,5.05796 -16.20135,-8.82722c-6.54352,-15.56335 6.04528,-18.90891 6.04528,-18.90891" data-paper-data="{&quot;index&quot;:null}" stroke="url(#color-35)"/><path d="M276.33004,158.33378c0,0 -9.65335,6.30841 -17.17399,-6.74224c-8.4296,-14.62797 3.64498,-19.51427 3.64498,-19.51427" data-paper-data="{&quot;index&quot;:null}" stroke="url(#color-36)"/><path d="M277.61691,156.82744c0,0 -6.92823,9.21862 -18.4435,-0.4911c-12.907,-10.88323 -3.21799,-19.58921 -3.21799,-19.58921" data-paper-data="{&quot;index&quot;:null}" stroke="url(#color-37)"/><path d="M276.49052,156.96496c0,0 -4.77911,10.49493 -18.11606,3.49452c-14.94886,-7.84646 -7.36335,-18.43566 -7.36335,-18.43566" data-paper-data="{&quot;index&quot;:null}" stroke="url(#color-38)"/></g></g></g></svg>