<svg version="1.1" xmlns="http://www.w3.org/2000/svg" xmlns:xlink="http://www.w3.org/1999/xlink" width="240.66667" height="200.66667" viewBox="0,0,240.66667,200.66667"><defs><linearGradient x1="120" y1="80" x2="120" y2="280" gradientUnits="userSpaceOnUse" id="color-1"><stop offset="0" stop-color="#5a950d"/><stop offset="1" stop-color="#203504"/></linearGradient></defs><g transform="translate(-119.66667,-79.66667)"><g data-paper-data="{&quot;isPaintingLayer&quot;:true}" fill-rule="nonzero" stroke-linejoin="miter" stroke-miterlimit="10" stroke-dasharray="" stroke-dashoffset="0" style="mix-blend-mode: normal"><path d="M120,280v-200h240v200z" fill="url(#color-1)" stroke="none" stroke-width="1" stroke-linecap="butt"/><path d="M120,80h240" fill="#000000" stroke-opacity="0.5" stroke="#ffffff" stroke-width="0.66667" stroke-linecap="butt"/><path d="M360,93.33333h-240" fill="#000000" stroke-opacity="0.5" stroke="#ffffff" stroke-width="0.66667" stroke-linecap="butt"/><path d="M360,106.66667h-240" fill="#000000" stroke-opacity="0.5" stroke="#ffffff" stroke-width="0.66667" stroke-linecap="butt"/><path d="M120,120h240" fill="#000000" stroke-opacity="0.5" stroke="#ffffff" stroke-width="0.66667" stroke-linecap="butt"/><path d="M360,133.33333h-240" fill="#000000" stroke-opacity="0.5" stroke="#ffffff" stroke-width="0.66667" stroke-linecap="butt"/><path d="M120,146.66667h240" fill="#000000" stroke-opacity="0.5" stroke="#ffffff" stroke-width="0.66667" stroke-linecap="butt"/><path d="M120,160h240" fill="#000000" stroke-opacity="0.5" stroke="#ffffff" stroke-width="0.66667" stroke-linecap="butt"/><path d="M120,173.33333h240" fill="#000000" stroke-opacity="0.5" stroke="#ffffff" stroke-width="0.66667" stroke-linecap="butt"/><path d="M360,186.66667h-240" fill="#000000" stroke-opacity="0.5" stroke="#ffffff" stroke-width="0.66667" stroke-linecap="butt"/><path d="M120,200h240" fill="#000000" stroke-opacity="0.5" stroke="#ffffff" stroke-width="0.66667" stroke-linecap="butt"/><path d="M120,213.33333h240" fill="#000000" stroke-opacity="0.5" stroke="#ffffff" stroke-width="0.66667" stroke-linecap="butt"/><path d="M120,226.66667h240" fill="#000000" stroke-opacity="0.5" stroke="#ffffff" stroke-width="0.66667" stroke-linecap="butt"/><path d="M120,240h240" fill="#000000" stroke-opacity="0.5" stroke="#ffffff" stroke-width="0.66667" stroke-linecap="butt"/><path d="M120,253.33333h240" fill="#000000" stroke-opacity="0.5" stroke="#ffffff" stroke-width="0.66667" stroke-linecap="butt"/><path d="M120,266.66667h240" fill="#000000" stroke-opacity="0.5" stroke="#ffffff" stroke-width="0.66667" stroke-linecap="butt"/><path d="M120,280h240" fill="#000000" stroke-opacity="0.5" stroke="#ffffff" stroke-width="0.66667" stroke-linecap="butt"/><path d="M120,80v200" fill="#000000" stroke-opacity="0.5" stroke="#ffffff" stroke-width="0.66667" stroke-linecap="butt"/><path d="M133.33333,80v200" fill="#000000" stroke-opacity="0.5" stroke="#ffffff" stroke-width="0.66667" stroke-linecap="butt"/><path d="M146.66667,80v200" fill="#000000" stroke-opacity="0.5" stroke="#ffffff" stroke-width="0.66667" stroke-linecap="butt"/><path d="M160,80v200" fill="#000000" stroke-opacity="0.5" stroke="#ffffff" stroke-width="0.66667" stroke-linecap="butt"/><path d="M173.33333,80v200" fill="#000000" stroke-opacity="0.5" stroke="#ffffff" stroke-width="0.66667" stroke-linecap="butt"/><path d="M186.66667,80v200" fill="#000000" stroke-opacity="0.5" stroke="#ffffff" stroke-width="0.66667" stroke-linecap="butt"/><path d="M200,80v200" fill="#000000" stroke-opacity="0.5" stroke="#ffffff" stroke-width="0.66667" stroke-linecap="butt"/><path d="M213.33333,280v-200" fill="#000000" stroke-opacity="0.5" stroke="#ffffff" stroke-width="0.66667" stroke-linecap="butt"/><path d="M226.66667,80v200" fill="#000000" stroke-opacity="0.5" stroke="#ffffff" stroke-width="0.66667" stroke-linecap="butt"/><path d="M240,80v200" fill="#000000" stroke-opacity="0.5" stroke="#ffffff" stroke-width="0.66667" stroke-linecap="butt"/><path d="M253.33333,80v200" fill="#000000" stroke-opacity="0.5" stroke="#ffffff" stroke-width="0.66667" stroke-linecap="butt"/><path d="M266.66667,80v200" fill="#000000" stroke-opacity="0.5" stroke="#ffffff" stroke-width="0.66667" stroke-linecap="butt"/><path d="M280,80v200" fill="#000000" stroke-opacity="0.5" stroke="#ffffff" stroke-width="0.66667" stroke-linecap="butt"/><path d="M293.33333,80v200" fill="#000000" stroke-opacity="0.5" stroke="#ffffff" stroke-width="0.66667" stroke-linecap="butt"/><path d="M306.66667,280v-200" fill="#000000" stroke-opacity="0.5" stroke="#ffffff" stroke-width="0.66667" stroke-linecap="butt"/><path d="M320,80v200" fill="#000000" stroke-opacity="0.5" stroke="#ffffff" stroke-width="0.66667" stroke-linecap="butt"/><path d="M333.33333,80v200" fill="#000000" stroke-opacity="0.5" stroke="#ffffff" stroke-width="0.66667" stroke-linecap="butt"/><path d="M346.66667,280v-200" fill="#000000" stroke-opacity="0.5" stroke="#ffffff" stroke-width="0.66667" stroke-linecap="butt"/><path d="M360,80v200" fill="#000000" stroke-opacity="0.5" stroke="#ffffff" stroke-width="0.66667" stroke-linecap="butt"/><path d="M260,113.33333v66.66667" fill="#000000" stroke-opacity="0.5" stroke="#a3ff33" stroke-width="12.66667" stroke-linecap="round"/><path d="M260,246.66667v-66.66667" fill="#000000" stroke-opacity="0.5" stroke="#a3ff33" stroke-width="12.66667" stroke-linecap="round"/><path d="M126.66667,180h200" fill="#000000" stroke-opacity="0.5" stroke="#a3ff33" stroke-width="12.66667" stroke-linecap="round"/><path d="M260,113.33333v66.66667" fill="#000000" stroke="#2d456f" stroke-width="8.66667" stroke-linecap="round"/><path d="M260,246.66667v-66.66667" fill="#000000" stroke="#2d456f" stroke-width="8.66667" stroke-linecap="round"/><path d="M126.66667,180h200" fill="#000000" stroke="#2d456f" stroke-width="8.66667" stroke-linecap="round"/><path d="M126.66667,200c-3.6819,0 -6.66667,-2.98477 -6.66667,-6.66667v0c0,-3.6819 2.98477,-6.66667 6.66667,-6.66667h120c3.6819,0 6.66667,2.98477 6.66667,6.66667v0c0,3.6819 -2.98477,6.66667 -6.66667,6.66667z" fill="#bcd5e0" stroke="none" stroke-width="1" stroke-linecap="butt"/><path d="M246.66667,266.66667c-3.6819,0 -6.66667,-2.98477 -6.66667,-6.66667v-66.66667c0,-3.6819 2.98477,-6.66667 6.66667,-6.66667v0c3.6819,0 6.66667,2.98477 6.66667,6.66667v66.66667c0,3.6819 -2.98477,6.66667 -6.66667,6.66667z" fill="#bcd5e0" stroke="none" stroke-width="1" stroke-linecap="butt"/><path d="M246.66667,266.66667c-3.6819,0 -6.66667,-2.98477 -6.66667,-6.66667v0c0,-3.6819 2.98477,-6.66667 6.66667,-6.66667h26.66667c3.6819,0 6.66667,2.98477 6.66667,6.66667v0c0,3.6819 -2.98477,6.66667 -6.66667,6.66667z" fill="#bcd5e0" stroke="none" stroke-width="1" stroke-linecap="butt"/><path d="M273.33333,266.66667c-3.6819,0 -6.66667,-2.98477 -6.66667,-6.66667v-66.66667c0,-3.6819 2.98477,-6.66667 6.66667,-6.66667v0c3.6819,0 6.66667,2.98477 6.66667,6.66667v66.66667c0,3.6819 -2.98477,6.66667 -6.66667,6.66667z" fill="#bcd5e0" stroke="none" stroke-width="1" stroke-linecap="butt"/><path d="M273.33333,200c-3.6819,0 -6.66667,-2.98477 -6.66667,-6.66667v0c0,-3.6819 2.98477,-6.66667 6.66667,-6.66667h66.66667c3.6819,0 6.66667,2.98477 6.66667,6.66667v0c0,3.6819 -2.98477,6.66667 -6.66667,6.66667z" fill="#bcd5e0" stroke="none" stroke-width="1" stroke-linecap="butt"/><path d="M340,200c-3.6819,0 -6.66667,-2.98477 -6.66667,-6.66667v-26.66667c0,-3.6819 2.98477,-6.66667 6.66667,-6.66667v0c3.6819,0 6.66667,2.98477 6.66667,6.66667v26.66667c0,3.6819 -2.98477,6.66667 -6.66667,6.66667z" fill="#bcd5e0" stroke="none" stroke-width="1" stroke-linecap="butt"/><path d="M273.33333,173.33333c-3.6819,0 -6.66667,-2.98477 -6.66667,-6.66667v0c0,-3.6819 2.98477,-6.66667 6.66667,-6.66667h66.66667c3.6819,0 6.66667,2.98477 6.66667,6.66667v0c0,3.6819 -2.98477,6.66667 -6.66667,6.66667z" fill="#bcd5e0" stroke="none" stroke-width="1" stroke-linecap="butt"/><path d="M273.33333,173.33333c-3.6819,0 -6.66667,-2.98477 -6.66667,-6.66667v-66.66667c0,-3.6819 2.98477,-6.66667 6.66667,-6.66667v0c3.6819,0 6.66667,2.98477 6.66667,6.66667v66.66667c0,3.6819 -2.98477,6.66667 -6.66667,6.66667z" fill="#bcd5e0" stroke="none" stroke-width="1" stroke-linecap="butt"/><path d="M246.66667,106.66667c-3.6819,0 -6.66667,-2.98477 -6.66667,-6.66667v0c0,-3.6819 2.98477,-6.66667 6.66667,-6.66667h26.66667c3.6819,0 6.66667,2.98477 6.66667,6.66667v0c0,3.6819 -2.98477,6.66667 -6.66667,6.66667z" fill="#bcd5e0" stroke="none" stroke-width="1" stroke-linecap="butt"/><path d="M246.66667,173.33333c-3.6819,0 -6.66667,-2.98477 -6.66667,-6.66667v-66.66667c0,-3.6819 2.98477,-6.66667 6.66667,-6.66667v0c3.6819,0 6.66667,2.98477 6.66667,6.66667v66.66667c0,3.6819 -2.98477,6.66667 -6.66667,6.66667z" fill="#bcd5e0" stroke="none" stroke-width="1" stroke-linecap="butt"/><path d="M126.66667,173.33333c-3.6819,0 -6.66667,-2.98477 -6.66667,-6.66667v0c0,-3.6819 2.98477,-6.66667 6.66667,-6.66667h120c3.6819,0 6.66667,2.98477 6.66667,6.66667v0c0,3.6819 -2.98477,6.66667 -6.66667,6.66667z" fill="#bcd5e0" stroke="none" stroke-width="1" stroke-linecap="butt"/><path d="M246.66667,193.33333h-120" fill="#000000" stroke="#213a34" stroke-width="10" stroke-linecap="round"/><path d="M246.66667,260v-66.66667" fill="#000000" stroke="#213a34" stroke-width="10" stroke-linecap="round"/><path d="M273.33333,260h-26.66667" fill="#000000" stroke="#213a34" stroke-width="10" stroke-linecap="round"/><path d="M273.33333,193.33333v66.66667" fill="#000000" stroke="#213a34" stroke-width="10" stroke-linecap="round"/><path d="M273.33333,193.33333h66.66667" fill="#000000" stroke="#213a34" stroke-width="10" stroke-linecap="round"/><path d="M340,193.33333v-26.66667" fill="#000000" stroke="#213a34" stroke-width="10" stroke-linecap="round"/><path d="M340,166.66667h-66.66667" fill="#000000" stroke="#213a34" stroke-width="10" stroke-linecap="round"/><path d="M273.33333,166.66667v-66.66667" fill="#000000" stroke="#213a34" stroke-width="10" stroke-linecap="round"/><path d="M273.33333,100h-26.66667" fill="#000000" stroke="#213a34" stroke-width="10" stroke-linecap="round"/><path d="M246.66667,166.66667v-66.66667" fill="#000000" stroke="#213a34" stroke-width="10" stroke-linecap="round"/><path d="M246.66667,166.66667h-120" fill="#000000" stroke="#213a34" stroke-width="10" stroke-linecap="round"/><path d="M233.33333,113.33333c0,-14.72759 11.93907,-26.66667 26.66667,-26.66667c14.72759,0 26.66667,11.93907 26.66667,26.66667c0,14.72759 -11.93907,26.66667 -26.66667,26.66667c-14.72759,0 -26.66667,-11.93907 -26.66667,-26.66667z" fill-opacity="0.3" fill="#bbfff4" stroke-opacity="0.6" stroke="#bbfff4" stroke-width="1.33333" stroke-linecap="butt"/><path d="M300,180c0,-14.72759 11.93907,-26.66667 26.66667,-26.66667c14.72759,0 26.66667,11.93907 26.66667,26.66667c0,14.72759 -11.93907,26.66667 -26.66667,26.66667c-14.72759,0 -26.66667,-11.93907 -26.66667,-26.66667z" fill-opacity="0.3" fill="#bbfff4" stroke-opacity="0.6" stroke="#bbfff4" stroke-width="1.33333" stroke-linecap="butt"/><path d="M233.33333,246.66667c0,-14.72759 11.93907,-26.66667 26.66667,-26.66667c14.72759,0 26.66667,11.93907 26.66667,26.66667c0,14.72759 -11.93907,26.66667 -26.66667,26.66667c-14.72759,0 -26.66667,-11.93907 -26.66667,-26.66667z" fill-opacity="0.3" fill="#bbfff4" stroke-opacity="0.6" stroke="#bbfff4" stroke-width="1.33333" stroke-linecap="butt"/><path d="M233.33333,180c0,-14.72759 11.93907,-26.66667 26.66667,-26.66667c14.72759,0 26.66667,11.93907 26.66667,26.66667c0,14.72759 -11.93907,26.66667 -26.66667,26.66667c-14.72759,0 -26.66667,-11.93907 -26.66667,-26.66667z" fill-opacity="0.3" fill="#2d00b5" stroke-opacity="0.6" stroke="#2d00b5" stroke-width="1.33333" stroke-linecap="butt"/><path d="M120,193.33333c0,-3.6819 2.98477,-6.66667 6.66667,-6.66667c3.6819,0 6.66667,2.98477 6.66667,6.66667c0,3.6819 -2.98477,6.66667 -6.66667,6.66667c-3.6819,0 -6.66667,-2.98477 -6.66667,-6.66667z" fill-opacity="0.35" fill="#00ff44" stroke="none" stroke-width="1" stroke-linecap="butt"/><path d="M120,166.66667c0,-3.6819 2.98477,-6.66667 6.66667,-6.66667c3.6819,0 6.66667,2.98477 6.66667,6.66667c0,3.6819 -2.98477,6.66667 -6.66667,6.66667c-3.6819,0 -6.66667,-2.98477 -6.66667,-6.66667z" fill-opacity="0.35" fill="#ff0404" stroke="none" stroke-width="1" stroke-linecap="butt"/></g></g></svg>