<svg version="1.1" xmlns="http://www.w3.org/2000/svg" xmlns:xlink="http://www.w3.org/1999/xlink" width="241" height="181" viewBox="0,0,241,181"><defs><linearGradient x1="120" y1="90" x2="120" y2="270" gradientUnits="userSpaceOnUse" id="color-1"><stop offset="0" stop-color="#5a950d"/><stop offset="1" stop-color="#203504"/></linearGradient></defs><g transform="translate(-119.5,-89.5)"><g data-paper-data="{&quot;isPaintingLayer&quot;:true}" fill-rule="nonzero" stroke-linejoin="miter" stroke-miterlimit="10" stroke-dasharray="" stroke-dashoffset="0" style="mix-blend-mode: normal"><path d="M120,270v-180h240v180z" fill="url(#color-1)" stroke="none" stroke-width="1" stroke-linecap="butt"/><path d="M120,90h240" fill="#000000" stroke-opacity="0.5" stroke="#ffffff" stroke-width="1" stroke-linecap="butt"/><path d="M120,110h240" fill="#000000" stroke-opacity="0.5" stroke="#ffffff" stroke-width="1" stroke-linecap="butt"/><path d="M120,130h240" fill="#000000" stroke-opacity="0.5" stroke="#ffffff" stroke-width="1" stroke-linecap="butt"/><path d="M120,150h240" fill="#000000" stroke-opacity="0.5" stroke="#ffffff" stroke-width="1" stroke-linecap="butt"/><path d="M120,170h240" fill="#000000" stroke-opacity="0.5" stroke="#ffffff" stroke-width="1" stroke-linecap="butt"/><path d="M120,190h240" fill="#000000" stroke-opacity="0.5" stroke="#ffffff" stroke-width="1" stroke-linecap="butt"/><path d="M120,210h240" fill="#000000" stroke-opacity="0.5" stroke="#ffffff" stroke-width="1" stroke-linecap="butt"/><path d="M120,230h240" fill="#000000" stroke-opacity="0.5" stroke="#ffffff" stroke-width="1" stroke-linecap="butt"/><path d="M120,250h240" fill="#000000" stroke-opacity="0.5" stroke="#ffffff" stroke-width="1" stroke-linecap="butt"/><path d="M120,270h240" fill="#000000" stroke-opacity="0.5" stroke="#ffffff" stroke-width="1" stroke-linecap="butt"/><path d="M120,90v180" fill="#000000" stroke-opacity="0.5" stroke="#ffffff" stroke-width="1" stroke-linecap="butt"/><path d="M140,90v180" fill="#000000" stroke-opacity="0.5" stroke="#ffffff" stroke-width="1" stroke-linecap="butt"/><path d="M160,90v180" fill="#000000" stroke-opacity="0.5" stroke="#ffffff" stroke-width="1" stroke-linecap="butt"/><path d="M180,90v180" fill="#000000" stroke-opacity="0.5" stroke="#ffffff" stroke-width="1" stroke-linecap="butt"/><path d="M200,90v180" fill="#000000" stroke-opacity="0.5" stroke="#ffffff" stroke-width="1" stroke-linecap="butt"/><path d="M220,90v180" fill="#000000" stroke-opacity="0.5" stroke="#ffffff" stroke-width="1" stroke-linecap="butt"/><path d="M240,90v180" fill="#000000" stroke-opacity="0.5" stroke="#ffffff" stroke-width="1" stroke-linecap="butt"/><path d="M260,90v180" fill="#000000" stroke-opacity="0.5" stroke="#ffffff" stroke-width="1" stroke-linecap="butt"/><path d="M280,90v180" fill="#000000" stroke-opacity="0.5" stroke="#ffffff" stroke-width="1" stroke-linecap="butt"/><path d="M300,90v180" fill="#000000" stroke-opacity="0.5" stroke="#ffffff" stroke-width="1" stroke-linecap="butt"/><path d="M320,90v180" fill="#000000" stroke-opacity="0.5" stroke="#ffffff" stroke-width="1" stroke-linecap="butt"/><path d="M340,90v180" fill="#000000" stroke-opacity="0.5" stroke="#ffffff" stroke-width="1" stroke-linecap="butt"/><path d="M360,90v180" fill="#000000" stroke-opacity="0.5" stroke="#ffffff" stroke-width="1" stroke-linecap="butt"/><path d="M170,180h160" fill="#000000" stroke-opacity="0.5" stroke="#a3ff33" stroke-width="19" stroke-linecap="round"/><path d="M170,180h160" fill="#000000" stroke="#2d456f" stroke-width="13" stroke-linecap="round"/><path d="M130,230c-5.52285,0 -10,-4.47715 -10,-10v0c0,-5.52285 4.47715,-10 10,-10h200c5.52285,0 10,4.47715 10,10v0c0,5.52285 -4.47715,10 -10,10z" fill="#bcd5e0" stroke="none" stroke-width="1" stroke-linecap="butt"/><path d="M330,230c-5.52285,0 -10,-4.47715 -10,-10v-20c0,-5.52285 4.47715,-10 10,-10v0c5.52285,0 10,4.47715 10,10v20c0,5.52285 -4.47715,10 -10,10z" fill="#bcd5e0" stroke="none" stroke-width="1" stroke-linecap="butt"/><path d="M150,210c-5.52285,0 -10,-4.47715 -10,-10v0c0,-5.52285 4.47715,-10 10,-10h180c5.52285,0 10,4.47715 10,10v0c0,5.52285 -4.47715,10 -10,10z" fill="#bcd5e0" stroke="none" stroke-width="1" stroke-linecap="butt"/><path d="M150,210c-5.52285,0 -10,-4.47715 -10,-10v-40c0,-5.52285 4.47715,-10 10,-10v0c5.52285,0 10,4.47715 10,10v40c0,5.52285 -4.47715,10 -10,10z" fill="#bcd5e0" stroke="none" stroke-width="1" stroke-linecap="butt"/><path d="M150,170c-5.52285,0 -10,-4.47715 -10,-10v0c0,-5.52285 4.47715,-10 10,-10h180c5.52285,0 10,4.47715 10,10v0c0,5.52285 -4.47715,10 -10,10z" fill="#bcd5e0" stroke="none" stroke-width="1" stroke-linecap="butt"/><path d="M330,170c-5.52285,0 -10,-4.47715 -10,-10v-20c0,-5.52285 4.47715,-10 10,-10v0c5.52285,0 10,4.47715 10,10v20c0,5.52285 -4.47715,10 -10,10z" fill="#bcd5e0" stroke="none" stroke-width="1" stroke-linecap="butt"/><path d="M130,150c-5.52285,0 -10,-4.47715 -10,-10v0c0,-5.52285 4.47715,-10 10,-10h200c5.52285,0 10,4.47715 10,10v0c0,5.52285 -4.47715,10 -10,10z" fill="#bcd5e0" stroke="none" stroke-width="1" stroke-linecap="butt"/><path d="M130,220h200" fill="#000000" stroke="#213a34" stroke-width="15" stroke-linecap="round"/><path d="M330,200v20" fill="#000000" stroke="#213a34" stroke-width="15" stroke-linecap="round"/><path d="M330,200h-180" fill="#000000" stroke="#213a34" stroke-width="15" stroke-linecap="round"/><path d="M150,200v-40" fill="#000000" stroke="#213a34" stroke-width="15" stroke-linecap="round"/><path d="M150,160h180" fill="#000000" stroke="#213a34" stroke-width="15" stroke-linecap="round"/><path d="M330,160v-20" fill="#000000" stroke="#213a34" stroke-width="15" stroke-linecap="round"/><path d="M330,140h-200" fill="#000000" stroke="#213a34" stroke-width="15" stroke-linecap="round"/><path d="M128,200c0,-1.10457 0.89543,-2 2,-2c1.10457,0 2,0.89543 2,2c0,1.10457 -0.89543,2 -2,2c-1.10457,0 -2,-0.89543 -2,-2z" fill-opacity="0.8" fill="#b875ff" stroke="none" stroke-width="1" stroke-linecap="butt"/><path d="M124,200c0,-3.31371 2.68629,-6 6,-6c3.31371,0 6,2.68629 6,6c0,3.31371 -2.68629,6 -6,6c-3.31371,0 -6,-2.68629 -6,-6z" fill-opacity="0.6" fill="#b875ff" stroke="none" stroke-width="1" stroke-linecap="butt"/><path d="M128,180c0,-1.10457 0.89543,-2 2,-2c1.10457,0 2,0.89543 2,2c0,1.10457 -0.89543,2 -2,2c-1.10457,0 -2,-0.89543 -2,-2z" fill-opacity="0.8" fill="#75ffeb" stroke="none" stroke-width="1" stroke-linecap="butt"/><path d="M124,180c0,-3.31371 2.68629,-6 6,-6c3.31371,0 6,2.68629 6,6c0,3.31371 -2.68629,6 -6,6c-3.31371,0 -6,-2.68629 -6,-6z" fill-opacity="0.6" fill="#75ffeb" stroke="none" stroke-width="1" stroke-linecap="butt"/><path d="M128,160c0,-1.10457 0.89543,-2 2,-2c1.10457,0 2,0.89543 2,2c0,1.10457 -0.89543,2 -2,2c-1.10457,0 -2,-0.89543 -2,-2z" fill-opacity="0.8" fill="#75a9ff" stroke="none" stroke-width="1" stroke-linecap="butt"/><path d="M124,160c0,-3.31371 2.68629,-6 6,-6c3.31371,0 6,2.68629 6,6c0,3.31371 -2.68629,6 -6,6c-3.31371,0 -6,-2.68629 -6,-6z" fill-opacity="0.6" fill="#75a9ff" stroke="none" stroke-width="1" stroke-linecap="butt"/><path d="M348,140c0,-1.10457 0.89543,-2 2,-2c1.10457,0 2,0.89543 2,2c0,1.10457 -0.89543,2 -2,2c-1.10457,0 -2,-0.89543 -2,-2z" fill-opacity="0.8" fill="#75f1ff" stroke="none" stroke-width="1" stroke-linecap="butt"/><path d="M344,140c0,-3.31371 2.68629,-6 6,-6c3.31371,0 6,2.68629 6,6c0,3.31371 -2.68629,6 -6,6c-3.31371,0 -6,-2.68629 -6,-6z" fill-opacity="0.6" fill="#75f1ff" stroke="none" stroke-width="1" stroke-linecap="butt"/><path d="M348,160c0,-1.10457 0.89543,-2 2,-2c1.10457,0 2,0.89543 2,2c0,1.10457 -0.89543,2 -2,2c-1.10457,0 -2,-0.89543 -2,-2z" fill-opacity="0.8" fill="#d975ff" stroke="none" stroke-width="1" stroke-linecap="butt"/><path d="M344,160c0,-3.31371 2.68629,-6 6,-6c3.31371,0 6,2.68629 6,6c0,3.31371 -2.68629,6 -6,6c-3.31371,0 -6,-2.68629 -6,-6z" fill-opacity="0.6" fill="#d975ff" stroke="none" stroke-width="1" stroke-linecap="butt"/><path d="M348,180c0,-1.10457 0.89543,-2 2,-2c1.10457,0 2,0.89543 2,2c0,1.10457 -0.89543,2 -2,2c-1.10457,0 -2,-0.89543 -2,-2z" fill-opacity="0.8" fill="#757aff" stroke="none" stroke-width="1" stroke-linecap="butt"/><path d="M344,180c0,-3.31371 2.68629,-6 6,-6c3.31371,0 6,2.68629 6,6c0,3.31371 -2.68629,6 -6,6c-3.31371,0 -6,-2.68629 -6,-6z" fill-opacity="0.6" fill="#757aff" stroke="none" stroke-width="1" stroke-linecap="butt"/><path d="M348,200c0,-1.10457 0.89543,-2 2,-2c1.10457,0 2,0.89543 2,2c0,1.10457 -0.89543,2 -2,2c-1.10457,0 -2,-0.89543 -2,-2z" fill-opacity="0.8" fill="#75e4ff" stroke="none" stroke-width="1" stroke-linecap="butt"/><path d="M344,200c0,-3.31371 2.68629,-6 6,-6c3.31371,0 6,2.68629 6,6c0,3.31371 -2.68629,6 -6,6c-3.31371,0 -6,-2.68629 -6,-6z" fill-opacity="0.6" fill="#75e4ff" stroke="none" stroke-width="1" stroke-linecap="butt"/><path d="M348,220c0,-1.10457 0.89543,-2 2,-2c1.10457,0 2,0.89543 2,2c0,1.10457 -0.89543,2 -2,2c-1.10457,0 -2,-0.89543 -2,-2z" fill-opacity="0.8" fill="#e675ff" stroke="none" stroke-width="1" stroke-linecap="butt"/><path d="M344,220c0,-3.31371 2.68629,-6 6,-6c3.31371,0 6,2.68629 6,6c0,3.31371 -2.68629,6 -6,6c-3.31371,0 -6,-2.68629 -6,-6z" fill-opacity="0.6" fill="#e675ff" stroke="none" stroke-width="1" stroke-linecap="butt"/><path d="M120,220c0,-5.52285 4.47715,-10 10,-10c5.52285,0 10,4.47715 10,10c0,5.52285 -4.47715,10 -10,10c-5.52285,0 -10,-4.47715 -10,-10z" fill-opacity="0.35" fill="#00ff44" stroke="none" stroke-width="1" stroke-linecap="butt"/><path d="M120,140c0,-5.52285 4.47715,-10 10,-10c5.52285,0 10,4.47715 10,10c0,5.52285 -4.47715,10 -10,10c-5.52285,0 -10,-4.47715 -10,-10z" fill-opacity="0.35" fill="#ff0404" stroke="none" stroke-width="1" stroke-linecap="butt"/></g></g></svg>