<svg width="480px" height="360px" xmlns="http://www.w3.org/2000/svg"><path fill="#F00" d="M252.340 173.206L252.340 173.206Q252.340 173.659 252.327 173.965Q252.315 174.271 252.291 174.540L252.291 174.540L243.660 174.540Q243.660 176.425 244.713 177.435Q245.766 178.445 247.749 178.445L247.749 178.445Q248.288 178.445 248.826 178.402Q249.365 178.360 249.867 178.286Q250.369 178.213 250.828 178.121Q251.287 178.029 251.679 177.919L251.679 177.919L251.679 179.669Q250.809 179.914 249.714 180.067Q248.618 180.220 247.443 180.220L247.443 180.220Q245.864 180.220 244.725 179.792Q243.587 179.363 242.858 178.549Q242.130 177.735 241.781 176.554Q241.432 175.373 241.432 173.879L241.432 173.879Q241.432 172.581 241.806 171.425Q242.179 170.268 242.895 169.393Q243.611 168.517 244.652 168.003Q245.692 167.489 247.015 167.489L247.015 167.489Q248.300 167.489 249.292 167.893Q250.283 168.297 250.963 169.037Q251.642 169.778 251.991 170.837Q252.340 171.896 252.340 173.206ZM243.660 172.900L250.124 172.900Q250.161 172.080 249.965 171.400Q249.769 170.721 249.359 170.231Q248.949 169.741 248.337 169.466Q247.725 169.191 246.917 169.191L246.917 169.191Q246.219 169.191 245.643 169.460Q245.068 169.729 244.652 170.219Q244.236 170.708 243.979 171.394Q243.721 172.080 243.660 172.900L243.660 172.900Z"/></svg>