<svg version="1.1" xmlns="http://www.w3.org/2000/svg" xmlns:xlink="http://www.w3.org/1999/xlink" width="62.36325" height="60.26072" viewBox="0,0,62.36325,60.26072"><defs><linearGradient x1="270.89485" y1="121.10217" x2="270.89485" y2="179.86286" gradientUnits="userSpaceOnUse" id="color-1"><stop offset="0" stop-color="#455f06"/><stop offset="1" stop-color="#233103"/></linearGradient><linearGradient x1="292.75245" y1="144.04706" x2="288.21227" y2="165.56039" gradientUnits="userSpaceOnUse" id="color-2"><stop offset="0" stop-color="#00ff21"/><stop offset="1" stop-color="#deffd8"/></linearGradient><linearGradient x1="270.892" y1="167.57146" x2="270.892" y2="180.143" gradientUnits="userSpaceOnUse" id="color-3"><stop offset="0" stop-color="#6b8d06"/><stop offset="1" stop-color="#324203"/></linearGradient><radialGradient cx="275.30825" cy="147.54017" r="20.15508" gradientUnits="userSpaceOnUse" id="color-4"><stop offset="0" stop-color="#a0ff51"/><stop offset="1" stop-color="#a0ff51" stop-opacity="0"/></radialGradient><radialGradient cx="277.97864" cy="135.96787" r="17.73901" gradientUnits="userSpaceOnUse" id="color-5"><stop offset="0" stop-color="#a0ff51"/><stop offset="1" stop-color="#a0ff51" stop-opacity="0"/></radialGradient><radialGradient cx="269.96747" cy="158.15753" r="19.01062" gradientUnits="userSpaceOnUse" id="color-6"><stop offset="0" stop-color="#a0ff51"/><stop offset="1" stop-color="#a0ff51" stop-opacity="0"/></radialGradient><radialGradient cx="257.56924" cy="137.87529" r="15.51369" gradientUnits="userSpaceOnUse" id="color-7"><stop offset="0" stop-color="#19250f"/><stop offset="1" stop-color="#466329" stop-opacity="0.53226"/></radialGradient><radialGradient cx="250.77001" cy="141.7498" r="4.13665" gradientUnits="userSpaceOnUse" id="color-8"><stop offset="0" stop-color="#81fbff"/><stop offset="1" stop-color="#38e8ff"/></radialGradient><radialGradient cx="264.61076" cy="141.95144" r="4.13665" gradientUnits="userSpaceOnUse" id="color-9"><stop offset="0" stop-color="#e7b4ff"/><stop offset="1" stop-color="#c85eff"/></radialGradient><radialGradient cx="257.82212" cy="131.10519" r="4.13665" gradientUnits="userSpaceOnUse" id="color-10"><stop offset="0" stop-color="#ffe966"/><stop offset="1" stop-color="#ffaa2b"/></radialGradient></defs><g transform="translate(-239.71327,-120.35214)"><g data-paper-data="{&quot;isPaintingLayer&quot;:true}" fill-rule="nonzero" stroke-linejoin="miter" stroke-miterlimit="10" stroke-dasharray="" stroke-dashoffset="0" style="mix-blend-mode: normal"><path d="M240.46327,179.86286v-58.76072h60.86325v58.76072z" fill="url(#color-1)" stroke="#9cbf3d" stroke-width="1.5" stroke-linecap="butt"/><path d="M286.29765,153.92058l5.54404,-5.58004l2.8164,7.34445l-5.544,5.58001zM284.87157,153.61962l3.77636,9.85435l7.44519,-7.48615l-3.78525,-9.85621zM283.5168,153.33371l9.23119,-9.28758l4.69993,12.22761l-9.24012,9.2857z" fill="url(#color-2)" stroke="none" stroke-width="0.26459" stroke-linecap="butt"/><path d="M239.96343,180.143v-12.57143h61.85715v12.57143z" fill="url(#color-3)" stroke="none" stroke-width="0" stroke-linecap="butt"/><path d="M255.15318,136.92219l40.31015,21.23595" fill="none" stroke="url(#color-4)" stroke-width="3.5" stroke-linecap="round"/><path d="M295.71764,148.93834c0,0 -5.2113,-0.84532 -18.16428,-7.96079c-14.6756,-8.06175 -13.86929,-16.98013 -13.86929,-16.98013" fill="none" stroke="url(#color-5)" stroke-width="2.5" stroke-linecap="round"/><path d="M249.51241,150.71983c0,0 7.73522,-3.13766 22.08068,2.12106c6.38846,2.34187 17.05167,10.64322 17.05167,10.64322" fill="none" stroke="url(#color-6)" stroke-width="2.5" stroke-linecap="round"/><path d="M242.05555,137.87529c0,-8.56797 6.94571,-15.51369 15.51369,-15.51369c8.56797,0 15.51369,6.94572 15.51369,15.51369c0,8.56797 -6.94572,15.51369 -15.51369,15.51369c-8.56797,0 -15.51369,-6.94571 -15.51369,-15.51369z" fill="url(#color-7)" stroke="none" stroke-width="0" stroke-linecap="butt"/><path d="M246.63336,141.7498c0,-2.2846 1.85204,-4.13664 4.13664,-4.13664c2.2846,0 4.13665,1.85204 4.13665,4.13664c0,2.2846 -1.85204,4.13665 -4.13665,4.13665c-2.2846,0 -4.13664,-1.85204 -4.13664,-4.13665z" fill="url(#color-8)" stroke="none" stroke-width="NaN" stroke-linecap="butt"/><path d="M260.47411,141.95144c0,-2.2846 1.85204,-4.13664 4.13664,-4.13664c2.2846,0 4.13665,1.85204 4.13665,4.13664c0,2.2846 -1.85205,4.13664 -4.13665,4.13664c-2.2846,0 -4.13664,-1.85204 -4.13664,-4.13664z" fill="url(#color-9)" stroke="none" stroke-width="NaN" stroke-linecap="butt"/><path d="M253.68548,131.10519c0,-2.2846 1.85204,-4.13664 4.13664,-4.13664c2.2846,0 4.13665,1.85204 4.13665,4.13664c0,2.2846 -1.85205,4.13665 -4.13665,4.13665c-2.2846,0 -4.13664,-1.85204 -4.13664,-4.13665z" fill="url(#color-10)" stroke="none" stroke-width="NaN" stroke-linecap="butt"/></g></g></svg>