<svg width="480px" height="360px" xmlns="http://www.w3.org/2000/svg"><path fill="#F00" d="M242.803 163.988L242.803 162.274L243.709 162.274Q246.072 162.274 247.223 163.382Q248.373 164.490 248.373 166.742L248.373 166.742L248.373 169.570Q248.373 170.170 248.508 170.641Q248.643 171.112 248.979 171.437Q249.316 171.761 249.879 171.933Q250.442 172.104 251.287 172.104L251.287 172.104L251.813 172.104L251.813 173.806L251.287 173.806Q250.393 173.806 249.824 173.953Q249.255 174.099 248.936 174.399Q248.618 174.699 248.496 175.164Q248.373 175.630 248.373 176.266L248.373 176.266L248.373 180.551Q248.373 181.579 248.129 182.406Q247.884 183.232 247.333 183.813Q246.782 184.395 245.888 184.707Q244.995 185.019 243.709 185.019L243.709 185.019L242.803 185.019L242.803 183.305L243.538 183.305Q246.366 183.305 246.366 180.551L246.366 180.551L246.366 176.315Q246.366 173.328 248.949 172.961L248.949 172.961Q246.341 172.679 246.341 169.594L246.341 169.594L246.341 166.791Q246.341 163.988 243.538 163.988L243.538 163.988L242.803 163.988Z"/></svg>