<svg version="1.1" xmlns="http://www.w3.org/2000/svg" xmlns:xlink="http://www.w3.org/1999/xlink" width="240.75" height="135.75" viewBox="0,0,240.75,135.75"><defs><linearGradient x1="120" y1="112.5" x2="120" y2="247.5" gradientUnits="userSpaceOnUse" id="color-1"><stop offset="0" stop-color="#4d6066"/><stop offset="1" stop-color="#00141a"/></linearGradient></defs><g transform="translate(-119.625,-112.125)"><g data-paper-data="{&quot;isPaintingLayer&quot;:true}" fill-rule="nonzero" stroke-linejoin="miter" stroke-miterlimit="10" stroke-dasharray="" stroke-dashoffset="0" style="mix-blend-mode: normal"><path d="M120,247.5v-135h240v135z" fill="url(#color-1)" stroke="none" stroke-width="1" stroke-linecap="butt"/><path d="M120,112.5h240" fill="#000000" stroke-opacity="0.5" stroke="#ffffff" stroke-width="0.75" stroke-linecap="butt"/><path d="M120,127.5h240" fill="#000000" stroke-opacity="0.5" stroke="#ffffff" stroke-width="0.75" stroke-linecap="butt"/><path d="M120,142.5h240" fill="#000000" stroke-opacity="0.5" stroke="#ffffff" stroke-width="0.75" stroke-linecap="butt"/><path d="M120,157.5h240" fill="#000000" stroke-opacity="0.5" stroke="#ffffff" stroke-width="0.75" stroke-linecap="butt"/><path d="M120,172.5h240" fill="#000000" stroke-opacity="0.5" stroke="#ffffff" stroke-width="0.75" stroke-linecap="butt"/><path d="M120,187.5h240" fill="#000000" stroke-opacity="0.5" stroke="#ffffff" stroke-width="0.75" stroke-linecap="butt"/><path d="M120,202.5h240" fill="#000000" stroke-opacity="0.5" stroke="#ffffff" stroke-width="0.75" stroke-linecap="butt"/><path d="M120,217.5h240" fill="#000000" stroke-opacity="0.5" stroke="#ffffff" stroke-width="0.75" stroke-linecap="butt"/><path d="M120,232.5h240" fill="#000000" stroke-opacity="0.5" stroke="#ffffff" stroke-width="0.75" stroke-linecap="butt"/><path d="M120,247.5h240" fill="#000000" stroke-opacity="0.5" stroke="#ffffff" stroke-width="0.75" stroke-linecap="butt"/><path d="M120,112.5v135" fill="#000000" stroke-opacity="0.5" stroke="#ffffff" stroke-width="0.75" stroke-linecap="butt"/><path d="M135,112.5v135" fill="#000000" stroke-opacity="0.5" stroke="#ffffff" stroke-width="0.75" stroke-linecap="butt"/><path d="M150,112.5v135" fill="#000000" stroke-opacity="0.5" stroke="#ffffff" stroke-width="0.75" stroke-linecap="butt"/><path d="M165,112.5v135" fill="#000000" stroke-opacity="0.5" stroke="#ffffff" stroke-width="0.75" stroke-linecap="butt"/><path d="M180,112.5v135" fill="#000000" stroke-opacity="0.5" stroke="#ffffff" stroke-width="0.75" stroke-linecap="butt"/><path d="M195,112.5v135" fill="#000000" stroke-opacity="0.5" stroke="#ffffff" stroke-width="0.75" stroke-linecap="butt"/><path d="M210,112.5v135" fill="#000000" stroke-opacity="0.5" stroke="#ffffff" stroke-width="0.75" stroke-linecap="butt"/><path d="M225,112.5v135" fill="#000000" stroke-opacity="0.5" stroke="#ffffff" stroke-width="0.75" stroke-linecap="butt"/><path d="M240,112.5v135" fill="#000000" stroke-opacity="0.5" stroke="#ffffff" stroke-width="0.75" stroke-linecap="butt"/><path d="M255,112.5v135" fill="#000000" stroke-opacity="0.5" stroke="#ffffff" stroke-width="0.75" stroke-linecap="butt"/><path d="M270,112.5v135" fill="#000000" stroke-opacity="0.5" stroke="#ffffff" stroke-width="0.75" stroke-linecap="butt"/><path d="M285,112.5v135" fill="#000000" stroke-opacity="0.5" stroke="#ffffff" stroke-width="0.75" stroke-linecap="butt"/><path d="M300,112.5v135" fill="#000000" stroke-opacity="0.5" stroke="#ffffff" stroke-width="0.75" stroke-linecap="butt"/><path d="M315,112.5v135" fill="#000000" stroke-opacity="0.5" stroke="#ffffff" stroke-width="0.75" stroke-linecap="butt"/><path d="M330,112.5v135" fill="#000000" stroke-opacity="0.5" stroke="#ffffff" stroke-width="0.75" stroke-linecap="butt"/><path d="M345,112.5v135" fill="#000000" stroke-opacity="0.5" stroke="#ffffff" stroke-width="0.75" stroke-linecap="butt"/><path d="M360,112.5v135" fill="#000000" stroke-opacity="0.5" stroke="#ffffff" stroke-width="0.75" stroke-linecap="butt"/><path d="M127.5,240v-120" fill="#000000" stroke-opacity="0.5" stroke="#a3ff33" stroke-width="14.25" stroke-linecap="round"/><path d="M172.5,240v-120" fill="#000000" stroke-opacity="0.5" stroke="#a3ff33" stroke-width="14.25" stroke-linecap="round"/><path d="M217.5,240v-120" fill="#000000" stroke-opacity="0.5" stroke="#a3ff33" stroke-width="14.25" stroke-linecap="round"/><path d="M262.5,240v-120" fill="#000000" stroke-opacity="0.5" stroke="#a3ff33" stroke-width="14.25" stroke-linecap="round"/><path d="M307.5,240v-120" fill="#000000" stroke-opacity="0.5" stroke="#a3ff33" stroke-width="14.25" stroke-linecap="round"/><path d="M352.5,240v-120" fill="#000000" stroke-opacity="0.5" stroke="#a3ff33" stroke-width="14.25" stroke-linecap="round"/><path d="M127.5,240v-120" fill="#000000" stroke="#bbff3d" stroke-width="9.75" stroke-linecap="round"/><path d="M172.5,240v-120" fill="#000000" stroke="#bbff3d" stroke-width="9.75" stroke-linecap="round"/><path d="M217.5,240v-120" fill="#000000" stroke="#bbff3d" stroke-width="9.75" stroke-linecap="round"/><path d="M262.5,240v-120" fill="#000000" stroke="#bbff3d" stroke-width="9.75" stroke-linecap="round"/><path d="M307.5,240v-120" fill="#000000" stroke="#bbff3d" stroke-width="9.75" stroke-linecap="round"/><path d="M352.5,240v-120" fill="#000000" stroke="#bbff3d" stroke-width="9.75" stroke-linecap="round"/><path d="M127.5,232.5c-4.14214,0 -7.5,-3.35786 -7.5,-7.5v0c0,-4.14214 3.35786,-7.5 7.5,-7.5h210c4.14214,0 7.5,3.35786 7.5,7.5v0c0,4.14214 -3.35786,7.5 -7.5,7.5z" fill="#bcd5e0" stroke="none" stroke-width="1" stroke-linecap="butt"/><path d="M337.5,232.5c-4.14214,0 -7.5,-3.35786 -7.5,-7.5v-30c0,-4.14214 3.35786,-7.5 7.5,-7.5v0c4.14214,0 7.5,3.35786 7.5,7.5v30c0,4.14214 -3.35786,7.5 -7.5,7.5z" fill="#bcd5e0" stroke="none" stroke-width="1" stroke-linecap="butt"/><path d="M142.5,202.5c-4.14214,0 -7.5,-3.35786 -7.5,-7.5v0c0,-4.14214 3.35786,-7.5 7.5,-7.5h195c4.14214,0 7.5,3.35786 7.5,7.5v0c0,4.14214 -3.35786,7.5 -7.5,7.5z" fill="#bcd5e0" stroke="none" stroke-width="1" stroke-linecap="butt"/><path d="M142.5,202.5c-4.14214,0 -7.5,-3.35786 -7.5,-7.5v-30c0,-4.14214 3.35786,-7.5 7.5,-7.5v0c4.14214,0 7.5,3.35786 7.5,7.5v30c0,4.14214 -3.35786,7.5 -7.5,7.5z" fill="#bcd5e0" stroke="none" stroke-width="1" stroke-linecap="butt"/><path d="M142.5,172.5c-4.14214,0 -7.5,-3.35786 -7.5,-7.5v0c0,-4.14214 3.35786,-7.5 7.5,-7.5h195c4.14214,0 7.5,3.35786 7.5,7.5v0c0,4.14214 -3.35786,7.5 -7.5,7.5z" fill="#bcd5e0" stroke="none" stroke-width="1" stroke-linecap="butt"/><path d="M337.5,172.5c-4.14214,0 -7.5,-3.35786 -7.5,-7.5v-30c0,-4.14214 3.35786,-7.5 7.5,-7.5v0c4.14214,0 7.5,3.35786 7.5,7.5v30c0,4.14214 -3.35786,7.5 -7.5,7.5z" fill="#bcd5e0" stroke="none" stroke-width="1" stroke-linecap="butt"/><path d="M127.5,142.5c-4.14214,0 -7.5,-3.35786 -7.5,-7.5v0c0,-4.14214 3.35786,-7.5 7.5,-7.5h210c4.14214,0 7.5,3.35786 7.5,7.5v0c0,4.14214 -3.35786,7.5 -7.5,7.5z" fill="#bcd5e0" stroke="none" stroke-width="1" stroke-linecap="butt"/><path d="M127.5,225h210" fill="#000000" stroke="#213a34" stroke-width="11.25" stroke-linecap="round"/><path d="M337.5,225v-30" fill="#000000" stroke="#213a34" stroke-width="11.25" stroke-linecap="round"/><path d="M337.5,195h-195" fill="#000000" stroke="#213a34" stroke-width="11.25" stroke-linecap="round"/><path d="M142.5,195v-30" fill="#000000" stroke="#213a34" stroke-width="11.25" stroke-linecap="round"/><path d="M142.5,165h195" fill="#000000" stroke="#213a34" stroke-width="11.25" stroke-linecap="round"/><path d="M337.5,165v-30" fill="#000000" stroke="#213a34" stroke-width="11.25" stroke-linecap="round"/><path d="M337.5,135h-210" fill="#000000" stroke="#213a34" stroke-width="11.25" stroke-linecap="round"/><path d="M292.5,210c0,-16.56854 13.43146,-30 30,-30c16.56854,0 30,13.43146 30,30c0,16.56854 -13.43146,30 -30,30c-16.56854,0 -30,-13.43146 -30,-30z" fill-opacity="0.3" fill="#2d00b5" stroke-opacity="0.6" stroke="#2d00b5" stroke-width="1.5" stroke-linecap="butt"/><path d="M127.5,180c0,-16.56854 13.43146,-30 30,-30c16.56854,0 30,13.43146 30,30c0,16.56854 -13.43146,30 -30,30c-16.56854,0 -30,-13.43146 -30,-30z" fill-opacity="0.3" fill="#2d00b5" stroke-opacity="0.6" stroke="#2d00b5" stroke-width="1.5" stroke-linecap="butt"/><path d="M292.5,150c0,-16.56854 13.43146,-30 30,-30c16.56854,0 30,13.43146 30,30c0,16.56854 -13.43146,30 -30,30c-16.56854,0 -30,-13.43146 -30,-30z" fill-opacity="0.3" fill="#2d00b5" stroke-opacity="0.6" stroke="#2d00b5" stroke-width="1.5" stroke-linecap="butt"/><path d="M120,225c0,-4.14214 3.35786,-7.5 7.5,-7.5c4.14214,0 7.5,3.35786 7.5,7.5c0,4.14214 -3.35786,7.5 -7.5,7.5c-4.14214,0 -7.5,-3.35786 -7.5,-7.5z" fill-opacity="0.35" fill="#00ff44" stroke="none" stroke-width="1" stroke-linecap="butt"/><path d="M120,135c0,-4.14214 3.35786,-7.5 7.5,-7.5c4.14214,0 7.5,3.35786 7.5,7.5c0,4.14214 -3.35786,7.5 -7.5,7.5c-4.14214,0 -7.5,-3.35786 -7.5,-7.5z" fill-opacity="0.35" fill="#ff0404" stroke="none" stroke-width="1" stroke-linecap="butt"/><path d="M213.75,180c0,-2.07107 1.67893,-3.75 3.75,-3.75c2.07107,0 3.75,1.67893 3.75,3.75c0,2.07107 -1.67893,3.75 -3.75,3.75c-2.07107,0 -3.75,-1.67893 -3.75,-3.75z" fill-opacity="0.8" fill="#3a627f" stroke="none" stroke-width="1" stroke-linecap="butt"/><path d="M258.75,180c0,-2.07107 1.67893,-3.75 3.75,-3.75c2.07107,0 3.75,1.67893 3.75,3.75c0,2.07107 -1.67893,3.75 -3.75,3.75c-2.07107,0 -3.75,-1.67893 -3.75,-3.75z" fill-opacity="0.8" fill="#3a627f" stroke="none" stroke-width="1" stroke-linecap="butt"/><path d="M217.5,180h45" fill="#000000" stroke-opacity="0.8" stroke="#75c5ff" stroke-width="3.75" stroke-linecap="round"/><path d="M213.75,210c0,-2.07107 1.67893,-3.75 3.75,-3.75c2.07107,0 3.75,1.67893 3.75,3.75c0,2.07107 -1.67893,3.75 -3.75,3.75c-2.07107,0 -3.75,-1.67893 -3.75,-3.75z" fill-opacity="0.8" fill="#3a627f" stroke="none" stroke-width="1" stroke-linecap="butt"/><path d="M258.75,210c0,-2.07107 1.67893,-3.75 3.75,-3.75c2.07107,0 3.75,1.67893 3.75,3.75c0,2.07107 -1.67893,3.75 -3.75,3.75c-2.07107,0 -3.75,-1.67893 -3.75,-3.75z" fill-opacity="0.8" fill="#3a627f" stroke="none" stroke-width="1" stroke-linecap="butt"/><path d="M217.5,210h45" fill="#000000" stroke-opacity="0.8" stroke="#75c5ff" stroke-width="3.75" stroke-linecap="round"/><path d="M213.75,150c0,-2.07107 1.67893,-3.75 3.75,-3.75c2.07107,0 3.75,1.67893 3.75,3.75c0,2.07107 -1.67893,3.75 -3.75,3.75c-2.07107,0 -3.75,-1.67893 -3.75,-3.75z" fill-opacity="0.8" fill="#3a627f" stroke="none" stroke-width="1" stroke-linecap="butt"/><path d="M258.75,150c0,-2.07107 1.67893,-3.75 3.75,-3.75c2.07107,0 3.75,1.67893 3.75,3.75c0,2.07107 -1.67893,3.75 -3.75,3.75c-2.07107,0 -3.75,-1.67893 -3.75,-3.75z" fill-opacity="0.8" fill="#3a627f" stroke="none" stroke-width="1" stroke-linecap="butt"/><path d="M217.5,150h45" fill="#000000" stroke-opacity="0.8" stroke="#75c5ff" stroke-width="3.75" stroke-linecap="round"/></g></g></svg>