<svg version="1.1" xmlns="http://www.w3.org/2000/svg" xmlns:xlink="http://www.w3.org/1999/xlink" width="62.36325" height="60.26072" viewBox="0,0,62.36325,60.26072"><defs><linearGradient x1="270.89484" y1="120.991" x2="270.89484" y2="179.7517" gradientUnits="userSpaceOnUse" id="color-1"><stop offset="0" stop-color="#005761"/><stop offset="1" stop-color="#223f47"/></linearGradient><linearGradient x1="270.89201" y1="167.57146" x2="270.89201" y2="180.14295" gradientUnits="userSpaceOnUse" id="color-2"><stop offset="0" stop-color="#20a3ab"/><stop offset="1" stop-color="#15696d"/></linearGradient><linearGradient x1="262.89703" y1="135.5755" x2="263.26683" y2="154.45191" gradientUnits="userSpaceOnUse" id="color-3"><stop offset="0" stop-color="#00d0ff"/><stop offset="1" stop-color="#008aa9"/></linearGradient><linearGradient x1="257.30248" y1="138.74118" x2="257.48753" y2="151.91835" gradientUnits="userSpaceOnUse" id="color-4"><stop offset="0" stop-color="#00f7ff"/><stop offset="1" stop-color="#cecece"/></linearGradient><radialGradient cx="284.80181" cy="135.15163" r="12.04466" gradientUnits="userSpaceOnUse" id="color-5"><stop offset="0" stop-color="#008ffc"/><stop offset="1" stop-color="#008ffc" stop-opacity="0"/></radialGradient><linearGradient x1="269.38855" y1="147.36122" x2="265.2698" y2="165.9729" gradientUnits="userSpaceOnUse" id="color-6"><stop offset="0" stop-color="#00d0ff"/><stop offset="1" stop-color="#008aa9"/></linearGradient><linearGradient x1="263.12419" y1="149.5639" x2="260.17726" y2="162.5389" gradientUnits="userSpaceOnUse" id="color-7"><stop offset="0" stop-color="#00f7ff"/><stop offset="1" stop-color="#cecece"/></linearGradient><radialGradient cx="290.98487" cy="152.14594" r="12.16072" gradientUnits="userSpaceOnUse" id="color-8"><stop offset="0" stop-color="#008ffc"/><stop offset="1" stop-color="#008ffc" stop-opacity="0"/></radialGradient><linearGradient x1="252.31494" y1="131.72764" x2="254.63096" y2="145.51981" gradientUnits="userSpaceOnUse" id="color-9"><stop offset="0" stop-color="#00d0ff"/><stop offset="1" stop-color="#008aa9"/></linearGradient><linearGradient x1="249.05131" y1="134.26262" x2="250.61451" y2="143.89853" gradientUnits="userSpaceOnUse" id="color-10"><stop offset="0" stop-color="#00f7ff"/><stop offset="1" stop-color="#cecece"/></linearGradient><radialGradient cx="268.32038" cy="129.04392" r="8.92202" gradientUnits="userSpaceOnUse" id="color-11"><stop offset="0" stop-color="#008ffc"/><stop offset="1" stop-color="#008ffc" stop-opacity="0"/></radialGradient></defs><g transform="translate(-239.71327,-120.24097)"><g data-paper-data="{&quot;isPaintingLayer&quot;:true}" fill-rule="nonzero" stroke-linejoin="miter" stroke-miterlimit="10" stroke-dasharray="" stroke-dashoffset="0" style="mix-blend-mode: normal"><path d="M240.46328,179.7517v-58.76072h60.86325v58.76072z" fill="url(#color-1)" stroke="#166f73" stroke-width="1.5" stroke-linecap="butt"/><path d="M239.96344,180.14295v-12.57143h61.85715v12.57143z" fill="url(#color-2)" stroke="none" stroke-width="0" stroke-linecap="butt"/><path d="M249.5829,154.72c0,0 -2.10575,-1.27255 -2.52442,-2.15309c-0.42678,-0.89758 -0.01228,-3.18233 -0.01228,-3.18233l29.61148,-14.07864c0,0 2.00872,1.36797 2.416,2.22458c0.43634,0.91765 0.1207,3.11083 0.1207,3.11083z" fill="url(#color-3)" stroke="none" stroke-width="0" stroke-linecap="butt"/><path d="M247.93515,152.05247c0,0 -1.46488,-0.89638 -1.7537,-1.51262c-0.2944,-0.62819 0.00374,-2.22129 0.00374,-2.22129l20.7233,-9.71229c0,0 1.39681,0.96264 1.67776,1.56211c0.301,0.64221 0.07219,2.17185 0.07219,2.17185z" fill="url(#color-4)" stroke="none" stroke-width="0" stroke-linecap="butt"/><path d="M269.9971,141.73656l27.28216,-13.6823" fill="none" stroke="url(#color-5)" stroke-width="2.5" stroke-linecap="round"/><path d="M251.77778,162.98715c0,0 -1.76429,-1.74874 -1.96608,-2.71224c-0.2057,-0.98213 0.74351,-3.1258 0.74351,-3.1258l32.40101,-6.78533c0,0 1.64641,1.81934 1.84271,2.75665c0.21032,1.00412 -0.62013,3.08139 -0.62013,3.08139z" fill="url(#color-6)" stroke="none" stroke-width="0" stroke-linecap="butt"/><path d="M250.77143,160.40258c0,0 -1.22469,-1.22743 -1.36182,-1.90073c-0.13975,-0.68635 0.53105,-2.17892 0.53105,-2.17892l22.64217,-4.61074c0,0 1.14218,1.27629 1.27555,1.93126c0.14291,0.70169 -0.44481,2.14844 -0.44481,2.14844z" fill="url(#color-7)" stroke="none" stroke-width="0" stroke-linecap="butt"/><path d="M274.89326,155.09293l22.35443,-4.72719" fill="none" stroke="url(#color-8)" stroke-width="3" stroke-linecap="round"/><path d="M244.63271,147.19877c0,0 -1.68091,-0.70437 -2.0831,-1.30426c-0.40998,-0.61148 -0.35376,-2.33061 -0.35376,-2.33061l20.17342,-13.52459c0,0 1.62015,0.7848 2.0114,1.36838c0.41916,0.62517 0.42548,2.26648 0.42548,2.26648z" fill="url(#color-9)" stroke="none" stroke-width="0" stroke-linecap="butt"/><path d="M243.62925,145.0317c0,0 -1.17055,-0.49814 -1.44895,-0.91842c-0.28378,-0.42843 -0.23791,-1.62813 -0.23791,-1.62813l14.1334,-9.36208c0,0 1.12785,0.55407 1.39866,0.96291c0.29015,0.438 0.28819,1.58367 0.28819,1.58367z" fill="url(#color-10)" stroke="none" stroke-width="0" stroke-linecap="butt"/><path d="M258.18521,135.47313l18.50948,-12.98181" fill="none" stroke="url(#color-11)" stroke-width="2" stroke-linecap="round"/></g></g></svg>