<svg width="480px" height="360px" xmlns="http://www.w3.org/2000/svg"><path fill="#F00" d="M247.125 170.170L247.125 168.591Q247.651 168.615 248.165 168.493Q248.679 168.370 249.071 168.125Q249.463 167.881 249.708 167.507Q249.953 167.134 249.953 166.656L249.953 166.656Q249.953 166.179 249.793 165.891Q249.634 165.604 249.438 165.347Q249.243 165.090 249.083 164.796Q248.924 164.502 248.924 164.024L248.924 164.024Q248.924 163.780 249.016 163.523Q249.108 163.265 249.298 163.051Q249.487 162.837 249.781 162.696Q250.075 162.555 250.479 162.555L250.479 162.555Q250.883 162.555 251.250 162.727Q251.617 162.898 251.899 163.235Q252.181 163.572 252.346 164.092Q252.511 164.612 252.511 165.310L252.511 165.310Q252.511 166.265 252.162 167.140Q251.813 168.015 251.134 168.689Q250.454 169.362 249.451 169.766Q248.447 170.170 247.125 170.170L247.125 170.170ZM240.698 170.170L240.698 168.591Q241.236 168.615 241.744 168.493Q242.252 168.370 242.650 168.125Q243.048 167.881 243.293 167.507Q243.538 167.134 243.538 166.656L243.538 166.656Q243.538 166.179 243.379 165.891Q243.220 165.604 243.024 165.347Q242.828 165.090 242.669 164.796Q242.510 164.502 242.510 164.024L242.510 164.024Q242.510 163.780 242.601 163.523Q242.693 163.265 242.883 163.051Q243.073 162.837 243.366 162.696Q243.660 162.555 244.064 162.555L244.064 162.555Q244.468 162.555 244.836 162.727Q245.203 162.898 245.484 163.235Q245.766 163.572 245.931 164.092Q246.096 164.612 246.096 165.310L246.096 165.310Q246.096 166.265 245.748 167.140Q245.399 168.015 244.719 168.689Q244.040 169.362 243.030 169.766Q242.020 170.170 240.698 170.170L240.698 170.170Z"/></svg>