<svg width="480px" height="360px" xmlns="http://www.w3.org/2000/svg"><path fill="#F00" d="M245.264 171.161L250.601 171.161L250.601 172.912L245.264 172.912L245.264 178.188L252.205 178.188L252.205 180L241.126 180L241.126 178.188L243.085 178.188L243.085 172.912L241.126 172.912L241.126 171.161L243.085 171.161L243.085 168.958Q243.085 167.721 243.446 166.761Q243.807 165.800 244.474 165.138Q245.142 164.477 246.090 164.129Q247.039 163.780 248.226 163.780L248.226 163.780Q249.524 163.780 250.552 164.239Q251.581 164.698 252.315 165.371L252.315 165.371L251.128 166.730Q250.809 166.461 250.491 166.246Q250.173 166.032 249.824 165.885Q249.475 165.738 249.071 165.665Q248.667 165.591 248.178 165.591L248.178 165.591Q247.516 165.591 246.978 165.800Q246.439 166.008 246.060 166.412Q245.680 166.816 245.472 167.409Q245.264 168.003 245.264 168.787L245.264 168.787L245.264 171.161Z"/></svg>