<svg version="1.1" xmlns="http://www.w3.org/2000/svg" xmlns:xlink="http://www.w3.org/1999/xlink" width="62.36325" height="60.26072" viewBox="0,0,62.36325,60.26072"><defs><linearGradient x1="270.89485" y1="121.10219" x2="270.89485" y2="179.8629" gradientUnits="userSpaceOnUse" id="color-1"><stop offset="0" stop-color="#5a4882"/><stop offset="1" stop-color="#342d42"/></linearGradient><linearGradient x1="270.892" y1="167.57146" x2="270.892" y2="180.14299" gradientUnits="userSpaceOnUse" id="color-2"><stop offset="0" stop-color="#a78be3"/><stop offset="1" stop-color="#643db8"/></linearGradient><linearGradient x1="271.09008" y1="134.11954" x2="271.09008" y2="169.89487" gradientUnits="userSpaceOnUse" id="color-3"><stop offset="0" stop-color="#1d0a33"/><stop offset="1" stop-color="#1d0a33" stop-opacity="0"/></linearGradient><radialGradient cx="270.24947" cy="154.49065" r="7.52325" gradientUnits="userSpaceOnUse" id="color-4"><stop offset="0" stop-color="#caff00"/><stop offset="1" stop-color="#caff00" stop-opacity="0"/></radialGradient><radialGradient cx="271.40909" cy="135.63983" r="25.27272" gradientUnits="userSpaceOnUse" id="color-5"><stop offset="0" stop-color="#caff00"/><stop offset="1" stop-color="#caff00" stop-opacity="0"/></radialGradient><linearGradient x1="269.92424" y1="152.7778" x2="269.92424" y2="161.36796" gradientUnits="userSpaceOnUse" id="color-6"><stop offset="0" stop-color="#bae033"/><stop offset="1" stop-color="#74a500"/></linearGradient><radialGradient cx="270.9445" cy="142.72663" r="19.10095" gradientUnits="userSpaceOnUse" id="color-7"><stop offset="0" stop-color="#caff00"/><stop offset="1" stop-color="#caff00" stop-opacity="0"/></radialGradient><radialGradient cx="270.95455" cy="135.65584" r="25.27272" gradientUnits="userSpaceOnUse" id="color-8"><stop offset="0" stop-color="#caff00"/><stop offset="1" stop-color="#caff00" stop-opacity="0"/></radialGradient><radialGradient cx="270.60095" cy="142.73873" r="19.10095" gradientUnits="userSpaceOnUse" id="color-9"><stop offset="0" stop-color="#caff00"/><stop offset="1" stop-color="#caff00" stop-opacity="0"/></radialGradient><radialGradient cx="270.06554" cy="149.43679" r="12.34354" gradientUnits="userSpaceOnUse" id="color-10"><stop offset="0" stop-color="#caff00"/><stop offset="1" stop-color="#caff00" stop-opacity="0"/></radialGradient><radialGradient cx="269.84354" cy="149.44461" r="12.34354" gradientUnits="userSpaceOnUse" id="color-11"><stop offset="0" stop-color="#caff00"/><stop offset="1" stop-color="#caff00" stop-opacity="0"/></radialGradient><radialGradient cx="270.11416" cy="154.49542" r="7.52325" gradientUnits="userSpaceOnUse" id="color-12"><stop offset="0" stop-color="#caff00"/><stop offset="1" stop-color="#caff00" stop-opacity="0"/></radialGradient></defs><g transform="translate(-239.71327,-120.35217)"><g data-paper-data="{&quot;isPaintingLayer&quot;:true}" fill-rule="nonzero" stroke-linejoin="miter" stroke-miterlimit="10" stroke-dasharray="" stroke-dashoffset="0" style="mix-blend-mode: normal"><path d="M240.46327,179.8629v-58.76072h60.86325v58.76072z" fill="url(#color-1)" stroke="#916fdc" stroke-width="1.5" stroke-linecap="butt"/><path d="M239.96343,180.14299v-12.57143h61.85715v12.57143z" fill="url(#color-2)" stroke="none" stroke-width="0" stroke-linecap="butt"/><path d="M241.20641,169.89487v-35.77529h59.76739v35.77529z" data-paper-data="{&quot;index&quot;:null}" fill="url(#color-3)" stroke="none" stroke-width="0" stroke-linecap="butt"/><path d="M262.72622,154.50418c0,0 2.08437,-1.13742 7.5774,-1.33938c3.68717,-0.13556 7.4691,1.31232 7.4691,1.31232" data-paper-data="{&quot;index&quot;:null}" fill="none" stroke="url(#color-4)" stroke-width="1.5" stroke-linecap="round"/><path d="M300.784,134.07718h-59.38095" fill="none" stroke="#6f48a1" stroke-width="0.5" stroke-linecap="round"/><path d="M246.13636,135.68528c0,0 7.00199,-3.82092 25.45463,-4.49935c12.38625,-0.45539 25.09082,4.40844 25.09082,4.40844" data-paper-data="{&quot;index&quot;:null}" fill="none" stroke="url(#color-5)" stroke-width="2.5" stroke-linecap="round"/><path d="M278.24748,158.06778c0,1.20616 -3.27006,3.30018 -8.2019,3.30018c-4.93184,0 -8.44456,-2.23961 -8.44456,-3.44577c0,-1.20616 3.36713,-5.14438 8.29897,-5.14438c4.93184,0 8.3475,4.08382 8.3475,5.28998z" fill="url(#color-6)" stroke="none" stroke-width="0" stroke-linecap="butt"/><path d="M266.89326,128.10333l10.03287,0.86721" fill="none" stroke="#64ff63" stroke-width="2.5" stroke-linecap="round"/><path d="M258.68802,131.22569l10.65996,-0.06645" fill="none" stroke="#64ff63" stroke-width="2.5" stroke-linecap="round"/><path d="M251.84354,142.76098c0,0 5.29205,-2.88783 19.23844,-3.40058c9.36144,-0.34418 18.96348,3.33187 18.96348,3.33187" data-paper-data="{&quot;index&quot;:null}" fill="none" stroke="url(#color-7)" stroke-width="2" stroke-linecap="round"/><path d="M279.43944,131.11388l-14.90437,5.74309" fill="none" stroke="#3c803c" stroke-width="8.5" stroke-linecap="round"/><path d="M276.75412,140.47273l4.90652,-6.13499" fill="none" stroke="#64ff63" stroke-width="3" stroke-linecap="round"/><path d="M269.0818,142.85595l5.44044,-6.00283" fill="none" stroke="#64ff63" stroke-width="3" stroke-linecap="round"/><path d="M245.68182,135.61039c0,0 7.00199,3.82092 25.45463,4.49935c12.38625,0.45539 25.09082,-4.40844 25.09082,-4.40844" fill="none" stroke="url(#color-8)" stroke-width="2.5" stroke-linecap="round"/><path d="M251.5,142.70438c0,0 5.29205,2.88783 19.23844,3.40058c9.36144,0.34418 18.96348,-3.33187 18.96348,-3.33187" fill="none" stroke="url(#color-9)" stroke-width="2" stroke-linecap="round"/><path d="M257.722,149.45899c0,0 3.41986,-1.86619 12.43238,-2.19754c6.04961,-0.22242 12.2547,2.15314 12.2547,2.15314" data-paper-data="{&quot;index&quot;:null}" fill="none" stroke="url(#color-10)" stroke-width="1.5" stroke-linecap="round"/><path d="M257.5,149.42241c0,0 3.41987,1.86619 12.43239,2.19754c6.04961,0.22242 12.2547,-2.15314 12.2547,-2.15314" fill="none" stroke="url(#color-11)" stroke-width="1.5" stroke-linecap="round"/><path d="M262.5909,154.48189c0,0 2.08437,1.13742 7.57741,1.33938c3.68717,0.13556 7.4691,-1.31232 7.4691,-1.31232" fill="none" stroke="url(#color-12)" stroke-width="1.5" stroke-linecap="round"/></g></g></svg>