<svg width="480px" height="360px" xmlns="http://www.w3.org/2000/svg"><path fill="#F00" d="M252.181 177.344L252.181 179.400Q250.259 180.196 248.153 180.196L248.153 180.196Q244.762 180.196 242.944 178.170Q241.126 176.144 241.126 172.178L241.126 172.178Q241.126 170.256 241.628 168.701Q242.130 167.146 243.060 166.063Q243.991 164.979 245.313 164.392Q246.635 163.804 248.275 163.804L248.275 163.804Q249.389 163.804 250.344 163.994Q251.299 164.184 252.181 164.575L252.181 164.575L252.181 166.718Q251.311 166.240 250.381 165.989Q249.451 165.738 248.349 165.738L248.349 165.738Q247.223 165.738 246.311 166.161Q245.399 166.583 244.762 167.385Q244.125 168.187 243.783 169.344Q243.440 170.500 243.440 171.982L243.440 171.982Q243.440 175.091 244.701 176.670Q245.962 178.249 248.398 178.249L248.398 178.249Q249.426 178.249 250.369 178.011Q251.311 177.772 252.181 177.344L252.181 177.344Z"/></svg>