<svg version="1.1" xmlns="http://www.w3.org/2000/svg" xmlns:xlink="http://www.w3.org/1999/xlink" width="100" height="86.33333" viewBox="0,0,100,86.33333"><defs><radialGradient cx="241" cy="178.66669" r="50" gradientUnits="userSpaceOnUse" id="color-1"><stop offset="0" stop-color="#ffde97" stop-opacity="0"/><stop offset="1" stop-color="#ffde97"/></radialGradient><radialGradient cx="241" cy="178.66669" r="50" gradientUnits="userSpaceOnUse" id="color-2"><stop offset="0" stop-color="#98772e"/><stop offset="1" stop-color="#98772e" stop-opacity="0"/></radialGradient></defs><g transform="translate(-191,-131.66669)"><g data-paper-data="{&quot;isPaintingLayer&quot;:true}" fill-rule="nonzero" stroke="none" stroke-width="0.5" stroke-linecap="butt" stroke-linejoin="miter" stroke-miterlimit="10" stroke-dasharray="" stroke-dashoffset="0" style="mix-blend-mode: normal"><path d="M191,175.66669c0,-24.30052 22.38577,-44 50,-44c27.61424,0 50,19.69948 50,44c0,24.30053 -21.71909,42.16667 -49.33333,42.16667c-27.61423,0 -50.66667,-17.86615 -50.66667,-42.16667z" fill="url(#color-1)"/><path d="M191,175.66669c0,-12.08935 4.49991,-26.68698 49.874,-26.72493c40.12474,-0.03356 50.126,14.51376 50.126,26.72493c0,24.30053 -21.55242,42.33333 -49.16666,42.33333c-27.61423,0 -50.83334,-18.03281 -50.83334,-42.33333z" fill="url(#color-2)"/></g></g></svg>