<svg version="1.1" xmlns="http://www.w3.org/2000/svg" xmlns:xlink="http://www.w3.org/1999/xlink" width="62.44658" height="60.26072" viewBox="0,0,62.44658,60.26072"><defs><linearGradient x1="271.06156" y1="121.10229" x2="271.06156" y2="179.86298" gradientUnits="userSpaceOnUse" id="color-1"><stop offset="0" stop-color="#545f96"/><stop offset="1" stop-color="#2a3569"/></linearGradient><linearGradient x1="270.89207" y1="167.57146" x2="270.89207" y2="180.14313" gradientUnits="userSpaceOnUse" id="color-2"><stop offset="0" stop-color="#5a76ff"/><stop offset="1" stop-color="#2843c8"/></linearGradient><linearGradient x1="271.09002" y1="134.11951" x2="271.09002" y2="169.89483" gradientUnits="userSpaceOnUse" id="color-3"><stop offset="0" stop-color="#290b0b"/><stop offset="1" stop-color="#290b0b" stop-opacity="0"/></linearGradient><linearGradient x1="302.09952" y1="131.8741" x2="256.73681" y2="134.69955" gradientUnits="userSpaceOnUse" id="color-4"><stop offset="0" stop-color="#f6f6ff"/><stop offset="1" stop-color="#d4e4ff"/></linearGradient><radialGradient cx="279.41817" cy="133.28681" r="22.72531" gradientUnits="userSpaceOnUse" id="color-5"><stop offset="0" stop-color="#bfe3ff"/><stop offset="1" stop-color="#bfe3ff" stop-opacity="0"/></radialGradient><linearGradient x1="239.21611" y1="132.3741" x2="284.57881" y2="135.19955" gradientUnits="userSpaceOnUse" id="color-6"><stop offset="0" stop-color="#f6f6ff"/><stop offset="1" stop-color="#d4e4ff"/></linearGradient><radialGradient cx="261.89743" cy="133.78681" r="22.72531" gradientUnits="userSpaceOnUse" id="color-7"><stop offset="0" stop-color="#bfe3ff"/><stop offset="1" stop-color="#bfe3ff" stop-opacity="0"/></radialGradient><radialGradient cx="270.84241" cy="144.42935" r="6.7328" gradientUnits="userSpaceOnUse" id="color-8"><stop offset="0" stop-color="#ffe687"/><stop offset="1" stop-color="#eb9c5e"/></radialGradient><linearGradient x1="285.89892" y1="134.34596" x2="281.18879" y2="193.49845" gradientUnits="userSpaceOnUse" id="color-9"><stop offset="0" stop-color="#f6f6ff"/><stop offset="1" stop-color="#d4e4ff"/></linearGradient><radialGradient cx="283.54389" cy="163.92219" r="29.66985" gradientUnits="userSpaceOnUse" id="color-10"><stop offset="0" stop-color="#bfe3ff"/><stop offset="1" stop-color="#bfe3ff" stop-opacity="0"/></radialGradient><radialGradient cx="242.99361" cy="149.43998" r="7.73489" gradientUnits="userSpaceOnUse" id="color-11"><stop offset="0" stop-color="#ffe687"/><stop offset="1" stop-color="#eb9c5e"/></radialGradient><radialGradient cx="299.15783" cy="149.03994" r="7.73489" gradientUnits="userSpaceOnUse" id="color-12"><stop offset="0" stop-color="#ffe687"/><stop offset="1" stop-color="#eb9c5e"/></radialGradient></defs><g transform="translate(-239.7967,-120.35226)"><g data-paper-data="{&quot;isPaintingLayer&quot;:true}" fill-rule="nonzero" stroke-linejoin="miter" stroke-miterlimit="10" stroke-dasharray="" stroke-dashoffset="0" style="mix-blend-mode: normal"><path d="M240.5467,179.86298v-58.76072h60.94658v58.76072z" fill="url(#color-1)" stroke="#2843c8" stroke-width="1.5" stroke-linecap="butt"/><path d="M239.96359,180.14313v-12.57143h61.85715v12.57143z" fill="url(#color-2)" stroke="none" stroke-width="0" stroke-linecap="butt"/><path d="M241.20635,169.89483v-35.77529h59.76739v35.77529z" data-paper-data="{&quot;index&quot;:null}" fill="url(#color-3)" stroke="none" stroke-width="0" stroke-linecap="butt"/><path d="M276.67976,143.23636c5.36674,1.17102 17.77923,3.61798 17.77923,3.61798l-1.04726,5.67157l-17.35513,-5.93628" data-paper-data="{&quot;index&quot;:null}" fill="url(#color-4)" stroke="url(#color-5)" stroke-width="1.5" stroke-linecap="butt"/><path d="M300.78396,134.07716h-59.38095" fill="none" stroke="#938cff" stroke-width="0.5" stroke-linecap="round"/><path d="M265.25901,147.08963l-17.35513,5.93629l-1.04726,-5.67157c0,0 12.41249,-2.44696 17.77922,-3.61798" fill="url(#color-6)" stroke="url(#color-7)" stroke-width="1.5" stroke-linecap="butt"/><path d="M264.10961,144.42935c0,-3.71842 3.01438,-6.73281 6.73281,-6.73281c3.71843,0 6.7328,3.01439 6.7328,6.73281c0,3.71842 -3.01438,6.73281 -6.7328,6.73281c-3.71843,0 -6.73281,-3.01439 -6.73281,-6.73281z" fill="url(#color-8)" stroke="none" stroke-width="0" stroke-linecap="butt"/><path d="M264.91008,167.34321l3.76668,-22.60299l3.95634,-0.06839l2.53072,22.7038" fill="url(#color-9)" stroke="url(#color-10)" stroke-width="1.5" stroke-linecap="butt"/><path d="M241.27627,149.86444c-0.05041,-6.55414 -0.29457,-8.26699 0.37216,-8.26699c4.27186,0 9.0801,3.57064 9.0801,7.8425c0,4.27186 -4.77408,8.41315 -9.02629,8.00393c-0.55911,-0.05381 -0.73977,-1.62996 -0.42597,-7.57944z" fill="url(#color-11)" stroke="none" stroke-width="0" stroke-linecap="butt"/><path d="M300.44924,157.04388c-4.25221,0.40922 -9.02629,-3.73207 -9.02629,-8.00393c0,-4.27186 4.80824,-7.8425 9.0801,-7.8425c0.66673,0 0.42258,1.71285 0.37216,8.26699c0.31379,5.94948 0.13313,7.52564 -0.42597,7.57945z" data-paper-data="{&quot;index&quot;:null}" fill="url(#color-12)" stroke="none" stroke-width="0" stroke-linecap="butt"/></g></g></svg>