<svg version="1.1" xmlns="http://www.w3.org/2000/svg" xmlns:xlink="http://www.w3.org/1999/xlink" width="87.26992" height="41.44841" viewBox="0,0,87.26992,41.44841"><defs><radialGradient cx="239.99998" cy="179.99997" r="40.63496" gradientUnits="userSpaceOnUse" id="color-1"><stop offset="0" stop-color="#f0b4ff"/><stop offset="1" stop-color="#f0b4ff" stop-opacity="0"/></radialGradient><radialGradient cx="239.99998" cy="179.99997" r="40.63496" gradientUnits="userSpaceOnUse" id="color-2"><stop offset="0" stop-color="#f0b4ff" stop-opacity="0"/><stop offset="1" stop-color="#f0b4ff"/></radialGradient><radialGradient cx="239.99998" cy="179.99997" r="40.63496" gradientUnits="userSpaceOnUse" id="color-3"><stop offset="0" stop-color="#3b004a" stop-opacity="0"/><stop offset="1" stop-color="#3b004a" stop-opacity="0"/></radialGradient></defs><g transform="translate(-196.36504,-159.2758)"><g data-paper-data="{&quot;isPaintingLayer&quot;:true}" fill="url(#color-3)" fill-rule="nonzero" stroke-width="6" stroke-linecap="butt" stroke-linejoin="miter" stroke-miterlimit="10" stroke-dasharray="" stroke-dashoffset="0" style="mix-blend-mode: normal"><path d="M280.63496,179.99997c0,9.78883 -18.19289,17.72423 -40.63496,17.72423c-22.44206,0 -40.63496,-7.9354 -40.63496,-17.72418c0,-9.78883 18.19289,-17.72423 40.63496,-17.72423c22.44206,0 40.63496,7.9354 40.63496,17.72423z" stroke="url(#color-1)"/><path d="M280.63496,179.99997c0,9.78883 -18.19289,17.72423 -40.63496,17.72423c-22.44206,0 -40.63496,-7.9354 -40.63496,-17.72418c0,-9.78883 18.19289,-17.72423 40.63496,-17.72423c22.44206,0 40.63496,7.9354 40.63496,17.72423z" stroke="url(#color-2)"/></g></g></svg>