<svg width="480px" height="360px" xmlns="http://www.w3.org/2000/svg"><path fill="#F00" d="M251.507 177.564L251.507 179.547Q250.675 179.865 249.800 180.018Q248.924 180.171 247.994 180.171L247.994 180.171Q245.080 180.171 243.507 178.592Q241.934 177.013 241.934 173.977L241.934 173.977Q241.934 172.520 242.387 171.333Q242.840 170.145 243.660 169.301Q244.480 168.456 245.619 167.997Q246.757 167.538 248.129 167.538L248.129 167.538Q249.083 167.538 249.916 167.673Q250.748 167.807 251.507 168.113L251.507 168.113L251.507 170.145Q250.712 169.729 249.885 169.539Q249.059 169.350 248.178 169.350L248.178 169.350Q247.357 169.350 246.629 169.662Q245.901 169.974 245.350 170.562Q244.799 171.149 244.480 171.994Q244.162 172.839 244.162 173.904L244.162 173.904Q244.162 176.132 245.246 177.239Q246.329 178.347 248.251 178.347L248.251 178.347Q249.120 178.347 249.934 178.151Q250.748 177.956 251.507 177.564L251.507 177.564Z"/></svg>