<svg width="480px" height="360px" xmlns="http://www.w3.org/2000/svg"><path fill="#F00" d="M250.528 168.640L249.549 175.005Q249.438 175.789 249.426 176.303Q249.414 176.817 249.493 177.111Q249.573 177.405 249.744 177.521Q249.916 177.637 250.173 177.637L250.173 177.637Q250.516 177.637 250.822 177.276Q251.128 176.915 251.366 176.162Q251.605 175.409 251.746 174.259Q251.887 173.108 251.887 171.529L251.887 171.529Q251.887 169.766 251.666 168.383Q251.446 166.999 250.969 166.032Q250.491 165.065 249.726 164.557Q248.961 164.049 247.871 164.049L247.871 164.049Q247.039 164.049 246.262 164.471Q245.484 164.894 244.817 165.659Q244.150 166.424 243.605 167.495Q243.060 168.566 242.675 169.864Q242.289 171.161 242.075 172.655Q241.861 174.148 241.861 175.764L241.861 175.764Q241.861 179.706 243.048 181.647Q244.236 183.587 246.390 183.587L246.390 183.587Q247.480 183.587 248.422 183.336Q249.365 183.085 250.381 182.583L250.381 182.583L250.381 184.162Q249.377 184.627 248.373 184.860Q247.370 185.093 246.268 185.093L246.268 185.093Q243.146 185.093 241.647 182.754Q240.147 180.416 240.122 175.789L240.122 175.789Q240.110 173.940 240.367 172.245Q240.624 170.549 241.108 169.080Q241.591 167.611 242.283 166.406Q242.975 165.200 243.850 164.349Q244.725 163.498 245.754 163.027Q246.782 162.555 247.945 162.555L247.945 162.555Q249.402 162.555 250.473 163.149Q251.544 163.743 252.242 164.863Q252.940 165.983 253.276 167.611Q253.613 169.239 253.613 171.321L253.613 171.321Q253.601 173.426 253.337 174.926Q253.074 176.425 252.597 177.380Q252.119 178.335 251.440 178.782Q250.761 179.229 249.928 179.229L249.928 179.229Q248.973 179.229 248.508 178.739Q248.043 178.249 248.043 177.417L248.043 177.417Q247.578 178.360 247.039 178.794Q246.500 179.229 245.741 179.229L245.741 179.229Q244.591 179.229 244.015 178.366Q243.440 177.503 243.440 175.642L243.440 175.642Q243.440 174.969 243.520 174.197Q243.599 173.426 243.789 172.649Q243.979 171.871 244.285 171.155Q244.591 170.439 245.037 169.894Q245.484 169.350 246.096 169.019Q246.708 168.689 247.492 168.689L247.492 168.689Q247.957 168.689 248.361 168.799Q248.765 168.909 248.949 169.019L248.949 169.019L250.528 168.640ZM247.492 176.009L248.300 170.647Q248.190 170.500 247.963 170.384Q247.737 170.268 247.394 170.268L247.394 170.268Q247.027 170.268 246.733 170.525Q246.439 170.782 246.213 171.210Q245.986 171.639 245.833 172.184Q245.680 172.728 245.576 173.304Q245.472 173.879 245.429 174.436Q245.386 174.993 245.386 175.434L245.386 175.434Q245.386 176.609 245.533 177.123Q245.680 177.637 246.096 177.637L246.096 177.637Q246.243 177.637 246.390 177.576Q246.537 177.515 246.702 177.337Q246.868 177.160 247.064 176.842Q247.259 176.523 247.492 176.009L247.492 176.009Z"/></svg>