<svg width="480px" height="360px" xmlns="http://www.w3.org/2000/svg"><path fill="#F00" d="M245.570 162.702L248.153 162.702L247.822 175.311L245.937 175.311L245.570 162.702ZM246.868 176.989L246.868 176.989Q247.198 176.989 247.492 177.117Q247.786 177.246 248 177.466Q248.214 177.686 248.343 177.986Q248.471 178.286 248.471 178.617L248.471 178.617Q248.471 178.947 248.343 179.241Q248.214 179.535 248 179.749Q247.786 179.963 247.492 180.092Q247.198 180.220 246.868 180.220L246.868 180.220Q246.525 180.220 246.231 180.092Q245.937 179.963 245.717 179.749Q245.497 179.535 245.368 179.241Q245.239 178.947 245.239 178.617L245.239 178.617Q245.239 178.286 245.368 177.986Q245.497 177.686 245.717 177.466Q245.937 177.246 246.231 177.117Q246.525 176.989 246.868 176.989Z"/></svg>