<svg version="1.1" xmlns="http://www.w3.org/2000/svg" xmlns:xlink="http://www.w3.org/1999/xlink" width="6.90821" height="6.06626" viewBox="0,0,6.90821,6.06626"><g transform="translate(-236.55882,-176.47801)"><g data-paper-data="{&quot;isPaintingLayer&quot;:true}" fill="#ffffff" fill-rule="nonzero" stroke="#ff0000" stroke-width="1" stroke-linecap="butt" stroke-linejoin="miter" stroke-miterlimit="10" stroke-dasharray="" stroke-dashoffset="0" style="mix-blend-mode: normal"><path d="M242.967,178.44101c0,0.20256 -0.03523,0.40622 -0.10568,0.61097c-0.06825,0.20255 -0.16182,0.4018 -0.28071,0.59776c-0.11669,0.19595 -0.25209,0.38639 -0.40621,0.57134c-0.15412,0.18494 -0.31485,0.36107 -0.48218,0.5284c-0.16733,0.16512 -0.33685,0.31814 -0.50858,0.45905c-0.16953,0.14091 -0.33025,0.26639 -0.48217,0.37649c-0.15192,0.10788 -0.28841,0.19815 -0.40951,0.2708c-0.12109,0.07265 -0.21577,0.12219 -0.28402,0.14861c-0.06164,-0.02641 -0.15081,-0.07594 -0.26749,-0.14861c-0.11669,-0.07265 -0.2499,-0.16402 -0.39961,-0.2741c-0.14971,-0.11008 -0.31043,-0.23558 -0.48217,-0.37649c-0.17173,-0.14311 -0.34236,-0.29722 -0.51189,-0.46235c-0.16733,-0.16733 -0.32915,-0.34346 -0.48547,-0.5284c-0.15412,-0.18714 -0.29062,-0.37869 -0.40951,-0.57464c-0.11889,-0.19815 -0.21466,-0.39959 -0.28732,-0.60435c-0.07045,-0.20476 -0.10568,-0.40841 -0.10568,-0.61096c0,-0.09247 0.01101,-0.19264 0.03304,-0.30053c0.02419,-0.10788 0.05943,-0.21576 0.10567,-0.32364c0.04844,-0.10789 0.10789,-0.21136 0.17834,-0.31043c0.07265,-0.09907 0.15632,-0.18604 0.25099,-0.2609c0.09467,-0.07706 0.20034,-0.13761 0.31704,-0.18163c0.11889,-0.04623 0.24989,-0.06936 0.393,-0.06936c0.1299,0 0.2642,0.01981 0.40291,0.05944c0.14091,0.03745 0.2829,0.09689 0.42602,0.17834c0.14311,0.07926 0.28511,0.17943 0.42602,0.30052c0.14311,0.12109 0.28182,0.2642 0.41612,0.42933c0.1189,-0.15192 0.24879,-0.28511 0.38969,-0.3996c0.14091,-0.11669 0.28511,-0.21357 0.43263,-0.29062c0.14971,-0.07926 0.29943,-0.1387 0.44914,-0.17833c0.14971,-0.04184 0.29503,-0.06276 0.43594,-0.06276c0.14531,0 0.2774,0.02312 0.39629,0.06935c0.1189,0.04404 0.22457,0.10458 0.31704,0.18164c0.09247,0.07486 0.17283,0.16182 0.24108,0.2609c0.06825,0.09688 0.12439,0.19815 0.16843,0.30383c0.04404,0.10568 0.07596,0.21137 0.09578,0.31705c0.02203,0.10567 0.03304,0.20364 0.03304,0.29391z"/></g></g></svg>