<svg width="480px" height="360px" xmlns="http://www.w3.org/2000/svg"><path fill="#F00" d="M250.552 167.709L252.891 167.709L248.704 178.702Q248.055 180.379 247.363 181.591Q246.672 182.803 245.852 183.581Q245.031 184.358 244.052 184.725Q243.073 185.093 241.861 185.093L241.861 185.093Q241.542 185.093 241.285 185.080Q241.028 185.068 240.722 185.044L240.722 185.044L240.722 183.109Q240.992 183.146 241.310 183.177Q241.628 183.207 241.983 183.207L241.983 183.207Q242.571 183.207 243.079 183.036Q243.587 182.865 244.040 182.479Q244.493 182.093 244.909 181.481Q245.325 180.869 245.717 180L245.717 180L240.808 167.709L243.232 167.709L246.341 175.838L246.966 177.748L247.676 175.789L250.552 167.709Z"/></svg>