<svg version="1.1" xmlns="http://www.w3.org/2000/svg" xmlns:xlink="http://www.w3.org/1999/xlink" width="240.63158" height="164.84211" viewBox="0,0,240.63158,164.84211"><defs><linearGradient x1="120" y1="97.89474" x2="120" y2="262.10526" gradientUnits="userSpaceOnUse" id="color-1"><stop offset="0" stop-color="#0b697c"/><stop offset="1" stop-color="#021618"/></linearGradient></defs><g transform="translate(-119.68421,-97.57895)"><g data-paper-data="{&quot;isPaintingLayer&quot;:true}" fill-rule="nonzero" stroke-linejoin="miter" stroke-miterlimit="10" stroke-dasharray="" stroke-dashoffset="0" style="mix-blend-mode: normal"><path d="M120,262.10526v-164.21053h240v164.21053z" fill="url(#color-1)" stroke="none" stroke-width="1" stroke-linecap="butt"/><path d="M120,97.89474h240" fill="#000000" stroke-opacity="0.5" stroke="#ffffff" stroke-width="0.63158" stroke-linecap="butt"/><path d="M120,110.52632h240" fill="#000000" stroke-opacity="0.5" stroke="#ffffff" stroke-width="0.63158" stroke-linecap="butt"/><path d="M120,123.15789h240" fill="#000000" stroke-opacity="0.5" stroke="#ffffff" stroke-width="0.63158" stroke-linecap="butt"/><path d="M120,135.78947h240" fill="#000000" stroke-opacity="0.5" stroke="#ffffff" stroke-width="0.63158" stroke-linecap="butt"/><path d="M120,148.42105h240" fill="#000000" stroke-opacity="0.5" stroke="#ffffff" stroke-width="0.63158" stroke-linecap="butt"/><path d="M120,161.05263h240" fill="#000000" stroke-opacity="0.5" stroke="#ffffff" stroke-width="0.63158" stroke-linecap="butt"/><path d="M120,173.68421h240" fill="#000000" stroke-opacity="0.5" stroke="#ffffff" stroke-width="0.63158" stroke-linecap="butt"/><path d="M120,186.31579h240" fill="#000000" stroke-opacity="0.5" stroke="#ffffff" stroke-width="0.63158" stroke-linecap="butt"/><path d="M120,198.94737h240" fill="#000000" stroke-opacity="0.5" stroke="#ffffff" stroke-width="0.63158" stroke-linecap="butt"/><path d="M120,211.57895h240" fill="#000000" stroke-opacity="0.5" stroke="#ffffff" stroke-width="0.63158" stroke-linecap="butt"/><path d="M120,224.21053h240" fill="#000000" stroke-opacity="0.5" stroke="#ffffff" stroke-width="0.63158" stroke-linecap="butt"/><path d="M120,236.84211h240" fill="#000000" stroke-opacity="0.5" stroke="#ffffff" stroke-width="0.63158" stroke-linecap="butt"/><path d="M120,249.47368h240" fill="#000000" stroke-opacity="0.5" stroke="#ffffff" stroke-width="0.63158" stroke-linecap="butt"/><path d="M360,262.10526h-240" fill="#000000" stroke-opacity="0.5" stroke="#ffffff" stroke-width="0.63158" stroke-linecap="butt"/><path d="M120,97.89474v164.21053" fill="#000000" stroke-opacity="0.5" stroke="#ffffff" stroke-width="0.63158" stroke-linecap="butt"/><path d="M132.63158,97.89474v164.21053" fill="#000000" stroke-opacity="0.5" stroke="#ffffff" stroke-width="0.63158" stroke-linecap="butt"/><path d="M145.26316,97.89474v164.21053" fill="#000000" stroke-opacity="0.5" stroke="#ffffff" stroke-width="0.63158" stroke-linecap="butt"/><path d="M157.89474,262.10526v-164.21053" fill="#000000" stroke-opacity="0.5" stroke="#ffffff" stroke-width="0.63158" stroke-linecap="butt"/><path d="M170.52632,97.89474v164.21053" fill="#000000" stroke-opacity="0.5" stroke="#ffffff" stroke-width="0.63158" stroke-linecap="butt"/><path d="M183.15789,97.89474v164.21053" fill="#000000" stroke-opacity="0.5" stroke="#ffffff" stroke-width="0.63158" stroke-linecap="butt"/><path d="M195.78947,262.10526v-164.21053" fill="#000000" stroke-opacity="0.5" stroke="#ffffff" stroke-width="0.63158" stroke-linecap="butt"/><path d="M208.42105,97.89474v164.21053" fill="#000000" stroke-opacity="0.5" stroke="#ffffff" stroke-width="0.63158" stroke-linecap="butt"/><path d="M221.05263,97.89474v164.21053" fill="#000000" stroke-opacity="0.5" stroke="#ffffff" stroke-width="0.63158" stroke-linecap="butt"/><path d="M233.68421,97.89474v164.21053" fill="#000000" stroke-opacity="0.5" stroke="#ffffff" stroke-width="0.63158" stroke-linecap="butt"/><path d="M246.31579,97.89474v164.21053" fill="#000000" stroke-opacity="0.5" stroke="#ffffff" stroke-width="0.63158" stroke-linecap="butt"/><path d="M258.94737,97.89474v164.21053" fill="#000000" stroke-opacity="0.5" stroke="#ffffff" stroke-width="0.63158" stroke-linecap="butt"/><path d="M271.57895,262.10526v-164.21053" fill="#000000" stroke-opacity="0.5" stroke="#ffffff" stroke-width="0.63158" stroke-linecap="butt"/><path d="M284.21053,97.89474v164.21053" fill="#000000" stroke-opacity="0.5" stroke="#ffffff" stroke-width="0.63158" stroke-linecap="butt"/><path d="M296.84211,97.89474v164.21053" fill="#000000" stroke-opacity="0.5" stroke="#ffffff" stroke-width="0.63158" stroke-linecap="butt"/><path d="M309.47368,97.89474v164.21053" fill="#000000" stroke-opacity="0.5" stroke="#ffffff" stroke-width="0.63158" stroke-linecap="butt"/><path d="M322.10526,97.89474v164.21053" fill="#000000" stroke-opacity="0.5" stroke="#ffffff" stroke-width="0.63158" stroke-linecap="butt"/><path d="M334.73684,97.89474v164.21053" fill="#000000" stroke-opacity="0.5" stroke="#ffffff" stroke-width="0.63158" stroke-linecap="butt"/><path d="M347.36842,97.89474v164.21053" fill="#000000" stroke-opacity="0.5" stroke="#ffffff" stroke-width="0.63158" stroke-linecap="butt"/><path d="M360,97.89474v164.21053" fill="#000000" stroke-opacity="0.5" stroke="#ffffff" stroke-width="0.63158" stroke-linecap="butt"/><path d="M214.73684,154.73684h-37.89474" fill="#000000" stroke-opacity="0.5" stroke="#a3ff33" stroke-width="12" stroke-linecap="round"/><path d="M176.84211,142.10526h37.89474" fill="#000000" stroke-opacity="0.5" stroke="#a3ff33" stroke-width="12" stroke-linecap="round"/><path d="M176.84211,129.47368h37.89474" fill="#000000" stroke-opacity="0.5" stroke="#a3ff33" stroke-width="12" stroke-linecap="round"/><path d="M303.15789,154.73684h-37.89474" fill="#000000" stroke-opacity="0.5" stroke="#a3ff33" stroke-width="12" stroke-linecap="round"/><path d="M303.15789,142.10526h-37.89474" fill="#000000" stroke-opacity="0.5" stroke="#a3ff33" stroke-width="12" stroke-linecap="round"/><path d="M303.15789,129.47368h-37.89474" fill="#000000" stroke-opacity="0.5" stroke="#a3ff33" stroke-width="12" stroke-linecap="round"/><path d="M252.63158,192.63158h-25.26316" fill="#000000" stroke-opacity="0.5" stroke="#a3ff33" stroke-width="12" stroke-linecap="round"/><path d="M227.36842,180h25.26316" fill="#000000" stroke-opacity="0.5" stroke="#a3ff33" stroke-width="12" stroke-linecap="round"/><path d="M252.63158,167.36842h-25.26316" fill="#000000" stroke-opacity="0.5" stroke="#a3ff33" stroke-width="12" stroke-linecap="round"/><path d="M214.73684,154.73684h-37.89474" fill="#000000" stroke="#bbff3d" stroke-width="8.21053" stroke-linecap="round"/><path d="M176.84211,142.10526h37.89474" fill="#000000" stroke="#bbff3d" stroke-width="8.21053" stroke-linecap="round"/><path d="M176.84211,129.47368h37.89474" fill="#000000" stroke="#bbff3d" stroke-width="8.21053" stroke-linecap="round"/><path d="M303.15789,154.73684h-37.89474" fill="#000000" stroke="#bbff3d" stroke-width="8.21053" stroke-linecap="round"/><path d="M303.15789,142.10526h-37.89474" fill="#000000" stroke="#bbff3d" stroke-width="8.21053" stroke-linecap="round"/><path d="M303.15789,129.47368h-37.89474" fill="#000000" stroke="#bbff3d" stroke-width="8.21053" stroke-linecap="round"/><path d="M252.63158,192.63158h-25.26316" fill="#000000" stroke="#bbff3d" stroke-width="8.21053" stroke-linecap="round"/><path d="M227.36842,180h25.26316" fill="#000000" stroke="#bbff3d" stroke-width="8.21053" stroke-linecap="round"/><path d="M252.63158,167.36842h-25.26316" fill="#000000" stroke="#bbff3d" stroke-width="8.21053" stroke-linecap="round"/><path d="M214.73684,262.10526c-3.48811,0 -6.31579,-2.82768 -6.31579,-6.31579v-88.42105c0,-3.48811 2.82768,-6.31579 6.31579,-6.31579v0c3.48811,0 6.31579,2.82768 6.31579,6.31579v88.42105c0,3.48811 -2.82768,6.31579 -6.31579,6.31579z" fill="#bcd5e0" stroke="none" stroke-width="1" stroke-linecap="butt"/><path d="M176.84211,173.68421c-3.48811,0 -6.31579,-2.82768 -6.31579,-6.31579v0c0,-3.48811 2.82768,-6.31579 6.31579,-6.31579h37.89474c3.48811,0 6.31579,2.82768 6.31579,6.31579v0c0,3.48811 -2.82768,6.31579 -6.31579,6.31579z" fill="#bcd5e0" stroke="none" stroke-width="1" stroke-linecap="butt"/><path d="M176.84211,249.47368c-3.48811,0 -6.31579,-2.82768 -6.31579,-6.31579v-75.78947c0,-3.48811 2.82768,-6.31579 6.31579,-6.31579v0c3.48811,0 6.31579,2.82768 6.31579,6.31579v75.78947c0,3.48811 -2.82768,6.31579 -6.31579,6.31579z" fill="#bcd5e0" stroke="none" stroke-width="1" stroke-linecap="butt"/><path d="M138.94737,249.47368c-3.48811,0 -6.31579,-2.82768 -6.31579,-6.31579v0c0,-3.48811 2.82768,-6.31579 6.31579,-6.31579h37.89474c3.48811,0 6.31579,2.82768 6.31579,6.31579v0c0,3.48811 -2.82768,6.31579 -6.31579,6.31579z" fill="#bcd5e0" stroke="none" stroke-width="1" stroke-linecap="butt"/><path d="M138.94737,249.47368c-3.48811,0 -6.31579,-2.82768 -6.31579,-6.31579v-126.31579c0,-3.48811 2.82768,-6.31579 6.31579,-6.31579v0c3.48811,0 6.31579,2.82768 6.31579,6.31579v126.31579c0,3.48811 -2.82768,6.31579 -6.31579,6.31579z" fill="#bcd5e0" stroke="none" stroke-width="1" stroke-linecap="butt"/><path d="M138.94737,123.15789c-3.48811,0 -6.31579,-2.82768 -6.31579,-6.31579v0c0,-3.48811 2.82768,-6.31579 6.31579,-6.31579h202.10526c3.48811,0 6.31579,2.82768 6.31579,6.31579v0c0,3.48811 -2.82768,6.31579 -6.31579,6.31579z" fill="#bcd5e0" stroke="none" stroke-width="1" stroke-linecap="butt"/><path d="M341.05263,249.47368c-3.48811,0 -6.31579,-2.82768 -6.31579,-6.31579v-126.31579c0,-3.48811 2.82768,-6.31579 6.31579,-6.31579v0c3.48811,0 6.31579,2.82768 6.31579,6.31579v126.31579c0,3.48811 -2.82768,6.31579 -6.31579,6.31579z" fill="#bcd5e0" stroke="none" stroke-width="1" stroke-linecap="butt"/><path d="M303.15789,249.47368c-3.48811,0 -6.31579,-2.82768 -6.31579,-6.31579v0c0,-3.48811 2.82768,-6.31579 6.31579,-6.31579h37.89474c3.48811,0 6.31579,2.82768 6.31579,6.31579v0c0,3.48811 -2.82768,6.31579 -6.31579,6.31579z" fill="#bcd5e0" stroke="none" stroke-width="1" stroke-linecap="butt"/><path d="M303.15789,249.47368c-3.48811,0 -6.31579,-2.82768 -6.31579,-6.31579v-75.78947c0,-3.48811 2.82768,-6.31579 6.31579,-6.31579v0c3.48811,0 6.31579,2.82768 6.31579,6.31579v75.78947c0,3.48811 -2.82768,6.31579 -6.31579,6.31579z" fill="#bcd5e0" stroke="none" stroke-width="1" stroke-linecap="butt"/><path d="M265.26316,173.68421c-3.48811,0 -6.31579,-2.82768 -6.31579,-6.31579v0c0,-3.48811 2.82768,-6.31579 6.31579,-6.31579h37.89474c3.48811,0 6.31579,2.82768 6.31579,6.31579v0c0,3.48811 -2.82768,6.31579 -6.31579,6.31579z" fill="#bcd5e0" stroke="none" stroke-width="1" stroke-linecap="butt"/><path d="M265.26316,262.10526c-3.48811,0 -6.31579,-2.82768 -6.31579,-6.31579v-88.42105c0,-3.48811 2.82768,-6.31579 6.31579,-6.31579v0c3.48811,0 6.31579,2.82768 6.31579,6.31579v88.42105c0,3.48811 -2.82768,6.31579 -6.31579,6.31579z" fill="#bcd5e0" stroke="none" stroke-width="1" stroke-linecap="butt"/><path d="M214.73684,255.78947v-88.42105" fill="#000000" stroke="#213a34" stroke-width="9.47368" stroke-linecap="round"/><path d="M176.84211,167.36842h37.89474" fill="#000000" stroke="#213a34" stroke-width="9.47368" stroke-linecap="round"/><path d="M176.84211,167.36842v75.78947" fill="#000000" stroke="#213a34" stroke-width="9.47368" stroke-linecap="round"/><path d="M138.94737,243.15789h37.89474" fill="#000000" stroke="#213a34" stroke-width="9.47368" stroke-linecap="round"/><path d="M138.94737,116.84211v126.31579" fill="#000000" stroke="#213a34" stroke-width="9.47368" stroke-linecap="round"/><path d="M138.94737,116.84211h202.10526" fill="#000000" stroke="#213a34" stroke-width="9.47368" stroke-linecap="round"/><path d="M341.05263,116.84211v126.31579" fill="#000000" stroke="#213a34" stroke-width="9.47368" stroke-linecap="round"/><path d="M303.15789,243.15789h37.89474" fill="#000000" stroke="#213a34" stroke-width="9.47368" stroke-linecap="round"/><path d="M303.15789,243.15789v-75.78947" fill="#000000" stroke="#213a34" stroke-width="9.47368" stroke-linecap="round"/><path d="M265.26316,167.36842h37.89474" fill="#000000" stroke="#213a34" stroke-width="9.47368" stroke-linecap="round"/><path d="M265.26316,167.36842v88.42105" fill="#000000" stroke="#213a34" stroke-width="9.47368" stroke-linecap="round"/><path d="M137.68421,255.78947c0,-0.69762 0.56554,-1.26316 1.26316,-1.26316c0.69762,0 1.26316,0.56554 1.26316,1.26316c0,0.69762 -0.56554,1.26316 -1.26316,1.26316c-0.69762,0 -1.26316,-0.56554 -1.26316,-1.26316z" fill-opacity="0.8" fill="#9775ff" stroke="none" stroke-width="1" stroke-linecap="butt"/><path d="M135.15789,255.78947c0,-2.09287 1.69661,-3.78947 3.78947,-3.78947c2.09287,0 3.78947,1.69661 3.78947,3.78947c0,2.09287 -1.69661,3.78947 -3.78947,3.78947c-2.09287,0 -3.78947,-1.69661 -3.78947,-3.78947z" fill-opacity="0.6" fill="#9775ff" stroke="none" stroke-width="1" stroke-linecap="butt"/><path d="M327.15789,255.78947c0,-0.69762 0.56554,-1.26316 1.26316,-1.26316c0.69762,0 1.26316,0.56554 1.26316,1.26316c0,0.69762 -0.56554,1.26316 -1.26316,1.26316c-0.69762,0 -1.26316,-0.56554 -1.26316,-1.26316z" fill-opacity="0.8" fill="#7675ff" stroke="none" stroke-width="1" stroke-linecap="butt"/><path d="M324.63158,255.78947c0,-2.09287 1.69661,-3.78947 3.78947,-3.78947c2.09287,0 3.78947,1.69661 3.78947,3.78947c0,2.09287 -1.69661,3.78947 -3.78947,3.78947c-2.09287,0 -3.78947,-1.69661 -3.78947,-3.78947z" fill-opacity="0.6" fill="#7675ff" stroke="none" stroke-width="1" stroke-linecap="butt"/><path d="M276.63158,243.15789c0,-0.69762 0.56554,-1.26316 1.26316,-1.26316c0.69762,0 1.26316,0.56554 1.26316,1.26316c0,0.69762 -0.56554,1.26316 -1.26316,1.26316c-0.69762,0 -1.26316,-0.56554 -1.26316,-1.26316z" fill-opacity="0.8" fill="#7595ff" stroke="none" stroke-width="1" stroke-linecap="butt"/><path d="M274.10526,243.15789c0,-2.09287 1.69661,-3.78947 3.78947,-3.78947c2.09287,0 3.78947,1.69661 3.78947,3.78947c0,2.09287 -1.69661,3.78947 -3.78947,3.78947c-2.09287,0 -3.78947,-1.69661 -3.78947,-3.78947z" fill-opacity="0.6" fill="#7595ff" stroke="none" stroke-width="1" stroke-linecap="butt"/><path d="M200.84211,230.52632c0,-0.69762 0.56554,-1.26316 1.26316,-1.26316c0.69762,0 1.26316,0.56554 1.26316,1.26316c0,0.69762 -0.56554,1.26316 -1.26316,1.26316c-0.69762,0 -1.26316,-0.56554 -1.26316,-1.26316z" fill-opacity="0.8" fill="#9075ff" stroke="none" stroke-width="1" stroke-linecap="butt"/><path d="M198.31579,230.52632c0,-2.09287 1.69661,-3.78947 3.78947,-3.78947c2.09287,0 3.78947,1.69661 3.78947,3.78947c0,2.09287 -1.69661,3.78947 -3.78947,3.78947c-2.09287,0 -3.78947,-1.69661 -3.78947,-3.78947z" fill-opacity="0.6" fill="#9075ff" stroke="none" stroke-width="1" stroke-linecap="butt"/><path d="M162.94737,192.63158c0,-0.69762 0.56554,-1.26316 1.26316,-1.26316c0.69762,0 1.26316,0.56554 1.26316,1.26316c0,0.69762 -0.56554,1.26316 -1.26316,1.26316c-0.69762,0 -1.26316,-0.56554 -1.26316,-1.26316z" fill-opacity="0.8" fill="#75ffeb" stroke="none" stroke-width="1" stroke-linecap="butt"/><path d="M160.42105,192.63158c0,-2.09287 1.69661,-3.78947 3.78947,-3.78947c2.09287,0 3.78947,1.69661 3.78947,3.78947c0,2.09287 -1.69661,3.78947 -3.78947,3.78947c-2.09287,0 -3.78947,-1.69661 -3.78947,-3.78947z" fill-opacity="0.6" fill="#75ffeb" stroke="none" stroke-width="1" stroke-linecap="butt"/><path d="M314.52632,192.63158c0,-0.69762 0.56554,-1.26316 1.26316,-1.26316c0.69762,0 1.26316,0.56554 1.26316,1.26316c0,0.69762 -0.56554,1.26316 -1.26316,1.26316c-0.69762,0 -1.26316,-0.56554 -1.26316,-1.26316z" fill-opacity="0.8" fill="#75a9ff" stroke="none" stroke-width="1" stroke-linecap="butt"/><path d="M312,192.63158c0,-2.09287 1.69661,-3.78947 3.78947,-3.78947c2.09287,0 3.78947,1.69661 3.78947,3.78947c0,2.09287 -1.69661,3.78947 -3.78947,3.78947c-2.09287,0 -3.78947,-1.69661 -3.78947,-3.78947z" fill-opacity="0.6" fill="#75a9ff" stroke="none" stroke-width="1" stroke-linecap="butt"/><path d="M289.26316,180c0,-0.69762 0.56554,-1.26316 1.26316,-1.26316c0.69762,0 1.26316,0.56554 1.26316,1.26316c0,0.69762 -0.56554,1.26316 -1.26316,1.26316c-0.69762,0 -1.26316,-0.56554 -1.26316,-1.26316z" fill-opacity="0.8" fill="#75ffd7" stroke="none" stroke-width="1" stroke-linecap="butt"/><path d="M286.73684,180c0,-2.09287 1.69661,-3.78947 3.78947,-3.78947c2.09287,0 3.78947,1.69661 3.78947,3.78947c0,2.09287 -1.69661,3.78947 -3.78947,3.78947c-2.09287,0 -3.78947,-1.69661 -3.78947,-3.78947z" fill-opacity="0.6" fill="#75ffd7" stroke="none" stroke-width="1" stroke-linecap="butt"/><path d="M125.05263,167.36842c0,-0.69762 0.56554,-1.26316 1.26316,-1.26316c0.69762,0 1.26316,0.56554 1.26316,1.26316c0,0.69762 -0.56554,1.26316 -1.26316,1.26316c-0.69762,0 -1.26316,-0.56554 -1.26316,-1.26316z" fill-opacity="0.8" fill="#75f1ff" stroke="none" stroke-width="1" stroke-linecap="butt"/><path d="M122.52632,167.36842c0,-2.09287 1.69661,-3.78947 3.78947,-3.78947c2.09287,0 3.78947,1.69661 3.78947,3.78947c0,2.09287 -1.69661,3.78947 -3.78947,3.78947c-2.09287,0 -3.78947,-1.69661 -3.78947,-3.78947z" fill-opacity="0.6" fill="#75f1ff" stroke="none" stroke-width="1" stroke-linecap="butt"/><path d="M352.42105,167.36842c0,-0.69762 0.56554,-1.26316 1.26316,-1.26316c0.69762,0 1.26316,0.56554 1.26316,1.26316c0,0.69762 -0.56554,1.26316 -1.26316,1.26316c-0.69762,0 -1.26316,-0.56554 -1.26316,-1.26316z" fill-opacity="0.8" fill="#9775ff" stroke="none" stroke-width="1" stroke-linecap="butt"/><path d="M349.89474,167.36842c0,-2.09287 1.69661,-3.78947 3.78947,-3.78947c2.09287,0 3.78947,1.69661 3.78947,3.78947c0,2.09287 -1.69661,3.78947 -3.78947,3.78947c-2.09287,0 -3.78947,-1.69661 -3.78947,-3.78947z" fill-opacity="0.6" fill="#9775ff" stroke="none" stroke-width="1" stroke-linecap="butt"/><path d="M327.15789,142.10526c0,-0.69762 0.56554,-1.26316 1.26316,-1.26316c0.69762,0 1.26316,0.56554 1.26316,1.26316c0,0.69762 -0.56554,1.26316 -1.26316,1.26316c-0.69762,0 -1.26316,-0.56554 -1.26316,-1.26316z" fill-opacity="0.8" fill="#8a75ff" stroke="none" stroke-width="1" stroke-linecap="butt"/><path d="M324.63158,142.10526c0,-2.09287 1.69661,-3.78947 3.78947,-3.78947c2.09287,0 3.78947,1.69661 3.78947,3.78947c0,2.09287 -1.69661,3.78947 -3.78947,3.78947c-2.09287,0 -3.78947,-1.69661 -3.78947,-3.78947z" fill-opacity="0.6" fill="#8a75ff" stroke="none" stroke-width="1" stroke-linecap="butt"/><path d="M226.10526,129.47368c0,-0.69762 0.56554,-1.26316 1.26316,-1.26316c0.69762,0 1.26316,0.56554 1.26316,1.26316c0,0.69762 -0.56554,1.26316 -1.26316,1.26316c-0.69762,0 -1.26316,-0.56554 -1.26316,-1.26316z" fill-opacity="0.8" fill="#75ffeb" stroke="none" stroke-width="1" stroke-linecap="butt"/><path d="M223.57895,129.47368c0,-2.09287 1.69661,-3.78947 3.78947,-3.78947c2.09287,0 3.78947,1.69661 3.78947,3.78947c0,2.09287 -1.69661,3.78947 -3.78947,3.78947c-2.09287,0 -3.78947,-1.69661 -3.78947,-3.78947z" fill-opacity="0.6" fill="#75ffeb" stroke="none" stroke-width="1" stroke-linecap="butt"/><path d="M188.21053,104.21053c0,-0.69762 0.56554,-1.26316 1.26316,-1.26316c0.69762,0 1.26316,0.56554 1.26316,1.26316c0,0.69762 -0.56554,1.26316 -1.26316,1.26316c-0.69762,0 -1.26316,-0.56554 -1.26316,-1.26316z" fill-opacity="0.8" fill="#75f1ff" stroke="none" stroke-width="1" stroke-linecap="butt"/><path d="M185.68421,104.21053c0,-2.09287 1.69661,-3.78947 3.78947,-3.78947c2.09287,0 3.78947,1.69661 3.78947,3.78947c0,2.09287 -1.69661,3.78947 -3.78947,3.78947c-2.09287,0 -3.78947,-1.69661 -3.78947,-3.78947z" fill-opacity="0.6" fill="#75f1ff" stroke="none" stroke-width="1" stroke-linecap="butt"/><path d="M276.63158,104.21053c0,-0.69762 0.56554,-1.26316 1.26316,-1.26316c0.69762,0 1.26316,0.56554 1.26316,1.26316c0,0.69762 -0.56554,1.26316 -1.26316,1.26316c-0.69762,0 -1.26316,-0.56554 -1.26316,-1.26316z" fill-opacity="0.8" fill="#75ebff" stroke="none" stroke-width="1" stroke-linecap="butt"/><path d="M274.10526,104.21053c0,-2.09287 1.69661,-3.78947 3.78947,-3.78947c2.09287,0 3.78947,1.69661 3.78947,3.78947c0,2.09287 -1.69661,3.78947 -3.78947,3.78947c-2.09287,0 -3.78947,-1.69661 -3.78947,-3.78947z" fill-opacity="0.6" fill="#75ebff" stroke="none" stroke-width="1" stroke-linecap="butt"/><path d="M208.42105,255.78947c0,-3.48811 2.82768,-6.31579 6.31579,-6.31579c3.48811,0 6.31579,2.82768 6.31579,6.31579c0,3.48811 -2.82768,6.31579 -6.31579,6.31579c-3.48811,0 -6.31579,-2.82768 -6.31579,-6.31579z" fill-opacity="0.35" fill="#00ff44" stroke="none" stroke-width="1" stroke-linecap="butt"/><path d="M258.94737,255.78947c0,-3.48811 2.82768,-6.31579 6.31579,-6.31579c3.48811,0 6.31579,2.82768 6.31579,6.31579c0,3.48811 -2.82768,6.31579 -6.31579,6.31579c-3.48811,0 -6.31579,-2.82768 -6.31579,-6.31579z" fill-opacity="0.35" fill="#ff0404" stroke="none" stroke-width="1" stroke-linecap="butt"/></g></g></svg>