<svg width="480px" height="360px" xmlns="http://www.w3.org/2000/svg"><path fill="#F00" d="M246.145 178.225L246.145 169.472L242.510 169.472L242.510 167.709L248.300 167.709L248.300 178.225L251.960 178.225L251.960 180L242.106 180L242.106 178.225L246.145 178.225ZM246.892 162.555L246.892 162.555Q247.247 162.555 247.553 162.684Q247.859 162.813 248.086 163.045Q248.312 163.278 248.441 163.578Q248.569 163.878 248.569 164.233L248.569 164.233Q248.569 164.575 248.441 164.881Q248.312 165.187 248.086 165.420Q247.859 165.653 247.553 165.781Q247.247 165.910 246.892 165.910L246.892 165.910Q246.537 165.910 246.231 165.781Q245.925 165.653 245.699 165.420Q245.472 165.187 245.344 164.881Q245.215 164.575 245.215 164.233L245.215 164.233Q245.215 163.878 245.344 163.578Q245.472 163.278 245.699 163.045Q245.925 162.813 246.231 162.684Q246.537 162.555 246.892 162.555Z"/></svg>