<svg width="480px" height="360px" xmlns="http://www.w3.org/2000/svg"><path fill="#F00" d="M252.780 169.448L250.809 169.448Q251.152 169.876 251.342 170.445Q251.532 171.015 251.532 171.676L251.532 171.676Q251.532 172.630 251.183 173.420Q250.834 174.210 250.197 174.773Q249.561 175.336 248.673 175.648Q247.786 175.960 246.721 175.960L246.721 175.960Q245.950 175.960 245.276 175.795Q244.603 175.630 244.211 175.385L244.211 175.385Q243.979 175.728 243.819 176.034Q243.660 176.340 243.660 176.719L243.660 176.719Q243.660 177.184 244.107 177.490Q244.554 177.796 245.288 177.821L245.288 177.821L248.520 177.943Q249.438 177.968 250.216 178.176Q250.993 178.384 251.550 178.776Q252.107 179.168 252.419 179.743Q252.731 180.318 252.731 181.077L252.731 181.077Q252.731 181.897 252.376 182.632Q252.021 183.366 251.281 183.923Q250.540 184.480 249.402 184.811Q248.263 185.142 246.696 185.142L246.696 185.142Q245.203 185.142 244.156 184.903Q243.109 184.664 242.436 184.242Q241.763 183.819 241.457 183.238Q241.151 182.656 241.151 181.959L241.151 181.959Q241.151 181.065 241.567 180.392Q241.983 179.718 242.852 179.094L242.852 179.094Q242.534 178.947 242.301 178.727Q242.069 178.507 241.922 178.243Q241.775 177.980 241.702 177.686Q241.628 177.393 241.628 177.111L241.628 177.111Q241.628 176.315 242.002 175.654Q242.375 174.993 242.889 174.406L242.889 174.406Q242.656 174.124 242.479 173.855Q242.301 173.585 242.173 173.273Q242.044 172.961 241.977 172.600Q241.910 172.239 241.910 171.774L241.910 171.774Q241.910 170.819 242.259 170.029Q242.607 169.239 243.238 168.676Q243.868 168.113 244.756 167.801Q245.643 167.489 246.721 167.489L246.721 167.489Q247.174 167.489 247.590 167.550Q248.006 167.611 248.324 167.709L248.324 167.709L252.780 167.709L252.780 169.448ZM243.415 181.775L243.415 181.775Q243.415 182.644 244.321 183.042Q245.227 183.440 246.843 183.440L246.843 183.440Q247.859 183.440 248.551 183.256Q249.243 183.073 249.665 182.773Q250.087 182.473 250.271 182.087Q250.454 181.702 250.454 181.298L250.454 181.298Q250.454 180.551 249.842 180.196Q249.230 179.841 247.969 179.780L247.969 179.780L244.762 179.669Q244.358 179.939 244.095 180.196Q243.832 180.453 243.685 180.716Q243.538 180.979 243.477 181.243Q243.415 181.506 243.415 181.775ZM244.064 171.725L244.064 171.725Q244.064 172.312 244.260 172.802Q244.456 173.292 244.811 173.634Q245.166 173.977 245.650 174.167Q246.133 174.357 246.721 174.357L246.721 174.357Q247.357 174.357 247.853 174.142Q248.349 173.928 248.686 173.561Q249.022 173.194 249.200 172.716Q249.377 172.239 249.377 171.725L249.377 171.725Q249.377 171.137 249.181 170.647Q248.985 170.158 248.630 169.815Q248.275 169.472 247.792 169.282Q247.308 169.093 246.721 169.093L246.721 169.093Q246.084 169.093 245.588 169.313Q245.093 169.533 244.756 169.894Q244.419 170.256 244.242 170.733Q244.064 171.210 244.064 171.725Z"/></svg>