<svg version="1.1" xmlns="http://www.w3.org/2000/svg" xmlns:xlink="http://www.w3.org/1999/xlink" width="62.44658" height="60.26072" viewBox="0,0,62.44658,60.26072"><defs><linearGradient x1="271.06156" y1="121.10232" x2="271.06156" y2="179.86302" gradientUnits="userSpaceOnUse" id="color-1"><stop offset="0" stop-color="#81704a"/><stop offset="1" stop-color="#54472c"/></linearGradient><linearGradient x1="270.89207" y1="167.57145" x2="270.89207" y2="180.14315" gradientUnits="userSpaceOnUse" id="color-2"><stop offset="0" stop-color="#8d7134"/><stop offset="1" stop-color="#5b4d28"/></linearGradient><radialGradient cx="270.63555" cy="144.15454" r="14.17562" gradientUnits="userSpaceOnUse" id="color-3"><stop offset="0" stop-color="#ffe986"/><stop offset="1" stop-color="#ffe986" stop-opacity="0"/></radialGradient><radialGradient cx="271.29205" cy="140.34826" r="17.66624" gradientUnits="userSpaceOnUse" id="color-4"><stop offset="0" stop-color="#fff9af"/><stop offset="1" stop-color="#fff9af" stop-opacity="0"/></radialGradient><radialGradient cx="284.95976" cy="148.38389" r="14.55347" gradientUnits="userSpaceOnUse" id="color-5"><stop offset="0" stop-color="#ffe986"/><stop offset="1" stop-color="#ffe986" stop-opacity="0"/></radialGradient><radialGradient cx="287.38053" cy="145.54975" r="18.13713" gradientUnits="userSpaceOnUse" id="color-6"><stop offset="0" stop-color="#fff9af"/><stop offset="1" stop-color="#fff9af" stop-opacity="0"/></radialGradient><radialGradient cx="256.79517" cy="147.63575" r="14.55347" gradientUnits="userSpaceOnUse" id="color-7"><stop offset="0" stop-color="#ffe986"/><stop offset="1" stop-color="#ffe986" stop-opacity="0"/></radialGradient><radialGradient cx="254.37441" cy="144.80162" r="18.13713" gradientUnits="userSpaceOnUse" id="color-8"><stop offset="0" stop-color="#fff9af"/><stop offset="1" stop-color="#fff9af" stop-opacity="0"/></radialGradient></defs><g transform="translate(-239.79678,-120.35229)"><g data-paper-data="{&quot;isPaintingLayer&quot;:true}" fill-rule="nonzero" stroke-linejoin="miter" stroke-miterlimit="10" stroke-dasharray="" stroke-dashoffset="0" style="mix-blend-mode: normal"><path d="M240.54679,179.86302v-58.76072h60.94658v58.76072z" fill="url(#color-1)" stroke="#543f10" stroke-width="1.5" stroke-linecap="butt"/><path d="M239.96362,180.14315v-12.57143c0,0 9.2599,0 15.94982,0c11.34971,0 45.90733,0 45.90733,0v12.57143z" fill="url(#color-2)" stroke="none" stroke-width="0" stroke-linecap="butt"/><path d="M275.05674,159.61211l5.75948,-25.7882c0,0 3.30199,-6.01728 -9.77693,-5.98395c-14.38827,0.60063 -10.46855,5.98396 -10.46855,5.98396l6.9812,25.40758z" fill="url(#color-3)" stroke="url(#color-4)" stroke-width="1.5" stroke-linecap="round"/><path d="M281.11856,164.02469l17.08936,-18.56998c0,0 5.74043,-3.16066 -5.32932,-10.7562c-12.45443,-7.87931 -11.78079,-1.04488 -11.78079,-1.04488l-6.1352,25.67483z" fill="url(#color-5)" stroke="url(#color-6)" stroke-width="1.5" stroke-linecap="round"/><path d="M260.63638,163.27656l-17.08935,-18.56997c0,0 -5.74043,-3.16066 5.32932,-10.7562c12.45444,-7.87931 11.78079,-1.04488 11.78079,-1.04488l6.1352,25.67485z" data-paper-data="{&quot;index&quot;:null}" fill="url(#color-7)" stroke="url(#color-8)" stroke-width="1.5" stroke-linecap="round"/></g></g></svg>