<svg version="1.1" xmlns="http://www.w3.org/2000/svg" xmlns:xlink="http://www.w3.org/1999/xlink" width="62.44658" height="60.26072" viewBox="0,0,62.44658,60.26072"><defs><linearGradient x1="271.06156" y1="121.10233" x2="271.06156" y2="179.86303" gradientUnits="userSpaceOnUse" id="color-1"><stop offset="0" stop-color="#81704a"/><stop offset="1" stop-color="#54472c"/></linearGradient><linearGradient x1="270.89207" y1="167.57146" x2="270.89207" y2="180.14317" gradientUnits="userSpaceOnUse" id="color-2"><stop offset="0" stop-color="#8d7134"/><stop offset="1" stop-color="#5b4d28"/></linearGradient><linearGradient x1="248.83698" y1="144.98944" x2="269.18307" y2="144.98944" gradientUnits="userSpaceOnUse" id="color-3"><stop offset="0" stop-color="#99804e"/><stop offset="1" stop-color="#ffcb5b"/></linearGradient><radialGradient cx="259.01002" cy="144.98944" r="17.32168" gradientUnits="userSpaceOnUse" id="color-4"><stop offset="0" stop-color="#ffd883" stop-opacity="0"/><stop offset="1" stop-color="#ffd883"/></radialGradient><radialGradient cx="289.0113" cy="130.20442" r="11.13536" gradientUnits="userSpaceOnUse" id="color-5"><stop offset="0" stop-color="#ffd883" stop-opacity="0"/><stop offset="1" stop-color="#ffd883"/></radialGradient><radialGradient cx="269.95502" cy="144.629" r="8.66666" gradientUnits="userSpaceOnUse" id="color-6"><stop offset="0" stop-color="#ffffff"/><stop offset="1" stop-color="#ffffff" stop-opacity="0"/></radialGradient><radialGradient cx="272.3884" cy="144.12928" r="12.56636" gradientUnits="userSpaceOnUse" id="color-7"><stop offset="0" stop-color="#ffffff"/><stop offset="1" stop-color="#ffffff" stop-opacity="0"/></radialGradient><radialGradient cx="271.25524" cy="143.57429" r="20.36572" gradientUnits="userSpaceOnUse" id="color-8"><stop offset="0" stop-color="#ffffff"/><stop offset="1" stop-color="#ffffff" stop-opacity="0"/></radialGradient><radialGradient cx="272.11645" cy="142.93579" r="25.78195" gradientUnits="userSpaceOnUse" id="color-9"><stop offset="0" stop-color="#ffffff"/><stop offset="1" stop-color="#ffffff" stop-opacity="0"/></radialGradient><radialGradient cx="271.17725" cy="144.629" r="8.66666" gradientUnits="userSpaceOnUse" id="color-10"><stop offset="0" stop-color="#ffffff"/><stop offset="1" stop-color="#ffffff" stop-opacity="0"/></radialGradient><radialGradient cx="273.61064" cy="144.12928" r="12.56636" gradientUnits="userSpaceOnUse" id="color-11"><stop offset="0" stop-color="#ffffff"/><stop offset="1" stop-color="#ffffff" stop-opacity="0"/></radialGradient><radialGradient cx="272.47746" cy="143.57429" r="20.36572" gradientUnits="userSpaceOnUse" id="color-12"><stop offset="0" stop-color="#ffffff"/><stop offset="1" stop-color="#ffffff" stop-opacity="0"/></radialGradient><radialGradient cx="273.33867" cy="142.93579" r="25.78195" gradientUnits="userSpaceOnUse" id="color-13"><stop offset="0" stop-color="#ffd883"/><stop offset="1" stop-color="#ffd883" stop-opacity="0"/></radialGradient><radialGradient cx="272.06613" cy="144.629" r="8.66666" gradientUnits="userSpaceOnUse" id="color-14"><stop offset="0" stop-color="#ffffff"/><stop offset="1" stop-color="#ffffff" stop-opacity="0"/></radialGradient><radialGradient cx="274.49951" cy="144.12928" r="12.56636" gradientUnits="userSpaceOnUse" id="color-15"><stop offset="0" stop-color="#ffffff"/><stop offset="1" stop-color="#ffffff" stop-opacity="0"/></radialGradient><radialGradient cx="273.36635" cy="143.57429" r="20.36572" gradientUnits="userSpaceOnUse" id="color-16"><stop offset="0" stop-color="#ffffff"/><stop offset="1" stop-color="#ffffff" stop-opacity="0"/></radialGradient><radialGradient cx="274.22756" cy="142.93579" r="25.78195" gradientUnits="userSpaceOnUse" id="color-17"><stop offset="0" stop-color="#ffffff"/><stop offset="1" stop-color="#ffffff" stop-opacity="0"/></radialGradient></defs><g transform="translate(-239.79678,-120.3523)"><g data-paper-data="{&quot;isPaintingLayer&quot;:true}" fill-rule="nonzero" stroke-linejoin="miter" stroke-miterlimit="10" stroke-dasharray="" stroke-dashoffset="0" style="mix-blend-mode: normal"><path d="M240.54679,179.86303v-58.76072h60.94658v58.76072z" fill="url(#color-1)" stroke="#543f10" stroke-width="1.5" stroke-linecap="butt"/><path d="M239.96362,180.14317v-12.57143c0,0 9.2599,0 15.94982,0c11.34971,0 45.90733,0 45.90733,0v12.57143z" fill="url(#color-2)" stroke="none" stroke-width="0" stroke-linecap="butt"/><path d="M268.77065,162.31116l-11.82274,-10.31053h-8.11094v-11.27283h7.42358l12.92252,-13.05999c0,0 0.96949,11.78514 0.89995,17.62672c-0.06789,5.70288 -1.31236,17.01663 -1.31236,17.01663z" fill="url(#color-3)" stroke="url(#color-4)" stroke-width="1.5" stroke-linecap="round"/><path d="M277.87594,130.20442" fill="none" stroke="url(#color-5)" stroke-width="1.5" stroke-linecap="round"/><path d="M271.95502,138.18455c0,0 4.49075,2.12969 4.44444,7.44445c-0.0476,5.46273 -4.33333,6.77777 -4.33333,6.77777" fill="none" stroke="url(#color-6)" stroke-width="2.5" stroke-linecap="round"/><path d="M275.28836,134.78507c0,0 6.51144,3.08799 6.44428,10.79418c-0.06902,7.92076 -6.28318,9.82753 -6.28318,9.82753" fill="none" stroke="url(#color-7)" stroke-width="2" stroke-linecap="round"/><path d="M275.95502,128.43052c0,0 10.55279,5.00456 10.44396,17.49364c-0.11186,12.83682 -10.18286,15.92704 -10.18286,15.92704" fill="none" stroke="url(#color-8)" stroke-width="1.5" stroke-linecap="round"/><path d="M278.06613,123.76459c0,0 13.35929,6.3355 13.22152,22.14604c-0.14161,16.25075 -12.89099,20.16281 -12.89099,20.16281" fill="none" stroke="url(#color-9)" stroke-width="1" stroke-linecap="round"/><path d="M273.17725,138.18455c0,0 4.49075,2.12969 4.44444,7.44445c-0.0476,5.46273 -4.33333,6.77777 -4.33333,6.77777" fill="none" stroke="url(#color-10)" stroke-width="2.5" stroke-linecap="round"/><path d="M276.51058,134.78507c0,0 6.51144,3.08799 6.44428,10.79418c-0.06902,7.92076 -6.28318,9.82753 -6.28318,9.82753" fill="none" stroke="url(#color-11)" stroke-width="2" stroke-linecap="round"/><path d="M277.17725,128.43052c0,0 10.55279,5.00456 10.44396,17.49364c-0.11186,12.83682 -10.18286,15.92704 -10.18286,15.92704" fill="none" stroke="url(#color-12)" stroke-width="1.5" stroke-linecap="round"/><path d="M279.28836,123.76459c0,0 13.35929,6.3355 13.22152,22.14604c-0.14161,16.25075 -12.89099,20.16281 -12.89099,20.16281" fill="none" stroke="url(#color-13)" stroke-width="1" stroke-linecap="round"/><path d="M274.06613,138.18455c0,0 4.49075,2.12969 4.44444,7.44445c-0.0476,5.46273 -4.33333,6.77777 -4.33333,6.77777" fill="none" stroke="url(#color-14)" stroke-width="2.5" stroke-linecap="round"/><path d="M277.39947,134.78507c0,0 6.51144,3.08799 6.44428,10.79418c-0.06902,7.92076 -6.28318,9.82753 -6.28318,9.82753" fill="none" stroke="url(#color-15)" stroke-width="2" stroke-linecap="round"/><path d="M278.06613,128.43052c0,0 10.55279,5.00456 10.44396,17.49364c-0.11186,12.83682 -10.18286,15.92704 -10.18286,15.92704" fill="none" stroke="url(#color-16)" stroke-width="1.5" stroke-linecap="round"/><path d="M280.17725,123.76459c0,0 13.35929,6.3355 13.22152,22.14604c-0.14161,16.25075 -12.89099,20.16281 -12.89099,20.16281" fill="none" stroke="url(#color-17)" stroke-width="1" stroke-linecap="round"/></g></g></svg>