<svg version="1.1" xmlns="http://www.w3.org/2000/svg" xmlns:xlink="http://www.w3.org/1999/xlink" width="240.75" height="165.75" viewBox="0,0,240.75,165.75"><defs><linearGradient x1="120" y1="97.5" x2="120" y2="262.5" gradientUnits="userSpaceOnUse" id="color-1"><stop offset="0" stop-color="#5a950d"/><stop offset="1" stop-color="#203504"/></linearGradient></defs><g transform="translate(-119.625,-97.125)"><g data-paper-data="{&quot;isPaintingLayer&quot;:true}" fill-rule="nonzero" stroke-linejoin="miter" stroke-miterlimit="10" stroke-dasharray="" stroke-dashoffset="0" style="mix-blend-mode: normal"><path d="M120,262.5v-165h240v165z" fill="url(#color-1)" stroke="none" stroke-width="1" stroke-linecap="butt"/><path d="M120,97.5h240" fill="#000000" stroke-opacity="0.5" stroke="#ffffff" stroke-width="0.75" stroke-linecap="butt"/><path d="M120,112.5h240" fill="#000000" stroke-opacity="0.5" stroke="#ffffff" stroke-width="0.75" stroke-linecap="butt"/><path d="M120,127.5h240" fill="#000000" stroke-opacity="0.5" stroke="#ffffff" stroke-width="0.75" stroke-linecap="butt"/><path d="M120,142.5h240" fill="#000000" stroke-opacity="0.5" stroke="#ffffff" stroke-width="0.75" stroke-linecap="butt"/><path d="M120,157.5h240" fill="#000000" stroke-opacity="0.5" stroke="#ffffff" stroke-width="0.75" stroke-linecap="butt"/><path d="M120,172.5h240" fill="#000000" stroke-opacity="0.5" stroke="#ffffff" stroke-width="0.75" stroke-linecap="butt"/><path d="M120,187.5h240" fill="#000000" stroke-opacity="0.5" stroke="#ffffff" stroke-width="0.75" stroke-linecap="butt"/><path d="M120,202.5h240" fill="#000000" stroke-opacity="0.5" stroke="#ffffff" stroke-width="0.75" stroke-linecap="butt"/><path d="M120,217.5h240" fill="#000000" stroke-opacity="0.5" stroke="#ffffff" stroke-width="0.75" stroke-linecap="butt"/><path d="M120,232.5h240" fill="#000000" stroke-opacity="0.5" stroke="#ffffff" stroke-width="0.75" stroke-linecap="butt"/><path d="M120,247.5h240" fill="#000000" stroke-opacity="0.5" stroke="#ffffff" stroke-width="0.75" stroke-linecap="butt"/><path d="M120,262.5h240" fill="#000000" stroke-opacity="0.5" stroke="#ffffff" stroke-width="0.75" stroke-linecap="butt"/><path d="M120,97.5v165" fill="#000000" stroke-opacity="0.5" stroke="#ffffff" stroke-width="0.75" stroke-linecap="butt"/><path d="M135,97.5v165" fill="#000000" stroke-opacity="0.5" stroke="#ffffff" stroke-width="0.75" stroke-linecap="butt"/><path d="M150,97.5v165" fill="#000000" stroke-opacity="0.5" stroke="#ffffff" stroke-width="0.75" stroke-linecap="butt"/><path d="M165,97.5v165" fill="#000000" stroke-opacity="0.5" stroke="#ffffff" stroke-width="0.75" stroke-linecap="butt"/><path d="M180,97.5v165" fill="#000000" stroke-opacity="0.5" stroke="#ffffff" stroke-width="0.75" stroke-linecap="butt"/><path d="M195,97.5v165" fill="#000000" stroke-opacity="0.5" stroke="#ffffff" stroke-width="0.75" stroke-linecap="butt"/><path d="M210,97.5v165" fill="#000000" stroke-opacity="0.5" stroke="#ffffff" stroke-width="0.75" stroke-linecap="butt"/><path d="M225,97.5v165" fill="#000000" stroke-opacity="0.5" stroke="#ffffff" stroke-width="0.75" stroke-linecap="butt"/><path d="M240,97.5v165" fill="#000000" stroke-opacity="0.5" stroke="#ffffff" stroke-width="0.75" stroke-linecap="butt"/><path d="M255,97.5v165" fill="#000000" stroke-opacity="0.5" stroke="#ffffff" stroke-width="0.75" stroke-linecap="butt"/><path d="M270,97.5v165" fill="#000000" stroke-opacity="0.5" stroke="#ffffff" stroke-width="0.75" stroke-linecap="butt"/><path d="M285,97.5v165" fill="#000000" stroke-opacity="0.5" stroke="#ffffff" stroke-width="0.75" stroke-linecap="butt"/><path d="M300,97.5v165" fill="#000000" stroke-opacity="0.5" stroke="#ffffff" stroke-width="0.75" stroke-linecap="butt"/><path d="M315,97.5v165" fill="#000000" stroke-opacity="0.5" stroke="#ffffff" stroke-width="0.75" stroke-linecap="butt"/><path d="M330,97.5v165" fill="#000000" stroke-opacity="0.5" stroke="#ffffff" stroke-width="0.75" stroke-linecap="butt"/><path d="M345,97.5v165" fill="#000000" stroke-opacity="0.5" stroke="#ffffff" stroke-width="0.75" stroke-linecap="butt"/><path d="M360,97.5v165" fill="#000000" stroke-opacity="0.5" stroke="#ffffff" stroke-width="0.75" stroke-linecap="butt"/><path d="M157.5,225h165" fill="#000000" stroke-opacity="0.5" stroke="#a3ff33" stroke-width="14.25" stroke-linecap="round"/><path d="M187.5,180h105" fill="#000000" stroke-opacity="0.5" stroke="#a3ff33" stroke-width="14.25" stroke-linecap="round"/><path d="M217.5,135h45" fill="#000000" stroke-opacity="0.5" stroke="#a3ff33" stroke-width="14.25" stroke-linecap="round"/><path d="M157.5,255v-30" fill="#000000" stroke-opacity="0.5" stroke="#a3ff33" stroke-width="14.25" stroke-linecap="round"/><path d="M322.5,255v-30" fill="#000000" stroke-opacity="0.5" stroke="#a3ff33" stroke-width="14.25" stroke-linecap="round"/><path d="M187.5,225v-45" fill="#000000" stroke-opacity="0.5" stroke="#a3ff33" stroke-width="14.25" stroke-linecap="round"/><path d="M292.5,225v-45" fill="#000000" stroke-opacity="0.5" stroke="#a3ff33" stroke-width="14.25" stroke-linecap="round"/><path d="M217.5,180v-45" fill="#000000" stroke-opacity="0.5" stroke="#a3ff33" stroke-width="14.25" stroke-linecap="round"/><path d="M262.5,180v-45" fill="#000000" stroke-opacity="0.5" stroke="#a3ff33" stroke-width="14.25" stroke-linecap="round"/><path d="M187.5,150v-30" fill="#000000" stroke-opacity="0.5" stroke="#a3ff33" stroke-width="14.25" stroke-linecap="round"/><path d="M292.5,150v-30" fill="#000000" stroke-opacity="0.5" stroke="#a3ff33" stroke-width="14.25" stroke-linecap="round"/><path d="M157.5,225h165" fill="#000000" stroke="#2d456f" stroke-width="9.75" stroke-linecap="round"/><path d="M187.5,180h105" fill="#000000" stroke="#2d456f" stroke-width="9.75" stroke-linecap="round"/><path d="M217.5,135h45" fill="#000000" stroke="#2d456f" stroke-width="9.75" stroke-linecap="round"/><path d="M157.5,255v-30" fill="#000000" stroke="#2d456f" stroke-width="9.75" stroke-linecap="round"/><path d="M322.5,255v-30" fill="#000000" stroke="#2d456f" stroke-width="9.75" stroke-linecap="round"/><path d="M187.5,225v-45" fill="#000000" stroke="#2d456f" stroke-width="9.75" stroke-linecap="round"/><path d="M292.5,225v-45" fill="#000000" stroke="#2d456f" stroke-width="9.75" stroke-linecap="round"/><path d="M217.5,180v-45" fill="#000000" stroke="#2d456f" stroke-width="9.75" stroke-linecap="round"/><path d="M262.5,180v-45" fill="#000000" stroke="#2d456f" stroke-width="9.75" stroke-linecap="round"/><path d="M187.5,150v-30" fill="#000000" stroke="#2d456f" stroke-width="9.75" stroke-linecap="round"/><path d="M292.5,150v-30" fill="#000000" stroke="#2d456f" stroke-width="9.75" stroke-linecap="round"/><path d="M142.5,262.5c-4.14214,0 -7.5,-3.35786 -7.5,-7.5v-45c0,-4.14214 3.35786,-7.5 7.5,-7.5v0c4.14214,0 7.5,3.35786 7.5,7.5v45c0,4.14214 -3.35786,7.5 -7.5,7.5z" fill="#bcd5e0" stroke="none" stroke-width="1" stroke-linecap="butt"/><path d="M142.5,217.5c-4.14214,0 -7.5,-3.35786 -7.5,-7.5v0c0,-4.14214 3.35786,-7.5 7.5,-7.5h30c4.14214,0 7.5,3.35786 7.5,7.5v0c0,4.14214 -3.35786,7.5 -7.5,7.5z" fill="#bcd5e0" stroke="none" stroke-width="1" stroke-linecap="butt"/><path d="M172.5,217.5c-4.14214,0 -7.5,-3.35786 -7.5,-7.5v-45c0,-4.14214 3.35786,-7.5 7.5,-7.5v0c4.14214,0 7.5,3.35786 7.5,7.5v45c0,4.14214 -3.35786,7.5 -7.5,7.5z" fill="#bcd5e0" stroke="none" stroke-width="1" stroke-linecap="butt"/><path d="M172.5,172.5c-4.14214,0 -7.5,-3.35786 -7.5,-7.5v0c0,-4.14214 3.35786,-7.5 7.5,-7.5h30c4.14214,0 7.5,3.35786 7.5,7.5v0c0,4.14214 -3.35786,7.5 -7.5,7.5z" fill="#bcd5e0" stroke="none" stroke-width="1" stroke-linecap="butt"/><path d="M202.5,172.5c-4.14214,0 -7.5,-3.35786 -7.5,-7.5v-45c0,-4.14214 3.35786,-7.5 7.5,-7.5v0c4.14214,0 7.5,3.35786 7.5,7.5v45c0,4.14214 -3.35786,7.5 -7.5,7.5z" fill="#bcd5e0" stroke="none" stroke-width="1" stroke-linecap="butt"/><path d="M202.5,127.5c-4.14214,0 -7.5,-3.35786 -7.5,-7.5v0c0,-4.14214 3.35786,-7.5 7.5,-7.5h75c4.14214,0 7.5,3.35786 7.5,7.5v0c0,4.14214 -3.35786,7.5 -7.5,7.5z" fill="#bcd5e0" stroke="none" stroke-width="1" stroke-linecap="butt"/><path d="M277.5,172.5c-4.14214,0 -7.5,-3.35786 -7.5,-7.5v-45c0,-4.14214 3.35786,-7.5 7.5,-7.5v0c4.14214,0 7.5,3.35786 7.5,7.5v45c0,4.14214 -3.35786,7.5 -7.5,7.5z" fill="#bcd5e0" stroke="none" stroke-width="1" stroke-linecap="butt"/><path d="M277.5,172.5c-4.14214,0 -7.5,-3.35786 -7.5,-7.5v0c0,-4.14214 3.35786,-7.5 7.5,-7.5h30c4.14214,0 7.5,3.35786 7.5,7.5v0c0,4.14214 -3.35786,7.5 -7.5,7.5z" fill="#bcd5e0" stroke="none" stroke-width="1" stroke-linecap="butt"/><path d="M307.5,217.5c-4.14214,0 -7.5,-3.35786 -7.5,-7.5v-45c0,-4.14214 3.35786,-7.5 7.5,-7.5v0c4.14214,0 7.5,3.35786 7.5,7.5v45c0,4.14214 -3.35786,7.5 -7.5,7.5z" fill="#bcd5e0" stroke="none" stroke-width="1" stroke-linecap="butt"/><path d="M307.5,217.5c-4.14214,0 -7.5,-3.35786 -7.5,-7.5v0c0,-4.14214 3.35786,-7.5 7.5,-7.5h30c4.14214,0 7.5,3.35786 7.5,7.5v0c0,4.14214 -3.35786,7.5 -7.5,7.5z" fill="#bcd5e0" stroke="none" stroke-width="1" stroke-linecap="butt"/><path d="M337.5,262.5c-4.14214,0 -7.5,-3.35786 -7.5,-7.5v-45c0,-4.14214 3.35786,-7.5 7.5,-7.5v0c4.14214,0 7.5,3.35786 7.5,7.5v45c0,4.14214 -3.35786,7.5 -7.5,7.5z" fill="#bcd5e0" stroke="none" stroke-width="1" stroke-linecap="butt"/><path d="M142.5,255v-45" fill="#000000" stroke="#213a34" stroke-width="11.25" stroke-linecap="round"/><path d="M142.5,210h30" fill="#000000" stroke="#213a34" stroke-width="11.25" stroke-linecap="round"/><path d="M172.5,210v-45" fill="#000000" stroke="#213a34" stroke-width="11.25" stroke-linecap="round"/><path d="M172.5,165h30" fill="#000000" stroke="#213a34" stroke-width="11.25" stroke-linecap="round"/><path d="M202.5,165v-45" fill="#000000" stroke="#213a34" stroke-width="11.25" stroke-linecap="round"/><path d="M202.5,120h75" fill="#000000" stroke="#213a34" stroke-width="11.25" stroke-linecap="round"/><path d="M277.5,120v45" fill="#000000" stroke="#213a34" stroke-width="11.25" stroke-linecap="round"/><path d="M277.5,165h30" fill="#000000" stroke="#213a34" stroke-width="11.25" stroke-linecap="round"/><path d="M307.5,165v45" fill="#000000" stroke="#213a34" stroke-width="11.25" stroke-linecap="round"/><path d="M307.5,210h30" fill="#000000" stroke="#213a34" stroke-width="11.25" stroke-linecap="round"/><path d="M337.5,210v45" fill="#000000" stroke="#213a34" stroke-width="11.25" stroke-linecap="round"/><path d="M166.5,210c0,-3.31371 2.68629,-6 6,-6c3.31371,0 6,2.68629 6,6c0,3.31371 -2.68629,6 -6,6c-3.31371,0 -6,-2.68629 -6,-6z" fill="#676018" stroke="none" stroke-width="1" stroke-linecap="butt"/><path d="M166.5,202.5c0,-3.31371 2.68629,-6 6,-6c3.31371,0 6,2.68629 6,6c0,3.31371 -2.68629,6 -6,6c-3.31371,0 -6,-2.68629 -6,-6z" fill="#948922" stroke="none" stroke-width="1" stroke-linecap="butt"/><path d="M166.5,195c0,-3.31371 2.68629,-6 6,-6c3.31371,0 6,2.68629 6,6c0,3.31371 -2.68629,6 -6,6c-3.31371,0 -6,-2.68629 -6,-6z" fill="#676018" stroke="none" stroke-width="1" stroke-linecap="butt"/><path d="M166.5,187.5c0,-3.31371 2.68629,-6 6,-6c3.31371,0 6,2.68629 6,6c0,3.31371 -2.68629,6 -6,6c-3.31371,0 -6,-2.68629 -6,-6z" fill="#948922" stroke="none" stroke-width="1" stroke-linecap="butt"/><path d="M166.5,180c0,-3.31371 2.68629,-6 6,-6c3.31371,0 6,2.68629 6,6c0,3.31371 -2.68629,6 -6,6c-3.31371,0 -6,-2.68629 -6,-6z" fill="#676018" stroke="none" stroke-width="1" stroke-linecap="butt"/><path d="M166.5,172.5c0,-3.31371 2.68629,-6 6,-6c3.31371,0 6,2.68629 6,6c0,3.31371 -2.68629,6 -6,6c-3.31371,0 -6,-2.68629 -6,-6z" fill="#948922" stroke="none" stroke-width="1" stroke-linecap="butt"/><path d="M166.5,165c0,-3.31371 2.68629,-6 6,-6c3.31371,0 6,2.68629 6,6c0,3.31371 -2.68629,6 -6,6c-3.31371,0 -6,-2.68629 -6,-6z" fill="#676018" stroke="none" stroke-width="1" stroke-linecap="butt"/><path d="M196.5,165c0,-3.31371 2.68629,-6 6,-6c3.31371,0 6,2.68629 6,6c0,3.31371 -2.68629,6 -6,6c-3.31371,0 -6,-2.68629 -6,-6z" fill="#676018" stroke="none" stroke-width="1" stroke-linecap="butt"/><path d="M196.5,157.5c0,-3.31371 2.68629,-6 6,-6c3.31371,0 6,2.68629 6,6c0,3.31371 -2.68629,6 -6,6c-3.31371,0 -6,-2.68629 -6,-6z" fill="#948922" stroke="none" stroke-width="1" stroke-linecap="butt"/><path d="M196.5,150c0,-3.31371 2.68629,-6 6,-6c3.31371,0 6,2.68629 6,6c0,3.31371 -2.68629,6 -6,6c-3.31371,0 -6,-2.68629 -6,-6z" fill="#676018" stroke="none" stroke-width="1" stroke-linecap="butt"/><path d="M196.5,142.5c0,-3.31371 2.68629,-6 6,-6c3.31371,0 6,2.68629 6,6c0,3.31371 -2.68629,6 -6,6c-3.31371,0 -6,-2.68629 -6,-6z" fill="#948922" stroke="none" stroke-width="1" stroke-linecap="butt"/><path d="M196.5,135c0,-3.31371 2.68629,-6 6,-6c3.31371,0 6,2.68629 6,6c0,3.31371 -2.68629,6 -6,6c-3.31371,0 -6,-2.68629 -6,-6z" fill="#676018" stroke="none" stroke-width="1" stroke-linecap="butt"/><path d="M196.5,127.5c0,-3.31371 2.68629,-6 6,-6c3.31371,0 6,2.68629 6,6c0,3.31371 -2.68629,6 -6,6c-3.31371,0 -6,-2.68629 -6,-6z" fill="#948922" stroke="none" stroke-width="1" stroke-linecap="butt"/><path d="M196.5,120c0,-3.31371 2.68629,-6 6,-6c3.31371,0 6,2.68629 6,6c0,3.31371 -2.68629,6 -6,6c-3.31371,0 -6,-2.68629 -6,-6z" fill="#676018" stroke="none" stroke-width="1" stroke-linecap="butt"/><path d="M271.5,165c0,-3.31371 2.68629,-6 6,-6c3.31371,0 6,2.68629 6,6c0,3.31371 -2.68629,6 -6,6c-3.31371,0 -6,-2.68629 -6,-6z" fill="#3f6718" stroke="none" stroke-width="1" stroke-linecap="butt"/><path d="M271.5,157.5c0,-3.31371 2.68629,-6 6,-6c3.31371,0 6,2.68629 6,6c0,3.31371 -2.68629,6 -6,6c-3.31371,0 -6,-2.68629 -6,-6z" fill="#5a9622" stroke="none" stroke-width="1" stroke-linecap="butt"/><path d="M271.5,150c0,-3.31371 2.68629,-6 6,-6c3.31371,0 6,2.68629 6,6c0,3.31371 -2.68629,6 -6,6c-3.31371,0 -6,-2.68629 -6,-6z" fill="#3f6718" stroke="none" stroke-width="1" stroke-linecap="butt"/><path d="M271.5,142.5c0,-3.31371 2.68629,-6 6,-6c3.31371,0 6,2.68629 6,6c0,3.31371 -2.68629,6 -6,6c-3.31371,0 -6,-2.68629 -6,-6z" fill="#5a9622" stroke="none" stroke-width="1" stroke-linecap="butt"/><path d="M271.5,135c0,-3.31371 2.68629,-6 6,-6c3.31371,0 6,2.68629 6,6c0,3.31371 -2.68629,6 -6,6c-3.31371,0 -6,-2.68629 -6,-6z" fill="#3f6718" stroke="none" stroke-width="1" stroke-linecap="butt"/><path d="M271.5,127.5c0,-3.31371 2.68629,-6 6,-6c3.31371,0 6,2.68629 6,6c0,3.31371 -2.68629,6 -6,6c-3.31371,0 -6,-2.68629 -6,-6z" fill="#5a9622" stroke="none" stroke-width="1" stroke-linecap="butt"/><path d="M271.5,120c0,-3.31371 2.68629,-6 6,-6c3.31371,0 6,2.68629 6,6c0,3.31371 -2.68629,6 -6,6c-3.31371,0 -6,-2.68629 -6,-6z" fill="#3f6718" stroke="none" stroke-width="1" stroke-linecap="butt"/><path d="M301.5,210c0,-3.31371 2.68629,-6 6,-6c3.31371,0 6,2.68629 6,6c0,3.31371 -2.68629,6 -6,6c-3.31371,0 -6,-2.68629 -6,-6z" fill="#3f6718" stroke="none" stroke-width="1" stroke-linecap="butt"/><path d="M301.5,202.5c0,-3.31371 2.68629,-6 6,-6c3.31371,0 6,2.68629 6,6c0,3.31371 -2.68629,6 -6,6c-3.31371,0 -6,-2.68629 -6,-6z" fill="#5a9622" stroke="none" stroke-width="1" stroke-linecap="butt"/><path d="M301.5,195c0,-3.31371 2.68629,-6 6,-6c3.31371,0 6,2.68629 6,6c0,3.31371 -2.68629,6 -6,6c-3.31371,0 -6,-2.68629 -6,-6z" fill="#3f6718" stroke="none" stroke-width="1" stroke-linecap="butt"/><path d="M301.5,187.5c0,-3.31371 2.68629,-6 6,-6c3.31371,0 6,2.68629 6,6c0,3.31371 -2.68629,6 -6,6c-3.31371,0 -6,-2.68629 -6,-6z" fill="#5a9622" stroke="none" stroke-width="1" stroke-linecap="butt"/><path d="M301.5,180c0,-3.31371 2.68629,-6 6,-6c3.31371,0 6,2.68629 6,6c0,3.31371 -2.68629,6 -6,6c-3.31371,0 -6,-2.68629 -6,-6z" fill="#3f6718" stroke="none" stroke-width="1" stroke-linecap="butt"/><path d="M301.5,172.5c0,-3.31371 2.68629,-6 6,-6c3.31371,0 6,2.68629 6,6c0,3.31371 -2.68629,6 -6,6c-3.31371,0 -6,-2.68629 -6,-6z" fill="#5a9622" stroke="none" stroke-width="1" stroke-linecap="butt"/><path d="M301.5,165c0,-3.31371 2.68629,-6 6,-6c3.31371,0 6,2.68629 6,6c0,3.31371 -2.68629,6 -6,6c-3.31371,0 -6,-2.68629 -6,-6z" fill="#3f6718" stroke="none" stroke-width="1" stroke-linecap="butt"/><path d="M135,255c0,-4.14214 3.35786,-7.5 7.5,-7.5c4.14214,0 7.5,3.35786 7.5,7.5c0,4.14214 -3.35786,7.5 -7.5,7.5c-4.14214,0 -7.5,-3.35786 -7.5,-7.5z" fill-opacity="0.35" fill="#00ff44" stroke="none" stroke-width="1" stroke-linecap="butt"/><path d="M330,255c0,-4.14214 3.35786,-7.5 7.5,-7.5c4.14214,0 7.5,3.35786 7.5,7.5c0,4.14214 -3.35786,7.5 -7.5,7.5c-4.14214,0 -7.5,-3.35786 -7.5,-7.5z" fill-opacity="0.35" fill="#ff0404" stroke="none" stroke-width="1" stroke-linecap="butt"/></g></g></svg>