<svg version="1.1" xmlns="http://www.w3.org/2000/svg" xmlns:xlink="http://www.w3.org/1999/xlink" width="62.36325" height="60.26072" viewBox="0,0,62.36325,60.26072"><defs><linearGradient x1="271.07667" y1="121.01124" x2="271.07667" y2="179.77196" gradientUnits="userSpaceOnUse" id="color-1"><stop offset="0" stop-color="#005761"/><stop offset="1" stop-color="#223f47"/></linearGradient><linearGradient x1="270.69138" y1="159.93714" x2="270.69138" y2="167.9158" gradientUnits="userSpaceOnUse" id="color-2"><stop offset="0" stop-color="#0b1228"/><stop offset="1" stop-color="#0b1228" stop-opacity="0"/></linearGradient><linearGradient x1="270.892" y1="167.57145" x2="270.892" y2="180.14298" gradientUnits="userSpaceOnUse" id="color-3"><stop offset="0" stop-color="#20a3ab"/><stop offset="1" stop-color="#15696d"/></linearGradient><linearGradient x1="261.4026" y1="143.41257" x2="262.66484" y2="155.56418" gradientUnits="userSpaceOnUse" id="color-4"><stop offset="0" stop-color="#00d0ff"/><stop offset="1" stop-color="#008aa9"/></linearGradient><linearGradient x1="258.6808" y1="143.47671" x2="259.87046" y2="153.60009" gradientUnits="userSpaceOnUse" id="color-5"><stop offset="0" stop-color="#00f7ff"/><stop offset="1" stop-color="#cecece"/></linearGradient><radialGradient cx="249.66999" cy="155.60288" r="9.41666" gradientUnits="userSpaceOnUse" id="color-6"><stop offset="0" stop-color="#9ee7ff"/><stop offset="1" stop-color="#34fff5"/></radialGradient><linearGradient x1="278.35094" y1="123.79826" x2="278.35094" y2="146.41224" gradientUnits="userSpaceOnUse" id="color-7"><stop offset="0" stop-color="#d4feff"/><stop offset="1" stop-color="#d4feff" stop-opacity="0"/></linearGradient><linearGradient x1="287.8685" y1="124.02048" x2="287.8685" y2="146.63446" gradientUnits="userSpaceOnUse" id="color-8"><stop offset="0" stop-color="#d4feff"/><stop offset="1" stop-color="#d4feff" stop-opacity="0"/></linearGradient><radialGradient cx="276.00489" cy="138.25699" r="12" gradientUnits="userSpaceOnUse" id="color-9"><stop offset="0" stop-color="#70dbfc"/><stop offset="1" stop-color="#70dbfc" stop-opacity="0"/></radialGradient></defs><g transform="translate(-239.89509,-120.26123)"><g data-paper-data="{&quot;isPaintingLayer&quot;:true}" stroke-linejoin="miter" stroke-miterlimit="10" stroke-dasharray="" stroke-dashoffset="0" style="mix-blend-mode: normal"><path d="M240.64509,179.77196v-58.76072h60.86325v58.76072z" fill="url(#color-1)" fill-rule="nonzero" stroke="#166f73" stroke-width="1.5" stroke-linecap="butt"/><g fill-rule="nonzero"><path d="M300.38533,159.79046h-59.38095" fill="none" stroke="#87eaff" stroke-width="0.5" stroke-linecap="round"/><path d="M240.80771,167.9158v-7.97865h59.76739v7.97865z" data-paper-data="{&quot;index&quot;:null}" fill="url(#color-2)" stroke="none" stroke-width="0" stroke-linecap="butt"/><path d="M240.90912,167.34274h59.42857" fill="none" stroke="#87eaff" stroke-width="0.5" stroke-linecap="round"/></g><path d="M239.96343,180.14298v-12.57143h61.85715v12.57143z" fill="url(#color-3)" fill-rule="nonzero" stroke="none" stroke-width="0" stroke-linecap="butt"/><path d="M253.85586,156.47921c0,0 -1.42682,-0.70634 -1.74454,-1.25142c-0.32387,-0.55562 -0.18051,-2.05132 -0.18051,-2.05132l18.33016,-10.68404c0,0 1.36943,0.77314 1.67851,1.30339c0.33112,0.56805 0.24654,1.99935 0.24654,1.99935z" fill="url(#color-4)" fill-rule="nonzero" stroke="none" stroke-width="0" stroke-linecap="butt"/><path d="M252.53182,154.46248c0,0 -1.19827,-0.57322 -1.46946,-1.02438c-0.27643,-0.4599 -0.17366,-1.70929 -0.17366,-1.70929l15.17193,-9.11936c0,0 1.15116,0.62961 1.41496,1.06849c0.28262,0.47017 0.22816,1.66521 0.22816,1.66521z" fill="url(#color-5)" fill-rule="nonzero" stroke="none" stroke-width="0" stroke-linecap="butt"/><path d="M241.71048,150.4349c1.70595,-2.40584 4.78574,-4.24867 7.95951,-4.24867c5.20068,0 9.41666,4.21598 9.41666,9.41666c0,5.20068 -4.21598,9.41666 -9.41666,9.41666c-3.51408,0 -6.57858,-1.74305 -8.19666,-4.59594c-0.39025,-0.68806 -0.23989,-2.72801 -0.21726,-4.87284c0.0224,-2.12343 -0.08761,-4.35148 0.4544,-5.11586z" fill="url(#color-6)" fill-rule="nonzero" stroke="none" stroke-width="0" stroke-linecap="butt"/><path d="M280.28842,132.957c5.46524,5.10454 0.27885,9.98626 -0.47538,10.89969c-1.55905,-2.7006 -6.49678,-4.76374 -8.86456,-5.84183c-2.62647,-1.19589 6.63889,-0.04385 7.36068,-0.28584c-2.53267,-0.34445 -9.10319,-3.6151 -9.77995,-4.5111c-1.069,-1.41531 5.74478,-1.21552 6.83297,-1.25681c-5.73198,-2.49906 -9.48462,-5.22347 -8.37789,-8.16285c1.69207,1.35209 7.87547,4.08838 13.30412,9.15874z" fill="url(#color-7)" fill-rule="evenodd" stroke="none" stroke-width="1" stroke-linecap="butt"/><path d="M299.23513,124.02048c1.10673,2.93937 -2.6459,5.66378 -8.37788,8.16284c1.08819,0.04129 7.90197,-0.15849 6.83297,1.25682c-0.67676,0.896 -7.24728,4.16665 -9.77995,4.5111c0.72179,0.24199 9.98715,-0.91006 7.36068,0.28583c-2.36778,1.07809 -7.3055,3.14123 -8.86455,5.84184c-0.75423,-0.91343 -5.94062,-5.79515 -0.47538,-10.89969c5.42865,-5.07036 11.61205,-7.80666 13.30412,-9.15874z" data-paper-data="{&quot;index&quot;:null}" fill="url(#color-8)" fill-rule="evenodd" stroke="none" stroke-width="1" stroke-linecap="butt"/><path d="M264.00489,145.50699l19.1,-9.95556" fill="none" fill-rule="nonzero" stroke="url(#color-9)" stroke-width="2.5" stroke-linecap="round"/></g></g></svg>