<svg version="1.1" xmlns="http://www.w3.org/2000/svg" xmlns:xlink="http://www.w3.org/1999/xlink" width="13.20232" height="11.23187" viewBox="0,0,13.20232,11.23187"><g transform="translate(-243.70588,-167.27212)"><g data-paper-data="{&quot;isPaintingLayer&quot;:true}" fill="#ff0000" fill-rule="nonzero" stroke="none" stroke-width="0.26459" stroke-linecap="butt" stroke-linejoin="miter" stroke-miterlimit="10" stroke-dasharray="" stroke-dashoffset="0" style="mix-blend-mode: normal"><path d="M256.90815,170.5413c0,0.45263 -0.07872,0.90771 -0.23615,1.36525c-0.15251,0.45262 -0.36159,0.89786 -0.62726,1.33573c-0.26076,0.43787 -0.56332,0.86343 -0.90771,1.27669c-0.34439,0.41326 -0.70354,0.80684 -1.07745,1.18075c-0.3739,0.36898 -0.75272,0.71091 -1.13646,1.02578c-0.37883,0.31486 -0.73797,0.59529 -1.07743,0.84129c-0.33947,0.24106 -0.64449,0.44278 -0.91509,0.60513c-0.27059,0.16235 -0.48214,0.27304 -0.63466,0.33208c-0.13775,-0.05903 -0.337,-0.16971 -0.59774,-0.33208c-0.26076,-0.16235 -0.55841,-0.36652 -0.89295,-0.61251c-0.33454,-0.24599 -0.69368,-0.52642 -1.07743,-0.84129c-0.38374,-0.31979 -0.76502,-0.66418 -1.14385,-1.03316c-0.3739,-0.3739 -0.7355,-0.76749 -1.08481,-1.18075c-0.34439,-0.41819 -0.64941,-0.84621 -0.91509,-1.28407c-0.26567,-0.44278 -0.47968,-0.89293 -0.64203,-1.35047c-0.15743,-0.45754 -0.23616,-0.91263 -0.23616,-1.36524c0,-0.20663 0.02461,-0.43048 0.07383,-0.67156c0.05407,-0.24106 0.13279,-0.48213 0.23614,-0.7232c0.10824,-0.24108 0.24108,-0.47231 0.39851,-0.69369c0.16235,-0.22138 0.34931,-0.41571 0.56086,-0.58299c0.21155,-0.1722 0.44769,-0.30749 0.70845,-0.40588c0.26567,-0.10331 0.55839,-0.15497 0.87818,-0.15497c0.29027,0 0.59037,0.04427 0.90032,0.13281c0.31486,0.08368 0.63218,0.21652 0.95198,0.39851c0.31979,0.17711 0.63711,0.40095 0.95197,0.67155c0.31979,0.27059 0.62974,0.59037 0.92984,0.95935c0.26568,-0.33947 0.55595,-0.63711 0.87081,-0.89293c0.31486,-0.26076 0.63711,-0.47722 0.96674,-0.64941c0.33455,-0.17712 0.6691,-0.30995 1.00364,-0.3985c0.33455,-0.09349 0.65926,-0.14023 0.97412,-0.14023c0.3247,0 0.61988,0.05166 0.88555,0.15497c0.26568,0.0984 0.50183,0.23368 0.70846,0.40588c0.20663,0.16728 0.3862,0.36161 0.53871,0.583c0.15251,0.21647 0.27797,0.44278 0.37637,0.67893c0.0984,0.23615 0.16973,0.47231 0.21401,0.70846c0.04922,0.23614 0.07383,0.45507 0.07383,0.65678z"/></g></g></svg>