<svg width="480px" height="360px" xmlns="http://www.w3.org/2000/svg"><path fill="#F00" d="M241.959 180L241.959 167.709L243.856 167.709L243.942 169.692Q244.480 169.056 244.982 168.634Q245.484 168.211 245.968 167.954Q246.451 167.697 246.953 167.593Q247.455 167.489 247.994 167.489L247.994 167.489Q249.891 167.489 250.865 168.609Q251.838 169.729 251.838 171.982L251.838 171.982L251.838 180L249.708 180L249.708 172.153Q249.708 170.708 249.169 170.017Q248.630 169.325 247.565 169.325L247.565 169.325Q247.174 169.325 246.800 169.441Q246.427 169.558 246.023 169.845Q245.619 170.133 245.148 170.623Q244.676 171.112 244.089 171.847L244.089 171.847L244.089 180L241.959 180Z"/></svg>