<svg version="1.1" xmlns="http://www.w3.org/2000/svg" xmlns:xlink="http://www.w3.org/1999/xlink" width="77.43552" height="102.25153" viewBox="0,0,77.43552,102.25153"><defs><radialGradient cx="240" cy="180" r="40.94436" gradientUnits="userSpaceOnUse" id="color-1"><stop offset="0" stop-color="#ff0000"/><stop offset="1" stop-color="#ff0000" stop-opacity="0"/></radialGradient><radialGradient cx="233.8304" cy="155.6372" r="36.94436" gradientUnits="userSpaceOnUse" id="color-2"><stop offset="0" stop-color="#d60000"/><stop offset="1" stop-color="#d60000" stop-opacity="0"/></radialGradient><radialGradient cx="240.54581" cy="156.61483" r="31.25628" gradientUnits="userSpaceOnUse" id="color-3"><stop offset="0" stop-color="#ff1900"/><stop offset="1" stop-color="#ff1900" stop-opacity="0"/></radialGradient><radialGradient cx="240.6098" cy="166.84693" r="29.9934" gradientUnits="userSpaceOnUse" id="color-4"><stop offset="0" stop-color="#ff8800"/><stop offset="1" stop-color="#ff8800" stop-opacity="0"/></radialGradient><radialGradient cx="239.28558" cy="181.40084" r="21.6851" gradientUnits="userSpaceOnUse" id="color-5"><stop offset="0" stop-color="#ffde00"/><stop offset="1" stop-color="#ffde00" stop-opacity="0"/></radialGradient><radialGradient cx="239.52746" cy="184.03979" r="16.71146" gradientUnits="userSpaceOnUse" id="color-6"><stop offset="0" stop-color="#fffad8"/><stop offset="1" stop-color="#fffad8" stop-opacity="0"/></radialGradient></defs><g transform="translate(-196.88603,-118.69283)"><g data-paper-data="{&quot;isPaintingLayer&quot;:true}" fill-rule="nonzero" stroke="none" stroke-width="0" stroke-linecap="butt" stroke-linejoin="miter" stroke-miterlimit="10" stroke-dasharray="" stroke-dashoffset="0" style="mix-blend-mode: normal"><path d="M240,220.94436c-18.95527,0 -34.32155,-18.33141 -34.32155,-40.94436c0,-22.61295 15.36628,-40.94436 34.32155,-40.94436c18.95527,0 34.32155,18.33141 34.32155,40.94436c0,22.61295 -15.36628,40.94436 -34.32155,40.94436z" fill="url(#color-1)"/><path d="M196.88604,155.6372c0,-20.40381 16.54055,-36.94436 36.94436,-36.94436c20.40381,0 36.94436,16.54055 36.94436,36.94436c0,20.40381 -16.54055,36.94436 -36.94436,36.94436c-20.40381,0 -36.94436,-16.54055 -36.94436,-36.94436z" fill="url(#color-2)"/><path d="M209.28953,156.61483c0,-17.26236 13.99391,-31.25628 31.25628,-31.25628c17.26236,0 31.25628,13.99391 31.25628,31.25628c0,17.26236 -13.99391,31.25628 -31.25628,31.25628c-17.26236,0 -31.25628,-13.99391 -31.25628,-31.25628z" fill="url(#color-3)"/><path d="M210.6164,166.84693c0,-16.56489 13.4285,-29.9934 29.9934,-29.9934c16.56489,0 29.9934,13.4285 29.9934,29.9934c0,16.56489 -13.4285,29.9934 -29.9934,29.9934c-16.56489,0 -29.9934,-13.4285 -29.9934,-29.9934z" fill="url(#color-4)"/><path d="M217.60047,181.40084c0,-11.97635 9.70875,-21.6851 21.6851,-21.6851c11.97635,0 21.6851,9.70875 21.6851,21.6851c0,11.97635 -9.70875,21.6851 -21.6851,21.6851c-11.97635,0 -21.6851,-9.70875 -21.6851,-21.6851z" fill="url(#color-5)"/><path d="M222.81601,184.03979c0,-9.22948 7.48197,-16.71146 16.71146,-16.71146c9.22948,0 16.71146,7.48197 16.71146,16.71146c0,9.22948 -7.48197,16.71146 -16.71146,16.71146c-9.22948,0 -16.71146,-7.48197 -16.71146,-16.71146z" fill="url(#color-6)"/></g></g></svg>