<svg version="1.1" xmlns="http://www.w3.org/2000/svg" xmlns:xlink="http://www.w3.org/1999/xlink" width="62.36325" height="60.26072" viewBox="0,0,62.36325,60.26072"><defs><linearGradient x1="270.99485" y1="121.10216" x2="270.99485" y2="179.86285" gradientUnits="userSpaceOnUse" id="color-1"><stop offset="0" stop-color="#455f06"/><stop offset="1" stop-color="#233103"/></linearGradient><linearGradient x1="270.892" y1="167.57145" x2="270.892" y2="180.14299" gradientUnits="userSpaceOnUse" id="color-2"><stop offset="0" stop-color="#6b8d06"/><stop offset="1" stop-color="#324203"/></linearGradient><linearGradient x1="271.80074" y1="143.54853" x2="296.31657" y2="143.54853" gradientUnits="userSpaceOnUse" id="color-3"><stop offset="0" stop-color="#061b00"/><stop offset="1" stop-color="#254900"/></linearGradient><radialGradient cx="273.67183" cy="144.67952" r="16.28394" gradientUnits="userSpaceOnUse" id="color-4"><stop offset="0" stop-color="#1c5300"/><stop offset="1" stop-color="#0c2500"/></radialGradient><linearGradient x1="260.11991" y1="135.35934" x2="260.11991" y2="140.8769" gradientUnits="userSpaceOnUse" id="color-5"><stop offset="0" stop-color="#75ff38"/><stop offset="1" stop-color="#00b906"/></linearGradient><linearGradient x1="257.72466" y1="146.87329" x2="257.72466" y2="152.5485" gradientUnits="userSpaceOnUse" id="color-6"><stop offset="0" stop-color="#75ff38"/><stop offset="1" stop-color="#00b906"/></linearGradient><linearGradient x1="268.99037" y1="149.758" x2="268.99037" y2="158.11317" gradientUnits="userSpaceOnUse" id="color-7"><stop offset="0" stop-color="#75ff38"/><stop offset="1" stop-color="#00b906"/></linearGradient></defs><g transform="translate(-239.81327,-120.35212)"><g data-paper-data="{&quot;isPaintingLayer&quot;:true}" fill-rule="nonzero" stroke-linejoin="miter" stroke-miterlimit="10" stroke-dasharray="" stroke-dashoffset="0" style="mix-blend-mode: normal"><path d="M240.56327,179.86285v-58.76072h60.86325v58.76072z" fill="url(#color-1)" stroke="#9cbf3d" stroke-width="1.5" stroke-linecap="butt"/><path d="M239.96343,180.14299v-12.57143h61.85715v12.57143z" fill="url(#color-2)" stroke="none" stroke-width="0" stroke-linecap="butt"/><path d="M271.80074,128.66288l14.15284,-1.26598c0,0 9.06327,-1.70429 12.2118,12.89621c2.9666,16.37058 -7.60882,17.99825 -7.60882,17.99825l-16.33373,2.70882c0,0 -0.83576,-11.15817 -1.24493,-16.62099c-0.39788,-5.31206 -1.17717,-15.71631 -1.17717,-15.71631z" fill="url(#color-3)" stroke="none" stroke-width="0" stroke-linecap="round"/><path d="M285.65082,144.67952c0,8.99337 -5.36317,16.28394 -11.97899,16.28394c-6.61581,0 -11.97899,-7.29056 -11.97899,-16.28394c0,-8.99337 5.36318,-16.28394 11.97899,-16.28394c6.61581,0 11.97899,7.29057 11.97899,16.28394z" fill="url(#color-4)" stroke="none" stroke-width="0" stroke-linecap="butt"/><path d="M272.41619,136.54167l-24.59258,3.1529" fill="none" stroke="url(#color-5)" stroke-width="5" stroke-linecap="round"/><path d="M267.34099,146.87329l-19.23265,5.67521" fill="none" stroke="url(#color-6)" stroke-width="4.5" stroke-linecap="round"/><path d="M277.50318,149.758l-17.02563,8.95517" fill="none" stroke="url(#color-7)" stroke-width="5.5" stroke-linecap="round"/></g></g></svg>