<svg version="1.1" xmlns="http://www.w3.org/2000/svg" xmlns:xlink="http://www.w3.org/1999/xlink" width="62.36325" height="60.26072" viewBox="0,0,62.36325,60.26072"><defs><linearGradient x1="270.89485" y1="121.10214" x2="270.89485" y2="179.86285" gradientUnits="userSpaceOnUse" id="color-1"><stop offset="0" stop-color="#735656"/><stop offset="1" stop-color="#562828"/></linearGradient><linearGradient x1="270.892" y1="167.57146" x2="270.892" y2="180.14297" gradientUnits="userSpaceOnUse" id="color-2"><stop offset="0" stop-color="#a04848"/><stop offset="1" stop-color="#5b2929"/></linearGradient><radialGradient cx="283.56747" cy="136.93829" r="14.74171" gradientUnits="userSpaceOnUse" id="color-3"><stop offset="0" stop-color="#d60000"/><stop offset="1" stop-color="#d60000" stop-opacity="0"/></radialGradient><radialGradient cx="286.14115" cy="137.78014" r="12.47202" gradientUnits="userSpaceOnUse" id="color-4"><stop offset="0" stop-color="#ff1900"/><stop offset="1" stop-color="#ff1900" stop-opacity="0"/></radialGradient><radialGradient cx="285.46925" cy="141.80743" r="11.9681" gradientUnits="userSpaceOnUse" id="color-5"><stop offset="0" stop-color="#ff8800"/><stop offset="1" stop-color="#ff8800" stop-opacity="0"/></radialGradient><radialGradient cx="283.95714" cy="147.43932" r="8.65288" gradientUnits="userSpaceOnUse" id="color-6"><stop offset="0" stop-color="#ffde00"/><stop offset="1" stop-color="#ffde00" stop-opacity="0"/></radialGradient><radialGradient cx="283.87246" cy="148.49334" r="6.66828" gradientUnits="userSpaceOnUse" id="color-7"><stop offset="0" stop-color="#fffad8"/><stop offset="1" stop-color="#fffad8" stop-opacity="0"/></radialGradient><linearGradient x1="253.70576" y1="148.83504" x2="253.70576" y2="164.00171" gradientUnits="userSpaceOnUse" id="color-8"><stop offset="0" stop-color="#ffe8e8"/><stop offset="1" stop-color="#ff6767"/></linearGradient><linearGradient x1="247.81727" y1="156.34447" x2="247.81727" y2="166.62343" gradientUnits="userSpaceOnUse" id="color-9"><stop offset="0" stop-color="#ff8f87"/><stop offset="1" stop-color="#f64848"/></linearGradient><linearGradient x1="245.00576" y1="157.65172" x2="245.00576" y2="180.45171" gradientUnits="userSpaceOnUse" id="color-10"><stop offset="0" stop-color="#ff3d3c"/><stop offset="1" stop-color="#ff0000"/></linearGradient></defs><g transform="translate(-239.71327,-120.35213)"><g data-paper-data="{&quot;isPaintingLayer&quot;:true}" fill-rule="nonzero" stroke-linejoin="miter" stroke-miterlimit="10" stroke-dasharray="" stroke-dashoffset="0" style="mix-blend-mode: normal"><path d="M240.46327,179.86285v-58.76072h60.86325v58.76072z" fill="url(#color-1)" stroke="#733434" stroke-width="1.5" stroke-linecap="butt"/><path d="M239.96343,180.14297v-12.57143h61.85715v12.57143z" fill="url(#color-2)" stroke="none" stroke-width="0" stroke-linecap="butt"/><g stroke="none" stroke-width="0" stroke-linecap="butt"><path d="M269.04222,134.42149c1.38999,-8.02209 9.01998,-13.39844 17.04207,-12.00845c8.02209,1.38999 13.39845,9.01999 12.00846,17.04208c-1.38999,8.02209 -9.01998,13.39845 -17.04207,12.00845c-8.02209,-1.38999 -13.39845,-9.01999 -12.00846,-17.04208z" fill="url(#color-3)"/><path d="M273.85224,135.65084c1.17598,-6.78697 7.63126,-11.33557 14.41823,-10.15959c6.78697,1.17598 11.33557,7.63125 10.15959,14.41821c-1.17598,6.78697 -7.63125,11.33558 -14.41823,10.1596c-6.78697,-1.17598 -11.33557,-7.63126 -10.15959,-14.41823z" fill="url(#color-4)"/><path d="M273.67687,139.76414c1.12847,-6.51275 7.3229,-10.87759 13.83565,-9.74911c6.51276,1.12848 10.87758,7.3229 9.74911,13.83566c-1.12847,6.51275 -7.3229,10.87758 -13.83567,9.74911c-6.51276,-1.12848 -10.87756,-7.3229 -9.74909,-13.83566z" fill="url(#color-5)"/><path d="M275.43129,145.96204c0.81588,-4.70869 5.29445,-7.86445 10.00313,-7.04856c4.70869,0.81589 7.86443,5.29443 7.04855,10.00312c-0.81588,4.70869 -5.29443,7.86446 -10.00312,7.04857c-4.70869,-0.81589 -7.86445,-5.29444 -7.04856,-10.00313z" fill="url(#color-6)"/><path d="M277.3021,147.35489c0.62876,-3.62872 4.08011,-6.06068 7.70883,-5.43192c3.62872,0.62876 6.06068,4.08011 5.43192,7.70883c-0.62876,3.62872 -4.08011,6.06069 -7.70883,5.43193c-3.62872,-0.62876 -6.06067,-4.08012 -5.43192,-7.70884z" fill="url(#color-7)"/></g><path d="" fill="none" stroke="#ff0000" stroke-width="1" stroke-linecap="round"/><path d="M249.72243,159.93505l24.25,-6.3l1.1,1.45l-22.01667,7.28333z" fill="url(#color-8)" stroke="none" stroke-width="0" stroke-linecap="round"/><path d="M247.44851,157.57869c0,0 2.36439,-1.83397 5.81027,-1.94298c1.54068,-0.04874 3.49759,-0.55274 5.21135,0.98486c2.59197,2.32552 1.98441,5.45821 -0.36288,7.30602c-2.33439,1.83765 -6.40149,2.39684 -6.40149,2.39684l-4.25724,-8.74474z" fill="url(#color-9)" stroke="none" stroke-width="0" stroke-linecap="round"/><path d="M240.90576,167.55172c0,-6.29604 -1.09604,-9.8 5.2,-9.8c6.29604,0 11.22894,3.23545 10.6,9.5c-0.1,0.99605 -15.8,0.39605 -15.8,0.3z" fill="url(#color-10)" stroke="none" stroke-width="0" stroke-linecap="butt"/></g></g></svg>