<svg version="1.1" xmlns="http://www.w3.org/2000/svg" xmlns:xlink="http://www.w3.org/1999/xlink" width="62.36325" height="60.26072" viewBox="0,0,62.36325,60.26072"><defs><linearGradient x1="270.89485" y1="121.10213" x2="270.89485" y2="179.86284" gradientUnits="userSpaceOnUse" id="color-1"><stop offset="0" stop-color="#735656"/><stop offset="1" stop-color="#562828"/></linearGradient><linearGradient x1="270.892" y1="167.57146" x2="270.892" y2="180.14296" gradientUnits="userSpaceOnUse" id="color-2"><stop offset="0" stop-color="#a04848"/><stop offset="1" stop-color="#5b2929"/></linearGradient><radialGradient cx="259.56575" cy="153.26836" r="11.906" gradientUnits="userSpaceOnUse" id="color-3"><stop offset="0" stop-color="#ffd5d5" stop-opacity="0"/><stop offset="1" stop-color="#ffd5d5"/></radialGradient><radialGradient cx="273.93471" cy="142.16462" r="8.43375" gradientUnits="userSpaceOnUse" id="color-4"><stop offset="0" stop-color="#ffd5d5" stop-opacity="0"/><stop offset="1" stop-color="#ffd5d5"/></radialGradient><radialGradient cx="285.68338" cy="132.61635" r="5.26698" gradientUnits="userSpaceOnUse" id="color-5"><stop offset="0" stop-color="#ffd5d5" stop-opacity="0"/><stop offset="1" stop-color="#ffd5d5"/></radialGradient><radialGradient cx="269.05705" cy="145.37578" r="39.77835" gradientUnits="userSpaceOnUse" id="color-6"><stop offset="0" stop-color="#ff4b4b"/><stop offset="1" stop-color="#ff4b4b" stop-opacity="0"/></radialGradient></defs><g transform="translate(-239.71327,-120.35211)"><g data-paper-data="{&quot;isPaintingLayer&quot;:true}" fill-rule="nonzero" stroke-linejoin="miter" stroke-miterlimit="10" stroke-dasharray="" stroke-dashoffset="0" style="mix-blend-mode: normal"><path d="M240.46327,179.86284v-58.76072h60.86325v58.76072z" fill="url(#color-1)" stroke="#733434" stroke-width="1.5" stroke-linecap="butt"/><path d="M239.96343,180.14296v-12.57143h61.85715v12.57143z" fill="url(#color-2)" stroke="none" stroke-width="0" stroke-linecap="butt"/><path d="M264.39378,147.93672c5.16093,4.67345 7.1831,10.84909 4.51666,13.79367c-2.66645,2.94458 -9.0118,1.54305 -14.17272,-3.13039c-5.16093,-4.67345 -7.1831,-10.84909 -4.51666,-13.79367c2.66645,-2.94458 9.01179,-1.54306 14.17272,3.1304z" fill="none" stroke="url(#color-3)" stroke-width="2" stroke-linecap="butt"/><path d="M277.66193,138.69072c3.36266,3.60788 4.4199,8.08796 2.36142,10.00653c-2.05848,1.91857 -6.4532,0.54912 -9.81585,-3.05876c-3.36266,-3.60788 -4.4199,-8.08795 -2.36142,-10.00653c2.05848,-1.91857 6.45319,-0.54912 9.81585,3.05876z" fill="none" stroke="url(#color-4)" stroke-width="2" stroke-linecap="butt"/><path d="M288.15298,130.6099c1.94221,2.39054 2.41101,5.22677 1.04709,6.3349c-1.36392,1.10813 -4.04408,0.06854 -5.98629,-2.32199c-1.94221,-2.39054 -2.41101,-5.22677 -1.04708,-6.3349c1.36392,-1.10813 4.04408,-0.06854 5.98629,2.32199z" fill="none" stroke="url(#color-5)" stroke-width="2" stroke-linecap="butt"/><path d="M244.5175,164.79186l53.75,-41.30417" fill="none" stroke="url(#color-6)" stroke-width="5" stroke-linecap="round"/></g></g></svg>