<svg version="1.1" xmlns="http://www.w3.org/2000/svg" xmlns:xlink="http://www.w3.org/1999/xlink" width="62.44658" height="60.26072" viewBox="0,0,62.44658,60.26072"><defs><linearGradient x1="271.20442" y1="120.95939" x2="271.20442" y2="179.7201" gradientUnits="userSpaceOnUse" id="color-1"><stop offset="0" stop-color="#8c896b"/><stop offset="1" stop-color="#52503f"/></linearGradient><linearGradient x1="270.89207" y1="167.57145" x2="270.89207" y2="180.14309" gradientUnits="userSpaceOnUse" id="color-2"><stop offset="0" stop-color="#aba682"/><stop offset="1" stop-color="#848064"/></linearGradient><radialGradient cx="287.18885" cy="139.02158" r="9.73841" gradientUnits="userSpaceOnUse" id="color-3"><stop offset="0" stop-color="#b0daff"/><stop offset="1" stop-color="#37a8ff"/></radialGradient><radialGradient cx="267.97373" cy="143.7778" r="9.73841" gradientUnits="userSpaceOnUse" id="color-4"><stop offset="0" stop-color="#b0daff"/><stop offset="1" stop-color="#37a8ff"/></radialGradient><radialGradient cx="275.97893" cy="132.18012" r="9.54819" gradientUnits="userSpaceOnUse" id="color-5"><stop offset="0" stop-color="#e7e7e7"/><stop offset="1" stop-color="#f54b4b"/></radialGradient><radialGradient cx="279.78391" cy="149.68299" r="9.54819" gradientUnits="userSpaceOnUse" id="color-6"><stop offset="0" stop-color="#e7e7e7"/><stop offset="1" stop-color="#f54b4b"/></radialGradient><radialGradient cx="274.02167" cy="135.5625" r="26.3" gradientUnits="userSpaceOnUse" id="color-7"><stop offset="0" stop-color="#feffd4"/><stop offset="1" stop-color="#feffd4" stop-opacity="0"/></radialGradient><radialGradient cx="277.02167" cy="143.5625" r="30.5" gradientUnits="userSpaceOnUse" id="color-8"><stop offset="0" stop-color="#feffd4"/><stop offset="1" stop-color="#feffd4" stop-opacity="0"/></radialGradient><radialGradient cx="282.02167" cy="152.1625" r="27.7" gradientUnits="userSpaceOnUse" id="color-9"><stop offset="0" stop-color="#feffd4"/><stop offset="1" stop-color="#feffd4" stop-opacity="0"/></radialGradient><radialGradient cx="275.82167" cy="150.13942" r="32.9" gradientUnits="userSpaceOnUse" id="color-10"><stop offset="0" stop-color="#feffd4"/><stop offset="1" stop-color="#feffd4" stop-opacity="0"/></radialGradient><radialGradient cx="271.32167" cy="142.6625" r="28.4" gradientUnits="userSpaceOnUse" id="color-11"><stop offset="0" stop-color="#feffd4"/><stop offset="1" stop-color="#feffd4" stop-opacity="0"/></radialGradient><radialGradient cx="275.20628" cy="132.77019" r="6.6" gradientUnits="userSpaceOnUse" id="color-12"><stop offset="0" stop-color="#ffffff"/><stop offset="1" stop-color="#ffffff" stop-opacity="0"/></radialGradient><radialGradient cx="274.93486" cy="132.79876" r="7" gradientUnits="userSpaceOnUse" id="color-13"><stop offset="0" stop-color="#ffffff"/><stop offset="1" stop-color="#ffffff" stop-opacity="0"/></radialGradient><radialGradient cx="275.20628" cy="132.77019" r="6.6" gradientUnits="userSpaceOnUse" id="color-14"><stop offset="0" stop-color="#ffffff"/><stop offset="1" stop-color="#ffffff" stop-opacity="0"/></radialGradient><radialGradient cx="274.93486" cy="132.79876" r="7" gradientUnits="userSpaceOnUse" id="color-15"><stop offset="0" stop-color="#ffffff"/><stop offset="1" stop-color="#ffffff" stop-opacity="0"/></radialGradient><radialGradient cx="280.12497" cy="150.4625" r="6.6" gradientUnits="userSpaceOnUse" id="color-16"><stop offset="0" stop-color="#ffffff"/><stop offset="1" stop-color="#ffffff" stop-opacity="0"/></radialGradient><radialGradient cx="280.3964" cy="150.49107" r="7" gradientUnits="userSpaceOnUse" id="color-17"><stop offset="0" stop-color="#ffffff"/><stop offset="1" stop-color="#ffffff" stop-opacity="0"/></radialGradient><radialGradient cx="280.12497" cy="150.46249" r="6.6" gradientUnits="userSpaceOnUse" id="color-18"><stop offset="0" stop-color="#ffffff"/><stop offset="1" stop-color="#ffffff" stop-opacity="0"/></radialGradient><radialGradient cx="280.3964" cy="150.49107" r="7" gradientUnits="userSpaceOnUse" id="color-19"><stop offset="0" stop-color="#ffffff"/><stop offset="1" stop-color="#ffffff" stop-opacity="0"/></radialGradient></defs><g transform="translate(-239.93954,-120.20938)"><g data-paper-data="{&quot;isPaintingLayer&quot;:true}" fill-rule="nonzero" stroke-linejoin="miter" stroke-miterlimit="10" stroke-dasharray="" stroke-dashoffset="0" style="mix-blend-mode: normal"><path d="M240.68954,179.7201v-58.76072h60.94658v58.76072z" fill="url(#color-1)" stroke="#c0bb92" stroke-width="1.5" stroke-linecap="butt"/><path d="M239.96354,180.14309v-12.57143h61.85715v12.57143z" fill="url(#color-2)" stroke="none" stroke-width="0" stroke-linecap="butt"/><path d="M291.81393,130.45157c4.73308,2.55436 6.4993,8.46202 3.94494,13.1951c-2.55437,4.73308 -8.46203,6.49929 -13.19511,3.94493c-4.73308,-2.55436 -6.49929,-8.46203 -3.94493,-13.19511c2.55437,-4.73308 8.46202,-6.49929 13.19509,-3.94492z" fill="url(#color-3)" stroke="none" stroke-width="0" stroke-linecap="butt"/><path d="M272.59882,135.20779c4.73308,2.55436 6.4993,8.46203 3.94493,13.19511c-2.55437,4.73308 -8.46203,6.49929 -13.19511,3.94492c-4.73308,-2.55436 -6.49929,-8.46202 -3.94492,-13.1951c2.55437,-4.73308 8.46202,-6.49929 13.19509,-3.94493z" fill="url(#color-4)" stroke="none" stroke-width="0" stroke-linecap="butt"/><path d="M280.51369,123.7775c4.64063,2.50447 6.37234,8.29674 3.86787,12.93737c-2.50447,4.64064 -8.29673,6.37234 -12.93736,3.86787c-4.64063,-2.50447 -6.37236,-8.29675 -3.86789,-12.93738c2.50447,-4.64064 8.29674,-6.37233 12.93738,-3.86786z" fill="url(#color-5)" stroke="none" stroke-width="0" stroke-linecap="butt"/><path d="M284.31866,141.28036c4.64063,2.50447 6.37234,8.29674 3.86787,12.93738c-2.50447,4.64064 -8.29673,6.37234 -12.93736,3.86787c-4.64063,-2.50447 -6.37235,-8.29674 -3.86788,-12.93738c2.50447,-4.64064 8.29674,-6.37234 12.93738,-3.86787z" fill="url(#color-6)" stroke="none" stroke-width="0" stroke-linecap="butt"/><path d="M247.72167,160.2625l17.4,-31.4" fill="none" stroke="url(#color-7)" stroke-width="1.5" stroke-linecap="round"/><path d="M246.52167,163.2625l25.8,-21.4" fill="none" stroke="url(#color-8)" stroke-width="1.5" stroke-linecap="round"/><path d="M254.32167,161.4625l20.2,-0.6" fill="none" stroke="url(#color-9)" stroke-width="1.5" stroke-linecap="round"/><path d="M242.92167,166.73943l31.98462,-17.2" fill="none" stroke="url(#color-10)" stroke-width="1.5" stroke-linecap="round"/><path d="M242.92167,164.0625l21.6,-24.8" fill="none" stroke="url(#color-11)" stroke-width="1.5" stroke-linecap="round"/><path d="M273.90628,126.17019c0,0 0.1099,1.36172 0.28073,2.91797c0.12813,1.16719 0.29052,2.4438 0.46654,3.33743c0.452,2.29476 1.85273,6.9446 1.85273,6.9446" fill="none" stroke="url(#color-12)" stroke-width="1.5" stroke-linecap="round"/><path d="M281.93486,131.37019c0,0 -4.85211,1.99022 -7.22112,2.47369c-2.29532,0.46843 -6.77888,0.38345 -6.77888,0.38345" fill="none" stroke="url(#color-13)" stroke-width="1.5" stroke-linecap="round"/><path d="M273.90628,126.17019c0,0 0.1099,1.36172 0.28073,2.91797c0.12813,1.16719 0.29052,2.4438 0.46654,3.33743c0.452,2.29476 1.85273,6.9446 1.85273,6.9446" fill="none" stroke="url(#color-14)" stroke-width="1.5" stroke-linecap="round"/><path d="M281.93486,131.37019c0,0 -4.85211,1.99022 -7.22112,2.47369c-2.29532,0.46843 -6.77888,0.38345 -6.77888,0.38345" fill="none" stroke="url(#color-15)" stroke-width="1.5" stroke-linecap="round"/><path d="M281.42497,143.8625c0,0 -0.1099,1.36172 -0.28073,2.91797c-0.12813,1.16719 -0.29052,2.4438 -0.46654,3.33743c-0.452,2.29476 -1.85273,6.94459 -1.85273,6.94459" data-paper-data="{&quot;index&quot;:null}" fill="none" stroke="url(#color-16)" stroke-width="1.5" stroke-linecap="round"/><path d="M287.3964,151.91964c0,0 -4.48356,0.08499 -6.77889,-0.38345c-2.36901,-0.48347 -7.22111,-2.4737 -7.22111,-2.4737" data-paper-data="{&quot;index&quot;:null}" fill="none" stroke="url(#color-17)" stroke-width="1.5" stroke-linecap="round"/><path d="M281.42497,143.8625c0,0 -0.1099,1.36172 -0.28073,2.91797c-0.12813,1.16719 -0.29052,2.4438 -0.46654,3.33743c-0.452,2.29476 -1.85273,6.9446 -1.85273,6.9446" data-paper-data="{&quot;index&quot;:null}" fill="none" stroke="url(#color-18)" stroke-width="1.5" stroke-linecap="round"/><path d="M287.3964,151.91964c0,0 -4.48356,0.08499 -6.77889,-0.38345c-2.36901,-0.48347 -7.22111,-2.47369 -7.22111,-2.47369" data-paper-data="{&quot;index&quot;:null}" fill="none" stroke="url(#color-19)" stroke-width="1.5" stroke-linecap="round"/></g></g></svg>