<svg version="1.1" xmlns="http://www.w3.org/2000/svg" xmlns:xlink="http://www.w3.org/1999/xlink" width="240.70588" height="184.23529" viewBox="0,0,240.70588,184.23529"><defs><linearGradient x1="120" y1="88.23529" x2="120" y2="271.76471" gradientUnits="userSpaceOnUse" id="color-1"><stop offset="0" stop-color="#5a950d"/><stop offset="1" stop-color="#203504"/></linearGradient></defs><g transform="translate(-119.64706,-87.88235)"><g data-paper-data="{&quot;isPaintingLayer&quot;:true}" fill-rule="nonzero" stroke-linejoin="miter" stroke-miterlimit="10" stroke-dasharray="" stroke-dashoffset="0" style="mix-blend-mode: normal"><path d="M120,271.76471v-183.52941h240v183.52941z" fill="url(#color-1)" stroke="none" stroke-width="1" stroke-linecap="butt"/><path d="M120,88.23529h240" fill="#000000" stroke-opacity="0.5" stroke="#ffffff" stroke-width="0.70588" stroke-linecap="butt"/><path d="M120,102.35294h240" fill="#000000" stroke-opacity="0.5" stroke="#ffffff" stroke-width="0.70588" stroke-linecap="butt"/><path d="M120,116.47059h240" fill="#000000" stroke-opacity="0.5" stroke="#ffffff" stroke-width="0.70588" stroke-linecap="butt"/><path d="M120,130.58824h240" fill="#000000" stroke-opacity="0.5" stroke="#ffffff" stroke-width="0.70588" stroke-linecap="butt"/><path d="M120,144.70588h240" fill="#000000" stroke-opacity="0.5" stroke="#ffffff" stroke-width="0.70588" stroke-linecap="butt"/><path d="M120,158.82353h240" fill="#000000" stroke-opacity="0.5" stroke="#ffffff" stroke-width="0.70588" stroke-linecap="butt"/><path d="M120,172.94118h240" fill="#000000" stroke-opacity="0.5" stroke="#ffffff" stroke-width="0.70588" stroke-linecap="butt"/><path d="M120,187.05882h240" fill="#000000" stroke-opacity="0.5" stroke="#ffffff" stroke-width="0.70588" stroke-linecap="butt"/><path d="M120,201.17647h240" fill="#000000" stroke-opacity="0.5" stroke="#ffffff" stroke-width="0.70588" stroke-linecap="butt"/><path d="M120,215.29412h240" fill="#000000" stroke-opacity="0.5" stroke="#ffffff" stroke-width="0.70588" stroke-linecap="butt"/><path d="M120,229.41176h240" fill="#000000" stroke-opacity="0.5" stroke="#ffffff" stroke-width="0.70588" stroke-linecap="butt"/><path d="M120,243.52941h240" fill="#000000" stroke-opacity="0.5" stroke="#ffffff" stroke-width="0.70588" stroke-linecap="butt"/><path d="M120,257.64706h240" fill="#000000" stroke-opacity="0.5" stroke="#ffffff" stroke-width="0.70588" stroke-linecap="butt"/><path d="M120,271.76471h240" fill="#000000" stroke-opacity="0.5" stroke="#ffffff" stroke-width="0.70588" stroke-linecap="butt"/><path d="M120,88.23529v183.52941" fill="#000000" stroke-opacity="0.5" stroke="#ffffff" stroke-width="0.70588" stroke-linecap="butt"/><path d="M134.11765,88.23529v183.52941" fill="#000000" stroke-opacity="0.5" stroke="#ffffff" stroke-width="0.70588" stroke-linecap="butt"/><path d="M148.23529,88.23529v183.52941" fill="#000000" stroke-opacity="0.5" stroke="#ffffff" stroke-width="0.70588" stroke-linecap="butt"/><path d="M162.35294,88.23529v183.52941" fill="#000000" stroke-opacity="0.5" stroke="#ffffff" stroke-width="0.70588" stroke-linecap="butt"/><path d="M176.47059,88.23529v183.52941" fill="#000000" stroke-opacity="0.5" stroke="#ffffff" stroke-width="0.70588" stroke-linecap="butt"/><path d="M190.58824,271.76471v-183.52941" fill="#000000" stroke-opacity="0.5" stroke="#ffffff" stroke-width="0.70588" stroke-linecap="butt"/><path d="M204.70588,88.23529v183.52941" fill="#000000" stroke-opacity="0.5" stroke="#ffffff" stroke-width="0.70588" stroke-linecap="butt"/><path d="M218.82353,88.23529v183.52941" fill="#000000" stroke-opacity="0.5" stroke="#ffffff" stroke-width="0.70588" stroke-linecap="butt"/><path d="M232.94118,88.23529v183.52941" fill="#000000" stroke-opacity="0.5" stroke="#ffffff" stroke-width="0.70588" stroke-linecap="butt"/><path d="M247.05882,271.76471v-183.52941" fill="#000000" stroke-opacity="0.5" stroke="#ffffff" stroke-width="0.70588" stroke-linecap="butt"/><path d="M261.17647,271.76471v-183.52941" fill="#000000" stroke-opacity="0.5" stroke="#ffffff" stroke-width="0.70588" stroke-linecap="butt"/><path d="M275.29412,88.23529v183.52941" fill="#000000" stroke-opacity="0.5" stroke="#ffffff" stroke-width="0.70588" stroke-linecap="butt"/><path d="M289.41176,88.23529v183.52941" fill="#000000" stroke-opacity="0.5" stroke="#ffffff" stroke-width="0.70588" stroke-linecap="butt"/><path d="M303.52941,88.23529v183.52941" fill="#000000" stroke-opacity="0.5" stroke="#ffffff" stroke-width="0.70588" stroke-linecap="butt"/><path d="M317.64706,88.23529v183.52941" fill="#000000" stroke-opacity="0.5" stroke="#ffffff" stroke-width="0.70588" stroke-linecap="butt"/><path d="M331.76471,271.76471v-183.52941" fill="#000000" stroke-opacity="0.5" stroke="#ffffff" stroke-width="0.70588" stroke-linecap="butt"/><path d="M345.88235,88.23529v183.52941" fill="#000000" stroke-opacity="0.5" stroke="#ffffff" stroke-width="0.70588" stroke-linecap="butt"/><path d="M360,271.76471v-183.52941" fill="#000000" stroke-opacity="0.5" stroke="#ffffff" stroke-width="0.70588" stroke-linecap="butt"/><path d="M169.41176,208.23529h56.47059" fill="#000000" stroke-opacity="0.5" stroke="#a3ff33" stroke-width="13.41176" stroke-linecap="round"/><path d="M225.88235,151.76471v56.47059" fill="#000000" stroke-opacity="0.5" stroke="#a3ff33" stroke-width="13.41176" stroke-linecap="round"/><path d="M225.88235,151.76471h-56.47059" fill="#000000" stroke-opacity="0.5" stroke="#a3ff33" stroke-width="13.41176" stroke-linecap="round"/><path d="M169.41176,151.76471v56.47059" fill="#000000" stroke-opacity="0.5" stroke="#a3ff33" stroke-width="13.41176" stroke-linecap="round"/><path d="M254.11765,208.23529h56.47059" fill="#000000" stroke-opacity="0.5" stroke="#a3ff33" stroke-width="13.41176" stroke-linecap="round"/><path d="M310.58824,151.76471v56.47059" fill="#000000" stroke-opacity="0.5" stroke="#a3ff33" stroke-width="13.41176" stroke-linecap="round"/><path d="M310.58824,151.76471h-56.47059" fill="#000000" stroke-opacity="0.5" stroke="#a3ff33" stroke-width="13.41176" stroke-linecap="round"/><path d="M254.11765,151.76471v56.47059" fill="#000000" stroke-opacity="0.5" stroke="#a3ff33" stroke-width="13.41176" stroke-linecap="round"/><path d="M169.41176,264.70588v-14.11765" fill="#000000" stroke-opacity="0.5" stroke="#a3ff33" stroke-width="13.41176" stroke-linecap="round"/><path d="M169.41176,250.58824h56.47059" fill="#000000" stroke-opacity="0.5" stroke="#a3ff33" stroke-width="13.41176" stroke-linecap="round"/><path d="M225.88235,264.70588v-14.11765" fill="#000000" stroke-opacity="0.5" stroke="#a3ff33" stroke-width="13.41176" stroke-linecap="round"/><path d="M254.11765,264.70588v-14.11765" fill="#000000" stroke-opacity="0.5" stroke="#a3ff33" stroke-width="13.41176" stroke-linecap="round"/><path d="M254.11765,250.58824h56.47059" fill="#000000" stroke-opacity="0.5" stroke="#a3ff33" stroke-width="13.41176" stroke-linecap="round"/><path d="M310.58824,250.58824v14.11765" fill="#000000" stroke-opacity="0.5" stroke="#a3ff33" stroke-width="13.41176" stroke-linecap="round"/><path d="M169.41176,95.29412v14.11765" fill="#000000" stroke-opacity="0.5" stroke="#a3ff33" stroke-width="13.41176" stroke-linecap="round"/><path d="M169.41176,109.41176h56.47059" fill="#000000" stroke-opacity="0.5" stroke="#a3ff33" stroke-width="13.41176" stroke-linecap="round"/><path d="M225.88235,109.41176v-14.11765" fill="#000000" stroke-opacity="0.5" stroke="#a3ff33" stroke-width="13.41176" stroke-linecap="round"/><path d="M254.11765,95.29412v14.11765" fill="#000000" stroke-opacity="0.5" stroke="#a3ff33" stroke-width="13.41176" stroke-linecap="round"/><path d="M254.11765,109.41176h56.47059" fill="#000000" stroke-opacity="0.5" stroke="#a3ff33" stroke-width="13.41176" stroke-linecap="round"/><path d="M310.58824,109.41176v-14.11765" fill="#000000" stroke-opacity="0.5" stroke="#a3ff33" stroke-width="13.41176" stroke-linecap="round"/><path d="M197.64706,95.29412v169.41176" fill="#000000" stroke-opacity="0.5" stroke="#a3ff33" stroke-width="13.41176" stroke-linecap="round"/><path d="M282.35294,95.29412v169.41176" fill="#000000" stroke-opacity="0.5" stroke="#a3ff33" stroke-width="13.41176" stroke-linecap="round"/><path d="M169.41176,208.23529h56.47059" fill="#000000" stroke="#2d456f" stroke-width="9.17647" stroke-linecap="round"/><path d="M225.88235,151.76471v56.47059" fill="#000000" stroke="#2d456f" stroke-width="9.17647" stroke-linecap="round"/><path d="M225.88235,151.76471h-56.47059" fill="#000000" stroke="#2d456f" stroke-width="9.17647" stroke-linecap="round"/><path d="M169.41176,151.76471v56.47059" fill="#000000" stroke="#2d456f" stroke-width="9.17647" stroke-linecap="round"/><path d="M254.11765,208.23529h56.47059" fill="#000000" stroke="#2d456f" stroke-width="9.17647" stroke-linecap="round"/><path d="M310.58824,151.76471v56.47059" fill="#000000" stroke="#2d456f" stroke-width="9.17647" stroke-linecap="round"/><path d="M310.58824,151.76471h-56.47059" fill="#000000" stroke="#2d456f" stroke-width="9.17647" stroke-linecap="round"/><path d="M254.11765,151.76471v56.47059" fill="#000000" stroke="#2d456f" stroke-width="9.17647" stroke-linecap="round"/><path d="M169.41176,264.70588v-14.11765" fill="#000000" stroke="#2d456f" stroke-width="9.17647" stroke-linecap="round"/><path d="M169.41176,250.58824h56.47059" fill="#000000" stroke="#2d456f" stroke-width="9.17647" stroke-linecap="round"/><path d="M225.88235,264.70588v-14.11765" fill="#000000" stroke="#2d456f" stroke-width="9.17647" stroke-linecap="round"/><path d="M254.11765,264.70588v-14.11765" fill="#000000" stroke="#2d456f" stroke-width="9.17647" stroke-linecap="round"/><path d="M254.11765,250.58824h56.47059" fill="#000000" stroke="#2d456f" stroke-width="9.17647" stroke-linecap="round"/><path d="M310.58824,250.58824v14.11765" fill="#000000" stroke="#2d456f" stroke-width="9.17647" stroke-linecap="round"/><path d="M169.41176,95.29412v14.11765" fill="#000000" stroke="#2d456f" stroke-width="9.17647" stroke-linecap="round"/><path d="M169.41176,109.41176h56.47059" fill="#000000" stroke="#2d456f" stroke-width="9.17647" stroke-linecap="round"/><path d="M225.88235,109.41176v-14.11765" fill="#000000" stroke="#2d456f" stroke-width="9.17647" stroke-linecap="round"/><path d="M254.11765,95.29412v14.11765" fill="#000000" stroke="#2d456f" stroke-width="9.17647" stroke-linecap="round"/><path d="M254.11765,109.41176h56.47059" fill="#000000" stroke="#2d456f" stroke-width="9.17647" stroke-linecap="round"/><path d="M310.58824,109.41176v-14.11765" fill="#000000" stroke="#2d456f" stroke-width="9.17647" stroke-linecap="round"/><path d="M197.64706,95.29412v169.41176" fill="#000000" stroke="#2d456f" stroke-width="9.17647" stroke-linecap="round"/><path d="M282.35294,95.29412v169.41176" fill="#000000" stroke="#2d456f" stroke-width="9.17647" stroke-linecap="round"/><path d="M127.05882,229.41176c-3.89848,0 -7.05882,-3.16034 -7.05882,-7.05882v0c0,-3.89848 3.16034,-7.05882 7.05882,-7.05882h14.11765c3.89848,0 7.05882,3.16034 7.05882,7.05882v0c0,3.89848 -3.16034,7.05882 -7.05882,7.05882z" fill="#bcd5e0" stroke="none" stroke-width="1" stroke-linecap="butt"/><path d="M141.17647,243.52941c-3.89848,0 -7.05882,-3.16034 -7.05882,-7.05882v-14.11765c0,-3.89848 3.16034,-7.05882 7.05882,-7.05882v0c3.89848,0 7.05882,3.16034 7.05882,7.05882v14.11765c0,3.89848 -3.16034,7.05882 -7.05882,7.05882z" fill="#bcd5e0" stroke="none" stroke-width="1" stroke-linecap="butt"/><path d="M141.17647,243.52941c-3.89848,0 -7.05882,-3.16034 -7.05882,-7.05882v0c0,-3.89848 3.16034,-7.05882 7.05882,-7.05882h197.64706c3.89848,0 7.05882,3.16034 7.05882,7.05882v0c0,3.89848 -3.16034,7.05882 -7.05882,7.05882z" fill="#bcd5e0" stroke="none" stroke-width="1" stroke-linecap="butt"/><path d="M338.82353,243.52941c-3.89848,0 -7.05882,-3.16034 -7.05882,-7.05882v-112.94118c0,-3.89848 3.16034,-7.05882 7.05882,-7.05882v0c3.89848,0 7.05882,3.16034 7.05882,7.05882v112.94118c0,3.89848 -3.16034,7.05882 -7.05882,7.05882z" fill="#bcd5e0" stroke="none" stroke-width="1" stroke-linecap="butt"/><path d="M141.17647,130.58824c-3.89848,0 -7.05882,-3.16034 -7.05882,-7.05882v0c0,-3.89848 3.16034,-7.05882 7.05882,-7.05882h197.64706c3.89848,0 7.05882,3.16034 7.05882,7.05882v0c0,3.89848 -3.16034,7.05882 -7.05882,7.05882z" fill="#bcd5e0" stroke="none" stroke-width="1" stroke-linecap="butt"/><path d="M141.17647,144.70588c-3.89848,0 -7.05882,-3.16034 -7.05882,-7.05882v-14.11765c0,-3.89848 3.16034,-7.05882 7.05882,-7.05882v0c3.89848,0 7.05882,3.16034 7.05882,7.05882v14.11765c0,3.89848 -3.16034,7.05882 -7.05882,7.05882z" fill="#bcd5e0" stroke="none" stroke-width="1" stroke-linecap="butt"/><path d="M127.05882,144.70588c-3.89848,0 -7.05882,-3.16034 -7.05882,-7.05882v0c0,-3.89848 3.16034,-7.05882 7.05882,-7.05882h14.11765c3.89848,0 7.05882,3.16034 7.05882,7.05882v0c0,3.89848 -3.16034,7.05882 -7.05882,7.05882z" fill="#bcd5e0" stroke="none" stroke-width="1" stroke-linecap="butt"/><path d="M127.05882,222.35294h14.11765" fill="#000000" stroke="#213a34" stroke-width="10.58824" stroke-linecap="round"/><path d="M141.17647,236.47059v-14.11765" fill="#000000" stroke="#213a34" stroke-width="10.58824" stroke-linecap="round"/><path d="M338.82353,236.47059h-197.64706" fill="#000000" stroke="#213a34" stroke-width="10.58824" stroke-linecap="round"/><path d="M338.82353,236.47059v-112.94118" fill="#000000" stroke="#213a34" stroke-width="10.58824" stroke-linecap="round"/><path d="M338.82353,123.52941h-197.64706" fill="#000000" stroke="#213a34" stroke-width="10.58824" stroke-linecap="round"/><path d="M141.17647,137.64706v-14.11765" fill="#000000" stroke="#213a34" stroke-width="10.58824" stroke-linecap="round"/><path d="M141.17647,137.64706h-14.11765" fill="#000000" stroke="#213a34" stroke-width="10.58824" stroke-linecap="round"/><path d="M135.52941,229.41176c0,-3.11878 2.52827,-5.64706 5.64706,-5.64706c3.11878,0 5.64706,2.52827 5.64706,5.64706c0,3.11878 -2.52827,5.64706 -5.64706,5.64706c-3.11878,0 -5.64706,-2.52827 -5.64706,-5.64706z" fill="#948922" stroke="none" stroke-width="1" stroke-linecap="butt"/><path d="M135.52941,236.47059c0,-3.11878 2.52827,-5.64706 5.64706,-5.64706c3.11878,0 5.64706,2.52827 5.64706,5.64706c0,3.11878 -2.52827,5.64706 -5.64706,5.64706c-3.11878,0 -5.64706,-2.52827 -5.64706,-5.64706z" fill="#676018" stroke="none" stroke-width="1" stroke-linecap="butt"/><path d="M142.58824,236.47059c0,-3.11878 2.52827,-5.64706 5.64706,-5.64706c3.11878,0 5.64706,2.52827 5.64706,5.64706c0,3.11878 -2.52827,5.64706 -5.64706,5.64706c-3.11878,0 -5.64706,-2.52827 -5.64706,-5.64706z" fill="#948922" stroke="none" stroke-width="1" stroke-linecap="butt"/><path d="M149.64706,236.47059c0,-3.11878 2.52827,-5.64706 5.64706,-5.64706c3.11878,0 5.64706,2.52827 5.64706,5.64706c0,3.11878 -2.52827,5.64706 -5.64706,5.64706c-3.11878,0 -5.64706,-2.52827 -5.64706,-5.64706z" fill="#676018" stroke="none" stroke-width="1" stroke-linecap="butt"/><path d="M156.70588,236.47059c0,-3.11878 2.52827,-5.64706 5.64706,-5.64706c3.11878,0 5.64706,2.52827 5.64706,5.64706c0,3.11878 -2.52827,5.64706 -5.64706,5.64706c-3.11878,0 -5.64706,-2.52827 -5.64706,-5.64706z" fill="#948922" stroke="none" stroke-width="1" stroke-linecap="butt"/><path d="M163.76471,236.47059c0,-3.11878 2.52827,-5.64706 5.64706,-5.64706c3.11878,0 5.64706,2.52827 5.64706,5.64706c0,3.11878 -2.52827,5.64706 -5.64706,5.64706c-3.11878,0 -5.64706,-2.52827 -5.64706,-5.64706z" fill="#676018" stroke="none" stroke-width="1" stroke-linecap="butt"/><path d="M170.82353,236.47059c0,-3.11878 2.52827,-5.64706 5.64706,-5.64706c3.11878,0 5.64706,2.52827 5.64706,5.64706c0,3.11878 -2.52827,5.64706 -5.64706,5.64706c-3.11878,0 -5.64706,-2.52827 -5.64706,-5.64706z" fill="#948922" stroke="none" stroke-width="1" stroke-linecap="butt"/><path d="M177.88235,236.47059c0,-3.11878 2.52827,-5.64706 5.64706,-5.64706c3.11878,0 5.64706,2.52827 5.64706,5.64706c0,3.11878 -2.52827,5.64706 -5.64706,5.64706c-3.11878,0 -5.64706,-2.52827 -5.64706,-5.64706z" fill="#676018" stroke="none" stroke-width="1" stroke-linecap="butt"/><path d="M184.94118,236.47059c0,-3.11878 2.52827,-5.64706 5.64706,-5.64706c3.11878,0 5.64706,2.52827 5.64706,5.64706c0,3.11878 -2.52827,5.64706 -5.64706,5.64706c-3.11878,0 -5.64706,-2.52827 -5.64706,-5.64706z" fill="#948922" stroke="none" stroke-width="1" stroke-linecap="butt"/><path d="M192,236.47059c0,-3.11878 2.52827,-5.64706 5.64706,-5.64706c3.11878,0 5.64706,2.52827 5.64706,5.64706c0,3.11878 -2.52827,5.64706 -5.64706,5.64706c-3.11878,0 -5.64706,-2.52827 -5.64706,-5.64706z" fill="#676018" stroke="none" stroke-width="1" stroke-linecap="butt"/><path d="M199.05882,236.47059c0,-3.11878 2.52827,-5.64706 5.64706,-5.64706c3.11878,0 5.64706,2.52827 5.64706,5.64706c0,3.11878 -2.52827,5.64706 -5.64706,5.64706c-3.11878,0 -5.64706,-2.52827 -5.64706,-5.64706z" fill="#948922" stroke="none" stroke-width="1" stroke-linecap="butt"/><path d="M206.11765,236.47059c0,-3.11878 2.52827,-5.64706 5.64706,-5.64706c3.11878,0 5.64706,2.52827 5.64706,5.64706c0,3.11878 -2.52827,5.64706 -5.64706,5.64706c-3.11878,0 -5.64706,-2.52827 -5.64706,-5.64706z" fill="#676018" stroke="none" stroke-width="1" stroke-linecap="butt"/><path d="M213.17647,236.47059c0,-3.11878 2.52827,-5.64706 5.64706,-5.64706c3.11878,0 5.64706,2.52827 5.64706,5.64706c0,3.11878 -2.52827,5.64706 -5.64706,5.64706c-3.11878,0 -5.64706,-2.52827 -5.64706,-5.64706z" fill="#948922" stroke="none" stroke-width="1" stroke-linecap="butt"/><path d="M220.23529,236.47059c0,-3.11878 2.52827,-5.64706 5.64706,-5.64706c3.11878,0 5.64706,2.52827 5.64706,5.64706c0,3.11878 -2.52827,5.64706 -5.64706,5.64706c-3.11878,0 -5.64706,-2.52827 -5.64706,-5.64706z" fill="#676018" stroke="none" stroke-width="1" stroke-linecap="butt"/><path d="M227.29412,236.47059c0,-3.11878 2.52827,-5.64706 5.64706,-5.64706c3.11878,0 5.64706,2.52827 5.64706,5.64706c0,3.11878 -2.52827,5.64706 -5.64706,5.64706c-3.11878,0 -5.64706,-2.52827 -5.64706,-5.64706z" fill="#948922" stroke="none" stroke-width="1" stroke-linecap="butt"/><path d="M234.35294,236.47059c0,-3.11878 2.52827,-5.64706 5.64706,-5.64706c3.11878,0 5.64706,2.52827 5.64706,5.64706c0,3.11878 -2.52827,5.64706 -5.64706,5.64706c-3.11878,0 -5.64706,-2.52827 -5.64706,-5.64706z" fill="#676018" stroke="none" stroke-width="1" stroke-linecap="butt"/><path d="M241.41176,236.47059c0,-3.11878 2.52827,-5.64706 5.64706,-5.64706c3.11878,0 5.64706,2.52827 5.64706,5.64706c0,3.11878 -2.52827,5.64706 -5.64706,5.64706c-3.11878,0 -5.64706,-2.52827 -5.64706,-5.64706z" fill="#948922" stroke="none" stroke-width="1" stroke-linecap="butt"/><path d="M248.47059,236.47059c0,-3.11878 2.52827,-5.64706 5.64706,-5.64706c3.11878,0 5.64706,2.52827 5.64706,5.64706c0,3.11878 -2.52827,5.64706 -5.64706,5.64706c-3.11878,0 -5.64706,-2.52827 -5.64706,-5.64706z" fill="#676018" stroke="none" stroke-width="1" stroke-linecap="butt"/><path d="M255.52941,236.47059c0,-3.11878 2.52827,-5.64706 5.64706,-5.64706c3.11878,0 5.64706,2.52827 5.64706,5.64706c0,3.11878 -2.52827,5.64706 -5.64706,5.64706c-3.11878,0 -5.64706,-2.52827 -5.64706,-5.64706z" fill="#948922" stroke="none" stroke-width="1" stroke-linecap="butt"/><path d="M262.58824,236.47059c0,-3.11878 2.52827,-5.64706 5.64706,-5.64706c3.11878,0 5.64706,2.52827 5.64706,5.64706c0,3.11878 -2.52827,5.64706 -5.64706,5.64706c-3.11878,0 -5.64706,-2.52827 -5.64706,-5.64706z" fill="#676018" stroke="none" stroke-width="1" stroke-linecap="butt"/><path d="M269.64706,236.47059c0,-3.11878 2.52827,-5.64706 5.64706,-5.64706c3.11878,0 5.64706,2.52827 5.64706,5.64706c0,3.11878 -2.52827,5.64706 -5.64706,5.64706c-3.11878,0 -5.64706,-2.52827 -5.64706,-5.64706z" fill="#948922" stroke="none" stroke-width="1" stroke-linecap="butt"/><path d="M276.70588,236.47059c0,-3.11878 2.52827,-5.64706 5.64706,-5.64706c3.11878,0 5.64706,2.52827 5.64706,5.64706c0,3.11878 -2.52827,5.64706 -5.64706,5.64706c-3.11878,0 -5.64706,-2.52827 -5.64706,-5.64706z" fill="#676018" stroke="none" stroke-width="1" stroke-linecap="butt"/><path d="M283.76471,236.47059c0,-3.11878 2.52827,-5.64706 5.64706,-5.64706c3.11878,0 5.64706,2.52827 5.64706,5.64706c0,3.11878 -2.52827,5.64706 -5.64706,5.64706c-3.11878,0 -5.64706,-2.52827 -5.64706,-5.64706z" fill="#948922" stroke="none" stroke-width="1" stroke-linecap="butt"/><path d="M290.82353,236.47059c0,-3.11878 2.52827,-5.64706 5.64706,-5.64706c3.11878,0 5.64706,2.52827 5.64706,5.64706c0,3.11878 -2.52827,5.64706 -5.64706,5.64706c-3.11878,0 -5.64706,-2.52827 -5.64706,-5.64706z" fill="#676018" stroke="none" stroke-width="1" stroke-linecap="butt"/><path d="M297.88235,236.47059c0,-3.11878 2.52827,-5.64706 5.64706,-5.64706c3.11878,0 5.64706,2.52827 5.64706,5.64706c0,3.11878 -2.52827,5.64706 -5.64706,5.64706c-3.11878,0 -5.64706,-2.52827 -5.64706,-5.64706z" fill="#948922" stroke="none" stroke-width="1" stroke-linecap="butt"/><path d="M304.94118,236.47059c0,-3.11878 2.52827,-5.64706 5.64706,-5.64706c3.11878,0 5.64706,2.52827 5.64706,5.64706c0,3.11878 -2.52827,5.64706 -5.64706,5.64706c-3.11878,0 -5.64706,-2.52827 -5.64706,-5.64706z" fill="#676018" stroke="none" stroke-width="1" stroke-linecap="butt"/><path d="M312,236.47059c0,-3.11878 2.52827,-5.64706 5.64706,-5.64706c3.11878,0 5.64706,2.52827 5.64706,5.64706c0,3.11878 -2.52827,5.64706 -5.64706,5.64706c-3.11878,0 -5.64706,-2.52827 -5.64706,-5.64706z" fill="#948922" stroke="none" stroke-width="1" stroke-linecap="butt"/><path d="M319.05882,236.47059c0,-3.11878 2.52827,-5.64706 5.64706,-5.64706c3.11878,0 5.64706,2.52827 5.64706,5.64706c0,3.11878 -2.52827,5.64706 -5.64706,5.64706c-3.11878,0 -5.64706,-2.52827 -5.64706,-5.64706z" fill="#676018" stroke="none" stroke-width="1" stroke-linecap="butt"/><path d="M326.11765,236.47059c0,-3.11878 2.52827,-5.64706 5.64706,-5.64706c3.11878,0 5.64706,2.52827 5.64706,5.64706c0,3.11878 -2.52827,5.64706 -5.64706,5.64706c-3.11878,0 -5.64706,-2.52827 -5.64706,-5.64706z" fill="#948922" stroke="none" stroke-width="1" stroke-linecap="butt"/><path d="M333.17647,236.47059c0,-3.11878 2.52827,-5.64706 5.64706,-5.64706c3.11878,0 5.64706,2.52827 5.64706,5.64706c0,3.11878 -2.52827,5.64706 -5.64706,5.64706c-3.11878,0 -5.64706,-2.52827 -5.64706,-5.64706z" fill="#676018" stroke="none" stroke-width="1" stroke-linecap="butt"/><path d="M333.17647,229.41176c0,-3.11878 2.52827,-5.64706 5.64706,-5.64706c3.11878,0 5.64706,2.52827 5.64706,5.64706c0,3.11878 -2.52827,5.64706 -5.64706,5.64706c-3.11878,0 -5.64706,-2.52827 -5.64706,-5.64706z" fill="#948922" stroke="none" stroke-width="1" stroke-linecap="butt"/><path d="M333.17647,222.35294c0,-3.11878 2.52827,-5.64706 5.64706,-5.64706c3.11878,0 5.64706,2.52827 5.64706,5.64706c0,3.11878 -2.52827,5.64706 -5.64706,5.64706c-3.11878,0 -5.64706,-2.52827 -5.64706,-5.64706z" fill="#676018" stroke="none" stroke-width="1" stroke-linecap="butt"/><path d="M333.17647,215.29412c0,-3.11878 2.52827,-5.64706 5.64706,-5.64706c3.11878,0 5.64706,2.52827 5.64706,5.64706c0,3.11878 -2.52827,5.64706 -5.64706,5.64706c-3.11878,0 -5.64706,-2.52827 -5.64706,-5.64706z" fill="#948922" stroke="none" stroke-width="1" stroke-linecap="butt"/><path d="M333.17647,208.23529c0,-3.11878 2.52827,-5.64706 5.64706,-5.64706c3.11878,0 5.64706,2.52827 5.64706,5.64706c0,3.11878 -2.52827,5.64706 -5.64706,5.64706c-3.11878,0 -5.64706,-2.52827 -5.64706,-5.64706z" fill="#676018" stroke="none" stroke-width="1" stroke-linecap="butt"/><path d="M333.17647,201.17647c0,-3.11878 2.52827,-5.64706 5.64706,-5.64706c3.11878,0 5.64706,2.52827 5.64706,5.64706c0,3.11878 -2.52827,5.64706 -5.64706,5.64706c-3.11878,0 -5.64706,-2.52827 -5.64706,-5.64706z" fill="#948922" stroke="none" stroke-width="1" stroke-linecap="butt"/><path d="M333.17647,194.11765c0,-3.11878 2.52827,-5.64706 5.64706,-5.64706c3.11878,0 5.64706,2.52827 5.64706,5.64706c0,3.11878 -2.52827,5.64706 -5.64706,5.64706c-3.11878,0 -5.64706,-2.52827 -5.64706,-5.64706z" fill="#676018" stroke="none" stroke-width="1" stroke-linecap="butt"/><path d="M333.17647,187.05882c0,-3.11878 2.52827,-5.64706 5.64706,-5.64706c3.11878,0 5.64706,2.52827 5.64706,5.64706c0,3.11878 -2.52827,5.64706 -5.64706,5.64706c-3.11878,0 -5.64706,-2.52827 -5.64706,-5.64706z" fill="#948922" stroke="none" stroke-width="1" stroke-linecap="butt"/><path d="M333.17647,180c0,-3.11878 2.52827,-5.64706 5.64706,-5.64706c3.11878,0 5.64706,2.52827 5.64706,5.64706c0,3.11878 -2.52827,5.64706 -5.64706,5.64706c-3.11878,0 -5.64706,-2.52827 -5.64706,-5.64706z" fill="#676018" stroke="none" stroke-width="1" stroke-linecap="butt"/><path d="M333.17647,172.94118c0,-3.11878 2.52827,-5.64706 5.64706,-5.64706c3.11878,0 5.64706,2.52827 5.64706,5.64706c0,3.11878 -2.52827,5.64706 -5.64706,5.64706c-3.11878,0 -5.64706,-2.52827 -5.64706,-5.64706z" fill="#948922" stroke="none" stroke-width="1" stroke-linecap="butt"/><path d="M333.17647,165.88235c0,-3.11878 2.52827,-5.64706 5.64706,-5.64706c3.11878,0 5.64706,2.52827 5.64706,5.64706c0,3.11878 -2.52827,5.64706 -5.64706,5.64706c-3.11878,0 -5.64706,-2.52827 -5.64706,-5.64706z" fill="#676018" stroke="none" stroke-width="1" stroke-linecap="butt"/><path d="M333.17647,158.82353c0,-3.11878 2.52827,-5.64706 5.64706,-5.64706c3.11878,0 5.64706,2.52827 5.64706,5.64706c0,3.11878 -2.52827,5.64706 -5.64706,5.64706c-3.11878,0 -5.64706,-2.52827 -5.64706,-5.64706z" fill="#948922" stroke="none" stroke-width="1" stroke-linecap="butt"/><path d="M333.17647,151.76471c0,-3.11878 2.52827,-5.64706 5.64706,-5.64706c3.11878,0 5.64706,2.52827 5.64706,5.64706c0,3.11878 -2.52827,5.64706 -5.64706,5.64706c-3.11878,0 -5.64706,-2.52827 -5.64706,-5.64706z" fill="#676018" stroke="none" stroke-width="1" stroke-linecap="butt"/><path d="M333.17647,144.70588c0,-3.11878 2.52827,-5.64706 5.64706,-5.64706c3.11878,0 5.64706,2.52827 5.64706,5.64706c0,3.11878 -2.52827,5.64706 -5.64706,5.64706c-3.11878,0 -5.64706,-2.52827 -5.64706,-5.64706z" fill="#948922" stroke="none" stroke-width="1" stroke-linecap="butt"/><path d="M333.17647,137.64706c0,-3.11878 2.52827,-5.64706 5.64706,-5.64706c3.11878,0 5.64706,2.52827 5.64706,5.64706c0,3.11878 -2.52827,5.64706 -5.64706,5.64706c-3.11878,0 -5.64706,-2.52827 -5.64706,-5.64706z" fill="#676018" stroke="none" stroke-width="1" stroke-linecap="butt"/><path d="M333.17647,130.58824c0,-3.11878 2.52827,-5.64706 5.64706,-5.64706c3.11878,0 5.64706,2.52827 5.64706,5.64706c0,3.11878 -2.52827,5.64706 -5.64706,5.64706c-3.11878,0 -5.64706,-2.52827 -5.64706,-5.64706z" fill="#948922" stroke="none" stroke-width="1" stroke-linecap="butt"/><path d="M333.17647,123.52941c0,-3.11878 2.52827,-5.64706 5.64706,-5.64706c3.11878,0 5.64706,2.52827 5.64706,5.64706c0,3.11878 -2.52827,5.64706 -5.64706,5.64706c-3.11878,0 -5.64706,-2.52827 -5.64706,-5.64706z" fill="#676018" stroke="none" stroke-width="1" stroke-linecap="butt"/><path d="M333.17647,123.52941c0,-3.11878 2.52827,-5.64706 5.64706,-5.64706c3.11878,0 5.64706,2.52827 5.64706,5.64706c0,3.11878 -2.52827,5.64706 -5.64706,5.64706c-3.11878,0 -5.64706,-2.52827 -5.64706,-5.64706z" fill="#676018" stroke="none" stroke-width="1" stroke-linecap="butt"/><path d="M326.11765,123.52941c0,-3.11878 2.52827,-5.64706 5.64706,-5.64706c3.11878,0 5.64706,2.52827 5.64706,5.64706c0,3.11878 -2.52827,5.64706 -5.64706,5.64706c-3.11878,0 -5.64706,-2.52827 -5.64706,-5.64706z" fill="#948922" stroke="none" stroke-width="1" stroke-linecap="butt"/><path d="M319.05882,123.52941c0,-3.11878 2.52827,-5.64706 5.64706,-5.64706c3.11878,0 5.64706,2.52827 5.64706,5.64706c0,3.11878 -2.52827,5.64706 -5.64706,5.64706c-3.11878,0 -5.64706,-2.52827 -5.64706,-5.64706z" fill="#676018" stroke="none" stroke-width="1" stroke-linecap="butt"/><path d="M312,123.52941c0,-3.11878 2.52827,-5.64706 5.64706,-5.64706c3.11878,0 5.64706,2.52827 5.64706,5.64706c0,3.11878 -2.52827,5.64706 -5.64706,5.64706c-3.11878,0 -5.64706,-2.52827 -5.64706,-5.64706z" fill="#948922" stroke="none" stroke-width="1" stroke-linecap="butt"/><path d="M304.94118,123.52941c0,-3.11878 2.52827,-5.64706 5.64706,-5.64706c3.11878,0 5.64706,2.52827 5.64706,5.64706c0,3.11878 -2.52827,5.64706 -5.64706,5.64706c-3.11878,0 -5.64706,-2.52827 -5.64706,-5.64706z" fill="#676018" stroke="none" stroke-width="1" stroke-linecap="butt"/><path d="M297.88235,123.52941c0,-3.11878 2.52827,-5.64706 5.64706,-5.64706c3.11878,0 5.64706,2.52827 5.64706,5.64706c0,3.11878 -2.52827,5.64706 -5.64706,5.64706c-3.11878,0 -5.64706,-2.52827 -5.64706,-5.64706z" fill="#948922" stroke="none" stroke-width="1" stroke-linecap="butt"/><path d="M290.82353,123.52941c0,-3.11878 2.52827,-5.64706 5.64706,-5.64706c3.11878,0 5.64706,2.52827 5.64706,5.64706c0,3.11878 -2.52827,5.64706 -5.64706,5.64706c-3.11878,0 -5.64706,-2.52827 -5.64706,-5.64706z" fill="#676018" stroke="none" stroke-width="1" stroke-linecap="butt"/><path d="M283.76471,123.52941c0,-3.11878 2.52827,-5.64706 5.64706,-5.64706c3.11878,0 5.64706,2.52827 5.64706,5.64706c0,3.11878 -2.52827,5.64706 -5.64706,5.64706c-3.11878,0 -5.64706,-2.52827 -5.64706,-5.64706z" fill="#948922" stroke="none" stroke-width="1" stroke-linecap="butt"/><path d="M276.70588,123.52941c0,-3.11878 2.52827,-5.64706 5.64706,-5.64706c3.11878,0 5.64706,2.52827 5.64706,5.64706c0,3.11878 -2.52827,5.64706 -5.64706,5.64706c-3.11878,0 -5.64706,-2.52827 -5.64706,-5.64706z" fill="#676018" stroke="none" stroke-width="1" stroke-linecap="butt"/><path d="M269.64706,123.52941c0,-3.11878 2.52827,-5.64706 5.64706,-5.64706c3.11878,0 5.64706,2.52827 5.64706,5.64706c0,3.11878 -2.52827,5.64706 -5.64706,5.64706c-3.11878,0 -5.64706,-2.52827 -5.64706,-5.64706z" fill="#948922" stroke="none" stroke-width="1" stroke-linecap="butt"/><path d="M262.58824,123.52941c0,-3.11878 2.52827,-5.64706 5.64706,-5.64706c3.11878,0 5.64706,2.52827 5.64706,5.64706c0,3.11878 -2.52827,5.64706 -5.64706,5.64706c-3.11878,0 -5.64706,-2.52827 -5.64706,-5.64706z" fill="#676018" stroke="none" stroke-width="1" stroke-linecap="butt"/><path d="M255.52941,123.52941c0,-3.11878 2.52827,-5.64706 5.64706,-5.64706c3.11878,0 5.64706,2.52827 5.64706,5.64706c0,3.11878 -2.52827,5.64706 -5.64706,5.64706c-3.11878,0 -5.64706,-2.52827 -5.64706,-5.64706z" fill="#948922" stroke="none" stroke-width="1" stroke-linecap="butt"/><path d="M248.47059,123.52941c0,-3.11878 2.52827,-5.64706 5.64706,-5.64706c3.11878,0 5.64706,2.52827 5.64706,5.64706c0,3.11878 -2.52827,5.64706 -5.64706,5.64706c-3.11878,0 -5.64706,-2.52827 -5.64706,-5.64706z" fill="#676018" stroke="none" stroke-width="1" stroke-linecap="butt"/><path d="M241.41176,123.52941c0,-3.11878 2.52827,-5.64706 5.64706,-5.64706c3.11878,0 5.64706,2.52827 5.64706,5.64706c0,3.11878 -2.52827,5.64706 -5.64706,5.64706c-3.11878,0 -5.64706,-2.52827 -5.64706,-5.64706z" fill="#948922" stroke="none" stroke-width="1" stroke-linecap="butt"/><path d="M234.35294,123.52941c0,-3.11878 2.52827,-5.64706 5.64706,-5.64706c3.11878,0 5.64706,2.52827 5.64706,5.64706c0,3.11878 -2.52827,5.64706 -5.64706,5.64706c-3.11878,0 -5.64706,-2.52827 -5.64706,-5.64706z" fill="#676018" stroke="none" stroke-width="1" stroke-linecap="butt"/><path d="M227.29412,123.52941c0,-3.11878 2.52827,-5.64706 5.64706,-5.64706c3.11878,0 5.64706,2.52827 5.64706,5.64706c0,3.11878 -2.52827,5.64706 -5.64706,5.64706c-3.11878,0 -5.64706,-2.52827 -5.64706,-5.64706z" fill="#948922" stroke="none" stroke-width="1" stroke-linecap="butt"/><path d="M220.23529,123.52941c0,-3.11878 2.52827,-5.64706 5.64706,-5.64706c3.11878,0 5.64706,2.52827 5.64706,5.64706c0,3.11878 -2.52827,5.64706 -5.64706,5.64706c-3.11878,0 -5.64706,-2.52827 -5.64706,-5.64706z" fill="#676018" stroke="none" stroke-width="1" stroke-linecap="butt"/><path d="M213.17647,123.52941c0,-3.11878 2.52827,-5.64706 5.64706,-5.64706c3.11878,0 5.64706,2.52827 5.64706,5.64706c0,3.11878 -2.52827,5.64706 -5.64706,5.64706c-3.11878,0 -5.64706,-2.52827 -5.64706,-5.64706z" fill="#948922" stroke="none" stroke-width="1" stroke-linecap="butt"/><path d="M206.11765,123.52941c0,-3.11878 2.52827,-5.64706 5.64706,-5.64706c3.11878,0 5.64706,2.52827 5.64706,5.64706c0,3.11878 -2.52827,5.64706 -5.64706,5.64706c-3.11878,0 -5.64706,-2.52827 -5.64706,-5.64706z" fill="#676018" stroke="none" stroke-width="1" stroke-linecap="butt"/><path d="M199.05882,123.52941c0,-3.11878 2.52827,-5.64706 5.64706,-5.64706c3.11878,0 5.64706,2.52827 5.64706,5.64706c0,3.11878 -2.52827,5.64706 -5.64706,5.64706c-3.11878,0 -5.64706,-2.52827 -5.64706,-5.64706z" fill="#948922" stroke="none" stroke-width="1" stroke-linecap="butt"/><path d="M192,123.52941c0,-3.11878 2.52827,-5.64706 5.64706,-5.64706c3.11878,0 5.64706,2.52827 5.64706,5.64706c0,3.11878 -2.52827,5.64706 -5.64706,5.64706c-3.11878,0 -5.64706,-2.52827 -5.64706,-5.64706z" fill="#676018" stroke="none" stroke-width="1" stroke-linecap="butt"/><path d="M184.94118,123.52941c0,-3.11878 2.52827,-5.64706 5.64706,-5.64706c3.11878,0 5.64706,2.52827 5.64706,5.64706c0,3.11878 -2.52827,5.64706 -5.64706,5.64706c-3.11878,0 -5.64706,-2.52827 -5.64706,-5.64706z" fill="#948922" stroke="none" stroke-width="1" stroke-linecap="butt"/><path d="M177.88235,123.52941c0,-3.11878 2.52827,-5.64706 5.64706,-5.64706c3.11878,0 5.64706,2.52827 5.64706,5.64706c0,3.11878 -2.52827,5.64706 -5.64706,5.64706c-3.11878,0 -5.64706,-2.52827 -5.64706,-5.64706z" fill="#676018" stroke="none" stroke-width="1" stroke-linecap="butt"/><path d="M170.82353,123.52941c0,-3.11878 2.52827,-5.64706 5.64706,-5.64706c3.11878,0 5.64706,2.52827 5.64706,5.64706c0,3.11878 -2.52827,5.64706 -5.64706,5.64706c-3.11878,0 -5.64706,-2.52827 -5.64706,-5.64706z" fill="#948922" stroke="none" stroke-width="1" stroke-linecap="butt"/><path d="M163.76471,123.52941c0,-3.11878 2.52827,-5.64706 5.64706,-5.64706c3.11878,0 5.64706,2.52827 5.64706,5.64706c0,3.11878 -2.52827,5.64706 -5.64706,5.64706c-3.11878,0 -5.64706,-2.52827 -5.64706,-5.64706z" fill="#676018" stroke="none" stroke-width="1" stroke-linecap="butt"/><path d="M156.70588,123.52941c0,-3.11878 2.52827,-5.64706 5.64706,-5.64706c3.11878,0 5.64706,2.52827 5.64706,5.64706c0,3.11878 -2.52827,5.64706 -5.64706,5.64706c-3.11878,0 -5.64706,-2.52827 -5.64706,-5.64706z" fill="#948922" stroke="none" stroke-width="1" stroke-linecap="butt"/><path d="M149.64706,123.52941c0,-3.11878 2.52827,-5.64706 5.64706,-5.64706c3.11878,0 5.64706,2.52827 5.64706,5.64706c0,3.11878 -2.52827,5.64706 -5.64706,5.64706c-3.11878,0 -5.64706,-2.52827 -5.64706,-5.64706z" fill="#676018" stroke="none" stroke-width="1" stroke-linecap="butt"/><path d="M142.58824,123.52941c0,-3.11878 2.52827,-5.64706 5.64706,-5.64706c3.11878,0 5.64706,2.52827 5.64706,5.64706c0,3.11878 -2.52827,5.64706 -5.64706,5.64706c-3.11878,0 -5.64706,-2.52827 -5.64706,-5.64706z" fill="#948922" stroke="none" stroke-width="1" stroke-linecap="butt"/><path d="M135.52941,123.52941c0,-3.11878 2.52827,-5.64706 5.64706,-5.64706c3.11878,0 5.64706,2.52827 5.64706,5.64706c0,3.11878 -2.52827,5.64706 -5.64706,5.64706c-3.11878,0 -5.64706,-2.52827 -5.64706,-5.64706z" fill="#676018" stroke="none" stroke-width="1" stroke-linecap="butt"/><path d="M120,222.35294c0,-3.89848 3.16034,-7.05882 7.05882,-7.05882c3.89848,0 7.05882,3.16034 7.05882,7.05882c0,3.89848 -3.16034,7.05882 -7.05882,7.05882c-3.89848,0 -7.05882,-3.16034 -7.05882,-7.05882z" fill-opacity="0.35" fill="#00ff44" stroke="none" stroke-width="1" stroke-linecap="butt"/><path d="M120,137.64706c0,-3.89848 3.16034,-7.05882 7.05882,-7.05882c3.89848,0 7.05882,3.16034 7.05882,7.05882c0,3.89848 -3.16034,7.05882 -7.05882,7.05882c-3.89848,0 -7.05882,-3.16034 -7.05882,-7.05882z" fill-opacity="0.35" fill="#ff0404" stroke="none" stroke-width="1" stroke-linecap="butt"/><path d="M165.88235,208.23529c0,-1.94924 1.58017,-3.52941 3.52941,-3.52941c1.94924,0 3.52941,1.58017 3.52941,3.52941c0,1.94924 -1.58017,3.52941 -3.52941,3.52941c-1.94924,0 -3.52941,-1.58017 -3.52941,-3.52941z" fill-opacity="0.8" fill="#3a627f" stroke="none" stroke-width="1" stroke-linecap="butt"/><path d="M222.35294,208.23529c0,-1.94924 1.58017,-3.52941 3.52941,-3.52941c1.94924,0 3.52941,1.58017 3.52941,3.52941c0,1.94924 -1.58017,3.52941 -3.52941,3.52941c-1.94924,0 -3.52941,-1.58017 -3.52941,-3.52941z" fill-opacity="0.8" fill="#3a627f" stroke="none" stroke-width="1" stroke-linecap="butt"/><path d="M169.41176,208.23529h56.47059" fill="#000000" stroke-opacity="0.8" stroke="#75c5ff" stroke-width="3.52941" stroke-linecap="round"/><path d="M222.35294,208.23529c0,-1.94924 1.58017,-3.52941 3.52941,-3.52941c1.94924,0 3.52941,1.58017 3.52941,3.52941c0,1.94924 -1.58017,3.52941 -3.52941,3.52941c-1.94924,0 -3.52941,-1.58017 -3.52941,-3.52941z" fill-opacity="0.8" fill="#3a627f" stroke="none" stroke-width="1" stroke-linecap="butt"/><path d="M222.35294,151.76471c0,-1.94924 1.58017,-3.52941 3.52941,-3.52941c1.94924,0 3.52941,1.58017 3.52941,3.52941c0,1.94924 -1.58017,3.52941 -3.52941,3.52941c-1.94924,0 -3.52941,-1.58017 -3.52941,-3.52941z" fill-opacity="0.8" fill="#3a627f" stroke="none" stroke-width="1" stroke-linecap="butt"/><path d="M225.88235,151.76471v56.47059" fill="#000000" stroke-opacity="0.8" stroke="#75c5ff" stroke-width="3.52941" stroke-linecap="round"/><path d="M222.35294,151.76471c0,-1.94924 1.58017,-3.52941 3.52941,-3.52941c1.94924,0 3.52941,1.58017 3.52941,3.52941c0,1.94924 -1.58017,3.52941 -3.52941,3.52941c-1.94924,0 -3.52941,-1.58017 -3.52941,-3.52941z" fill-opacity="0.8" fill="#3a627f" stroke="none" stroke-width="1" stroke-linecap="butt"/><path d="M165.88235,151.76471c0,-1.94924 1.58017,-3.52941 3.52941,-3.52941c1.94924,0 3.52941,1.58017 3.52941,3.52941c0,1.94924 -1.58017,3.52941 -3.52941,3.52941c-1.94924,0 -3.52941,-1.58017 -3.52941,-3.52941z" fill-opacity="0.8" fill="#3a627f" stroke="none" stroke-width="1" stroke-linecap="butt"/><path d="M225.88235,151.76471h-56.47059" fill="#000000" stroke-opacity="0.8" stroke="#75c5ff" stroke-width="3.52941" stroke-linecap="round"/><path d="M165.88235,151.76471c0,-1.94924 1.58017,-3.52941 3.52941,-3.52941c1.94924,0 3.52941,1.58017 3.52941,3.52941c0,1.94924 -1.58017,3.52941 -3.52941,3.52941c-1.94924,0 -3.52941,-1.58017 -3.52941,-3.52941z" fill-opacity="0.8" fill="#3a627f" stroke="none" stroke-width="1" stroke-linecap="butt"/><path d="M165.88235,208.23529c0,-1.94924 1.58017,-3.52941 3.52941,-3.52941c1.94924,0 3.52941,1.58017 3.52941,3.52941c0,1.94924 -1.58017,3.52941 -3.52941,3.52941c-1.94924,0 -3.52941,-1.58017 -3.52941,-3.52941z" fill-opacity="0.8" fill="#3a627f" stroke="none" stroke-width="1" stroke-linecap="butt"/><path d="M169.41176,151.76471v56.47059" fill="#000000" stroke-opacity="0.8" stroke="#75c5ff" stroke-width="3.52941" stroke-linecap="round"/><path d="M250.58824,208.23529c0,-1.94924 1.58017,-3.52941 3.52941,-3.52941c1.94924,0 3.52941,1.58017 3.52941,3.52941c0,1.94924 -1.58017,3.52941 -3.52941,3.52941c-1.94924,0 -3.52941,-1.58017 -3.52941,-3.52941z" fill-opacity="0.8" fill="#503a7f" stroke="none" stroke-width="1" stroke-linecap="butt"/><path d="M307.05882,208.23529c0,-1.94924 1.58017,-3.52941 3.52941,-3.52941c1.94924,0 3.52941,1.58017 3.52941,3.52941c0,1.94924 -1.58017,3.52941 -3.52941,3.52941c-1.94924,0 -3.52941,-1.58017 -3.52941,-3.52941z" fill-opacity="0.8" fill="#503a7f" stroke="none" stroke-width="1" stroke-linecap="butt"/><path d="M254.11765,208.23529h56.47059" fill="#000000" stroke-opacity="0.8" stroke="#a175ff" stroke-width="3.52941" stroke-linecap="round"/><path d="M307.05882,208.23529c0,-1.94924 1.58017,-3.52941 3.52941,-3.52941c1.94924,0 3.52941,1.58017 3.52941,3.52941c0,1.94924 -1.58017,3.52941 -3.52941,3.52941c-1.94924,0 -3.52941,-1.58017 -3.52941,-3.52941z" fill-opacity="0.8" fill="#503a7f" stroke="none" stroke-width="1" stroke-linecap="butt"/><path d="M307.05882,151.76471c0,-1.94924 1.58017,-3.52941 3.52941,-3.52941c1.94924,0 3.52941,1.58017 3.52941,3.52941c0,1.94924 -1.58017,3.52941 -3.52941,3.52941c-1.94924,0 -3.52941,-1.58017 -3.52941,-3.52941z" fill-opacity="0.8" fill="#503a7f" stroke="none" stroke-width="1" stroke-linecap="butt"/><path d="M310.58824,151.76471v56.47059" fill="#000000" stroke-opacity="0.8" stroke="#a175ff" stroke-width="3.52941" stroke-linecap="round"/><path d="M307.05882,151.76471c0,-1.94924 1.58017,-3.52941 3.52941,-3.52941c1.94924,0 3.52941,1.58017 3.52941,3.52941c0,1.94924 -1.58017,3.52941 -3.52941,3.52941c-1.94924,0 -3.52941,-1.58017 -3.52941,-3.52941z" fill-opacity="0.8" fill="#503a7f" stroke="none" stroke-width="1" stroke-linecap="butt"/><path d="M250.58824,151.76471c0,-1.94924 1.58017,-3.52941 3.52941,-3.52941c1.94924,0 3.52941,1.58017 3.52941,3.52941c0,1.94924 -1.58017,3.52941 -3.52941,3.52941c-1.94924,0 -3.52941,-1.58017 -3.52941,-3.52941z" fill-opacity="0.8" fill="#503a7f" stroke="none" stroke-width="1" stroke-linecap="butt"/><path d="M310.58824,151.76471h-56.47059" fill="#000000" stroke-opacity="0.8" stroke="#a175ff" stroke-width="3.52941" stroke-linecap="round"/><path d="M250.58824,151.76471c0,-1.94924 1.58017,-3.52941 3.52941,-3.52941c1.94924,0 3.52941,1.58017 3.52941,3.52941c0,1.94924 -1.58017,3.52941 -3.52941,3.52941c-1.94924,0 -3.52941,-1.58017 -3.52941,-3.52941z" fill-opacity="0.8" fill="#503a7f" stroke="none" stroke-width="1" stroke-linecap="butt"/><path d="M250.58824,208.23529c0,-1.94924 1.58017,-3.52941 3.52941,-3.52941c1.94924,0 3.52941,1.58017 3.52941,3.52941c0,1.94924 -1.58017,3.52941 -3.52941,3.52941c-1.94924,0 -3.52941,-1.58017 -3.52941,-3.52941z" fill-opacity="0.8" fill="#503a7f" stroke="none" stroke-width="1" stroke-linecap="butt"/><path d="M254.11765,151.76471v56.47059" fill="#000000" stroke-opacity="0.8" stroke="#a175ff" stroke-width="3.52941" stroke-linecap="round"/></g></g></svg>