<svg version="1.1" xmlns="http://www.w3.org/2000/svg" xmlns:xlink="http://www.w3.org/1999/xlink" width="62.36325" height="60.26072" viewBox="0,0,62.36325,60.26072"><defs><linearGradient x1="270.89485" y1="121.10212" x2="270.89485" y2="179.86284" gradientUnits="userSpaceOnUse" id="color-1"><stop offset="0" stop-color="#8a7088"/><stop offset="1" stop-color="#615060"/></linearGradient><radialGradient cx="273.1646" cy="146.4798" r="25.10071" gradientUnits="userSpaceOnUse" id="color-2"><stop offset="0" stop-color="#7b3d62"/><stop offset="1" stop-color="#7b3d62" stop-opacity="0"/></radialGradient><linearGradient x1="270.892" y1="167.57146" x2="270.892" y2="180.14295" gradientUnits="userSpaceOnUse" id="color-3"><stop offset="0" stop-color="#d091ce"/><stop offset="1" stop-color="#674866"/></linearGradient><radialGradient cx="265.83094" cy="134.57131" r="23.5625" gradientUnits="userSpaceOnUse" id="color-4"><stop offset="0" stop-color="#ff9ae8"/><stop offset="1" stop-color="#fcf3ff"/></radialGradient><radialGradient cx="268.20594" cy="140.06511" r="23.0625" gradientUnits="userSpaceOnUse" id="color-5"><stop offset="0" stop-color="#ff9ae8"/><stop offset="1" stop-color="#fcf3ff"/></radialGradient><radialGradient cx="270.08094" cy="146.50284" r="23.1875" gradientUnits="userSpaceOnUse" id="color-6"><stop offset="0" stop-color="#ff9ae8"/><stop offset="1" stop-color="#fcf3ff"/></radialGradient><radialGradient cx="258.89344" cy="155.11251" r="9.5" gradientUnits="userSpaceOnUse" id="color-7"><stop offset="0" stop-color="#ff9ae8"/><stop offset="1" stop-color="#fcf3ff"/></radialGradient><radialGradient cx="260.08094" cy="158.075" r="7.3125" gradientUnits="userSpaceOnUse" id="color-8"><stop offset="0" stop-color="#ff9ae8"/><stop offset="1" stop-color="#fcf3ff"/></radialGradient><radialGradient cx="265.43093" cy="159.97501" r="11.6625" gradientUnits="userSpaceOnUse" id="color-9"><stop offset="0" stop-color="#ff9ae8"/><stop offset="1" stop-color="#fcf3ff"/></radialGradient><radialGradient cx="286.20594" cy="152.5" r="8.5625" gradientUnits="userSpaceOnUse" id="color-10"><stop offset="0" stop-color="#ff9ae8"/><stop offset="1" stop-color="#fcf3ff"/></radialGradient><radialGradient cx="289.95594" cy="153.0625" r="6.8125" gradientUnits="userSpaceOnUse" id="color-11"><stop offset="0" stop-color="#ff9ae8"/><stop offset="1" stop-color="#fcf3ff"/></radialGradient><radialGradient cx="292.14344" cy="154.5625" r="6" gradientUnits="userSpaceOnUse" id="color-12"><stop offset="0" stop-color="#ff9ae8"/><stop offset="1" stop-color="#fcf3ff"/></radialGradient><radialGradient cx="254.45594" cy="147.75" r="13.75" gradientUnits="userSpaceOnUse" id="color-13"><stop offset="0" stop-color="#ff9ae8"/><stop offset="1" stop-color="#fcf3ff"/></radialGradient><radialGradient cx="260.05253" cy="147.5625" r="14.3125" gradientUnits="userSpaceOnUse" id="color-14"><stop offset="0" stop-color="#ff9ae8"/><stop offset="1" stop-color="#fcf3ff"/></radialGradient><radialGradient cx="262.78094" cy="146.73751" r="13.3625" gradientUnits="userSpaceOnUse" id="color-15"><stop offset="0" stop-color="#ff9ae8"/><stop offset="1" stop-color="#fcf3ff"/></radialGradient><radialGradient cx="267.58094" cy="146.5625" r="14.6875" gradientUnits="userSpaceOnUse" id="color-16"><stop offset="0" stop-color="#ff9ae8"/><stop offset="1" stop-color="#fcf3ff"/></radialGradient><radialGradient cx="273.14344" cy="146.3125" r="14.8125" gradientUnits="userSpaceOnUse" id="color-17"><stop offset="0" stop-color="#ff9ae8"/><stop offset="1" stop-color="#fcf3ff"/></radialGradient><radialGradient cx="279.76844" cy="143.5" r="13.875" gradientUnits="userSpaceOnUse" id="color-18"><stop offset="0" stop-color="#ff9ae8"/><stop offset="1" stop-color="#fcf3ff"/></radialGradient><radialGradient cx="286.58094" cy="140.5" r="12" gradientUnits="userSpaceOnUse" id="color-19"><stop offset="0" stop-color="#ff9ae8"/><stop offset="1" stop-color="#fcf3ff"/></radialGradient><radialGradient cx="279.01844" cy="157.26038" r="22" gradientUnits="userSpaceOnUse" id="color-20"><stop offset="0" stop-color="#ff9ae8"/><stop offset="1" stop-color="#fcf3ff"/></radialGradient></defs><g transform="translate(-239.71327,-120.35212)"><g data-paper-data="{&quot;isPaintingLayer&quot;:true}" fill-rule="nonzero" stroke-linejoin="miter" stroke-miterlimit="10" stroke-dasharray="" stroke-dashoffset="0" style="mix-blend-mode: normal"><path d="M240.46327,179.86284v-58.76072h60.86325v58.76072z" fill="url(#color-1)" stroke="#bf86bd" stroke-width="1.5" stroke-linecap="butt"/><path d="M265.85267,162.93378c-13.86274,0 -23.78196,-17.08187 -23.78196,-28.3946c0,-5.3343 23.71827,-2.23205 24.01843,-2.25501c12.90627,-0.98693 21.31133,-5.22937 21.58341,-5.22937c3.94276,0 2.92953,6.6159 5.38782,12.85653c1.9806,5.02796 8.23219,9.32987 5.64789,13.43763c-5.48601,8.72004 -26.11223,9.58482 -32.8556,9.58482z" fill="url(#color-2)" stroke="none" stroke-width="0" stroke-linecap="butt"/><path d="M239.96343,180.14295v-12.57143h61.85715v12.57143z" fill="url(#color-3)" stroke="none" stroke-width="0" stroke-linecap="butt"/><path d="M289.39344,131.25c0,0 -9.79415,4.09313 -18.29829,5.44652c-9.00846,1.43365 -27.70171,1.05348 -27.70171,1.05348" fill="none" stroke="url(#color-4)" stroke-width="1" stroke-linecap="round"/><path d="M291.26844,135.75c0,0 -14.11169,7.26544 -22.37428,8.62944c-6.51265,0.04999 -23.75072,-2.37944 -23.75072,-2.37944" fill="none" stroke="url(#color-5)" stroke-width="1" stroke-linecap="round"/><path d="M293.26844,140.25001c0,0 -6.14906,3.46028 -11.68934,7.09253c-3.23962,2.12392 -5.20171,5.04698 -8.43494,5.4119c-9.40945,0.07344 -10.43465,-3.11023 -16.37355,-4.76225c-5.38517,-1.49799 -9.87717,-1.86719 -9.87717,-1.86719" fill="none" stroke="url(#color-6)" stroke-width="1" stroke-linecap="round"/><path d="M248.75707,150.36365c0,0 9.36457,2.02889 12.84704,3.8371c2.9167,1.51444 6.78933,6.02426 6.78933,6.02426" fill="none" stroke="url(#color-7)" stroke-width="1" stroke-linecap="round"/><path d="M252.76844,156.125c0,0 6.60399,0.82621 9.08934,1.58069c2.12446,0.64493 5.53566,2.31931 5.53566,2.31931" fill="none" stroke="url(#color-8)" stroke-width="1" stroke-linecap="round"/><path d="M254.49571,158.75l22.59773,2.45" fill="none" stroke="url(#color-9)" stroke-width="1" stroke-linecap="round"/><path d="M277.64344,160.75c0,0 3.7287,-5.30156 6.38685,-7.8627c3.00705,-2.8973 10.73815,-8.6373 10.73815,-8.6373" fill="none" stroke="url(#color-10)" stroke-width="1" stroke-linecap="round"/><path d="M283.14344,159.5c0,0 2.27359,-3.10715 4.13779,-4.86874c2.49244,-2.35523 8.94175,-7.64262 8.94175,-7.64262" fill="none" stroke="url(#color-11)" stroke-width="1" stroke-linecap="round"/><path d="M286.14344,158.46592c0,0 3.10589,-2.43943 4.88738,-3.57143c2.14913,-1.36559 7.11262,-4.14448 7.11262,-4.14448" fill="none" stroke="url(#color-12)" stroke-width="1" stroke-linecap="round"/><path d="M256.85934,161.42046c0,0 -4.89378,-5.28898 -7.16123,-9.32616c-2.76007,-4.91428 -7.42968,-17.84429 -7.42968,-17.84429" fill="none" stroke="#fcf3ff" stroke-width="1" stroke-linecap="round"/><path d="M299.64344,154.375c0,0 -1.84626,-5.02071 -3.89682,-8.86336c-2.71748,-5.09242 -8.35318,-18.79573 -8.35318,-18.79573" fill="none" stroke="#fcf3ff" stroke-width="1" stroke-linecap="round"/><path d="M261.89344,161.50001c0,0 -5.39112,-6.95522 -7.80291,-11.414c-2.53991,-4.69563 -7.07209,-16.08601 -7.07209,-16.08601" fill="none" stroke="url(#color-13)" stroke-width="1" stroke-linecap="round"/><path d="M266.87071,161.60228c0,0 -4.46952,-3.3347 -6.6576,-7.80854c-2.44911,-5.00755 -6.97876,-20.45282 -6.97876,-20.45282" fill="none" stroke="url(#color-14)" stroke-width="1" stroke-linecap="round"/><path d="M266.88435,161.10001l-8.11591,-27.725" fill="none" stroke="url(#color-15)" stroke-width="1" stroke-linecap="round"/><path d="M264.42753,132.32956c0,0 2.75473,10.04796 3.7986,15.05427c0.9955,4.77434 2.41731,13.86618 2.41731,13.86618" fill="none" stroke="url(#color-16)" stroke-width="1" stroke-linecap="round"/><path d="M270.01844,131.5c0,0 3.32188,11.00572 4.40608,16.14481c0.99069,4.69589 1.84392,13.48019 1.84392,13.48019" fill="none" stroke="url(#color-17)" stroke-width="1" stroke-linecap="round"/><path d="M283.38207,158.92046c0,0 -2.29445,-7.79551 -3.56893,-12.0751c-1.4702,-4.9368 -4.02198,-16.49308 -4.02198,-16.49308" fill="none" stroke="url(#color-18)" stroke-width="1" stroke-linecap="round"/><path d="M293.70026,155.59092c0,0 -5.31095,-8.7307 -6.79791,-12.34457c-1.75884,-4.27465 -5.07709,-14.47361 -5.07709,-14.47361" fill="none" stroke="url(#color-19)" stroke-width="1" stroke-linecap="round"/><path d="M287.43511,127.00001c0,0 -8.95441,2.92528 -17.07677,4.32212c-9.18993,1.58043 -28.00657,2.92788 -28.00657,2.92788" fill="none" stroke="#fcf3ff" stroke-width="1" stroke-linecap="round"/><path d="M299.24571,154.375c0,0 -13.32672,5.20984 -20.74416,6.66383c-7.24517,1.42022 -21.48311,0.33617 -21.48311,0.33617" fill="none" stroke="url(#color-20)" stroke-width="1" stroke-linecap="round"/></g></g></svg>