<svg width="480px" height="360px" xmlns="http://www.w3.org/2000/svg"><path fill="#F00" d="M252.034 175.140L252.034 175.140Q252.034 176.193 251.605 177.117Q251.177 178.041 250.320 178.733Q249.463 179.425 248.165 179.822Q246.868 180.220 245.142 180.220L245.142 180.220Q244.187 180.220 243.428 180.159Q242.669 180.098 242.008 180L242.008 180L242.008 178.090Q242.767 178.225 243.611 178.298Q244.456 178.372 245.337 178.372L245.337 178.372Q246.537 178.372 247.388 178.158Q248.239 177.943 248.777 177.539Q249.316 177.135 249.561 176.560Q249.806 175.985 249.806 175.262L249.806 175.262Q249.806 174.601 249.512 174.112Q249.218 173.622 248.686 173.292Q248.153 172.961 247.412 172.796Q246.672 172.630 245.790 172.630L245.790 172.630L243.966 172.630L243.966 170.880L245.815 170.880Q246.537 170.880 247.131 170.690Q247.725 170.500 248.147 170.145Q248.569 169.790 248.796 169.270Q249.022 168.750 249.022 168.089L249.022 168.089Q249.022 166.803 248.239 166.216Q247.455 165.628 245.937 165.628L245.937 165.628Q245.129 165.628 244.272 165.787Q243.415 165.946 242.436 166.265L242.436 166.265L242.436 164.404Q242.852 164.257 243.324 164.141Q243.795 164.024 244.266 163.945Q244.738 163.865 245.203 163.822Q245.668 163.780 246.096 163.780L246.096 163.780Q247.370 163.780 248.337 164.055Q249.304 164.331 249.953 164.845Q250.601 165.359 250.932 166.093Q251.262 166.828 251.262 167.746L251.262 167.746Q251.262 169.117 250.559 170.047Q249.855 170.978 248.630 171.529L248.630 171.529Q249.255 171.627 249.861 171.920Q250.467 172.214 250.950 172.673Q251.434 173.132 251.734 173.757Q252.034 174.381 252.034 175.140Z"/></svg>