<svg version="1.1" xmlns="http://www.w3.org/2000/svg" xmlns:xlink="http://www.w3.org/1999/xlink" width="62.44658" height="60.26072" viewBox="0,0,62.44658,60.26072"><defs><linearGradient x1="271.06156" y1="121.10231" x2="271.06156" y2="179.86302" gradientUnits="userSpaceOnUse" id="color-1"><stop offset="0" stop-color="#545f96"/><stop offset="1" stop-color="#2a3569"/></linearGradient><linearGradient x1="270.89207" y1="167.57145" x2="270.89207" y2="180.14315" gradientUnits="userSpaceOnUse" id="color-2"><stop offset="0" stop-color="#5a76ff"/><stop offset="1" stop-color="#2843c8"/></linearGradient><linearGradient x1="272.87028" y1="128.74719" x2="271.4217" y2="140.52731" gradientUnits="userSpaceOnUse" id="color-3"><stop offset="0" stop-color="#8bd9ff"/><stop offset="1" stop-color="#ffffff"/></linearGradient><radialGradient cx="258.45904" cy="127.89911" r="22.72531" gradientUnits="userSpaceOnUse" id="color-4"><stop offset="0" stop-color="#bfe3ff"/><stop offset="1" stop-color="#bfe3ff" stop-opacity="0"/></radialGradient><radialGradient cx="252.0814" cy="133.22595" r="3" gradientUnits="userSpaceOnUse" id="color-5"><stop offset="0" stop-color="#d4e4ff"/><stop offset="1" stop-color="#d4e4ff" stop-opacity="0"/></radialGradient><radialGradient cx="252.0814" cy="133.22595" r="3" gradientUnits="userSpaceOnUse" id="color-6"><stop offset="0" stop-color="#bfe3ff"/><stop offset="1" stop-color="#bfe3ff" stop-opacity="0"/></radialGradient><radialGradient cx="273.49607" cy="127.04339" r="3" gradientUnits="userSpaceOnUse" id="color-7"><stop offset="0" stop-color="#d4e4ff"/><stop offset="1" stop-color="#d4e4ff" stop-opacity="0"/></radialGradient><radialGradient cx="273.49607" cy="127.04339" r="3" gradientUnits="userSpaceOnUse" id="color-8"><stop offset="0" stop-color="#bfe3ff"/><stop offset="1" stop-color="#bfe3ff" stop-opacity="0"/></radialGradient><radialGradient cx="291.71004" cy="138.06134" r="3" gradientUnits="userSpaceOnUse" id="color-9"><stop offset="0" stop-color="#d4e4ff"/><stop offset="1" stop-color="#d4e4ff" stop-opacity="0"/></radialGradient><radialGradient cx="291.71004" cy="138.06134" r="3" gradientUnits="userSpaceOnUse" id="color-10"><stop offset="0" stop-color="#bfe3ff"/><stop offset="1" stop-color="#bfe3ff" stop-opacity="0"/></radialGradient><radialGradient cx="250.1578" cy="151.15512" r="3" gradientUnits="userSpaceOnUse" id="color-11"><stop offset="0" stop-color="#d4e4ff"/><stop offset="1" stop-color="#d4e4ff" stop-opacity="0"/></radialGradient><radialGradient cx="250.1578" cy="151.15512" r="3" gradientUnits="userSpaceOnUse" id="color-12"><stop offset="0" stop-color="#bfe3ff"/><stop offset="1" stop-color="#bfe3ff" stop-opacity="0"/></radialGradient><radialGradient cx="268.75862" cy="161.47256" r="3" gradientUnits="userSpaceOnUse" id="color-13"><stop offset="0" stop-color="#d4e4ff"/><stop offset="1" stop-color="#d4e4ff" stop-opacity="0"/></radialGradient><radialGradient cx="268.75862" cy="161.47256" r="3" gradientUnits="userSpaceOnUse" id="color-14"><stop offset="0" stop-color="#bfe3ff"/><stop offset="1" stop-color="#bfe3ff" stop-opacity="0"/></radialGradient><radialGradient cx="288.70257" cy="155.72305" r="3" gradientUnits="userSpaceOnUse" id="color-15"><stop offset="0" stop-color="#d4e4ff"/><stop offset="1" stop-color="#d4e4ff" stop-opacity="0"/></radialGradient><radialGradient cx="288.70257" cy="155.72305" r="3" gradientUnits="userSpaceOnUse" id="color-16"><stop offset="0" stop-color="#bfe3ff"/><stop offset="1" stop-color="#bfe3ff" stop-opacity="0"/></radialGradient><radialGradient cx="270.89447" cy="144.10338" r="5.75" gradientUnits="userSpaceOnUse" id="color-17"><stop offset="0" stop-color="#d4e4ff"/><stop offset="1" stop-color="#d4e4ff" stop-opacity="0"/></radialGradient><radialGradient cx="270.89447" cy="144.10338" r="5.75" gradientUnits="userSpaceOnUse" id="color-18"><stop offset="0" stop-color="#bfe3ff"/><stop offset="1" stop-color="#bfe3ff" stop-opacity="0"/></radialGradient><linearGradient x1="260.69128" y1="134.51355" x2="259.58496" y2="143.51033" gradientUnits="userSpaceOnUse" id="color-19"><stop offset="0" stop-color="#ffffff"/><stop offset="1" stop-color="#8bd9ff"/></linearGradient><radialGradient cx="257.25841" cy="121.54811" r="22.7253" gradientUnits="userSpaceOnUse" id="color-20"><stop offset="0" stop-color="#bfe3ff"/><stop offset="1" stop-color="#bfe3ff" stop-opacity="0"/></radialGradient><linearGradient x1="282.55368" y1="137.37507" x2="281.44736" y2="146.37186" gradientUnits="userSpaceOnUse" id="color-21"><stop offset="0" stop-color="#ffffff"/><stop offset="1" stop-color="#8bd9ff"/></linearGradient><radialGradient cx="289.02545" cy="125.62758" r="22.72531" gradientUnits="userSpaceOnUse" id="color-22"><stop offset="0" stop-color="#bfe3ff"/><stop offset="1" stop-color="#bfe3ff" stop-opacity="0"/></radialGradient><linearGradient x1="260.2114" y1="142.75571" x2="259.10508" y2="151.7525" gradientUnits="userSpaceOnUse" id="color-23"><stop offset="0" stop-color="#8bd9ff"/><stop offset="1" stop-color="#ffffff"/></linearGradient><radialGradient cx="252.6333" cy="163.5" r="22.72531" gradientUnits="userSpaceOnUse" id="color-24"><stop offset="0" stop-color="#bfe3ff"/><stop offset="1" stop-color="#bfe3ff" stop-opacity="0"/></radialGradient><linearGradient x1="281.24992" y1="144.86868" x2="280.1436" y2="153.86547" gradientUnits="userSpaceOnUse" id="color-25"><stop offset="0" stop-color="#8bd9ff"/><stop offset="1" stop-color="#ffffff"/></linearGradient><radialGradient cx="283.57646" cy="166.83092" r="22.72531" gradientUnits="userSpaceOnUse" id="color-26"><stop offset="0" stop-color="#bfe3ff"/><stop offset="1" stop-color="#bfe3ff" stop-opacity="0"/></radialGradient><linearGradient x1="270.18036" y1="148.16404" x2="268.73177" y2="159.94417" gradientUnits="userSpaceOnUse" id="color-27"><stop offset="0" stop-color="#8bd9ff"/><stop offset="1" stop-color="#ffffff"/></linearGradient><radialGradient cx="254.54441" cy="157.27554" r="22.72531" gradientUnits="userSpaceOnUse" id="color-28"><stop offset="0" stop-color="#bfe3ff"/><stop offset="1" stop-color="#bfe3ff" stop-opacity="0"/></radialGradient></defs><g transform="translate(-239.79672,-120.35229)"><g data-paper-data="{&quot;isPaintingLayer&quot;:true}" fill-rule="nonzero" stroke-linecap="butt" stroke-linejoin="miter" stroke-miterlimit="10" stroke-dasharray="" stroke-dashoffset="0" style="mix-blend-mode: normal"><path d="M240.54673,179.86302v-58.76072h60.94658v58.76072z" fill="url(#color-1)" stroke="#2843c8" stroke-width="1.5"/><path d="M239.9636,180.14315v-12.57143h61.85715v12.57143z" fill="url(#color-2)" stroke="none" stroke-width="0"/><path d="M273.91379,128.87552c0,0 -1.59266,3.37941 -1.65037,6.26832c-0.0622,3.1135 1.40465,5.74958 1.2386,5.63737c-0.80107,-0.54133 -4.17957,-0.80289 -4.17957,-0.80289c0,0 2.66895,-9.02644 2.99445,-11.29821" fill="url(#color-3)" stroke="url(#color-4)" stroke-width="1.5"/><path d="M249.10384,132.8598c0.20222,-1.64447 1.69924,-2.81365 3.34372,-2.61142c1.64448,0.20222 2.81365,1.69924 2.61142,3.34372c-0.20222,1.64448 -1.69924,2.81365 -3.34372,2.61142c-1.64447,-0.20222 -2.81365,-1.69924 -2.61142,-3.34372z" fill="url(#color-5)" stroke="url(#color-6)" stroke-width="2.5"/><path d="M270.51851,126.67725c0.20222,-1.64446 1.69924,-2.81364 3.34371,-2.61142c1.64448,0.20222 2.81364,1.69926 2.61142,3.34372c-0.20222,1.64447 -1.69924,2.81364 -3.34371,2.61142c-1.64447,-0.20222 -2.81365,-1.69924 -2.61142,-3.34371z" fill="url(#color-7)" stroke="url(#color-8)" stroke-width="2.5"/><path d="M288.73248,137.69519c0.20222,-1.64447 1.69924,-2.81365 3.34371,-2.61142c1.64448,0.20222 2.81365,1.69925 2.61143,3.34372c-0.20222,1.64448 -1.69924,2.81365 -3.34372,2.61142c-1.64447,-0.20222 -2.81365,-1.69925 -2.61142,-3.34372z" fill="url(#color-9)" stroke="url(#color-10)" stroke-width="2.5"/><path d="M247.18023,150.78898c0.20222,-1.64447 1.69924,-2.81365 3.34372,-2.61143c1.64448,0.20222 2.81365,1.69925 2.61142,3.34372c-0.20222,1.64448 -1.69924,2.81364 -3.34372,2.61142c-1.64447,-0.20222 -2.81365,-1.69924 -2.61142,-3.34372z" fill="url(#color-11)" stroke="url(#color-12)" stroke-width="2.5"/><path d="M265.78104,161.10641c0.20222,-1.64447 1.69924,-2.81365 3.34372,-2.61142c1.64448,0.20222 2.81365,1.69924 2.61142,3.34372c-0.20222,1.64448 -1.69924,2.81365 -3.34372,2.61143c-1.64447,-0.20222 -2.81365,-1.69925 -2.61142,-3.34372z" fill="url(#color-13)" stroke="url(#color-14)" stroke-width="2.5"/><path d="M285.72499,155.3569c0.20222,-1.64447 1.69924,-2.81365 3.34372,-2.61142c1.64448,0.20222 2.81365,1.69924 2.61143,3.34372c-0.20222,1.64448 -1.69925,2.81365 -3.34372,2.61142c-1.64447,-0.20222 -2.81365,-1.69924 -2.61142,-3.34372z" fill="url(#color-15)" stroke="url(#color-16)" stroke-width="2.5"/><path d="M265.18746,143.40159c0.38759,-3.15189 3.25691,-5.39281 6.40879,-5.00522c3.1519,0.38758 5.39282,3.2569 5.00524,6.40879c-0.38758,3.1519 -3.25691,5.39281 -6.40879,5.00523c-3.15189,-0.38759 -5.39282,-3.25691 -5.00524,-6.4088z" fill="url(#color-17)" stroke="url(#color-18)" stroke-width="2.5"/><path d="M253.91429,133.68019c1.8291,0.64124 4.15838,3.79116 6.40711,4.82604c4.12419,1.89799 7.97746,1.7467 7.97746,1.7467l-2.15934,4.06341l-13.7663,-9.76444" data-paper-data="{&quot;index&quot;:null}" fill="url(#color-19)" stroke="url(#color-20)" stroke-width="1.5"/><path d="M290.61464,139.42752l-15.72184,6.13834l-1.11055,-4.4655c0,0 4.18905,1.52353 7.48022,0.84898c3.16691,-0.64908 5.38605,-3.49216 8.0682,-3.74091" data-paper-data="{&quot;index&quot;:null}" fill="url(#color-21)" stroke="url(#color-22)" stroke-width="1.5"/><path d="M251.04412,149.70005l15.72185,-6.13834l1.11056,4.4655c0,0 -4.55805,-1.41008 -8.69164,-0.60715c-2.6879,0.52211 -4.70161,3.2992 -6.85679,3.49908" data-paper-data="{&quot;index&quot;:null}" fill="url(#color-23)" stroke="url(#color-24)" stroke-width="1.5"/><path d="M286.92059,154.69882c-1.83373,-0.64286 -3.31302,-4.08197 -5.56702,-5.11961c-4.11775,-1.89562 -8.81755,-1.45313 -8.81755,-1.45313l2.15934,-4.0634l13.7663,9.76444" data-paper-data="{&quot;index&quot;:null}" fill="url(#color-25)" stroke="url(#color-26)" stroke-width="1.5"/><path d="M268.17861,159.87519c0.23458,-2.28295 -0.16799,-11.68708 -0.16799,-11.68708c0,0 3.34122,0.56475 4.24957,0.23361c0.16636,-0.06064 -2.05596,2.09561 -2.65519,4.75907c-0.7083,3.14826 0.17027,6.8917 0.17027,6.8917" data-paper-data="{&quot;index&quot;:null}" fill="url(#color-27)" stroke="url(#color-28)" stroke-width="1.5"/></g></g></svg>