<svg width="480px" height="360px" xmlns="http://www.w3.org/2000/svg"><path fill="#F00" d="M252.536 174.932L252.536 174.932Q252.536 176.034 252.138 177.001Q251.740 177.968 251.005 178.684Q250.271 179.400 249.236 179.810Q248.202 180.220 246.941 180.220L246.941 180.220Q245.619 180.220 244.603 179.798Q243.587 179.376 242.901 178.500Q242.216 177.625 241.861 176.291Q241.506 174.956 241.506 173.132L241.506 173.132Q241.506 171.908 241.665 170.757Q241.824 169.607 242.191 168.591Q242.559 167.575 243.171 166.730Q243.783 165.885 244.695 165.279Q245.607 164.673 246.843 164.337Q248.080 164 249.708 164L249.708 164L251.287 164L251.287 165.861L249.573 165.861Q248.141 165.861 247.088 166.204Q246.035 166.546 245.325 167.171Q244.615 167.795 244.236 168.676Q243.856 169.558 243.758 170.647L243.758 170.647L243.709 171.149Q244.480 170.696 245.490 170.421Q246.500 170.145 247.676 170.145L247.676 170.145Q248.888 170.145 249.800 170.500Q250.712 170.855 251.318 171.486Q251.923 172.116 252.230 172.998Q252.536 173.879 252.536 174.932ZM250.308 175.067L250.308 175.067Q250.308 174.332 250.130 173.738Q249.953 173.145 249.573 172.735Q249.194 172.324 248.612 172.098Q248.031 171.871 247.223 171.871L247.223 171.871Q246.757 171.871 246.280 171.957Q245.803 172.043 245.344 172.196Q244.884 172.349 244.468 172.545Q244.052 172.741 243.709 172.961L243.709 172.961Q243.709 174.540 243.930 175.599Q244.150 176.658 244.585 177.295Q245.019 177.931 245.656 178.200Q246.292 178.470 247.125 178.470L247.125 178.470Q247.822 178.470 248.404 178.243Q248.985 178.017 249.408 177.576Q249.830 177.135 250.069 176.505Q250.308 175.875 250.308 175.067Z"/></svg>