<svg version="1.1" xmlns="http://www.w3.org/2000/svg" xmlns:xlink="http://www.w3.org/1999/xlink" width="62.36325" height="60.26072" viewBox="0,0,62.36325,60.26072"><defs><linearGradient x1="270.89485" y1="121.10213" x2="270.89485" y2="179.86284" gradientUnits="userSpaceOnUse" id="color-1"><stop offset="0" stop-color="#005761"/><stop offset="1" stop-color="#223f47"/></linearGradient><linearGradient x1="270.892" y1="167.57145" x2="270.892" y2="180.14296" gradientUnits="userSpaceOnUse" id="color-2"><stop offset="0" stop-color="#20a3ab"/><stop offset="1" stop-color="#15696d"/></linearGradient><radialGradient cx="271.5997" cy="144.30844" r="9.357" gradientUnits="userSpaceOnUse" id="color-3"><stop offset="0" stop-color="#86ffed"/><stop offset="1" stop-color="#00c5bc"/></radialGradient><linearGradient x1="254.718" y1="129.17285" x2="254.718" y2="140.32871" gradientUnits="userSpaceOnUse" id="color-4"><stop offset="0" stop-color="#98e1ff"/><stop offset="1" stop-color="#98e1ff" stop-opacity="0"/></linearGradient><linearGradient x1="250.12288" y1="124.58554" x2="255.33107" y2="130.92624" gradientUnits="userSpaceOnUse" id="color-5"><stop offset="0" stop-color="#98e1ff"/><stop offset="1" stop-color="#98e1ff" stop-opacity="0"/></linearGradient><linearGradient x1="292.67184" y1="133.68108" x2="281.51599" y2="133.68108" gradientUnits="userSpaceOnUse" id="color-6"><stop offset="0" stop-color="#98e1ff"/><stop offset="1" stop-color="#98e1ff" stop-opacity="0"/></linearGradient><linearGradient x1="297.25915" y1="129.08596" x2="290.91846" y2="134.29415" gradientUnits="userSpaceOnUse" id="color-7"><stop offset="0" stop-color="#98e1ff"/><stop offset="1" stop-color="#98e1ff" stop-opacity="0"/></linearGradient><linearGradient x1="249.87643" y1="155.34891" x2="261.03229" y2="155.34891" gradientUnits="userSpaceOnUse" id="color-8"><stop offset="0" stop-color="#98e1ff"/><stop offset="1" stop-color="#98e1ff" stop-opacity="0"/></linearGradient><linearGradient x1="245.28912" y1="159.94404" x2="251.62982" y2="154.73584" gradientUnits="userSpaceOnUse" id="color-9"><stop offset="0" stop-color="#98e1ff"/><stop offset="1" stop-color="#98e1ff" stop-opacity="0"/></linearGradient><linearGradient x1="287.16361" y1="161.74604" x2="287.16361" y2="150.59019" gradientUnits="userSpaceOnUse" id="color-10"><stop offset="0" stop-color="#98e1ff"/><stop offset="1" stop-color="#98e1ff" stop-opacity="0"/></linearGradient><linearGradient x1="291.75874" y1="166.33335" x2="286.55054" y2="159.99266" gradientUnits="userSpaceOnUse" id="color-11"><stop offset="0" stop-color="#98e1ff"/><stop offset="1" stop-color="#98e1ff" stop-opacity="0"/></linearGradient></defs><g transform="translate(-239.71327,-120.35211)"><g data-paper-data="{&quot;isPaintingLayer&quot;:true}" fill-rule="nonzero" stroke-linejoin="miter" stroke-miterlimit="10" stroke-dasharray="" stroke-dashoffset="0" style="mix-blend-mode: normal"><path d="M240.46327,179.86284v-58.76072h60.86325v58.76072z" fill="url(#color-1)" stroke="#166f73" stroke-width="1.5" stroke-linecap="butt"/><path d="M239.96343,180.14296v-12.57143h61.85715v12.57143z" fill="url(#color-2)" stroke="none" stroke-width="0" stroke-linecap="butt"/><path d="M262.24271,144.30844c0,-5.16772 4.18926,-9.35699 9.35699,-9.35699c5.16773,0 9.357,4.18927 9.357,9.35699c0,5.16772 -4.18927,9.357 -9.357,9.357c-5.16773,0 -9.35699,-4.18927 -9.35699,-9.357z" fill="url(#color-3)" stroke="none" stroke-width="0" stroke-linecap="butt"/><path d="M260.29593,140.32871l-11.15586,-11.15586" fill="none" stroke="url(#color-4)" stroke-width="2" stroke-linecap="round"/><path d="M249.01334,133.63991l-1.8721,-6.60528l7.00776,2.86508" fill="none" stroke="url(#color-5)" stroke-width="2" stroke-linecap="round"/><path d="M281.51599,139.25901l11.15586,-11.15586" fill="none" stroke="url(#color-6)" stroke-width="2" stroke-linecap="round"/><path d="M288.20478,127.97642l6.60528,-1.8721l-2.86508,7.00776" fill="none" stroke="url(#color-7)" stroke-width="2" stroke-linecap="round"/><g fill="none" stroke-width="2" stroke-linecap="round"><path d="M261.03229,149.77099l-11.15586,11.15586" stroke="url(#color-8)"/><path d="M254.34349,161.05358l-6.60528,1.8721l2.86508,-7.00776" stroke="url(#color-9)"/></g><g fill="none" stroke-width="2" stroke-linecap="round"><path d="M281.58569,150.59019l11.15585,11.15586" stroke="url(#color-10)"/><path d="M292.86828,157.27898l1.8721,6.60528l-7.00776,-2.86508" stroke="url(#color-11)"/></g></g></g></svg>