<svg version="1.1" xmlns="http://www.w3.org/2000/svg" xmlns:xlink="http://www.w3.org/1999/xlink" width="65.89007" height="60.26072" viewBox="0,0,65.89007,60.26072"><defs><linearGradient x1="271.06156" y1="121.10225" x2="271.06156" y2="179.86296" gradientUnits="userSpaceOnUse" id="color-1"><stop offset="0" stop-color="#8c896b"/><stop offset="1" stop-color="#52503f"/></linearGradient><linearGradient x1="270.89207" y1="167.57145" x2="270.89207" y2="180.14309" gradientUnits="userSpaceOnUse" id="color-2"><stop offset="0" stop-color="#aba682"/><stop offset="1" stop-color="#848064"/></linearGradient><radialGradient cx="287.38219" cy="136.26398" r="11.80681" gradientUnits="userSpaceOnUse" id="color-3"><stop offset="0" stop-color="#ff8a82"/><stop offset="1" stop-color="#ff8a82" stop-opacity="0"/></radialGradient><radialGradient cx="270.39349" cy="145.45819" r="10.16698" gradientUnits="userSpaceOnUse" id="color-4"><stop offset="0" stop-color="#fff5b5"/><stop offset="1" stop-color="#fff5b5" stop-opacity="0"/></radialGradient><radialGradient cx="270.3935" cy="145.45819" r="11.31034" gradientUnits="userSpaceOnUse" id="color-5"><stop offset="0" stop-color="#ffffff"/><stop offset="1" stop-color="#ffffff" stop-opacity="0"/></radialGradient><radialGradient cx="287.51338" cy="140.13139" r="9.97019" gradientUnits="userSpaceOnUse" id="color-6"><stop offset="0" stop-color="#ff8880"/><stop offset="1" stop-color="#ff8880" stop-opacity="0"/></radialGradient><radialGradient cx="287.77574" cy="152.65943" r="11.80681" gradientUnits="userSpaceOnUse" id="color-7"><stop offset="0" stop-color="#ff8a82"/><stop offset="1" stop-color="#ff8a82" stop-opacity="0"/></radialGradient><radialGradient cx="287.90693" cy="148.79203" r="9.9702" gradientUnits="userSpaceOnUse" id="color-8"><stop offset="0" stop-color="#ff8880"/><stop offset="1" stop-color="#ff8880" stop-opacity="0"/></radialGradient><radialGradient cx="290.66186" cy="143.92583" r="10.36376" gradientUnits="userSpaceOnUse" id="color-9"><stop offset="0" stop-color="#ff867d"/><stop offset="1" stop-color="#ff867d" stop-opacity="0"/></radialGradient><radialGradient cx="289.58306" cy="157.62953" r="13.99023" gradientUnits="userSpaceOnUse" id="color-10"><stop offset="0" stop-color="#ffc3bf"/><stop offset="1" stop-color="#ffc3bf" stop-opacity="0"/></radialGradient><radialGradient cx="254.40398" cy="136.38898" r="11.80681" gradientUnits="userSpaceOnUse" id="color-11"><stop offset="0" stop-color="#73ffe8"/><stop offset="1" stop-color="#73ffe8" stop-opacity="0"/></radialGradient><radialGradient cx="254.27279" cy="140.13139" r="9.97019" gradientUnits="userSpaceOnUse" id="color-12"><stop offset="0" stop-color="#73ffe8"/><stop offset="1" stop-color="#73ffe8" stop-opacity="0"/></radialGradient><radialGradient cx="254.01042" cy="152.78443" r="11.80682" gradientUnits="userSpaceOnUse" id="color-13"><stop offset="0" stop-color="#73ffe8"/><stop offset="1" stop-color="#73ffe8" stop-opacity="0"/></radialGradient><radialGradient cx="253.87923" cy="148.79203" r="9.9702" gradientUnits="userSpaceOnUse" id="color-14"><stop offset="0" stop-color="#73ffe8"/><stop offset="1" stop-color="#73ffe8" stop-opacity="0"/></radialGradient><radialGradient cx="250.99931" cy="143.92583" r="10.36375" gradientUnits="userSpaceOnUse" id="color-15"><stop offset="0" stop-color="#52ffe2"/><stop offset="1" stop-color="#52ffe2" stop-opacity="0"/></radialGradient><radialGradient cx="252.32811" cy="157.50453" r="13.99024" gradientUnits="userSpaceOnUse" id="color-16"><stop offset="0" stop-color="#bffff4"/><stop offset="1" stop-color="#bffff4" stop-opacity="0"/></radialGradient><radialGradient cx="252.32811" cy="131.01232" r="13.99024" gradientUnits="userSpaceOnUse" id="color-17"><stop offset="0" stop-color="#bffff4"/><stop offset="1" stop-color="#bffff4" stop-opacity="0"/></radialGradient><radialGradient cx="289.58306" cy="131.13732" r="13.99023" gradientUnits="userSpaceOnUse" id="color-18"><stop offset="0" stop-color="#ffc3bf"/><stop offset="1" stop-color="#ffc3bf" stop-opacity="0"/></radialGradient></defs><g transform="translate(-237.88555,-120.35223)"><g data-paper-data="{&quot;isPaintingLayer&quot;:true}" fill-rule="nonzero" stroke-linejoin="miter" stroke-miterlimit="10" stroke-dasharray="" stroke-dashoffset="0" style="mix-blend-mode: normal"><path d="M240.54669,179.86296v-58.76072h60.94658v58.76072z" fill="url(#color-1)" stroke="#c0bb92" stroke-width="1.5" stroke-linecap="butt"/><path d="M239.96354,180.14309v-12.57143h61.85715v12.57143z" fill="url(#color-2)" stroke="none" stroke-width="0" stroke-linecap="butt"/><path d="M288.16931,125.39146c0,0 5.04755,-1.21634 5.78653,5.0211c0.42843,3.61614 -18.38046,11.90793 -18.38046,11.90793" data-paper-data="{&quot;index&quot;:null}" fill="none" stroke="url(#color-3)" stroke-width="5.5" stroke-linecap="round"/><path d="M260.22652,145.45819c0,-6.24653 4.5519,-11.31034 10.16697,-11.31034c5.61507,0 10.16698,5.06381 10.16698,11.31034c0,6.24653 -4.55191,11.31035 -10.16698,11.31035c-5.61507,0 -10.16697,-5.06382 -10.16697,-11.31035z" fill="url(#color-4)" stroke="url(#color-5)" stroke-width="8" stroke-linecap="butt"/><path d="M277.54318,142.75831c0,0 10.51099,-1.26623 13.69917,-3.67855c5.71111,-4.32127 5.32292,-7.99665 5.32292,-7.99665" fill="none" stroke="url(#color-6)" stroke-width="5.5" stroke-linecap="round"/><path d="M275.96894,146.60293c0,0 18.80889,8.29179 18.38046,11.90793c-0.73898,6.23745 -5.78653,5.0211 -5.78653,5.0211" data-paper-data="{&quot;index&quot;:null}" fill="none" stroke="url(#color-7)" stroke-width="5.5" stroke-linecap="round"/><path d="M277.93674,146.16511c0,0 10.51099,1.26623 13.69917,3.67854c5.71111,4.32127 5.32292,7.99665 5.32292,7.99665" data-paper-data="{&quot;index&quot;:null}" fill="none" stroke="url(#color-8)" stroke-width="5.5" stroke-linecap="round"/><path d="M280.2981,143.92583h20.72752" fill="none" stroke="url(#color-9)" stroke-width="5.5" stroke-linecap="round"/><path d="M280.10873,142.59857c0,0 5.94113,10.26795 8.43632,16.12652c-0.79091,5.69214 -15.25636,2.40816 -15.25636,2.40816" fill="none" stroke="url(#color-10)" stroke-width="5.5" stroke-linecap="round"/><path d="M266.21079,142.44549c0,0 -18.80889,-8.29179 -18.38046,-11.90793c0.73898,-6.23744 5.78653,-5.0211 5.78653,-5.0211" data-paper-data="{&quot;index&quot;:null}" fill="none" stroke="url(#color-11)" stroke-width="5.5" stroke-linecap="round"/><path d="M264.24298,142.75831c0,0 -10.51098,-1.26623 -13.69917,-3.67855c-5.71111,-4.32127 -5.32291,-7.99665 -5.32291,-7.99665" data-paper-data="{&quot;index&quot;:null}" fill="none" stroke="url(#color-12)" stroke-width="5.5" stroke-linecap="round"/><path d="M253.2233,163.65696c0,0 -5.04755,1.21634 -5.78653,-5.0211c-0.42843,-3.61614 18.38046,-11.90793 18.38046,-11.90793" data-paper-data="{&quot;index&quot;:null}" fill="none" stroke="url(#color-13)" stroke-width="5.5" stroke-linecap="round"/><path d="M244.82734,157.8403c0,0 -0.38819,-3.67538 5.32291,-7.99665c3.18819,-2.41232 13.69917,-3.67854 13.69917,-3.67854" data-paper-data="{&quot;index&quot;:null}" fill="none" stroke="url(#color-14)" stroke-width="5.5" stroke-linecap="round"/><path d="M261.36307,143.92583h-20.72752" data-paper-data="{&quot;index&quot;:null}" fill="none" stroke="url(#color-15)" stroke-width="5.5" stroke-linecap="round"/><path d="M268.62248,161.00825c0,0 -14.46546,3.28398 -15.25637,-2.40816c2.4952,-5.85857 8.43633,-16.12652 8.43633,-16.12652" data-paper-data="{&quot;index&quot;:null}" fill="none" stroke="url(#color-16)" stroke-width="5.5" stroke-linecap="round"/><path d="M261.80244,146.04329c0,0 -5.94113,-10.26796 -8.43633,-16.12652c0.79091,-5.69214 15.25637,-2.40816 15.25637,-2.40816" data-paper-data="{&quot;index&quot;:null}" fill="none" stroke="url(#color-17)" stroke-width="5.5" stroke-linecap="round"/><path d="M273.28869,127.6336c0,0 14.46546,-3.28398 15.25636,2.40816c-2.4952,5.85857 -8.43632,16.12652 -8.43632,16.12652" data-paper-data="{&quot;index&quot;:null}" fill="none" stroke="url(#color-18)" stroke-width="5.5" stroke-linecap="round"/></g></g></svg>