<svg version="1.1" xmlns="http://www.w3.org/2000/svg" xmlns:xlink="http://www.w3.org/1999/xlink" width="240.66667" height="147.33333" viewBox="0,0,240.66667,147.33333"><defs><linearGradient x1="120" y1="106.66667" x2="120" y2="253.33333" gradientUnits="userSpaceOnUse" id="color-1"><stop offset="0" stop-color="#4d6066"/><stop offset="1" stop-color="#00141a"/></linearGradient></defs><g transform="translate(-119.66667,-106.33333)"><g data-paper-data="{&quot;isPaintingLayer&quot;:true}" fill-rule="nonzero" stroke-linejoin="miter" stroke-miterlimit="10" stroke-dasharray="" stroke-dashoffset="0" style="mix-blend-mode: normal"><path d="M120,253.33333v-146.66667h240v146.66667z" fill="url(#color-1)" stroke="none" stroke-width="1" stroke-linecap="butt"/><path d="M120,106.66667h240" fill="#000000" stroke-opacity="0.5" stroke="#ffffff" stroke-width="0.66667" stroke-linecap="butt"/><path d="M360,120h-240" fill="#000000" stroke-opacity="0.5" stroke="#ffffff" stroke-width="0.66667" stroke-linecap="butt"/><path d="M360,133.33333h-240" fill="#000000" stroke-opacity="0.5" stroke="#ffffff" stroke-width="0.66667" stroke-linecap="butt"/><path d="M120,146.66667h240" fill="#000000" stroke-opacity="0.5" stroke="#ffffff" stroke-width="0.66667" stroke-linecap="butt"/><path d="M360,160h-240" fill="#000000" stroke-opacity="0.5" stroke="#ffffff" stroke-width="0.66667" stroke-linecap="butt"/><path d="M120,173.33333h240" fill="#000000" stroke-opacity="0.5" stroke="#ffffff" stroke-width="0.66667" stroke-linecap="butt"/><path d="M120,186.66667h240" fill="#000000" stroke-opacity="0.5" stroke="#ffffff" stroke-width="0.66667" stroke-linecap="butt"/><path d="M120,200h240" fill="#000000" stroke-opacity="0.5" stroke="#ffffff" stroke-width="0.66667" stroke-linecap="butt"/><path d="M360,213.33333h-240" fill="#000000" stroke-opacity="0.5" stroke="#ffffff" stroke-width="0.66667" stroke-linecap="butt"/><path d="M120,226.66667h240" fill="#000000" stroke-opacity="0.5" stroke="#ffffff" stroke-width="0.66667" stroke-linecap="butt"/><path d="M120,240h240" fill="#000000" stroke-opacity="0.5" stroke="#ffffff" stroke-width="0.66667" stroke-linecap="butt"/><path d="M120,253.33333h240" fill="#000000" stroke-opacity="0.5" stroke="#ffffff" stroke-width="0.66667" stroke-linecap="butt"/><path d="M120,106.66667v146.66667" fill="#000000" stroke-opacity="0.5" stroke="#ffffff" stroke-width="0.66667" stroke-linecap="butt"/><path d="M133.33333,253.33333v-146.66667" fill="#000000" stroke-opacity="0.5" stroke="#ffffff" stroke-width="0.66667" stroke-linecap="butt"/><path d="M146.66667,253.33333v-146.66667" fill="#000000" stroke-opacity="0.5" stroke="#ffffff" stroke-width="0.66667" stroke-linecap="butt"/><path d="M160,106.66667v146.66667" fill="#000000" stroke-opacity="0.5" stroke="#ffffff" stroke-width="0.66667" stroke-linecap="butt"/><path d="M173.33333,253.33333v-146.66667" fill="#000000" stroke-opacity="0.5" stroke="#ffffff" stroke-width="0.66667" stroke-linecap="butt"/><path d="M186.66667,106.66667v146.66667" fill="#000000" stroke-opacity="0.5" stroke="#ffffff" stroke-width="0.66667" stroke-linecap="butt"/><path d="M200,106.66667v146.66667" fill="#000000" stroke-opacity="0.5" stroke="#ffffff" stroke-width="0.66667" stroke-linecap="butt"/><path d="M213.33333,106.66667v146.66667" fill="#000000" stroke-opacity="0.5" stroke="#ffffff" stroke-width="0.66667" stroke-linecap="butt"/><path d="M226.66667,253.33333v-146.66667" fill="#000000" stroke-opacity="0.5" stroke="#ffffff" stroke-width="0.66667" stroke-linecap="butt"/><path d="M240,253.33333v-146.66667" fill="#000000" stroke-opacity="0.5" stroke="#ffffff" stroke-width="0.66667" stroke-linecap="butt"/><path d="M253.33333,106.66667v146.66667" fill="#000000" stroke-opacity="0.5" stroke="#ffffff" stroke-width="0.66667" stroke-linecap="butt"/><path d="M266.66667,106.66667v146.66667" fill="#000000" stroke-opacity="0.5" stroke="#ffffff" stroke-width="0.66667" stroke-linecap="butt"/><path d="M280,106.66667v146.66667" fill="#000000" stroke-opacity="0.5" stroke="#ffffff" stroke-width="0.66667" stroke-linecap="butt"/><path d="M293.33333,106.66667v146.66667" fill="#000000" stroke-opacity="0.5" stroke="#ffffff" stroke-width="0.66667" stroke-linecap="butt"/><path d="M306.66667,106.66667v146.66667" fill="#000000" stroke-opacity="0.5" stroke="#ffffff" stroke-width="0.66667" stroke-linecap="butt"/><path d="M320,106.66667v146.66667" fill="#000000" stroke-opacity="0.5" stroke="#ffffff" stroke-width="0.66667" stroke-linecap="butt"/><path d="M333.33333,253.33333v-146.66667" fill="#000000" stroke-opacity="0.5" stroke="#ffffff" stroke-width="0.66667" stroke-linecap="butt"/><path d="M346.66667,106.66667v146.66667" fill="#000000" stroke-opacity="0.5" stroke="#ffffff" stroke-width="0.66667" stroke-linecap="butt"/><path d="M360,253.33333v-146.66667" fill="#000000" stroke-opacity="0.5" stroke="#ffffff" stroke-width="0.66667" stroke-linecap="butt"/><path d="M126.66667,246.66667h226.66667" fill="#000000" stroke-opacity="0.5" stroke="#a3ff33" stroke-width="12.66667" stroke-linecap="round"/><path d="M353.33333,246.66667v-133.33333" fill="#000000" stroke-opacity="0.5" stroke="#a3ff33" stroke-width="12.66667" stroke-linecap="round"/><path d="M353.33333,113.33333h-226.66667" fill="#000000" stroke-opacity="0.5" stroke="#a3ff33" stroke-width="12.66667" stroke-linecap="round"/><path d="M126.66667,246.66667v-133.33333" fill="#000000" stroke-opacity="0.5" stroke="#a3ff33" stroke-width="12.66667" stroke-linecap="round"/><path d="M246.66667,166.66667h-13.33333" fill="#000000" stroke-opacity="0.5" stroke="#a3ff33" stroke-width="12.66667" stroke-linecap="round"/><path d="M193.33333,193.33333h13.33333" fill="#000000" stroke-opacity="0.5" stroke="#a3ff33" stroke-width="12.66667" stroke-linecap="round"/><path d="M273.33333,193.33333h13.33333" fill="#000000" stroke-opacity="0.5" stroke="#a3ff33" stroke-width="12.66667" stroke-linecap="round"/><path d="M126.66667,246.66667h226.66667" fill="#000000" stroke="#bbff3d" stroke-width="8.66667" stroke-linecap="round"/><path d="M353.33333,246.66667v-133.33333" fill="#000000" stroke="#bbff3d" stroke-width="8.66667" stroke-linecap="round"/><path d="M353.33333,113.33333h-226.66667" fill="#000000" stroke="#bbff3d" stroke-width="8.66667" stroke-linecap="round"/><path d="M126.66667,246.66667v-133.33333" fill="#000000" stroke="#bbff3d" stroke-width="8.66667" stroke-linecap="round"/><path d="M246.66667,166.66667h-13.33333" fill="#000000" stroke="#bbff3d" stroke-width="8.66667" stroke-linecap="round"/><path d="M193.33333,193.33333h13.33333" fill="#000000" stroke="#bbff3d" stroke-width="8.66667" stroke-linecap="round"/><path d="M273.33333,193.33333h13.33333" fill="#000000" stroke="#bbff3d" stroke-width="8.66667" stroke-linecap="round"/><path d="M126.66667,213.33333c-3.6819,0 -6.66667,-2.98477 -6.66667,-6.66667v0c0,-3.6819 2.98477,-6.66667 6.66667,-6.66667h213.33333c3.6819,0 6.66667,2.98477 6.66667,6.66667v0c0,3.6819 -2.98477,6.66667 -6.66667,6.66667z" fill="#bcd5e0" stroke="none" stroke-width="1" stroke-linecap="butt"/><path d="M340,213.33333c-3.6819,0 -6.66667,-2.98477 -6.66667,-6.66667v-26.66667c0,-3.6819 2.98477,-6.66667 6.66667,-6.66667v0c3.6819,0 6.66667,2.98477 6.66667,6.66667v26.66667c0,3.6819 -2.98477,6.66667 -6.66667,6.66667z" fill="#bcd5e0" stroke="none" stroke-width="1" stroke-linecap="butt"/><path d="M140,186.66667c-3.6819,0 -6.66667,-2.98477 -6.66667,-6.66667v0c0,-3.6819 2.98477,-6.66667 6.66667,-6.66667h200c3.6819,0 6.66667,2.98477 6.66667,6.66667v0c0,3.6819 -2.98477,6.66667 -6.66667,6.66667z" fill="#bcd5e0" stroke="none" stroke-width="1" stroke-linecap="butt"/><path d="M140,186.66667c-3.6819,0 -6.66667,-2.98477 -6.66667,-6.66667v-26.66667c0,-3.6819 2.98477,-6.66667 6.66667,-6.66667v0c3.6819,0 6.66667,2.98477 6.66667,6.66667v26.66667c0,3.6819 -2.98477,6.66667 -6.66667,6.66667z" fill="#bcd5e0" stroke="none" stroke-width="1" stroke-linecap="butt"/><path d="M140,160c-3.6819,0 -6.66667,-2.98477 -6.66667,-6.66667v0c0,-3.6819 2.98477,-6.66667 6.66667,-6.66667h200c3.6819,0 6.66667,2.98477 6.66667,6.66667v0c0,3.6819 -2.98477,6.66667 -6.66667,6.66667z" fill="#bcd5e0" stroke="none" stroke-width="1" stroke-linecap="butt"/><path d="M340,160c-3.6819,0 -6.66667,-2.98477 -6.66667,-6.66667v-26.66667c0,-3.6819 2.98477,-6.66667 6.66667,-6.66667v0c3.6819,0 6.66667,2.98477 6.66667,6.66667v26.66667c0,3.6819 -2.98477,6.66667 -6.66667,6.66667z" fill="#bcd5e0" stroke="none" stroke-width="1" stroke-linecap="butt"/><path d="M300,133.33333c-3.6819,0 -6.66667,-2.98477 -6.66667,-6.66667v0c0,-3.6819 2.98477,-6.66667 6.66667,-6.66667h40c3.6819,0 6.66667,2.98477 6.66667,6.66667v0c0,3.6819 -2.98477,6.66667 -6.66667,6.66667z" fill="#bcd5e0" stroke="none" stroke-width="1" stroke-linecap="butt"/><path d="M300,240c-3.6819,0 -6.66667,-2.98477 -6.66667,-6.66667v-106.66667c0,-3.6819 2.98477,-6.66667 6.66667,-6.66667v0c3.6819,0 6.66667,2.98477 6.66667,6.66667v106.66667c0,3.6819 -2.98477,6.66667 -6.66667,6.66667z" fill="#bcd5e0" stroke="none" stroke-width="1" stroke-linecap="butt"/><path d="M260,240c-3.6819,0 -6.66667,-2.98477 -6.66667,-6.66667v0c0,-3.6819 2.98477,-6.66667 6.66667,-6.66667h40c3.6819,0 6.66667,2.98477 6.66667,6.66667v0c0,3.6819 -2.98477,6.66667 -6.66667,6.66667z" fill="#bcd5e0" stroke="none" stroke-width="1" stroke-linecap="butt"/><path d="M260,240c-3.6819,0 -6.66667,-2.98477 -6.66667,-6.66667v-106.66667c0,-3.6819 2.98477,-6.66667 6.66667,-6.66667v0c3.6819,0 6.66667,2.98477 6.66667,6.66667v106.66667c0,3.6819 -2.98477,6.66667 -6.66667,6.66667z" fill="#bcd5e0" stroke="none" stroke-width="1" stroke-linecap="butt"/><path d="M220,133.33333c-3.6819,0 -6.66667,-2.98477 -6.66667,-6.66667v0c0,-3.6819 2.98477,-6.66667 6.66667,-6.66667h40c3.6819,0 6.66667,2.98477 6.66667,6.66667v0c0,3.6819 -2.98477,6.66667 -6.66667,6.66667z" fill="#bcd5e0" stroke="none" stroke-width="1" stroke-linecap="butt"/><path d="M220,240c-3.6819,0 -6.66667,-2.98477 -6.66667,-6.66667v-106.66667c0,-3.6819 2.98477,-6.66667 6.66667,-6.66667v0c3.6819,0 6.66667,2.98477 6.66667,6.66667v106.66667c0,3.6819 -2.98477,6.66667 -6.66667,6.66667z" fill="#bcd5e0" stroke="none" stroke-width="1" stroke-linecap="butt"/><path d="M180,240c-3.6819,0 -6.66667,-2.98477 -6.66667,-6.66667v0c0,-3.6819 2.98477,-6.66667 6.66667,-6.66667h40c3.6819,0 6.66667,2.98477 6.66667,6.66667v0c0,3.6819 -2.98477,6.66667 -6.66667,6.66667z" fill="#bcd5e0" stroke="none" stroke-width="1" stroke-linecap="butt"/><path d="M180,240c-3.6819,0 -6.66667,-2.98477 -6.66667,-6.66667v-106.66667c0,-3.6819 2.98477,-6.66667 6.66667,-6.66667v0c3.6819,0 6.66667,2.98477 6.66667,6.66667v106.66667c0,3.6819 -2.98477,6.66667 -6.66667,6.66667z" fill="#bcd5e0" stroke="none" stroke-width="1" stroke-linecap="butt"/><path d="M126.66667,133.33333c-3.6819,0 -6.66667,-2.98477 -6.66667,-6.66667v0c0,-3.6819 2.98477,-6.66667 6.66667,-6.66667h53.33333c3.6819,0 6.66667,2.98477 6.66667,6.66667v0c0,3.6819 -2.98477,6.66667 -6.66667,6.66667z" fill="#bcd5e0" stroke="none" stroke-width="1" stroke-linecap="butt"/><path d="M340,206.66667h-213.33333" fill="#000000" stroke="#213a34" stroke-width="10" stroke-linecap="round"/><path d="M340,206.66667v-26.66667" fill="#000000" stroke="#213a34" stroke-width="10" stroke-linecap="round"/><path d="M340,180h-200" fill="#000000" stroke="#213a34" stroke-width="10" stroke-linecap="round"/><path d="M140,180v-26.66667" fill="#000000" stroke="#213a34" stroke-width="10" stroke-linecap="round"/><path d="M140,153.33333h200" fill="#000000" stroke="#213a34" stroke-width="10" stroke-linecap="round"/><path d="M340,126.66667v26.66667" fill="#000000" stroke="#213a34" stroke-width="10" stroke-linecap="round"/><path d="M300,126.66667h40" fill="#000000" stroke="#213a34" stroke-width="10" stroke-linecap="round"/><path d="M300,126.66667v106.66667" fill="#000000" stroke="#213a34" stroke-width="10" stroke-linecap="round"/><path d="M300,233.33333h-40" fill="#000000" stroke="#213a34" stroke-width="10" stroke-linecap="round"/><path d="M260,233.33333v-106.66667" fill="#000000" stroke="#213a34" stroke-width="10" stroke-linecap="round"/><path d="M220,126.66667h40" fill="#000000" stroke="#213a34" stroke-width="10" stroke-linecap="round"/><path d="M220,126.66667v106.66667" fill="#000000" stroke="#213a34" stroke-width="10" stroke-linecap="round"/><path d="M220,233.33333h-40" fill="#000000" stroke="#213a34" stroke-width="10" stroke-linecap="round"/><path d="M180,233.33333v-106.66667" fill="#000000" stroke="#213a34" stroke-width="10" stroke-linecap="round"/><path d="M180,126.66667h-53.33333" fill="#000000" stroke="#213a34" stroke-width="10" stroke-linecap="round"/><path d="M180,197.33333v18.66667" fill="#000000" stroke="#1c332c" stroke-width="8" stroke-linecap="round"/><path d="M189.33333,206.66667h-18.66667" fill="#000000" stroke="#213a33" stroke-width="8" stroke-linecap="round"/><path d="M220,197.33333v18.66667" fill="#000000" stroke="#1c332c" stroke-width="8" stroke-linecap="round"/><path d="M210.66667,206.66667h18.66667" fill="#000000" stroke="#213a33" stroke-width="8" stroke-linecap="round"/><path d="M260,197.33333v18.66667" fill="#000000" stroke="#1c332c" stroke-width="8" stroke-linecap="round"/><path d="M269.33333,206.66667h-18.66667" fill="#000000" stroke="#213a33" stroke-width="8" stroke-linecap="round"/><path d="M300,197.33333v18.66667" fill="#000000" stroke="#1c332c" stroke-width="8" stroke-linecap="round"/><path d="M309.33333,206.66667h-18.66667" fill="#000000" stroke="#213a33" stroke-width="8" stroke-linecap="round"/><path d="M180,170.66667v18.66667" fill="#000000" stroke="#1c332c" stroke-width="8" stroke-linecap="round"/><path d="M170.66667,180h18.66667" fill="#000000" stroke="#213a33" stroke-width="8" stroke-linecap="round"/><path d="M220,170.66667v18.66667" fill="#000000" stroke="#1c332c" stroke-width="8" stroke-linecap="round"/><path d="M210.66667,180h18.66667" fill="#000000" stroke="#213a33" stroke-width="8" stroke-linecap="round"/><path d="M260,170.66667v18.66667" fill="#000000" stroke="#1c332c" stroke-width="8" stroke-linecap="round"/><path d="M250.66667,180h18.66667" fill="#000000" stroke="#213a33" stroke-width="8" stroke-linecap="round"/><path d="M300,170.66667v18.66667" fill="#000000" stroke="#1c332c" stroke-width="8" stroke-linecap="round"/><path d="M290.66667,180h18.66667" fill="#000000" stroke="#213a33" stroke-width="8" stroke-linecap="round"/><path d="M180,144v18.66667" fill="#000000" stroke="#1c332c" stroke-width="8" stroke-linecap="round"/><path d="M170.66667,153.33333h18.66667" fill="#000000" stroke="#213a33" stroke-width="8" stroke-linecap="round"/><path d="M220,144v18.66667" fill="#000000" stroke="#1c332c" stroke-width="8" stroke-linecap="round"/><path d="M229.33333,153.33333h-18.66667" fill="#000000" stroke="#213a33" stroke-width="8" stroke-linecap="round"/><path d="M260,162.66667v-18.66667" fill="#000000" stroke="#1c332c" stroke-width="8" stroke-linecap="round"/><path d="M250.66667,153.33333h18.66667" fill="#000000" stroke="#213a33" stroke-width="8" stroke-linecap="round"/><path d="M300,144v18.66667" fill="#000000" stroke="#1c332c" stroke-width="8" stroke-linecap="round"/><path d="M290.66667,153.33333h18.66667" fill="#000000" stroke="#213a33" stroke-width="8" stroke-linecap="round"/><path d="M120,206.66667c0,-3.6819 2.98477,-6.66667 6.66667,-6.66667c3.6819,0 6.66667,2.98477 6.66667,6.66667c0,3.6819 -2.98477,6.66667 -6.66667,6.66667c-3.6819,0 -6.66667,-2.98477 -6.66667,-6.66667z" fill-opacity="0.35" fill="#00ff44" stroke="none" stroke-width="1" stroke-linecap="butt"/><path d="M120,126.66667c0,-3.6819 2.98477,-6.66667 6.66667,-6.66667c3.6819,0 6.66667,2.98477 6.66667,6.66667c0,3.6819 -2.98477,6.66667 -6.66667,6.66667c-3.6819,0 -6.66667,-2.98477 -6.66667,-6.66667z" fill-opacity="0.35" fill="#ff0404" stroke="none" stroke-width="1" stroke-linecap="butt"/><path d="M123.33333,220c0,-1.84095 1.49238,-3.33333 3.33333,-3.33333c1.84095,0 3.33333,1.49238 3.33333,3.33333c0,1.84095 -1.49238,3.33333 -3.33333,3.33333c-1.84095,0 -3.33333,-1.49238 -3.33333,-3.33333z" fill-opacity="0.8" fill="#3a627f" stroke="none" stroke-width="1" stroke-linecap="butt"/><path d="M350,220c0,-1.84095 1.49238,-3.33333 3.33333,-3.33333c1.84095,0 3.33333,1.49238 3.33333,3.33333c0,1.84095 -1.49238,3.33333 -3.33333,3.33333c-1.84095,0 -3.33333,-1.49238 -3.33333,-3.33333z" fill-opacity="0.8" fill="#3a627f" stroke="none" stroke-width="1" stroke-linecap="butt"/><path d="M126.66667,220h226.66667" fill="#000000" stroke-opacity="0.8" stroke="#75c5ff" stroke-width="3.33333" stroke-linecap="round"/><path d="M123.33333,193.33333c0,-1.84095 1.49238,-3.33333 3.33333,-3.33333c1.84095,0 3.33333,1.49238 3.33333,3.33333c0,1.84095 -1.49238,3.33333 -3.33333,3.33333c-1.84095,0 -3.33333,-1.49238 -3.33333,-3.33333z" fill-opacity="0.8" fill="#503a7f" stroke="none" stroke-width="1" stroke-linecap="butt"/><path d="M350,193.33333c0,-1.84095 1.49238,-3.33333 3.33333,-3.33333c1.84095,0 3.33333,1.49238 3.33333,3.33333c0,1.84095 -1.49238,3.33333 -3.33333,3.33333c-1.84095,0 -3.33333,-1.49238 -3.33333,-3.33333z" fill-opacity="0.8" fill="#503a7f" stroke="none" stroke-width="1" stroke-linecap="butt"/><path d="M126.66667,193.33333h226.66667" fill="#000000" stroke-opacity="0.8" stroke="#a175ff" stroke-width="3.33333" stroke-linecap="round"/><path d="M123.33333,166.66667c0,-1.84095 1.49238,-3.33333 3.33333,-3.33333c1.84095,0 3.33333,1.49238 3.33333,3.33333c0,1.84095 -1.49238,3.33333 -3.33333,3.33333c-1.84095,0 -3.33333,-1.49238 -3.33333,-3.33333z" fill-opacity="0.8" fill="#7f3a6f" stroke="none" stroke-width="1" stroke-linecap="butt"/><path d="M350,166.66667c0,-1.84095 1.49238,-3.33333 3.33333,-3.33333c1.84095,0 3.33333,1.49238 3.33333,3.33333c0,1.84095 -1.49238,3.33333 -3.33333,3.33333c-1.84095,0 -3.33333,-1.49238 -3.33333,-3.33333z" fill-opacity="0.8" fill="#7f3a6f" stroke="none" stroke-width="1" stroke-linecap="butt"/><path d="M353.33333,166.66667h-226.66667" fill="#000000" stroke-opacity="0.8" stroke="#ff75e0" stroke-width="3.33333" stroke-linecap="round"/><path d="M123.33333,140c0,-1.84095 1.49238,-3.33333 3.33333,-3.33333c1.84095,0 3.33333,1.49238 3.33333,3.33333c0,1.84095 -1.49238,3.33333 -3.33333,3.33333c-1.84095,0 -3.33333,-1.49238 -3.33333,-3.33333z" fill-opacity="0.8" fill="#7f423a" stroke="none" stroke-width="1" stroke-linecap="butt"/><path d="M350,140c0,-1.84095 1.49238,-3.33333 3.33333,-3.33333c1.84095,0 3.33333,1.49238 3.33333,3.33333c0,1.84095 -1.49238,3.33333 -3.33333,3.33333c-1.84095,0 -3.33333,-1.49238 -3.33333,-3.33333z" fill-opacity="0.8" fill="#7f423a" stroke="none" stroke-width="1" stroke-linecap="butt"/><path d="M126.66667,140h226.66667" fill="#000000" stroke-opacity="0.8" stroke="#ff8575" stroke-width="3.33333" stroke-linecap="round"/><path d="M190,126.66667c0,-1.84095 1.49238,-3.33333 3.33333,-3.33333c1.84095,0 3.33333,1.49238 3.33333,3.33333c0,1.84095 -1.49238,3.33333 -3.33333,3.33333c-1.84095,0 -3.33333,-1.49238 -3.33333,-3.33333z" fill-opacity="0.8" fill="#7f423a" stroke="none" stroke-width="1" stroke-linecap="butt"/><path d="M283.33333,126.66667c0,-1.84095 1.49238,-3.33333 3.33333,-3.33333c1.84095,0 3.33333,1.49238 3.33333,3.33333c0,1.84095 -1.49238,3.33333 -3.33333,3.33333c-1.84095,0 -3.33333,-1.49238 -3.33333,-3.33333z" fill-opacity="0.8" fill="#7f423a" stroke="none" stroke-width="1" stroke-linecap="butt"/><path d="M193.33333,126.66667h93.33333" fill="#000000" stroke-opacity="0.8" stroke="#ff8575" stroke-width="3.33333" stroke-linecap="round"/></g></g></svg>