<svg version="1.1" xmlns="http://www.w3.org/2000/svg" xmlns:xlink="http://www.w3.org/1999/xlink" width="22.40216" height="13.67999" viewBox="0,0,22.40216,13.67999"><g transform="translate(-235.42492,-165.57704)"><g data-paper-data="{&quot;isPaintingLayer&quot;:true}" fill="#ff0000" fill-rule="nonzero" stroke="#ff0000" stroke-width="0.25" stroke-linecap="butt" stroke-linejoin="miter" stroke-miterlimit="10" stroke-dasharray="" stroke-dashoffset="0" style="mix-blend-mode: normal"><path d="M238.01858,172.02375c0,0.90927 0.74106,1.65033 1.65033,1.65033c0.90928,0 1.65033,-0.74106 1.65033,-1.65033v-1.07748c0,-0.90928 -0.74105,-1.65033 -1.65033,-1.65033c-0.90928,0 -1.65033,0.74105 -1.65033,1.65033zM237.26389,172.02375v-1.07748c0,-1.32754 1.07975,-2.40729 2.40729,-2.40729c1.32754,0 2.4073,1.07976 2.4073,2.4073v1.07748c0,1.32754 -1.07976,2.40729 -2.4073,2.40729c-1.32981,0 -2.40956,-1.07976 -2.40729,-2.40729zM256.81322,173.79683l-0.55011,-0.22732c-0.19321,-0.07956 -0.41599,0.01136 -0.49556,0.20459c-0.07956,0.19322 0.01137,0.41599 0.20459,0.49555l0.56829,0.23642l0.04092,0.01363c0.32279,0.0932 0.48646,0.22732 0.48646,0.3978v0.82062c0,0.21141 -0.17049,0.3819 -0.3819,0.3819h-3.25064c-0.02728,-0.45918 -0.28415,-1.19569 -1.55713,-1.56167l-1.42528,-0.3978c-0.20003,-0.05683 -0.40917,0.06137 -0.46601,0.26369c-0.05456,0.20004 0.06137,0.40917 0.26369,0.466l1.42073,0.39781c0.67059,0.19322 1.0093,0.50237 1.0093,0.92064v1.38664c0,0.49783 -0.4069,0.90473 -0.90473,0.90473h-10.00198c-0.49783,0 -0.90472,-0.40462 -0.90472,-0.90473v-1.38664c0,-0.15458 0,-0.62512 1.00929,-0.91837l1.49348,-0.41371c0.20231,-0.05683 0.32052,-0.26369 0.26369,-0.466c-0.05683,-0.20003 -0.26369,-0.32052 -0.466,-0.26369l-1.49803,0.41371c-1.2207,0.35462 -1.5253,1.02748 -1.55485,1.5594h-3.42568c-0.21141,0 -0.3819,-0.17049 -0.3819,-0.38189v-0.82062c0,-0.06365 0,-0.25459 0.48874,-0.3978l0.6433,-0.25687c0.19322,-0.07956 0.28642,-0.30006 0.20913,-0.49328c-0.07956,-0.19322 -0.30005,-0.28642 -0.49328,-0.20913l-0.59103,0.23869c-0.88427,0.26369 -1.01611,0.8138 -1.01611,1.11841v0.82062c0,0.62966 0.51146,1.14114 1.13887,1.14114h3.42567v0.71605c0,0.91609 0.7456,1.6617 1.6617,1.6617h10.00198c0.91609,0 1.66169,-0.74561 1.66169,-1.6617v-0.71833h3.24838c0.62739,0 1.13887,-0.51146 1.13887,-1.13886v-0.82062c0,-0.30688 -0.13185,-0.85698 -1.01384,-1.12067zM252.08729,172.02375c0,0.90927 0.74105,1.65033 1.65033,1.65033c0.90928,0 1.65033,-0.74106 1.65033,-1.65033v-1.07748c0,-0.90928 -0.74105,-1.65033 -1.65033,-1.65033c-0.90927,0 -1.65033,0.74105 -1.65033,1.65033zM251.33259,172.02375v-1.07748c0,-1.32754 1.07975,-2.40729 2.40729,-2.40729c1.32754,0 2.4073,1.07976 2.4073,2.4073v1.07748c0,1.32754 -1.07976,2.40729 -2.4073,2.40729c-1.3298,0 -2.40956,-1.07976 -2.40729,-2.40729zM243.75835,171.32588c0,1.67761 1.36391,3.04379 3.04379,3.04379c1.67761,0 3.04379,-1.36391 3.04379,-3.04379v-1.81855c0,-1.67761 -1.36391,-3.04379 -3.04379,-3.04379c-1.67761,0 -3.04379,1.36391 -3.04379,3.04379zM242.99911,171.32361v-1.81855c0,-2.09814 1.70716,-3.80303 3.80303,-3.80303c2.09814,0 3.80303,1.70716 3.80303,3.80303v1.81855c0,2.09814 -1.70716,3.80303 -3.80303,3.80303c-2.09587,0 -3.80076,-1.70489 -3.80303,-3.80303z"/></g></g></svg>