<svg version="1.1" xmlns="http://www.w3.org/2000/svg" xmlns:xlink="http://www.w3.org/1999/xlink" width="62.44658" height="60.26072" viewBox="0,0,62.44658,60.26072"><defs><linearGradient x1="271.06156" y1="121.10223" x2="271.06156" y2="179.86294" gradientUnits="userSpaceOnUse" id="color-1"><stop offset="0" stop-color="#567357"/><stop offset="1" stop-color="#2e5729"/></linearGradient><linearGradient x1="270.89207" y1="167.57145" x2="270.89207" y2="180.14307" gradientUnits="userSpaceOnUse" id="color-2"><stop offset="0" stop-color="#70bb5b"/><stop offset="1" stop-color="#296f15"/></linearGradient><radialGradient cx="265.32106" cy="138.97726" r="5.91561" gradientUnits="userSpaceOnUse" id="color-3"><stop offset="0" stop-color="#27ff00"/><stop offset="1" stop-color="#27ff00" stop-opacity="0"/></radialGradient><radialGradient cx="276.99383" cy="138.29063" r="6.12688" gradientUnits="userSpaceOnUse" id="color-4"><stop offset="0" stop-color="#27ff00"/><stop offset="1" stop-color="#27ff00" stop-opacity="0"/></radialGradient><radialGradient cx="265.26824" cy="151.28385" r="6.1797" gradientUnits="userSpaceOnUse" id="color-5"><stop offset="0" stop-color="#27ff00"/><stop offset="1" stop-color="#27ff00" stop-opacity="0"/></radialGradient><radialGradient cx="278.41991" cy="151.12539" r="6.02124" gradientUnits="userSpaceOnUse" id="color-6"><stop offset="0" stop-color="#27ff00"/><stop offset="1" stop-color="#27ff00" stop-opacity="0"/></radialGradient><radialGradient cx="254.07084" cy="137.65682" r="4.48952" gradientUnits="userSpaceOnUse" id="color-7"><stop offset="0" stop-color="#27ff00"/><stop offset="1" stop-color="#27ff00" stop-opacity="0"/></radialGradient><radialGradient cx="264.37034" cy="130.20949" r="3.38035" gradientUnits="userSpaceOnUse" id="color-8"><stop offset="0" stop-color="#27ff00"/><stop offset="1" stop-color="#27ff00" stop-opacity="0"/></radialGradient><radialGradient cx="253.17294" cy="156.93536" r="4.01416" gradientUnits="userSpaceOnUse" id="color-9"><stop offset="0" stop-color="#27ff00"/><stop offset="1" stop-color="#27ff00" stop-opacity="0"/></radialGradient><radialGradient cx="277.522" cy="158.784" r="6.39097" gradientUnits="userSpaceOnUse" id="color-10"><stop offset="0" stop-color="#27ff00"/><stop offset="1" stop-color="#27ff00" stop-opacity="0"/></radialGradient><radialGradient cx="289.40605" cy="153.34374" r="3.27471" gradientUnits="userSpaceOnUse" id="color-11"><stop offset="0" stop-color="#27ff00"/><stop offset="1" stop-color="#27ff00" stop-opacity="0"/></radialGradient><radialGradient cx="286.44824" cy="130.20949" r="5.07052" gradientUnits="userSpaceOnUse" id="color-12"><stop offset="0" stop-color="#27ff00"/><stop offset="1" stop-color="#27ff00" stop-opacity="0"/></radialGradient><linearGradient x1="271.75771" y1="134.71768" x2="271.66242" y2="153.77178" gradientUnits="userSpaceOnUse" id="color-13"><stop offset="0" stop-color="#00ff21"/><stop offset="1" stop-color="#deffd8"/></linearGradient><linearGradient x1="259.81913" y1="125.97087" x2="259.74844" y2="140.10511" gradientUnits="userSpaceOnUse" id="color-14"><stop offset="0" stop-color="#00ff21"/><stop offset="1" stop-color="#deffd8"/></linearGradient><linearGradient x1="258.59691" y1="149.19309" x2="258.52622" y2="163.32733" gradientUnits="userSpaceOnUse" id="color-15"><stop offset="0" stop-color="#00ff21"/><stop offset="1" stop-color="#deffd8"/></linearGradient><linearGradient x1="281.93024" y1="125.19309" x2="281.85955" y2="139.32733" gradientUnits="userSpaceOnUse" id="color-16"><stop offset="0" stop-color="#00ff21"/><stop offset="1" stop-color="#deffd8"/></linearGradient><linearGradient x1="284.37469" y1="148.74864" x2="284.304" y2="162.88288" gradientUnits="userSpaceOnUse" id="color-17"><stop offset="0" stop-color="#00ff21"/><stop offset="1" stop-color="#deffd8"/></linearGradient><linearGradient x1="250.02762" y1="135.74864" x2="249.98439" y2="144.39216" gradientUnits="userSpaceOnUse" id="color-18"><stop offset="0" stop-color="#00ff21"/><stop offset="1" stop-color="#deffd8"/></linearGradient><linearGradient x1="249.36095" y1="151.85975" x2="249.31772" y2="160.50327" gradientUnits="userSpaceOnUse" id="color-19"><stop offset="0" stop-color="#00ff21"/><stop offset="1" stop-color="#deffd8"/></linearGradient><linearGradient x1="250.02762" y1="135.74864" x2="249.98439" y2="144.39216" gradientUnits="userSpaceOnUse" id="color-20"><stop offset="0" stop-color="#00ff21"/><stop offset="1" stop-color="#deffd8"/></linearGradient><linearGradient x1="271.47206" y1="156.30419" x2="271.42883" y2="164.94772" gradientUnits="userSpaceOnUse" id="color-21"><stop offset="0" stop-color="#00ff21"/><stop offset="1" stop-color="#deffd8"/></linearGradient><linearGradient x1="293.47206" y1="145.74864" x2="293.42883" y2="154.39216" gradientUnits="userSpaceOnUse" id="color-22"><stop offset="0" stop-color="#00ff21"/><stop offset="1" stop-color="#deffd8"/></linearGradient><linearGradient x1="291.91651" y1="124.63752" x2="291.87328" y2="133.28105" gradientUnits="userSpaceOnUse" id="color-23"><stop offset="0" stop-color="#00ff21"/><stop offset="1" stop-color="#deffd8"/></linearGradient><linearGradient x1="268.69429" y1="122.85975" x2="268.65106" y2="131.50327" gradientUnits="userSpaceOnUse" id="color-24"><stop offset="0" stop-color="#00ff21"/><stop offset="1" stop-color="#deffd8"/></linearGradient></defs><g transform="translate(-239.79665,-120.35221)"><g data-paper-data="{&quot;isPaintingLayer&quot;:true}" fill-rule="nonzero" stroke-linejoin="miter" stroke-miterlimit="10" stroke-dasharray="" stroke-dashoffset="0" style="mix-blend-mode: normal"><path d="M240.54666,179.86294v-58.76072h60.94658v58.76072z" fill="url(#color-1)" stroke="#3dab20" stroke-width="1.5" stroke-linecap="butt"/><path d="M239.96352,180.14307v-12.57143h61.85715v12.57143z" fill="url(#color-2)" stroke="none" stroke-width="0" stroke-linecap="butt"/><path d="M259.40546,133.2201l11.83122,11.51431" fill="none" stroke="url(#color-3)" stroke-width="2.5" stroke-linecap="round"/><path d="M272.08177,144.41752l9.82413,-12.25376" fill="none" stroke="url(#color-4)" stroke-width="2.5" stroke-linecap="round"/><path d="M259.08855,157.09382l12.3594,-11.61994" fill="none" stroke="url(#color-5)" stroke-width="2.5" stroke-linecap="round"/><path d="M284.44115,156.24873l-12.04249,-10.24668" fill="none" stroke="url(#color-6)" stroke-width="2.5" stroke-linecap="round"/><path d="M249.58132,140.19207l8.97905,-5.07052" fill="none" stroke="url(#color-7)" stroke-width="1.5" stroke-linecap="round"/><path d="M260.99,132.16376l6.76069,-3.90853" fill="none" stroke="url(#color-8)" stroke-width="1.5" stroke-linecap="round"/><path d="M249.15877,156.67127l8.02832,0.52818" fill="none" stroke="url(#color-9)" stroke-width="1.5" stroke-linecap="round"/><path d="M271.13103,160.79108l12.78194,-4.01416" fill="none" stroke="url(#color-10)" stroke-width="1.5" stroke-linecap="round"/><path d="M292.68075,150.43875l-6.54943,5.80997" fill="none" stroke="url(#color-11)" stroke-width="1.5" stroke-linecap="round"/><path d="M291.51876,128.7834l-10.14105,2.85217" fill="none" stroke="url(#color-12)" stroke-width="1.5" stroke-linecap="round"/><path d="M268.00372,144.22619l3.73101,-5.70502l3.67373,5.74206l-3.73099,5.70498zM266.74066,144.21988l4.92704,7.70479l5.01174,-7.65508l-4.93492,-7.70484zM265.54075,144.21388l6.21301,-9.49621l6.12561,9.55792l-6.22091,9.49617z" fill="url(#color-13)" stroke="none" stroke-width="0.26459" stroke-linecap="butt"/><path d="M257.03443,133.02423l2.76765,-4.23196l2.72516,4.25943l-2.76763,4.23193zM256.09751,133.01955l3.65486,5.71538l3.71769,-5.67851l-3.6607,-5.71541zM255.20742,133.0151l4.60878,-7.04425l4.54395,7.09003l-4.61464,7.04421z" fill="url(#color-14)" stroke="none" stroke-width="0.26459" stroke-linecap="butt"/><path d="M255.81221,156.24645l2.76765,-4.23196l2.72516,4.25943l-2.76763,4.23194zM254.87529,156.24176l3.65486,5.71538l3.71769,-5.67851l-3.6607,-5.71541zM253.9852,156.23732l4.60878,-7.04424l4.54395,7.09002l-4.61464,7.04421z" fill="url(#color-15)" stroke="none" stroke-width="0.26459" stroke-linecap="butt"/><path d="M279.14554,132.24645l2.76765,-4.23196l2.72516,4.25943l-2.76763,4.23194zM278.20862,132.24176l3.65486,5.71538l3.71769,-5.67851l-3.6607,-5.71541zM277.31853,132.23732l4.60878,-7.04424l4.54395,7.09002l-4.61464,7.04421z" fill="url(#color-16)" stroke="none" stroke-width="0.26459" stroke-linecap="butt"/><path d="M281.58999,155.80201l2.76765,-4.23196l2.72516,4.25943l-2.76763,4.23193zM280.65306,155.79732l3.65486,5.71538l3.71769,-5.67851l-3.6607,-5.71541zM279.76297,155.79287l4.60878,-7.04424l4.54395,7.09002l-4.61464,7.04421z" fill="url(#color-17)" stroke="none" stroke-width="0.26459" stroke-linecap="butt"/><path d="M248.32469,140.06199l1.6925,-2.58797l1.66652,2.60478l-1.69249,2.58796zM247.75173,140.05912l2.23506,3.49513l2.27348,-3.47258l-2.23863,-3.49515zM247.20742,140.0564l2.81841,-4.30777l2.77877,4.33577l-2.822,4.30775z" fill="url(#color-18)" stroke="none" stroke-width="0.26459" stroke-linecap="butt"/><path d="M247.65802,156.1731l1.6925,-2.58797l1.66652,2.60477l-1.69249,2.58795zM247.08506,156.17023l2.23506,3.49514l2.27348,-3.47259l-2.23863,-3.49515zM246.54075,156.16751l2.81842,-4.30777l2.77876,4.33577l-2.822,4.30775z" fill="url(#color-19)" stroke="none" stroke-width="0.26459" stroke-linecap="butt"/><path d="M248.32469,140.06199l1.6925,-2.58797l1.66652,2.60477l-1.69249,2.58795zM247.75173,140.05912l2.23506,3.49514l2.27348,-3.47259l-2.23863,-3.49515zM247.20742,140.0564l2.81842,-4.30777l2.77876,4.33577l-2.822,4.30775z" fill="url(#color-20)" stroke="none" stroke-width="0.26459" stroke-linecap="butt"/><path d="M269.76913,160.61754l1.6925,-2.58797l1.66652,2.60477l-1.69249,2.58795zM269.19617,160.61468l2.23506,3.49514l2.27348,-3.47259l-2.23863,-3.49515zM268.65186,160.61196l2.81842,-4.30777l2.77876,4.33577l-2.822,4.30775z" fill="url(#color-21)" stroke="none" stroke-width="0.26459" stroke-linecap="butt"/><path d="M291.76913,150.06199l1.6925,-2.58797l1.66652,2.60477l-1.69249,2.58795zM291.19617,150.05912l2.23506,3.49514l2.27348,-3.47259l-2.23863,-3.49515zM290.65186,150.0564l2.81841,-4.30777l2.77877,4.33577l-2.822,4.30775z" fill="url(#color-22)" stroke="none" stroke-width="0.26459" stroke-linecap="butt"/><path d="M290.21358,128.95087l1.6925,-2.58797l1.66652,2.60477l-1.69249,2.58795zM289.64062,128.94801l2.23506,3.49514l2.27348,-3.47259l-2.23863,-3.49515zM289.0963,128.94529l2.81841,-4.30777l2.77877,4.33577l-2.822,4.30775z" fill="url(#color-23)" stroke="none" stroke-width="0.26459" stroke-linecap="butt"/><path d="M266.99136,127.17309l1.6925,-2.58797l1.66652,2.60477l-1.69249,2.58795zM266.4184,127.17023l2.23506,3.49514l2.27348,-3.47259l-2.23863,-3.49515zM265.87408,127.16751l2.81842,-4.30777l2.77877,4.33577l-2.822,4.30776z" fill="url(#color-24)" stroke="none" stroke-width="0.26459" stroke-linecap="butt"/></g></g></svg>