<svg version="1.1" xmlns="http://www.w3.org/2000/svg" xmlns:xlink="http://www.w3.org/1999/xlink" width="78.40991" height="58.02333" viewBox="0,0,78.40991,58.02333"><g transform="translate(-215.5,-145.07667)"><g data-paper-data="{&quot;isPaintingLayer&quot;:true}" fill-rule="nonzero" stroke-width="2.5" stroke-linejoin="miter" stroke-miterlimit="10" stroke-dasharray="" stroke-dashoffset="0" style="mix-blend-mode: normal"><path d="M215.5,160.75865h78.40991" fill="#000000" stroke-opacity="0.5" stroke="#ffffff" stroke-linecap="butt"/><path d="M215.5,164.67914h78.40991" fill="#000000" stroke-opacity="0.5" stroke="#ffffff" stroke-linecap="butt"/><path d="M217.46025,162.7189h74.48941" fill="#000000" stroke-opacity="0.5" stroke="#a3ff33" stroke-linecap="round"/><path d="M217.46025,186.24187h7.84099" fill="#000000" stroke-opacity="0.5" stroke="#a3ff33" stroke-linecap="round"/><path d="M256.6652,190.16236v-27.44347" fill="#000000" stroke-opacity="0.5" stroke="#a3ff33" stroke-linecap="round"/><path d="M217.46025,162.7189h74.48941" fill="#000000" stroke="#bbff3d" stroke-linecap="round"/><path d="M217.46025,186.24187h7.84099" fill="#000000" stroke="#bbff3d" stroke-linecap="round"/><path d="M256.6652,190.16236v-27.44347" fill="#000000" stroke="#bbff3d" stroke-linecap="round"/><path d="M217.46025,196.04311c-1.08262,0 -1.96025,-0.87763 -1.96025,-1.96025v0c0,-1.08262 0.87763,-1.96025 1.96025,-1.96025h15.68198c1.08262,0 1.96025,0.87763 1.96025,1.96025v0c0,1.08262 -0.87763,1.96025 -1.96025,1.96025z" fill="#bcd5e0" stroke="none" stroke-linecap="butt"/><path d="M233.14223,196.04311c-1.08262,0 -1.96025,-0.87763 -1.96025,-1.96025v-15.68198c0,-1.08262 0.87763,-1.96025 1.96025,-1.96025v0c1.08262,0 1.96025,0.87763 1.96025,1.96025v15.68198c0,1.08262 -0.87763,1.96025 -1.96025,1.96025z" fill="#bcd5e0" stroke="none" stroke-linecap="butt"/><path d="M225.30124,180.36113c-1.08262,0 -1.96025,-0.87763 -1.96025,-1.96025v0c0,-1.08262 0.87763,-1.96025 1.96025,-1.96025h7.84099c1.08262,0 1.96025,0.87763 1.96025,1.96025v0c0,1.08262 -0.87763,1.96025 -1.96025,1.96025z" fill="#bcd5e0" stroke="none" stroke-linecap="butt"/><path d="M225.30124,180.36113c-1.08262,0 -1.96025,-0.87763 -1.96025,-1.96025v-23.52297c0,-1.08262 0.87763,-1.96025 1.96025,-1.96025v0c1.08262,0 1.96025,0.87763 1.96025,1.96025v23.52297c0,1.08262 -0.87763,1.96025 -1.96025,1.96025z" fill="#bcd5e0" stroke="none" stroke-linecap="butt"/><path d="M225.30124,156.83815c-1.08262,0 -1.96025,-0.87763 -1.96025,-1.96025v0c0,-1.08262 0.87763,-1.96025 1.96025,-1.96025h15.68198c1.08262,0 1.96025,0.87763 1.96025,1.96025v0c0,1.08262 -0.87763,1.96025 -1.96025,1.96025z" fill="#bcd5e0" stroke="none" stroke-linecap="butt"/><path d="M240.98322,156.83815c-1.08262,0 -1.96025,-0.87763 -1.96025,-1.96025v-7.84099c0,-1.08262 0.87763,-1.96025 1.96025,-1.96025v0c1.08262,0 1.96025,0.87763 1.96025,1.96025v7.84099c0,1.08262 -0.87763,1.96025 -1.96025,1.96025z" fill="#bcd5e0" stroke="none" stroke-linecap="butt"/><path d="M240.98322,148.99716c-1.08262,0 -1.96025,-0.87763 -1.96025,-1.96025v0c0,-1.08262 0.87763,-1.96025 1.96025,-1.96025h7.84099c1.08262,0 1.96025,0.87763 1.96025,1.96025v0c0,1.08262 -0.87763,1.96025 -1.96025,1.96025z" fill="#bcd5e0" stroke="none" stroke-linecap="butt"/><path d="M248.82421,196.04311c-1.08262,0 -1.96025,-0.87763 -1.96025,-1.96025v-47.04595c0,-1.08262 0.87763,-1.96025 1.96025,-1.96025v0c1.08262,0 1.96025,0.87763 1.96025,1.96025v47.04595c0,1.08262 -0.87763,1.96025 -1.96025,1.96025z" fill="#bcd5e0" stroke="none" stroke-linecap="butt"/><path d="M248.82421,196.04311c-1.08262,0 -1.96025,-0.87763 -1.96025,-1.96025v0c0,-1.08262 0.87763,-1.96025 1.96025,-1.96025h31.36396c1.08262,0 1.96025,0.87763 1.96025,1.96025v0c0,1.08262 -0.87763,1.96025 -1.96025,1.96025z" fill="#bcd5e0" stroke="none" stroke-linecap="butt"/><path d="M280.18818,196.04311c-1.08262,0 -1.96025,-0.87763 -1.96025,-1.96025v-15.68198c0,-1.08262 0.87763,-1.96025 1.96025,-1.96025v0c1.08262,0 1.96025,0.87763 1.96025,1.96025v15.68198c0,1.08262 -0.87763,1.96025 -1.96025,1.96025z" fill="#bcd5e0" stroke="none" stroke-linecap="butt"/><path d="M264.50619,180.36113c-1.08262,0 -1.96025,-0.87763 -1.96025,-1.96025v0c0,-1.08262 0.87763,-1.96025 1.96025,-1.96025h15.68198c1.08262,0 1.96025,0.87763 1.96025,1.96025v0c0,1.08262 -0.87763,1.96025 -1.96025,1.96025z" fill="#bcd5e0" stroke="none" stroke-linecap="butt"/><path d="M264.50619,180.36113c-1.08262,0 -1.96025,-0.87763 -1.96025,-1.96025v-23.52297c0,-1.08262 0.87763,-1.96025 1.96025,-1.96025v0c1.08262,0 1.96025,0.87763 1.96025,1.96025v23.52297c0,1.08262 -0.87763,1.96025 -1.96025,1.96025z" fill="#bcd5e0" stroke="none" stroke-linecap="butt"/><path d="M264.50619,156.83815c-1.08262,0 -1.96025,-0.87763 -1.96025,-1.96025v0c0,-1.08262 0.87763,-1.96025 1.96025,-1.96025h27.44347c1.08262,0 1.96025,0.87763 1.96025,1.96025v0c0,1.08262 -0.87763,1.96025 -1.96025,1.96025z" fill="#bcd5e0" stroke="none" stroke-linecap="butt"/><path d="M217.46025,194.08286h15.68198" fill="#000000" stroke="#213a34" stroke-linecap="round"/><path d="M233.14223,194.08286v-15.68198" fill="#000000" stroke="#213a34" stroke-linecap="round"/><path d="M225.30124,178.40088h7.84099" fill="#000000" stroke="#213a34" stroke-linecap="round"/><path d="M225.30124,178.40088v-23.52297" fill="#000000" stroke="#213a34" stroke-linecap="round"/><path d="M240.98322,154.87791h-15.68198" fill="#000000" stroke="#213a34" stroke-linecap="round"/><path d="M240.98322,147.03691v7.84099" fill="#000000" stroke="#213a34" stroke-linecap="round"/><path d="M240.98322,147.03691h7.84099" fill="#000000" stroke="#213a34" stroke-linecap="round"/><path d="M248.82421,147.03691v47.04595" fill="#000000" stroke="#213a34" stroke-linecap="round"/><path d="M248.82421,194.08286h31.36396" fill="#000000" stroke="#213a34" stroke-linecap="round"/><path d="M280.18818,194.08286v-15.68198" fill="#000000" stroke="#213a34" stroke-linecap="round"/><path d="M280.18818,178.40088h-15.68198" fill="#000000" stroke="#213a34" stroke-linecap="round"/><path d="M264.50619,154.87791v23.52297" fill="#000000" stroke="#213a34" stroke-linecap="round"/><path d="M264.50619,154.87791h27.44347" fill="#000000" stroke="#213a34" stroke-linecap="round"/><path d="M228.82968,201.92385c0,-0.21652 0.17553,-0.39205 0.39205,-0.39205c0.21652,0 0.39205,0.17553 0.39205,0.39205c0,0.21652 -0.17553,0.39205 -0.39205,0.39205c-0.21652,0 -0.39205,-0.17553 -0.39205,-0.39205z" fill-opacity="0.8" fill="#75afff" stroke="none" stroke-linecap="butt"/><path d="M228.04559,201.92385c0,-0.64957 0.52658,-1.17615 1.17615,-1.17615c0.64957,0 1.17615,0.52658 1.17615,1.17615c0,0.64957 -0.52658,1.17615 -1.17615,1.17615c-0.64957,0 -1.17615,-0.52658 -1.17615,-1.17615z" fill-opacity="0.6" fill="#75afff" stroke="none" stroke-linecap="butt"/><path d="M271.95514,201.92385c0,-0.21652 0.17553,-0.39205 0.39205,-0.39205c0.21652,0 0.39205,0.17553 0.39205,0.39205c0,0.21652 -0.17553,0.39205 -0.39205,0.39205c-0.21652,0 -0.39205,-0.17553 -0.39205,-0.39205z" fill-opacity="0.8" fill="#d275ff" stroke="none" stroke-linecap="butt"/><path d="M271.17104,201.92385c0,-0.64957 0.52658,-1.17615 1.17615,-1.17615c0.64957,0 1.17615,0.52658 1.17615,1.17615c0,0.64957 -0.52658,1.17615 -1.17615,1.17615c-0.64957,0 -1.17615,-0.52658 -1.17615,-1.17615z" fill-opacity="0.6" fill="#d275ff" stroke="none" stroke-linecap="butt"/><path d="M260.19365,198.00336c0,-0.21652 0.17553,-0.39205 0.39205,-0.39205c0.21652,0 0.39205,0.17553 0.39205,0.39205c0,0.21652 -0.17553,0.39205 -0.39205,0.39205c-0.21652,0 -0.39205,-0.17553 -0.39205,-0.39205z" fill-opacity="0.8" fill="#7595ff" stroke="none" stroke-linecap="butt"/><path d="M259.40955,198.00336c0,-0.64957 0.52658,-1.17615 1.17615,-1.17615c0.64957,0 1.17615,0.52658 1.17615,1.17615c0,0.64957 -0.52658,1.17615 -1.17615,1.17615c-0.64957,0 -1.17615,-0.52658 -1.17615,-1.17615z" fill-opacity="0.6" fill="#7595ff" stroke="none" stroke-linecap="butt"/><path d="M287.63712,194.08286c0,-0.21652 0.17553,-0.39205 0.39205,-0.39205c0.21652,0 0.39205,0.17553 0.39205,0.39205c0,0.21652 -0.17553,0.39205 -0.39205,0.39205c-0.21652,0 -0.39205,-0.17553 -0.39205,-0.39205z" fill-opacity="0.8" fill="#9e75ff" stroke="none" stroke-linecap="butt"/><path d="M286.85302,194.08286c0,-0.64957 0.52658,-1.17615 1.17615,-1.17615c0.64957,0 1.17615,0.52658 1.17615,1.17615c0,0.64957 -0.52658,1.17615 -1.17615,1.17615c-0.64957,0 -1.17615,-0.52658 -1.17615,-1.17615z" fill-opacity="0.6" fill="#9e75ff" stroke="none" stroke-linecap="butt"/><path d="M236.67068,190.16236c0,-0.21652 0.17553,-0.39205 0.39205,-0.39205c0.21652,0 0.39205,0.17553 0.39205,0.39205c0,0.21652 -0.17553,0.39205 -0.39205,0.39205c-0.21652,0 -0.39205,-0.17553 -0.39205,-0.39205z" fill-opacity="0.8" fill="#a475ff" stroke="none" stroke-linecap="butt"/><path d="M235.88658,190.16236c0,-0.64957 0.52658,-1.17615 1.17615,-1.17615c0.64957,0 1.17615,0.52658 1.17615,1.17615c0,0.64957 -0.52658,1.17615 -1.17615,1.17615c-0.64957,0 -1.17615,-0.52658 -1.17615,-1.17615z" fill-opacity="0.6" fill="#a475ff" stroke="none" stroke-linecap="butt"/><path d="M264.11414,186.24187c0,-0.21652 0.17553,-0.39205 0.39205,-0.39205c0.21652,0 0.39205,0.17553 0.39205,0.39205c0,0.21652 -0.17553,0.39205 -0.39205,0.39205c-0.21652,0 -0.39205,-0.17553 -0.39205,-0.39205z" fill-opacity="0.8" fill="#ed75ff" stroke="none" stroke-linecap="butt"/><path d="M263.33005,186.24187c0,-0.64957 0.52658,-1.17615 1.17615,-1.17615c0.64957,0 1.17615,0.52658 1.17615,1.17615c0,0.64957 -0.52658,1.17615 -1.17615,1.17615c-0.64957,0 -1.17615,-0.52658 -1.17615,-1.17615z" fill-opacity="0.6" fill="#ed75ff" stroke="none" stroke-linecap="butt"/><path d="M283.71662,182.32137c0,-0.21652 0.17553,-0.39205 0.39205,-0.39205c0.21652,0 0.39205,0.17553 0.39205,0.39205c0,0.21652 -0.17553,0.39205 -0.39205,0.39205c-0.21652,0 -0.39205,-0.17553 -0.39205,-0.39205z" fill-opacity="0.8" fill="#75a2ff" stroke="none" stroke-linecap="butt"/><path d="M282.93252,182.32137c0,-0.64957 0.52658,-1.17615 1.17615,-1.17615c0.64957,0 1.17615,0.52658 1.17615,1.17615c0,0.64957 -0.52658,1.17615 -1.17615,1.17615c-0.64957,0 -1.17615,-0.52658 -1.17615,-1.17615z" fill-opacity="0.6" fill="#75a2ff" stroke="none" stroke-linecap="butt"/><path d="M217.0682,178.40088c0,-0.21652 0.17553,-0.39205 0.39205,-0.39205c0.21652,0 0.39205,0.17553 0.39205,0.39205c0,0.21652 -0.17553,0.39205 -0.39205,0.39205c-0.21652,0 -0.39205,-0.17553 -0.39205,-0.39205z" fill-opacity="0.8" fill="#75ffd0" stroke="none" stroke-linecap="butt"/><path d="M216.2841,178.40088c0,-0.64957 0.52658,-1.17615 1.17615,-1.17615c0.64957,0 1.17615,0.52658 1.17615,1.17615c0,0.64957 -0.52658,1.17615 -1.17615,1.17615c-0.64957,0 -1.17615,-0.52658 -1.17615,-1.17615z" fill-opacity="0.6" fill="#75ffd0" stroke="none" stroke-linecap="butt"/><path d="M244.51167,178.40088c0,-0.21652 0.17553,-0.39205 0.39205,-0.39205c0.21652,0 0.39205,0.17553 0.39205,0.39205c0,0.21652 -0.17553,0.39205 -0.39205,0.39205c-0.21652,0 -0.39205,-0.17553 -0.39205,-0.39205z" fill-opacity="0.8" fill="#75ffd7" stroke="none" stroke-linecap="butt"/><path d="M243.72757,178.40088c0,-0.64957 0.52658,-1.17615 1.17615,-1.17615c0.64957,0 1.17615,0.52658 1.17615,1.17615c0,0.64957 -0.52658,1.17615 -1.17615,1.17615c-0.64957,0 -1.17615,-0.52658 -1.17615,-1.17615z" fill-opacity="0.6" fill="#75ffd7" stroke="none" stroke-linecap="butt"/><path d="M232.75018,174.48038c0,-0.21652 0.17553,-0.39205 0.39205,-0.39205c0.21652,0 0.39205,0.17553 0.39205,0.39205c0,0.21652 -0.17553,0.39205 -0.39205,0.39205c-0.21652,0 -0.39205,-0.17553 -0.39205,-0.39205z" fill-opacity="0.8" fill="#9075ff" stroke="none" stroke-linecap="butt"/><path d="M231.96608,174.48038c0,-0.64957 0.52658,-1.17615 1.17615,-1.17615c0.64957,0 1.17615,0.52658 1.17615,1.17615c0,0.64957 -0.52658,1.17615 -1.17615,1.17615c-0.64957,0 -1.17615,-0.52658 -1.17615,-1.17615z" fill-opacity="0.6" fill="#9075ff" stroke="none" stroke-linecap="butt"/><path d="M260.19365,174.48038c0,-0.21652 0.17553,-0.39205 0.39205,-0.39205c0.21652,0 0.39205,0.17553 0.39205,0.39205c0,0.21652 -0.17553,0.39205 -0.39205,0.39205c-0.21652,0 -0.39205,-0.17553 -0.39205,-0.39205z" fill-opacity="0.8" fill="#9775ff" stroke="none" stroke-linecap="butt"/><path d="M259.40955,174.48038c0,-0.64957 0.52658,-1.17615 1.17615,-1.17615c0.64957,0 1.17615,0.52658 1.17615,1.17615c0,0.64957 -0.52658,1.17615 -1.17615,1.17615c-0.64957,0 -1.17615,-0.52658 -1.17615,-1.17615z" fill-opacity="0.6" fill="#9775ff" stroke="none" stroke-linecap="butt"/><path d="M279.79613,174.48038c0,-0.21652 0.17553,-0.39205 0.39205,-0.39205c0.21652,0 0.39205,0.17553 0.39205,0.39205c0,0.21652 -0.17553,0.39205 -0.39205,0.39205c-0.21652,0 -0.39205,-0.17553 -0.39205,-0.39205z" fill-opacity="0.8" fill="#75ffc3" stroke="none" stroke-linecap="butt"/><path d="M279.01203,174.48038c0,-0.64957 0.52658,-1.17615 1.17615,-1.17615c0.64957,0 1.17615,0.52658 1.17615,1.17615c0,0.64957 -0.52658,1.17615 -1.17615,1.17615c-0.64957,0 -1.17615,-0.52658 -1.17615,-1.17615z" fill-opacity="0.6" fill="#75ffc3" stroke="none" stroke-linecap="butt"/><path d="M291.55761,170.55989c0,-0.21652 0.17553,-0.39205 0.39205,-0.39205c0.21652,0 0.39205,0.17553 0.39205,0.39205c0,0.21652 -0.17553,0.39205 -0.39205,0.39205c-0.21652,0 -0.39205,-0.17553 -0.39205,-0.39205z" fill-opacity="0.8" fill="#b175ff" stroke="none" stroke-linecap="butt"/><path d="M290.77351,170.55989c0,-0.64957 0.52658,-1.17615 1.17615,-1.17615c0.64957,0 1.17615,0.52658 1.17615,1.17615c0,0.64957 -0.52658,1.17615 -1.17615,1.17615c-0.64957,0 -1.17615,-0.52658 -1.17615,-1.17615z" fill-opacity="0.6" fill="#b175ff" stroke="none" stroke-linecap="butt"/><path d="M244.51167,166.63939c0,-0.21652 0.17553,-0.39205 0.39205,-0.39205c0.21652,0 0.39205,0.17553 0.39205,0.39205c0,0.21652 -0.17553,0.39205 -0.39205,0.39205c-0.21652,0 -0.39205,-0.17553 -0.39205,-0.39205z" fill-opacity="0.8" fill="#8a75ff" stroke="none" stroke-linecap="butt"/><path d="M243.72757,166.63939c0,-0.64957 0.52658,-1.17615 1.17615,-1.17615c0.64957,0 1.17615,0.52658 1.17615,1.17615c0,0.64957 -0.52658,1.17615 -1.17615,1.17615c-0.64957,0 -1.17615,-0.52658 -1.17615,-1.17615z" fill-opacity="0.6" fill="#8a75ff" stroke="none" stroke-linecap="butt"/><path d="M236.67068,158.7984c0,-0.21652 0.17553,-0.39205 0.39205,-0.39205c0.21652,0 0.39205,0.17553 0.39205,0.39205c0,0.21652 -0.17553,0.39205 -0.39205,0.39205c-0.21652,0 -0.39205,-0.17553 -0.39205,-0.39205z" fill-opacity="0.8" fill="#75caff" stroke="none" stroke-linecap="butt"/><path d="M235.88658,158.7984c0,-0.64957 0.52658,-1.17615 1.17615,-1.17615c0.64957,0 1.17615,0.52658 1.17615,1.17615c0,0.64957 -0.52658,1.17615 -1.17615,1.17615c-0.64957,0 -1.17615,-0.52658 -1.17615,-1.17615z" fill-opacity="0.6" fill="#75caff" stroke="none" stroke-linecap="butt"/><path d="M275.87563,150.95741c0,-0.21652 0.17553,-0.39205 0.39205,-0.39205c0.21652,0 0.39205,0.17553 0.39205,0.39205c0,0.21652 -0.17553,0.39205 -0.39205,0.39205c-0.21652,0 -0.39205,-0.17553 -0.39205,-0.39205z" fill-opacity="0.8" fill="#75caff" stroke="none" stroke-linecap="butt"/><path d="M224.90919,147.03691c0,-0.21652 0.17553,-0.39205 0.39205,-0.39205c0.21652,0 0.39205,0.17553 0.39205,0.39205c0,0.21652 -0.17553,0.39205 -0.39205,0.39205c-0.21652,0 -0.39205,-0.17553 -0.39205,-0.39205z" fill-opacity="0.8" fill="#75c3ff" stroke="none" stroke-linecap="butt"/><path d="M224.12509,147.03691c0,-0.64957 0.52658,-1.17615 1.17615,-1.17615c0.64957,0 1.17615,0.52658 1.17615,1.17615c0,0.64957 -0.52658,1.17615 -1.17615,1.17615c-0.64957,0 -1.17615,-0.52658 -1.17615,-1.17615z" fill-opacity="0.6" fill="#75c3ff" stroke="none" stroke-linecap="butt"/><path d="M215.5,194.08286c0,-1.08262 0.87763,-1.96025 1.96025,-1.96025c1.08262,0 1.96025,0.87763 1.96025,1.96025c0,1.08262 -0.87763,1.96025 -1.96025,1.96025c-1.08262,0 -1.96025,-0.87763 -1.96025,-1.96025z" fill-opacity="0.35" fill="#00ff44" stroke="none" stroke-linecap="butt"/><path d="M289.98941,154.87791c0,-1.08262 0.87763,-1.96025 1.96025,-1.96025c1.08262,0 1.96025,0.87763 1.96025,1.96025c0,1.08262 -0.87763,1.96025 -1.96025,1.96025c-1.08262,0 -1.96025,-0.87763 -1.96025,-1.96025z" fill-opacity="0.35" fill="#ff0404" stroke="none" stroke-linecap="butt"/></g></g></svg>