<svg version="1.1" xmlns="http://www.w3.org/2000/svg" xmlns:xlink="http://www.w3.org/1999/xlink" width="240.8" height="176.8" viewBox="0,0,240.8,176.8"><defs><linearGradient x1="120" y1="92" x2="120" y2="268" gradientUnits="userSpaceOnUse" id="color-1"><stop offset="0" stop-color="#5a950d"/><stop offset="1" stop-color="#203504"/></linearGradient></defs><g transform="translate(-119.6,-91.6)"><g data-paper-data="{&quot;isPaintingLayer&quot;:true}" fill-rule="nonzero" stroke-linejoin="miter" stroke-miterlimit="10" stroke-dasharray="" stroke-dashoffset="0" style="mix-blend-mode: normal"><path d="M120,268v-176h240v176z" fill="url(#color-1)" stroke="none" stroke-width="1" stroke-linecap="butt"/><path d="M120,92h240" fill="#000000" stroke-opacity="0.5" stroke="#ffffff" stroke-width="0.8" stroke-linecap="butt"/><path d="M120,108h240" fill="#000000" stroke-opacity="0.5" stroke="#ffffff" stroke-width="0.8" stroke-linecap="butt"/><path d="M120,124h240" fill="#000000" stroke-opacity="0.5" stroke="#ffffff" stroke-width="0.8" stroke-linecap="butt"/><path d="M120,140h240" fill="#000000" stroke-opacity="0.5" stroke="#ffffff" stroke-width="0.8" stroke-linecap="butt"/><path d="M120,156h240" fill="#000000" stroke-opacity="0.5" stroke="#ffffff" stroke-width="0.8" stroke-linecap="butt"/><path d="M120,172h240" fill="#000000" stroke-opacity="0.5" stroke="#ffffff" stroke-width="0.8" stroke-linecap="butt"/><path d="M120,188h240" fill="#000000" stroke-opacity="0.5" stroke="#ffffff" stroke-width="0.8" stroke-linecap="butt"/><path d="M120,204h240" fill="#000000" stroke-opacity="0.5" stroke="#ffffff" stroke-width="0.8" stroke-linecap="butt"/><path d="M120,220h240" fill="#000000" stroke-opacity="0.5" stroke="#ffffff" stroke-width="0.8" stroke-linecap="butt"/><path d="M120,236h240" fill="#000000" stroke-opacity="0.5" stroke="#ffffff" stroke-width="0.8" stroke-linecap="butt"/><path d="M120,252h240" fill="#000000" stroke-opacity="0.5" stroke="#ffffff" stroke-width="0.8" stroke-linecap="butt"/><path d="M120,268h240" fill="#000000" stroke-opacity="0.5" stroke="#ffffff" stroke-width="0.8" stroke-linecap="butt"/><path d="M120,92v176" fill="#000000" stroke-opacity="0.5" stroke="#ffffff" stroke-width="0.8" stroke-linecap="butt"/><path d="M136,92v176" fill="#000000" stroke-opacity="0.5" stroke="#ffffff" stroke-width="0.8" stroke-linecap="butt"/><path d="M152,92v176" fill="#000000" stroke-opacity="0.5" stroke="#ffffff" stroke-width="0.8" stroke-linecap="butt"/><path d="M168,92v176" fill="#000000" stroke-opacity="0.5" stroke="#ffffff" stroke-width="0.8" stroke-linecap="butt"/><path d="M184,92v176" fill="#000000" stroke-opacity="0.5" stroke="#ffffff" stroke-width="0.8" stroke-linecap="butt"/><path d="M200,92v176" fill="#000000" stroke-opacity="0.5" stroke="#ffffff" stroke-width="0.8" stroke-linecap="butt"/><path d="M216,92v176" fill="#000000" stroke-opacity="0.5" stroke="#ffffff" stroke-width="0.8" stroke-linecap="butt"/><path d="M232,92v176" fill="#000000" stroke-opacity="0.5" stroke="#ffffff" stroke-width="0.8" stroke-linecap="butt"/><path d="M248,92v176" fill="#000000" stroke-opacity="0.5" stroke="#ffffff" stroke-width="0.8" stroke-linecap="butt"/><path d="M264,92v176" fill="#000000" stroke-opacity="0.5" stroke="#ffffff" stroke-width="0.8" stroke-linecap="butt"/><path d="M280,92v176" fill="#000000" stroke-opacity="0.5" stroke="#ffffff" stroke-width="0.8" stroke-linecap="butt"/><path d="M296,268v-176" fill="#000000" stroke-opacity="0.5" stroke="#ffffff" stroke-width="0.8" stroke-linecap="butt"/><path d="M312,92v176" fill="#000000" stroke-opacity="0.5" stroke="#ffffff" stroke-width="0.8" stroke-linecap="butt"/><path d="M328,92v176" fill="#000000" stroke-opacity="0.5" stroke="#ffffff" stroke-width="0.8" stroke-linecap="butt"/><path d="M344,92v176" fill="#000000" stroke-opacity="0.5" stroke="#ffffff" stroke-width="0.8" stroke-linecap="butt"/><path d="M360,92v176" fill="#000000" stroke-opacity="0.5" stroke="#ffffff" stroke-width="0.8" stroke-linecap="butt"/><path d="M160,228h32" fill="#000000" stroke-opacity="0.5" stroke="#a3ff33" stroke-width="15.2" stroke-linecap="round"/><path d="M160,212h32" fill="#000000" stroke-opacity="0.5" stroke="#a3ff33" stroke-width="15.2" stroke-linecap="round"/><path d="M160,196h32" fill="#000000" stroke-opacity="0.5" stroke="#a3ff33" stroke-width="15.2" stroke-linecap="round"/><path d="M224,164h32" fill="#000000" stroke-opacity="0.5" stroke="#a3ff33" stroke-width="15.2" stroke-linecap="round"/><path d="M256,148h-32" fill="#000000" stroke-opacity="0.5" stroke="#a3ff33" stroke-width="15.2" stroke-linecap="round"/><path d="M256,132h-32" fill="#000000" stroke-opacity="0.5" stroke="#a3ff33" stroke-width="15.2" stroke-linecap="round"/><path d="M240,212h64" fill="#000000" stroke-opacity="0.5" stroke="#a3ff33" stroke-width="15.2" stroke-linecap="round"/><path d="M304,212v-96" fill="#000000" stroke-opacity="0.5" stroke="#a3ff33" stroke-width="15.2" stroke-linecap="round"/><path d="M160,228h32" fill="#000000" stroke="#2d456f" stroke-width="10.4" stroke-linecap="round"/><path d="M160,212h32" fill="#000000" stroke="#2d456f" stroke-width="10.4" stroke-linecap="round"/><path d="M160,196h32" fill="#000000" stroke="#2d456f" stroke-width="10.4" stroke-linecap="round"/><path d="M224,164h32" fill="#000000" stroke="#2d456f" stroke-width="10.4" stroke-linecap="round"/><path d="M256,148h-32" fill="#000000" stroke="#2d456f" stroke-width="10.4" stroke-linecap="round"/><path d="M256,132h-32" fill="#000000" stroke="#2d456f" stroke-width="10.4" stroke-linecap="round"/><path d="M240,212h64" fill="#000000" stroke="#2d456f" stroke-width="10.4" stroke-linecap="round"/><path d="M304,212v-96" fill="#000000" stroke="#2d456f" stroke-width="10.4" stroke-linecap="round"/><path d="M144,268c-4.41828,0 -8,-3.58172 -8,-8v-80c0,-4.41828 3.58172,-8 8,-8v0c4.41828,0 8,3.58172 8,8v80c0,4.41828 -3.58172,8 -8,8z" fill="#bcd5e0" stroke="none" stroke-width="1" stroke-linecap="butt"/><path d="M144,188c-4.41828,0 -8,-3.58172 -8,-8v0c0,-4.41828 3.58172,-8 8,-8h128c4.41828,0 8,3.58172 8,8v0c0,4.41828 -3.58172,8 -8,8z" fill="#bcd5e0" stroke="none" stroke-width="1" stroke-linecap="butt"/><path d="M272,188c-4.41828,0 -8,-3.58172 -8,-8v-64c0,-4.41828 3.58172,-8 8,-8v0c4.41828,0 8,3.58172 8,8v64c0,4.41828 -3.58172,8 -8,8z" fill="#bcd5e0" stroke="none" stroke-width="1" stroke-linecap="butt"/><path d="M208,124c-4.41828,0 -8,-3.58172 -8,-8v0c0,-4.41828 3.58172,-8 8,-8h64c4.41828,0 8,3.58172 8,8v0c0,4.41828 -3.58172,8 -8,8z" fill="#bcd5e0" stroke="none" stroke-width="1" stroke-linecap="butt"/><path d="M208,252c-4.41828,0 -8,-3.58172 -8,-8v-128c0,-4.41828 3.58172,-8 8,-8v0c4.41828,0 8,3.58172 8,8v128c0,4.41828 -3.58172,8 -8,8z" fill="#bcd5e0" stroke="none" stroke-width="1" stroke-linecap="butt"/><path d="M208,252c-4.41828,0 -8,-3.58172 -8,-8v0c0,-4.41828 3.58172,-8 8,-8h128c4.41828,0 8,3.58172 8,8v0c0,4.41828 -3.58172,8 -8,8z" fill="#bcd5e0" stroke="none" stroke-width="1" stroke-linecap="butt"/><path d="M336,252c-4.41828,0 -8,-3.58172 -8,-8v-144c0,-4.41828 3.58172,-8 8,-8v0c4.41828,0 8,3.58172 8,8v144c0,4.41828 -3.58172,8 -8,8z" fill="#bcd5e0" stroke="none" stroke-width="1" stroke-linecap="butt"/><path d="M144,260v-80" fill="#000000" stroke="#213a34" stroke-width="12" stroke-linecap="round"/><path d="M144,180h128" fill="#000000" stroke="#213a34" stroke-width="12" stroke-linecap="round"/><path d="M272,180v-64" fill="#000000" stroke="#213a34" stroke-width="12" stroke-linecap="round"/><path d="M272,116h-64" fill="#000000" stroke="#213a34" stroke-width="12" stroke-linecap="round"/><path d="M208,116v128" fill="#000000" stroke="#213a34" stroke-width="12" stroke-linecap="round"/><path d="M208,244h128" fill="#000000" stroke="#213a34" stroke-width="12" stroke-linecap="round"/><path d="M336,244v-144" fill="#000000" stroke="#213a34" stroke-width="12" stroke-linecap="round"/><path d="M208,168.8v22.4" fill="#000000" stroke="#1c332c" stroke-width="9.6" stroke-linecap="round"/><path d="M196.8,180h22.4" fill="#000000" stroke="#213a33" stroke-width="9.6" stroke-linecap="round"/><path d="M136,260c0,-4.41828 3.58172,-8 8,-8c4.41828,0 8,3.58172 8,8c0,4.41828 -3.58172,8 -8,8c-4.41828,0 -8,-3.58172 -8,-8z" fill-opacity="0.35" fill="#00ff44" stroke="none" stroke-width="1" stroke-linecap="butt"/><path d="M328,100c0,-4.41828 3.58172,-8 8,-8c4.41828,0 8,3.58172 8,8c0,4.41828 -3.58172,8 -8,8c-4.41828,0 -8,-3.58172 -8,-8z" fill-opacity="0.35" fill="#ff0404" stroke="none" stroke-width="1" stroke-linecap="butt"/></g></g></svg>