<svg version="1.1" xmlns="http://www.w3.org/2000/svg" xmlns:xlink="http://www.w3.org/1999/xlink" width="24.72123" height="16.75948" viewBox="0,0,24.72123,16.75948"><g transform="translate(-234.62449,-163.11112)"><g data-paper-data="{&quot;isPaintingLayer&quot;:true}" fill="#ffffff" fill-rule="evenodd" stroke="none" stroke-width="1" stroke-linecap="butt" stroke-linejoin="miter" stroke-miterlimit="10" stroke-dasharray="" stroke-dashoffset="0" style="mix-blend-mode: normal"><path d="M244.84814,170.6797c4.13959,4.21828 0.21122,8.25242 -0.36007,9.00726c-1.18088,-2.23172 -4.92091,-3.93665 -6.71436,-4.82756c-1.9894,-0.98826 5.02856,-0.03624 5.57527,-0.23621c-1.91834,-0.28465 -6.89511,-2.98744 -7.40772,-3.72787c-0.8097,-1.16958 4.35132,-1.00448 5.17556,-1.0386c-4.34163,-2.06517 -7.18403,-4.31656 -6.34574,-6.7456c1.28164,1.11734 5.96519,3.37855 10.07707,7.56858z"/><path d="M259.19913,163.29476c0.83828,2.42903 -2.00411,4.68042 -6.34573,6.74559c0.82424,0.03412 5.98526,-0.13097 5.17556,1.03861c-0.51261,0.74043 -5.48938,3.44323 -7.40772,3.72787c0.54671,0.19998 7.56466,-0.75205 5.57527,0.2362c-1.79345,0.89091 -5.53347,2.59584 -6.71436,4.82757c-0.57128,-0.75484 -4.49966,-4.78898 -0.36007,-9.00726c4.11188,-4.19003 8.79543,-6.45125 10.07707,-7.56858z" data-paper-data="{&quot;index&quot;:null}"/></g></g></svg>