<svg width="480px" height="360px" xmlns="http://www.w3.org/2000/svg"><path fill="#F00" d="M251.434 169.901L252.254 171.296Q251.581 171.908 250.840 172.269Q250.099 172.630 249.230 172.630L249.230 172.630Q248.557 172.630 247.963 172.428Q247.370 172.226 246.794 171.976Q246.219 171.725 245.643 171.523Q245.068 171.321 244.432 171.321L244.432 171.321Q243.844 171.321 243.330 171.596Q242.816 171.871 242.387 172.226L242.387 172.226L241.555 170.843Q242.216 170.243 242.969 169.870Q243.721 169.497 244.591 169.497L244.591 169.497Q245.252 169.497 245.852 169.699Q246.451 169.901 247.021 170.145Q247.590 170.390 248.171 170.598Q248.753 170.806 249.377 170.806L249.377 170.806Q249.965 170.806 250.485 170.543Q251.005 170.280 251.434 169.901L251.434 169.901ZM251.434 174.430L252.254 175.813Q251.581 176.438 250.840 176.805Q250.099 177.172 249.230 177.172L249.230 177.172Q248.557 177.172 247.963 176.970Q247.370 176.768 246.794 176.517Q246.219 176.266 245.643 176.064Q245.068 175.862 244.432 175.862L244.432 175.862Q243.844 175.862 243.330 176.125Q242.816 176.389 242.387 176.768L242.387 176.768L241.555 175.360Q242.216 174.761 242.969 174.399Q243.721 174.038 244.591 174.038L244.591 174.038Q245.252 174.038 245.852 174.240Q246.451 174.442 247.021 174.687Q247.590 174.932 248.171 175.140Q248.753 175.348 249.377 175.348L249.377 175.348Q249.965 175.348 250.485 175.079Q251.005 174.809 251.434 174.430L251.434 174.430Z"/></svg>