<svg version="1.1" xmlns="http://www.w3.org/2000/svg" xmlns:xlink="http://www.w3.org/1999/xlink" width="55.125" height="55.125" viewBox="0,0,55.125,55.125"><defs><linearGradient x1="240" y1="153.1875" x2="240" y2="206.8125" gradientUnits="userSpaceOnUse" id="color-1"><stop offset="0" stop-color="#02361f"/><stop offset="1" stop-color="#000000" stop-opacity="0.60925"/></linearGradient><linearGradient x1="240" y1="153.1875" x2="240" y2="206.8125" gradientUnits="userSpaceOnUse" id="color-2"><stop offset="0" stop-color="#00ff8d"/><stop offset="1" stop-color="#00ff8d" stop-opacity="0"/></linearGradient><linearGradient x1="239.88278" y1="169.66093" x2="239.88278" y2="205.21648" gradientUnits="userSpaceOnUse" id="color-3"><stop offset="0" stop-color="#0a5a00"/><stop offset="1" stop-color="#0a5a00" stop-opacity="0"/></linearGradient><linearGradient x1="239.88278" y1="169.66093" x2="239.88278" y2="205.21648" gradientUnits="userSpaceOnUse" id="color-4"><stop offset="0" stop-color="#63ceff" stop-opacity="0"/><stop offset="1" stop-color="#63ceff" stop-opacity="0"/></linearGradient><linearGradient x1="239.66056" y1="175.54981" x2="239.66056" y2="184.99426" gradientUnits="userSpaceOnUse" id="color-5"><stop offset="0" stop-color="#b28507"/><stop offset="1" stop-color="#875705" stop-opacity="0.1129"/></linearGradient><linearGradient x1="239.66056" y1="175.54981" x2="239.66056" y2="184.99426" gradientUnits="userSpaceOnUse" id="color-6"><stop offset="0" stop-color="#f3e9bc"/><stop offset="1" stop-color="#f0f2bb" stop-opacity="0.10901"/></linearGradient><linearGradient x1="252.88278" y1="193.60537" x2="252.88278" y2="198.32759" gradientUnits="userSpaceOnUse" id="color-7"><stop offset="0" stop-color="#00ffff"/><stop offset="1" stop-color="#00ffff" stop-opacity="0"/></linearGradient><linearGradient x1="252.38278" y1="179.10537" x2="252.38278" y2="194.32759" gradientUnits="userSpaceOnUse" id="color-8"><stop offset="0" stop-color="#0affff"/><stop offset="1" stop-color="#069292"/></linearGradient><linearGradient x1="252.38278" y1="179.10537" x2="252.38278" y2="194.32759" gradientUnits="userSpaceOnUse" id="color-9"><stop offset="0" stop-color="#00ffff"/><stop offset="1" stop-color="#00ffff" stop-opacity="0"/></linearGradient><linearGradient x1="258.605" y1="187.32759" x2="258.605" y2="190.77204" gradientUnits="userSpaceOnUse" id="color-10"><stop offset="0" stop-color="#d2f1ff"/><stop offset="1" stop-color="#63ceff"/></linearGradient><linearGradient x1="227.105" y1="193.82759" x2="227.105" y2="198.54981" gradientUnits="userSpaceOnUse" id="color-11"><stop offset="0" stop-color="#00ffff"/><stop offset="1" stop-color="#00ffff" stop-opacity="0"/></linearGradient><linearGradient x1="227.605" y1="179.32759" x2="227.605" y2="194.54981" gradientUnits="userSpaceOnUse" id="color-12"><stop offset="0" stop-color="#0affff"/><stop offset="1" stop-color="#069292"/></linearGradient><linearGradient x1="227.605" y1="179.32759" x2="227.605" y2="194.54981" gradientUnits="userSpaceOnUse" id="color-13"><stop offset="0" stop-color="#00ffff"/><stop offset="1" stop-color="#00ffff" stop-opacity="0"/></linearGradient><linearGradient x1="221.38278" y1="187.54981" x2="221.38278" y2="190.99426" gradientUnits="userSpaceOnUse" id="color-14"><stop offset="0" stop-color="#d2f1ff"/><stop offset="1" stop-color="#63ceff"/></linearGradient><radialGradient cx="239.71611" cy="169.60537" r="11.94444" gradientUnits="userSpaceOnUse" id="color-15"><stop offset="0" stop-color="#ffec45"/><stop offset="1" stop-color="#ffa345"/></radialGradient></defs><g transform="translate(-212.4375,-152.4375)"><g data-paper-data="{&quot;isPaintingLayer&quot;:true}" fill-rule="nonzero" stroke-linejoin="miter" stroke-miterlimit="10" stroke-dasharray="" stroke-dashoffset="0" style="mix-blend-mode: normal"><path d="M213.1875,206.8125v-53.625h53.625v53.625z" fill="url(#color-1)" stroke="url(#color-2)" stroke-width="1.5" stroke-linecap="butt"/><path d="M214.32722,205.21648v-35.55556h51.11111v35.55556z" fill="url(#color-3)" stroke="url(#color-4)" stroke-width="0" stroke-linecap="butt"/><path d="M246.10499,175.88314l5.66667,9.11111h-24.22222l4.88889,-9.44444z" fill="url(#color-5)" stroke="url(#color-6)" stroke-width="0.5" stroke-linecap="round"/><path d="M248.54944,198.32759c0,0 1.48617,-3.37506 2.27778,-4.16666c0.78235,-0.78235 2.88889,-0.66666 2.88889,-0.66666l3.5,4.05555z" data-paper-data="{&quot;index&quot;:null}" fill="#00f3ff" stroke="url(#color-7)" stroke-width="1.5" stroke-linecap="round"/><path d="M252.38278,194.32759c-4.2035,0 -7.61111,-3.40761 -7.61111,-7.61111c0,-4.2035 3.40761,-7.61111 7.61111,-7.61111c4.2035,0 7.61111,3.40761 7.61111,7.61111c0,4.2035 -3.40761,7.61111 -7.61111,7.61111z" data-paper-data="{&quot;index&quot;:null}" fill="url(#color-8)" stroke="url(#color-9)" stroke-width="1" stroke-linecap="butt"/><path d="M254.88278,186.99426l8.77778,4.11111" data-paper-data="{&quot;index&quot;:null}" fill="none" stroke="url(#color-10)" stroke-width="2.5" stroke-linecap="round"/><path d="M222.77166,197.77204l3.5,-4.05555c0,0 2.10654,-0.11569 2.88889,0.66666c0.79161,0.79161 2.27778,4.16666 2.27778,4.16666z" fill="#00f3ff" stroke="url(#color-11)" stroke-width="1.5" stroke-linecap="round"/><path d="M219.99389,186.9387c0,-4.2035 3.40761,-7.61111 7.61111,-7.61111c4.2035,0 7.61111,3.40761 7.61111,7.61111c0,4.2035 -3.40761,7.61111 -7.61111,7.61111c-4.2035,0 -7.61111,-3.40761 -7.61111,-7.61111z" fill="url(#color-12)" stroke="url(#color-13)" stroke-width="1" stroke-linecap="butt"/><path d="M225.105,187.21648l-8.77778,4.11111" fill="none" stroke="url(#color-14)" stroke-width="2.5" stroke-linecap="round"/><path d="M227.77167,169.60537c0,-4.14214 5.34771,-7.5 11.94444,-7.5c6.59673,0 11.94444,3.35786 11.94444,7.5c0,4.14214 -5.34771,7.5 -11.94444,7.5c-6.59673,0 -11.94444,-3.35786 -11.94444,-7.5z" fill="url(#color-15)" stroke="none" stroke-width="NaN" stroke-linecap="butt"/><path d="M245.02289,169.62214l6.971,3.66895c0,0 -8.60227,1.01593 -12.75555,0.92498c-4.22299,-0.09247 -12.37673,-1.47532 -12.37673,-1.47532l6.971,-3.30205z" fill="#fffcd6" stroke="#f3e9bc" stroke-width="0.5" stroke-linecap="round"/></g></g></svg>