<svg version="1.1" xmlns="http://www.w3.org/2000/svg" xmlns:xlink="http://www.w3.org/1999/xlink" width="64.75" height="60.26072" viewBox="0,0,64.75,60.26072"><defs><linearGradient x1="270.89485" y1="121.10211" x2="270.89485" y2="179.86283" gradientUnits="userSpaceOnUse" id="color-1"><stop offset="0" stop-color="#8a7088"/><stop offset="1" stop-color="#615060"/></linearGradient><linearGradient x1="270.892" y1="167.57146" x2="270.892" y2="180.14294" gradientUnits="userSpaceOnUse" id="color-2"><stop offset="0" stop-color="#d091ce"/><stop offset="1" stop-color="#674866"/></linearGradient><radialGradient cx="270.75" cy="145.125" r="19.4375" gradientUnits="userSpaceOnUse" id="color-3"><stop offset="0" stop-color="#ffd4f9"/><stop offset="1" stop-color="#ffd4f9" stop-opacity="0"/></radialGradient><radialGradient cx="270.75" cy="145.125" r="19.4375" gradientUnits="userSpaceOnUse" id="color-4"><stop offset="0" stop-color="#fecfff"/><stop offset="1" stop-color="#fecfff" stop-opacity="0"/></radialGradient><radialGradient cx="270.75" cy="145.125" r="13.50023" gradientUnits="userSpaceOnUse" id="color-5"><stop offset="0" stop-color="#ac00af" stop-opacity="0"/><stop offset="1" stop-color="#ac00af"/></radialGradient><radialGradient cx="270.75" cy="145.125" r="13.50023" gradientUnits="userSpaceOnUse" id="color-6"><stop offset="0" stop-color="#fecfff"/><stop offset="1" stop-color="#fecfff" stop-opacity="0"/></radialGradient><radialGradient cx="254.75821" cy="134.30878" r="10.9375" gradientUnits="userSpaceOnUse" id="color-7"><stop offset="0" stop-color="#fecfff"/><stop offset="1" stop-color="#fecfff" stop-opacity="0"/></radialGradient><radialGradient cx="254.706" cy="158.02423" r="10.9375" gradientUnits="userSpaceOnUse" id="color-8"><stop offset="0" stop-color="#fecfff"/><stop offset="1" stop-color="#fecfff" stop-opacity="0"/></radialGradient><radialGradient cx="287.15379" cy="133.55878" r="10.9375" gradientUnits="userSpaceOnUse" id="color-9"><stop offset="0" stop-color="#fecfff"/><stop offset="1" stop-color="#fecfff" stop-opacity="0"/></radialGradient><radialGradient cx="287.206" cy="157.27424" r="10.9375" gradientUnits="userSpaceOnUse" id="color-10"><stop offset="0" stop-color="#fecfff"/><stop offset="1" stop-color="#fecfff" stop-opacity="0"/></radialGradient><radialGradient cx="251.07071" cy="145.30097" r="9.25" gradientUnits="userSpaceOnUse" id="color-11"><stop offset="0" stop-color="#fecfff"/><stop offset="1" stop-color="#fecfff" stop-opacity="0"/></radialGradient><radialGradient cx="290.32071" cy="145.30097" r="9.25" gradientUnits="userSpaceOnUse" id="color-12"><stop offset="0" stop-color="#fecfff"/><stop offset="1" stop-color="#fecfff" stop-opacity="0"/></radialGradient></defs><g transform="translate(-238.32071,-120.3521)"><g data-paper-data="{&quot;isPaintingLayer&quot;:true}" fill-rule="nonzero" stroke-linejoin="miter" stroke-miterlimit="10" stroke-dasharray="" stroke-dashoffset="0" style="mix-blend-mode: normal"><path d="M240.46327,179.86283v-58.76072h60.86325v58.76072z" fill="url(#color-1)" stroke="#bf86bd" stroke-width="1.5" stroke-linecap="butt"/><path d="M239.96343,180.14294v-12.57143h61.85715v12.57143z" fill="url(#color-2)" stroke="none" stroke-width="0" stroke-linecap="butt"/><path d="M251.3125,145.125c0,-10.73504 8.70246,-19.4375 19.4375,-19.4375c10.73504,0 19.4375,8.70246 19.4375,19.4375c0,10.73504 -8.70246,19.4375 -19.4375,19.4375c-10.73504,0 -19.4375,-8.70246 -19.4375,-19.4375z" fill="url(#color-3)" stroke="url(#color-4)" stroke-width="3" stroke-linecap="butt"/><path d="M257.24977,145.125c0,-7.45597 6.04426,-13.50023 13.50023,-13.50023c7.45597,0 13.50023,6.04426 13.50023,13.50023c0,7.45597 -6.04426,13.50023 -13.50023,13.50023c-7.45597,0 -13.50023,-6.04426 -13.50023,-13.50023z" fill="url(#color-5)" stroke="url(#color-6)" stroke-width="3" stroke-linecap="butt"/><path d="M265.69571,143.93378l-21.875,-19.25l19.375,13.25" fill="none" stroke="url(#color-7)" stroke-width="4.5" stroke-linecap="round"/><path d="M266.56637,149.56249l-23.72075,16.92348l17.3094,-15.85364" fill="none" stroke="url(#color-8)" stroke-width="4.5" stroke-linecap="round"/><path d="M278.71629,137.18378l19.375,-13.25l-21.875,19.25" data-paper-data="{&quot;index&quot;:null}" fill="none" stroke="url(#color-9)" stroke-width="4.5" stroke-linecap="round"/><path d="M281.75698,149.88234l17.30939,15.85363l-23.72075,-16.92347" data-paper-data="{&quot;index&quot;:null}" fill="none" stroke="url(#color-10)" stroke-width="4.5" stroke-linecap="round"/><path d="M241.82071,145.30097h18.5" fill="none" stroke="url(#color-11)" stroke-width="7" stroke-linecap="round"/><path d="M299.57071,145.30097h-18.5" data-paper-data="{&quot;index&quot;:null}" fill="none" stroke="url(#color-12)" stroke-width="7" stroke-linecap="round"/></g></g></svg>