<svg version="1.1" xmlns="http://www.w3.org/2000/svg" xmlns:xlink="http://www.w3.org/1999/xlink" width="62.36325" height="60.26072" viewBox="0,0,62.36325,60.26072"><defs><linearGradient x1="270.89485" y1="121.10218" x2="270.89485" y2="179.86287" gradientUnits="userSpaceOnUse" id="color-1"><stop offset="0" stop-color="#455f06"/><stop offset="1" stop-color="#233103"/></linearGradient><linearGradient x1="270.892" y1="167.57145" x2="270.892" y2="180.14301" gradientUnits="userSpaceOnUse" id="color-2"><stop offset="0" stop-color="#6b8d06"/><stop offset="1" stop-color="#324203"/></linearGradient><radialGradient cx="271.66637" cy="143.97904" r="13.39276" gradientUnits="userSpaceOnUse" id="color-3"><stop offset="0" stop-color="#a7ff4f"/><stop offset="1" stop-color="#a7ff4f" stop-opacity="0"/></radialGradient><radialGradient cx="255.54468" cy="147.60642" r="13.39276" gradientUnits="userSpaceOnUse" id="color-4"><stop offset="0" stop-color="#a7ff4f"/><stop offset="1" stop-color="#a7ff4f" stop-opacity="0"/></radialGradient><radialGradient cx="259.70945" cy="134.17166" r="13.39276" gradientUnits="userSpaceOnUse" id="color-5"><stop offset="0" stop-color="#a7ff4f"/><stop offset="1" stop-color="#a7ff4f" stop-opacity="0"/></radialGradient><radialGradient cx="275.89832" cy="130.94733" r="13.39276" gradientUnits="userSpaceOnUse" id="color-6"><stop offset="0" stop-color="#a7ff4f"/><stop offset="1" stop-color="#a7ff4f" stop-opacity="0"/></radialGradient><radialGradient cx="288.05677" cy="140.55318" r="13.39276" gradientUnits="userSpaceOnUse" id="color-7"><stop offset="0" stop-color="#a7ff4f"/><stop offset="1" stop-color="#a7ff4f" stop-opacity="0"/></radialGradient><radialGradient cx="283.3546" cy="154.18945" r="13.39276" gradientUnits="userSpaceOnUse" id="color-8"><stop offset="0" stop-color="#a7ff4f"/><stop offset="1" stop-color="#a7ff4f" stop-opacity="0"/></radialGradient><radialGradient cx="266.96421" cy="157.48096" r="13.39276" gradientUnits="userSpaceOnUse" id="color-9"><stop offset="0" stop-color="#a7ff4f"/><stop offset="1" stop-color="#a7ff4f" stop-opacity="0"/></radialGradient><radialGradient cx="271.17027" cy="144.3821" r="6.44539" gradientUnits="userSpaceOnUse" id="color-10"><stop offset="0" stop-color="#5f8d2a" stop-opacity="0.59677"/><stop offset="1" stop-color="#5f8d2a" stop-opacity="0"/></radialGradient><radialGradient cx="254.97027" cy="147.6821" r="6.44539" gradientUnits="userSpaceOnUse" id="color-11"><stop offset="0" stop-color="#5f8d2a" stop-opacity="0.59677"/><stop offset="1" stop-color="#5f8d2a" stop-opacity="0"/></radialGradient><radialGradient cx="267.17027" cy="157.7821" r="6.44539" gradientUnits="userSpaceOnUse" id="color-12"><stop offset="0" stop-color="#5f8d2a" stop-opacity="0.59677"/><stop offset="1" stop-color="#5f8d2a" stop-opacity="0"/></radialGradient><radialGradient cx="283.27027" cy="154.5821" r="6.4454" gradientUnits="userSpaceOnUse" id="color-13"><stop offset="0" stop-color="#5f8d2a" stop-opacity="0.59677"/><stop offset="1" stop-color="#5f8d2a" stop-opacity="0"/></radialGradient><radialGradient cx="275.47027" cy="130.8821" r="6.44539" gradientUnits="userSpaceOnUse" id="color-14"><stop offset="0" stop-color="#5f8d2a" stop-opacity="0.59677"/><stop offset="1" stop-color="#5f8d2a" stop-opacity="0"/></radialGradient><radialGradient cx="287.97027" cy="140.98209" r="6.44539" gradientUnits="userSpaceOnUse" id="color-15"><stop offset="0" stop-color="#5f8d2a" stop-opacity="0.59677"/><stop offset="1" stop-color="#5f8d2a" stop-opacity="0"/></radialGradient><radialGradient cx="259.37027" cy="134.48209" r="6.4454" gradientUnits="userSpaceOnUse" id="color-16"><stop offset="0" stop-color="#5f8d2a" stop-opacity="0.59677"/><stop offset="1" stop-color="#5f8d2a" stop-opacity="0"/></radialGradient></defs><g transform="translate(-239.71327,-120.35214)"><g data-paper-data="{&quot;isPaintingLayer&quot;:true}" fill-rule="nonzero" stroke-linejoin="miter" stroke-miterlimit="10" stroke-dasharray="" stroke-dashoffset="0" style="mix-blend-mode: normal"><path d="M240.46327,179.86287v-58.76072h60.86325v58.76072z" fill="url(#color-1)" stroke="#9cbf3d" stroke-width="1.5" stroke-linecap="butt"/><path d="M239.96343,180.14301v-12.57143h61.85715v12.57143z" fill="url(#color-2)" stroke="none" stroke-width="0" stroke-linecap="butt"/><path d="M280.39056,146.59881l-6.9021,5.42428l-9.18601,-1.94804l-2.41825,-8.01047l6.85172,-5.45787l9.26998,2.26711z" fill="none" stroke="url(#color-3)" stroke-width="2.5" stroke-linecap="round"/><path d="M264.26887,150.22619l-6.9021,5.42428l-9.18601,-1.94804l-2.41825,-8.01047l6.85172,-5.45787l9.26998,2.26711z" fill="none" stroke="url(#color-4)" stroke-width="2.5" stroke-linecap="round"/><path d="M268.43364,136.79145l-6.9021,5.42428l-9.18601,-1.94804l-2.41825,-8.01047l6.85172,-5.45787l9.26998,2.26711z" fill="none" stroke="url(#color-5)" stroke-width="2.5" stroke-linecap="round"/><path d="M284.62251,133.56711l-6.9021,5.42428l-9.18601,-1.94804l-2.41825,-8.01047l6.85172,-5.45787l9.26998,2.26711z" fill="none" stroke="url(#color-6)" stroke-width="2.5" stroke-linecap="round"/><path d="M296.78095,143.17295l-6.9021,5.42428l-9.18601,-1.94804l-2.41825,-8.01047l6.85172,-5.45787l9.26998,2.26711z" fill="none" stroke="url(#color-7)" stroke-width="2.5" stroke-linecap="round"/><path d="M292.07879,156.80922l-6.9021,5.42428l-9.18601,-1.94804l-2.41825,-8.01047l6.85172,-5.45787l9.26998,2.26711z" fill="none" stroke="url(#color-8)" stroke-width="2.5" stroke-linecap="round"/><path d="M275.6884,160.10073l-6.9021,5.42428l-9.18601,-1.94804l-2.41825,-8.01047l6.85172,-5.45787l9.26998,2.26711z" fill="none" stroke="url(#color-9)" stroke-width="2.5" stroke-linecap="round"/><path d="M275.36887,145.64289l-3.3217,2.61049l-4.42086,-0.93752l-1.1638,-3.85511l3.29746,-2.62665l4.46126,1.09107z" fill="none" stroke="url(#color-10)" stroke-width="1.5" stroke-linecap="round"/><path d="M259.16887,148.94288l-3.3217,2.61049l-4.42086,-0.93751l-1.1638,-3.85512l3.29746,-2.62665l4.46126,1.09107z" fill="none" stroke="url(#color-11)" stroke-width="1.5" stroke-linecap="round"/><path d="M271.36887,159.04289l-3.3217,2.61049l-4.42086,-0.93752l-1.1638,-3.85511l3.29746,-2.62665l4.46126,1.09107z" fill="none" stroke="url(#color-12)" stroke-width="1.5" stroke-linecap="round"/><path d="M287.46887,155.84289l-3.3217,2.61049l-4.42086,-0.93751l-1.16381,-3.85512l3.29746,-2.62665l4.46127,1.09107z" fill="none" stroke="url(#color-13)" stroke-width="1.5" stroke-linecap="round"/><path d="M279.66887,132.14289l-3.3217,2.61049l-4.42086,-0.93752l-1.1638,-3.85511l3.29745,-2.62665l4.46127,1.09107z" fill="none" stroke="url(#color-14)" stroke-width="1.5" stroke-linecap="round"/><path d="M292.16887,142.24289l-3.3217,2.61049l-4.42086,-0.93751l-1.1638,-3.85512l3.29745,-2.62665l4.46127,1.09107z" fill="none" stroke="url(#color-15)" stroke-width="1.5" stroke-linecap="round"/><path d="M263.56887,135.74289l-3.3217,2.61049l-4.42085,-0.93751l-1.1638,-3.85512l3.29746,-2.62665l4.46126,1.09107z" fill="none" stroke="url(#color-16)" stroke-width="1.5" stroke-linecap="round"/></g></g></svg>