<svg version="1.1" xmlns="http://www.w3.org/2000/svg" xmlns:xlink="http://www.w3.org/1999/xlink" width="62.44658" height="60.26072" viewBox="0,0,62.44658,60.26072"><defs><linearGradient x1="271.12823" y1="121.18567" x2="271.12823" y2="179.94638" gradientUnits="userSpaceOnUse" id="color-1"><stop offset="0" stop-color="#545f96"/><stop offset="1" stop-color="#2a3569"/></linearGradient><linearGradient x1="270.89207" y1="167.57145" x2="270.89207" y2="180.14318" gradientUnits="userSpaceOnUse" id="color-2"><stop offset="0" stop-color="#5a76ff"/><stop offset="1" stop-color="#2843c8"/></linearGradient><linearGradient x1="274.91215" y1="136.22526" x2="274.91215" y2="156.57083" gradientUnits="userSpaceOnUse" id="color-3"><stop offset="0" stop-color="#759dcf"/><stop offset="1" stop-color="#86abf0"/></linearGradient><radialGradient cx="274.91215" cy="146.39805" r="20.40535" gradientUnits="userSpaceOnUse" id="color-4"><stop offset="0" stop-color="#4465ad"/><stop offset="1" stop-color="#4465ad" stop-opacity="0"/></radialGradient><linearGradient x1="256.75351" y1="128.23495" x2="256.75351" y2="141.91806" gradientUnits="userSpaceOnUse" id="color-5"><stop offset="0" stop-color="#59acff"/><stop offset="1" stop-color="#5375ff"/></linearGradient><linearGradient x1="256.1255" y1="128.99497" x2="256.1255" y2="142.67808" gradientUnits="userSpaceOnUse" id="color-6"><stop offset="0" stop-color="#4481d6"/><stop offset="1" stop-color="#2c608a"/></linearGradient><linearGradient x1="255.85452" y1="129.75514" x2="255.85452" y2="143.43825" gradientUnits="userSpaceOnUse" id="color-7"><stop offset="0" stop-color="#59acff"/><stop offset="1" stop-color="#5375ff"/></linearGradient><linearGradient x1="254.77197" y1="130.78788" x2="254.77197" y2="144.47099" gradientUnits="userSpaceOnUse" id="color-8"><stop offset="0" stop-color="#4481d6"/><stop offset="1" stop-color="#2c608a"/></linearGradient><linearGradient x1="254.05655" y1="132.04048" x2="254.05655" y2="145.72359" gradientUnits="userSpaceOnUse" id="color-9"><stop offset="0" stop-color="#59acff"/><stop offset="1" stop-color="#5375ff"/></linearGradient><linearGradient x1="253.61036" y1="133.52778" x2="253.61036" y2="147.21088" gradientUnits="userSpaceOnUse" id="color-10"><stop offset="0" stop-color="#4481d6"/><stop offset="1" stop-color="#2c608a"/></linearGradient><linearGradient x1="252.82045" y1="134.84982" x2="252.82045" y2="148.53292" gradientUnits="userSpaceOnUse" id="color-11"><stop offset="0" stop-color="#59acff"/><stop offset="1" stop-color="#5375ff"/></linearGradient><linearGradient x1="251.82881" y1="136.2462" x2="251.82881" y2="149.92931" gradientUnits="userSpaceOnUse" id="color-12"><stop offset="0" stop-color="#4481d6"/><stop offset="1" stop-color="#2c608a"/></linearGradient><linearGradient x1="250.79773" y1="137.65915" x2="250.79773" y2="151.34226" gradientUnits="userSpaceOnUse" id="color-13"><stop offset="0" stop-color="#59acff"/><stop offset="1" stop-color="#5375ff"/></linearGradient><linearGradient x1="249.78968" y1="138.24745" x2="249.78968" y2="153.16667" gradientUnits="userSpaceOnUse" id="color-14"><stop offset="0" stop-color="#4481d6"/><stop offset="1" stop-color="#2c608a"/></linearGradient></defs><g transform="translate(-239.86343,-120.43566)"><g data-paper-data="{&quot;isPaintingLayer&quot;:true}" fill-rule="nonzero" stroke-linejoin="miter" stroke-miterlimit="10" stroke-dasharray="" stroke-dashoffset="0" style="mix-blend-mode: normal"><path d="M240.61343,179.94638v-58.76072h60.94658v58.76072z" fill="url(#color-1)" stroke="#2843c8" stroke-width="1.5" stroke-linecap="butt"/><path d="M239.96364,180.14318v-12.57143h61.85715v12.57143z" fill="url(#color-2)" stroke="none" stroke-width="0" stroke-linecap="butt"/><path d="M254.50679,156.57083l10.74912,-19.94055l27.13862,-0.40502l2.92298,20.34557z" fill="url(#color-3)" stroke="url(#color-4)" stroke-width="2.5" stroke-linecap="butt"/><path d="M268.99142,147.31366l5.5651,-3.39136" fill="none" stroke="#4b6d93" stroke-width="0.5" stroke-linecap="round"/><path d="M279.55187,143.48986l8.18357,-4.22835" fill="none" stroke="#4b6d93" stroke-width="0.5" stroke-linecap="round"/><path d="M278.49391,142.61169l6.52404,-3.30178" fill="none" stroke="#4b6d93" stroke-width="0.5" stroke-linecap="round"/><path d="M277.32532,142.4319l-4.29185,-2.92147" fill="none" stroke="#4b6d93" stroke-width="0.5" stroke-linecap="round"/><path d="M276.3766,142.70158l-5.82788,-3.46082" fill="none" stroke="#4b6d93" stroke-width="0.5" stroke-linecap="round"/><path d="M275.92483,143.15104l-7.36392,-3.82039" fill="none" stroke="#4b6d93" stroke-width="0.5" stroke-linecap="round"/><path d="M266.35857,139.44302l8.44979,4.00017" fill="none" stroke="#4b6d93" stroke-width="0.5" stroke-linecap="round"/><path d="M272.58708,147.67556l2.73955,-3.12479" fill="none" stroke="#4b6d93" stroke-width="0.5" stroke-linecap="round"/><path d="M275.62626,147.33312l0.51367,-2.82516" fill="none" stroke="#4b6d93" stroke-width="0.5" stroke-linecap="round"/><path d="M278.92228,147.41873l-1.88344,-2.99638" fill="none" stroke="#4b6d93" stroke-width="0.5" stroke-linecap="round"/><path d="M282.38952,147.29031l-4.02371,-2.73954" fill="none" stroke="#4b6d93" stroke-width="0.5" stroke-linecap="round"/><path d="M285.77115,147.29031l-6.07838,-3.03919" fill="none" stroke="#4b6d93" stroke-width="0.5" stroke-linecap="round"/><path d="M285.76142,147.64054l5.31177,6.04725" fill="none" stroke="#4b6d93" stroke-width="0.5" stroke-linecap="round"/><path d="M264.6778,153.68778l7.51819,-6.12896" fill="none" stroke="#4b6d93" stroke-width="0.5" stroke-linecap="round"/><path d="M261.00042,153.7695l7.68163,-5.8838" fill="none" stroke="#4b6d93" stroke-width="0.5" stroke-linecap="round"/><path d="M282.41092,147.72225l5.31177,6.04725" fill="none" stroke="#4b6d93" stroke-width="0.5" stroke-linecap="round"/><path d="M278.97871,147.8857l5.31177,6.04724" fill="none" stroke="#4b6d93" stroke-width="0.5" stroke-linecap="round"/><path d="M275.54649,147.72225l5.31177,6.04725" fill="none" stroke="#4b6d93" stroke-width="0.5" stroke-linecap="round"/><path d="M274.42025,144.5978v-2.11745h5.4843v2.11745z" fill="#e9e9e9" stroke="none" stroke-width="1.5" stroke-linecap="butt"/><g stroke="none" stroke-width="0" stroke-linecap="butt"><path d="M282.22332,153.58444c0,0.49645 -0.69313,0.89891 -1.54813,0.89891c-0.85501,0 -1.54813,-0.40246 -1.54813,-0.89891c0,-0.49645 0.69313,-0.89891 1.54813,-0.89891c0.85501,0 1.54813,0.40246 1.54813,0.89891z" fill="#e9e9e9"/><path d="M281.6845,153.6081c0,0.32662 -0.45601,0.59139 -1.01851,0.59139c-0.5625,0 -1.01851,-0.26478 -1.01851,-0.59139c0,-0.32662 0.45601,-0.59139 1.01851,-0.59139c0.5625,0 1.01851,0.26477 1.01851,0.59139z" fill="#b5b5b5"/></g><g stroke="none" stroke-width="0" stroke-linecap="butt"><path d="M285.63919,153.58444c0,0.49645 -0.69312,0.89891 -1.54813,0.89891c-0.85501,0 -1.54813,-0.40246 -1.54813,-0.89891c0,-0.49645 0.69313,-0.89891 1.54813,-0.89891c0.85501,0 1.54813,0.40246 1.54813,0.89891z" fill="#e9e9e9"/><path d="M285.10037,153.6081c0,0.32662 -0.45601,0.59139 -1.01851,0.59139c-0.5625,0 -1.01851,-0.26478 -1.01851,-0.59139c0,-0.32662 0.45601,-0.59139 1.01851,-0.59139c0.5625,0 1.01851,0.26477 1.01851,0.59139z" fill="#b5b5b5"/></g><g stroke="none" stroke-width="0" stroke-linecap="butt"><path d="M288.96518,153.58444c0,0.49645 -0.69313,0.89891 -1.54814,0.89891c-0.85501,0 -1.54812,-0.40246 -1.54812,-0.89891c0,-0.49645 0.69312,-0.89891 1.54812,-0.89891c0.85501,0 1.54814,0.40246 1.54814,0.89891z" fill="#e9e9e9"/><path d="M288.42635,153.6081c0,0.32662 -0.456,0.59139 -1.01851,0.59139c-0.5625,0 -1.01851,-0.26478 -1.01851,-0.59139c0,-0.32662 0.45601,-0.59139 1.01851,-0.59139c0.5625,0 1.01851,0.26477 1.01851,0.59139z" fill="#b5b5b5"/></g><g stroke="none" stroke-width="0" stroke-linecap="butt"><path d="M292.38105,153.58444c0,0.49645 -0.69313,0.89891 -1.54814,0.89891c-0.85501,0 -1.54813,-0.40246 -1.54813,-0.89891c0,-0.49645 0.69312,-0.89891 1.54813,-0.89891c0.85501,0 1.54814,0.40246 1.54814,0.89891z" fill="#e9e9e9"/><path d="M291.84223,153.6081c0,0.32662 -0.45601,0.59139 -1.01851,0.59139c-0.5625,0 -1.01851,-0.26478 -1.01851,-0.59139c0,-0.32662 0.456,-0.59139 1.01851,-0.59139c0.5625,0 1.01851,0.26477 1.01851,0.59139z" fill="#b5b5b5"/></g><g stroke="none" stroke-width="0" stroke-linecap="butt"><path d="M270.35765,147.6516c0,0.49645 -0.69313,0.89892 -1.54813,0.89892c-0.85501,0 -1.54813,-0.40246 -1.54813,-0.89892c0,-0.49645 0.69312,-0.89891 1.54813,-0.89891c0.85501,0 1.54813,0.40246 1.54813,0.89891z" fill="#e9e9e9"/><path d="M269.81883,147.67526c0,0.32662 -0.45601,0.59139 -1.01851,0.59139c-0.5625,0 -1.01851,-0.26478 -1.01851,-0.59139c0,-0.32662 0.45601,-0.59139 1.01851,-0.59139c0.5625,0 1.01851,0.26478 1.01851,0.59139z" fill="#b5b5b5"/></g><g stroke="none" stroke-width="0" stroke-linecap="butt"><path d="M273.77353,147.6516c0,0.49645 -0.69313,0.89892 -1.54814,0.89892c-0.85501,0 -1.54813,-0.40246 -1.54813,-0.89892c0,-0.49645 0.69312,-0.89891 1.54813,-0.89891c0.85501,0 1.54814,0.40246 1.54814,0.89891z" fill="#e9e9e9"/><path d="M273.2347,147.67526c0,0.32662 -0.45601,0.59139 -1.01851,0.59139c-0.5625,0 -1.01851,-0.26478 -1.01851,-0.59139c0,-0.32662 0.456,-0.59139 1.01851,-0.59139c0.5625,0 1.01851,0.26478 1.01851,0.59139z" fill="#b5b5b5"/></g><g stroke="none" stroke-width="0" stroke-linecap="butt"><path d="M277.09951,147.6516c0,0.49645 -0.69313,0.89892 -1.54814,0.89892c-0.85501,0 -1.54813,-0.40246 -1.54813,-0.89892c0,-0.49645 0.69312,-0.89891 1.54813,-0.89891c0.85501,0 1.54814,0.40246 1.54814,0.89891z" fill="#e9e9e9"/><path d="M276.56068,147.67526c0,0.32662 -0.456,0.59139 -1.01851,0.59139c-0.5625,0 -1.01851,-0.26478 -1.01851,-0.59139c0,-0.32662 0.45601,-0.59139 1.01851,-0.59139c0.5625,0 1.01851,0.26478 1.01851,0.59139z" fill="#b5b5b5"/></g><g stroke="none" stroke-width="0" stroke-linecap="butt"><path d="M280.51538,147.6516c0,0.49645 -0.69313,0.89892 -1.54814,0.89892c-0.85501,0 -1.54812,-0.40246 -1.54812,-0.89892c0,-0.49645 0.69312,-0.89891 1.54812,-0.89891c0.85501,0 1.54814,0.40246 1.54814,0.89891z" fill="#e9e9e9"/><path d="M279.97656,147.67526c0,0.32662 -0.45601,0.59139 -1.01851,0.59139c-0.5625,0 -1.0185,-0.26478 -1.0185,-0.59139c0,-0.32662 0.456,-0.59139 1.0185,-0.59139c0.5625,0 1.01851,0.26478 1.01851,0.59139z" fill="#b5b5b5"/></g><g stroke="none" stroke-width="0" stroke-linecap="butt"><path d="M283.93126,147.6516c0,0.49645 -0.69313,0.89892 -1.54814,0.89892c-0.85501,0 -1.54813,-0.40246 -1.54813,-0.89892c0,-0.49645 0.69313,-0.89891 1.54813,-0.89891c0.85501,0 1.54814,0.40246 1.54814,0.89891z" fill="#e9e9e9"/><path d="M283.39243,147.67526c0,0.32662 -0.45601,0.59139 -1.01851,0.59139c-0.5625,0 -1.01851,-0.26478 -1.01851,-0.59139c0,-0.32662 0.456,-0.59139 1.01851,-0.59139c0.5625,0 1.01851,0.26478 1.01851,0.59139z" fill="#b5b5b5"/></g><g stroke="none" stroke-width="0" stroke-linecap="butt"><path d="M287.34713,147.6516c0,0.49645 -0.69313,0.89892 -1.54814,0.89892c-0.85501,0 -1.54813,-0.40246 -1.54813,-0.89892c0,-0.49645 0.69313,-0.89891 1.54813,-0.89891c0.85501,0 1.54814,0.40246 1.54814,0.89891z" fill="#e9e9e9"/><path d="M286.80831,147.67526c0,0.32662 -0.45601,0.59139 -1.01851,0.59139c-0.5625,0 -1.01851,-0.26478 -1.01851,-0.59139c0,-0.32662 0.456,-0.59139 1.01851,-0.59139c0.5625,0 1.01851,0.26478 1.01851,0.59139z" fill="#b5b5b5"/></g><g stroke="none" stroke-width="0" stroke-linecap="butt"><path d="M262.80677,153.85412c0,0.49645 -0.69312,0.89891 -1.54813,0.89891c-0.85501,0 -1.54813,-0.40246 -1.54813,-0.89891c0,-0.49645 0.69312,-0.89891 1.54813,-0.89891c0.85501,0 1.54813,0.40246 1.54813,0.89891z" fill="#e9e9e9"/><path d="M262.26794,153.87777c0,0.32662 -0.456,0.59139 -1.01851,0.59139c-0.5625,0 -1.01851,-0.26477 -1.01851,-0.59139c0,-0.32662 0.456,-0.59139 1.01851,-0.59139c0.5625,0 1.01851,0.26477 1.01851,0.59139z" fill="#b5b5b5"/></g><g stroke="none" stroke-width="0" stroke-linecap="butt"><path d="M266.22265,153.85412c0,0.49645 -0.69313,0.89891 -1.54814,0.89891c-0.85501,0 -1.54813,-0.40246 -1.54813,-0.89891c0,-0.49645 0.69313,-0.89891 1.54813,-0.89891c0.85501,0 1.54814,0.40246 1.54814,0.89891z" fill="#e9e9e9"/><path d="M265.68382,153.87777c0,0.32662 -0.45601,0.59139 -1.01851,0.59139c-0.5625,0 -1.01851,-0.26477 -1.01851,-0.59139c0,-0.32662 0.456,-0.59139 1.01851,-0.59139c0.5625,0 1.01851,0.26477 1.01851,0.59139z" fill="#b5b5b5"/></g><path d="M275.66489,144.5978v-2.11745h2.92586v2.11745z" fill="#bbbbbb" stroke="none" stroke-width="1.5" stroke-linecap="butt"/><path d="M274.43032,142.55824l1.04747,-0.63688c0,0 1.55771,0 2.40984,0c0.96249,0 2.00434,0 2.00434,0l0.06547,0.63688z" fill="#c5c5c5" stroke="none" stroke-width="1.5" stroke-linecap="butt"/><path d="M275.67497,142.55824l1.00467,-0.63688h1.89853l0.02266,0.63688z" fill="#8d8d8d" stroke="none" stroke-width="1.5" stroke-linecap="butt"/><g stroke="none" stroke-width="0" stroke-linecap="butt"><path d="M267.29245,139.22179c0,0.33649 -0.46978,0.60926 -1.04928,0.60926c-0.5795,0 -1.04928,-0.27277 -1.04928,-0.60926c0,-0.33649 0.46978,-0.60926 1.04928,-0.60926c0.5795,0 1.04928,0.27277 1.04928,0.60926z" fill="#e9e9e9"/><path d="M266.92724,139.23782c0,0.22137 -0.30906,0.40083 -0.69031,0.40083c-0.38125,0 -0.69031,-0.17946 -0.69031,-0.40083c0,-0.22137 0.30906,-0.40082 0.69031,-0.40082c0.38125,0 0.69031,0.17945 0.69031,0.40082z" fill="#b5b5b5"/></g><g stroke="none" stroke-width="0" stroke-linecap="butt"><path d="M269.60763,139.22179c0,0.33649 -0.46978,0.60926 -1.04928,0.60926c-0.5795,0 -1.04928,-0.27277 -1.04928,-0.60926c0,-0.33649 0.46978,-0.60926 1.04928,-0.60926c0.5795,0 1.04928,0.27277 1.04928,0.60926z" fill="#e9e9e9"/><path d="M269.24243,139.23782c0,0.22137 -0.30907,0.40083 -0.69032,0.40083c-0.38125,0 -0.69032,-0.17946 -0.69032,-0.40083c0,-0.22137 0.30907,-0.40082 0.69032,-0.40082c0.38125,0 0.69032,0.17945 0.69032,0.40082z" fill="#b5b5b5"/></g><g stroke="none" stroke-width="0" stroke-linecap="butt"><path d="M271.86188,139.22179c0,0.33649 -0.46978,0.60926 -1.04928,0.60926c-0.5795,0 -1.04928,-0.27277 -1.04928,-0.60926c0,-0.33649 0.46978,-0.60926 1.04928,-0.60926c0.5795,0 1.04928,0.27277 1.04928,0.60926z" fill="#e9e9e9"/><path d="M271.49669,139.23782c0,0.22137 -0.30907,0.40083 -0.69032,0.40083c-0.38125,0 -0.69031,-0.17946 -0.69031,-0.40083c0,-0.22137 0.30906,-0.40082 0.69031,-0.40082c0.38125,0 0.69032,0.17945 0.69032,0.40082z" fill="#b5b5b5"/></g><g stroke="none" stroke-width="0" stroke-linecap="butt"><path d="M274.17707,139.22179c0,0.33649 -0.46978,0.60926 -1.04928,0.60926c-0.5795,0 -1.04928,-0.27277 -1.04928,-0.60926c0,-0.33649 0.46978,-0.60926 1.04928,-0.60926c0.5795,0 1.04928,0.27277 1.04928,0.60926z" fill="#e9e9e9"/><path d="M273.81188,139.23782c0,0.22137 -0.30907,0.40083 -0.69032,0.40083c-0.38125,0 -0.69031,-0.17946 -0.69031,-0.40083c0,-0.22137 0.30906,-0.40082 0.69031,-0.40082c0.38125,0 0.69032,0.17945 0.69032,0.40082z" fill="#b5b5b5"/></g><g stroke="none" stroke-width="0" stroke-linecap="butt"><path d="M286.38032,139.15265c0,0.33649 -0.46978,0.60926 -1.04928,0.60926c-0.5795,0 -1.04928,-0.27277 -1.04928,-0.60926c0,-0.33649 0.46978,-0.60926 1.04928,-0.60926c0.5795,0 1.04928,0.27278 1.04928,0.60926z" fill="#e9e9e9"/><path d="M286.01512,139.16868c0,0.22137 -0.30908,0.40083 -0.69033,0.40083c-0.38125,0 -0.69031,-0.17946 -0.69031,-0.40083c0,-0.22137 0.30906,-0.40083 0.69031,-0.40083c0.38125,0 0.69033,0.17946 0.69033,0.40083z" fill="#b5b5b5"/></g><g stroke="none" stroke-width="0" stroke-linecap="butt"><path d="M288.6955,139.15265c0,0.33649 -0.46978,0.60926 -1.04928,0.60926c-0.5795,0 -1.04928,-0.27277 -1.04928,-0.60926c0,-0.33649 0.46978,-0.60926 1.04928,-0.60926c0.5795,0 1.04928,0.27278 1.04928,0.60926z" fill="#e9e9e9"/><path d="M288.3303,139.16868c0,0.22137 -0.30907,0.40083 -0.69032,0.40083c-0.38125,0 -0.69031,-0.17946 -0.69031,-0.40083c0,-0.22137 0.30906,-0.40083 0.69031,-0.40083c0.38125,0 0.69032,0.17946 0.69032,0.40083z" fill="#b5b5b5"/></g><path d="M262.77705,141.91806c0,0 -0.83055,-7.67982 -2.51889,-10.72972c-0.5477,-0.9894 -2.43226,-1.67773 -4.38244,-2.13933c-2.51818,-0.59605 -5.14575,-0.81405 -5.14575,-0.81405" fill="none" stroke="url(#color-5)" stroke-width="1" stroke-linecap="round"/><path d="M262.14904,142.67808c0,0 -0.83056,-7.67982 -2.51889,-10.72972c-0.5477,-0.9894 -2.43227,-1.67773 -4.38245,-2.13933c-2.51818,-0.59605 -5.14575,-0.81405 -5.14575,-0.81405" fill="none" stroke="url(#color-6)" stroke-width="1.5" stroke-linecap="round"/><path d="M261.87806,143.43825c0,0 -0.83055,-7.67981 -2.51889,-10.72972c-0.5477,-0.9894 -2.43226,-1.67773 -4.38244,-2.13934c-2.51818,-0.59605 -5.14575,-0.81405 -5.14575,-0.81405" fill="none" stroke="url(#color-7)" stroke-width="1.5" stroke-linecap="round"/><path d="M260.79551,144.47099c0,0 -0.83056,-7.67982 -2.51889,-10.72972c-0.5477,-0.9894 -2.43227,-1.67773 -4.38244,-2.13933c-2.51818,-0.59605 -5.14574,-0.81405 -5.14574,-0.81405" fill="none" stroke="url(#color-8)" stroke-width="1.5" stroke-linecap="round"/><path d="M260.08009,145.72359c0,0 -0.83055,-7.67981 -2.51889,-10.72972c-0.5477,-0.9894 -2.43227,-1.67773 -4.38244,-2.13934c-2.51818,-0.59605 -5.14575,-0.81405 -5.14575,-0.81405" fill="none" stroke="url(#color-9)" stroke-width="1.5" stroke-linecap="round"/><path d="M259.6339,147.21088c0,0 -0.83056,-7.67981 -2.51889,-10.72972c-0.5477,-0.9894 -2.43227,-1.67773 -4.38244,-2.13934c-2.51818,-0.59605 -5.14575,-0.81405 -5.14575,-0.81405" fill="none" stroke="url(#color-10)" stroke-width="1.5" stroke-linecap="round"/><path d="M258.84398,148.53292c0,0 -0.83056,-7.67981 -2.51889,-10.72972c-0.5477,-0.9894 -2.43227,-1.67773 -4.38244,-2.13934c-2.51818,-0.59605 -5.14575,-0.81405 -5.14575,-0.81405" fill="none" stroke="url(#color-11)" stroke-width="2.5" stroke-linecap="round"/><path d="M257.85235,149.92931c0,0 -0.83056,-7.67981 -2.5189,-10.72972c-0.5477,-0.9894 -2.43227,-1.67773 -4.38244,-2.13934c-2.51818,-0.59605 -5.14575,-0.81405 -5.14575,-0.81405" fill="none" stroke="url(#color-12)" stroke-width="2" stroke-linecap="round"/><path d="M256.82127,151.34226c0,0 -0.83055,-7.67981 -2.51889,-10.72972c-0.5477,-0.9894 -2.43226,-1.67773 -4.38244,-2.13934c-2.51818,-0.59605 -5.14576,-0.81405 -5.14576,-0.81405" fill="none" stroke="url(#color-13)" stroke-width="2.5" stroke-linecap="round"/><path d="M256.15034,153.16667c0,0 -1.5048,-8.91593 -3.19313,-11.96583c-0.5477,-0.9894 -2.43227,-1.67774 -4.38244,-2.13934c-2.51818,-0.59605 -5.14575,-0.81405 -5.14575,-0.81405" fill="none" stroke="url(#color-14)" stroke-width="1.5" stroke-linecap="round"/></g></g></svg>