<svg version="1.1" xmlns="http://www.w3.org/2000/svg" xmlns:xlink="http://www.w3.org/1999/xlink" width="62.44658" height="60.26072" viewBox="0,0,62.44658,60.26072"><defs><linearGradient x1="271.06156" y1="121.10232" x2="271.06156" y2="179.86302" gradientUnits="userSpaceOnUse" id="color-1"><stop offset="0" stop-color="#81704a"/><stop offset="1" stop-color="#54472c"/></linearGradient><linearGradient x1="270.89207" y1="167.57145" x2="270.89207" y2="180.14315" gradientUnits="userSpaceOnUse" id="color-2"><stop offset="0" stop-color="#8d7134"/><stop offset="1" stop-color="#5b4d28"/></linearGradient><radialGradient cx="260.5795" cy="134.5" r="12.25" gradientUnits="userSpaceOnUse" id="color-3"><stop offset="0" stop-color="#ffa743"/><stop offset="1" stop-color="#ffa743" stop-opacity="0"/></radialGradient><radialGradient cx="253.517" cy="151.1875" r="5.8125" gradientUnits="userSpaceOnUse" id="color-4"><stop offset="0" stop-color="#ffa53f" stop-opacity="0"/><stop offset="1" stop-color="#ffa53f"/></radialGradient><radialGradient cx="288.892" cy="151.8125" r="5.8125" gradientUnits="userSpaceOnUse" id="color-5"><stop offset="0" stop-color="#ffdeb8" stop-opacity="0"/><stop offset="1" stop-color="#ffdeb8"/></radialGradient><radialGradient cx="281.7045" cy="136.125" r="12.25" gradientUnits="userSpaceOnUse" id="color-6"><stop offset="0" stop-color="#ffe4c4"/><stop offset="1" stop-color="#ffe4c4" stop-opacity="0"/></radialGradient><radialGradient cx="271.74715" cy="140.4375" r="13.5625" gradientUnits="userSpaceOnUse" id="color-7"><stop offset="0" stop-color="#ffca89"/><stop offset="1" stop-color="#ffca89" stop-opacity="0"/></radialGradient><radialGradient cx="271.892" cy="159.1875" r="5.8125" gradientUnits="userSpaceOnUse" id="color-8"><stop offset="0" stop-color="#ffca8e" stop-opacity="0"/><stop offset="1" stop-color="#ffca8e"/></radialGradient><radialGradient cx="270.9545" cy="150.125" r="18" gradientUnits="userSpaceOnUse" id="color-9"><stop offset="0" stop-color="#fff0df"/><stop offset="1" stop-color="#fff0df" stop-opacity="0"/></radialGradient><radialGradient cx="271.3295" cy="149.875" r="18" gradientUnits="userSpaceOnUse" id="color-10"><stop offset="0" stop-color="#ffc788"/><stop offset="1" stop-color="#ffc788" stop-opacity="0"/></radialGradient></defs><g transform="translate(-239.79678,-120.35229)"><g data-paper-data="{&quot;isPaintingLayer&quot;:true}" fill-rule="nonzero" stroke-linejoin="miter" stroke-miterlimit="10" stroke-dasharray="" stroke-dashoffset="0" style="mix-blend-mode: normal"><path d="M240.54679,179.86302v-58.76072h60.94658v58.76072z" fill="url(#color-1)" stroke="#543f10" stroke-width="1.5" stroke-linecap="butt"/><path d="M239.96362,180.14315v-12.57143c0,0 9.2599,0 15.94982,0c11.34971,0 45.90733,0 45.90733,0v12.57143z" fill="url(#color-2)" stroke="none" stroke-width="0" stroke-linecap="butt"/><path d="M266.0795,123.875l-13,27.125" fill="none" stroke="url(#color-3)" stroke-width="4.5" stroke-linecap="round"/><path d="M247.7045,151.1875c0,-3.21015 2.60235,-5.8125 5.8125,-5.8125c3.21015,0 5.8125,2.60235 5.8125,5.8125c0,3.21015 -2.60235,5.8125 -5.8125,5.8125c-3.21015,0 -5.8125,-2.60235 -5.8125,-5.8125z" fill="url(#color-4)" stroke="#ffb45e" stroke-width="2" stroke-linecap="butt"/><path d="M283.0795,151.8125c0,-3.21015 2.60235,-5.8125 5.8125,-5.8125c3.21015,0 5.8125,2.60235 5.8125,5.8125c0,3.21015 -2.60235,5.8125 -5.8125,5.8125c-3.21015,0 -5.8125,-2.60235 -5.8125,-5.8125z" fill="url(#color-5)" stroke="none" stroke-width="0" stroke-linecap="butt"/><path d="M276.2045,125.5l13,27.125" data-paper-data="{&quot;index&quot;:null}" fill="none" stroke="url(#color-6)" stroke-width="3" stroke-linecap="round"/><path d="M271.74715,126.875v27.125" fill="none" stroke="url(#color-7)" stroke-width="3" stroke-linecap="round"/><path d="M266.0795,159.1875c0,-3.21015 2.60235,-5.8125 5.8125,-5.8125c3.21015,0 5.8125,2.60235 5.8125,5.8125c0,3.21015 -2.60235,5.8125 -5.8125,5.8125c-3.21015,0 -5.8125,-2.60235 -5.8125,-5.8125z" fill="url(#color-8)" stroke="none" stroke-width="0" stroke-linecap="butt"/><path d="M278.0795,159.375c6.51366,-0.25 10.875,-9.25 10.875,-9.25" fill="none" stroke="url(#color-9)" stroke-width="2" stroke-linecap="round"/><path d="M253.3295,149.875c0,0 3.40687,9.49565 12.125,9.5" fill="none" stroke="url(#color-10)" stroke-width="2" stroke-linecap="round"/></g></g></svg>