<svg version="1.1" xmlns="http://www.w3.org/2000/svg" xmlns:xlink="http://www.w3.org/1999/xlink" width="62.44658" height="60.26072" viewBox="0,0,62.44658,60.26072"><defs><linearGradient x1="271.06156" y1="121.10225" x2="271.06156" y2="179.86296" gradientUnits="userSpaceOnUse" id="color-1"><stop offset="0" stop-color="#755569"/><stop offset="1" stop-color="#542844"/></linearGradient><linearGradient x1="270.89207" y1="167.57145" x2="270.89207" y2="180.14309" gradientUnits="userSpaceOnUse" id="color-2"><stop offset="0" stop-color="#a559a2"/><stop offset="1" stop-color="#733473"/></linearGradient><radialGradient cx="271.22648" cy="135.91667" r="28.66667" gradientUnits="userSpaceOnUse" id="color-3"><stop offset="0" stop-color="#ff9bff"/><stop offset="1" stop-color="#ff9bff" stop-opacity="0"/></radialGradient><radialGradient cx="270.82649" cy="137.53992" r="21.66667" gradientUnits="userSpaceOnUse" id="color-4"><stop offset="0" stop-color="#ff9bff"/><stop offset="1" stop-color="#ff9bff" stop-opacity="0"/></radialGradient><radialGradient cx="271.32649" cy="140.65831" r="16.36667" gradientUnits="userSpaceOnUse" id="color-5"><stop offset="0" stop-color="#ff9bff"/><stop offset="1" stop-color="#ff9bff" stop-opacity="0"/></radialGradient><radialGradient cx="263.32649" cy="155.86667" r="10.35" gradientUnits="userSpaceOnUse" id="color-6"><stop offset="0" stop-color="#ffb6ff"/><stop offset="1" stop-color="#ffb6ff" stop-opacity="0"/></radialGradient><radialGradient cx="278.32649" cy="155.96667" r="10.35" gradientUnits="userSpaceOnUse" id="color-7"><stop offset="0" stop-color="#ffb6ff"/><stop offset="1" stop-color="#ffb6ff" stop-opacity="0"/></radialGradient><radialGradient cx="266.47649" cy="156.61667" r="10.3" gradientUnits="userSpaceOnUse" id="color-8"><stop offset="0" stop-color="#ffb6ff"/><stop offset="1" stop-color="#ffb6ff" stop-opacity="0"/></radialGradient><radialGradient cx="261.62834" cy="135.71675" r="9.48921" gradientUnits="userSpaceOnUse" id="color-9"><stop offset="0" stop-color="#ff9bff"/><stop offset="1" stop-color="#ff9bff" stop-opacity="0"/></radialGradient><radialGradient cx="279.68762" cy="135.83327" r="9.6834" gradientUnits="userSpaceOnUse" id="color-10"><stop offset="0" stop-color="#ff9bff"/><stop offset="1" stop-color="#ff9bff" stop-opacity="0"/></radialGradient><radialGradient cx="270.92649" cy="135.16667" r="10.05" gradientUnits="userSpaceOnUse" id="color-11"><stop offset="0" stop-color="#ff9bff"/><stop offset="1" stop-color="#ff9bff" stop-opacity="0"/></radialGradient><radialGradient cx="255.66399" cy="139.25417" r="12.1625" gradientUnits="userSpaceOnUse" id="color-12"><stop offset="0" stop-color="#ff9bff"/><stop offset="1" stop-color="#ff9bff" stop-opacity="0"/></radialGradient><radialGradient cx="286.27648" cy="139.51666" r="12.85" gradientUnits="userSpaceOnUse" id="color-13"><stop offset="0" stop-color="#ff9bff"/><stop offset="1" stop-color="#ff9bff" stop-opacity="0"/></radialGradient><radialGradient cx="257.42649" cy="143.51897" r="9" gradientUnits="userSpaceOnUse" id="color-14"><stop offset="0" stop-color="#ff9bff"/><stop offset="1" stop-color="#ff9bff" stop-opacity="0"/></radialGradient><radialGradient cx="283.72649" cy="143.61897" r="9" gradientUnits="userSpaceOnUse" id="color-15"><stop offset="0" stop-color="#ff9bff"/><stop offset="1" stop-color="#ff9bff" stop-opacity="0"/></radialGradient><radialGradient cx="271.02648" cy="156.51666" r="9.6" gradientUnits="userSpaceOnUse" id="color-16"><stop offset="0" stop-color="#ffb6ff"/><stop offset="1" stop-color="#ffb6ff" stop-opacity="0"/></radialGradient><radialGradient cx="273.12649" cy="157.41667" r="9.9" gradientUnits="userSpaceOnUse" id="color-17"><stop offset="0" stop-color="#ffb6ff"/><stop offset="1" stop-color="#ffb6ff" stop-opacity="0"/></radialGradient><radialGradient cx="269.02648" cy="156.91667" r="10.1" gradientUnits="userSpaceOnUse" id="color-18"><stop offset="0" stop-color="#ffb6ff"/><stop offset="1" stop-color="#ffb6ff" stop-opacity="0"/></radialGradient><radialGradient cx="275.57649" cy="156.61667" r="10.3" gradientUnits="userSpaceOnUse" id="color-19"><stop offset="0" stop-color="#ffb6ff"/><stop offset="1" stop-color="#ffb6ff" stop-opacity="0"/></radialGradient><radialGradient cx="271.37649" cy="148.05344" r="12.65" gradientUnits="userSpaceOnUse" id="color-20"><stop offset="0" stop-color="#ffb6ff"/><stop offset="1" stop-color="#ffb6ff" stop-opacity="0"/></radialGradient><radialGradient cx="271.42649" cy="152.09943" r="7.3" gradientUnits="userSpaceOnUse" id="color-21"><stop offset="0" stop-color="#ffb6ff"/><stop offset="1" stop-color="#ffb6ff" stop-opacity="0"/></radialGradient><radialGradient cx="271.02648" cy="155.50062" r="3.9" gradientUnits="userSpaceOnUse" id="color-22"><stop offset="0" stop-color="#ffb6ff"/><stop offset="1" stop-color="#ffb6ff" stop-opacity="0"/></radialGradient><radialGradient cx="270.92649" cy="157.49654" r="3.1" gradientUnits="userSpaceOnUse" id="color-23"><stop offset="0" stop-color="#ffb6ff"/><stop offset="1" stop-color="#ffb6ff" stop-opacity="0"/></radialGradient></defs><g transform="translate(-239.7967,-120.35223)"><g data-paper-data="{&quot;isPaintingLayer&quot;:true}" fill-rule="nonzero" stroke-linejoin="miter" stroke-miterlimit="10" stroke-dasharray="" stroke-dashoffset="0" style="mix-blend-mode: normal"><path d="M240.54671,179.86296v-58.76072h60.94658v58.76072z" fill="url(#color-1)" stroke="#7e1b8b" stroke-width="1.5" stroke-linecap="butt"/><path d="M239.96354,180.14309v-12.57143c0,0 9.2599,0 15.94982,0c11.34971,0 45.90733,0 45.90733,0v12.57143z" fill="url(#color-2)" stroke="none" stroke-width="0" stroke-linecap="butt"/><path d="M299.89315,135.91667c0,6.16718 -12.8345,11.16667 -28.66666,11.16667c-15.83217,0 -28.66667,-4.99949 -28.66667,-11.16667c0,-6.16718 12.83451,-11.16666 28.66667,-11.16666c15.83216,0 28.66666,4.99948 28.66666,11.16666z" fill="none" stroke="url(#color-3)" stroke-width="2.5" stroke-linecap="butt"/><path d="M292.49315,137.53992c0,4.46794 -9.7005,8.08992 -21.66667,8.08992c-11.96617,0 -21.66667,-3.62198 -21.66667,-8.08992c0,-4.46794 9.7005,-8.08992 21.66667,-8.08992c11.96617,0 21.66667,3.62198 21.66667,8.08992z" fill="none" stroke="url(#color-4)" stroke-width="2.5" stroke-linecap="butt"/><path d="M287.69315,140.6583c0,2.85617 -7.32761,5.17155 -16.36667,5.17155c-9.03906,0 -16.36667,-2.31538 -16.36667,-5.17155c0,-2.85617 7.32761,-5.17154 16.36667,-5.17154c9.03906,0 16.36667,2.31537 16.36667,5.17154z" fill="none" stroke="url(#color-5)" stroke-width="3.5" stroke-linecap="butt"/><path d="M256.82649,145.51666c0,0 8.76213,6.73132 10.35472,9.40794c1.98255,3.33201 2.64528,11.29206 2.64528,11.29206" fill="none" stroke="url(#color-6)" stroke-width="0.5" stroke-linecap="round"/><path d="M271.82649,166.31667c0,0 0.66273,-7.96005 2.64528,-11.29206c1.59259,-2.67663 10.35472,-9.40794 10.35472,-9.40794" data-paper-data="{&quot;index&quot;:null}" fill="none" stroke="url(#color-7)" stroke-width="0.5" stroke-linecap="round"/><path d="M262.42649,146.31667c0,0 6.13524,6.73131 6.72328,9.40794c0.73201,3.33201 1.37672,11.19206 1.37672,11.19206" fill="none" stroke="url(#color-8)" stroke-width="0.5" stroke-linecap="round"/><path d="M254.67649,126.48646c0,0 7.25194,5.66444 9.96349,9.09052c2.34396,2.96162 4.5875,9.629 4.5875,9.629" fill="none" stroke="url(#color-9)" stroke-width="2.5" stroke-linecap="round"/><path d="M272.02375,145.51666c0,0 2.24354,-6.66737 4.5875,-9.629c2.71155,-3.42607 10.74024,-9.7378 10.74024,-9.7378" data-paper-data="{&quot;index&quot;:null}" fill="none" stroke="url(#color-10)" stroke-width="2.5" stroke-linecap="round"/><path d="M270.92649,125.11667v20.1" fill="none" stroke="url(#color-11)" stroke-width="1" stroke-linecap="round"/><path d="M243.50149,133.49167c0,0 11.15955,1.99714 15.8372,4.07205c3.60836,1.60059 8.4878,7.45295 8.4878,7.45295" fill="none" stroke="url(#color-12)" stroke-width="3" stroke-linecap="round"/><path d="M273.42649,145.21667c0,0 4.87944,-5.85236 8.4878,-7.45295c4.67766,-2.07491 17.2122,-3.94705 17.2122,-3.94705" data-paper-data="{&quot;index&quot;:null}" fill="none" stroke="url(#color-13)" stroke-width="3" stroke-linecap="round"/><path d="M248.42649,142.71667c0,0 5.46597,-0.75731 8.53491,-0.39926c2.92405,0.34114 9.46509,2.49926 9.46509,2.49926" fill="none" stroke="url(#color-14)" stroke-width="1" stroke-linecap="round"/><path d="M274.72649,144.91667c0,0 6.54104,-2.15812 9.46509,-2.49926c3.06894,-0.35805 8.53491,0.39926 8.53491,0.39926" data-paper-data="{&quot;index&quot;:null}" fill="none" stroke="url(#color-15)" stroke-width="1" stroke-linecap="round"/><path d="M271.02648,166.11667v-19.2" fill="none" stroke="url(#color-16)" stroke-width="0.5" stroke-linecap="round"/><path d="M274.92649,147.51666c0,0 -2.04247,5.38354 -2.58,8.34c-0.64335,3.53841 -1.02,11.46 -1.02,11.46" fill="none" stroke="url(#color-17)" stroke-width="0.5" stroke-linecap="round"/><path d="M266.92649,146.81667c0,0 2.0516,4.0768 2.63286,6.87238c0.76672,3.68757 1.56714,13.32762 1.56714,13.32762" fill="none" stroke="url(#color-18)" stroke-width="0.5" stroke-linecap="round"/><path d="M271.52648,166.91667c0,0 0.64471,-7.86005 1.37672,-11.19206c0.58803,-2.67663 6.72328,-9.40794 6.72328,-9.40794" data-paper-data="{&quot;index&quot;:null}" fill="none" stroke="url(#color-19)" stroke-width="0.5" stroke-linecap="round"/><path d="M258.72649,146.61667c0,0 8.23903,3.80785 12.60221,3.66989c4.04622,-0.12795 12.69779,-4.46989 12.69779,-4.46989" fill="none" stroke="url(#color-20)" stroke-width="0.5" stroke-linecap="round"/><path d="M264.12649,151.2703c0,0 4.75454,2.19742 7.27242,2.11781c2.33497,-0.07384 7.32758,-2.57946 7.32758,-2.57946" fill="none" stroke="url(#color-21)" stroke-width="0.5" stroke-linecap="round"/><path d="M267.12649,155.05766c0,0 2.5401,1.17396 3.88527,1.13143c1.24745,-0.03945 3.91474,-1.37807 3.91474,-1.37807" fill="none" stroke="url(#color-22)" stroke-width="0.5" stroke-linecap="round"/><path d="M267.82649,157.00286c0,0 2.21445,1.02346 3.38716,0.98638c1.08752,-0.03439 2.81284,-0.8014 2.81284,-0.8014" fill="none" stroke="url(#color-23)" stroke-width="0.5" stroke-linecap="round"/></g></g></svg>