<svg version="1.1" xmlns="http://www.w3.org/2000/svg" xmlns:xlink="http://www.w3.org/1999/xlink" width="62.36325" height="29.68929" viewBox="0,0,62.36325,29.68929"><defs><linearGradient x1="270.75201" y1="151.67344" x2="270.75201" y2="179.86273" gradientUnits="userSpaceOnUse" id="color-1"><stop offset="0" stop-color="#455c8f"/><stop offset="1" stop-color="#003758"/></linearGradient><linearGradient x1="270.78229" y1="171.30076" x2="270.78229" y2="179.27941" gradientUnits="userSpaceOnUse" id="color-2"><stop offset="0" stop-color="#0b1228"/><stop offset="1" stop-color="#0b1228" stop-opacity="0"/></linearGradient><linearGradient x1="254.69239" y1="171.05719" x2="254.69239" y2="176.13412" gradientUnits="userSpaceOnUse" id="color-3"><stop offset="0" stop-color="#690087"/><stop offset="1" stop-color="#8a06d6"/></linearGradient><linearGradient x1="269.01752" y1="163.125" x2="269.01752" y2="168.125" gradientUnits="userSpaceOnUse" id="color-4"><stop offset="0" stop-color="#dfb1ff"/><stop offset="1" stop-color="#ff43f1"/></linearGradient><radialGradient cx="254.67" cy="163.87557" r="9.41666" gradientUnits="userSpaceOnUse" id="color-5"><stop offset="0" stop-color="#e79eff"/><stop offset="1" stop-color="#b633ff"/></radialGradient><linearGradient x1="264.89252" y1="155.25" x2="264.89252" y2="166.75" gradientUnits="userSpaceOnUse" id="color-6"><stop offset="0" stop-color="#dfb1ff"/><stop offset="1" stop-color="#ff43f1"/></linearGradient><linearGradient x1="263.1217" y1="168.79167" x2="263.1217" y2="170.79167" gradientUnits="userSpaceOnUse" id="color-7"><stop offset="0" stop-color="#ff43f1"/><stop offset="1" stop-color="#dfb1ff"/></linearGradient><linearGradient x1="263.26752" y1="165.875" x2="263.26752" y2="168" gradientUnits="userSpaceOnUse" id="color-8"><stop offset="0" stop-color="#dfb1ff"/><stop offset="1" stop-color="#ff43f1"/></linearGradient><linearGradient x1="281.39903" y1="166.89847" x2="281.39903" y2="172.37359" gradientUnits="userSpaceOnUse" id="color-9"><stop offset="0" stop-color="#6600cc"/><stop offset="1" stop-color="#d996ff"/></linearGradient><linearGradient x1="281.45858" y1="167.15678" x2="281.45858" y2="171.30347" gradientUnits="userSpaceOnUse" id="color-10"><stop offset="0" stop-color="#e7a9ff"/><stop offset="1" stop-color="#ffa8c3"/></linearGradient><linearGradient x1="284.53583" y1="168.01061" x2="284.53583" y2="173.08649" gradientUnits="userSpaceOnUse" id="color-11"><stop offset="0" stop-color="#6600cc"/><stop offset="1" stop-color="#d996ff"/></linearGradient><linearGradient x1="284.4251" y1="168.01061" x2="284.4251" y2="172.82819" gradientUnits="userSpaceOnUse" id="color-12"><stop offset="0" stop-color="#e7a9ff"/><stop offset="1" stop-color="#ffa8c3"/></linearGradient><linearGradient x1="282.59673" y1="162.99176" x2="282.59673" y2="168.03913" gradientUnits="userSpaceOnUse" id="color-13"><stop offset="0" stop-color="#d996ff"/><stop offset="1" stop-color="#6600cc"/></linearGradient><linearGradient x1="282.28306" y1="163.72976" x2="282.28306" y2="168.03913" gradientUnits="userSpaceOnUse" id="color-14"><stop offset="0" stop-color="#e7a9ff"/><stop offset="1" stop-color="#ffa8c3"/></linearGradient><linearGradient x1="285.36278" y1="166.21409" x2="285.36278" y2="172.97243" gradientUnits="userSpaceOnUse" id="color-15"><stop offset="0" stop-color="#6600cc"/><stop offset="1" stop-color="#d996ff"/></linearGradient><linearGradient x1="285.36278" y1="166.21409" x2="285.36278" y2="172.82483" gradientUnits="userSpaceOnUse" id="color-16"><stop offset="0" stop-color="#e7a9ff"/><stop offset="1" stop-color="#ffa8c3"/></linearGradient><linearGradient x1="285.23447" y1="162.99176" x2="285.23447" y2="167.92506" gradientUnits="userSpaceOnUse" id="color-17"><stop offset="0" stop-color="#d996ff"/><stop offset="1" stop-color="#6600cc"/></linearGradient><linearGradient x1="285.34515" y1="162.99176" x2="285.34515" y2="167.81436" gradientUnits="userSpaceOnUse" id="color-18"><stop offset="0" stop-color="#e7a9ff"/><stop offset="1" stop-color="#ffa8c3"/></linearGradient><linearGradient x1="287.27335" y1="162.99176" x2="287.27335" y2="166.01447" gradientUnits="userSpaceOnUse" id="color-19"><stop offset="0" stop-color="#d996ff"/><stop offset="1" stop-color="#6600cc"/></linearGradient><linearGradient x1="287.45788" y1="163.13936" x2="287.45788" y2="166.01447" gradientUnits="userSpaceOnUse" id="color-20"><stop offset="0" stop-color="#e7a9ff"/><stop offset="1" stop-color="#ffa8c3"/></linearGradient><linearGradient x1="289.93962" y1="164.75976" x2="289.93962" y2="169.86416" gradientUnits="userSpaceOnUse" id="color-21"><stop offset="0" stop-color="#6600cc"/><stop offset="1" stop-color="#d996ff"/></linearGradient><linearGradient x1="289.84738" y1="164.61216" x2="289.84738" y2="169.31065" gradientUnits="userSpaceOnUse" id="color-22"><stop offset="0" stop-color="#e7a9ff"/><stop offset="1" stop-color="#ffa8c3"/></linearGradient><linearGradient x1="289.1982" y1="166.47073" x2="289.1982" y2="173.11501" gradientUnits="userSpaceOnUse" id="color-23"><stop offset="0" stop-color="#6600cc"/><stop offset="1" stop-color="#d996ff"/></linearGradient><linearGradient x1="289.30893" y1="166.47073" x2="289.30893" y2="172.7829" gradientUnits="userSpaceOnUse" id="color-24"><stop offset="0" stop-color="#e7a9ff"/><stop offset="1" stop-color="#ffa8c3"/></linearGradient></defs><g transform="translate(-239.57043,-150.92344)"><g data-paper-data="{&quot;isPaintingLayer&quot;:true}" fill-rule="nonzero" stroke-linejoin="miter" stroke-miterlimit="10" stroke-dasharray="" stroke-dashoffset="0" style="mix-blend-mode: normal"><path d="M240.32043,179.86273v-28.18929h60.86325v28.18929z" fill="url(#color-1)" stroke="#7e1b8b" stroke-width="1.5" stroke-linecap="butt"/><g><path d="M241.09529,171.15407h59.38095" fill="none" stroke-opacity="0.70968" stroke="#ffffff" stroke-width="0.5" stroke-linecap="round"/><path d="M240.89862,179.27941v-7.97865h59.76739v7.97865z" data-paper-data="{&quot;index&quot;:null}" fill="url(#color-2)" stroke="none" stroke-width="0" stroke-linecap="butt"/></g><path d="M259.30773,171.2495l3.96154,3.96154c0,0 -3.33882,1.95654 -8.37912,1.70879c-4.81847,0.25712 -8.77472,-1.70879 -8.77472,-1.70879l4.23077,-4.15385z" fill="url(#color-3)" stroke="none" stroke-width="0" stroke-linecap="round"/><path d="M274.14252,168.125l-10.25,-5" fill="none" stroke="url(#color-4)" stroke-width="1" stroke-linecap="round"/><path d="M245.25336,163.87557c0,-5.20068 4.21599,-9.41666 9.41667,-9.41666c5.20068,0 9.41666,4.21598 9.41666,9.41666c0,5.20068 -4.21598,9.41666 -9.41666,9.41666c-5.20068,0 -9.41667,-4.21598 -9.41667,-9.41666z" fill="url(#color-5)" stroke="none" stroke-width="0" stroke-linecap="butt"/><text transform="translate(294.11697,160.49343) scale(0.20671,0.20671)" font-size="40" xml:space="preserve" fill="#ffffff" fill-rule="nonzero" stroke="none" stroke-width="1" stroke-linecap="butt" stroke-linejoin="miter" stroke-miterlimit="10" stroke-dasharray="" stroke-dashoffset="0" font-family="Sans Serif" font-weight="normal" text-anchor="start" style="mix-blend-mode: normal"><tspan x="0" dy="0">4</tspan></text><path d="M273.6842,167.08334l-17.25,-12.08334" fill="none" stroke="url(#color-6)" stroke-width="1.5" stroke-linecap="round"/><path d="M273.76752,168.08334l-19.625,4.25" fill="none" stroke="url(#color-7)" stroke-width="1.5" stroke-linecap="round"/><path d="M251.64253,163.625l22.16666,3.875" fill="none" stroke="url(#color-8)" stroke-width="2" stroke-linecap="round"/><g stroke-width="0.45" stroke-linecap="round"><path d="M282.0549,167.95358l-0.19289,3.34989l-0.99977,-4.14669z" fill="url(#color-9)" stroke="url(#color-10)"/><path d="M281.99787,168.01061l4.85448,4.81758l-4.82596,-0.51163z" fill="url(#color-11)" stroke="url(#color-12)"/><path d="M283.7659,163.72976l-1.73953,4.30936l-1.2262,-1.2262z" fill="url(#color-13)" stroke="url(#color-14)"/><path d="M288.69917,166.21409l-1.67407,6.61074l-4.99872,-4.9568z" fill="url(#color-15)" stroke="url(#color-16)"/><path d="M282.2478,167.81436l2.23099,-4.8226l3.96375,3.05123z" fill="url(#color-17)" stroke="url(#color-18)"/><path d="M289.69723,164.4746l-1.0551,1.53987l-3.42365,-2.87511z" fill="url(#color-19)" stroke="url(#color-20)"/><path d="M291.0241,169.31065l-2.35344,-3.09656l1.15741,-1.60193z" fill="url(#color-21)" stroke="url(#color-22)"/><path d="M291.26563,170.06378l-3.91345,2.71913l1.34698,-6.31217z" fill="url(#color-23)" stroke="url(#color-24)"/></g></g></g></svg>