<svg version="1.1" xmlns="http://www.w3.org/2000/svg" xmlns:xlink="http://www.w3.org/1999/xlink" width="62.44658" height="60.26072" viewBox="0,0,62.44658,60.26072"><defs><linearGradient x1="271.06156" y1="121.10222" x2="271.06156" y2="179.86293" gradientUnits="userSpaceOnUse" id="color-1"><stop offset="0" stop-color="#567357"/><stop offset="1" stop-color="#2e5729"/></linearGradient><linearGradient x1="271.09" y1="134.11949" x2="271.09" y2="169.89479" gradientUnits="userSpaceOnUse" id="color-2"><stop offset="0" stop-color="#0b290c"/><stop offset="1" stop-color="#0b290c" stop-opacity="0"/></linearGradient><linearGradient x1="270.89207" y1="167.57146" x2="270.89207" y2="180.14306" gradientUnits="userSpaceOnUse" id="color-3"><stop offset="0" stop-color="#70bb5b"/><stop offset="1" stop-color="#296f15"/></linearGradient><linearGradient x1="270.23447" y1="135.79564" x2="270.23447" y2="142.9623" gradientUnits="userSpaceOnUse" id="color-4"><stop offset="0" stop-color="#6dff72"/><stop offset="1" stop-color="#c6ffbc"/></linearGradient><linearGradient x1="261.90112" y1="137.4623" x2="261.90112" y2="156.9623" gradientUnits="userSpaceOnUse" id="color-5"><stop offset="0" stop-color="#6dff72"/><stop offset="1" stop-color="#c6ffbc"/></linearGradient><linearGradient x1="278.31784" y1="136.79564" x2="278.31784" y2="157.12898" gradientUnits="userSpaceOnUse" id="color-6"><stop offset="0" stop-color="#6dff72"/><stop offset="1" stop-color="#c6ffbc"/></linearGradient><linearGradient x1="189.65117" y1="110.12895" x2="189.65117" y2="132.46229" gradientUnits="userSpaceOnUse" id="color-7"><stop offset="0" stop-color="#ffffff"/><stop offset="1" stop-color="#ffffff" stop-opacity="0"/></linearGradient><linearGradient x1="254.40117" y1="132.79562" x2="254.40117" y2="150.96229" gradientUnits="userSpaceOnUse" id="color-8"><stop offset="0" stop-color="#ffffff"/><stop offset="1" stop-color="#ffffff" stop-opacity="0"/></linearGradient><linearGradient x1="288.65112" y1="131.12895" x2="288.65112" y2="145.29562" gradientUnits="userSpaceOnUse" id="color-9"><stop offset="0" stop-color="#ffffff"/><stop offset="1" stop-color="#ffffff" stop-opacity="0"/></linearGradient><linearGradient x1="271.31782" y1="154.12895" x2="271.31782" y2="164.46229" gradientUnits="userSpaceOnUse" id="color-10"><stop offset="0" stop-color="#ffffff" stop-opacity="0"/><stop offset="1" stop-color="#ffffff"/></linearGradient><linearGradient x1="269.87814" y1="152.53089" x2="269.87814" y2="155.40219" gradientUnits="userSpaceOnUse" id="color-11"><stop offset="0" stop-color="#008710"/><stop offset="1" stop-color="#34d606"/></linearGradient><linearGradient x1="270.00985" y1="148.92928" x2="270.00985" y2="153.73654" gradientUnits="userSpaceOnUse" id="color-12"><stop offset="0" stop-color="#64ff63"/><stop offset="1" stop-color="#94ff7c"/></linearGradient><linearGradient x1="273.28538" y1="145.25314" x2="273.28538" y2="153.3595" gradientUnits="userSpaceOnUse" id="color-13"><stop offset="0" stop-color="#64ff63"/><stop offset="1" stop-color="#bbff99"/></linearGradient><linearGradient x1="267.22918" y1="144.02776" x2="267.22918" y2="153.50089" gradientUnits="userSpaceOnUse" id="color-14"><stop offset="0" stop-color="#64ff63"/><stop offset="1" stop-color="#bbff99"/></linearGradient><radialGradient cx="270.08" cy="138.47513" r="20.4375" gradientUnits="userSpaceOnUse" id="color-15"><stop offset="0" stop-color="#ff8263"/><stop offset="1" stop-color="#ff8263" stop-opacity="0"/></radialGradient><radialGradient cx="270.98125" cy="145.41263" r="27.83875" gradientUnits="userSpaceOnUse" id="color-16"><stop offset="0" stop-color="#ff6363"/><stop offset="1" stop-color="#ff6363" stop-opacity="0"/></radialGradient><radialGradient cx="270.455" cy="133.125" r="11.9375" gradientUnits="userSpaceOnUse" id="color-17"><stop offset="0" stop-color="#ff9e63"/><stop offset="1" stop-color="#ff9e63" stop-opacity="0"/></radialGradient></defs><g transform="translate(-239.79668,-120.35221)"><g data-paper-data="{&quot;isPaintingLayer&quot;:true}" fill-rule="nonzero" stroke-linejoin="miter" stroke-miterlimit="10" stroke-dasharray="" stroke-dashoffset="0" style="mix-blend-mode: normal"><path d="M240.54669,179.86293v-58.76072h60.94658v58.76072z" fill="url(#color-1)" stroke="#3dab20" stroke-width="1.5" stroke-linecap="butt"/><path d="M241.20635,169.89479v-35.77529h59.76739v35.77529z" data-paper-data="{&quot;index&quot;:null}" fill="url(#color-2)" stroke="none" stroke-width="0" stroke-linecap="butt"/><path d="M241.40302,134.07713h59.38095" fill="none" stroke="#87ffa8" stroke-width="0.5" stroke-linecap="round"/><path d="M239.96352,180.14306v-12.57143h61.85715v12.57143z" fill="url(#color-3)" stroke="none" stroke-width="0" stroke-linecap="butt"/><g fill="none" stroke-width="1.5" stroke-linecap="round"><path d="" stroke="url(#color-4)"/><path d="" stroke="url(#color-5)"/><path d="" stroke="url(#color-6)"/></g><path d="" fill="none" stroke="url(#color-7)" stroke-width="1.5" stroke-linecap="round"/><path d="" fill="none" stroke="url(#color-8)" stroke-width="3" stroke-linecap="round"/><path d="" fill="none" stroke="url(#color-9)" stroke-width="3" stroke-linecap="round"/><path d="" fill="none" stroke="url(#color-10)" stroke-width="3" stroke-linecap="round"/><path d="M272.48841,152.63965l2.24049,2.24049c0,0 -1.8883,1.10654 -4.73889,0.96642c-2.72513,0.14542 -4.96263,-0.96642 -4.96263,-0.96642l2.39275,-2.34925z" fill="url(#color-11)" stroke="none" stroke-width="0" stroke-linecap="round"/><path d="M264.96692,143.98064l11.87675,0.98973" fill="none" stroke="#64ff63" stroke-width="1" stroke-linecap="round"/><path d="M270.43402,148.92928l-5.04291,-4.66587" fill="none" stroke="#64ff63" stroke-width="1" stroke-linecap="round"/><path d="M276.23098,145.06462l-5.46708,3.53475" fill="none" stroke="#64ff63" stroke-width="1" stroke-linecap="round"/><path d="M269.67994,153.73654l0.65982,-4.80726" fill="none" stroke="url(#color-12)" stroke-width="1" stroke-linecap="round"/><path d="M276.60803,145.25314l-6.64533,8.10636" fill="none" stroke="url(#color-13)" stroke-width="1" stroke-linecap="round"/><path d="M264.96693,144.02776l4.52448,9.47313" fill="none" stroke="url(#color-14)" stroke-width="1" stroke-linecap="round"/><path d="M290.5175,138.47513c0,2.95479 -9.15018,5.35013 -20.4375,5.35013c-11.28732,0 -20.4375,-2.39533 -20.4375,-5.35013c0,-2.95479 9.15018,-5.35013 20.4375,-5.35013c11.28732,0 20.4375,2.39534 20.4375,5.35013z" fill="none" stroke="url(#color-15)" stroke-width="2.5" stroke-linecap="butt"/><path d="M298.82,145.41263c0,4.02484 -12.46383,7.28763 -27.83875,7.28763c-15.37492,0 -27.83875,-3.26278 -27.83875,-7.28763c0,-4.02484 12.46383,-7.28763 27.83875,-7.28763c15.37492,0 27.83875,3.26279 27.83875,7.28763z" fill="none" stroke="url(#color-16)" stroke-width="3.5" stroke-linecap="butt"/><path d="M282.3925,133.125c0,1.72589 -5.3446,3.125 -11.9375,3.125c-6.5929,0 -11.9375,-1.39911 -11.9375,-3.125c0,-1.72589 5.3446,-3.125 11.9375,-3.125c6.5929,0 11.9375,1.39911 11.9375,3.125z" fill="none" stroke="url(#color-17)" stroke-width="1.5" stroke-linecap="butt"/></g></g></svg>