<svg version="1.1" xmlns="http://www.w3.org/2000/svg" xmlns:xlink="http://www.w3.org/1999/xlink" width="240.6" height="192.6" viewBox="0,0,240.6,192.6"><defs><linearGradient x1="120" y1="84" x2="120" y2="276" gradientUnits="userSpaceOnUse" id="color-1"><stop offset="0" stop-color="#0b697c"/><stop offset="1" stop-color="#021618"/></linearGradient></defs><g transform="translate(-119.7,-83.7)"><g data-paper-data="{&quot;isPaintingLayer&quot;:true}" fill-rule="nonzero" stroke-linejoin="miter" stroke-miterlimit="10" stroke-dasharray="" stroke-dashoffset="0" style="mix-blend-mode: normal"><path d="M120,276v-192h240v192z" fill="url(#color-1)" stroke="none" stroke-width="1" stroke-linecap="butt"/><path d="M120,84h240" fill="#000000" stroke-opacity="0.5" stroke="#ffffff" stroke-width="0.6" stroke-linecap="butt"/><path d="M120,96h240" fill="#000000" stroke-opacity="0.5" stroke="#ffffff" stroke-width="0.6" stroke-linecap="butt"/><path d="M120,108h240" fill="#000000" stroke-opacity="0.5" stroke="#ffffff" stroke-width="0.6" stroke-linecap="butt"/><path d="M120,120h240" fill="#000000" stroke-opacity="0.5" stroke="#ffffff" stroke-width="0.6" stroke-linecap="butt"/><path d="M120,132h240" fill="#000000" stroke-opacity="0.5" stroke="#ffffff" stroke-width="0.6" stroke-linecap="butt"/><path d="M120,144h240" fill="#000000" stroke-opacity="0.5" stroke="#ffffff" stroke-width="0.6" stroke-linecap="butt"/><path d="M120,156h240" fill="#000000" stroke-opacity="0.5" stroke="#ffffff" stroke-width="0.6" stroke-linecap="butt"/><path d="M120,168h240" fill="#000000" stroke-opacity="0.5" stroke="#ffffff" stroke-width="0.6" stroke-linecap="butt"/><path d="M120,180h240" fill="#000000" stroke-opacity="0.5" stroke="#ffffff" stroke-width="0.6" stroke-linecap="butt"/><path d="M120,192h240" fill="#000000" stroke-opacity="0.5" stroke="#ffffff" stroke-width="0.6" stroke-linecap="butt"/><path d="M120,204h240" fill="#000000" stroke-opacity="0.5" stroke="#ffffff" stroke-width="0.6" stroke-linecap="butt"/><path d="M120,216h240" fill="#000000" stroke-opacity="0.5" stroke="#ffffff" stroke-width="0.6" stroke-linecap="butt"/><path d="M120,228h240" fill="#000000" stroke-opacity="0.5" stroke="#ffffff" stroke-width="0.6" stroke-linecap="butt"/><path d="M120,240h240" fill="#000000" stroke-opacity="0.5" stroke="#ffffff" stroke-width="0.6" stroke-linecap="butt"/><path d="M120,252h240" fill="#000000" stroke-opacity="0.5" stroke="#ffffff" stroke-width="0.6" stroke-linecap="butt"/><path d="M120,264h240" fill="#000000" stroke-opacity="0.5" stroke="#ffffff" stroke-width="0.6" stroke-linecap="butt"/><path d="M120,276h240" fill="#000000" stroke-opacity="0.5" stroke="#ffffff" stroke-width="0.6" stroke-linecap="butt"/><path d="M120,84v192" fill="#000000" stroke-opacity="0.5" stroke="#ffffff" stroke-width="0.6" stroke-linecap="butt"/><path d="M132,84v192" fill="#000000" stroke-opacity="0.5" stroke="#ffffff" stroke-width="0.6" stroke-linecap="butt"/><path d="M144,84v192" fill="#000000" stroke-opacity="0.5" stroke="#ffffff" stroke-width="0.6" stroke-linecap="butt"/><path d="M156,84v192" fill="#000000" stroke-opacity="0.5" stroke="#ffffff" stroke-width="0.6" stroke-linecap="butt"/><path d="M168,84v192" fill="#000000" stroke-opacity="0.5" stroke="#ffffff" stroke-width="0.6" stroke-linecap="butt"/><path d="M180,84v192" fill="#000000" stroke-opacity="0.5" stroke="#ffffff" stroke-width="0.6" stroke-linecap="butt"/><path d="M192,84v192" fill="#000000" stroke-opacity="0.5" stroke="#ffffff" stroke-width="0.6" stroke-linecap="butt"/><path d="M204,84v192" fill="#000000" stroke-opacity="0.5" stroke="#ffffff" stroke-width="0.6" stroke-linecap="butt"/><path d="M216,84v192" fill="#000000" stroke-opacity="0.5" stroke="#ffffff" stroke-width="0.6" stroke-linecap="butt"/><path d="M228,84v192" fill="#000000" stroke-opacity="0.5" stroke="#ffffff" stroke-width="0.6" stroke-linecap="butt"/><path d="M240,84v192" fill="#000000" stroke-opacity="0.5" stroke="#ffffff" stroke-width="0.6" stroke-linecap="butt"/><path d="M252,84v192" fill="#000000" stroke-opacity="0.5" stroke="#ffffff" stroke-width="0.6" stroke-linecap="butt"/><path d="M264,84v192" fill="#000000" stroke-opacity="0.5" stroke="#ffffff" stroke-width="0.6" stroke-linecap="butt"/><path d="M276,84v192" fill="#000000" stroke-opacity="0.5" stroke="#ffffff" stroke-width="0.6" stroke-linecap="butt"/><path d="M288,84v192" fill="#000000" stroke-opacity="0.5" stroke="#ffffff" stroke-width="0.6" stroke-linecap="butt"/><path d="M300,84v192" fill="#000000" stroke-opacity="0.5" stroke="#ffffff" stroke-width="0.6" stroke-linecap="butt"/><path d="M312,84v192" fill="#000000" stroke-opacity="0.5" stroke="#ffffff" stroke-width="0.6" stroke-linecap="butt"/><path d="M324,84v192" fill="#000000" stroke-opacity="0.5" stroke="#ffffff" stroke-width="0.6" stroke-linecap="butt"/><path d="M336,84v192" fill="#000000" stroke-opacity="0.5" stroke="#ffffff" stroke-width="0.6" stroke-linecap="butt"/><path d="M348,84v192" fill="#000000" stroke-opacity="0.5" stroke="#ffffff" stroke-width="0.6" stroke-linecap="butt"/><path d="M360,84v192" fill="#000000" stroke-opacity="0.5" stroke="#ffffff" stroke-width="0.6" stroke-linecap="butt"/><path d="M126,150h228" fill="#000000" stroke-opacity="0.5" stroke="#a3ff33" stroke-width="11.4" stroke-linecap="round"/><path d="M126,222h24" fill="#000000" stroke-opacity="0.5" stroke="#a3ff33" stroke-width="11.4" stroke-linecap="round"/><path d="M246,234v-84" fill="#000000" stroke-opacity="0.5" stroke="#a3ff33" stroke-width="11.4" stroke-linecap="round"/><path d="M126,150h228" fill="#000000" stroke="#bbff3d" stroke-width="7.8" stroke-linecap="round"/><path d="M126,222h24" fill="#000000" stroke="#bbff3d" stroke-width="7.8" stroke-linecap="round"/><path d="M246,234v-84" fill="#000000" stroke="#bbff3d" stroke-width="7.8" stroke-linecap="round"/><path d="M126,252c-3.31371,0 -6,-2.68629 -6,-6v0c0,-3.31371 2.68629,-6 6,-6h48c3.31371,0 6,2.68629 6,6v0c0,3.31371 -2.68629,6 -6,6z" fill="#bcd5e0" stroke="none" stroke-width="1" stroke-linecap="butt"/><path d="M174,252c-3.31371,0 -6,-2.68629 -6,-6v-48c0,-3.31371 2.68629,-6 6,-6v0c3.31371,0 6,2.68629 6,6v48c0,3.31371 -2.68629,6 -6,6z" fill="#bcd5e0" stroke="none" stroke-width="1" stroke-linecap="butt"/><path d="M150,204c-3.31371,0 -6,-2.68629 -6,-6v0c0,-3.31371 2.68629,-6 6,-6h24c3.31371,0 6,2.68629 6,6v0c0,3.31371 -2.68629,6 -6,6z" fill="#bcd5e0" stroke="none" stroke-width="1" stroke-linecap="butt"/><path d="M150,204c-3.31371,0 -6,-2.68629 -6,-6v-72c0,-3.31371 2.68629,-6 6,-6v0c3.31371,0 6,2.68629 6,6v72c0,3.31371 -2.68629,6 -6,6z" fill="#bcd5e0" stroke="none" stroke-width="1" stroke-linecap="butt"/><path d="M150,132c-3.31371,0 -6,-2.68629 -6,-6v0c0,-3.31371 2.68629,-6 6,-6h48c3.31371,0 6,2.68629 6,6v0c0,3.31371 -2.68629,6 -6,6z" fill="#bcd5e0" stroke="none" stroke-width="1" stroke-linecap="butt"/><path d="M198,132c-3.31371,0 -6,-2.68629 -6,-6v-24c0,-3.31371 2.68629,-6 6,-6v0c3.31371,0 6,2.68629 6,6v24c0,3.31371 -2.68629,6 -6,6z" fill="#bcd5e0" stroke="none" stroke-width="1" stroke-linecap="butt"/><path d="M198,108c-3.31371,0 -6,-2.68629 -6,-6v0c0,-3.31371 2.68629,-6 6,-6h24c3.31371,0 6,2.68629 6,6v0c0,3.31371 -2.68629,6 -6,6z" fill="#bcd5e0" stroke="none" stroke-width="1" stroke-linecap="butt"/><path d="M222,252c-3.31371,0 -6,-2.68629 -6,-6v-144c0,-3.31371 2.68629,-6 6,-6v0c3.31371,0 6,2.68629 6,6v144c0,3.31371 -2.68629,6 -6,6z" fill="#bcd5e0" stroke="none" stroke-width="1" stroke-linecap="butt"/><path d="M222,252c-3.31371,0 -6,-2.68629 -6,-6v0c0,-3.31371 2.68629,-6 6,-6h96c3.31371,0 6,2.68629 6,6v0c0,3.31371 -2.68629,6 -6,6z" fill="#bcd5e0" stroke="none" stroke-width="1" stroke-linecap="butt"/><path d="M318,252c-3.31371,0 -6,-2.68629 -6,-6v-48c0,-3.31371 2.68629,-6 6,-6v0c3.31371,0 6,2.68629 6,6v48c0,3.31371 -2.68629,6 -6,6z" fill="#bcd5e0" stroke="none" stroke-width="1" stroke-linecap="butt"/><path d="M270,204c-3.31371,0 -6,-2.68629 -6,-6v0c0,-3.31371 2.68629,-6 6,-6h48c3.31371,0 6,2.68629 6,6v0c0,3.31371 -2.68629,6 -6,6z" fill="#bcd5e0" stroke="none" stroke-width="1" stroke-linecap="butt"/><path d="M270,204c-3.31371,0 -6,-2.68629 -6,-6v-72c0,-3.31371 2.68629,-6 6,-6v0c3.31371,0 6,2.68629 6,6v72c0,3.31371 -2.68629,6 -6,6z" fill="#bcd5e0" stroke="none" stroke-width="1" stroke-linecap="butt"/><path d="M270,132c-3.31371,0 -6,-2.68629 -6,-6v0c0,-3.31371 2.68629,-6 6,-6h84c3.31371,0 6,2.68629 6,6v0c0,3.31371 -2.68629,6 -6,6z" fill="#bcd5e0" stroke="none" stroke-width="1" stroke-linecap="butt"/><path d="M126,246h48" fill="#000000" stroke="#213a34" stroke-width="9" stroke-linecap="round"/><path d="M174,246v-48" fill="#000000" stroke="#213a34" stroke-width="9" stroke-linecap="round"/><path d="M174,198h-24" fill="#000000" stroke="#213a34" stroke-width="9" stroke-linecap="round"/><path d="M150,198v-72" fill="#000000" stroke="#213a34" stroke-width="9" stroke-linecap="round"/><path d="M150,126h48" fill="#000000" stroke="#213a34" stroke-width="9" stroke-linecap="round"/><path d="M198,126v-24" fill="#000000" stroke="#213a34" stroke-width="9" stroke-linecap="round"/><path d="M198,102h24" fill="#000000" stroke="#213a34" stroke-width="9" stroke-linecap="round"/><path d="M222,102v144" fill="#000000" stroke="#213a34" stroke-width="9" stroke-linecap="round"/><path d="M222,246h96" fill="#000000" stroke="#213a34" stroke-width="9" stroke-linecap="round"/><path d="M318,246v-48" fill="#000000" stroke="#213a34" stroke-width="9" stroke-linecap="round"/><path d="M318,198h-48" fill="#000000" stroke="#213a34" stroke-width="9" stroke-linecap="round"/><path d="M270,198v-72" fill="#000000" stroke="#213a34" stroke-width="9" stroke-linecap="round"/><path d="M270,126h84" fill="#000000" stroke="#213a34" stroke-width="9" stroke-linecap="round"/><path d="M160.8,270c0,-0.66274 0.53726,-1.2 1.2,-1.2c0.66274,0 1.2,0.53726 1.2,1.2c0,0.66274 -0.53726,1.2 -1.2,1.2c-0.66274,0 -1.2,-0.53726 -1.2,-1.2z" fill-opacity="0.8" fill="#75afff" stroke="none" stroke-width="1" stroke-linecap="butt"/><path d="M158.4,270c0,-1.98823 1.61177,-3.6 3.6,-3.6c1.98823,0 3.6,1.61177 3.6,3.6c0,1.98823 -1.61177,3.6 -3.6,3.6c-1.98823,0 -3.6,-1.61177 -3.6,-3.6z" fill-opacity="0.6" fill="#75afff" stroke="none" stroke-width="1" stroke-linecap="butt"/><path d="M292.8,270c0,-0.66274 0.53726,-1.2 1.2,-1.2c0.66274,0 1.2,0.53726 1.2,1.2c0,0.66274 -0.53726,1.2 -1.2,1.2c-0.66274,0 -1.2,-0.53726 -1.2,-1.2z" fill-opacity="0.8" fill="#d275ff" stroke="none" stroke-width="1" stroke-linecap="butt"/><path d="M290.4,270c0,-1.98823 1.61177,-3.6 3.6,-3.6c1.98823,0 3.6,1.61177 3.6,3.6c0,1.98823 -1.61177,3.6 -3.6,3.6c-1.98823,0 -3.6,-1.61177 -3.6,-3.6z" fill-opacity="0.6" fill="#d275ff" stroke="none" stroke-width="1" stroke-linecap="butt"/><path d="M256.8,258c0,-0.66274 0.53726,-1.2 1.2,-1.2c0.66274,0 1.2,0.53726 1.2,1.2c0,0.66274 -0.53726,1.2 -1.2,1.2c-0.66274,0 -1.2,-0.53726 -1.2,-1.2z" fill-opacity="0.8" fill="#7595ff" stroke="none" stroke-width="1" stroke-linecap="butt"/><path d="M254.4,258c0,-1.98823 1.61177,-3.6 3.6,-3.6c1.98823,0 3.6,1.61177 3.6,3.6c0,1.98823 -1.61177,3.6 -3.6,3.6c-1.98823,0 -3.6,-1.61177 -3.6,-3.6z" fill-opacity="0.6" fill="#7595ff" stroke="none" stroke-width="1" stroke-linecap="butt"/><path d="M340.8,246c0,-0.66274 0.53726,-1.2 1.2,-1.2c0.66274,0 1.2,0.53726 1.2,1.2c0,0.66274 -0.53726,1.2 -1.2,1.2c-0.66274,0 -1.2,-0.53726 -1.2,-1.2z" fill-opacity="0.8" fill="#9e75ff" stroke="none" stroke-width="1" stroke-linecap="butt"/><path d="M338.4,246c0,-1.98823 1.61177,-3.6 3.6,-3.6c1.98823,0 3.6,1.61177 3.6,3.6c0,1.98823 -1.61177,3.6 -3.6,3.6c-1.98823,0 -3.6,-1.61177 -3.6,-3.6z" fill-opacity="0.6" fill="#9e75ff" stroke="none" stroke-width="1" stroke-linecap="butt"/><path d="M184.8,234c0,-0.66274 0.53726,-1.2 1.2,-1.2c0.66274,0 1.2,0.53726 1.2,1.2c0,0.66274 -0.53726,1.2 -1.2,1.2c-0.66274,0 -1.2,-0.53726 -1.2,-1.2z" fill-opacity="0.8" fill="#a475ff" stroke="none" stroke-width="1" stroke-linecap="butt"/><path d="M182.4,234c0,-1.98823 1.61177,-3.6 3.6,-3.6c1.98823,0 3.6,1.61177 3.6,3.6c0,1.98823 -1.61177,3.6 -3.6,3.6c-1.98823,0 -3.6,-1.61177 -3.6,-3.6z" fill-opacity="0.6" fill="#a475ff" stroke="none" stroke-width="1" stroke-linecap="butt"/><path d="M268.8,222c0,-0.66274 0.53726,-1.2 1.2,-1.2c0.66274,0 1.2,0.53726 1.2,1.2c0,0.66274 -0.53726,1.2 -1.2,1.2c-0.66274,0 -1.2,-0.53726 -1.2,-1.2z" fill-opacity="0.8" fill="#ed75ff" stroke="none" stroke-width="1" stroke-linecap="butt"/><path d="M266.4,222c0,-1.98823 1.61177,-3.6 3.6,-3.6c1.98823,0 3.6,1.61177 3.6,3.6c0,1.98823 -1.61177,3.6 -3.6,3.6c-1.98823,0 -3.6,-1.61177 -3.6,-3.6z" fill-opacity="0.6" fill="#ed75ff" stroke="none" stroke-width="1" stroke-linecap="butt"/><path d="M328.8,210c0,-0.66274 0.53726,-1.2 1.2,-1.2c0.66274,0 1.2,0.53726 1.2,1.2c0,0.66274 -0.53726,1.2 -1.2,1.2c-0.66274,0 -1.2,-0.53726 -1.2,-1.2z" fill-opacity="0.8" fill="#75a2ff" stroke="none" stroke-width="1" stroke-linecap="butt"/><path d="M326.4,210c0,-1.98823 1.61177,-3.6 3.6,-3.6c1.98823,0 3.6,1.61177 3.6,3.6c0,1.98823 -1.61177,3.6 -3.6,3.6c-1.98823,0 -3.6,-1.61177 -3.6,-3.6z" fill-opacity="0.6" fill="#75a2ff" stroke="none" stroke-width="1" stroke-linecap="butt"/><path d="M124.8,198c0,-0.66274 0.53726,-1.2 1.2,-1.2c0.66274,0 1.2,0.53726 1.2,1.2c0,0.66274 -0.53726,1.2 -1.2,1.2c-0.66274,0 -1.2,-0.53726 -1.2,-1.2z" fill-opacity="0.8" fill="#75ffd0" stroke="none" stroke-width="1" stroke-linecap="butt"/><path d="M122.4,198c0,-1.98823 1.61177,-3.6 3.6,-3.6c1.98823,0 3.6,1.61177 3.6,3.6c0,1.98823 -1.61177,3.6 -3.6,3.6c-1.98823,0 -3.6,-1.61177 -3.6,-3.6z" fill-opacity="0.6" fill="#75ffd0" stroke="none" stroke-width="1" stroke-linecap="butt"/><path d="M208.8,198c0,-0.66274 0.53726,-1.2 1.2,-1.2c0.66274,0 1.2,0.53726 1.2,1.2c0,0.66274 -0.53726,1.2 -1.2,1.2c-0.66274,0 -1.2,-0.53726 -1.2,-1.2z" fill-opacity="0.8" fill="#75ffd7" stroke="none" stroke-width="1" stroke-linecap="butt"/><path d="M206.4,198c0,-1.98823 1.61177,-3.6 3.6,-3.6c1.98823,0 3.6,1.61177 3.6,3.6c0,1.98823 -1.61177,3.6 -3.6,3.6c-1.98823,0 -3.6,-1.61177 -3.6,-3.6z" fill-opacity="0.6" fill="#75ffd7" stroke="none" stroke-width="1" stroke-linecap="butt"/><path d="M172.8,186c0,-0.66274 0.53726,-1.2 1.2,-1.2c0.66274,0 1.2,0.53726 1.2,1.2c0,0.66274 -0.53726,1.2 -1.2,1.2c-0.66274,0 -1.2,-0.53726 -1.2,-1.2z" fill-opacity="0.8" fill="#9075ff" stroke="none" stroke-width="1" stroke-linecap="butt"/><path d="M170.4,186c0,-1.98823 1.61177,-3.6 3.6,-3.6c1.98823,0 3.6,1.61177 3.6,3.6c0,1.98823 -1.61177,3.6 -3.6,3.6c-1.98823,0 -3.6,-1.61177 -3.6,-3.6z" fill-opacity="0.6" fill="#9075ff" stroke="none" stroke-width="1" stroke-linecap="butt"/><path d="M256.8,186c0,-0.66274 0.53726,-1.2 1.2,-1.2c0.66274,0 1.2,0.53726 1.2,1.2c0,0.66274 -0.53726,1.2 -1.2,1.2c-0.66274,0 -1.2,-0.53726 -1.2,-1.2z" fill-opacity="0.8" fill="#9775ff" stroke="none" stroke-width="1" stroke-linecap="butt"/><path d="M254.4,186c0,-1.98823 1.61177,-3.6 3.6,-3.6c1.98823,0 3.6,1.61177 3.6,3.6c0,1.98823 -1.61177,3.6 -3.6,3.6c-1.98823,0 -3.6,-1.61177 -3.6,-3.6z" fill-opacity="0.6" fill="#9775ff" stroke="none" stroke-width="1" stroke-linecap="butt"/><path d="M316.8,186c0,-0.66274 0.53726,-1.2 1.2,-1.2c0.66274,0 1.2,0.53726 1.2,1.2c0,0.66274 -0.53726,1.2 -1.2,1.2c-0.66274,0 -1.2,-0.53726 -1.2,-1.2z" fill-opacity="0.8" fill="#75ffc3" stroke="none" stroke-width="1" stroke-linecap="butt"/><path d="M314.4,186c0,-1.98823 1.61177,-3.6 3.6,-3.6c1.98823,0 3.6,1.61177 3.6,3.6c0,1.98823 -1.61177,3.6 -3.6,3.6c-1.98823,0 -3.6,-1.61177 -3.6,-3.6z" fill-opacity="0.6" fill="#75ffc3" stroke="none" stroke-width="1" stroke-linecap="butt"/><path d="M352.8,174c0,-0.66274 0.53726,-1.2 1.2,-1.2c0.66274,0 1.2,0.53726 1.2,1.2c0,0.66274 -0.53726,1.2 -1.2,1.2c-0.66274,0 -1.2,-0.53726 -1.2,-1.2z" fill-opacity="0.8" fill="#b175ff" stroke="none" stroke-width="1" stroke-linecap="butt"/><path d="M350.4,174c0,-1.98823 1.61177,-3.6 3.6,-3.6c1.98823,0 3.6,1.61177 3.6,3.6c0,1.98823 -1.61177,3.6 -3.6,3.6c-1.98823,0 -3.6,-1.61177 -3.6,-3.6z" fill-opacity="0.6" fill="#b175ff" stroke="none" stroke-width="1" stroke-linecap="butt"/><path d="M208.8,162c0,-0.66274 0.53726,-1.2 1.2,-1.2c0.66274,0 1.2,0.53726 1.2,1.2c0,0.66274 -0.53726,1.2 -1.2,1.2c-0.66274,0 -1.2,-0.53726 -1.2,-1.2z" fill-opacity="0.8" fill="#8a75ff" stroke="none" stroke-width="1" stroke-linecap="butt"/><path d="M206.4,162c0,-1.98823 1.61177,-3.6 3.6,-3.6c1.98823,0 3.6,1.61177 3.6,3.6c0,1.98823 -1.61177,3.6 -3.6,3.6c-1.98823,0 -3.6,-1.61177 -3.6,-3.6z" fill-opacity="0.6" fill="#8a75ff" stroke="none" stroke-width="1" stroke-linecap="butt"/><path d="M184.8,138c0,-0.66274 0.53726,-1.2 1.2,-1.2c0.66274,0 1.2,0.53726 1.2,1.2c0,0.66274 -0.53726,1.2 -1.2,1.2c-0.66274,0 -1.2,-0.53726 -1.2,-1.2z" fill-opacity="0.8" fill="#75caff" stroke="none" stroke-width="1" stroke-linecap="butt"/><path d="M182.4,138c0,-1.98823 1.61177,-3.6 3.6,-3.6c1.98823,0 3.6,1.61177 3.6,3.6c0,1.98823 -1.61177,3.6 -3.6,3.6c-1.98823,0 -3.6,-1.61177 -3.6,-3.6z" fill-opacity="0.6" fill="#75caff" stroke="none" stroke-width="1" stroke-linecap="butt"/><path d="M304.8,114c0,-0.66274 0.53726,-1.2 1.2,-1.2c0.66274,0 1.2,0.53726 1.2,1.2c0,0.66274 -0.53726,1.2 -1.2,1.2c-0.66274,0 -1.2,-0.53726 -1.2,-1.2z" fill-opacity="0.8" fill="#75caff" stroke="none" stroke-width="1" stroke-linecap="butt"/><path d="M302.4,114c0,-1.98823 1.61177,-3.6 3.6,-3.6c1.98823,0 3.6,1.61177 3.6,3.6c0,1.98823 -1.61177,3.6 -3.6,3.6c-1.98823,0 -3.6,-1.61177 -3.6,-3.6z" fill-opacity="0.6" fill="#75caff" stroke="none" stroke-width="1" stroke-linecap="butt"/><path d="M148.8,102c0,-0.66274 0.53726,-1.2 1.2,-1.2c0.66274,0 1.2,0.53726 1.2,1.2c0,0.66274 -0.53726,1.2 -1.2,1.2c-0.66274,0 -1.2,-0.53726 -1.2,-1.2z" fill-opacity="0.8" fill="#75c3ff" stroke="none" stroke-width="1" stroke-linecap="butt"/><path d="M146.4,102c0,-1.98823 1.61177,-3.6 3.6,-3.6c1.98823,0 3.6,1.61177 3.6,3.6c0,1.98823 -1.61177,3.6 -3.6,3.6c-1.98823,0 -3.6,-1.61177 -3.6,-3.6z" fill-opacity="0.6" fill="#75c3ff" stroke="none" stroke-width="1" stroke-linecap="butt"/><path d="M256.8,90c0,-0.66274 0.53726,-1.2 1.2,-1.2c0.66274,0 1.2,0.53726 1.2,1.2c0,0.66274 -0.53726,1.2 -1.2,1.2c-0.66274,0 -1.2,-0.53726 -1.2,-1.2z" fill-opacity="0.8" fill="#75d7ff" stroke="none" stroke-width="1" stroke-linecap="butt"/><path d="M254.4,90c0,-1.98823 1.61177,-3.6 3.6,-3.6c1.98823,0 3.6,1.61177 3.6,3.6c0,1.98823 -1.61177,3.6 -3.6,3.6c-1.98823,0 -3.6,-1.61177 -3.6,-3.6z" fill-opacity="0.6" fill="#75d7ff" stroke="none" stroke-width="1" stroke-linecap="butt"/><path d="M120,246c0,-3.31371 2.68629,-6 6,-6c3.31371,0 6,2.68629 6,6c0,3.31371 -2.68629,6 -6,6c-3.31371,0 -6,-2.68629 -6,-6z" fill-opacity="0.35" fill="#00ff44" stroke="none" stroke-width="1" stroke-linecap="butt"/><path d="M348,126c0,-3.31371 2.68629,-6 6,-6c3.31371,0 6,2.68629 6,6c0,3.31371 -2.68629,6 -6,6c-3.31371,0 -6,-2.68629 -6,-6z" fill-opacity="0.35" fill="#ff0404" stroke="none" stroke-width="1" stroke-linecap="butt"/></g></g></svg>