<svg version="1.1" xmlns="http://www.w3.org/2000/svg" xmlns:xlink="http://www.w3.org/1999/xlink" width="25.44359" height="25.44361" viewBox="0,0,25.44359,25.44361"><defs><radialGradient cx="239.99998" cy="179.99999" r="12.71876" gradientUnits="userSpaceOnUse" id="color-1"><stop offset="0" stop-color="#7e4b8e"/><stop offset="1" stop-color="#7e4b8e" stop-opacity="0"/></radialGradient><radialGradient cx="239.99998" cy="179.99999" r="5.66787" gradientUnits="userSpaceOnUse" id="color-2"><stop offset="0" stop-color="#ff00f7"/><stop offset="1" stop-color="#ff00f7" stop-opacity="0"/></radialGradient><radialGradient cx="239.99998" cy="179.99999" r="4.3213" gradientUnits="userSpaceOnUse" id="color-3"><stop offset="0" stop-color="#b900d2"/><stop offset="1" stop-color="#b900d2" stop-opacity="0"/></radialGradient><radialGradient cx="239.99998" cy="179.99999" r="4.3213" gradientUnits="userSpaceOnUse" id="color-4"><stop offset="0" stop-color="#9f00ab" stop-opacity="0"/><stop offset="1" stop-color="#9f00ab" stop-opacity="0"/></radialGradient></defs><g transform="translate(-227.27821,-167.2782)"><g data-paper-data="{&quot;isPaintingLayer&quot;:true}" fill-rule="nonzero" stroke-width="0" stroke-linecap="butt" stroke-linejoin="miter" stroke-miterlimit="10" stroke-dasharray="" stroke-dashoffset="0" style="mix-blend-mode: normal"><path d="M234.66328,168.45503c6.37613,-2.94735 13.9343,-0.16783 16.88169,6.20829c2.94735,6.37613 0.16783,13.9343 -6.20827,16.88165c-6.37613,2.94735 -13.9343,0.16784 -16.88165,-6.20826c-2.94735,-6.37613 -0.16786,-13.93433 6.20827,-16.88169z" fill="url(#color-1)" stroke="none"/><path d="M234.3321,179.99999c0,-3.13028 2.53762,-5.66787 5.6679,-5.66787c3.13028,0 5.66788,2.53759 5.66788,5.66787c0,3.13028 -2.5376,5.66787 -5.66788,5.66787c-3.13028,0 -5.6679,-2.53759 -5.6679,-5.66787z" fill="url(#color-2)" stroke="none"/><path d="M235.67867,179.99999c0,-2.38657 1.93474,-4.3213 4.32131,-4.3213c2.38657,0 4.3213,1.93473 4.3213,4.3213c0,2.38657 -1.9347,4.32131 -4.3213,4.32131c-2.38657,0 -4.32131,-1.93473 -4.32131,-4.32131z" fill="url(#color-3)" stroke="url(#color-4)"/></g></g></svg>