<svg version="1.1" xmlns="http://www.w3.org/2000/svg" xmlns:xlink="http://www.w3.org/1999/xlink" width="240.75" height="180.75" viewBox="0,0,240.75,180.75"><defs><linearGradient x1="120" y1="90" x2="120" y2="270" gradientUnits="userSpaceOnUse" id="color-1"><stop offset="0" stop-color="#5a950d"/><stop offset="1" stop-color="#203504"/></linearGradient></defs><g transform="translate(-119.625,-89.625)"><g data-paper-data="{&quot;isPaintingLayer&quot;:true}" fill-rule="nonzero" stroke-linejoin="miter" stroke-miterlimit="10" stroke-dasharray="" stroke-dashoffset="0" style="mix-blend-mode: normal"><path d="M120,270v-180h240v180z" fill="url(#color-1)" stroke="none" stroke-width="1" stroke-linecap="butt"/><path d="M120,90h240" fill="#000000" stroke-opacity="0.5" stroke="#ffffff" stroke-width="0.75" stroke-linecap="butt"/><path d="M120,105h240" fill="#000000" stroke-opacity="0.5" stroke="#ffffff" stroke-width="0.75" stroke-linecap="butt"/><path d="M120,120h240" fill="#000000" stroke-opacity="0.5" stroke="#ffffff" stroke-width="0.75" stroke-linecap="butt"/><path d="M120,135h240" fill="#000000" stroke-opacity="0.5" stroke="#ffffff" stroke-width="0.75" stroke-linecap="butt"/><path d="M120,150h240" fill="#000000" stroke-opacity="0.5" stroke="#ffffff" stroke-width="0.75" stroke-linecap="butt"/><path d="M120,165h240" fill="#000000" stroke-opacity="0.5" stroke="#ffffff" stroke-width="0.75" stroke-linecap="butt"/><path d="M120,180h240" fill="#000000" stroke-opacity="0.5" stroke="#ffffff" stroke-width="0.75" stroke-linecap="butt"/><path d="M120,195h240" fill="#000000" stroke-opacity="0.5" stroke="#ffffff" stroke-width="0.75" stroke-linecap="butt"/><path d="M120,210h240" fill="#000000" stroke-opacity="0.5" stroke="#ffffff" stroke-width="0.75" stroke-linecap="butt"/><path d="M120,225h240" fill="#000000" stroke-opacity="0.5" stroke="#ffffff" stroke-width="0.75" stroke-linecap="butt"/><path d="M120,240h240" fill="#000000" stroke-opacity="0.5" stroke="#ffffff" stroke-width="0.75" stroke-linecap="butt"/><path d="M120,255h240" fill="#000000" stroke-opacity="0.5" stroke="#ffffff" stroke-width="0.75" stroke-linecap="butt"/><path d="M120,270h240" fill="#000000" stroke-opacity="0.5" stroke="#ffffff" stroke-width="0.75" stroke-linecap="butt"/><path d="M120,90v180" fill="#000000" stroke-opacity="0.5" stroke="#ffffff" stroke-width="0.75" stroke-linecap="butt"/><path d="M135,90v180" fill="#000000" stroke-opacity="0.5" stroke="#ffffff" stroke-width="0.75" stroke-linecap="butt"/><path d="M150,90v180" fill="#000000" stroke-opacity="0.5" stroke="#ffffff" stroke-width="0.75" stroke-linecap="butt"/><path d="M165,90v180" fill="#000000" stroke-opacity="0.5" stroke="#ffffff" stroke-width="0.75" stroke-linecap="butt"/><path d="M180,90v180" fill="#000000" stroke-opacity="0.5" stroke="#ffffff" stroke-width="0.75" stroke-linecap="butt"/><path d="M195,90v180" fill="#000000" stroke-opacity="0.5" stroke="#ffffff" stroke-width="0.75" stroke-linecap="butt"/><path d="M210,90v180" fill="#000000" stroke-opacity="0.5" stroke="#ffffff" stroke-width="0.75" stroke-linecap="butt"/><path d="M225,90v180" fill="#000000" stroke-opacity="0.5" stroke="#ffffff" stroke-width="0.75" stroke-linecap="butt"/><path d="M240,90v180" fill="#000000" stroke-opacity="0.5" stroke="#ffffff" stroke-width="0.75" stroke-linecap="butt"/><path d="M255,90v180" fill="#000000" stroke-opacity="0.5" stroke="#ffffff" stroke-width="0.75" stroke-linecap="butt"/><path d="M270,90v180" fill="#000000" stroke-opacity="0.5" stroke="#ffffff" stroke-width="0.75" stroke-linecap="butt"/><path d="M285,90v180" fill="#000000" stroke-opacity="0.5" stroke="#ffffff" stroke-width="0.75" stroke-linecap="butt"/><path d="M300,90v180" fill="#000000" stroke-opacity="0.5" stroke="#ffffff" stroke-width="0.75" stroke-linecap="butt"/><path d="M315,90v180" fill="#000000" stroke-opacity="0.5" stroke="#ffffff" stroke-width="0.75" stroke-linecap="butt"/><path d="M330,90v180" fill="#000000" stroke-opacity="0.5" stroke="#ffffff" stroke-width="0.75" stroke-linecap="butt"/><path d="M345,90v180" fill="#000000" stroke-opacity="0.5" stroke="#ffffff" stroke-width="0.75" stroke-linecap="butt"/><path d="M360,90v180" fill="#000000" stroke-opacity="0.5" stroke="#ffffff" stroke-width="0.75" stroke-linecap="butt"/><path d="M142.5,172.5h180" fill="#000000" stroke-opacity="0.5" stroke="#a3ff33" stroke-width="14.25" stroke-linecap="round"/><path d="M142.5,187.5h180" fill="#000000" stroke-opacity="0.5" stroke="#a3ff33" stroke-width="14.25" stroke-linecap="round"/><path d="M202.5,127.5h45" fill="#000000" stroke-opacity="0.5" stroke="#a3ff33" stroke-width="14.25" stroke-linecap="round"/><path d="M202.5,142.5h45" fill="#000000" stroke-opacity="0.5" stroke="#a3ff33" stroke-width="14.25" stroke-linecap="round"/><path d="M292.5,127.5h45" fill="#000000" stroke-opacity="0.5" stroke="#a3ff33" stroke-width="14.25" stroke-linecap="round"/><path d="M292.5,142.5h45" fill="#000000" stroke-opacity="0.5" stroke="#a3ff33" stroke-width="14.25" stroke-linecap="round"/><path d="M157.5,217.5h45" fill="#000000" stroke-opacity="0.5" stroke="#a3ff33" stroke-width="14.25" stroke-linecap="round"/><path d="M157.5,232.5h45" fill="#000000" stroke-opacity="0.5" stroke="#a3ff33" stroke-width="14.25" stroke-linecap="round"/><path d="M247.5,217.5h45" fill="#000000" stroke-opacity="0.5" stroke="#a3ff33" stroke-width="14.25" stroke-linecap="round"/><path d="M247.5,232.5h45" fill="#000000" stroke-opacity="0.5" stroke="#a3ff33" stroke-width="14.25" stroke-linecap="round"/><path d="M142.5,172.5h180" fill="#000000" stroke="#2d456f" stroke-width="9.75" stroke-linecap="round"/><path d="M142.5,187.5h180" fill="#000000" stroke="#2d456f" stroke-width="9.75" stroke-linecap="round"/><path d="M202.5,127.5h45" fill="#000000" stroke="#2d456f" stroke-width="9.75" stroke-linecap="round"/><path d="M202.5,142.5h45" fill="#000000" stroke="#2d456f" stroke-width="9.75" stroke-linecap="round"/><path d="M292.5,127.5h45" fill="#000000" stroke="#2d456f" stroke-width="9.75" stroke-linecap="round"/><path d="M292.5,142.5h45" fill="#000000" stroke="#2d456f" stroke-width="9.75" stroke-linecap="round"/><path d="M157.5,217.5h45" fill="#000000" stroke="#2d456f" stroke-width="9.75" stroke-linecap="round"/><path d="M157.5,232.5h45" fill="#000000" stroke="#2d456f" stroke-width="9.75" stroke-linecap="round"/><path d="M247.5,217.5h45" fill="#000000" stroke="#2d456f" stroke-width="9.75" stroke-linecap="round"/><path d="M247.5,232.5h45" fill="#000000" stroke="#2d456f" stroke-width="9.75" stroke-linecap="round"/><path d="M127.5,210c-4.14214,0 -7.5,-3.35786 -7.5,-7.5v0c0,-4.14214 3.35786,-7.5 7.5,-7.5h15c4.14214,0 7.5,3.35786 7.5,7.5v0c0,4.14214 -3.35786,7.5 -7.5,7.5z" fill="#bcd5e0" stroke="none" stroke-width="1" stroke-linecap="butt"/><path d="M142.5,210c-4.14214,0 -7.5,-3.35786 -7.5,-7.5v-45c0,-4.14214 3.35786,-7.5 7.5,-7.5v0c4.14214,0 7.5,3.35786 7.5,7.5v45c0,4.14214 -3.35786,7.5 -7.5,7.5z" fill="#bcd5e0" stroke="none" stroke-width="1" stroke-linecap="butt"/><path d="M142.5,165c-4.14214,0 -7.5,-3.35786 -7.5,-7.5v0c0,-4.14214 3.35786,-7.5 7.5,-7.5h45c4.14214,0 7.5,3.35786 7.5,7.5v0c0,4.14214 -3.35786,7.5 -7.5,7.5z" fill="#bcd5e0" stroke="none" stroke-width="1" stroke-linecap="butt"/><path d="M187.5,210c-4.14214,0 -7.5,-3.35786 -7.5,-7.5v-45c0,-4.14214 3.35786,-7.5 7.5,-7.5v0c4.14214,0 7.5,3.35786 7.5,7.5v45c0,4.14214 -3.35786,7.5 -7.5,7.5z" fill="#bcd5e0" stroke="none" stroke-width="1" stroke-linecap="butt"/><path d="M157.5,210c-4.14214,0 -7.5,-3.35786 -7.5,-7.5v0c0,-4.14214 3.35786,-7.5 7.5,-7.5h30c4.14214,0 7.5,3.35786 7.5,7.5v0c0,4.14214 -3.35786,7.5 -7.5,7.5z" fill="#bcd5e0" stroke="none" stroke-width="1" stroke-linecap="butt"/><path d="M157.5,255c-4.14214,0 -7.5,-3.35786 -7.5,-7.5v-45c0,-4.14214 3.35786,-7.5 7.5,-7.5v0c4.14214,0 7.5,3.35786 7.5,7.5v45c0,4.14214 -3.35786,7.5 -7.5,7.5z" fill="#bcd5e0" stroke="none" stroke-width="1" stroke-linecap="butt"/><path d="M157.5,255c-4.14214,0 -7.5,-3.35786 -7.5,-7.5v0c0,-4.14214 3.35786,-7.5 7.5,-7.5h45c4.14214,0 7.5,3.35786 7.5,7.5v0c0,4.14214 -3.35786,7.5 -7.5,7.5z" fill="#bcd5e0" stroke="none" stroke-width="1" stroke-linecap="butt"/><path d="M202.5,255c-4.14214,0 -7.5,-3.35786 -7.5,-7.5v-45c0,-4.14214 3.35786,-7.5 7.5,-7.5v0c4.14214,0 7.5,3.35786 7.5,7.5v45c0,4.14214 -3.35786,7.5 -7.5,7.5z" fill="#bcd5e0" stroke="none" stroke-width="1" stroke-linecap="butt"/><path d="M202.5,210c-4.14214,0 -7.5,-3.35786 -7.5,-7.5v0c0,-4.14214 3.35786,-7.5 7.5,-7.5h30c4.14214,0 7.5,3.35786 7.5,7.5v0c0,4.14214 -3.35786,7.5 -7.5,7.5z" fill="#bcd5e0" stroke="none" stroke-width="1" stroke-linecap="butt"/><path d="M232.5,210c-4.14214,0 -7.5,-3.35786 -7.5,-7.5v-45c0,-4.14214 3.35786,-7.5 7.5,-7.5v0c4.14214,0 7.5,3.35786 7.5,7.5v45c0,4.14214 -3.35786,7.5 -7.5,7.5z" fill="#bcd5e0" stroke="none" stroke-width="1" stroke-linecap="butt"/><path d="M202.5,165c-4.14214,0 -7.5,-3.35786 -7.5,-7.5v0c0,-4.14214 3.35786,-7.5 7.5,-7.5h30c4.14214,0 7.5,3.35786 7.5,7.5v0c0,4.14214 -3.35786,7.5 -7.5,7.5z" fill="#bcd5e0" stroke="none" stroke-width="1" stroke-linecap="butt"/><path d="M202.5,165c-4.14214,0 -7.5,-3.35786 -7.5,-7.5v-45c0,-4.14214 3.35786,-7.5 7.5,-7.5v0c4.14214,0 7.5,3.35786 7.5,7.5v45c0,4.14214 -3.35786,7.5 -7.5,7.5z" fill="#bcd5e0" stroke="none" stroke-width="1" stroke-linecap="butt"/><path d="M202.5,120c-4.14214,0 -7.5,-3.35786 -7.5,-7.5v0c0,-4.14214 3.35786,-7.5 7.5,-7.5h45c4.14214,0 7.5,3.35786 7.5,7.5v0c0,4.14214 -3.35786,7.5 -7.5,7.5z" fill="#bcd5e0" stroke="none" stroke-width="1" stroke-linecap="butt"/><path d="M247.5,165c-4.14214,0 -7.5,-3.35786 -7.5,-7.5v-45c0,-4.14214 3.35786,-7.5 7.5,-7.5v0c4.14214,0 7.5,3.35786 7.5,7.5v45c0,4.14214 -3.35786,7.5 -7.5,7.5z" fill="#bcd5e0" stroke="none" stroke-width="1" stroke-linecap="butt"/><path d="M247.5,165c-4.14214,0 -7.5,-3.35786 -7.5,-7.5v0c0,-4.14214 3.35786,-7.5 7.5,-7.5h30c4.14214,0 7.5,3.35786 7.5,7.5v0c0,4.14214 -3.35786,7.5 -7.5,7.5z" fill="#bcd5e0" stroke="none" stroke-width="1" stroke-linecap="butt"/><path d="M277.5,210c-4.14214,0 -7.5,-3.35786 -7.5,-7.5v-45c0,-4.14214 3.35786,-7.5 7.5,-7.5v0c4.14214,0 7.5,3.35786 7.5,7.5v45c0,4.14214 -3.35786,7.5 -7.5,7.5z" fill="#bcd5e0" stroke="none" stroke-width="1" stroke-linecap="butt"/><path d="M247.5,210c-4.14214,0 -7.5,-3.35786 -7.5,-7.5v0c0,-4.14214 3.35786,-7.5 7.5,-7.5h30c4.14214,0 7.5,3.35786 7.5,7.5v0c0,4.14214 -3.35786,7.5 -7.5,7.5z" fill="#bcd5e0" stroke="none" stroke-width="1" stroke-linecap="butt"/><path d="M247.5,255c-4.14214,0 -7.5,-3.35786 -7.5,-7.5v-45c0,-4.14214 3.35786,-7.5 7.5,-7.5v0c4.14214,0 7.5,3.35786 7.5,7.5v45c0,4.14214 -3.35786,7.5 -7.5,7.5z" fill="#bcd5e0" stroke="none" stroke-width="1" stroke-linecap="butt"/><path d="M247.5,255c-4.14214,0 -7.5,-3.35786 -7.5,-7.5v0c0,-4.14214 3.35786,-7.5 7.5,-7.5h45c4.14214,0 7.5,3.35786 7.5,7.5v0c0,4.14214 -3.35786,7.5 -7.5,7.5z" fill="#bcd5e0" stroke="none" stroke-width="1" stroke-linecap="butt"/><path d="M292.5,255c-4.14214,0 -7.5,-3.35786 -7.5,-7.5v-45c0,-4.14214 3.35786,-7.5 7.5,-7.5v0c4.14214,0 7.5,3.35786 7.5,7.5v45c0,4.14214 -3.35786,7.5 -7.5,7.5z" fill="#bcd5e0" stroke="none" stroke-width="1" stroke-linecap="butt"/><path d="M292.5,210c-4.14214,0 -7.5,-3.35786 -7.5,-7.5v0c0,-4.14214 3.35786,-7.5 7.5,-7.5h30c4.14214,0 7.5,3.35786 7.5,7.5v0c0,4.14214 -3.35786,7.5 -7.5,7.5z" fill="#bcd5e0" stroke="none" stroke-width="1" stroke-linecap="butt"/><path d="M322.5,210c-4.14214,0 -7.5,-3.35786 -7.5,-7.5v-45c0,-4.14214 3.35786,-7.5 7.5,-7.5v0c4.14214,0 7.5,3.35786 7.5,7.5v45c0,4.14214 -3.35786,7.5 -7.5,7.5z" fill="#bcd5e0" stroke="none" stroke-width="1" stroke-linecap="butt"/><path d="M292.5,165c-4.14214,0 -7.5,-3.35786 -7.5,-7.5v0c0,-4.14214 3.35786,-7.5 7.5,-7.5h30c4.14214,0 7.5,3.35786 7.5,7.5v0c0,4.14214 -3.35786,7.5 -7.5,7.5z" fill="#bcd5e0" stroke="none" stroke-width="1" stroke-linecap="butt"/><path d="M292.5,165c-4.14214,0 -7.5,-3.35786 -7.5,-7.5v-45c0,-4.14214 3.35786,-7.5 7.5,-7.5v0c4.14214,0 7.5,3.35786 7.5,7.5v45c0,4.14214 -3.35786,7.5 -7.5,7.5z" fill="#bcd5e0" stroke="none" stroke-width="1" stroke-linecap="butt"/><path d="M292.5,120c-4.14214,0 -7.5,-3.35786 -7.5,-7.5v0c0,-4.14214 3.35786,-7.5 7.5,-7.5h45c4.14214,0 7.5,3.35786 7.5,7.5v0c0,4.14214 -3.35786,7.5 -7.5,7.5z" fill="#bcd5e0" stroke="none" stroke-width="1" stroke-linecap="butt"/><path d="M337.5,165c-4.14214,0 -7.5,-3.35786 -7.5,-7.5v-45c0,-4.14214 3.35786,-7.5 7.5,-7.5v0c4.14214,0 7.5,3.35786 7.5,7.5v45c0,4.14214 -3.35786,7.5 -7.5,7.5z" fill="#bcd5e0" stroke="none" stroke-width="1" stroke-linecap="butt"/><path d="M337.5,165c-4.14214,0 -7.5,-3.35786 -7.5,-7.5v0c0,-4.14214 3.35786,-7.5 7.5,-7.5h15c4.14214,0 7.5,3.35786 7.5,7.5v0c0,4.14214 -3.35786,7.5 -7.5,7.5z" fill="#bcd5e0" stroke="none" stroke-width="1" stroke-linecap="butt"/><path d="M127.5,202.5h15" fill="#000000" stroke="#213a34" stroke-width="11.25" stroke-linecap="round"/><path d="M142.5,202.5v-45" fill="#000000" stroke="#213a34" stroke-width="11.25" stroke-linecap="round"/><path d="M142.5,157.5h45" fill="#000000" stroke="#213a34" stroke-width="11.25" stroke-linecap="round"/><path d="M187.5,157.5v45" fill="#000000" stroke="#213a34" stroke-width="11.25" stroke-linecap="round"/><path d="M187.5,202.5h-30" fill="#000000" stroke="#213a34" stroke-width="11.25" stroke-linecap="round"/><path d="M157.5,202.5v45" fill="#000000" stroke="#213a34" stroke-width="11.25" stroke-linecap="round"/><path d="M157.5,247.5h45" fill="#000000" stroke="#213a34" stroke-width="11.25" stroke-linecap="round"/><path d="M202.5,247.5v-45" fill="#000000" stroke="#213a34" stroke-width="11.25" stroke-linecap="round"/><path d="M202.5,202.5h30" fill="#000000" stroke="#213a34" stroke-width="11.25" stroke-linecap="round"/><path d="M232.5,202.5v-45" fill="#000000" stroke="#213a34" stroke-width="11.25" stroke-linecap="round"/><path d="M232.5,157.5h-30" fill="#000000" stroke="#213a34" stroke-width="11.25" stroke-linecap="round"/><path d="M202.5,157.5v-45" fill="#000000" stroke="#213a34" stroke-width="11.25" stroke-linecap="round"/><path d="M202.5,112.5h45" fill="#000000" stroke="#213a34" stroke-width="11.25" stroke-linecap="round"/><path d="M247.5,112.5v45" fill="#000000" stroke="#213a34" stroke-width="11.25" stroke-linecap="round"/><path d="M247.5,157.5h30" fill="#000000" stroke="#213a34" stroke-width="11.25" stroke-linecap="round"/><path d="M277.5,157.5v45" fill="#000000" stroke="#213a34" stroke-width="11.25" stroke-linecap="round"/><path d="M277.5,202.5h-30" fill="#000000" stroke="#213a34" stroke-width="11.25" stroke-linecap="round"/><path d="M247.5,202.5v45" fill="#000000" stroke="#213a34" stroke-width="11.25" stroke-linecap="round"/><path d="M247.5,247.5h45" fill="#000000" stroke="#213a34" stroke-width="11.25" stroke-linecap="round"/><path d="M292.5,247.5v-45" fill="#000000" stroke="#213a34" stroke-width="11.25" stroke-linecap="round"/><path d="M292.5,202.5h30" fill="#000000" stroke="#213a34" stroke-width="11.25" stroke-linecap="round"/><path d="M322.5,202.5v-45" fill="#000000" stroke="#213a34" stroke-width="11.25" stroke-linecap="round"/><path d="M322.5,157.5h-30" fill="#000000" stroke="#213a34" stroke-width="11.25" stroke-linecap="round"/><path d="M292.5,157.5v-45" fill="#000000" stroke="#213a34" stroke-width="11.25" stroke-linecap="round"/><path d="M292.5,112.5h45" fill="#000000" stroke="#213a34" stroke-width="11.25" stroke-linecap="round"/><path d="M337.5,112.5v45" fill="#000000" stroke="#213a34" stroke-width="11.25" stroke-linecap="round"/><path d="M337.5,157.5h15" fill="#000000" stroke="#213a34" stroke-width="11.25" stroke-linecap="round"/><path d="M127.5,180c0,-20.71068 16.78932,-37.5 37.5,-37.5c20.71068,0 37.5,16.78932 37.5,37.5c0,20.71068 -16.78932,37.5 -37.5,37.5c-20.71068,0 -37.5,-16.78932 -37.5,-37.5z" fill-opacity="0.3" fill="#ff7dfb" stroke-opacity="0.6" stroke="#ff7dfb" stroke-width="1.875" stroke-linecap="butt"/><path d="M217.5,180c0,-20.71068 16.78932,-37.5 37.5,-37.5c20.71068,0 37.5,16.78932 37.5,37.5c0,20.71068 -16.78932,37.5 -37.5,37.5c-20.71068,0 -37.5,-16.78932 -37.5,-37.5z" fill-opacity="0.3" fill="#ff7dfb" stroke-opacity="0.6" stroke="#ff7dfb" stroke-width="1.875" stroke-linecap="butt"/><path d="M187.5,135c0,-20.71068 16.78932,-37.5 37.5,-37.5c20.71068,0 37.5,16.78932 37.5,37.5c0,20.71068 -16.78932,37.5 -37.5,37.5c-20.71068,0 -37.5,-16.78932 -37.5,-37.5z" fill-opacity="0.3" fill="#bbfff4" stroke-opacity="0.6" stroke="#bbfff4" stroke-width="1.875" stroke-linecap="butt"/><path d="M277.5,135c0,-20.71068 16.78932,-37.5 37.5,-37.5c20.71068,0 37.5,16.78932 37.5,37.5c0,20.71068 -16.78932,37.5 -37.5,37.5c-20.71068,0 -37.5,-16.78932 -37.5,-37.5z" fill-opacity="0.3" fill="#bbfff4" stroke-opacity="0.6" stroke="#bbfff4" stroke-width="1.875" stroke-linecap="butt"/><path d="M142.5,225c0,-20.71068 16.78932,-37.5 37.5,-37.5c20.71068,0 37.5,16.78932 37.5,37.5c0,20.71068 -16.78932,37.5 -37.5,37.5c-20.71068,0 -37.5,-16.78932 -37.5,-37.5z" fill-opacity="0.3" fill="#bbfff4" stroke-opacity="0.6" stroke="#bbfff4" stroke-width="1.875" stroke-linecap="butt"/><path d="M232.5,225c0,-20.71068 16.78932,-37.5 37.5,-37.5c20.71068,0 37.5,16.78932 37.5,37.5c0,20.71068 -16.78932,37.5 -37.5,37.5c-20.71068,0 -37.5,-16.78932 -37.5,-37.5z" fill-opacity="0.3" fill="#bbfff4" stroke-opacity="0.6" stroke="#bbfff4" stroke-width="1.875" stroke-linecap="butt"/><path d="M120,202.5c0,-4.14214 3.35786,-7.5 7.5,-7.5c4.14214,0 7.5,3.35786 7.5,7.5c0,4.14214 -3.35786,7.5 -7.5,7.5c-4.14214,0 -7.5,-3.35786 -7.5,-7.5z" fill-opacity="0.35" fill="#00ff44" stroke="none" stroke-width="1" stroke-linecap="butt"/><path d="M345,157.5c0,-4.14214 3.35786,-7.5 7.5,-7.5c4.14214,0 7.5,3.35786 7.5,7.5c0,4.14214 -3.35786,7.5 -7.5,7.5c-4.14214,0 -7.5,-3.35786 -7.5,-7.5z" fill-opacity="0.35" fill="#ff0404" stroke="none" stroke-width="1" stroke-linecap="butt"/></g></g></svg>