<svg version="1.1" xmlns="http://www.w3.org/2000/svg" xmlns:xlink="http://www.w3.org/1999/xlink" width="62.36325" height="29.68929" viewBox="0,0,62.36325,29.68929"><defs><linearGradient x1="270.75199" y1="151.67344" x2="270.75199" y2="179.86273" gradientUnits="userSpaceOnUse" id="color-1"><stop offset="0" stop-color="#455c8f"/><stop offset="1" stop-color="#003758"/></linearGradient><linearGradient x1="270.78229" y1="171.30076" x2="270.78229" y2="179.27941" gradientUnits="userSpaceOnUse" id="color-2"><stop offset="0" stop-color="#0b1228"/><stop offset="1" stop-color="#0b1228" stop-opacity="0"/></linearGradient><linearGradient x1="254.69236" y1="171.05719" x2="254.69236" y2="176.13412" gradientUnits="userSpaceOnUse" id="color-3"><stop offset="0" stop-color="#006f88"/><stop offset="1" stop-color="#06afd5"/></linearGradient><radialGradient cx="254.66999" cy="163.87557" r="9.41666" gradientUnits="userSpaceOnUse" id="color-4"><stop offset="0" stop-color="#9ee7ff"/><stop offset="1" stop-color="#34fff5"/></radialGradient><linearGradient x1="274.7093" y1="167.06298" x2="289.00505" y2="168.38939" gradientUnits="userSpaceOnUse" id="color-5"><stop offset="0" stop-color="#02fff3" stop-opacity="0"/><stop offset="1" stop-color="#02fff3"/></linearGradient><radialGradient cx="288.31832" cy="168.81513" r="2.41667" gradientUnits="userSpaceOnUse" id="color-6"><stop offset="0" stop-color="#00bfff"/><stop offset="1" stop-color="#33f6ff"/></radialGradient></defs><g transform="translate(-239.5704,-150.92344)"><g data-paper-data="{&quot;isPaintingLayer&quot;:true}" fill-rule="nonzero" stroke-linejoin="miter" stroke-miterlimit="10" stroke-dasharray="" stroke-dashoffset="0" style="mix-blend-mode: normal"><path d="M240.3204,179.86273v-28.18929h60.86325v28.18929z" fill="url(#color-1)" stroke="#166f73" stroke-width="1.5" stroke-linecap="butt"/><g><path d="M241.09529,171.15407h59.38095" fill="none" stroke-opacity="0.70968" stroke="#ffffff" stroke-width="0.5" stroke-linecap="round"/><path d="M240.89862,179.27941v-7.97865h59.76739v7.97865z" data-paper-data="{&quot;index&quot;:null}" fill="url(#color-2)" stroke="none" stroke-width="0" stroke-linecap="butt"/></g><path d="M259.30773,171.2495l3.96154,3.96154c0,0 -3.33882,1.95654 -8.37912,1.70879c-4.81847,0.25712 -8.77472,-1.70879 -8.77472,-1.70879l4.23077,-4.15385z" fill="url(#color-3)" stroke="none" stroke-width="0" stroke-linecap="round"/><path d="M245.25332,163.87557c0,-5.20068 4.21599,-9.41666 9.41667,-9.41666c5.20068,0 9.41666,4.21598 9.41666,9.41666c0,5.20068 -4.21598,9.41666 -9.41666,9.41666c-5.20068,0 -9.41667,-4.21598 -9.41667,-9.41666z" fill="url(#color-4)" stroke="none" stroke-width="0" stroke-linecap="butt"/><path d="M258.45309,166.23573c0,0 -0.57027,-1.14756 -0.50838,-1.65159c0.06309,-0.51378 0.88343,-1.40239 0.88343,-1.40239l16.94959,2.08152c0,0 0.50097,1.16242 0.44075,1.65273c-0.0645,0.52527 -0.81581,1.40125 -0.81581,1.40125z" fill="#00b2da" stroke="none" stroke-width="0" stroke-linecap="butt"/><path d="M287.89689,171.05127l-14.35837,-4.60008c0,0 13.05881,0.03019 14.27862,0.04729c0.19019,0.00267 0.07975,4.55279 0.07975,4.55279z" fill="url(#color-5)" stroke="none" stroke-width="0" stroke-linecap="round"/><path d="M285.90166,168.81513c0,-1.33469 1.08198,-2.41666 2.41666,-2.41666c1.33468,0 2.41667,1.08198 2.41667,2.41666c0,1.33469 -1.08198,2.41666 -2.41667,2.41666c-1.33468,0 -2.41666,-1.08198 -2.41666,-2.41666z" fill="url(#color-6)" stroke="none" stroke-width="0" stroke-linecap="butt"/><text transform="translate(295.45624,160.49343) scale(0.20671,0.20671)" font-size="40" xml:space="preserve" fill="#ffffff" fill-rule="nonzero" stroke="none" stroke-width="1" stroke-linecap="butt" stroke-linejoin="miter" stroke-miterlimit="10" stroke-dasharray="" stroke-dashoffset="0" font-family="Sans Serif" font-weight="normal" text-anchor="start" style="mix-blend-mode: normal"><tspan x="0" dy="0">1</tspan></text></g></g></svg>