<svg version="1.1" xmlns="http://www.w3.org/2000/svg" xmlns:xlink="http://www.w3.org/1999/xlink" width="62.36325" height="29.68929" viewBox="0,0,62.36325,29.68929"><defs><linearGradient x1="270.75199" y1="151.73594" x2="270.75199" y2="179.92523" gradientUnits="userSpaceOnUse" id="color-1"><stop offset="0" stop-color="#455c8f"/><stop offset="1" stop-color="#003758"/></linearGradient><linearGradient x1="270.78229" y1="171.30076" x2="270.78229" y2="179.27941" gradientUnits="userSpaceOnUse" id="color-2"><stop offset="0" stop-color="#0b1228"/><stop offset="1" stop-color="#0b1228" stop-opacity="0"/></linearGradient><radialGradient cx="277.69435" cy="168.89747" r="4.41655" gradientUnits="userSpaceOnUse" id="color-3"><stop offset="0" stop-color="#c4e3ff"/><stop offset="1" stop-color="#c4e3ff" stop-opacity="0"/></radialGradient><radialGradient cx="277.69435" cy="168.89747" r="1.96815" gradientUnits="userSpaceOnUse" id="color-4"><stop offset="0" stop-color="#ffff9c"/><stop offset="1" stop-color="#ffff9c" stop-opacity="0"/></radialGradient><radialGradient cx="277.69435" cy="168.89747" r="1.50056" gradientUnits="userSpaceOnUse" id="color-5"><stop offset="0" stop-color="#ffffff"/><stop offset="1" stop-color="#ffffff" stop-opacity="0"/></radialGradient><radialGradient cx="277.69435" cy="168.89747" r="1.50056" gradientUnits="userSpaceOnUse" id="color-6"><stop offset="0" stop-color="#ffffff"/><stop offset="1" stop-color="#ffffff" stop-opacity="0"/></radialGradient><radialGradient cx="286.89971" cy="165.39747" r="4.41655" gradientUnits="userSpaceOnUse" id="color-7"><stop offset="0" stop-color="#c4e3ff"/><stop offset="1" stop-color="#c4e3ff" stop-opacity="0"/></radialGradient><radialGradient cx="286.89971" cy="165.39747" r="1.96815" gradientUnits="userSpaceOnUse" id="color-8"><stop offset="0" stop-color="#ffff9c"/><stop offset="1" stop-color="#ffff9c" stop-opacity="0"/></radialGradient><radialGradient cx="286.89971" cy="165.39747" r="1.50056" gradientUnits="userSpaceOnUse" id="color-9"><stop offset="0" stop-color="#ffffff"/><stop offset="1" stop-color="#ffffff" stop-opacity="0"/></radialGradient><radialGradient cx="286.89971" cy="165.39747" r="1.50056" gradientUnits="userSpaceOnUse" id="color-10"><stop offset="0" stop-color="#ffffff"/><stop offset="1" stop-color="#ffffff" stop-opacity="0"/></radialGradient><radialGradient cx="294.77471" cy="169.77247" r="4.41655" gradientUnits="userSpaceOnUse" id="color-11"><stop offset="0" stop-color="#c4e3ff"/><stop offset="1" stop-color="#c4e3ff" stop-opacity="0"/></radialGradient><radialGradient cx="294.77471" cy="169.77247" r="1.96815" gradientUnits="userSpaceOnUse" id="color-12"><stop offset="0" stop-color="#ffff9c"/><stop offset="1" stop-color="#ffff9c" stop-opacity="0"/></radialGradient><radialGradient cx="294.77471" cy="169.77247" r="1.50056" gradientUnits="userSpaceOnUse" id="color-13"><stop offset="0" stop-color="#ffffff"/><stop offset="1" stop-color="#ffffff" stop-opacity="0"/></radialGradient><radialGradient cx="294.77471" cy="169.77247" r="1.50056" gradientUnits="userSpaceOnUse" id="color-14"><stop offset="0" stop-color="#ffffff"/><stop offset="1" stop-color="#ffffff" stop-opacity="0"/></radialGradient></defs><g transform="translate(-239.5704,-150.98594)"><g data-paper-data="{&quot;isPaintingLayer&quot;:true}" fill-rule="nonzero" stroke-linejoin="miter" stroke-miterlimit="10" stroke-dasharray="" stroke-dashoffset="0" style="mix-blend-mode: normal"><path d="M240.3204,179.92523v-28.18929h60.86325v28.18929z" fill="url(#color-1)" stroke="#c0bb92" stroke-width="1.5" stroke-linecap="butt"/><g><path d="M241.09529,171.15407h59.38095" fill="none" stroke-opacity="0.70968" stroke="#ffffff" stroke-width="0.5" stroke-linecap="round"/><path d="M240.89862,179.27941v-7.97865h59.76739v7.97865z" data-paper-data="{&quot;index&quot;:null}" fill="url(#color-2)" stroke="none" stroke-width="0" stroke-linecap="butt"/></g><text transform="translate(294.83124,160.49343) scale(0.20671,0.20671)" font-size="40" xml:space="preserve" fill="#ffffff" fill-rule="nonzero" stroke="none" stroke-width="1" stroke-linecap="butt" stroke-linejoin="miter" stroke-miterlimit="10" stroke-dasharray="" stroke-dashoffset="0" font-family="Sans Serif" font-weight="normal" text-anchor="start" style="mix-blend-mode: normal"><tspan x="0" dy="0">7</tspan></text><g stroke-linecap="butt"><path d="M275.84121,164.88852c2.21409,-1.02347 4.83864,-0.05828 5.86211,2.15581c1.02347,2.21409 0.05828,4.83864 -2.1558,5.8621c-2.21409,1.02347 -4.83864,0.05828 -5.8621,-2.1558c-1.02347,-2.21409 -0.05829,-4.83864 2.1558,-5.86211z" fill="url(#color-3)" stroke="none" stroke-width="0"/><path d="M275.72621,168.89747c0,-1.08698 0.88118,-1.96815 1.96815,-1.96815c1.08698,0 1.96815,0.88117 1.96815,1.96815c0,1.08698 -0.88117,1.96815 -1.96815,1.96815c-1.08698,0 -1.96815,-0.88117 -1.96815,-1.96815z" fill="url(#color-4)" stroke="none" stroke-width="0"/><path d="M276.1938,168.89747c0,-0.82874 0.67183,-1.50056 1.50056,-1.50056c0.82874,0 1.50056,0.67183 1.50056,1.50056c0,0.82874 -0.67182,1.50056 -1.50056,1.50056c-0.82874,0 -1.50056,-0.67182 -1.50056,-1.50056z" fill="url(#color-5)" stroke="url(#color-6)" stroke-width="4.5"/></g><g stroke-linecap="butt"><path d="M285.04656,161.38852c2.21409,-1.02346 4.83864,-0.05828 5.86211,2.15581c1.02346,2.21409 0.05828,4.83864 -2.1558,5.8621c-2.21409,1.02346 -4.83864,0.05828 -5.8621,-2.1558c-1.02346,-2.21409 -0.05829,-4.83865 2.1558,-5.86211z" fill="url(#color-7)" stroke="none" stroke-width="0"/><path d="M284.93156,165.39747c0,-1.08698 0.88118,-1.96815 1.96816,-1.96815c1.08698,0 1.96815,0.88117 1.96815,1.96815c0,1.08698 -0.88117,1.96815 -1.96815,1.96815c-1.08698,0 -1.96816,-0.88117 -1.96816,-1.96815z" fill="url(#color-8)" stroke="none" stroke-width="0"/><path d="M285.39915,165.39747c0,-0.82873 0.67183,-1.50056 1.50056,-1.50056c0.82873,0 1.50056,0.67183 1.50056,1.50056c0,0.82873 -0.67182,1.50056 -1.50056,1.50056c-0.82873,0 -1.50056,-0.67183 -1.50056,-1.50056z" fill="url(#color-9)" stroke="url(#color-10)" stroke-width="4.5"/></g><path d="M241.63107,164.87418c0,-5.80275 5.3052,-10.5068 11.8495,-10.5068c6.5443,0 11.84951,4.70405 11.84951,10.5068c0,5.80275 -5.30521,10.5068 -11.84951,10.5068c-6.5443,0 -11.8495,-4.70405 -11.8495,-10.5068z" fill-opacity="0.20537" fill="#ffffff" stroke="none" stroke-width="2.5108" stroke-linecap="butt"/><path d="M251.04016,164.33727c0,-5.78179 5.23845,-10.46885 11.70039,-10.46885c6.46195,0 11.70039,4.68706 11.70039,10.46885c0,5.78179 -5.23845,10.46885 -11.70039,10.46885c-6.46195,0 -11.70039,-4.68706 -11.70039,-10.46885z" fill-opacity="0.20537" fill="#ffffff" stroke="none" stroke-width="2.49495" stroke-linecap="butt"/><path d="M247.95895,167.70857c0,-5.94946 5.70578,-10.77246 12.74422,-10.77246c7.03843,0 12.74421,4.82299 12.74421,10.77246c0,5.94946 -5.70578,10.77246 -12.74421,10.77246c-7.03843,0 -12.74422,-4.823 -12.74422,-10.77246z" fill-opacity="0.20537" fill="#ffffff" stroke="none" stroke-width="2.60386" stroke-linecap="butt"/><path d="M247.66361,166.72757c0,-3.09253 2.61451,-5.59955 5.83968,-5.59955c3.22517,0 5.83968,2.507 5.83968,5.59955c0,3.09253 -2.61451,5.59955 -5.83968,5.59955c-3.22517,0 -5.83967,-2.50701 -5.83967,-5.59955z" fill-opacity="0.67179" fill="#ffffbb" stroke="none" stroke-width="1.49236" stroke-linecap="butt"/><path d="M256.99025,164.98993c0,-3.0987 2.61973,-5.61071 5.85133,-5.61071c3.2316,0 5.85134,2.512 5.85134,5.61071c0,3.0987 -2.61973,5.61073 -5.85134,5.61073c-3.2316,0 -5.85133,-2.512 -5.85133,-5.61073z" fill-opacity="0.67179" fill="#ffffbb" stroke="none" stroke-width="1.49236" stroke-linecap="butt"/><path d="M254.44857,168.67497c0,-3.51804 2.93444,-6.36998 6.55425,-6.36998c3.61982,0 6.55424,2.85194 6.55424,6.36998c0,3.51804 -2.93444,6.36998 -6.55424,6.36998c-3.61982,0 -6.55425,-2.85193 -6.55425,-6.36998z" fill-opacity="0.67179" fill="#ffffbb" stroke="none" stroke-width="1.58621" stroke-linecap="butt"/><g stroke-linecap="butt"><path d="M292.92156,165.76352c2.21409,-1.02346 4.83864,-0.05828 5.86211,2.15581c1.02346,2.21409 0.05828,4.83864 -2.1558,5.8621c-2.21409,1.02346 -4.83864,0.05828 -5.8621,-2.1558c-1.02346,-2.21409 -0.05829,-4.83865 2.1558,-5.86211z" fill="url(#color-11)" stroke="none" stroke-width="0"/><path d="M292.80656,169.77247c0,-1.08698 0.88118,-1.96815 1.96816,-1.96815c1.08698,0 1.96815,0.88117 1.96815,1.96815c0,1.08698 -0.88117,1.96815 -1.96815,1.96815c-1.08698,0 -1.96816,-0.88117 -1.96816,-1.96815z" fill="url(#color-12)" stroke="none" stroke-width="0"/><path d="M293.27415,169.77247c0,-0.82873 0.67183,-1.50056 1.50056,-1.50056c0.82873,0 1.50056,0.67183 1.50056,1.50056c0,0.82873 -0.67182,1.50056 -1.50056,1.50056c-0.82873,0 -1.50056,-0.67183 -1.50056,-1.50056z" fill="url(#color-13)" stroke="url(#color-14)" stroke-width="4.5"/></g></g></g></svg>