<svg version="1.1" xmlns="http://www.w3.org/2000/svg" xmlns:xlink="http://www.w3.org/1999/xlink" width="62.36325" height="60.41356" viewBox="0,0,62.36325,60.41356"><defs><linearGradient x1="270.89485" y1="121.10215" x2="270.89485" y2="179.86284" gradientUnits="userSpaceOnUse" id="color-1"><stop offset="0" stop-color="#455f06"/><stop offset="1" stop-color="#233103"/></linearGradient><linearGradient x1="270.892" y1="167.57146" x2="270.892" y2="180.14298" gradientUnits="userSpaceOnUse" id="color-2"><stop offset="0" stop-color="#6b8d06"/><stop offset="1" stop-color="#324203"/></linearGradient><radialGradient cx="250.84957" cy="140.36103" r="2.87648" gradientUnits="userSpaceOnUse" id="color-3"><stop offset="0" stop-color="#eafffb"/><stop offset="1" stop-color="#eafffb" stop-opacity="0"/></radialGradient><linearGradient x1="270.93101" y1="141.7192" x2="270.93101" y2="167.50705" gradientUnits="userSpaceOnUse" id="color-4"><stop offset="0" stop-color="#00ebe0" stop-opacity="0.29839"/><stop offset="1" stop-color="#00c8ea"/></linearGradient><radialGradient cx="259.38934" cy="150.47773" r="10.75" gradientUnits="userSpaceOnUse" id="color-5"><stop offset="0" stop-color="#00ffce"/><stop offset="1" stop-color="#00ffce" stop-opacity="0"/></radialGradient><radialGradient cx="270.01434" cy="159.75585" r="12.125" gradientUnits="userSpaceOnUse" id="color-6"><stop offset="0" stop-color="#00ffce"/><stop offset="1" stop-color="#00ffce" stop-opacity="0"/></radialGradient><radialGradient cx="274.76434" cy="148.67513" r="11.95833" gradientUnits="userSpaceOnUse" id="color-7"><stop offset="0" stop-color="#00ffce"/><stop offset="1" stop-color="#00ffce" stop-opacity="0"/></radialGradient><radialGradient cx="290.22267" cy="149.52341" r="7.25" gradientUnits="userSpaceOnUse" id="color-8"><stop offset="0" stop-color="#00ffce"/><stop offset="1" stop-color="#00ffce" stop-opacity="0"/></radialGradient><radialGradient cx="287.93101" cy="161.9826" r="9.625" gradientUnits="userSpaceOnUse" id="color-9"><stop offset="0" stop-color="#00ffce"/><stop offset="1" stop-color="#00ffce" stop-opacity="0"/></radialGradient><radialGradient cx="249.43101" cy="160.76318" r="7.95833" gradientUnits="userSpaceOnUse" id="color-10"><stop offset="0" stop-color="#00ffce"/><stop offset="1" stop-color="#00ffce" stop-opacity="0"/></radialGradient><radialGradient cx="246.84767" cy="147.6678" r="5.54166" gradientUnits="userSpaceOnUse" id="color-11"><stop offset="0" stop-color="#00ffce"/><stop offset="1" stop-color="#00ffce" stop-opacity="0"/></radialGradient><radialGradient cx="296.93101" cy="158.16532" r="7.16666" gradientUnits="userSpaceOnUse" id="color-12"><stop offset="0" stop-color="#00ffce"/><stop offset="1" stop-color="#00ffce" stop-opacity="0"/></radialGradient><radialGradient cx="264.59746" cy="137.88507" r="10.49069" gradientUnits="userSpaceOnUse" id="color-13"><stop offset="0" stop-color="#eafffb"/><stop offset="1" stop-color="#eafffb" stop-opacity="0"/></radialGradient><radialGradient cx="248.77681" cy="139.8766" r="11.20981" gradientUnits="userSpaceOnUse" id="color-14"><stop offset="0" stop-color="#eafffb"/><stop offset="1" stop-color="#eafffb" stop-opacity="0"/></radialGradient><radialGradient cx="283.33688" cy="137.13152" r="14.63621" gradientUnits="userSpaceOnUse" id="color-15"><stop offset="0" stop-color="#eafffb"/><stop offset="1" stop-color="#eafffb" stop-opacity="0"/></radialGradient><radialGradient cx="257.15245" cy="141.92196" r="13.49408" gradientUnits="userSpaceOnUse" id="color-16"><stop offset="0" stop-color="#eafffb"/><stop offset="1" stop-color="#eafffb" stop-opacity="0"/></radialGradient><radialGradient cx="292.77005" cy="139.2307" r="13.74788" gradientUnits="userSpaceOnUse" id="color-17"><stop offset="0" stop-color="#eafffb"/><stop offset="1" stop-color="#eafffb" stop-opacity="0"/></radialGradient><radialGradient cx="274.66514" cy="143.80584" r="6.51438" gradientUnits="userSpaceOnUse" id="color-18"><stop offset="0" stop-color="#eafffb"/><stop offset="1" stop-color="#eafffb" stop-opacity="0"/></radialGradient><radialGradient cx="265.48578" cy="157.26213" r="7.61421" gradientUnits="userSpaceOnUse" id="color-19"><stop offset="0" stop-color="#eafffb"/><stop offset="1" stop-color="#eafffb" stop-opacity="0"/></radialGradient><radialGradient cx="253.21844" cy="158.0695" r="6.30288" gradientUnits="userSpaceOnUse" id="color-20"><stop offset="0" stop-color="#eafffb"/><stop offset="1" stop-color="#eafffb" stop-opacity="0"/></radialGradient><radialGradient cx="282.57546" cy="157.31595" r="7.1489" gradientUnits="userSpaceOnUse" id="color-21"><stop offset="0" stop-color="#eafffb"/><stop offset="1" stop-color="#eafffb" stop-opacity="0"/></radialGradient></defs><g transform="translate(-239.71327,-120.19927)"><g data-paper-data="{&quot;isPaintingLayer&quot;:true}" fill-rule="nonzero" stroke-linejoin="miter" stroke-miterlimit="10" stroke-dasharray="" stroke-dashoffset="0" style="mix-blend-mode: normal"><path d="M240.46327,179.86284v-58.76072h60.86325v58.76072z" fill="url(#color-1)" stroke="#9cbf3d" stroke-width="1.5" stroke-linecap="butt"/><path d="M239.96343,180.14298v-12.57143h61.85715v12.57143z" fill="url(#color-2)" stroke="none" stroke-width="0" stroke-linecap="butt"/><path d="M250.29966,134.97851c0,0 1.94228,3.30509 2.1187,4.47927c0.18929,1.25986 -1.01886,4.56336 -1.01886,4.56336" fill="none" stroke="url(#color-3)" stroke-width="1" stroke-linecap="round"/><path d="M241.28101,167.50705v-25.78784h59.3v25.78784z" fill="url(#color-4)" stroke="none" stroke-width="0" stroke-linecap="butt"/><path d="M253.72267,141.94188l-5.08334,11.13373l9.41667,6.04403l12.08333,-8.37681l-7.66667,-8.90699z" fill="none" stroke="url(#color-5)" stroke-width="1.5" stroke-linecap="round"/><path d="M257.88934,158.80153l8.25,8.16474l11.5,-0.10604l4.5,-10.39148l-12.58333,-5.51385z" fill="none" stroke="url(#color-6)" stroke-width="1.5" stroke-linecap="round"/><path d="M281.88934,155.62046l4.83333,-13.89066h-23.91666l7.5,9.11906z" fill="none" stroke="url(#color-7)" stroke-width="1.5" stroke-linecap="round"/><path d="M282.97267,156.25668l8.91667,0.95432l5.58333,-7.42249l-2.16666,-7.95267h-9.08334z" fill="none" stroke="url(#color-8)" stroke-width="1.5" stroke-linecap="round"/><path d="M291.80601,157.31703l5.75,9.75527l-19.25,0.21207l4.58333,-10.60356z" fill="none" stroke="url(#color-9)" stroke-width="1.5" stroke-linecap="round"/><path d="M248.88934,154.242l-7.41666,13.04237l13.16666,-0.74225l2.75,-6.78627z" fill="none" stroke="url(#color-10)" stroke-width="1.5" stroke-linecap="round"/><path d="M247.47267,153.18164l-6.16666,-1.37846l0.5,-9.22509l10.58333,-0.42414z" fill="none" stroke="url(#color-11)" stroke-width="1.5" stroke-linecap="round"/><path d="M300.63934,167.28437l-0.33333,-18.23812l-7.08334,8.0587l5.66667,10.07337l1.66667,-0.63621" fill="none" stroke="url(#color-12)" stroke-width="1.5" stroke-linecap="round"/><path d="M267.98155,151.23371c0,0 2.6981,-7.04425 1.68352,-11.04628c-0.5429,-2.14149 -4.42075,-3.90574 -6.19693,-6.97686c-2.17488,-3.76051 -2.25478,-8.67413 -2.25478,-8.67413" fill="none" stroke="url(#color-13)" stroke-width="1.5" stroke-linecap="round"/><path d="M248.86142,154.14027c0,0 -3.19181,-10.9113 -3.22095,-15.82372c-0.01253,-2.11331 2.83813,-2.94161 3.54197,-5.42127c0.81895,-2.8852 -0.49023,-7.28234 -0.49023,-7.28234" fill="none" stroke="url(#color-14)" stroke-width="1.5" stroke-linecap="round"/><path d="M282.61776,155.75502c0,0 -4.90524,-6.47774 -4.67769,-12.37074c0.11777,-3.05004 4.78359,-4.44806 6.19491,-9.62537c1.58198,-5.80335 0.42863,-10.59776 0.42863,-10.59776" fill="none" stroke="url(#color-15)" stroke-width="2" stroke-linecap="round"/><path d="M258.33688,159.09218c0,0 0.58204,-7.29846 -0.5985,-12.71867c-0.32242,-1.48032 -6.18414,-6.97744 -5.88922,-9.96423c0.52946,-5.36217 4.11886,-11.65754 4.11886,-11.65754" fill="none" stroke="url(#color-16)" stroke-width="2" stroke-linecap="round"/><path d="M292.17783,156.72387c0,0 1.87208,-12.81486 2.07655,-18.85483c0.18914,-5.58677 -3.51479,-16.66977 -3.51479,-16.66977" fill="none" stroke="url(#color-17)" stroke-width="2" stroke-linecap="round"/><path d="M274.91895,152.09491c0,0 -1.04492,-3.94809 -1.11493,-6.23458c-0.09273,-3.02835 0.60732,-10.34357 0.60732,-10.34357" fill="none" stroke="url(#color-18)" stroke-width="1" stroke-linecap="round"/><path d="M266.1203,166.95065c0,0 1.82838,-5.77686 1.62845,-8.82955c-0.22098,-3.3741 -2.89749,-10.5475 -2.89749,-10.5475" fill="none" stroke="url(#color-19)" stroke-width="1" stroke-linecap="round"/><path d="M254.61438,166.08945c0,0 -1.73647,-5.1158 -2.19341,-7.74102c-0.47312,-2.71817 -0.59846,-8.29887 -0.59846,-8.29887" fill="none" stroke="url(#color-20)" stroke-width="1" stroke-linecap="round"/><path d="M278.72605,166.4124c0,0 4.15356,-4.35577 5.35517,-7.19529c1.34783,-3.18503 2.34364,-10.99761 2.34364,-10.99761" fill="none" stroke="url(#color-21)" stroke-width="1" stroke-linecap="round"/></g></g></svg>