<svg width="480px" height="360px" xmlns="http://www.w3.org/2000/svg"><path fill="#F00" d="M241.334 174.112L241.334 174.112Q241.334 172.545 241.763 171.327Q242.191 170.109 242.981 169.270Q243.770 168.432 244.878 167.997Q245.986 167.562 247.345 167.562L247.345 167.562Q247.933 167.562 248.502 167.636Q249.071 167.709 249.622 167.868L249.622 167.868L249.622 162.702L251.764 162.702L251.764 180L249.855 180L249.781 177.674Q248.888 178.972 247.847 179.596Q246.806 180.220 245.594 180.220L245.594 180.220Q244.542 180.220 243.740 179.780Q242.938 179.339 242.406 178.537Q241.873 177.735 241.604 176.609Q241.334 175.483 241.334 174.112ZM243.513 173.977L243.513 173.977Q243.513 176.205 244.168 177.301Q244.823 178.396 246.023 178.396L246.023 178.396Q246.831 178.396 247.731 177.674Q248.630 176.952 249.622 175.532L249.622 175.532L249.622 169.827Q249.096 169.582 248.459 169.454Q247.822 169.325 247.198 169.325L247.198 169.325Q245.460 169.325 244.487 170.451Q243.513 171.578 243.513 173.977Z"/></svg>