<svg width="480px" height="360px" xmlns="http://www.w3.org/2000/svg"><path fill="#F00" d="M253.111 171.896L253.111 171.896Q253.111 174.050 252.603 175.617Q252.095 177.184 251.232 178.207Q250.369 179.229 249.212 179.725Q248.055 180.220 246.770 180.220L246.770 180.220Q245.227 180.220 244.083 179.663Q242.938 179.106 242.185 178.054Q241.432 177.001 241.065 175.489Q240.698 173.977 240.698 172.080L240.698 172.080Q240.698 169.950 241.200 168.383Q241.702 166.816 242.565 165.793Q243.428 164.771 244.578 164.275Q245.729 163.780 247.015 163.780L247.015 163.780Q248.557 163.780 249.702 164.343Q250.846 164.906 251.605 165.953Q252.364 166.999 252.738 168.505Q253.111 170.011 253.111 171.896ZM250.846 172.055L250.846 172.055Q250.846 170.647 250.632 169.478Q250.418 168.309 249.940 167.464Q249.463 166.620 248.710 166.155Q247.957 165.689 246.892 165.689L246.892 165.689Q245.864 165.689 245.123 166.185Q244.383 166.681 243.905 167.532Q243.428 168.383 243.195 169.527Q242.963 170.672 242.963 171.957L242.963 171.957Q242.963 173.377 243.183 174.546Q243.403 175.715 243.875 176.554Q244.346 177.393 245.093 177.858Q245.839 178.323 246.892 178.323L246.892 178.323Q247.920 178.323 248.667 177.827Q249.414 177.331 249.897 176.480Q250.381 175.630 250.614 174.491Q250.846 173.353 250.846 172.055Z"/></svg>