<svg version="1.1" xmlns="http://www.w3.org/2000/svg" xmlns:xlink="http://www.w3.org/1999/xlink" width="62.36325" height="60.26072" viewBox="0,0,62.36325,60.26072"><defs><linearGradient x1="270.89485" y1="121.10216" x2="270.89485" y2="179.86287" gradientUnits="userSpaceOnUse" id="color-1"><stop offset="0" stop-color="#5a4882"/><stop offset="1" stop-color="#342d42"/></linearGradient><linearGradient x1="270.892" y1="167.57146" x2="270.892" y2="180.14296" gradientUnits="userSpaceOnUse" id="color-2"><stop offset="0" stop-color="#a78be3"/><stop offset="1" stop-color="#643db8"/></linearGradient><radialGradient cx="279.23733" cy="133.54571" r="2.92933" gradientUnits="userSpaceOnUse" id="color-3"><stop offset="0" stop-color="#ca9eff"/><stop offset="1" stop-color="#ca9eff" stop-opacity="0"/></radialGradient><radialGradient cx="279.33681" cy="133.33049" r="7.99753" gradientUnits="userSpaceOnUse" id="color-4"><stop offset="0" stop-color="#f900b5"/><stop offset="1" stop-color="#e59aff" stop-opacity="0.3871"/></radialGradient><radialGradient cx="280.23761" cy="129.57781" r="4.04526" gradientUnits="userSpaceOnUse" id="color-5"><stop offset="0" stop-color="#ca9eff"/><stop offset="1" stop-color="#ca9eff" stop-opacity="0"/></radialGradient><radialGradient cx="282.81253" cy="131.40093" r="2.86043" gradientUnits="userSpaceOnUse" id="color-6"><stop offset="0" stop-color="#ca9eff"/><stop offset="1" stop-color="#ca9eff" stop-opacity="0"/></radialGradient><radialGradient cx="283.27219" cy="134.3584" r="4.04526" gradientUnits="userSpaceOnUse" id="color-7"><stop offset="0" stop-color="#ca9eff"/><stop offset="1" stop-color="#ca9eff" stop-opacity="0"/></radialGradient><radialGradient cx="281.44908" cy="136.9333" r="2.86043" gradientUnits="userSpaceOnUse" id="color-8"><stop offset="0" stop-color="#ca9eff"/><stop offset="1" stop-color="#ca9eff" stop-opacity="0"/></radialGradient><radialGradient cx="278.35194" cy="137.04669" r="4.04526" gradientUnits="userSpaceOnUse" id="color-9"><stop offset="0" stop-color="#ca9eff"/><stop offset="1" stop-color="#ca9eff" stop-opacity="0"/></radialGradient><radialGradient cx="275.77703" cy="135.22358" r="2.86043" gradientUnits="userSpaceOnUse" id="color-10"><stop offset="0" stop-color="#ca9eff"/><stop offset="1" stop-color="#ca9eff" stop-opacity="0"/></radialGradient><radialGradient cx="275.31736" cy="132.26611" r="4.04526" gradientUnits="userSpaceOnUse" id="color-11"><stop offset="0" stop-color="#ca9eff"/><stop offset="1" stop-color="#ca9eff" stop-opacity="0"/></radialGradient><radialGradient cx="277.14048" cy="129.69118" r="2.86043" gradientUnits="userSpaceOnUse" id="color-12"><stop offset="0" stop-color="#ca9eff"/><stop offset="1" stop-color="#ca9eff" stop-opacity="0"/></radialGradient><radialGradient cx="257.90612" cy="149.02463" r="4.64325" gradientUnits="userSpaceOnUse" id="color-13"><stop offset="0" stop-color="#ca9eff"/><stop offset="1" stop-color="#ca9eff" stop-opacity="0"/></radialGradient><radialGradient cx="257.97982" cy="148.65612" r="12.67681" gradientUnits="userSpaceOnUse" id="color-14"><stop offset="0" stop-color="#f900b5"/><stop offset="1" stop-color="#e59aff" stop-opacity="0.3871"/></radialGradient><radialGradient cx="257.97982" cy="142.53883" r="6.41211" gradientUnits="userSpaceOnUse" id="color-15"><stop offset="0" stop-color="#ca9eff"/><stop offset="1" stop-color="#ca9eff" stop-opacity="0"/></radialGradient><radialGradient cx="262.62307" cy="144.39613" r="4.53405" gradientUnits="userSpaceOnUse" id="color-16"><stop offset="0" stop-color="#ca9eff"/><stop offset="1" stop-color="#ca9eff" stop-opacity="0"/></radialGradient><radialGradient cx="264.42577" cy="148.78443" r="6.41211" gradientUnits="userSpaceOnUse" id="color-17"><stop offset="0" stop-color="#ca9eff"/><stop offset="1" stop-color="#ca9eff" stop-opacity="0"/></radialGradient><radialGradient cx="262.56847" cy="153.42769" r="4.53405" gradientUnits="userSpaceOnUse" id="color-18"><stop offset="0" stop-color="#ca9eff"/><stop offset="1" stop-color="#ca9eff" stop-opacity="0"/></radialGradient><radialGradient cx="257.83677" cy="154.7483" r="6.41211" gradientUnits="userSpaceOnUse" id="color-19"><stop offset="0" stop-color="#ca9eff"/><stop offset="1" stop-color="#ca9eff" stop-opacity="0"/></radialGradient><radialGradient cx="253.19352" cy="152.891" r="4.53405" gradientUnits="userSpaceOnUse" id="color-20"><stop offset="0" stop-color="#ca9eff"/><stop offset="1" stop-color="#ca9eff" stop-opacity="0"/></radialGradient><radialGradient cx="251.39083" cy="148.50269" r="6.41211" gradientUnits="userSpaceOnUse" id="color-21"><stop offset="0" stop-color="#ca9eff"/><stop offset="1" stop-color="#ca9eff" stop-opacity="0"/></radialGradient><radialGradient cx="253.24813" cy="143.85946" r="4.53405" gradientUnits="userSpaceOnUse" id="color-22"><stop offset="0" stop-color="#ca9eff"/><stop offset="1" stop-color="#ca9eff" stop-opacity="0"/></radialGradient><radialGradient cx="286.4192" cy="155.81201" r="3.43312" gradientUnits="userSpaceOnUse" id="color-23"><stop offset="0" stop-color="#ca9eff"/><stop offset="1" stop-color="#ca9eff" stop-opacity="0"/></radialGradient><radialGradient cx="286.55964" cy="155.57223" r="9.37296" gradientUnits="userSpaceOnUse" id="color-24"><stop offset="0" stop-color="#f900b5"/><stop offset="1" stop-color="#e59aff" stop-opacity="0.3871"/></radialGradient><radialGradient cx="288.03581" cy="151.2969" r="4.74097" gradientUnits="userSpaceOnUse" id="color-25"><stop offset="0" stop-color="#ca9eff"/><stop offset="1" stop-color="#ca9eff" stop-opacity="0"/></radialGradient><radialGradient cx="290.83275" cy="153.71542" r="3.35237" gradientUnits="userSpaceOnUse" id="color-26"><stop offset="0" stop-color="#ca9eff"/><stop offset="1" stop-color="#ca9eff" stop-opacity="0"/></radialGradient><radialGradient cx="291.03369" cy="157.21738" r="4.74097" gradientUnits="userSpaceOnUse" id="color-27"><stop offset="0" stop-color="#ca9eff"/><stop offset="1" stop-color="#ca9eff" stop-opacity="0"/></radialGradient><radialGradient cx="288.61518" cy="160.01432" r="3.35237" gradientUnits="userSpaceOnUse" id="color-28"><stop offset="0" stop-color="#ca9eff"/><stop offset="1" stop-color="#ca9eff" stop-opacity="0"/></radialGradient><radialGradient cx="284.98955" cy="159.79549" r="4.74098" gradientUnits="userSpaceOnUse" id="color-29"><stop offset="0" stop-color="#ca9eff"/><stop offset="1" stop-color="#ca9eff" stop-opacity="0"/></radialGradient><radialGradient cx="282.19261" cy="157.37697" r="3.35237" gradientUnits="userSpaceOnUse" id="color-30"><stop offset="0" stop-color="#ca9eff"/><stop offset="1" stop-color="#ca9eff" stop-opacity="0"/></radialGradient><radialGradient cx="281.99166" cy="153.875" r="4.74097" gradientUnits="userSpaceOnUse" id="color-31"><stop offset="0" stop-color="#ca9eff"/><stop offset="1" stop-color="#ca9eff" stop-opacity="0"/></radialGradient><radialGradient cx="284.41019" cy="151.07806" r="3.35238" gradientUnits="userSpaceOnUse" id="color-32"><stop offset="0" stop-color="#ca9eff"/><stop offset="1" stop-color="#ca9eff" stop-opacity="0"/></radialGradient></defs><g transform="translate(-239.71327,-120.35214)"><g data-paper-data="{&quot;isPaintingLayer&quot;:true}" fill-rule="nonzero" stroke-linejoin="miter" stroke-miterlimit="10" stroke-dasharray="" stroke-dashoffset="0" style="mix-blend-mode: normal"><path d="M240.46327,179.86287v-58.76072h60.86325v58.76072z" fill="url(#color-1)" stroke="#916fdc" stroke-width="1.5" stroke-linecap="butt"/><path d="M239.96343,180.14296v-12.57143h61.85715v12.57143z" fill="url(#color-2)" stroke="none" stroke-width="0" stroke-linecap="butt"/><g fill="none"><path d="M276.38892,132.86196c0.37762,-1.57313 1.95903,-2.54229 3.53216,-2.16467c1.57313,0.37762 2.54228,1.95903 2.16466,3.53216c-0.37762,1.57313 -1.95902,2.54229 -3.53216,2.16467c-1.57313,-0.37762 -2.54229,-1.95903 -2.16467,-3.53216z" stroke="url(#color-3)" stroke-width="4" stroke-linecap="butt"/><path d="M271.56019,131.46374c1.03097,-4.29491 5.34844,-6.94085 9.64335,-5.90988c4.29491,1.03097 6.94085,5.34844 5.90988,9.64335c-1.03097,4.29491 -5.34844,6.94085 -9.64335,5.90988c-4.29491,-1.03097 -6.94085,-5.34844 -5.90988,-9.64335z" stroke="url(#color-4)" stroke-width="2" stroke-linecap="butt"/><path d="M281.18183,125.6443l-1.88844,7.86704" stroke="url(#color-5)" stroke-width="4" stroke-linecap="round"/><path d="M286.26161,129.28717l-6.89817,4.22751" stroke="url(#color-6)" stroke-width="4" stroke-linecap="round"/><path d="M287.20571,135.30262l-7.86704,-1.88844" stroke="url(#color-7)" stroke-width="4" stroke-linecap="round"/><path d="M279.33533,133.48423l4.22751,6.89817" stroke="url(#color-8)" stroke-width="4" stroke-linecap="round"/><path d="M279.29616,133.11316l-1.88844,7.86704" stroke="url(#color-9)" stroke-width="4" stroke-linecap="round"/><path d="M279.22611,133.10983l-6.89817,4.22751" stroke="url(#color-10)" stroke-width="4" stroke-linecap="round"/><path d="M279.25088,133.21033l-7.86704,-1.88844" stroke="url(#color-11)" stroke-width="4" stroke-linecap="round"/><path d="M279.25423,133.14028l-4.22751,-6.89817" stroke="url(#color-12)" stroke-width="4" stroke-linecap="round"/></g><g fill="none"><path d="M253.26287,149.02463c0,-2.56439 2.07886,-4.64325 4.64325,-4.64325c2.56439,0 4.64325,2.07886 4.64325,4.64325c0,2.56439 -2.07886,4.64325 -4.64325,4.64325c-2.56439,0 -4.64325,-2.07886 -4.64325,-4.64325z" stroke="url(#color-13)" stroke-width="5" stroke-linecap="butt"/><path d="M245.30301,148.65612c0,-7.00121 5.6756,-12.67681 12.67681,-12.67681c7.00121,0 12.67681,5.6756 12.67681,12.67681c0,7.00121 -5.6756,12.67681 -12.67681,12.67681c-7.00121,0 -12.67681,-5.6756 -12.67681,-12.67681z" stroke="url(#color-14)" stroke-width="3" stroke-linecap="butt"/><path d="M257.97982,148.95093v-12.82421" stroke="url(#color-15)" stroke-width="5" stroke-linecap="round"/><path d="M258.08903,148.93016l9.06809,-9.06809" stroke="url(#color-16)" stroke-width="5" stroke-linecap="round"/><path d="M270.83787,148.78443h-12.82421" stroke="url(#color-17)" stroke-width="5" stroke-linecap="round"/><path d="M258.03442,148.89362l9.06809,9.0681" stroke="url(#color-18)" stroke-width="5" stroke-linecap="round"/><path d="M257.83677,161.16042v-12.82421" stroke="url(#color-19)" stroke-width="5" stroke-linecap="round"/><path d="M257.72757,148.35696l-9.06809,9.06809" stroke="url(#color-20)" stroke-width="5" stroke-linecap="round"/><path d="M244.97873,148.50269h12.82421" stroke="url(#color-21)" stroke-width="5" stroke-linecap="round"/><path d="M248.71409,139.3254l9.06809,9.0681" stroke="url(#color-22)" stroke-width="5" stroke-linecap="round"/></g><g fill="none"><path d="M283.17407,154.69153c0.61882,-1.79223 2.57337,-2.74348 4.3656,-2.12466c1.79223,0.61882 2.74347,2.57337 2.12466,4.3656c-0.61882,1.79223 -2.57336,2.74348 -4.3656,2.12466c-1.79223,-0.61882 -2.74348,-2.57337 -2.12466,-4.3656z" stroke="url(#color-23)" stroke-width="4" stroke-linecap="butt"/><path d="M277.69992,152.51317c1.68947,-4.89309 7.02569,-7.49013 11.91877,-5.80066c4.89309,1.68947 7.49013,7.02569 5.80066,11.91877c-1.68947,4.89309 -7.02569,7.49013 -11.91877,5.80066c-4.89309,-1.68947 -7.49013,-7.02569 -5.80066,-11.91877z" stroke="url(#color-24)" stroke-width="2" stroke-linecap="butt"/><path d="M286.4885,155.77827l3.09463,-8.96274" stroke="url(#color-25)" stroke-width="4" stroke-linecap="round"/><path d="M286.56983,155.79011l8.52585,-4.14938" stroke="url(#color-26)" stroke-width="4" stroke-linecap="round"/><path d="M286.55233,155.67008l8.96274,3.09463" stroke="url(#color-27)" stroke-width="4" stroke-linecap="round"/><path d="M286.54048,155.7514l4.14938,8.52585" stroke="url(#color-28)" stroke-width="4" stroke-linecap="round"/><path d="M286.53686,155.31411l-3.09463,8.96274" stroke="url(#color-29)" stroke-width="4" stroke-linecap="round"/><path d="M286.45553,155.30228l-8.52585,4.14938" stroke="url(#color-30)" stroke-width="4" stroke-linecap="round"/><path d="M277.51029,152.32769l8.96274,3.09463" stroke="url(#color-31)" stroke-width="4" stroke-linecap="round"/><path d="M282.3355,146.81515l4.14938,8.52585" stroke="url(#color-32)" stroke-width="4" stroke-linecap="round"/></g></g></g></svg>