<svg width="480px" height="360px" xmlns="http://www.w3.org/2000/svg"><path fill="#F00" d="M250.981 183.305L250.981 185.019L250.075 185.019Q247.712 185.019 246.562 183.911Q245.411 182.803 245.411 180.551L245.411 180.551L245.411 176.340Q245.411 175.740 245.276 175.269Q245.142 174.797 244.805 174.473Q244.468 174.148 243.911 173.977Q243.354 173.806 242.510 173.806L242.510 173.806L241.983 173.806L241.983 172.104L242.510 172.104Q243.403 172.104 243.966 171.957Q244.529 171.810 244.848 171.510Q245.166 171.210 245.288 170.745Q245.411 170.280 245.411 169.643L245.411 169.643L245.411 166.742Q245.411 165.714 245.656 164.888Q245.901 164.061 246.458 163.480Q247.015 162.898 247.902 162.586Q248.790 162.274 250.075 162.274L250.075 162.274L250.981 162.274L250.981 163.988L250.259 163.988Q247.419 163.988 247.419 166.742L247.419 166.742L247.419 169.594Q247.419 172.581 244.836 172.961L244.836 172.961Q247.443 173.218 247.443 176.315L247.443 176.315L247.443 180.502Q247.443 183.305 250.259 183.305L250.259 183.305L250.981 183.305Z"/></svg>