<svg width="480px" height="360px" xmlns="http://www.w3.org/2000/svg"><path fill="#F00" d="M251.030 171.480L252.989 171.480Q253.001 172.410 252.793 173.200Q252.585 173.989 252.144 174.565Q251.703 175.140 251.048 175.464Q250.393 175.789 249.524 175.789L249.524 175.789Q248.851 175.789 248.312 175.562Q247.774 175.336 247.314 174.993Q246.855 174.650 246.470 174.246Q246.084 173.842 245.711 173.500Q245.337 173.157 244.970 172.930Q244.603 172.704 244.187 172.704L244.187 172.704Q243.464 172.704 243.116 173.279Q242.767 173.855 242.767 175.091L242.767 175.091L240.808 175.091Q240.783 174.161 240.998 173.371Q241.212 172.581 241.647 172Q242.081 171.419 242.736 171.094Q243.391 170.770 244.260 170.770L244.260 170.770Q244.933 170.770 245.472 170.996Q246.011 171.223 246.470 171.565Q246.929 171.908 247.314 172.312Q247.700 172.716 248.073 173.059Q248.447 173.402 248.814 173.628Q249.181 173.855 249.598 173.855L249.598 173.855Q250.369 173.855 250.699 173.292Q251.030 172.728 251.030 171.480L251.030 171.480Z"/></svg>