<svg version="1.1" xmlns="http://www.w3.org/2000/svg" xmlns:xlink="http://www.w3.org/1999/xlink" width="55.125" height="55.125" viewBox="0,0,55.125,55.125"><defs><linearGradient x1="240" y1="153.1875" x2="240" y2="206.8125" gradientUnits="userSpaceOnUse" id="color-1"><stop offset="0" stop-color="#362a02"/><stop offset="1" stop-color="#000000" stop-opacity="0.60925"/></linearGradient><linearGradient x1="240" y1="153.1875" x2="240" y2="206.8125" gradientUnits="userSpaceOnUse" id="color-2"><stop offset="0" stop-color="#ffc200"/><stop offset="1" stop-color="#ffc200" stop-opacity="0"/></linearGradient></defs><g transform="translate(-212.4375,-152.4375)"><g data-paper-data="{&quot;isPaintingLayer&quot;:true}" fill-rule="nonzero" stroke-linejoin="miter" stroke-miterlimit="10" stroke-dasharray="" stroke-dashoffset="0" style="mix-blend-mode: normal"><path d="M213.1875,206.8125v-53.625h53.625v53.625z" fill="url(#color-1)" stroke="url(#color-2)" stroke-width="1.5" stroke-linecap="butt"/><g><path d="M219.74448,169.01797c0.20798,0.59851 -0.26474,1.30656 -1.05586,1.58147c-0.79112,0.27491 -1.60105,0.01258 -1.80903,-0.58593c-0.20798,-0.59851 0.26475,-1.30656 1.05586,-1.58147c0.79112,-0.27491 1.60104,-0.01258 1.80903,0.58593z" fill="#ffffc8" stroke="none" stroke-width="0" stroke-linecap="butt"/><path d="M222.56858,170.13705c-0.21946,0.5944 -1.03429,0.84109 -1.81997,0.55101c-0.78568,-0.29008 -1.24469,-1.00711 -1.02523,-1.6015c0.21946,-0.5944 1.03429,-0.84109 1.81997,-0.55101c0.78568,0.29008 1.24469,1.0071 1.02523,1.6015z" fill="#ffffc8" stroke="none" stroke-width="0" stroke-linecap="butt"/><path d="M217.42093,169.77829c0.55259,0.31003 0.66834,1.15348 0.25854,1.8839c-0.4098,0.73041 -1.18997,1.0712 -1.74256,0.76117c-0.55259,-0.31003 -0.66834,-1.15348 -0.25854,-1.88389c0.4098,-0.73041 1.18997,-1.0712 1.74256,-0.76117z" fill="#ffffc8" stroke="none" stroke-width="0" stroke-linecap="butt"/><path d="M221.68508,169.90676c0.45877,-0.43704 1.29898,-0.29974 1.87666,0.30666c0.57768,0.60641 0.67407,1.45228 0.2153,1.88933c-0.45877,0.43704 -1.29897,0.29974 -1.87666,-0.30666c-0.57768,-0.60641 -0.67408,-1.45228 -0.21531,-1.88933z" fill="#ffffc8" stroke="none" stroke-width="0" stroke-linecap="butt"/><path d="M222.6973,171.81692c0,1.38913 -1.27814,2.51524 -2.8548,2.51524c-1.57666,0 -2.8548,-1.12611 -2.8548,-2.51524c0,-1.38913 1.27814,-2.51524 2.8548,-2.51524c1.57666,0 2.8548,1.12611 2.8548,2.51524z" fill="#ffaa00" stroke="none" stroke-width="0" stroke-linecap="butt"/><path d="M223.08504,171.86707c0.58297,0.24825 0.78955,1.07416 0.46142,1.84472c-0.32813,0.77057 -1.06673,1.19399 -1.64969,0.94574c-0.58297,-0.24825 -0.78955,-1.07416 -0.46142,-1.84472c0.32813,-0.77057 1.06673,-1.19399 1.64969,-0.94574z" fill="#ffffc8" stroke="none" stroke-width="0" stroke-linecap="butt"/><path d="M216.20611,172.56668c0.391,-0.4986 1.24222,-0.48383 1.90127,0.03299c0.65905,0.51682 0.87634,1.33998 0.48535,1.83858c-0.391,0.4986 -1.24221,0.48382 -1.90126,-0.033c-0.65905,-0.51682 -0.87635,-1.33998 -0.48535,-1.83857z" fill="#ffffc8" stroke="none" stroke-width="0" stroke-linecap="butt"/><path d="M217.95266,174.22604c-0.05529,-0.78235 0.7382,-1.47581 1.77231,-1.54889c1.03411,-0.07308 1.91725,0.50189 1.97253,1.28424c0.05529,0.78235 -0.7382,1.4758 -1.77231,1.54888c-1.03411,0.07308 -1.91725,-0.50189 -1.97253,-1.28423z" fill="#ffffc8" stroke="none" stroke-width="0" stroke-linecap="butt"/><path d="M218.07187,170.23832c0,0 1.38713,0.19026 2.05842,0.40603c0.67362,0.21652 1.97634,0.89086 1.97634,0.89086" fill="none" stroke="#563c00" stroke-width="1" stroke-linecap="round"/><path d="M218.04953,172.24315c0,0 1.01818,-1.056 1.58699,-1.47683c0.56684,-0.41937 1.82,-1.04381 1.82,-1.04381" data-paper-data="{&quot;index&quot;:null}" fill="none" stroke="#563c00" stroke-width="1" stroke-linecap="round"/></g><g><path d="M226.57781,166.35131c0.20798,0.59851 -0.26474,1.30656 -1.05586,1.58147c-0.79111,0.27491 -1.60105,0.01259 -1.80903,-0.58593c-0.20798,-0.59851 0.26475,-1.30656 1.05586,-1.58147c0.79111,-0.27491 1.60105,-0.01258 1.80903,0.58593z" fill="#ffffc8" stroke="none" stroke-width="0" stroke-linecap="butt"/><path d="M229.40191,167.47039c-0.21946,0.59439 -1.03429,0.84109 -1.81997,0.55101c-0.78568,-0.29009 -1.24469,-1.00711 -1.02523,-1.60151c0.21946,-0.59439 1.03428,-0.84109 1.81996,-0.55101c0.78568,0.29009 1.24469,1.00711 1.02523,1.6015z" fill="#ffffc8" stroke="none" stroke-width="0" stroke-linecap="butt"/><path d="M224.25426,167.11163c0.55259,0.31003 0.66834,1.15348 0.25854,1.88389c-0.4098,0.73041 -1.18997,1.0712 -1.74256,0.76117c-0.55259,-0.31003 -0.66834,-1.15348 -0.25854,-1.88389c0.4098,-0.73041 1.18997,-1.0712 1.74256,-0.76117z" fill="#ffffc8" stroke="none" stroke-width="0" stroke-linecap="butt"/><path d="M228.51841,167.2401c0.45877,-0.43704 1.29898,-0.29974 1.87666,0.30666c0.57768,0.6064 0.67407,1.45229 0.21531,1.88933c-0.45877,0.43704 -1.29898,0.29974 -1.87665,-0.30667c-0.57768,-0.6064 -0.67408,-1.45228 -0.21531,-1.88932z" fill="#ffffc8" stroke="none" stroke-width="0" stroke-linecap="butt"/><path d="M229.53064,169.15026c0,1.38913 -1.27814,2.51524 -2.8548,2.51524c-1.57666,0 -2.8548,-1.12611 -2.8548,-2.51524c0,-1.38913 1.27814,-2.51524 2.8548,-2.51524c1.57666,0 2.8548,1.12611 2.8548,2.51524z" fill="#ffaa00" stroke="none" stroke-width="0" stroke-linecap="butt"/><path d="M229.91837,169.20041c0.58297,0.24824 0.78956,1.07415 0.46142,1.84472c-0.32814,0.77057 -1.06673,1.19399 -1.6497,0.94575c-0.58297,-0.24824 -0.78955,-1.07416 -0.46141,-1.84472c0.32814,-0.77057 1.06672,-1.19399 1.64969,-0.94574z" fill="#ffffc8" stroke="none" stroke-width="0" stroke-linecap="butt"/><path d="M223.03944,169.90002c0.391,-0.49859 1.24222,-0.48382 1.90127,0.03299c0.65904,0.51682 0.87634,1.33998 0.48535,1.83857c-0.391,0.49859 -1.24222,0.48382 -1.90126,-0.033c-0.65904,-0.51682 -0.87635,-1.33998 -0.48535,-1.83857z" fill="#ffffc8" stroke="none" stroke-width="0" stroke-linecap="butt"/><path d="M224.78599,171.55937c-0.05529,-0.78235 0.7382,-1.47581 1.77231,-1.54889c1.03411,-0.07308 1.91724,0.50189 1.97253,1.28424c0.05529,0.78235 -0.7382,1.4758 -1.7723,1.54889c-1.03411,0.07308 -1.91725,-0.50188 -1.97254,-1.28423z" fill="#ffffc8" stroke="none" stroke-width="0" stroke-linecap="butt"/><path d="M224.90521,167.57166c0,0 1.38713,0.19026 2.05842,0.40603c0.67362,0.21652 1.97634,0.89086 1.97634,0.89086" fill="none" stroke="#563c00" stroke-width="1" stroke-linecap="round"/><path d="M224.88286,169.57649c0,0 1.01818,-1.05599 1.587,-1.47682c0.56684,-0.41938 1.82,-1.04382 1.82,-1.04382" data-paper-data="{&quot;index&quot;:null}" fill="none" stroke="#563c00" stroke-width="1" stroke-linecap="round"/></g><g><path d="M234.24448,168.01797c0.20798,0.59851 -0.26474,1.30656 -1.05586,1.58147c-0.79111,0.27491 -1.60105,0.01258 -1.80903,-0.58593c-0.20798,-0.59851 0.26475,-1.30656 1.05586,-1.58147c0.79111,-0.27491 1.60105,-0.01258 1.80903,0.58593z" fill="#ffffc8" stroke="none" stroke-width="0" stroke-linecap="butt"/><path d="M237.06858,169.13705c-0.21946,0.59439 -1.03429,0.84109 -1.81997,0.55101c-0.78568,-0.29009 -1.24469,-1.00711 -1.02523,-1.60151c0.21946,-0.59439 1.03428,-0.84109 1.81996,-0.55101c0.78568,0.29009 1.24469,1.00711 1.02523,1.6015z" fill="#ffffc8" stroke="none" stroke-width="0" stroke-linecap="butt"/><path d="M231.92093,168.77829c0.55259,0.31003 0.66834,1.15348 0.25854,1.88389c-0.4098,0.73041 -1.18997,1.0712 -1.74256,0.76117c-0.55259,-0.31003 -0.66834,-1.15348 -0.25854,-1.88389c0.4098,-0.73041 1.18997,-1.07121 1.74256,-0.76118z" fill="#ffffc8" stroke="none" stroke-width="0" stroke-linecap="butt"/><path d="M236.18508,168.90676c0.45877,-0.43704 1.29898,-0.29974 1.87666,0.30666c0.57768,0.6064 0.67407,1.45229 0.21531,1.88933c-0.45877,0.43704 -1.29898,0.29974 -1.87665,-0.30667c-0.57768,-0.6064 -0.67408,-1.45228 -0.21531,-1.88932z" fill="#ffffc8" stroke="none" stroke-width="0" stroke-linecap="butt"/><path d="M237.19731,170.81692c0,1.38913 -1.27814,2.51524 -2.8548,2.51524c-1.57666,0 -2.8548,-1.12611 -2.8548,-2.51524c0,-1.38913 1.27814,-2.51524 2.8548,-2.51524c1.57666,0 2.8548,1.12611 2.8548,2.51524z" fill="#ffaa00" stroke="none" stroke-width="0" stroke-linecap="butt"/><path d="M237.58504,170.86707c0.58297,0.24824 0.78956,1.07415 0.46142,1.84472c-0.32814,0.77057 -1.06673,1.19399 -1.6497,0.94574c-0.58297,-0.24824 -0.78955,-1.07415 -0.46142,-1.84472c0.32814,-0.77057 1.06673,-1.19399 1.64969,-0.94574z" fill="#ffffc8" stroke="none" stroke-width="0" stroke-linecap="butt"/><path d="M230.70611,171.56668c0.391,-0.49859 1.24222,-0.48382 1.90127,0.03299c0.65904,0.51682 0.87634,1.33998 0.48534,1.83857c-0.391,0.49859 -1.24221,0.48382 -1.90126,-0.033c-0.65904,-0.51682 -0.87635,-1.33997 -0.48535,-1.83857z" fill="#ffffc8" stroke="none" stroke-width="0" stroke-linecap="butt"/><path d="M232.45266,173.22604c-0.05529,-0.78235 0.7382,-1.47581 1.77231,-1.54889c1.03411,-0.07308 1.91724,0.50189 1.97253,1.28424c0.05529,0.78235 -0.7382,1.4758 -1.77231,1.54889c-1.03411,0.07308 -1.91724,-0.50189 -1.97253,-1.28424z" fill="#ffffc8" stroke="none" stroke-width="0" stroke-linecap="butt"/><path d="M232.57188,169.23832c0,0 1.38713,0.19026 2.05842,0.40603c0.67362,0.21652 1.97634,0.89086 1.97634,0.89086" fill="none" stroke="#563c00" stroke-width="1" stroke-linecap="round"/><path d="M232.54953,171.24315c0,0 1.01818,-1.056 1.587,-1.47683c0.56684,-0.41938 1.82,-1.04381 1.82,-1.04381" data-paper-data="{&quot;index&quot;:null}" fill="none" stroke="#563c00" stroke-width="1" stroke-linecap="round"/></g><g><path d="M241.91115,171.01797c0.20798,0.59851 -0.26474,1.30656 -1.05586,1.58147c-0.79111,0.27491 -1.60105,0.01259 -1.80903,-0.58593c-0.20798,-0.59851 0.26475,-1.30656 1.05586,-1.58147c0.79111,-0.27491 1.60105,-0.01258 1.80903,0.58593z" fill="#ffffc8" stroke="none" stroke-width="0" stroke-linecap="butt"/><path d="M244.73524,172.13705c-0.21946,0.59439 -1.03429,0.84109 -1.81997,0.55101c-0.78568,-0.29009 -1.24469,-1.00711 -1.02523,-1.60151c0.21946,-0.59439 1.03428,-0.84109 1.81996,-0.55101c0.78568,0.29009 1.24469,1.00711 1.02523,1.6015z" fill="#ffffc8" stroke="none" stroke-width="0" stroke-linecap="butt"/><path d="M239.5876,171.77829c0.55259,0.31003 0.66834,1.15348 0.25854,1.88389c-0.4098,0.73041 -1.18997,1.0712 -1.74256,0.76117c-0.55259,-0.31003 -0.66834,-1.15348 -0.25854,-1.88389c0.4098,-0.73041 1.18997,-1.0712 1.74256,-0.76117z" fill="#ffffc8" stroke="none" stroke-width="0" stroke-linecap="butt"/><path d="M243.85175,171.90676c0.45877,-0.43704 1.29898,-0.29974 1.87666,0.30666c0.57768,0.6064 0.67407,1.45229 0.21531,1.88933c-0.45877,0.43704 -1.29898,0.29974 -1.87665,-0.30667c-0.57768,-0.6064 -0.67408,-1.45228 -0.21531,-1.88932z" fill="#ffffc8" stroke="none" stroke-width="0" stroke-linecap="butt"/><path d="M244.86397,173.81692c0,1.38913 -1.27814,2.51524 -2.8548,2.51524c-1.57666,0 -2.8548,-1.12611 -2.8548,-2.51524c0,-1.38913 1.27814,-2.51524 2.8548,-2.51524c1.57666,0 2.8548,1.12611 2.8548,2.51524z" fill="#ffaa00" stroke="none" stroke-width="0" stroke-linecap="butt"/><path d="M245.2517,173.86707c0.58297,0.24824 0.78956,1.07415 0.46142,1.84472c-0.32814,0.77057 -1.06673,1.19399 -1.6497,0.94575c-0.58297,-0.24824 -0.78955,-1.07416 -0.46141,-1.84472c0.32814,-0.77057 1.06672,-1.19399 1.64969,-0.94574z" fill="#ffffc8" stroke="none" stroke-width="0" stroke-linecap="butt"/><path d="M238.37277,174.56668c0.391,-0.49859 1.24222,-0.48382 1.90127,0.03299c0.65904,0.51682 0.87634,1.33998 0.48535,1.83857c-0.391,0.49859 -1.24222,0.48382 -1.90126,-0.033c-0.65904,-0.51682 -0.87635,-1.33998 -0.48535,-1.83857z" fill="#ffffc8" stroke="none" stroke-width="0" stroke-linecap="butt"/><path d="M240.11932,176.22604c-0.05529,-0.78235 0.7382,-1.47581 1.77231,-1.54889c1.03411,-0.07308 1.91724,0.50189 1.97253,1.28424c0.05529,0.78235 -0.7382,1.4758 -1.7723,1.54889c-1.03411,0.07308 -1.91725,-0.50188 -1.97254,-1.28423z" fill="#ffffc8" stroke="none" stroke-width="0" stroke-linecap="butt"/><path d="M240.23854,172.23832c0,0 1.38713,0.19026 2.05842,0.40603c0.67362,0.21652 1.97634,0.89086 1.97634,0.89086" fill="none" stroke="#563c00" stroke-width="1" stroke-linecap="round"/><path d="M240.2162,174.24315c0,0 1.01818,-1.05599 1.587,-1.47682c0.56684,-0.41938 1.82,-1.04382 1.82,-1.04382" data-paper-data="{&quot;index&quot;:null}" fill="none" stroke="#563c00" stroke-width="1" stroke-linecap="round"/></g><g><path d="M249.91115,168.85131c0.20798,0.59851 -0.26474,1.30656 -1.05586,1.58147c-0.79111,0.27491 -1.60105,0.01259 -1.80903,-0.58593c-0.20798,-0.59851 0.26475,-1.30656 1.05586,-1.58147c0.79111,-0.27491 1.60104,-0.01258 1.80902,0.58593z" fill="#ffffc8" stroke="none" stroke-width="0" stroke-linecap="butt"/><path d="M252.73524,169.97039c-0.21946,0.59439 -1.03429,0.84109 -1.81997,0.55101c-0.78568,-0.29009 -1.24468,-1.00711 -1.02522,-1.60151c0.21946,-0.59439 1.03428,-0.84109 1.81996,-0.55101c0.78568,0.29009 1.24469,1.00711 1.02523,1.6015z" fill="#ffffc8" stroke="none" stroke-width="0" stroke-linecap="butt"/><path d="M247.5876,169.61163c0.55259,0.31003 0.66834,1.15348 0.25854,1.88389c-0.4098,0.73041 -1.18997,1.0712 -1.74256,0.76117c-0.55259,-0.31003 -0.66834,-1.15348 -0.25854,-1.88389c0.4098,-0.73041 1.18997,-1.0712 1.74256,-0.76117z" fill="#ffffc8" stroke="none" stroke-width="0" stroke-linecap="butt"/><path d="M251.85175,169.7401c0.45877,-0.43704 1.29898,-0.29974 1.87666,0.30666c0.57768,0.6064 0.67407,1.45229 0.21531,1.88933c-0.45877,0.43704 -1.29898,0.29974 -1.87665,-0.30667c-0.57768,-0.6064 -0.67408,-1.45228 -0.21531,-1.88932z" fill="#ffffc8" stroke="none" stroke-width="0" stroke-linecap="butt"/><path d="M252.86397,171.65026c0,1.38913 -1.27814,2.51524 -2.8548,2.51524c-1.57666,0 -2.8548,-1.12611 -2.8548,-2.51524c0,-1.38913 1.27814,-2.51524 2.8548,-2.51524c1.57666,0 2.8548,1.12611 2.8548,2.51524z" fill="#ffaa00" stroke="none" stroke-width="0" stroke-linecap="butt"/><path d="M253.2517,171.70041c0.58297,0.24824 0.78956,1.07415 0.46142,1.84472c-0.32814,0.77057 -1.06673,1.19399 -1.6497,0.94575c-0.58297,-0.24824 -0.78955,-1.07416 -0.46141,-1.84472c0.32814,-0.77057 1.06672,-1.19399 1.64969,-0.94574z" fill="#ffffc8" stroke="none" stroke-width="0" stroke-linecap="butt"/><path d="M246.37277,172.40002c0.391,-0.49859 1.24223,-0.48382 1.90127,0.03299c0.65904,0.51682 0.87634,1.33998 0.48534,1.83857c-0.391,0.49859 -1.24222,0.48382 -1.90126,-0.033c-0.65904,-0.51682 -0.87635,-1.33998 -0.48535,-1.83857z" fill="#ffffc8" stroke="none" stroke-width="0" stroke-linecap="butt"/><path d="M248.11932,174.05937c-0.05529,-0.78235 0.7382,-1.47581 1.7723,-1.54889c1.03411,-0.07308 1.91724,0.50189 1.97253,1.28424c0.05529,0.78235 -0.7382,1.4758 -1.7723,1.54889c-1.03411,0.07308 -1.91724,-0.50188 -1.97253,-1.28423z" fill="#ffffc8" stroke="none" stroke-width="0" stroke-linecap="butt"/><path d="M248.23854,170.07166c0,0 1.38713,0.19026 2.05842,0.40603c0.67362,0.21652 1.97634,0.89086 1.97634,0.89086" fill="none" stroke="#563c00" stroke-width="1" stroke-linecap="round"/><path d="M248.2162,172.07649c0,0 1.01818,-1.05599 1.587,-1.47682c0.56684,-0.41938 1.82,-1.04382 1.82,-1.04382" data-paper-data="{&quot;index&quot;:null}" fill="none" stroke="#563c00" stroke-width="1" stroke-linecap="round"/></g><g><path d="M257.91115,166.85131c0.20798,0.59851 -0.26474,1.30656 -1.05586,1.58147c-0.79111,0.27491 -1.60105,0.01258 -1.80903,-0.58593c-0.20798,-0.59851 0.26475,-1.30656 1.05586,-1.58147c0.79111,-0.27491 1.60104,-0.01258 1.80902,0.58593z" fill="#ffffc8" stroke="none" stroke-width="0" stroke-linecap="butt"/><path d="M260.73524,167.97039c-0.21946,0.59439 -1.03429,0.84109 -1.81997,0.55101c-0.78568,-0.29009 -1.24469,-1.00711 -1.02522,-1.60151c0.21946,-0.59439 1.03428,-0.84109 1.81997,-0.55101c0.78568,0.29009 1.24469,1.00711 1.02523,1.6015z" fill="#ffffc8" stroke="none" stroke-width="0" stroke-linecap="butt"/><path d="M255.5876,167.61163c0.55259,0.31003 0.66834,1.15348 0.25854,1.88389c-0.4098,0.73041 -1.18997,1.0712 -1.74256,0.76117c-0.55259,-0.31003 -0.66834,-1.15348 -0.25854,-1.88389c0.4098,-0.73041 1.18997,-1.07121 1.74256,-0.76118z" fill="#ffffc8" stroke="none" stroke-width="0" stroke-linecap="butt"/><path d="M259.85175,167.7401c0.45877,-0.43704 1.29898,-0.29974 1.87666,0.30666c0.57768,0.6064 0.67408,1.45229 0.21531,1.88933c-0.45877,0.43704 -1.29898,0.29974 -1.87666,-0.30667c-0.57768,-0.6064 -0.67408,-1.45228 -0.21531,-1.88932z" fill="#ffffc8" stroke="none" stroke-width="0" stroke-linecap="butt"/><path d="M260.86397,169.65026c0,1.38913 -1.27814,2.51524 -2.8548,2.51524c-1.57666,0 -2.8548,-1.12611 -2.8548,-2.51524c0,-1.38913 1.27814,-2.51524 2.8548,-2.51524c1.57666,0 2.8548,1.12611 2.8548,2.51524z" fill="#ffaa00" stroke="none" stroke-width="0" stroke-linecap="butt"/><path d="M261.2517,169.70041c0.58297,0.24824 0.78956,1.07415 0.46142,1.84472c-0.32814,0.77057 -1.06673,1.19399 -1.6497,0.94574c-0.58296,-0.24824 -0.78955,-1.07415 -0.46141,-1.84472c0.32813,-0.77057 1.06673,-1.19399 1.64969,-0.94574z" fill="#ffffc8" stroke="none" stroke-width="0" stroke-linecap="butt"/><path d="M254.37277,170.40002c0.391,-0.49859 1.24223,-0.48382 1.90127,0.03299c0.65904,0.51682 0.87634,1.33998 0.48534,1.83857c-0.39099,0.49859 -1.24221,0.48382 -1.90126,-0.033c-0.65904,-0.51682 -0.87635,-1.33997 -0.48535,-1.83857z" fill="#ffffc8" stroke="none" stroke-width="0" stroke-linecap="butt"/><path d="M256.11932,172.05937c-0.05529,-0.78235 0.7382,-1.47581 1.7723,-1.54889c1.0341,-0.07308 1.91724,0.50189 1.97253,1.28424c0.05529,0.78235 -0.7382,1.4758 -1.7723,1.54889c-1.03411,0.07308 -1.91724,-0.50189 -1.97253,-1.28424z" fill="#ffffc8" stroke="none" stroke-width="0" stroke-linecap="butt"/><path d="M256.23854,168.07166c0,0 1.38713,0.19026 2.05842,0.40603c0.67362,0.21652 1.97634,0.89086 1.97634,0.89086" fill="none" stroke="#563c00" stroke-width="1" stroke-linecap="round"/><path d="M256.2162,170.07649c0,0 1.01818,-1.056 1.587,-1.47683c0.56684,-0.41938 1.82,-1.04381 1.82,-1.04381" data-paper-data="{&quot;index&quot;:null}" fill="none" stroke="#563c00" stroke-width="1" stroke-linecap="round"/></g><g><path d="M221.32621,177.30288c0.2682,0.77182 -0.3414,1.68489 -1.36159,2.03941c-1.02019,0.35451 -2.06466,0.01623 -2.33286,-0.75559c-0.2682,-0.77182 0.34141,-1.68489 1.3616,-2.03941c1.02019,-0.35451 2.06465,-0.01623 2.33286,0.75559z" fill="#ffffc8" stroke="none" stroke-width="0" stroke-linecap="butt"/><path d="M224.96807,178.74601c-0.28301,0.76651 -1.33378,1.08465 -2.34697,0.71056c-1.01319,-0.37408 -1.6051,-1.29873 -1.32209,-2.06524c0.28301,-0.76651 1.33378,-1.08464 2.34696,-0.71056c1.01319,0.37408 1.60511,1.29873 1.3221,2.06524z" fill="#ffffc8" stroke="none" stroke-width="0" stroke-linecap="butt"/><path d="M218.32985,178.28337c0.7126,0.3998 0.86187,1.48749 0.3334,2.4294c-0.52846,0.94192 -1.53454,1.38138 -2.24714,0.98158c-0.7126,-0.3998 -0.86187,-1.48748 -0.3334,-2.4294c0.52846,-0.94192 1.53454,-1.38139 2.24714,-0.98158z" fill="#ffffc8" stroke="none" stroke-width="0" stroke-linecap="butt"/><path d="M223.82874,178.44904c0.59161,-0.56359 1.67512,-0.38653 2.42007,0.39546c0.74496,0.782 0.86926,1.87282 0.27765,2.43641c-0.59161,0.56359 -1.67511,0.38653 -2.42007,-0.39546c-0.74496,-0.782 -0.86927,-1.87282 -0.27766,-2.43641z" fill="#ffffc8" stroke="none" stroke-width="0" stroke-linecap="butt"/><path d="M225.13407,180.91231c0,1.79137 -1.64824,3.24357 -3.68145,3.24357c-2.03321,0 -3.68146,-1.45219 -3.68146,-3.24357c0,-1.79137 1.64825,-3.24357 3.68146,-3.24357c2.03321,0 3.68145,1.45219 3.68145,3.24357z" fill="#ffaa00" stroke="none" stroke-width="0" stroke-linecap="butt"/><path d="M225.63408,180.97698c0.75177,0.32013 1.01818,1.38519 0.59503,2.37889c-0.42315,0.99369 -1.37562,1.53973 -2.12739,1.2196c-0.75177,-0.32013 -1.01818,-1.38519 -0.59502,-2.37889c0.42315,-0.99369 1.37561,-1.53973 2.12738,-1.2196z" fill="#ffffc8" stroke="none" stroke-width="0" stroke-linecap="butt"/><path d="M216.76325,181.87918c0.50421,-0.64297 1.60193,-0.62392 2.45181,0.04255c0.84988,0.66647 1.1301,1.72799 0.62588,2.37096c-0.50421,0.64297 -1.60192,0.62392 -2.4518,-0.04256c-0.84988,-0.66647 -1.13011,-1.72798 -0.6259,-2.37096z" fill="#ffffc8" stroke="none" stroke-width="0" stroke-linecap="butt"/><path d="M219.01554,184.01902c-0.0713,-1.00889 0.95196,-1.90315 2.2855,-1.99739c1.33355,-0.09425 2.47241,0.64722 2.54371,1.65611c0.0713,1.00889 -0.95196,1.90314 -2.2855,1.99739c-1.33355,0.09425 -2.47241,-0.64721 -2.54371,-1.6561z" fill="#ffffc8" stroke="none" stroke-width="0" stroke-linecap="butt"/><path d="M219.16928,178.87661c0,0 1.78879,0.24535 2.65447,0.5236c0.86868,0.27922 2.54862,1.14882 2.54862,1.14882" fill="none" stroke="#563c00" stroke-width="1" stroke-linecap="round"/><path d="M219.14047,181.46196c0,0 1.31301,-1.36177 2.04653,-1.90446c0.73098,-0.54081 2.34701,-1.34607 2.34701,-1.34607" data-paper-data="{&quot;index&quot;:null}" fill="none" stroke="#563c00" stroke-width="1" stroke-linecap="round"/></g><g><path d="M230.65955,179.30288c0.2682,0.77183 -0.3414,1.6849 -1.36159,2.03941c-1.0202,0.35451 -2.06465,0.01623 -2.33286,-0.75559c-0.2682,-0.77183 0.3414,-1.6849 1.3616,-2.03941c1.0202,-0.35451 2.06465,-0.01623 2.33285,0.75559z" fill="#ffffc8" stroke="none" stroke-width="0" stroke-linecap="butt"/><path d="M234.3014,180.74601c-0.28301,0.76651 -1.33379,1.08464 -2.34697,0.71056c-1.01318,-0.37409 -1.60511,-1.29873 -1.3221,-2.06524c0.28301,-0.76651 1.33378,-1.08464 2.34696,-0.71055c1.01318,0.37409 1.60512,1.29873 1.32211,2.06524z" fill="#ffffc8" stroke="none" stroke-width="0" stroke-linecap="butt"/><path d="M227.66318,180.28337c0.7126,0.3998 0.86187,1.48748 0.3334,2.42941c-0.52847,0.94192 -1.53454,1.38138 -2.24714,0.98158c-0.7126,-0.3998 -0.86187,-1.48748 -0.33341,-2.4294c0.52847,-0.94192 1.53455,-1.38139 2.24715,-0.98158z" fill="#ffffc8" stroke="none" stroke-width="0" stroke-linecap="butt"/><path d="M233.16208,180.44904c0.59161,-0.56359 1.67512,-0.38654 2.42007,0.39547c0.74496,0.782 0.86926,1.87282 0.27765,2.43641c-0.59161,0.56359 -1.67511,0.38654 -2.42007,-0.39547c-0.74496,-0.782 -0.86927,-1.87282 -0.27766,-2.43641z" fill="#ffffc8" stroke="none" stroke-width="0" stroke-linecap="butt"/><path d="M234.46741,182.91231c0,1.79137 -1.64824,3.24356 -3.68145,3.24356c-2.03321,0 -3.68146,-1.45219 -3.68146,-3.24356c0,-1.79137 1.64826,-3.24357 3.68146,-3.24357c2.03321,0 3.68145,1.45219 3.68145,3.24357z" fill="#ffaa00" stroke="none" stroke-width="0" stroke-linecap="butt"/><path d="M234.96741,182.97698c0.75177,0.32013 1.01818,1.38519 0.59503,2.37889c-0.42315,0.9937 -1.37562,1.53973 -2.12739,1.2196c-0.75177,-0.32013 -1.01817,-1.3852 -0.59502,-2.37889c0.42315,-0.9937 1.37561,-1.53973 2.12738,-1.2196z" fill="#ffffc8" stroke="none" stroke-width="0" stroke-linecap="butt"/><path d="M226.09658,183.87918c0.50421,-0.64297 1.60193,-0.62392 2.45181,0.04255c0.84988,0.66647 1.1301,1.72799 0.62589,2.37096c-0.50421,0.64297 -1.60192,0.62392 -2.4518,-0.04255c-0.84988,-0.66647 -1.13011,-1.72799 -0.6259,-2.37096z" fill="#ffffc8" stroke="none" stroke-width="0" stroke-linecap="butt"/><path d="M228.34887,186.01902c-0.0713,-1.00889 0.95195,-1.90315 2.2855,-1.9974c1.33354,-0.09425 2.47241,0.64722 2.54371,1.65611c0.0713,1.00889 -0.95196,1.90314 -2.28551,1.99739c-1.33354,0.09425 -2.47241,-0.64721 -2.54371,-1.6561z" fill="#ffffc8" stroke="none" stroke-width="0" stroke-linecap="butt"/><path d="M228.50261,180.87661c0,0 1.78879,0.24535 2.65446,0.5236c0.86867,0.27921 2.54862,1.14882 2.54862,1.14882" fill="none" stroke="#563c00" stroke-width="1" stroke-linecap="round"/><path d="M228.4738,183.46196c0,0 1.31301,-1.36177 2.04654,-1.90446c0.73098,-0.54081 2.347,-1.34607 2.347,-1.34607" data-paper-data="{&quot;index&quot;:null}" fill="none" stroke="#563c00" stroke-width="1" stroke-linecap="round"/></g><g><path d="M241.49288,179.63622c0.2682,0.77183 -0.3414,1.6849 -1.36159,2.03941c-1.0202,0.35451 -2.06466,0.01623 -2.33286,-0.75559c-0.2682,-0.77183 0.34141,-1.6849 1.3616,-2.03941c1.0202,-0.35451 2.06465,-0.01623 2.33285,0.75559z" fill="#ffffc8" stroke="none" stroke-width="0" stroke-linecap="butt"/><path d="M245.13474,181.07935c-0.28301,0.76651 -1.33379,1.08464 -2.34697,0.71056c-1.01318,-0.37409 -1.6051,-1.29873 -1.32209,-2.06524c0.28301,-0.76651 1.33378,-1.08464 2.34696,-0.71055c1.01318,0.37409 1.60511,1.29873 1.3221,2.06524z" fill="#ffffc8" stroke="none" stroke-width="0" stroke-linecap="butt"/><path d="M238.49651,180.6167c0.7126,0.3998 0.86187,1.48748 0.3334,2.42941c-0.52847,0.94192 -1.53455,1.38138 -2.24715,0.98158c-0.7126,-0.3998 -0.86187,-1.48748 -0.3334,-2.4294c0.52847,-0.94192 1.53455,-1.38139 2.24715,-0.98158z" fill="#ffffc8" stroke="none" stroke-width="0" stroke-linecap="butt"/><path d="M243.99541,180.78237c0.59161,-0.56359 1.67512,-0.38654 2.42007,0.39547c0.74496,0.782 0.86926,1.87282 0.27765,2.43641c-0.59161,0.56359 -1.67511,0.38654 -2.42007,-0.39547c-0.74496,-0.782 -0.86927,-1.87282 -0.27766,-2.43641z" fill="#ffffc8" stroke="none" stroke-width="0" stroke-linecap="butt"/><path d="M245.30074,183.24565c0,1.79137 -1.64825,3.24356 -3.68145,3.24356c-2.03321,0 -3.68146,-1.45219 -3.68146,-3.24356c0,-1.79137 1.64825,-3.24357 3.68146,-3.24357c2.03321,0 3.68145,1.45219 3.68145,3.24357z" fill="#ffaa00" stroke="none" stroke-width="0" stroke-linecap="butt"/><path d="M245.80074,183.31032c0.75177,0.32013 1.01818,1.38519 0.59503,2.37889c-0.42315,0.9937 -1.37562,1.53973 -2.12739,1.2196c-0.75177,-0.32013 -1.01817,-1.3852 -0.59502,-2.37889c0.42315,-0.9937 1.37561,-1.53973 2.12738,-1.2196z" fill="#ffffc8" stroke="none" stroke-width="0" stroke-linecap="butt"/><path d="M236.92992,184.21251c0.50421,-0.64297 1.60193,-0.62392 2.45181,0.04255c0.84988,0.66647 1.1301,1.72799 0.62589,2.37096c-0.50421,0.64297 -1.60192,0.62392 -2.4518,-0.04255c-0.84988,-0.66647 -1.13011,-1.72799 -0.62589,-2.37096z" fill="#ffffc8" stroke="none" stroke-width="0" stroke-linecap="butt"/><path d="M239.18221,186.35236c-0.0713,-1.00889 0.95196,-1.90315 2.2855,-1.9974c1.33354,-0.09425 2.47241,0.64722 2.54371,1.65611c0.0713,1.00889 -0.95196,1.90314 -2.28551,1.99739c-1.33354,0.09425 -2.47241,-0.64721 -2.54371,-1.6561z" fill="#ffffc8" stroke="none" stroke-width="0" stroke-linecap="butt"/><path d="M239.33595,181.20994c0,0 1.7888,0.24535 2.65447,0.5236c0.86867,0.27921 2.54862,1.14882 2.54862,1.14882" fill="none" stroke="#563c00" stroke-width="1" stroke-linecap="round"/><path d="M239.30713,183.7953c0,0 1.31301,-1.36177 2.04653,-1.90446c0.73098,-0.54081 2.34701,-1.34607 2.34701,-1.34607" data-paper-data="{&quot;index&quot;:null}" fill="none" stroke="#563c00" stroke-width="1" stroke-linecap="round"/></g><g><path d="M251.99289,182.80288c0.2682,0.77183 -0.3414,1.6849 -1.36159,2.03941c-1.0202,0.35451 -2.06466,0.01623 -2.33286,-0.75559c-0.2682,-0.77183 0.34141,-1.6849 1.3616,-2.03941c1.0202,-0.35451 2.06465,-0.01623 2.33285,0.75559z" fill="#ffffc8" stroke="none" stroke-width="0" stroke-linecap="butt"/><path d="M255.63474,184.24601c-0.28301,0.76651 -1.33379,1.08464 -2.34697,0.71056c-1.01318,-0.37409 -1.6051,-1.29873 -1.32209,-2.06525c0.28301,-0.76651 1.33378,-1.08464 2.34696,-0.71055c1.01318,0.37409 1.60512,1.29873 1.3221,2.06524z" fill="#ffffc8" stroke="none" stroke-width="0" stroke-linecap="butt"/><path d="M248.99652,183.78337c0.7126,0.3998 0.86187,1.48748 0.33341,2.42941c-0.52847,0.94192 -1.53455,1.38138 -2.24715,0.98157c-0.7126,-0.3998 -0.86187,-1.48747 -0.3334,-2.42939c0.52847,-0.94192 1.53454,-1.38139 2.24714,-0.98158z" fill="#ffffc8" stroke="none" stroke-width="0" stroke-linecap="butt"/><path d="M254.49542,183.94904c0.59161,-0.56359 1.67512,-0.38654 2.42008,0.39547c0.74496,0.782 0.86926,1.87282 0.27765,2.43641c-0.59162,0.56359 -1.67512,0.38654 -2.42007,-0.39547c-0.74496,-0.782 -0.86927,-1.87282 -0.27765,-2.43641z" fill="#ffffc8" stroke="none" stroke-width="0" stroke-linecap="butt"/><path d="M255.80075,186.41231c0,1.79137 -1.64825,3.24356 -3.68145,3.24356c-2.03321,0 -3.68146,-1.45219 -3.68146,-3.24356c0,-1.79137 1.64825,-3.24357 3.68146,-3.24357c2.03321,0 3.68145,1.45219 3.68145,3.24357z" fill="#ffaa00" stroke="none" stroke-width="0" stroke-linecap="butt"/><path d="M256.30075,186.47698c0.75177,0.32013 1.01818,1.3852 0.59503,2.37889c-0.42315,0.9937 -1.37562,1.53973 -2.12739,1.2196c-0.75177,-0.32013 -1.01818,-1.38519 -0.59503,-2.37889c0.42315,-0.9937 1.37561,-1.53973 2.12738,-1.2196z" fill="#ffffc8" stroke="none" stroke-width="0" stroke-linecap="butt"/><path d="M247.42992,187.37918c0.50421,-0.64297 1.60193,-0.62392 2.45181,0.04255c0.84988,0.66647 1.1301,1.72799 0.62589,2.37096c-0.50421,0.64297 -1.60192,0.62392 -2.4518,-0.04255c-0.84988,-0.66647 -1.13011,-1.72799 -0.62589,-2.37096z" fill="#ffffc8" stroke="none" stroke-width="0" stroke-linecap="butt"/><path d="M249.68221,189.51902c-0.0713,-1.00889 0.95196,-1.90315 2.2855,-1.9974c1.33354,-0.09425 2.47241,0.64722 2.54371,1.65611c0.0713,1.00889 -0.95196,1.90314 -2.28551,1.99739c-1.33354,0.09425 -2.47241,-0.64721 -2.54371,-1.6561z" fill="#ffffc8" stroke="none" stroke-width="0" stroke-linecap="butt"/><path d="M249.83595,184.37661c0,0 1.7888,0.24535 2.65447,0.5236c0.86867,0.27921 2.54862,1.14882 2.54862,1.14882" fill="none" stroke="#563c00" stroke-width="1" stroke-linecap="round"/><path d="M249.80714,186.96196c0,0 1.31301,-1.36177 2.04654,-1.90446c0.73098,-0.54081 2.347,-1.34607 2.347,-1.34607" data-paper-data="{&quot;index&quot;:null}" fill="none" stroke="#563c00" stroke-width="1" stroke-linecap="round"/></g><g><path d="M259.32622,177.80288c0.2682,0.77183 -0.3414,1.6849 -1.3616,2.03941c-1.0202,0.35451 -2.06466,0.01623 -2.33286,-0.75559c-0.2682,-0.77183 0.34141,-1.6849 1.3616,-2.03941c1.0202,-0.35451 2.06465,-0.01623 2.33286,0.75559z" fill="#ffffc8" stroke="none" stroke-width="0" stroke-linecap="butt"/><path d="M262.96807,179.24601c-0.28301,0.76651 -1.33379,1.08464 -2.34697,0.71056c-1.01318,-0.37409 -1.6051,-1.29873 -1.32209,-2.06524c0.28301,-0.76651 1.33378,-1.08464 2.34696,-0.71055c1.01318,0.37409 1.60511,1.29873 1.3221,2.06524z" fill="#ffffc8" stroke="none" stroke-width="0" stroke-linecap="butt"/><path d="M256.32985,178.78337c0.7126,0.3998 0.86187,1.48748 0.33341,2.42941c-0.52847,0.94192 -1.53455,1.38138 -2.24715,0.98158c-0.7126,-0.3998 -0.86187,-1.48748 -0.3334,-2.4294c0.52847,-0.94192 1.53454,-1.38139 2.24714,-0.98158z" fill="#ffffc8" stroke="none" stroke-width="0" stroke-linecap="butt"/><path d="M261.82875,178.94904c0.59161,-0.56359 1.67512,-0.38654 2.42007,0.39547c0.74496,0.782 0.86927,1.87282 0.27765,2.43641c-0.59161,0.56359 -1.67512,0.38654 -2.42007,-0.39547c-0.74496,-0.782 -0.86927,-1.87282 -0.27765,-2.43641z" fill="#ffffc8" stroke="none" stroke-width="0" stroke-linecap="butt"/><path d="M263.13408,181.41231c0,1.79137 -1.64825,3.24356 -3.68145,3.24356c-2.03321,0 -3.68146,-1.45219 -3.68146,-3.24356c0,-1.79137 1.64825,-3.24357 3.68146,-3.24357c2.03321,0 3.68145,1.45219 3.68145,3.24357z" fill="#ffaa00" stroke="none" stroke-width="0" stroke-linecap="butt"/><path d="M263.63408,181.47698c0.75177,0.32013 1.01819,1.38519 0.59503,2.37889c-0.42315,0.9937 -1.37562,1.53973 -2.12739,1.2196c-0.75177,-0.32013 -1.01817,-1.3852 -0.59502,-2.37889c0.42315,-0.9937 1.37561,-1.53973 2.12738,-1.2196z" fill="#ffffc8" stroke="none" stroke-width="0" stroke-linecap="butt"/><path d="M254.76325,182.37918c0.50421,-0.64297 1.60193,-0.62392 2.45181,0.04255c0.84988,0.66647 1.1301,1.72799 0.62588,2.37096c-0.50421,0.64297 -1.60192,0.62392 -2.4518,-0.04255c-0.84988,-0.66647 -1.13011,-1.72799 -0.62589,-2.37096z" fill="#ffffc8" stroke="none" stroke-width="0" stroke-linecap="butt"/><path d="M257.01554,184.51902c-0.0713,-1.00889 0.95195,-1.90315 2.2855,-1.9974c1.33354,-0.09425 2.47241,0.64722 2.54371,1.65611c0.0713,1.00889 -0.95196,1.90314 -2.28551,1.99739c-1.33355,0.09425 -2.47241,-0.64721 -2.54371,-1.6561z" fill="#ffffc8" stroke="none" stroke-width="0" stroke-linecap="butt"/><path d="M257.16928,179.37661c0,0 1.78879,0.24535 2.65447,0.5236c0.86867,0.27921 2.54862,1.14882 2.54862,1.14882" fill="none" stroke="#563c00" stroke-width="1" stroke-linecap="round"/><path d="M257.14047,181.96196c0,0 1.31301,-1.36177 2.04654,-1.90446c0.73098,-0.54081 2.347,-1.34607 2.347,-1.34607" data-paper-data="{&quot;index&quot;:null}" fill="none" stroke="#563c00" stroke-width="1" stroke-linecap="round"/></g><g><path d="M227.08144,189.67391c0.34886,1.00393 -0.44406,2.19157 -1.77105,2.65269c-1.32698,0.46112 -2.68553,0.02111 -3.03439,-0.98281c-0.34886,-1.00393 0.44407,-2.19157 1.77105,-2.65269c1.32698,-0.46112 2.68552,-0.02111 3.03438,0.98281z" fill="#ffffc8" stroke="none" stroke-width="0" stroke-linecap="butt"/><path d="M231.81846,191.55101c-0.36812,0.99701 -1.73488,1.41082 -3.05274,0.92424c-1.31787,-0.48658 -2.08779,-1.68929 -1.71967,-2.6863c0.36812,-0.99701 1.73486,-1.41081 3.05273,-0.92423c1.31787,0.48658 2.0878,1.68928 1.71968,2.68629z" fill="#ffffc8" stroke="none" stroke-width="0" stroke-linecap="butt"/><path d="M223.18402,190.94924c0.92689,0.52003 1.12105,1.9348 0.43367,3.15997c-0.68738,1.22517 -1.99601,1.79678 -2.9229,1.27675c-0.92689,-0.52003 -1.12105,-1.93478 -0.43367,-3.15995c0.68738,-1.22517 1.99601,-1.7968 2.9229,-1.27676z" fill="#ffffc8" stroke="none" stroke-width="0" stroke-linecap="butt"/><path d="M230.33653,191.16473c0.76952,-0.73307 2.17886,-0.50277 3.14783,0.51439c0.96897,1.01716 1.13067,2.436 0.36114,3.16907c-0.76952,0.73307 -2.17885,0.50277 -3.14782,-0.51439c-0.96897,-1.01716 -1.13067,-2.436 -0.36115,-3.16907z" fill="#ffffc8" stroke="none" stroke-width="0" stroke-linecap="butt"/><path d="M232.03439,194.36875c0,2.33007 -2.1439,4.21896 -4.78852,4.21896c-2.64462,0 -4.78853,-1.88889 -4.78853,-4.21896c0,-2.33007 2.14391,-4.21896 4.78853,-4.21896c2.64462,0 4.78852,1.88889 4.78852,4.21896z" fill="#ffaa00" stroke="none" stroke-width="0" stroke-linecap="butt"/><path d="M232.68475,194.45287c0.97784,0.4164 1.32437,1.80175 0.77397,3.09426c-0.5504,1.29251 -1.78929,2.00275 -2.76713,1.58635c-0.97784,-0.4164 -1.32436,-1.80175 -0.77396,-3.09426c0.5504,-1.29251 1.78928,-2.00275 2.76712,-1.58635z" fill="#ffffc8" stroke="none" stroke-width="0" stroke-linecap="butt"/><path d="M221.14632,195.62637c0.65584,-0.83632 2.08366,-0.81155 3.18911,0.05535c1.10545,0.86689 1.46994,2.24762 0.8141,3.08395c-0.65584,0.83632 -2.08364,0.81154 -3.1891,-0.05535c-1.10545,-0.86689 -1.46995,-2.24762 -0.81411,-3.08394z" fill="#ffffc8" stroke="none" stroke-width="0" stroke-linecap="butt"/><path d="M224.07591,198.4097c-0.09274,-1.31228 1.23822,-2.47545 2.97279,-2.59804c1.73456,-0.12259 3.21591,0.84185 3.30865,2.15413c0.09274,1.31228 -1.23823,2.47544 -2.97279,2.59804c-1.73456,0.12259 -3.2159,-0.84184 -3.30864,-2.15412z" fill="#ffffc8" stroke="none" stroke-width="0" stroke-linecap="butt"/><path d="M224.27588,191.72088c0,0 2.32671,0.31913 3.4527,0.68105c1.1299,0.36318 3.31503,1.49428 3.31503,1.49428" fill="none" stroke="#563c00" stroke-width="1" stroke-linecap="round"/><path d="M224.2384,195.08369c0,0 1.70785,-1.77128 2.66196,-2.47716c0.95079,-0.70344 3.05279,-1.75085 3.05279,-1.75085" data-paper-data="{&quot;index&quot;:null}" fill="none" stroke="#563c00" stroke-width="1" stroke-linecap="round"/></g><g><path d="M239.73472,189.32243c0.34886,1.00393 -0.44406,2.19157 -1.77105,2.65269c-1.32699,0.46112 -2.68553,0.02112 -3.03439,-0.98281c-0.34886,-1.00393 0.44407,-2.19157 1.77106,-2.6527c1.32699,-0.46112 2.68552,-0.02111 3.03438,0.98282z" fill="#ffffc8" stroke="none" stroke-width="0" stroke-linecap="butt"/><path d="M244.47174,191.19953c-0.36812,0.99701 -1.73488,1.41081 -3.05275,0.92424c-1.31787,-0.48658 -2.08779,-1.68929 -1.71967,-2.6863c0.36812,-0.99701 1.73486,-1.4108 3.05273,-0.92423c1.31787,0.48658 2.0878,1.68928 1.71969,2.68629z" fill="#ffffc8" stroke="none" stroke-width="0" stroke-linecap="butt"/><path d="M235.83729,190.59776c0.92689,0.52003 1.12105,1.9348 0.43367,3.15997c-0.68738,1.22517 -1.99601,1.79679 -2.9229,1.27675c-0.92689,-0.52003 -1.12105,-1.93479 -0.43366,-3.15996c0.68738,-1.22517 1.99601,-1.7968 2.9229,-1.27676z" fill="#ffffc8" stroke="none" stroke-width="0" stroke-linecap="butt"/><path d="M242.9898,190.81325c0.76952,-0.73307 2.17886,-0.50277 3.14783,0.51439c0.96897,1.01716 1.13067,2.436 0.36115,3.16907c-0.76952,0.73307 -2.17885,0.50277 -3.14782,-0.51439c-0.96897,-1.01716 -1.13068,-2.436 -0.36115,-3.16907z" fill="#ffffc8" stroke="none" stroke-width="0" stroke-linecap="butt"/><path d="M244.68767,194.01727c0,2.33007 -2.1439,4.21896 -4.78852,4.21896c-2.64462,0 -4.78853,-1.88889 -4.78853,-4.21896c0,-2.33007 2.14391,-4.21896 4.78853,-4.21896c2.64462,0 4.78852,1.88889 4.78852,4.21896z" fill="#ffaa00" stroke="none" stroke-width="0" stroke-linecap="butt"/><path d="M245.33802,194.10139c0.97784,0.4164 1.32437,1.80174 0.77397,3.09426c-0.5504,1.29252 -1.78929,2.00275 -2.76713,1.58635c-0.97784,-0.4164 -1.32435,-1.80174 -0.77395,-3.09426c0.5504,-1.29252 1.78927,-2.00275 2.76711,-1.58635z" fill="#ffffc8" stroke="none" stroke-width="0" stroke-linecap="butt"/><path d="M233.7996,195.27489c0.65584,-0.83632 2.08366,-0.81155 3.18911,0.05534c1.10545,0.8669 1.46994,2.24762 0.8141,3.08395c-0.65584,0.83632 -2.08364,0.81154 -3.1891,-0.05535c-1.10545,-0.8669 -1.46995,-2.24761 -0.81411,-3.08394z" fill="#ffffc8" stroke="none" stroke-width="0" stroke-linecap="butt"/><path d="M236.72919,198.05821c-0.09274,-1.31228 1.23822,-2.47545 2.97279,-2.59804c1.73456,-0.12259 3.2159,0.84185 3.30865,2.15413c0.09274,1.31228 -1.23823,2.47545 -2.97279,2.59804c-1.73456,0.12259 -3.2159,-0.84185 -3.30864,-2.15413z" fill="#ffffc8" stroke="none" stroke-width="0" stroke-linecap="butt"/><path d="M236.92916,191.3694c0,0 2.32672,0.31913 3.45271,0.68105c1.1299,0.36318 3.31503,1.49428 3.31503,1.49428" fill="none" stroke="#563c00" stroke-width="1" stroke-linecap="round"/><path d="M236.89168,194.73221c0,0 1.70785,-1.77127 2.66196,-2.47716c0.95079,-0.70344 3.05279,-1.75086 3.05279,-1.75086" data-paper-data="{&quot;index&quot;:null}" fill="none" stroke="#563c00" stroke-width="1" stroke-linecap="round"/></g><g><path d="M251.86078,191.78279c0.34886,1.00393 -0.44406,2.19157 -1.77105,2.65269c-1.32699,0.46112 -2.68553,0.02112 -3.03439,-0.98281c-0.34886,-1.00393 0.44407,-2.19157 1.77106,-2.6527c1.32699,-0.46112 2.68552,-0.02111 3.03438,0.98282z" fill="#ffffc8" stroke="none" stroke-width="0" stroke-linecap="butt"/><path d="M256.5978,193.65988c-0.36812,0.99701 -1.73488,1.41081 -3.05275,0.92424c-1.31787,-0.48658 -2.08779,-1.68929 -1.71967,-2.6863c0.36812,-0.99701 1.73486,-1.4108 3.05273,-0.92423c1.31787,0.48658 2.0878,1.68928 1.71969,2.68629z" fill="#ffffc8" stroke="none" stroke-width="0" stroke-linecap="butt"/><path d="M247.96335,193.05812c0.92689,0.52003 1.12105,1.9348 0.43367,3.15997c-0.68738,1.22517 -1.99601,1.79679 -2.9229,1.27675c-0.92689,-0.52003 -1.12105,-1.93479 -0.43366,-3.15996c0.68738,-1.22517 1.99601,-1.7968 2.9229,-1.27676z" fill="#ffffc8" stroke="none" stroke-width="0" stroke-linecap="butt"/><path d="M255.11586,193.27361c0.76952,-0.73307 2.17886,-0.50277 3.14783,0.51439c0.96897,1.01716 1.13067,2.436 0.36115,3.16907c-0.76952,0.73307 -2.17885,0.50277 -3.14782,-0.51439c-0.96897,-1.01716 -1.13068,-2.436 -0.36115,-3.16907z" fill="#ffffc8" stroke="none" stroke-width="0" stroke-linecap="butt"/><path d="M256.81373,196.47763c0,2.33007 -2.1439,4.21896 -4.78852,4.21896c-2.64462,0 -4.78853,-1.88889 -4.78853,-4.21896c0,-2.33007 2.14391,-4.21896 4.78853,-4.21896c2.64462,0 4.78852,1.88889 4.78852,4.21896z" fill="#ffaa00" stroke="none" stroke-width="0" stroke-linecap="butt"/><path d="M257.46408,196.56174c0.97784,0.4164 1.32437,1.80174 0.77397,3.09426c-0.5504,1.29252 -1.78929,2.00275 -2.76713,1.58635c-0.97784,-0.4164 -1.32435,-1.80174 -0.77395,-3.09426c0.5504,-1.29252 1.78927,-2.00275 2.76711,-1.58635z" fill="#ffffc8" stroke="none" stroke-width="0" stroke-linecap="butt"/><path d="M245.92566,197.73525c0.65584,-0.83632 2.08366,-0.81155 3.18911,0.05534c1.10545,0.8669 1.46994,2.24762 0.8141,3.08395c-0.65584,0.83632 -2.08364,0.81154 -3.1891,-0.05535c-1.10545,-0.8669 -1.46995,-2.24761 -0.81411,-3.08394z" fill="#ffffc8" stroke="none" stroke-width="0" stroke-linecap="butt"/><path d="M248.85525,200.51857c-0.09274,-1.31228 1.23822,-2.47545 2.97279,-2.59804c1.73456,-0.12259 3.2159,0.84185 3.30865,2.15413c0.09274,1.31228 -1.23823,2.47545 -2.97279,2.59804c-1.73456,0.12259 -3.2159,-0.84185 -3.30864,-2.15413z" fill="#ffffc8" stroke="none" stroke-width="0" stroke-linecap="butt"/><path d="M249.05522,193.82975c0,0 2.32672,0.31913 3.45271,0.68105c1.1299,0.36318 3.31503,1.49428 3.31503,1.49428" fill="none" stroke="#563c00" stroke-width="1" stroke-linecap="round"/><path d="M249.01774,197.19256c0,0 1.70785,-1.77127 2.66196,-2.47716c0.95079,-0.70344 3.05279,-1.75086 3.05279,-1.75086" data-paper-data="{&quot;index&quot;:null}" fill="none" stroke="#563c00" stroke-width="1" stroke-linecap="round"/></g><g><path d="M219.09266,162.14914c0.1685,0.48489 -0.21448,1.05851 -0.8554,1.28123c-0.64093,0.22272 -1.29709,0.0102 -1.46559,-0.47469c-0.1685,-0.48489 0.21448,-1.05852 0.85541,-1.28124c0.64093,-0.22272 1.29709,-0.0102 1.46558,0.47469z" fill="#ffffc8" stroke="none" stroke-width="0" stroke-linecap="butt"/><path d="M221.38061,163.05577c-0.1778,0.48155 -0.83794,0.68141 -1.47446,0.4464c-0.63652,-0.23501 -1.00839,-0.81591 -0.83059,-1.29746c0.1778,-0.48155 0.83793,-0.68141 1.47445,-0.4464c0.63652,0.23501 1.00839,0.81591 0.8306,1.29746z" fill="#ffffc8" stroke="none" stroke-width="0" stroke-linecap="butt"/><path d="M217.21022,162.76512c0.44768,0.25117 0.54146,0.93449 0.20946,1.52624c-0.332,0.59175 -0.96406,0.86784 -1.41174,0.61666c-0.44768,-0.25117 -0.54146,-0.93449 -0.20946,-1.52624c0.332,-0.59175 0.96406,-0.86784 1.41174,-0.61667z" fill="#ffffc8" stroke="none" stroke-width="0" stroke-linecap="butt"/><path d="M220.66484,162.8692c0.37168,-0.35407 1.05237,-0.24284 1.52038,0.24845c0.46801,0.49128 0.54611,1.17657 0.17443,1.53064c-0.37168,0.35407 -1.05237,0.24284 -1.52038,-0.24845c-0.46801,-0.49128 -0.54611,-1.17657 -0.17443,-1.53064z" fill="#ffffc8" stroke="none" stroke-width="0" stroke-linecap="butt"/><path d="M221.4849,164.41672c0,1.12541 -1.03549,2.03773 -2.31283,2.03773c-1.27733,0 -2.31283,-0.91232 -2.31283,-2.03773c0,-1.12541 1.0355,-2.03773 2.31283,-2.03773c1.27733,0 2.31283,0.91232 2.31283,2.03773z" fill="#ffaa00" stroke="none" stroke-width="0" stroke-linecap="butt"/><path d="M221.79902,164.45735c0.47229,0.20112 0.63966,0.87023 0.37382,1.49451c-0.26584,0.62428 -0.86422,0.96732 -1.33651,0.7662c-0.47229,-0.20112 -0.63965,-0.87023 -0.37381,-1.49451c0.26584,-0.62428 0.86421,-0.96732 1.3365,-0.7662z" fill="#ffffc8" stroke="none" stroke-width="0" stroke-linecap="butt"/><path d="M216.22603,165.02414c0.31677,-0.40394 1.00639,-0.39198 1.54032,0.02673c0.53393,0.41871 0.70997,1.08559 0.3932,1.48953c-0.31677,0.40394 -1.00639,0.39197 -1.54031,-0.02674c-0.53393,-0.41871 -0.70998,-1.08558 -0.39321,-1.48952z" fill="#ffffc8" stroke="none" stroke-width="0" stroke-linecap="butt"/><path d="M217.64101,166.36847c-0.04479,-0.63382 0.59805,-1.19562 1.43584,-1.25484c0.83778,-0.05921 1.55326,0.40661 1.59806,1.04043c0.04479,0.63382 -0.59806,1.19562 -1.43584,1.25484c-0.83778,0.05921 -1.55326,-0.40661 -1.59805,-1.04043z" fill="#ffffc8" stroke="none" stroke-width="0" stroke-linecap="butt"/><path d="M217.73759,163.13782c0,0 1.12379,0.15414 1.66763,0.32894c0.54573,0.17541 1.60114,0.72173 1.60114,0.72173" fill="none" stroke="#563c00" stroke-width="0.5" stroke-linecap="round"/><path d="M217.71949,164.76203c0,0 0.82488,-0.85551 1.28571,-1.19645c0.45922,-0.33976 1.47448,-0.84565 1.47448,-0.84565" data-paper-data="{&quot;index&quot;:null}" fill="none" stroke="#563c00" stroke-width="0.5" stroke-linecap="round"/></g><g><path d="M226.63112,159.37991c0.1685,0.48489 -0.21448,1.05851 -0.85541,1.28124c-0.64093,0.22272 -1.29709,0.01019 -1.46559,-0.4747c-0.1685,-0.48489 0.21448,-1.05851 0.85541,-1.28123c0.64093,-0.22272 1.29709,-0.0102 1.46559,0.47469z" fill="#ffffc8" stroke="none" stroke-width="0" stroke-linecap="butt"/><path d="M228.91907,160.28654c-0.1778,0.48155 -0.83794,0.68142 -1.47446,0.4464c-0.63652,-0.23502 -1.00839,-0.81591 -0.83059,-1.29746c0.1778,-0.48155 0.83793,-0.68141 1.47445,-0.44639c0.63652,0.23502 1.00839,0.8159 0.8306,1.29745z" fill="#ffffc8" stroke="none" stroke-width="0" stroke-linecap="butt"/><path d="M224.74869,159.99589c0.44768,0.25117 0.54146,0.9345 0.20946,1.52625c-0.332,0.59175 -0.96407,0.86783 -1.41175,0.61666c-0.44768,-0.25117 -0.54145,-0.93449 -0.20945,-1.52624c0.332,-0.59175 0.96406,-0.86784 1.41174,-0.61667z" fill="#ffffc8" stroke="none" stroke-width="0" stroke-linecap="butt"/><path d="M228.2033,160.09997c0.37168,-0.35407 1.05238,-0.24283 1.52038,0.24845c0.46801,0.49128 0.5461,1.17657 0.17443,1.53064c-0.37168,0.35407 -1.05237,0.24283 -1.52037,-0.24845c-0.46801,-0.49128 -0.54611,-1.17657 -0.17444,-1.53064z" fill="#ffffc8" stroke="none" stroke-width="0" stroke-linecap="butt"/><path d="M229.02336,161.64749c0,1.12541 -1.03549,2.03772 -2.31283,2.03772c-1.27733,0 -2.31283,-0.91232 -2.31283,-2.03772c0,-1.12541 1.03549,-2.03773 2.31283,-2.03773c1.27733,0 2.31283,0.91232 2.31283,2.03773z" fill="#ffaa00" stroke="none" stroke-width="0" stroke-linecap="butt"/><path d="M229.33748,161.68812c0.47229,0.20112 0.63967,0.87024 0.37383,1.49451c-0.26584,0.62428 -0.86422,0.96731 -1.33651,0.76619c-0.47229,-0.20112 -0.63966,-0.87023 -0.37382,-1.49451c0.26584,-0.62428 0.86421,-0.96732 1.3365,-0.7662z" fill="#ffffc8" stroke="none" stroke-width="0" stroke-linecap="butt"/><path d="M223.76449,162.25491c0.31677,-0.40394 1.00639,-0.39198 1.54032,0.02673c0.53393,0.4187 0.70997,1.08559 0.39321,1.48953c-0.31677,0.40394 -1.00639,0.39197 -1.54032,-0.02674c-0.53393,-0.4187 -0.70997,-1.08558 -0.39321,-1.48952z" fill="#ffffc8" stroke="none" stroke-width="0" stroke-linecap="butt"/><path d="M225.17947,163.59924c-0.04479,-0.63382 0.59805,-1.19563 1.43584,-1.25484c0.83778,-0.05921 1.55326,0.40661 1.59806,1.04043c0.04479,0.63382 -0.59806,1.19562 -1.43584,1.25483c-0.83778,0.05921 -1.55326,-0.4066 -1.59805,-1.04042z" fill="#ffffc8" stroke="none" stroke-width="0" stroke-linecap="butt"/><path d="M225.27605,160.36859c0,0 1.12379,0.15413 1.66763,0.32894c0.54574,0.17541 1.60114,0.72173 1.60114,0.72173" fill="none" stroke="#563c00" stroke-width="0.5" stroke-linecap="round"/><path d="M225.25795,161.9928c0,0 0.82488,-0.85551 1.28571,-1.19645c0.45923,-0.33975 1.47448,-0.84565 1.47448,-0.84565" data-paper-data="{&quot;index&quot;:null}" fill="none" stroke="#563c00" stroke-width="0.5" stroke-linecap="round"/></g><g><path d="M234.09265,162.14914c0.1685,0.48489 -0.21448,1.05851 -0.8554,1.28123c-0.64093,0.22272 -1.29709,0.0102 -1.46559,-0.47469c-0.1685,-0.48489 0.21448,-1.05851 0.85541,-1.28123c0.64093,-0.22272 1.29709,-0.0102 1.46559,0.47469z" fill="#ffffc8" stroke="none" stroke-width="0" stroke-linecap="butt"/><path d="M236.38061,163.05577c-0.1778,0.48155 -0.83794,0.68142 -1.47446,0.4464c-0.63652,-0.23502 -1.00839,-0.81591 -0.83059,-1.29746c0.1778,-0.48155 0.83793,-0.68141 1.47445,-0.4464c0.63652,0.23502 1.0084,0.81591 0.8306,1.29746z" fill="#ffffc8" stroke="none" stroke-width="0" stroke-linecap="butt"/><path d="M232.21022,162.76512c0.44768,0.25117 0.54146,0.93449 0.20946,1.52624c-0.332,0.59175 -0.96407,0.86783 -1.41174,0.61666c-0.44768,-0.25117 -0.54145,-0.93448 -0.20945,-1.52623c0.332,-0.59175 0.96406,-0.86784 1.41174,-0.61667z" fill="#ffffc8" stroke="none" stroke-width="0" stroke-linecap="butt"/><path d="M235.66484,162.8692c0.37168,-0.35407 1.05237,-0.24284 1.52038,0.24844c0.46801,0.49128 0.54611,1.17658 0.17443,1.53065c-0.37168,0.35407 -1.05237,0.24283 -1.52038,-0.24845c-0.46801,-0.49128 -0.54611,-1.17657 -0.17443,-1.53064z" fill="#ffffc8" stroke="none" stroke-width="0" stroke-linecap="butt"/><path d="M236.48489,164.41672c0,1.12541 -1.03549,2.03772 -2.31283,2.03772c-1.27733,0 -2.31283,-0.91232 -2.31283,-2.03772c0,-1.12541 1.03549,-2.03773 2.31283,-2.03773c1.27733,0 2.31283,0.91232 2.31283,2.03773z" fill="#ffaa00" stroke="none" stroke-width="0" stroke-linecap="butt"/><path d="M236.79901,164.45735c0.47229,0.20112 0.63966,0.87023 0.37382,1.49451c-0.26584,0.62428 -0.86422,0.96732 -1.33651,0.7662c-0.47229,-0.20112 -0.63965,-0.87023 -0.37381,-1.49451c0.26584,-0.62428 0.86421,-0.96732 1.3365,-0.7662z" fill="#ffffc8" stroke="none" stroke-width="0" stroke-linecap="butt"/><path d="M231.22603,165.02414c0.31677,-0.40394 1.00639,-0.39198 1.54032,0.02673c0.53393,0.4187 0.70997,1.08559 0.3932,1.48953c-0.31677,0.40394 -1.00639,0.39197 -1.54031,-0.02674c-0.53393,-0.4187 -0.70998,-1.08558 -0.39321,-1.48952z" fill="#ffffc8" stroke="none" stroke-width="0" stroke-linecap="butt"/><path d="M232.641,166.36847c-0.04479,-0.63382 0.59806,-1.19563 1.43584,-1.25484c0.83778,-0.05921 1.55326,0.40661 1.59805,1.04043c0.04479,0.63382 -0.59805,1.19562 -1.43584,1.25483c-0.83778,0.05921 -1.55326,-0.4066 -1.59806,-1.04042z" fill="#ffffc8" stroke="none" stroke-width="0" stroke-linecap="butt"/><path d="M232.73759,163.13782c0,0 1.12379,0.15413 1.66763,0.32894c0.54574,0.17541 1.60114,0.72173 1.60114,0.72173" fill="none" stroke="#563c00" stroke-width="0.5" stroke-linecap="round"/><path d="M232.71948,164.76203c0,0 0.82488,-0.85551 1.28571,-1.19645c0.45923,-0.33975 1.47448,-0.84565 1.47448,-0.84565" data-paper-data="{&quot;index&quot;:null}" fill="none" stroke="#563c00" stroke-width="0.5" stroke-linecap="round"/></g><g><path d="M242.86189,164.30299c0.1685,0.48489 -0.21448,1.05851 -0.85541,1.28124c-0.64093,0.22272 -1.29709,0.01019 -1.46559,-0.4747c-0.1685,-0.48489 0.21448,-1.05851 0.85541,-1.28123c0.64093,-0.22272 1.29709,-0.0102 1.46559,0.47469z" fill="#ffffc8" stroke="none" stroke-width="0" stroke-linecap="butt"/><path d="M245.14984,165.20961c-0.1778,0.48155 -0.83794,0.68142 -1.47446,0.4464c-0.63652,-0.23502 -1.00839,-0.81591 -0.83059,-1.29746c0.1778,-0.48155 0.83793,-0.68141 1.47445,-0.44639c0.63652,0.23502 1.00839,0.8159 0.8306,1.29745z" fill="#ffffc8" stroke="none" stroke-width="0" stroke-linecap="butt"/><path d="M240.97946,164.91896c0.44768,0.25117 0.54146,0.9345 0.20946,1.52625c-0.332,0.59175 -0.96407,0.86783 -1.41175,0.61666c-0.44768,-0.25117 -0.54145,-0.93449 -0.20945,-1.52624c0.332,-0.59175 0.96406,-0.86784 1.41174,-0.61667z" fill="#ffffc8" stroke="none" stroke-width="0" stroke-linecap="butt"/><path d="M244.43407,165.02304c0.37168,-0.35407 1.05238,-0.24283 1.52038,0.24845c0.46801,0.49128 0.5461,1.17657 0.17443,1.53064c-0.37168,0.35407 -1.05237,0.24283 -1.52037,-0.24845c-0.46801,-0.49128 -0.54611,-1.17657 -0.17444,-1.53064z" fill="#ffffc8" stroke="none" stroke-width="0" stroke-linecap="butt"/><path d="M245.25413,166.57057c0,1.12541 -1.03549,2.03772 -2.31283,2.03772c-1.27733,0 -2.31283,-0.91232 -2.31283,-2.03772c0,-1.12541 1.03549,-2.03773 2.31283,-2.03773c1.27733,0 2.31283,0.91232 2.31283,2.03773z" fill="#ffaa00" stroke="none" stroke-width="0" stroke-linecap="butt"/><path d="M245.56825,166.61119c0.47229,0.20112 0.63967,0.87024 0.37383,1.49451c-0.26584,0.62428 -0.86422,0.96731 -1.33651,0.76619c-0.47229,-0.20112 -0.63966,-0.87023 -0.37382,-1.49451c0.26584,-0.62428 0.86421,-0.96732 1.3365,-0.7662z" fill="#ffffc8" stroke="none" stroke-width="0" stroke-linecap="butt"/><path d="M239.99526,167.17799c0.31677,-0.40394 1.00639,-0.39198 1.54032,0.02673c0.53393,0.4187 0.70997,1.08559 0.39321,1.48953c-0.31677,0.40394 -1.00639,0.39197 -1.54032,-0.02674c-0.53393,-0.4187 -0.70997,-1.08558 -0.39321,-1.48952z" fill="#ffffc8" stroke="none" stroke-width="0" stroke-linecap="butt"/><path d="M241.41024,168.52232c-0.04479,-0.63382 0.59805,-1.19563 1.43584,-1.25484c0.83778,-0.05921 1.55326,0.40661 1.59806,1.04043c0.04479,0.63382 -0.59806,1.19562 -1.43584,1.25483c-0.83778,0.05921 -1.55326,-0.4066 -1.59805,-1.04042z" fill="#ffffc8" stroke="none" stroke-width="0" stroke-linecap="butt"/><path d="M241.50682,165.29166c0,0 1.12379,0.15413 1.66763,0.32894c0.54574,0.17541 1.60114,0.72173 1.60114,0.72173" fill="none" stroke="#563c00" stroke-width="0.5" stroke-linecap="round"/><path d="M241.48872,166.91587c0,0 0.82488,-0.85551 1.28571,-1.19645c0.45923,-0.33975 1.47448,-0.84565 1.47448,-0.84565" data-paper-data="{&quot;index&quot;:null}" fill="none" stroke="#563c00" stroke-width="0.5" stroke-linecap="round"/></g><g><path d="M251.2465,161.37991c0.1685,0.48489 -0.21448,1.05851 -0.85541,1.28124c-0.64093,0.22272 -1.29709,0.01019 -1.46559,-0.4747c-0.1685,-0.48489 0.21448,-1.05851 0.85541,-1.28123c0.64093,-0.22272 1.29709,-0.0102 1.46559,0.47469z" fill="#ffffc8" stroke="none" stroke-width="0" stroke-linecap="butt"/><path d="M253.53446,162.28654c-0.1778,0.48155 -0.83794,0.68142 -1.47446,0.4464c-0.63652,-0.23502 -1.00839,-0.81591 -0.83059,-1.29746c0.1778,-0.48155 0.83793,-0.68141 1.47445,-0.44639c0.63652,0.23502 1.00839,0.8159 0.8306,1.29745z" fill="#ffffc8" stroke="none" stroke-width="0" stroke-linecap="butt"/><path d="M249.36407,161.99589c0.44768,0.25117 0.54146,0.9345 0.20946,1.52625c-0.332,0.59175 -0.96407,0.86783 -1.41175,0.61666c-0.44768,-0.25117 -0.54145,-0.93449 -0.20945,-1.52624c0.332,-0.59175 0.96406,-0.86784 1.41174,-0.61667z" fill="#ffffc8" stroke="none" stroke-width="0" stroke-linecap="butt"/><path d="M252.81869,162.09997c0.37168,-0.35407 1.05238,-0.24283 1.52038,0.24845c0.46801,0.49128 0.5461,1.17657 0.17443,1.53064c-0.37168,0.35407 -1.05237,0.24283 -1.52037,-0.24845c-0.46801,-0.49128 -0.54611,-1.17657 -0.17444,-1.53064z" fill="#ffffc8" stroke="none" stroke-width="0" stroke-linecap="butt"/><path d="M253.63874,163.64749c0,1.12541 -1.03549,2.03772 -2.31283,2.03772c-1.27733,0 -2.31283,-0.91232 -2.31283,-2.03772c0,-1.12541 1.03549,-2.03773 2.31283,-2.03773c1.27733,0 2.31283,0.91232 2.31283,2.03773z" fill="#ffaa00" stroke="none" stroke-width="0" stroke-linecap="butt"/><path d="M253.95286,163.68812c0.47229,0.20112 0.63967,0.87024 0.37383,1.49451c-0.26584,0.62428 -0.86422,0.96731 -1.33651,0.76619c-0.47229,-0.20112 -0.63966,-0.87023 -0.37382,-1.49451c0.26584,-0.62428 0.86421,-0.96732 1.3365,-0.7662z" fill="#ffffc8" stroke="none" stroke-width="0" stroke-linecap="butt"/><path d="M248.37988,164.25491c0.31677,-0.40394 1.00639,-0.39198 1.54032,0.02673c0.53393,0.4187 0.70997,1.08559 0.39321,1.48953c-0.31677,0.40394 -1.00639,0.39197 -1.54032,-0.02674c-0.53393,-0.4187 -0.70997,-1.08558 -0.39321,-1.48952z" fill="#ffffc8" stroke="none" stroke-width="0" stroke-linecap="butt"/><path d="M249.79485,165.59924c-0.04479,-0.63382 0.59805,-1.19563 1.43584,-1.25484c0.83778,-0.05921 1.55326,0.40661 1.59806,1.04043c0.04479,0.63382 -0.59806,1.19562 -1.43584,1.25483c-0.83778,0.05921 -1.55326,-0.4066 -1.59805,-1.04042z" fill="#ffffc8" stroke="none" stroke-width="0" stroke-linecap="butt"/><path d="M249.89144,162.36859c0,0 1.12379,0.15413 1.66763,0.32894c0.54574,0.17541 1.60114,0.72173 1.60114,0.72173" fill="none" stroke="#563c00" stroke-width="0.5" stroke-linecap="round"/><path d="M249.87333,163.9928c0,0 0.82488,-0.85551 1.28571,-1.19645c0.45923,-0.33975 1.47448,-0.84565 1.47448,-0.84565" data-paper-data="{&quot;index&quot;:null}" fill="none" stroke="#563c00" stroke-width="0.5" stroke-linecap="round"/></g><g><path d="M259.55419,159.61068c0.1685,0.48489 -0.21448,1.05851 -0.85541,1.28124c-0.64093,0.22272 -1.2971,0.01019 -1.46559,-0.4747c-0.1685,-0.48489 0.21448,-1.05851 0.85541,-1.28123c0.64093,-0.22272 1.29709,-0.0102 1.46559,0.47469z" fill="#ffffc8" stroke="none" stroke-width="0" stroke-linecap="butt"/><path d="M261.84215,160.51731c-0.1778,0.48155 -0.83794,0.68142 -1.47446,0.4464c-0.63652,-0.23502 -1.00839,-0.81591 -0.83059,-1.29746c0.1778,-0.48155 0.83793,-0.68141 1.47445,-0.44639c0.63652,0.23502 1.00839,0.8159 0.8306,1.29745z" fill="#ffffc8" stroke="none" stroke-width="0" stroke-linecap="butt"/><path d="M257.67176,160.22666c0.44768,0.25117 0.54146,0.9345 0.20946,1.52625c-0.332,0.59175 -0.96407,0.86783 -1.41175,0.61666c-0.44768,-0.25117 -0.54145,-0.93449 -0.20945,-1.52624c0.332,-0.59175 0.96406,-0.86784 1.41174,-0.61667z" fill="#ffffc8" stroke="none" stroke-width="0" stroke-linecap="butt"/><path d="M261.12638,160.33074c0.37167,-0.35407 1.05237,-0.24283 1.52038,0.24845c0.468,0.49128 0.5461,1.17657 0.17443,1.53064c-0.37167,0.35407 -1.05237,0.24283 -1.52037,-0.24845c-0.46801,-0.49128 -0.54611,-1.17657 -0.17444,-1.53064z" fill="#ffffc8" stroke="none" stroke-width="0" stroke-linecap="butt"/><path d="M261.94643,161.87826c0,1.12541 -1.03549,2.03772 -2.31283,2.03772c-1.27733,0 -2.31283,-0.91232 -2.31283,-2.03772c0,-1.12541 1.03549,-2.03773 2.31283,-2.03773c1.27733,0 2.31283,0.91232 2.31283,2.03773z" fill="#ffaa00" stroke="none" stroke-width="0" stroke-linecap="butt"/><path d="M262.26055,161.91889c0.47229,0.20112 0.63966,0.87024 0.37383,1.49451c-0.26584,0.62428 -0.86422,0.96731 -1.33651,0.76619c-0.47229,-0.20112 -0.63965,-0.87023 -0.37381,-1.49451c0.26584,-0.62428 0.86421,-0.96732 1.3365,-0.7662z" fill="#ffffc8" stroke="none" stroke-width="0" stroke-linecap="butt"/><path d="M256.68757,162.48568c0.31676,-0.40394 1.00639,-0.39198 1.54032,0.02673c0.53393,0.4187 0.70997,1.08559 0.39321,1.48953c-0.31676,0.40394 -1.00639,0.39197 -1.54032,-0.02674c-0.53393,-0.4187 -0.70997,-1.08558 -0.39321,-1.48952z" fill="#ffffc8" stroke="none" stroke-width="0" stroke-linecap="butt"/><path d="M258.10254,163.83001c-0.04479,-0.63382 0.59805,-1.19563 1.43584,-1.25484c0.83778,-0.05921 1.55326,0.40661 1.59805,1.04043c0.0448,0.63382 -0.59805,1.19562 -1.43584,1.25483c-0.83778,0.05921 -1.55326,-0.4066 -1.59805,-1.04042z" fill="#ffffc8" stroke="none" stroke-width="0" stroke-linecap="butt"/><path d="M258.19913,160.59936c0,0 1.12379,0.15413 1.66763,0.32894c0.54574,0.17541 1.60114,0.72173 1.60114,0.72173" fill="none" stroke="#563c00" stroke-width="0.5" stroke-linecap="round"/><path d="M258.18102,162.22357c0,0 0.82488,-0.85551 1.28571,-1.19645c0.45923,-0.33975 1.47448,-0.84565 1.47448,-0.84565" data-paper-data="{&quot;index&quot;:null}" fill="none" stroke="#563c00" stroke-width="0.5" stroke-linecap="round"/></g></g></g></svg>