<svg version="1.1" xmlns="http://www.w3.org/2000/svg" xmlns:xlink="http://www.w3.org/1999/xlink" width="62.44658" height="60.26072" viewBox="0,0,62.44658,60.26072"><defs><linearGradient x1="271.06156" y1="121.10233" x2="271.06156" y2="179.86304" gradientUnits="userSpaceOnUse" id="color-1"><stop offset="0" stop-color="#545f96"/><stop offset="1" stop-color="#2a3569"/></linearGradient><linearGradient x1="270.9654" y1="137.49972" x2="270.9654" y2="163.92828" gradientUnits="userSpaceOnUse" id="color-2"><stop offset="0" stop-color="#2679d1"/><stop offset="1" stop-color="#6fa3de"/></linearGradient><radialGradient cx="270.9654" cy="151.39582" r="19.92857" gradientUnits="userSpaceOnUse" id="color-3"><stop offset="0" stop-color="#000000"/><stop offset="1" stop-color="#000000" stop-opacity="0"/></radialGradient><linearGradient x1="270.89207" y1="167.57145" x2="270.89207" y2="180.14317" gradientUnits="userSpaceOnUse" id="color-4"><stop offset="0" stop-color="#5a76ff"/><stop offset="1" stop-color="#2843c8"/></linearGradient><linearGradient x1="270.80304" y1="131.42179" x2="270.80304" y2="137.6036" gradientUnits="userSpaceOnUse" id="color-5"><stop offset="0" stop-color="#b8caff"/><stop offset="1" stop-color="#3882ff"/></linearGradient><linearGradient x1="260.62122" y1="129.23997" x2="260.62122" y2="131.6036" gradientUnits="userSpaceOnUse" id="color-6"><stop offset="0" stop-color="#a9c4ff"/><stop offset="1" stop-color="#d8dcff"/></linearGradient><linearGradient x1="282.62122" y1="125.5127" x2="282.62122" y2="131.51269" gradientUnits="userSpaceOnUse" id="color-7"><stop offset="0" stop-color="#a9c4ff"/><stop offset="1" stop-color="#d8dcff"/></linearGradient><radialGradient cx="271.01847" cy="149.96751" r="13.15108" gradientUnits="userSpaceOnUse" id="color-8"><stop offset="0" stop-color="#ffffff"/><stop offset="1" stop-color="#ffffff" stop-opacity="0"/></radialGradient></defs><g transform="translate(-239.79675,-120.35231)"><g data-paper-data="{&quot;isPaintingLayer&quot;:true}" fill-rule="nonzero" stroke-linejoin="miter" stroke-miterlimit="10" stroke-dasharray="" stroke-dashoffset="0" style="mix-blend-mode: normal"><path d="M240.54676,179.86304v-58.76072h60.94658v58.76072z" fill="url(#color-1)" stroke="#2843c8" stroke-width="1.5" stroke-linecap="butt"/><path d="M290.89396,137.49972v26.42857c0,0 -14.56457,1.36364 -21.45456,1.36364c-6.35192,0 -18.40258,-1.36364 -18.40258,-1.36364v-26.42857z" fill="url(#color-2)" stroke="url(#color-3)" stroke-width="4" stroke-linecap="round"/><path d="M239.96363,180.14317v-12.57143h61.85715v12.57143z" fill="url(#color-4)" stroke="none" stroke-width="0" stroke-linecap="butt"/><path d="M246.80304,137.6036v-6.18182c0,0 27.6048,0 36.36364,0c4.95475,0 11.63636,0 11.63636,0v6.18182z" fill="url(#color-5)" stroke="none" stroke-width="0" stroke-linecap="butt"/><path d="M255.62122,131.6036v-2.36364h10v2.36364z" fill="url(#color-6)" stroke="none" stroke-width="0" stroke-linecap="butt"/><path d="M277.62122,131.51269v-6h10v6z" fill="url(#color-7)" stroke="none" stroke-width="0" stroke-linecap="butt"/><path d="M264.36667,153.1837l9.46755,-13.34939l-1.83599,9.63316l5.38131,0.57878l-10.35516,12.83008l2.5303,-9.24749z" fill="url(#color-8)" stroke="none" stroke-width="0" stroke-linecap="round"/></g></g></svg>