<svg version="1.1" xmlns="http://www.w3.org/2000/svg" xmlns:xlink="http://www.w3.org/1999/xlink" width="19.67221" height="19.83667" viewBox="0,0,19.67221,19.83667"><defs><radialGradient cx="248.80794" cy="171.52941" r="5.32353" gradientUnits="userSpaceOnUse" id="color-1"><stop offset="0" stop-color="#ff0000"/><stop offset="1" stop-color="#003838"/></radialGradient><radialGradient cx="248.80794" cy="171.52941" r="5.32353" gradientUnits="userSpaceOnUse" id="color-2"><stop offset="0" stop-color="#710000" stop-opacity="0"/><stop offset="1" stop-color="#710000" stop-opacity="0"/></radialGradient><radialGradient cx="248.95485" cy="171.10363" r="8.97222" gradientUnits="userSpaceOnUse" id="color-3"><stop offset="0" stop-color="#710000"/><stop offset="1" stop-color="#710000" stop-opacity="0"/></radialGradient><radialGradient cx="248.86361" cy="171.36339" r="8.97222" gradientUnits="userSpaceOnUse" id="color-4"><stop offset="0" stop-color="#710000"/><stop offset="1" stop-color="#710000" stop-opacity="0"/></radialGradient><radialGradient cx="248.8636" cy="171.36339" r="8.97222" gradientUnits="userSpaceOnUse" id="color-5"><stop offset="0" stop-color="#710000"/><stop offset="1" stop-color="#710000" stop-opacity="0"/></radialGradient><radialGradient cx="248.8636" cy="171.36339" r="8.97222" gradientUnits="userSpaceOnUse" id="color-6"><stop offset="0" stop-color="#710000"/><stop offset="1" stop-color="#710000" stop-opacity="0"/></radialGradient><radialGradient cx="248.9533" cy="171.16994" r="8.97222" gradientUnits="userSpaceOnUse" id="color-7"><stop offset="0" stop-color="#ff9696"/><stop offset="1" stop-color="#ff9696" stop-opacity="0"/></radialGradient><radialGradient cx="248.97223" cy="171.4446" r="8.97222" gradientUnits="userSpaceOnUse" id="color-8"><stop offset="0" stop-color="#ff9696"/><stop offset="1" stop-color="#ff9696" stop-opacity="0"/></radialGradient><radialGradient cx="248.97222" cy="171.4446" r="8.97222" gradientUnits="userSpaceOnUse" id="color-9"><stop offset="0" stop-color="#ff9696"/><stop offset="1" stop-color="#ff9696" stop-opacity="0"/></radialGradient><radialGradient cx="248.97222" cy="171.4446" r="8.97222" gradientUnits="userSpaceOnUse" id="color-10"><stop offset="0" stop-color="#ff9696"/><stop offset="1" stop-color="#ff9696" stop-opacity="0"/></radialGradient></defs><g transform="translate(-239.02749,-161.36283)"><g data-paper-data="{&quot;isPaintingLayer&quot;:true}" fill-rule="nonzero" stroke-linejoin="miter" stroke-miterlimit="10" stroke-dasharray="" stroke-dashoffset="0" style="mix-blend-mode: normal"><path d="M243.48441,171.52941c0,-2.94011 2.38343,-5.32353 5.32353,-5.32353c2.94011,0 5.32353,2.38343 5.32353,5.32353c0,2.94011 -2.38342,5.32353 -5.32353,5.32353c-2.94011,0 -5.32353,-2.38342 -5.32353,-5.32353z" fill="url(#color-1)" stroke="url(#color-2)" stroke-width="0" stroke-linecap="butt"/><g fill="none" stroke-width="3" stroke-linecap="round"><path d="M252.50307,162.86283l-7.09645,16.48161" stroke="url(#color-3)"/><path d="M240.6228,167.81516l16.48162,7.09645" stroke="url(#color-4)"/><path d="M240.5275,174.68154l16.67221,-6.6363" stroke="url(#color-5)"/><path d="M245.54545,163.02728l6.6363,16.67222" stroke="url(#color-6)"/></g><g fill="none" stroke-width="1.5" stroke-linecap="round"><path d="M248.9533,162.19772v17.94444" stroke="url(#color-7)"/><path d="M240,171.4446h17.94445" stroke="url(#color-8)"/><path d="M242.6279,177.78892l12.68864,-12.68864" stroke="url(#color-9)"/><path d="M242.6279,165.10028l12.68864,12.68865" stroke="url(#color-10)"/></g></g></g></svg>