<svg version="1.1" xmlns="http://www.w3.org/2000/svg" xmlns:xlink="http://www.w3.org/1999/xlink" width="240.70588" height="184.23529" viewBox="0,0,240.70588,184.23529"><defs><linearGradient x1="120" y1="88.23529" x2="120" y2="271.76471" gradientUnits="userSpaceOnUse" id="color-1"><stop offset="0" stop-color="#5a950d"/><stop offset="1" stop-color="#203504"/></linearGradient></defs><g transform="translate(-119.64706,-87.88235)"><g data-paper-data="{&quot;isPaintingLayer&quot;:true}" fill-rule="nonzero" stroke-linejoin="miter" stroke-miterlimit="10" stroke-dasharray="" stroke-dashoffset="0" style="mix-blend-mode: normal"><path d="M120,271.76471v-183.52941h240v183.52941z" fill="url(#color-1)" stroke="none" stroke-width="1" stroke-linecap="butt"/><path d="M120,88.23529h240" fill="#000000" stroke-opacity="0.5" stroke="#ffffff" stroke-width="0.70588" stroke-linecap="butt"/><path d="M120,102.35294h240" fill="#000000" stroke-opacity="0.5" stroke="#ffffff" stroke-width="0.70588" stroke-linecap="butt"/><path d="M120,116.47059h240" fill="#000000" stroke-opacity="0.5" stroke="#ffffff" stroke-width="0.70588" stroke-linecap="butt"/><path d="M120,130.58824h240" fill="#000000" stroke-opacity="0.5" stroke="#ffffff" stroke-width="0.70588" stroke-linecap="butt"/><path d="M120,144.70588h240" fill="#000000" stroke-opacity="0.5" stroke="#ffffff" stroke-width="0.70588" stroke-linecap="butt"/><path d="M120,158.82353h240" fill="#000000" stroke-opacity="0.5" stroke="#ffffff" stroke-width="0.70588" stroke-linecap="butt"/><path d="M120,172.94118h240" fill="#000000" stroke-opacity="0.5" stroke="#ffffff" stroke-width="0.70588" stroke-linecap="butt"/><path d="M120,187.05882h240" fill="#000000" stroke-opacity="0.5" stroke="#ffffff" stroke-width="0.70588" stroke-linecap="butt"/><path d="M120,201.17647h240" fill="#000000" stroke-opacity="0.5" stroke="#ffffff" stroke-width="0.70588" stroke-linecap="butt"/><path d="M120,215.29412h240" fill="#000000" stroke-opacity="0.5" stroke="#ffffff" stroke-width="0.70588" stroke-linecap="butt"/><path d="M120,229.41176h240" fill="#000000" stroke-opacity="0.5" stroke="#ffffff" stroke-width="0.70588" stroke-linecap="butt"/><path d="M120,243.52941h240" fill="#000000" stroke-opacity="0.5" stroke="#ffffff" stroke-width="0.70588" stroke-linecap="butt"/><path d="M120,257.64706h240" fill="#000000" stroke-opacity="0.5" stroke="#ffffff" stroke-width="0.70588" stroke-linecap="butt"/><path d="M120,271.76471h240" fill="#000000" stroke-opacity="0.5" stroke="#ffffff" stroke-width="0.70588" stroke-linecap="butt"/><path d="M120,88.23529v183.52941" fill="#000000" stroke-opacity="0.5" stroke="#ffffff" stroke-width="0.70588" stroke-linecap="butt"/><path d="M134.11765,88.23529v183.52941" fill="#000000" stroke-opacity="0.5" stroke="#ffffff" stroke-width="0.70588" stroke-linecap="butt"/><path d="M148.23529,88.23529v183.52941" fill="#000000" stroke-opacity="0.5" stroke="#ffffff" stroke-width="0.70588" stroke-linecap="butt"/><path d="M162.35294,88.23529v183.52941" fill="#000000" stroke-opacity="0.5" stroke="#ffffff" stroke-width="0.70588" stroke-linecap="butt"/><path d="M176.47059,88.23529v183.52941" fill="#000000" stroke-opacity="0.5" stroke="#ffffff" stroke-width="0.70588" stroke-linecap="butt"/><path d="M190.58824,271.76471v-183.52941" fill="#000000" stroke-opacity="0.5" stroke="#ffffff" stroke-width="0.70588" stroke-linecap="butt"/><path d="M204.70588,88.23529v183.52941" fill="#000000" stroke-opacity="0.5" stroke="#ffffff" stroke-width="0.70588" stroke-linecap="butt"/><path d="M218.82353,88.23529v183.52941" fill="#000000" stroke-opacity="0.5" stroke="#ffffff" stroke-width="0.70588" stroke-linecap="butt"/><path d="M232.94118,88.23529v183.52941" fill="#000000" stroke-opacity="0.5" stroke="#ffffff" stroke-width="0.70588" stroke-linecap="butt"/><path d="M247.05882,271.76471v-183.52941" fill="#000000" stroke-opacity="0.5" stroke="#ffffff" stroke-width="0.70588" stroke-linecap="butt"/><path d="M261.17647,271.76471v-183.52941" fill="#000000" stroke-opacity="0.5" stroke="#ffffff" stroke-width="0.70588" stroke-linecap="butt"/><path d="M275.29412,88.23529v183.52941" fill="#000000" stroke-opacity="0.5" stroke="#ffffff" stroke-width="0.70588" stroke-linecap="butt"/><path d="M289.41176,88.23529v183.52941" fill="#000000" stroke-opacity="0.5" stroke="#ffffff" stroke-width="0.70588" stroke-linecap="butt"/><path d="M303.52941,88.23529v183.52941" fill="#000000" stroke-opacity="0.5" stroke="#ffffff" stroke-width="0.70588" stroke-linecap="butt"/><path d="M317.64706,88.23529v183.52941" fill="#000000" stroke-opacity="0.5" stroke="#ffffff" stroke-width="0.70588" stroke-linecap="butt"/><path d="M331.76471,271.76471v-183.52941" fill="#000000" stroke-opacity="0.5" stroke="#ffffff" stroke-width="0.70588" stroke-linecap="butt"/><path d="M345.88235,88.23529v183.52941" fill="#000000" stroke-opacity="0.5" stroke="#ffffff" stroke-width="0.70588" stroke-linecap="butt"/><path d="M360,271.76471v-183.52941" fill="#000000" stroke-opacity="0.5" stroke="#ffffff" stroke-width="0.70588" stroke-linecap="butt"/><path d="M211.76471,250.58824h-14.11765" fill="#000000" stroke-opacity="0.5" stroke="#a3ff33" stroke-width="13.41176" stroke-linecap="round"/><path d="M197.64706,236.47059h14.11765" fill="#000000" stroke-opacity="0.5" stroke="#a3ff33" stroke-width="13.41176" stroke-linecap="round"/><path d="M310.58824,250.58824v-112.94118" fill="#000000" stroke-opacity="0.5" stroke="#a3ff33" stroke-width="13.41176" stroke-linecap="round"/><path d="M324.70588,250.58824v-112.94118" fill="#000000" stroke-opacity="0.5" stroke="#a3ff33" stroke-width="13.41176" stroke-linecap="round"/><path d="M338.82353,250.58824v-112.94118" fill="#000000" stroke-opacity="0.5" stroke="#a3ff33" stroke-width="13.41176" stroke-linecap="round"/><path d="M141.17647,180h70.58824" fill="#000000" stroke-opacity="0.5" stroke="#a3ff33" stroke-width="13.41176" stroke-linecap="round"/><path d="M211.76471,109.41176v70.58824" fill="#000000" stroke-opacity="0.5" stroke="#a3ff33" stroke-width="13.41176" stroke-linecap="round"/><path d="M197.64706,165.88235h-42.35294" fill="#000000" stroke-opacity="0.5" stroke="#a3ff33" stroke-width="13.41176" stroke-linecap="round"/><path d="M197.64706,165.88235v-42.35294" fill="#000000" stroke-opacity="0.5" stroke="#a3ff33" stroke-width="13.41176" stroke-linecap="round"/><path d="M169.41176,151.76471h14.11765" fill="#000000" stroke-opacity="0.5" stroke="#a3ff33" stroke-width="13.41176" stroke-linecap="round"/><path d="M183.52941,151.76471v-14.11765" fill="#000000" stroke-opacity="0.5" stroke="#a3ff33" stroke-width="13.41176" stroke-linecap="round"/><path d="M211.76471,250.58824h-14.11765" fill="#000000" stroke="#2d456f" stroke-width="9.17647" stroke-linecap="round"/><path d="M197.64706,236.47059h14.11765" fill="#000000" stroke="#2d456f" stroke-width="9.17647" stroke-linecap="round"/><path d="M310.58824,250.58824v-112.94118" fill="#000000" stroke="#2d456f" stroke-width="9.17647" stroke-linecap="round"/><path d="M324.70588,250.58824v-112.94118" fill="#000000" stroke="#2d456f" stroke-width="9.17647" stroke-linecap="round"/><path d="M338.82353,250.58824v-112.94118" fill="#000000" stroke="#2d456f" stroke-width="9.17647" stroke-linecap="round"/><path d="M141.17647,180h70.58824" fill="#000000" stroke="#2d456f" stroke-width="9.17647" stroke-linecap="round"/><path d="M211.76471,109.41176v70.58824" fill="#000000" stroke="#2d456f" stroke-width="9.17647" stroke-linecap="round"/><path d="M197.64706,165.88235h-42.35294" fill="#000000" stroke="#2d456f" stroke-width="9.17647" stroke-linecap="round"/><path d="M197.64706,165.88235v-42.35294" fill="#000000" stroke="#2d456f" stroke-width="9.17647" stroke-linecap="round"/><path d="M169.41176,151.76471h14.11765" fill="#000000" stroke="#2d456f" stroke-width="9.17647" stroke-linecap="round"/><path d="M183.52941,151.76471v-14.11765" fill="#000000" stroke="#2d456f" stroke-width="9.17647" stroke-linecap="round"/><path d="M127.05882,257.64706c-3.89848,0 -7.05882,-3.16034 -7.05882,-7.05882v0c0,-3.89848 3.16034,-7.05882 7.05882,-7.05882h42.35294c3.89848,0 7.05882,3.16034 7.05882,7.05882v0c0,3.89848 -3.16034,7.05882 -7.05882,7.05882z" fill="#bcd5e0" stroke="none" stroke-width="1" stroke-linecap="butt"/><path d="M169.41176,257.64706c-3.89848,0 -7.05882,-3.16034 -7.05882,-7.05882v-42.35294c0,-3.89848 3.16034,-7.05882 7.05882,-7.05882v0c3.89848,0 7.05882,3.16034 7.05882,7.05882v42.35294c0,3.89848 -3.16034,7.05882 -7.05882,7.05882z" fill="#bcd5e0" stroke="none" stroke-width="1" stroke-linecap="butt"/><path d="M169.41176,215.29412c-3.89848,0 -7.05882,-3.16034 -7.05882,-7.05882v0c0,-3.89848 3.16034,-7.05882 7.05882,-7.05882h70.58824c3.89848,0 7.05882,3.16034 7.05882,7.05882v0c0,3.89848 -3.16034,7.05882 -7.05882,7.05882z" fill="#bcd5e0" stroke="none" stroke-width="1" stroke-linecap="butt"/><path d="M240,243.52941c-3.89848,0 -7.05882,-3.16034 -7.05882,-7.05882v-28.23529c0,-3.89848 3.16034,-7.05882 7.05882,-7.05882v0c3.89848,0 7.05882,3.16034 7.05882,7.05882v28.23529c0,3.89848 -3.16034,7.05882 -7.05882,7.05882z" fill="#bcd5e0" stroke="none" stroke-width="1" stroke-linecap="butt"/><path d="M240,243.52941c-3.89848,0 -7.05882,-3.16034 -7.05882,-7.05882v0c0,-3.89848 3.16034,-7.05882 7.05882,-7.05882h42.35294c3.89848,0 7.05882,3.16034 7.05882,7.05882v0c0,3.89848 -3.16034,7.05882 -7.05882,7.05882z" fill="#bcd5e0" stroke="none" stroke-width="1" stroke-linecap="butt"/><path d="M282.35294,243.52941c-3.89848,0 -7.05882,-3.16034 -7.05882,-7.05882v-84.70588c0,-3.89848 3.16034,-7.05882 7.05882,-7.05882v0c3.89848,0 7.05882,3.16034 7.05882,7.05882v84.70588c0,3.89848 -3.16034,7.05882 -7.05882,7.05882z" fill="#bcd5e0" stroke="none" stroke-width="1" stroke-linecap="butt"/><path d="M240,158.82353c-3.89848,0 -7.05882,-3.16034 -7.05882,-7.05882v0c0,-3.89848 3.16034,-7.05882 7.05882,-7.05882h42.35294c3.89848,0 7.05882,3.16034 7.05882,7.05882v0c0,3.89848 -3.16034,7.05882 -7.05882,7.05882z" fill="#bcd5e0" stroke="none" stroke-width="1" stroke-linecap="butt"/><path d="M240,158.82353c-3.89848,0 -7.05882,-3.16034 -7.05882,-7.05882v-42.35294c0,-3.89848 3.16034,-7.05882 7.05882,-7.05882v0c3.89848,0 7.05882,3.16034 7.05882,7.05882v42.35294c0,3.89848 -3.16034,7.05882 -7.05882,7.05882z" fill="#bcd5e0" stroke="none" stroke-width="1" stroke-linecap="butt"/><path d="M240,116.47059c-3.89848,0 -7.05882,-3.16034 -7.05882,-7.05882v0c0,-3.89848 3.16034,-7.05882 7.05882,-7.05882h112.94118c3.89848,0 7.05882,3.16034 7.05882,7.05882v0c0,3.89848 -3.16034,7.05882 -7.05882,7.05882z" fill="#bcd5e0" stroke="none" stroke-width="1" stroke-linecap="butt"/><path d="M169.41176,250.58824h-42.35294" fill="#000000" stroke="#213a34" stroke-width="10.58824" stroke-linecap="round"/><path d="M169.41176,250.58824v-42.35294" fill="#000000" stroke="#213a34" stroke-width="10.58824" stroke-linecap="round"/><path d="M169.41176,208.23529h70.58824" fill="#000000" stroke="#213a34" stroke-width="10.58824" stroke-linecap="round"/><path d="M240,208.23529v28.23529" fill="#000000" stroke="#213a34" stroke-width="10.58824" stroke-linecap="round"/><path d="M240,236.47059h42.35294" fill="#000000" stroke="#213a34" stroke-width="10.58824" stroke-linecap="round"/><path d="M282.35294,236.47059v-84.70588" fill="#000000" stroke="#213a34" stroke-width="10.58824" stroke-linecap="round"/><path d="M282.35294,151.76471h-42.35294" fill="#000000" stroke="#213a34" stroke-width="10.58824" stroke-linecap="round"/><path d="M240,109.41176v42.35294" fill="#000000" stroke="#213a34" stroke-width="10.58824" stroke-linecap="round"/><path d="M240,109.41176h112.94118" fill="#000000" stroke="#213a34" stroke-width="10.58824" stroke-linecap="round"/><path d="M276.70588,236.47059c0,-3.11878 2.52827,-5.64706 5.64706,-5.64706c3.11878,0 5.64706,2.52827 5.64706,5.64706c0,3.11878 -2.52827,5.64706 -5.64706,5.64706c-3.11878,0 -5.64706,-2.52827 -5.64706,-5.64706z" fill="#676018" stroke="none" stroke-width="1" stroke-linecap="butt"/><path d="M276.70588,229.41176c0,-3.11878 2.52827,-5.64706 5.64706,-5.64706c3.11878,0 5.64706,2.52827 5.64706,5.64706c0,3.11878 -2.52827,5.64706 -5.64706,5.64706c-3.11878,0 -5.64706,-2.52827 -5.64706,-5.64706z" fill="#948922" stroke="none" stroke-width="1" stroke-linecap="butt"/><path d="M276.70588,222.35294c0,-3.11878 2.52827,-5.64706 5.64706,-5.64706c3.11878,0 5.64706,2.52827 5.64706,5.64706c0,3.11878 -2.52827,5.64706 -5.64706,5.64706c-3.11878,0 -5.64706,-2.52827 -5.64706,-5.64706z" fill="#676018" stroke="none" stroke-width="1" stroke-linecap="butt"/><path d="M276.70588,215.29412c0,-3.11878 2.52827,-5.64706 5.64706,-5.64706c3.11878,0 5.64706,2.52827 5.64706,5.64706c0,3.11878 -2.52827,5.64706 -5.64706,5.64706c-3.11878,0 -5.64706,-2.52827 -5.64706,-5.64706z" fill="#948922" stroke="none" stroke-width="1" stroke-linecap="butt"/><path d="M276.70588,208.23529c0,-3.11878 2.52827,-5.64706 5.64706,-5.64706c3.11878,0 5.64706,2.52827 5.64706,5.64706c0,3.11878 -2.52827,5.64706 -5.64706,5.64706c-3.11878,0 -5.64706,-2.52827 -5.64706,-5.64706z" fill="#676018" stroke="none" stroke-width="1" stroke-linecap="butt"/><path d="M276.70588,201.17647c0,-3.11878 2.52827,-5.64706 5.64706,-5.64706c3.11878,0 5.64706,2.52827 5.64706,5.64706c0,3.11878 -2.52827,5.64706 -5.64706,5.64706c-3.11878,0 -5.64706,-2.52827 -5.64706,-5.64706z" fill="#948922" stroke="none" stroke-width="1" stroke-linecap="butt"/><path d="M276.70588,194.11765c0,-3.11878 2.52827,-5.64706 5.64706,-5.64706c3.11878,0 5.64706,2.52827 5.64706,5.64706c0,3.11878 -2.52827,5.64706 -5.64706,5.64706c-3.11878,0 -5.64706,-2.52827 -5.64706,-5.64706z" fill="#676018" stroke="none" stroke-width="1" stroke-linecap="butt"/><path d="M276.70588,187.05882c0,-3.11878 2.52827,-5.64706 5.64706,-5.64706c3.11878,0 5.64706,2.52827 5.64706,5.64706c0,3.11878 -2.52827,5.64706 -5.64706,5.64706c-3.11878,0 -5.64706,-2.52827 -5.64706,-5.64706z" fill="#948922" stroke="none" stroke-width="1" stroke-linecap="butt"/><path d="M276.70588,180c0,-3.11878 2.52827,-5.64706 5.64706,-5.64706c3.11878,0 5.64706,2.52827 5.64706,5.64706c0,3.11878 -2.52827,5.64706 -5.64706,5.64706c-3.11878,0 -5.64706,-2.52827 -5.64706,-5.64706z" fill="#676018" stroke="none" stroke-width="1" stroke-linecap="butt"/><path d="M276.70588,172.94118c0,-3.11878 2.52827,-5.64706 5.64706,-5.64706c3.11878,0 5.64706,2.52827 5.64706,5.64706c0,3.11878 -2.52827,5.64706 -5.64706,5.64706c-3.11878,0 -5.64706,-2.52827 -5.64706,-5.64706z" fill="#948922" stroke="none" stroke-width="1" stroke-linecap="butt"/><path d="M276.70588,165.88235c0,-3.11878 2.52827,-5.64706 5.64706,-5.64706c3.11878,0 5.64706,2.52827 5.64706,5.64706c0,3.11878 -2.52827,5.64706 -5.64706,5.64706c-3.11878,0 -5.64706,-2.52827 -5.64706,-5.64706z" fill="#676018" stroke="none" stroke-width="1" stroke-linecap="butt"/><path d="M276.70588,158.82353c0,-3.11878 2.52827,-5.64706 5.64706,-5.64706c3.11878,0 5.64706,2.52827 5.64706,5.64706c0,3.11878 -2.52827,5.64706 -5.64706,5.64706c-3.11878,0 -5.64706,-2.52827 -5.64706,-5.64706z" fill="#948922" stroke="none" stroke-width="1" stroke-linecap="butt"/><path d="M276.70588,151.76471c0,-3.11878 2.52827,-5.64706 5.64706,-5.64706c3.11878,0 5.64706,2.52827 5.64706,5.64706c0,3.11878 -2.52827,5.64706 -5.64706,5.64706c-3.11878,0 -5.64706,-2.52827 -5.64706,-5.64706z" fill="#676018" stroke="none" stroke-width="1" stroke-linecap="butt"/><path d="M120,250.58824c0,-3.89848 3.16034,-7.05882 7.05882,-7.05882c3.89848,0 7.05882,3.16034 7.05882,7.05882c0,3.89848 -3.16034,7.05882 -7.05882,7.05882c-3.89848,0 -7.05882,-3.16034 -7.05882,-7.05882z" fill-opacity="0.35" fill="#00ff44" stroke="none" stroke-width="1" stroke-linecap="butt"/><path d="M345.88235,109.41176c0,-3.89848 3.16034,-7.05882 7.05882,-7.05882c3.89848,0 7.05882,3.16034 7.05882,7.05882c0,3.89848 -3.16034,7.05882 -7.05882,7.05882c-3.89848,0 -7.05882,-3.16034 -7.05882,-7.05882z" fill-opacity="0.35" fill="#ff0404" stroke="none" stroke-width="1" stroke-linecap="butt"/></g></g></svg>