<svg width="480px" height="360px" xmlns="http://www.w3.org/2000/svg"><path fill="#F00" d="M252.205 175.666L252.205 175.666Q252.205 176.805 251.740 177.662Q251.275 178.519 250.442 179.088Q249.610 179.657 248.441 179.939Q247.272 180.220 245.864 180.220L245.864 180.220Q245.227 180.220 244.597 180.171Q243.966 180.122 243.385 180.049Q242.803 179.976 242.289 179.878Q241.775 179.780 241.359 179.669L241.359 179.669L241.359 177.564Q242.277 177.907 243.422 178.103Q244.566 178.298 246.023 178.298L246.023 178.298Q247.076 178.298 247.816 178.133Q248.557 177.968 249.028 177.643Q249.500 177.319 249.714 176.854Q249.928 176.389 249.928 175.789L249.928 175.789Q249.928 175.140 249.567 174.681Q249.206 174.222 248.618 173.861Q248.031 173.500 247.278 173.200Q246.525 172.900 245.741 172.581Q244.958 172.263 244.205 171.890Q243.452 171.516 242.865 171.008Q242.277 170.500 241.916 169.815Q241.555 169.129 241.555 168.187L241.555 168.187Q241.555 167.366 241.897 166.571Q242.240 165.775 242.963 165.157Q243.685 164.539 244.817 164.159Q245.950 163.780 247.516 163.780L247.516 163.780Q247.920 163.780 248.392 163.816Q248.863 163.853 249.347 163.920Q249.830 163.988 250.301 164.073Q250.773 164.159 251.177 164.257L251.177 164.257L251.177 166.216Q250.234 165.946 249.292 165.806Q248.349 165.665 247.467 165.665L247.467 165.665Q245.594 165.665 244.713 166.289Q243.832 166.914 243.832 167.966L243.832 167.966Q243.832 168.615 244.193 169.080Q244.554 169.546 245.142 169.913Q245.729 170.280 246.482 170.580Q247.235 170.880 248.018 171.198Q248.802 171.516 249.555 171.896Q250.308 172.275 250.895 172.796Q251.483 173.316 251.844 174.014Q252.205 174.712 252.205 175.666Z"/></svg>