<svg version="1.1" xmlns="http://www.w3.org/2000/svg" xmlns:xlink="http://www.w3.org/1999/xlink" width="62.44658" height="60.26072" viewBox="0,0,62.44658,60.26072"><defs><linearGradient x1="271.06156" y1="121.10225" x2="271.06156" y2="179.86296" gradientUnits="userSpaceOnUse" id="color-1"><stop offset="0" stop-color="#567357"/><stop offset="1" stop-color="#2e5729"/></linearGradient><linearGradient x1="270.89207" y1="167.57146" x2="270.89207" y2="180.14309" gradientUnits="userSpaceOnUse" id="color-2"><stop offset="0" stop-color="#70bb5b"/><stop offset="1" stop-color="#296f15"/></linearGradient><linearGradient x1="273.24435" y1="130.52751" x2="273.24435" y2="159.70609" gradientUnits="userSpaceOnUse" id="color-3"><stop offset="0" stop-color="#7ac580"/><stop offset="1" stop-color="#7ac580" stop-opacity="0"/></linearGradient><linearGradient x1="273.24435" y1="130.52751" x2="273.24435" y2="159.70609" gradientUnits="userSpaceOnUse" id="color-4"><stop offset="0" stop-color="#0e5a00"/><stop offset="1" stop-color="#122900"/></linearGradient><linearGradient x1="245.70863" y1="127.09894" x2="245.70863" y2="163.52751" gradientUnits="userSpaceOnUse" id="color-5"><stop offset="0" stop-color="#0e5a00"/><stop offset="1" stop-color="#122900"/></linearGradient><linearGradient x1="284.78006" y1="135.07037" x2="284.78006" y2="155.92752" gradientUnits="userSpaceOnUse" id="color-6"><stop offset="0" stop-color="#61ea00"/><stop offset="1" stop-color="#61ea00" stop-opacity="0"/></linearGradient><linearGradient x1="284.78005" y1="135.07037" x2="284.78005" y2="155.92752" gradientUnits="userSpaceOnUse" id="color-7"><stop offset="0" stop-color="#0e5a00"/><stop offset="1" stop-color="#122900"/></linearGradient><linearGradient x1="275.12391" y1="145.92852" x2="294.55249" y2="145.92852" gradientUnits="userSpaceOnUse" id="color-8"><stop offset="0" stop-color="#0e5a00"/><stop offset="1" stop-color="#122900"/></linearGradient><linearGradient x1="277.58086" y1="139.20095" x2="291.31894" y2="152.93903" gradientUnits="userSpaceOnUse" id="color-9"><stop offset="0" stop-color="#0e5a00"/><stop offset="1" stop-color="#122900"/></linearGradient><linearGradient x1="284.18468" y1="135.92751" x2="284.18468" y2="155.35609" gradientUnits="userSpaceOnUse" id="color-10"><stop offset="0" stop-color="#0e5a00"/><stop offset="1" stop-color="#122900"/></linearGradient><linearGradient x1="291.18496" y1="138.85718" x2="277.44689" y2="152.59526" gradientUnits="userSpaceOnUse" id="color-11"><stop offset="0" stop-color="#0e5a00"/><stop offset="1" stop-color="#122900"/></linearGradient><linearGradient x1="261.18006" y1="134.97037" x2="261.18006" y2="155.82752" gradientUnits="userSpaceOnUse" id="color-12"><stop offset="0" stop-color="#61ea00"/><stop offset="1" stop-color="#61ea00" stop-opacity="0"/></linearGradient><linearGradient x1="261.18006" y1="134.97037" x2="261.18006" y2="155.82752" gradientUnits="userSpaceOnUse" id="color-13"><stop offset="0" stop-color="#0e5a00"/><stop offset="1" stop-color="#122900"/></linearGradient><linearGradient x1="251.52392" y1="145.82852" x2="270.95249" y2="145.82852" gradientUnits="userSpaceOnUse" id="color-14"><stop offset="0" stop-color="#0e5a00"/><stop offset="1" stop-color="#122900"/></linearGradient><linearGradient x1="253.98086" y1="139.10095" x2="267.71894" y2="152.83903" gradientUnits="userSpaceOnUse" id="color-15"><stop offset="0" stop-color="#0e5a00"/><stop offset="1" stop-color="#122900"/></linearGradient><linearGradient x1="260.58468" y1="135.82751" x2="260.58468" y2="155.25609" gradientUnits="userSpaceOnUse" id="color-16"><stop offset="0" stop-color="#0e5a00"/><stop offset="1" stop-color="#122900"/></linearGradient><linearGradient x1="267.58497" y1="138.75718" x2="253.84689" y2="152.49526" gradientUnits="userSpaceOnUse" id="color-17"><stop offset="0" stop-color="#0e5a00"/><stop offset="1" stop-color="#122900"/></linearGradient></defs><g transform="translate(-239.79668,-120.35224)"><g data-paper-data="{&quot;isPaintingLayer&quot;:true}" fill-rule="nonzero" stroke-linejoin="miter" stroke-miterlimit="10" stroke-dasharray="" stroke-dashoffset="0" style="mix-blend-mode: normal"><path d="M240.54669,179.86296v-58.76072h60.94658v58.76072z" fill="url(#color-1)" stroke="#3dab20" stroke-width="1.5" stroke-linecap="butt"/><path d="M239.96354,180.14309v-12.57143h61.85715v12.57143z" fill="url(#color-2)" stroke="none" stroke-width="0" stroke-linecap="butt"/><path d="M247.99435,130.52751h45.28571l5.5,5.5v18.07143l-5.60715,5.60715h-45.46428z" fill="url(#color-3)" stroke="url(#color-4)" stroke-width="2" stroke-linecap="round"/><path d="M247.70863,163.52751v-36.42857h-4" fill="none" stroke="url(#color-5)" stroke-width="2" stroke-linecap="round"/><g stroke-width="2"><path d="M274.35148,145.49894c0,-5.75954 4.66903,-10.42857 10.42857,-10.42857c5.75954,0 10.42858,4.66903 10.42858,10.42857c0,5.75954 -4.66904,10.42857 -10.42858,10.42857c-5.75954,0 -10.42857,-4.66904 -10.42857,-10.42857z" fill="url(#color-6)" stroke="url(#color-7)" stroke-linecap="butt"/><path d="M275.12391,145.92852c0,0 4.1157,-2.72727 4.67532,-2.72727c1.28493,0 6.83429,4.35777 10.45445,5.09574c3.01315,0.61424 4.29879,-2.36847 4.29879,-2.36847" fill="none" stroke="url(#color-8)" stroke-linecap="round"/><path d="M277.58086,139.20095c0,0 4.83871,0.98176 5.23443,1.37748c0.90859,0.90858 1.75117,7.91398 3.78918,10.99566c1.69629,2.56495 4.71446,1.36495 4.71446,1.36495" fill="none" stroke="url(#color-9)" stroke-linecap="round"/><path d="M284.18468,135.92751c0,0 2.72727,4.1157 2.72727,4.67532c0,1.28493 -4.35776,6.8343 -5.09574,10.45446c-0.61424,3.01316 2.36847,4.29879 2.36847,4.29879" fill="none" stroke="url(#color-10)" stroke-linecap="round"/><path d="M291.18496,138.85718c0,0 -0.98177,4.83872 -1.37748,5.23443c-0.90859,0.90858 -7.91398,1.75117 -10.99565,3.78919c-2.56495,1.69629 -1.36494,4.71446 -1.36494,4.71446" fill="none" stroke="url(#color-11)" stroke-linecap="round"/><path d="M281.81577,145.95284c0,-1.54639 1.2536,-2.8 2.8,-2.8c1.5464,0 2.8,1.2536 2.8,2.8c0,1.54639 -1.2536,2.8 -2.8,2.8c-1.5464,0 -2.8,-1.25361 -2.8,-2.8z" fill="#6fff7b" stroke="none" stroke-linecap="butt"/></g><g stroke-width="2"><path d="M250.75149,145.39894c0,-5.75954 4.66903,-10.42857 10.42857,-10.42857c5.75954,0 10.42858,4.66903 10.42858,10.42857c0,5.75954 -4.66904,10.42857 -10.42858,10.42857c-5.75954,0 -10.42857,-4.66904 -10.42857,-10.42857z" fill="url(#color-12)" stroke="url(#color-13)" stroke-linecap="butt"/><path d="M251.52392,145.82852c0,0 4.1157,-2.72727 4.67532,-2.72727c1.28493,0 6.83429,4.35777 10.45445,5.09574c3.01315,0.61424 4.2988,-2.36847 4.2988,-2.36847" fill="none" stroke="url(#color-14)" stroke-linecap="round"/><path d="M253.98086,139.10095c0,0 4.83871,0.98176 5.23443,1.37748c0.90859,0.90858 1.75118,7.91399 3.78919,10.99566c1.69629,2.56495 4.71446,1.36494 4.71446,1.36494" fill="none" stroke="url(#color-15)" stroke-linecap="round"/><path d="M260.58468,135.82751c0,0 2.72727,4.1157 2.72727,4.67532c0,1.28493 -4.35776,6.8343 -5.09574,10.45446c-0.61424,3.01316 2.36847,4.29879 2.36847,4.29879" fill="none" stroke="url(#color-16)" stroke-linecap="round"/><path d="M267.58497,138.75718c0,0 -0.98177,4.83872 -1.37749,5.23444c-0.90859,0.90858 -7.91398,1.75118 -10.99565,3.78919c-2.56495,1.69629 -1.36494,4.71446 -1.36494,4.71446" fill="none" stroke="url(#color-17)" stroke-linecap="round"/><path d="M258.21577,145.85284c0,-1.54639 1.2536,-2.8 2.8,-2.8c1.5464,0 2.8,1.25361 2.8,2.8c0,1.54639 -1.2536,2.8 -2.8,2.8c-1.5464,0 -2.8,-1.2536 -2.8,-2.8z" fill="#6fff7b" stroke="none" stroke-linecap="butt"/></g></g></g></svg>