<svg width="480px" height="360px" xmlns="http://www.w3.org/2000/svg"><path fill="#F00" d="M252.609 173.916L252.609 175.507L249.879 175.507L249.426 180L247.614 180L248.067 175.507L244.946 175.507L244.493 180L242.681 180L243.134 175.507L240.526 175.507L240.526 173.916L243.293 173.916L243.734 169.631L241.151 169.631L241.151 168.040L243.893 168.040L244.309 164L246.096 164L245.692 168.040L248.826 168.040L249.243 164L251.054 164L250.626 168.040L253.258 168.040L253.258 169.631L250.467 169.631L250.038 173.916L252.609 173.916ZM245.105 173.916L248.239 173.916L248.667 169.631L245.533 169.631L245.105 173.916Z"/></svg>