<svg version="1.1" xmlns="http://www.w3.org/2000/svg" xmlns:xlink="http://www.w3.org/1999/xlink" width="62.44658" height="60.26072" viewBox="0,0,62.44658,60.26072"><defs><linearGradient x1="271.06156" y1="121.10232" x2="271.06156" y2="179.86302" gradientUnits="userSpaceOnUse" id="color-1"><stop offset="0" stop-color="#81704a"/><stop offset="1" stop-color="#54472c"/></linearGradient><linearGradient x1="270.89207" y1="167.57145" x2="270.89207" y2="180.14315" gradientUnits="userSpaceOnUse" id="color-2"><stop offset="0" stop-color="#8d7134"/><stop offset="1" stop-color="#5b4d28"/></linearGradient><linearGradient x1="248.64287" y1="125.23874" x2="248.64287" y2="163.83333" gradientUnits="userSpaceOnUse" id="color-3"><stop offset="0" stop-color="#ffca89"/><stop offset="1" stop-color="#f3d6b4"/></linearGradient><radialGradient cx="248.64286" cy="144.53603" r="19.2973" gradientUnits="userSpaceOnUse" id="color-4"><stop offset="0" stop-color="#6f583c"/><stop offset="1" stop-color="#6f583c" stop-opacity="0"/></radialGradient><linearGradient x1="293.07144" y1="125.09588" x2="293.07144" y2="163.69047" gradientUnits="userSpaceOnUse" id="color-5"><stop offset="0" stop-color="#ffca89"/><stop offset="1" stop-color="#f3d6b4"/></linearGradient><radialGradient cx="293.07143" cy="144.39317" r="19.2973" gradientUnits="userSpaceOnUse" id="color-6"><stop offset="0" stop-color="#6f583c"/><stop offset="1" stop-color="#6f583c" stop-opacity="0"/></radialGradient><radialGradient cx="270.35714" cy="130.90476" r="23" gradientUnits="userSpaceOnUse" id="color-7"><stop offset="0" stop-color="#ff7364"/><stop offset="1" stop-color="#ff7364" stop-opacity="0"/></radialGradient><radialGradient cx="270.21428" cy="137.61906" r="23" gradientUnits="userSpaceOnUse" id="color-8"><stop offset="0" stop-color="#ff7364"/><stop offset="1" stop-color="#ff7364" stop-opacity="0"/></radialGradient><radialGradient cx="270.21428" cy="144.61905" r="23" gradientUnits="userSpaceOnUse" id="color-9"><stop offset="0" stop-color="#ff7364"/><stop offset="1" stop-color="#ff7364" stop-opacity="0"/></radialGradient><radialGradient cx="270.07143" cy="151.33334" r="23" gradientUnits="userSpaceOnUse" id="color-10"><stop offset="0" stop-color="#ff7364"/><stop offset="1" stop-color="#ff7364" stop-opacity="0"/></radialGradient><radialGradient cx="269.92857" cy="158.90476" r="23" gradientUnits="userSpaceOnUse" id="color-11"><stop offset="0" stop-color="#ff7364"/><stop offset="1" stop-color="#ff7364" stop-opacity="0"/></radialGradient></defs><g transform="translate(-239.79679,-120.35229)"><g data-paper-data="{&quot;isPaintingLayer&quot;:true}" fill-rule="nonzero" stroke-linejoin="miter" stroke-miterlimit="10" stroke-dasharray="" stroke-dashoffset="0" style="mix-blend-mode: normal"><path d="M240.5468,179.86302v-58.76072h60.94658v58.76072z" fill="url(#color-1)" stroke="#543f10" stroke-width="1.5" stroke-linecap="butt"/><path d="M239.96362,180.14315v-12.57143c0,0 9.2599,0 15.94982,0c11.34971,0 45.90733,0 45.90733,0v12.57143z" fill="url(#color-2)" stroke="none" stroke-width="0" stroke-linecap="butt"/><path d="M245.64286,163.83333v-38.59459h5.99999c0,0 0,12.75562 0,19.16603c0,6.45416 0,19.42857 0,19.42857z" fill="url(#color-3)" stroke="url(#color-4)" stroke-width="2.5" stroke-linecap="butt"/><path d="M290.07144,163.69047v-38.59459h6c0,0 0,12.75562 0,19.16603c0,6.45416 0,19.42857 0,19.42857z" fill="url(#color-5)" stroke="url(#color-6)" stroke-width="2.5" stroke-linecap="butt"/><path d="M247.35714,126.83333l15.85714,7.71428l7.28571,-7l6.85715,7l16,-7.42857" fill="none" stroke="url(#color-7)" stroke-width="2.5" stroke-linecap="round"/><path d="M247.21428,141.69048l15.85715,-7.71429l7.28571,7l6.85714,-7l16,7.42858" data-paper-data="{&quot;index&quot;:null}" fill="none" stroke="url(#color-8)" stroke-width="2.5" stroke-linecap="round"/><path d="M247.21428,140.54762l15.85715,7.71429l7.28571,-7l6.85714,7l16,-7.42858" fill="none" stroke="url(#color-9)" stroke-width="2.5" stroke-linecap="round"/><path d="M247.07143,155.40476l15.85715,-7.71429l7.28571,7l6.85714,-7l16,7.42857" data-paper-data="{&quot;index&quot;:null}" fill="none" stroke="url(#color-10)" stroke-width="2.5" stroke-linecap="round"/><path d="M246.92857,154.83333l15.85715,7.71428l7.28571,-7l6.85714,7l16,-7.42857" fill="none" stroke="url(#color-11)" stroke-width="2.5" stroke-linecap="round"/></g></g></svg>