<svg version="1.1" xmlns="http://www.w3.org/2000/svg" xmlns:xlink="http://www.w3.org/1999/xlink" width="55.125" height="55.125" viewBox="0,0,55.125,55.125"><defs><linearGradient x1="240" y1="153.1875" x2="240" y2="206.8125" gradientUnits="userSpaceOnUse" id="color-1"><stop offset="0" stop-color="#362f02"/><stop offset="1" stop-color="#000000" stop-opacity="0.60925"/></linearGradient><linearGradient x1="240" y1="153.1875" x2="240" y2="206.8125" gradientUnits="userSpaceOnUse" id="color-2"><stop offset="0" stop-color="#fff400"/><stop offset="1" stop-color="#fff400" stop-opacity="0"/></linearGradient><linearGradient x1="239.21318" y1="164.491" x2="239.21318" y2="178.116" gradientUnits="userSpaceOnUse" id="color-3"><stop offset="0" stop-color="#feffaf" stop-opacity="0.45161"/><stop offset="1" stop-color="#feffaf" stop-opacity="0"/></linearGradient><linearGradient x1="239.21318" y1="164.491" x2="239.21318" y2="178.116" gradientUnits="userSpaceOnUse" id="color-4"><stop offset="0" stop-color="#00ddff" stop-opacity="0"/><stop offset="1" stop-color="#00ddff" stop-opacity="0"/></linearGradient><linearGradient x1="239.21318" y1="165.366" x2="239.21318" y2="177.16497" gradientUnits="userSpaceOnUse" id="color-5"><stop offset="0" stop-color="#000000"/><stop offset="1" stop-color="#000000" stop-opacity="0.60925"/></linearGradient><linearGradient x1="239.21318" y1="165.366" x2="239.21318" y2="177.16497" gradientUnits="userSpaceOnUse" id="color-6"><stop offset="0" stop-color="#00ddff" stop-opacity="0"/><stop offset="1" stop-color="#00ddff" stop-opacity="0"/></linearGradient><linearGradient x1="231.16017" y1="166.241" x2="231.16017" y2="179.866" gradientUnits="userSpaceOnUse" id="color-7"><stop offset="0" stop-color="#feffaf" stop-opacity="0.45161"/><stop offset="1" stop-color="#feffaf" stop-opacity="0"/></linearGradient><linearGradient x1="231.16017" y1="166.241" x2="231.16017" y2="179.866" gradientUnits="userSpaceOnUse" id="color-8"><stop offset="0" stop-color="#00ddff" stop-opacity="0"/><stop offset="1" stop-color="#00ddff" stop-opacity="0"/></linearGradient><linearGradient x1="231.16017" y1="167.116" x2="231.16017" y2="178.91497" gradientUnits="userSpaceOnUse" id="color-9"><stop offset="0" stop-color="#000000"/><stop offset="1" stop-color="#000000" stop-opacity="0.60925"/></linearGradient><linearGradient x1="231.16017" y1="167.116" x2="231.16017" y2="178.91497" gradientUnits="userSpaceOnUse" id="color-10"><stop offset="0" stop-color="#00ddff" stop-opacity="0"/><stop offset="1" stop-color="#00ddff" stop-opacity="0"/></linearGradient><linearGradient x1="248.67547" y1="166.366" x2="248.67547" y2="179.991" gradientUnits="userSpaceOnUse" id="color-11"><stop offset="0" stop-color="#feffaf" stop-opacity="0.45161"/><stop offset="1" stop-color="#feffaf" stop-opacity="0"/></linearGradient><linearGradient x1="248.67547" y1="166.366" x2="248.67547" y2="179.991" gradientUnits="userSpaceOnUse" id="color-12"><stop offset="0" stop-color="#00ddff" stop-opacity="0"/><stop offset="1" stop-color="#00ddff" stop-opacity="0"/></linearGradient><linearGradient x1="248.67547" y1="167.241" x2="248.67547" y2="179.03997" gradientUnits="userSpaceOnUse" id="color-13"><stop offset="0" stop-color="#000000"/><stop offset="1" stop-color="#000000" stop-opacity="0.60925"/></linearGradient><linearGradient x1="248.67547" y1="167.241" x2="248.67547" y2="179.03997" gradientUnits="userSpaceOnUse" id="color-14"><stop offset="0" stop-color="#00ddff" stop-opacity="0"/><stop offset="1" stop-color="#00ddff" stop-opacity="0"/></linearGradient><linearGradient x1="228.44228" y1="170.116" x2="228.44228" y2="183.741" gradientUnits="userSpaceOnUse" id="color-15"><stop offset="0" stop-color="#feffaf" stop-opacity="0.45161"/><stop offset="1" stop-color="#feffaf" stop-opacity="0"/></linearGradient><linearGradient x1="228.44228" y1="170.116" x2="228.44228" y2="183.741" gradientUnits="userSpaceOnUse" id="color-16"><stop offset="0" stop-color="#00ddff" stop-opacity="0"/><stop offset="1" stop-color="#00ddff" stop-opacity="0"/></linearGradient><linearGradient x1="228.44228" y1="170.991" x2="228.44228" y2="182.78997" gradientUnits="userSpaceOnUse" id="color-17"><stop offset="0" stop-color="#000000"/><stop offset="1" stop-color="#000000" stop-opacity="0.60925"/></linearGradient><linearGradient x1="228.44228" y1="170.991" x2="228.44228" y2="182.78997" gradientUnits="userSpaceOnUse" id="color-18"><stop offset="0" stop-color="#00ddff" stop-opacity="0"/><stop offset="1" stop-color="#00ddff" stop-opacity="0"/></linearGradient><linearGradient x1="250.68872" y1="170.491" x2="250.68872" y2="184.116" gradientUnits="userSpaceOnUse" id="color-19"><stop offset="0" stop-color="#feffaf" stop-opacity="0.45161"/><stop offset="1" stop-color="#feffaf" stop-opacity="0"/></linearGradient><linearGradient x1="250.68872" y1="170.491" x2="250.68872" y2="184.116" gradientUnits="userSpaceOnUse" id="color-20"><stop offset="0" stop-color="#00ddff" stop-opacity="0"/><stop offset="1" stop-color="#00ddff" stop-opacity="0"/></linearGradient><linearGradient x1="250.68872" y1="171.366" x2="250.68872" y2="183.16497" gradientUnits="userSpaceOnUse" id="color-21"><stop offset="0" stop-color="#000000"/><stop offset="1" stop-color="#000000" stop-opacity="0.60925"/></linearGradient><linearGradient x1="250.68872" y1="171.366" x2="250.68872" y2="183.16497" gradientUnits="userSpaceOnUse" id="color-22"><stop offset="0" stop-color="#00ddff" stop-opacity="0"/><stop offset="1" stop-color="#00ddff" stop-opacity="0"/></linearGradient><linearGradient x1="230.15354" y1="173.991" x2="230.15354" y2="187.616" gradientUnits="userSpaceOnUse" id="color-23"><stop offset="0" stop-color="#feffaf" stop-opacity="0.45161"/><stop offset="1" stop-color="#feffaf" stop-opacity="0"/></linearGradient><linearGradient x1="230.15354" y1="173.991" x2="230.15354" y2="187.616" gradientUnits="userSpaceOnUse" id="color-24"><stop offset="0" stop-color="#00ddff" stop-opacity="0"/><stop offset="1" stop-color="#00ddff" stop-opacity="0"/></linearGradient><linearGradient x1="230.15354" y1="174.866" x2="230.15354" y2="186.66497" gradientUnits="userSpaceOnUse" id="color-25"><stop offset="0" stop-color="#000000"/><stop offset="1" stop-color="#000000" stop-opacity="0.60925"/></linearGradient><linearGradient x1="230.15354" y1="174.866" x2="230.15354" y2="186.66497" gradientUnits="userSpaceOnUse" id="color-26"><stop offset="0" stop-color="#00ddff" stop-opacity="0"/><stop offset="1" stop-color="#00ddff" stop-opacity="0"/></linearGradient><linearGradient x1="249.58143" y1="174.866" x2="249.58143" y2="188.491" gradientUnits="userSpaceOnUse" id="color-27"><stop offset="0" stop-color="#feffaf" stop-opacity="0.45161"/><stop offset="1" stop-color="#feffaf" stop-opacity="0"/></linearGradient><linearGradient x1="249.58143" y1="174.866" x2="249.58143" y2="188.491" gradientUnits="userSpaceOnUse" id="color-28"><stop offset="0" stop-color="#00ddff" stop-opacity="0"/><stop offset="1" stop-color="#00ddff" stop-opacity="0"/></linearGradient><linearGradient x1="249.58143" y1="175.741" x2="249.58143" y2="187.53997" gradientUnits="userSpaceOnUse" id="color-29"><stop offset="0" stop-color="#000000"/><stop offset="1" stop-color="#000000" stop-opacity="0.60925"/></linearGradient><linearGradient x1="249.58143" y1="175.741" x2="249.58143" y2="187.53997" gradientUnits="userSpaceOnUse" id="color-30"><stop offset="0" stop-color="#00ddff" stop-opacity="0"/><stop offset="1" stop-color="#00ddff" stop-opacity="0"/></linearGradient><linearGradient x1="238.77766" y1="176.241" x2="238.77766" y2="191.766" gradientUnits="userSpaceOnUse" id="color-31"><stop offset="0" stop-color="#feffaf" stop-opacity="0.45161"/><stop offset="1" stop-color="#feffaf" stop-opacity="0"/></linearGradient><linearGradient x1="238.77766" y1="176.241" x2="238.77766" y2="191.766" gradientUnits="userSpaceOnUse" id="color-32"><stop offset="0" stop-color="#00ddff" stop-opacity="0"/><stop offset="1" stop-color="#00ddff" stop-opacity="0"/></linearGradient><linearGradient x1="239.23645" y1="177.12408" x2="239.23645" y2="190.56841" gradientUnits="userSpaceOnUse" id="color-33"><stop offset="0" stop-color="#000000"/><stop offset="1" stop-color="#000000" stop-opacity="0.60925"/></linearGradient><linearGradient x1="239.23645" y1="177.12408" x2="239.23645" y2="190.56841" gradientUnits="userSpaceOnUse" id="color-34"><stop offset="0" stop-color="#00ddff" stop-opacity="0"/><stop offset="1" stop-color="#00ddff" stop-opacity="0"/></linearGradient><radialGradient cx="223.46803" cy="162.71349" r="4.71101" gradientUnits="userSpaceOnUse" id="color-35"><stop offset="0" stop-color="#feffaf"/><stop offset="1" stop-color="#feffaf" stop-opacity="0"/></radialGradient><radialGradient cx="235.30596" cy="161.76349" r="4.10704" gradientUnits="userSpaceOnUse" id="color-36"><stop offset="0" stop-color="#feffaf"/><stop offset="1" stop-color="#feffaf" stop-opacity="0"/></radialGradient><radialGradient cx="245.70321" cy="161.31349" r="3.90571" gradientUnits="userSpaceOnUse" id="color-37"><stop offset="0" stop-color="#feffaf"/><stop offset="1" stop-color="#feffaf" stop-opacity="0"/></radialGradient><radialGradient cx="257.30842" cy="163.16349" r="4.2681" gradientUnits="userSpaceOnUse" id="color-38"><stop offset="0" stop-color="#feffaf"/><stop offset="1" stop-color="#feffaf" stop-opacity="0"/></radialGradient><radialGradient cx="256.02505" cy="172.3115" r="3.62386" gradientUnits="userSpaceOnUse" id="color-39"><stop offset="0" stop-color="#feffaf"/><stop offset="1" stop-color="#feffaf" stop-opacity="0"/></radialGradient><radialGradient cx="231.06071" cy="181.0115" r="3.14067" gradientUnits="userSpaceOnUse" id="color-40"><stop offset="0" stop-color="#feffaf"/><stop offset="1" stop-color="#feffaf" stop-opacity="0"/></radialGradient><radialGradient cx="246.28091" cy="181.0115" r="1.93272" gradientUnits="userSpaceOnUse" id="color-41"><stop offset="0" stop-color="#feffaf"/><stop offset="1" stop-color="#feffaf" stop-opacity="0"/></radialGradient><radialGradient cx="222.10801" cy="188.63354" r="4.05" gradientUnits="userSpaceOnUse" id="color-42"><stop offset="0" stop-color="#feffaf"/><stop offset="1" stop-color="#feffaf" stop-opacity="0"/></radialGradient><radialGradient cx="229.70801" cy="194.78354" r="4.85" gradientUnits="userSpaceOnUse" id="color-43"><stop offset="0" stop-color="#feffaf"/><stop offset="1" stop-color="#feffaf" stop-opacity="0"/></radialGradient><radialGradient cx="242.45801" cy="195.48354" r="4.55" gradientUnits="userSpaceOnUse" id="color-44"><stop offset="0" stop-color="#feffaf"/><stop offset="1" stop-color="#feffaf" stop-opacity="0"/></radialGradient><radialGradient cx="257.20801" cy="193.98354" r="7.05" gradientUnits="userSpaceOnUse" id="color-45"><stop offset="0" stop-color="#feffaf"/><stop offset="1" stop-color="#feffaf" stop-opacity="0"/></radialGradient><radialGradient cx="260.80801" cy="178.43354" r="3.15" gradientUnits="userSpaceOnUse" id="color-46"><stop offset="0" stop-color="#feffaf"/><stop offset="1" stop-color="#feffaf" stop-opacity="0"/></radialGradient><radialGradient cx="220.15801" cy="176.78354" r="4.3" gradientUnits="userSpaceOnUse" id="color-47"><stop offset="0" stop-color="#feffaf"/><stop offset="1" stop-color="#feffaf" stop-opacity="0"/></radialGradient><radialGradient cx="233.75801" cy="169.48354" r="2.7" gradientUnits="userSpaceOnUse" id="color-48"><stop offset="0" stop-color="#feffaf"/><stop offset="1" stop-color="#feffaf" stop-opacity="0"/></radialGradient><radialGradient cx="245.45801" cy="169.28354" r="1.75" gradientUnits="userSpaceOnUse" id="color-49"><stop offset="0" stop-color="#feffaf"/><stop offset="1" stop-color="#feffaf" stop-opacity="0"/></radialGradient></defs><g transform="translate(-212.4375,-152.4375)"><g data-paper-data="{&quot;isPaintingLayer&quot;:true}" fill-rule="nonzero" stroke-linejoin="miter" stroke-miterlimit="10" stroke-dasharray="" stroke-dashoffset="0" style="mix-blend-mode: normal"><path d="M213.1875,206.8125v-53.625h53.625v53.625z" fill="url(#color-1)" stroke="url(#color-2)" stroke-width="1.5" stroke-linecap="butt"/><path d="M248.97746,171.3035c0,3.76244 -4.37162,6.8125 -9.76428,6.8125c-5.39266,0 -9.76428,-3.05006 -9.76428,-6.8125c0,-3.76244 4.37162,-6.8125 9.76428,-6.8125c5.39266,0 9.76428,3.05006 9.76428,6.8125z" fill="url(#color-3)" stroke="url(#color-4)" stroke-width="0" stroke-linecap="butt"/><path d="M247.66884,171.26548c0,3.2582 -3.78573,5.89948 -8.45566,5.89948c-4.66993,0 -8.45566,-2.64129 -8.45566,-5.89948c0,-3.2582 3.78573,-5.89948 8.45566,-5.89948c4.66993,0 8.45566,2.64129 8.45566,5.89948z" fill="url(#color-5)" stroke="url(#color-6)" stroke-width="0" stroke-linecap="butt"/><path d="M240.92445,173.0535c0,3.76244 -4.37162,6.8125 -9.76428,6.8125c-5.39266,0 -9.76428,-3.05006 -9.76428,-6.8125c0,-3.76244 4.37162,-6.8125 9.76428,-6.8125c5.39266,0 9.76428,3.05006 9.76428,6.8125z" fill="url(#color-7)" stroke="url(#color-8)" stroke-width="0" stroke-linecap="butt"/><path d="M239.61583,173.01548c0,3.2582 -3.78573,5.89948 -8.45566,5.89948c-4.66993,0 -8.45566,-2.64129 -8.45566,-5.89948c0,-3.2582 3.78573,-5.89948 8.45566,-5.89948c4.66993,0 8.45566,2.64129 8.45566,5.89948z" fill="url(#color-9)" stroke="url(#color-10)" stroke-width="0" stroke-linecap="butt"/><path d="M258.43975,173.1785c0,3.76244 -4.37162,6.8125 -9.76428,6.8125c-5.39266,0 -9.76428,-3.05006 -9.76428,-6.8125c0,-3.76244 4.37162,-6.8125 9.76428,-6.8125c5.39266,0 9.76428,3.05006 9.76428,6.8125z" fill="url(#color-11)" stroke="url(#color-12)" stroke-width="0" stroke-linecap="butt"/><path d="M257.13113,173.14048c0,3.2582 -3.78573,5.89948 -8.45566,5.89948c-4.66993,0 -8.45566,-2.64129 -8.45566,-5.89948c0,-3.2582 3.78573,-5.89948 8.45566,-5.89948c4.66993,0 8.45566,2.64129 8.45566,5.89948z" fill="url(#color-13)" stroke="url(#color-14)" stroke-width="0" stroke-linecap="butt"/><path d="M238.20655,176.9285c0,3.76244 -4.37162,6.8125 -9.76428,6.8125c-5.39266,0 -9.76428,-3.05006 -9.76428,-6.8125c0,-3.76244 4.37162,-6.8125 9.76428,-6.8125c5.39266,0 9.76428,3.05006 9.76428,6.8125z" fill="url(#color-15)" stroke="url(#color-16)" stroke-width="0" stroke-linecap="butt"/><path d="M236.89794,176.89048c0,3.2582 -3.78573,5.89948 -8.45566,5.89948c-4.66993,0 -8.45566,-2.64129 -8.45566,-5.89948c0,-3.2582 3.78573,-5.89948 8.45566,-5.89948c4.66993,0 8.45566,2.64129 8.45566,5.89948z" fill="url(#color-17)" stroke="url(#color-18)" stroke-width="0" stroke-linecap="butt"/><path d="M260.453,177.3035c0,3.76244 -4.37162,6.8125 -9.76428,6.8125c-5.39266,0 -9.76428,-3.05006 -9.76428,-6.8125c0,-3.76244 4.37162,-6.8125 9.76428,-6.8125c5.39266,0 9.76428,3.05006 9.76428,6.8125z" fill="url(#color-19)" stroke="url(#color-20)" stroke-width="0" stroke-linecap="butt"/><path d="M259.14439,177.26548c0,3.2582 -3.78573,5.89948 -8.45566,5.89948c-4.66993,0 -8.45566,-2.64129 -8.45566,-5.89948c0,-3.2582 3.78573,-5.89948 8.45566,-5.89948c4.66993,0 8.45566,2.64129 8.45566,5.89948z" fill="url(#color-21)" stroke="url(#color-22)" stroke-width="0" stroke-linecap="butt"/><path d="M239.91782,180.8035c0,3.76244 -4.37162,6.8125 -9.76428,6.8125c-5.39266,0 -9.76428,-3.05006 -9.76428,-6.8125c0,-3.76244 4.37162,-6.8125 9.76428,-6.8125c5.39266,0 9.76428,3.05006 9.76428,6.8125z" fill="url(#color-23)" stroke="url(#color-24)" stroke-width="0" stroke-linecap="butt"/><path d="M238.6092,180.76548c0,3.2582 -3.78573,5.89948 -8.45566,5.89948c-4.66993,0 -8.45566,-2.64129 -8.45566,-5.89948c0,-3.2582 3.78573,-5.89948 8.45566,-5.89948c4.66993,0 8.45566,2.64129 8.45566,5.89948z" fill="url(#color-25)" stroke="url(#color-26)" stroke-width="0" stroke-linecap="butt"/><path d="M259.34571,181.6785c0,3.76244 -4.37162,6.8125 -9.76428,6.8125c-5.39266,0 -9.76428,-3.05006 -9.76428,-6.8125c0,-3.76244 4.37162,-6.8125 9.76428,-6.8125c5.39266,0 9.76428,3.05006 9.76428,6.8125z" fill="url(#color-27)" stroke="url(#color-28)" stroke-width="0" stroke-linecap="butt"/><path d="M258.0371,181.64048c0,3.2582 -3.78573,5.89948 -8.45566,5.89948c-4.66993,0 -8.45566,-2.64129 -8.45566,-5.89948c0,-3.2582 3.78573,-5.89948 8.45566,-5.89948c4.66993,0 8.45566,2.64129 8.45566,5.89948z" fill="url(#color-29)" stroke="url(#color-30)" stroke-width="0" stroke-linecap="butt"/><path d="M249.90355,184.0035c0,4.28711 -4.98124,7.7625 -11.1259,7.7625c-6.14467,0 -11.1259,-3.47539 -11.1259,-7.7625c0,-4.28711 4.98124,-7.7625 11.1259,-7.7625c6.14467,0 11.1259,3.47539 11.1259,7.7625z" fill="url(#color-31)" stroke="url(#color-32)" stroke-width="0" stroke-linecap="butt"/><path d="M248.87125,183.84624c0,3.71256 -4.31364,6.72216 -9.6348,6.72216c-5.32115,0 -9.6348,-3.00961 -9.6348,-6.72216c0,-3.71256 4.31365,-6.72216 9.6348,-6.72216c5.32115,0 9.6348,3.00961 9.6348,6.72216z" fill="url(#color-33)" stroke="url(#color-34)" stroke-width="0" stroke-linecap="butt"/><path d="M219.07914,156.86349l8.77778,11.7" fill="none" stroke="url(#color-35)" stroke-width="2.5" stroke-linecap="round"/><path d="M235.58781,166.86349l-0.56371,-10.2" fill="none" stroke="url(#color-36)" stroke-width="2.5" stroke-linecap="round"/><path d="M245.17977,166.16349l1.04689,-9.7" fill="none" stroke="url(#color-37)" stroke-width="2.5" stroke-linecap="round"/><path d="M254.04695,168.46349l6.52294,-10.6" fill="none" stroke="url(#color-38)" stroke-width="2.5" stroke-linecap="round"/><path d="M252.4012,173.1115l7.24771,-1.6" fill="none" stroke="url(#color-39)" stroke-width="2.5" stroke-linecap="round"/><path d="M227.92004,182.3115l6.28135,-2.6" fill="none" stroke="url(#color-40)" stroke-width="2.5" stroke-linecap="round"/><path d="M248.21363,182.1115l-3.86545,-2.2" fill="none" stroke="url(#color-41)" stroke-width="2.5" stroke-linecap="round"/><path d="M218.05801,192.43354l8.1,-7.6" fill="none" stroke="url(#color-42)" stroke-width="2.5" stroke-linecap="round"/><path d="M232.55801,189.93354l-5.7,9.7" fill="none" stroke="url(#color-43)" stroke-width="2.5" stroke-linecap="round"/><path d="M241.55801,190.93354l1.8,9.1" fill="none" stroke="url(#color-44)" stroke-width="2.5" stroke-linecap="round"/><path d="M251.55801,186.93354l11.3,14.1" fill="none" stroke="url(#color-45)" stroke-width="2.5" stroke-linecap="round"/><path d="M257.65801,178.83354l6.3,-0.8" fill="none" stroke="url(#color-46)" stroke-width="2.5" stroke-linecap="round"/><path d="M224.45801,178.03354l-8.6,-2.5" fill="none" stroke="url(#color-47)" stroke-width="2.5" stroke-linecap="round"/><path d="M236.45801,171.93354l-5.4,-4.9" fill="none" stroke="url(#color-48)" stroke-width="2.5" stroke-linecap="round"/><path d="M243.75801,171.03354l3.4,-3.5" fill="none" stroke="url(#color-49)" stroke-width="2.5" stroke-linecap="round"/></g></g></svg>