<svg version="1.1" xmlns="http://www.w3.org/2000/svg" xmlns:xlink="http://www.w3.org/1999/xlink" width="14.56536" height="13.69195" viewBox="0,0,14.56536,13.69195"><g transform="translate(-240.39511,-166.52632)"><g data-paper-data="{&quot;isPaintingLayer&quot;:true}" fill-rule="nonzero" stroke-linejoin="miter" stroke-miterlimit="10" stroke-dasharray="" stroke-dashoffset="0" style="mix-blend-mode: normal"><path d="M251.34878,167.27632v5.72337" fill="none" stroke="#000000" stroke-width="1.5" stroke-linecap="round"/><path d="M248.4871,170.138h5.72337" fill="none" stroke="#000000" stroke-width="1.5" stroke-linecap="round"/><path d="M250.33673,174.22218c0,0.34084 -0.05928,0.68353 -0.17783,1.02807c-0.11484,0.34083 -0.27229,0.67611 -0.47234,1.00583c-0.19636,0.32972 -0.42419,0.65018 -0.68352,0.96138c-0.25933,0.31119 -0.52979,0.60757 -0.81134,0.88913c-0.28156,0.27785 -0.56682,0.53533 -0.85578,0.77244c-0.28527,0.2371 -0.55571,0.44827 -0.81133,0.63351c-0.25563,0.18153 -0.48532,0.33342 -0.68908,0.45567c-0.20376,0.12225 -0.36307,0.20561 -0.47791,0.25006c-0.10373,-0.04445 -0.25377,-0.1278 -0.45011,-0.25006c-0.19636,-0.12225 -0.4205,-0.276 -0.67242,-0.46124c-0.25192,-0.18524 -0.52236,-0.39641 -0.81133,-0.63351c-0.28897,-0.24081 -0.57608,-0.50014 -0.86135,-0.77799c-0.28156,-0.28156 -0.55385,-0.57794 -0.81689,-0.88913c-0.25933,-0.3149 -0.48902,-0.63721 -0.68908,-0.96694c-0.20006,-0.33342 -0.36121,-0.6724 -0.48346,-1.01694c-0.11855,-0.34454 -0.17783,-0.68723 -0.17783,-1.02806c0,-0.1556 0.01853,-0.32416 0.0556,-0.5057c0.04072,-0.18153 0.09999,-0.36306 0.17782,-0.54459c0.08151,-0.18154 0.18154,-0.35566 0.30009,-0.52237c0.12225,-0.16671 0.26304,-0.31304 0.42234,-0.43901c0.1593,-0.12967 0.33712,-0.23155 0.53348,-0.30564c0.20006,-0.0778 0.42048,-0.1167 0.66129,-0.1167c0.21858,0 0.44456,0.03334 0.67796,0.10001c0.2371,0.06301 0.47605,0.16305 0.71686,0.30009c0.24081,0.13337 0.47976,0.30193 0.71686,0.50569c0.24081,0.20376 0.47421,0.44456 0.70019,0.72242c0.20006,-0.25563 0.41864,-0.47976 0.65574,-0.6724c0.2371,-0.19636 0.47976,-0.35936 0.72798,-0.48902c0.25192,-0.13337 0.50385,-0.2334 0.75577,-0.30008c0.25192,-0.0704 0.49644,-0.1056 0.73354,-0.1056c0.24451,0 0.46679,0.0389 0.66684,0.1167c0.20006,0.07409 0.37789,0.17597 0.53349,0.30564c0.1556,0.12596 0.29082,0.2723 0.40566,0.43901c0.11485,0.16301 0.20932,0.33343 0.28341,0.51125c0.07409,0.17783 0.12781,0.35566 0.16115,0.53349c0.03706,0.17782 0.0556,0.34268 0.0556,0.49457z" fill="#ff0000" stroke="none" stroke-width="0.26459" stroke-linecap="butt"/></g></g></svg>