<svg version="1.1" xmlns="http://www.w3.org/2000/svg" xmlns:xlink="http://www.w3.org/1999/xlink" width="62.36325" height="60.26072" viewBox="0,0,62.36325,60.26072"><defs><linearGradient x1="270.89485" y1="121.10211" x2="270.89485" y2="179.86283" gradientUnits="userSpaceOnUse" id="color-1"><stop offset="0" stop-color="#8a7088"/><stop offset="1" stop-color="#615060"/></linearGradient><linearGradient x1="270.892" y1="167.57146" x2="270.892" y2="180.14294" gradientUnits="userSpaceOnUse" id="color-2"><stop offset="0" stop-color="#d091ce"/><stop offset="1" stop-color="#674866"/></linearGradient><radialGradient cx="270.95" cy="144.9" r="22.35" gradientUnits="userSpaceOnUse" id="color-3"><stop offset="0" stop-color="#660092"/><stop offset="1" stop-color="#660092" stop-opacity="0"/></radialGradient><radialGradient cx="270.95" cy="144.9" r="22.35" gradientUnits="userSpaceOnUse" id="color-4"><stop offset="0" stop-color="#e4a4ff"/><stop offset="1" stop-color="#e4a4ff" stop-opacity="0"/></radialGradient><radialGradient cx="262.5" cy="129.75" r="6.25" gradientUnits="userSpaceOnUse" id="color-5"><stop offset="0" stop-color="#ffcffd"/><stop offset="1" stop-color="#ffcffd" stop-opacity="0"/></radialGradient><radialGradient cx="262.9" cy="137.05" r="5.6" gradientUnits="userSpaceOnUse" id="color-6"><stop offset="0" stop-color="#ffcffd"/><stop offset="1" stop-color="#ffcffd" stop-opacity="0"/></radialGradient><radialGradient cx="260.3" cy="146.6" r="5.65" gradientUnits="userSpaceOnUse" id="color-7"><stop offset="0" stop-color="#ffcffd"/><stop offset="1" stop-color="#ffcffd" stop-opacity="0"/></radialGradient><radialGradient cx="265.3" cy="152.2" r="4.45" gradientUnits="userSpaceOnUse" id="color-8"><stop offset="0" stop-color="#ffcffd"/><stop offset="1" stop-color="#ffcffd" stop-opacity="0"/></radialGradient><radialGradient cx="270.7" cy="154.8" r="3.85" gradientUnits="userSpaceOnUse" id="color-9"><stop offset="0" stop-color="#ffcffd"/><stop offset="1" stop-color="#ffcffd" stop-opacity="0"/></radialGradient><radialGradient cx="275.25" cy="134.55" r="6.5" gradientUnits="userSpaceOnUse" id="color-10"><stop offset="0" stop-color="#ffcffd"/><stop offset="1" stop-color="#ffcffd" stop-opacity="0"/></radialGradient><radialGradient cx="276.05" cy="128.1" r="4" gradientUnits="userSpaceOnUse" id="color-11"><stop offset="0" stop-color="#ffcffd"/><stop offset="1" stop-color="#ffcffd" stop-opacity="0"/></radialGradient><radialGradient cx="273.7" cy="141.7" r="5.15" gradientUnits="userSpaceOnUse" id="color-12"><stop offset="0" stop-color="#ffcffd"/><stop offset="1" stop-color="#ffcffd" stop-opacity="0"/></radialGradient><radialGradient cx="278.15" cy="148.45" r="5.8" gradientUnits="userSpaceOnUse" id="color-13"><stop offset="0" stop-color="#ffcffd"/><stop offset="1" stop-color="#ffcffd" stop-opacity="0"/></radialGradient><radialGradient cx="280.3" cy="158.95" r="5.25" gradientUnits="userSpaceOnUse" id="color-14"><stop offset="0" stop-color="#ffcffd"/><stop offset="1" stop-color="#ffcffd" stop-opacity="0"/></radialGradient><radialGradient cx="279.15" cy="141.85" r="9.5" gradientUnits="userSpaceOnUse" id="color-15"><stop offset="0" stop-color="#ffcffd"/><stop offset="1" stop-color="#ffcffd" stop-opacity="0"/></radialGradient><radialGradient cx="258.35" cy="140.85" r="10.1" gradientUnits="userSpaceOnUse" id="color-16"><stop offset="0" stop-color="#ffcffd"/><stop offset="1" stop-color="#ffcffd" stop-opacity="0"/></radialGradient><radialGradient cx="259.55" cy="156.35" r="11" gradientUnits="userSpaceOnUse" id="color-17"><stop offset="0" stop-color="#ffcffd"/><stop offset="1" stop-color="#ffcffd" stop-opacity="0"/></radialGradient><radialGradient cx="286.05" cy="149.35" r="9.9" gradientUnits="userSpaceOnUse" id="color-18"><stop offset="0" stop-color="#ffcffd"/><stop offset="1" stop-color="#ffcffd" stop-opacity="0"/></radialGradient><radialGradient cx="259.35" cy="152" r="11.9" gradientUnits="userSpaceOnUse" id="color-19"><stop offset="0" stop-color="#ffcffd"/><stop offset="1" stop-color="#ffcffd" stop-opacity="0"/></radialGradient><radialGradient cx="281.8" cy="135.05" r="13.05" gradientUnits="userSpaceOnUse" id="color-20"><stop offset="0" stop-color="#ffcffd"/><stop offset="1" stop-color="#ffcffd" stop-opacity="0"/></radialGradient><radialGradient cx="256.7" cy="133" r="12.45" gradientUnits="userSpaceOnUse" id="color-21"><stop offset="0" stop-color="#ffcffd"/><stop offset="1" stop-color="#ffcffd" stop-opacity="0"/></radialGradient></defs><g transform="translate(-239.71327,-120.3521)"><g data-paper-data="{&quot;isPaintingLayer&quot;:true}" fill-rule="nonzero" stroke-linejoin="miter" stroke-miterlimit="10" stroke-dasharray="" stroke-dashoffset="0" style="mix-blend-mode: normal"><path d="M240.46327,179.86283v-58.76072h60.86325v58.76072z" fill="url(#color-1)" stroke="#bf86bd" stroke-width="1.5" stroke-linecap="butt"/><path d="M239.96343,180.14294v-12.57143h61.85715v12.57143z" fill="url(#color-2)" stroke="none" stroke-width="0" stroke-linecap="butt"/><path d="M278.35,167.15l0.8,-15.3l-7.4,-7.9l4,-21.3l-5.7,-0.1l-7.3,23.3l11.4,12.2l-6.8,9.2z" fill="url(#color-3)" stroke="url(#color-4)" stroke-width="3" stroke-linecap="round"/><path d="M268.75,134.95l-12.5,-10.4" fill="none" stroke="url(#color-5)" stroke-width="1.5" stroke-linecap="round"/><path d="M266.85,142.65l-7,-6.9l-0.9,-4.3" fill="none" stroke="url(#color-6)" stroke-width="1.5" stroke-linecap="round"/><path d="M265.95,146.05l-8.7,-0.9l-2.6,2.9" fill="none" stroke="url(#color-7)" stroke-width="1.5" stroke-linecap="round"/><path d="M269.75,149.05l-7.5,3.4l-1.4,2.9" fill="none" stroke="url(#color-8)" stroke-width="1.5" stroke-linecap="round"/><path d="M274.55,152.45l-7.7,4.7" fill="none" stroke="url(#color-9)" stroke-width="1.5" stroke-linecap="round"/><path d="M268.75,137.15l9.9,-5.2l3.1,0.2" fill="none" stroke="url(#color-10)" stroke-width="1.5" stroke-linecap="round"/><path d="M272.05,128.35l6.3,-1.6l1.7,2.7" fill="none" stroke="url(#color-11)" stroke-width="1.5" stroke-linecap="round"/><path d="M268.55,142.25l9.2,1.3l1.1,-3.7" fill="none" stroke="url(#color-12)" stroke-width="1.5" stroke-linecap="round"/><path d="M272.35,150.25l9,-4l2.6,4.4" fill="none" stroke="url(#color-13)" stroke-width="1.5" stroke-linecap="round"/><path d="M275.05,161.45l9.3,-5l1.2,3" fill="none" stroke="url(#color-14)" stroke-width="1.5" stroke-linecap="round"/><path d="M269.65,147.05l14.2,-10.4l4.8,2.6" fill="none" stroke="url(#color-15)" stroke-width="1.5" stroke-linecap="round"/><path d="M268.45,145.55l-16.5,-9.4l-3.7,2.8" fill="none" stroke="url(#color-16)" stroke-width="1.5" stroke-linecap="round"/><path d="M270.55,150.35l-16.9,0.9l-6.9,-0.1" fill="none" stroke="url(#color-17)" stroke-width="1.5" stroke-linecap="round"/><path d="M276.15,155.05l18.2,-5.1l1.6,-6.3" fill="none" stroke="url(#color-18)" stroke-width="1.5" stroke-linecap="round"/><path d="M245.95,155.25l18,2.5l7.3,-8.3" fill="none" stroke="url(#color-19)" stroke-width="2.5" stroke-linecap="round"/><path d="M268.75,139.65l24.6,-9.2l1.5,6.1" fill="none" stroke="url(#color-20)" stroke-width="2.5" stroke-linecap="round"/><path d="M269.15,139.05l-19,-12.1l-5.9,4.4" fill="none" stroke="url(#color-21)" stroke-width="2.5" stroke-linecap="round"/></g></g></svg>