<svg version="1.1" xmlns="http://www.w3.org/2000/svg" xmlns:xlink="http://www.w3.org/1999/xlink" width="240.85714" height="206.57143" viewBox="0,0,240.85714,206.57143"><defs><linearGradient x1="120" y1="77.14286" x2="120" y2="282.85714" gradientUnits="userSpaceOnUse" id="color-1"><stop offset="0" stop-color="#5a950d"/><stop offset="1" stop-color="#203504"/></linearGradient></defs><g transform="translate(-119.57143,-76.71429)"><g data-paper-data="{&quot;isPaintingLayer&quot;:true}" fill-rule="nonzero" stroke-linejoin="miter" stroke-miterlimit="10" stroke-dasharray="" stroke-dashoffset="0" style="mix-blend-mode: normal"><path d="M120,282.85714v-205.71429h240v205.71429z" fill="url(#color-1)" stroke="none" stroke-width="1" stroke-linecap="butt"/><path d="M120,77.14286h240" fill="#000000" stroke-opacity="0.5" stroke="#ffffff" stroke-width="0.85714" stroke-linecap="butt"/><path d="M360,94.28571h-240" fill="#000000" stroke-opacity="0.5" stroke="#ffffff" stroke-width="0.85714" stroke-linecap="butt"/><path d="M360,111.42857h-240" fill="#000000" stroke-opacity="0.5" stroke="#ffffff" stroke-width="0.85714" stroke-linecap="butt"/><path d="M120,128.57143h240" fill="#000000" stroke-opacity="0.5" stroke="#ffffff" stroke-width="0.85714" stroke-linecap="butt"/><path d="M360,145.71429h-240" fill="#000000" stroke-opacity="0.5" stroke="#ffffff" stroke-width="0.85714" stroke-linecap="butt"/><path d="M360,162.85714h-240" fill="#000000" stroke-opacity="0.5" stroke="#ffffff" stroke-width="0.85714" stroke-linecap="butt"/><path d="M120,180h240" fill="#000000" stroke-opacity="0.5" stroke="#ffffff" stroke-width="0.85714" stroke-linecap="butt"/><path d="M120,197.14286h240" fill="#000000" stroke-opacity="0.5" stroke="#ffffff" stroke-width="0.85714" stroke-linecap="butt"/><path d="M360,214.28571h-240" fill="#000000" stroke-opacity="0.5" stroke="#ffffff" stroke-width="0.85714" stroke-linecap="butt"/><path d="M120,231.42857h240" fill="#000000" stroke-opacity="0.5" stroke="#ffffff" stroke-width="0.85714" stroke-linecap="butt"/><path d="M360,248.57143h-240" fill="#000000" stroke-opacity="0.5" stroke="#ffffff" stroke-width="0.85714" stroke-linecap="butt"/><path d="M120,265.71429h240" fill="#000000" stroke-opacity="0.5" stroke="#ffffff" stroke-width="0.85714" stroke-linecap="butt"/><path d="M120,282.85714h240" fill="#000000" stroke-opacity="0.5" stroke="#ffffff" stroke-width="0.85714" stroke-linecap="butt"/><path d="M120,77.14286v205.71429" fill="#000000" stroke-opacity="0.5" stroke="#ffffff" stroke-width="0.85714" stroke-linecap="butt"/><path d="M137.14286,77.14286v205.71429" fill="#000000" stroke-opacity="0.5" stroke="#ffffff" stroke-width="0.85714" stroke-linecap="butt"/><path d="M154.28571,77.14286v205.71429" fill="#000000" stroke-opacity="0.5" stroke="#ffffff" stroke-width="0.85714" stroke-linecap="butt"/><path d="M171.42857,77.14286v205.71429" fill="#000000" stroke-opacity="0.5" stroke="#ffffff" stroke-width="0.85714" stroke-linecap="butt"/><path d="M188.57143,77.14286v205.71429" fill="#000000" stroke-opacity="0.5" stroke="#ffffff" stroke-width="0.85714" stroke-linecap="butt"/><path d="M205.71429,77.14286v205.71429" fill="#000000" stroke-opacity="0.5" stroke="#ffffff" stroke-width="0.85714" stroke-linecap="butt"/><path d="M222.85714,77.14286v205.71429" fill="#000000" stroke-opacity="0.5" stroke="#ffffff" stroke-width="0.85714" stroke-linecap="butt"/><path d="M240,77.14286v205.71429" fill="#000000" stroke-opacity="0.5" stroke="#ffffff" stroke-width="0.85714" stroke-linecap="butt"/><path d="M257.14286,77.14286v205.71429" fill="#000000" stroke-opacity="0.5" stroke="#ffffff" stroke-width="0.85714" stroke-linecap="butt"/><path d="M274.28571,282.85714v-205.71429" fill="#000000" stroke-opacity="0.5" stroke="#ffffff" stroke-width="0.85714" stroke-linecap="butt"/><path d="M291.42857,77.14286v205.71429" fill="#000000" stroke-opacity="0.5" stroke="#ffffff" stroke-width="0.85714" stroke-linecap="butt"/><path d="M308.57143,77.14286v205.71429" fill="#000000" stroke-opacity="0.5" stroke="#ffffff" stroke-width="0.85714" stroke-linecap="butt"/><path d="M325.71429,77.14286v205.71429" fill="#000000" stroke-opacity="0.5" stroke="#ffffff" stroke-width="0.85714" stroke-linecap="butt"/><path d="M342.85714,77.14286v205.71429" fill="#000000" stroke-opacity="0.5" stroke="#ffffff" stroke-width="0.85714" stroke-linecap="butt"/><path d="M360,77.14286v205.71429" fill="#000000" stroke-opacity="0.5" stroke="#ffffff" stroke-width="0.85714" stroke-linecap="butt"/><path d="M128.57143,222.85714h171.42857" fill="#000000" stroke-opacity="0.5" stroke="#a3ff33" stroke-width="16.28571" stroke-linecap="round"/><path d="M300,120v102.85714" fill="#000000" stroke-opacity="0.5" stroke="#a3ff33" stroke-width="16.28571" stroke-linecap="round"/><path d="M214.28571,205.71429v34.28571" fill="#000000" stroke-opacity="0.5" stroke="#a3ff33" stroke-width="16.28571" stroke-linecap="round"/><path d="M317.14286,137.14286h-34.28571" fill="#000000" stroke-opacity="0.5" stroke="#a3ff33" stroke-width="16.28571" stroke-linecap="round"/><path d="M128.57143,222.85714h171.42857" fill="#000000" stroke="#2d456f" stroke-width="11.14286" stroke-linecap="round"/><path d="M300,120v102.85714" fill="#000000" stroke="#2d456f" stroke-width="11.14286" stroke-linecap="round"/><path d="M214.28571,205.71429v34.28571" fill="#000000" stroke="#2d456f" stroke-width="11.14286" stroke-linecap="round"/><path d="M317.14286,137.14286h-34.28571" fill="#000000" stroke="#2d456f" stroke-width="11.14286" stroke-linecap="round"/><path d="M128.57143,248.57143c-4.73387,0 -8.57143,-3.83756 -8.57143,-8.57143v0c0,-4.73387 3.83756,-8.57143 8.57143,-8.57143h68.57143c4.73387,0 8.57143,3.83756 8.57143,8.57143v0c0,4.73387 -3.83756,8.57143 -8.57143,8.57143z" fill="#bcd5e0" stroke="none" stroke-width="1" stroke-linecap="butt"/><path d="M197.14286,265.71429c-4.73387,0 -8.57143,-3.83756 -8.57143,-8.57143v-17.14286c0,-4.73387 3.83756,-8.57143 8.57143,-8.57143v0c4.73387,0 8.57143,3.83756 8.57143,8.57143v17.14286c0,4.73387 -3.83756,8.57143 -8.57143,8.57143z" fill="#bcd5e0" stroke="none" stroke-width="1" stroke-linecap="butt"/><path d="M197.14286,265.71429c-4.73387,0 -8.57143,-3.83756 -8.57143,-8.57143v0c0,-4.73387 3.83756,-8.57143 8.57143,-8.57143h34.28571c4.73387,0 8.57143,3.83756 8.57143,8.57143v0c0,4.73387 -3.83756,8.57143 -8.57143,8.57143z" fill="#bcd5e0" stroke="none" stroke-width="1" stroke-linecap="butt"/><path d="M231.42857,265.71429c-4.73387,0 -8.57143,-3.83756 -8.57143,-8.57143v-17.14286c0,-4.73387 3.83756,-8.57143 8.57143,-8.57143v0c4.73387,0 8.57143,3.83756 8.57143,8.57143v17.14286c0,4.73387 -3.83756,8.57143 -8.57143,8.57143z" fill="#bcd5e0" stroke="none" stroke-width="1" stroke-linecap="butt"/><path d="M231.42857,248.57143c-4.73387,0 -8.57143,-3.83756 -8.57143,-8.57143v0c0,-4.73387 3.83756,-8.57143 8.57143,-8.57143h85.71429c4.73387,0 8.57143,3.83756 8.57143,8.57143v0c0,4.73387 -3.83756,8.57143 -8.57143,8.57143z" fill="#bcd5e0" stroke="none" stroke-width="1" stroke-linecap="butt"/><path d="M317.14286,248.57143c-4.73387,0 -8.57143,-3.83756 -8.57143,-8.57143v-85.71429c0,-4.73387 3.83756,-8.57143 8.57143,-8.57143v0c4.73387,0 8.57143,3.83756 8.57143,8.57143v85.71429c0,4.73387 -3.83756,8.57143 -8.57143,8.57143z" fill="#bcd5e0" stroke="none" stroke-width="1" stroke-linecap="butt"/><path d="M317.14286,162.85714c-4.73387,0 -8.57143,-3.83756 -8.57143,-8.57143v0c0,-4.73387 3.83756,-8.57143 8.57143,-8.57143h17.14286c4.73387,0 8.57143,3.83756 8.57143,8.57143v0c0,4.73387 -3.83756,8.57143 -8.57143,8.57143z" fill="#bcd5e0" stroke="none" stroke-width="1" stroke-linecap="butt"/><path d="M334.28571,162.85714c-4.73387,0 -8.57143,-3.83756 -8.57143,-8.57143v-34.28571c0,-4.73387 3.83756,-8.57143 8.57143,-8.57143v0c4.73387,0 8.57143,3.83756 8.57143,8.57143v34.28571c0,4.73387 -3.83756,8.57143 -8.57143,8.57143z" fill="#bcd5e0" stroke="none" stroke-width="1" stroke-linecap="butt"/><path d="M317.14286,128.57143c-4.73387,0 -8.57143,-3.83756 -8.57143,-8.57143v0c0,-4.73387 3.83756,-8.57143 8.57143,-8.57143h17.14286c4.73387,0 8.57143,3.83756 8.57143,8.57143v0c0,4.73387 -3.83756,8.57143 -8.57143,8.57143z" fill="#bcd5e0" stroke="none" stroke-width="1" stroke-linecap="butt"/><path d="M317.14286,128.57143c-4.73387,0 -8.57143,-3.83756 -8.57143,-8.57143v-17.14286c0,-4.73387 3.83756,-8.57143 8.57143,-8.57143v0c4.73387,0 8.57143,3.83756 8.57143,8.57143v17.14286c0,4.73387 -3.83756,8.57143 -8.57143,8.57143z" fill="#bcd5e0" stroke="none" stroke-width="1" stroke-linecap="butt"/><path d="M282.85714,111.42857c-4.73387,0 -8.57143,-3.83756 -8.57143,-8.57143v0c0,-4.73387 3.83756,-8.57143 8.57143,-8.57143h34.28571c4.73387,0 8.57143,3.83756 8.57143,8.57143v0c0,4.73387 -3.83756,8.57143 -8.57143,8.57143z" fill="#bcd5e0" stroke="none" stroke-width="1" stroke-linecap="butt"/><path d="M282.85714,128.57143c-4.73387,0 -8.57143,-3.83756 -8.57143,-8.57143v-17.14286c0,-4.73387 3.83756,-8.57143 8.57143,-8.57143v0c4.73387,0 8.57143,3.83756 8.57143,8.57143v17.14286c0,4.73387 -3.83756,8.57143 -8.57143,8.57143z" fill="#bcd5e0" stroke="none" stroke-width="1" stroke-linecap="butt"/><path d="M265.71429,128.57143c-4.73387,0 -8.57143,-3.83756 -8.57143,-8.57143v0c0,-4.73387 3.83756,-8.57143 8.57143,-8.57143h17.14286c4.73387,0 8.57143,3.83756 8.57143,8.57143v0c0,4.73387 -3.83756,8.57143 -8.57143,8.57143z" fill="#bcd5e0" stroke="none" stroke-width="1" stroke-linecap="butt"/><path d="M265.71429,162.85714c-4.73387,0 -8.57143,-3.83756 -8.57143,-8.57143v-34.28571c0,-4.73387 3.83756,-8.57143 8.57143,-8.57143v0c4.73387,0 8.57143,3.83756 8.57143,8.57143v34.28571c0,4.73387 -3.83756,8.57143 -8.57143,8.57143z" fill="#bcd5e0" stroke="none" stroke-width="1" stroke-linecap="butt"/><path d="M265.71429,162.85714c-4.73387,0 -8.57143,-3.83756 -8.57143,-8.57143v0c0,-4.73387 3.83756,-8.57143 8.57143,-8.57143h17.14286c4.73387,0 8.57143,3.83756 8.57143,8.57143v0c0,4.73387 -3.83756,8.57143 -8.57143,8.57143z" fill="#bcd5e0" stroke="none" stroke-width="1" stroke-linecap="butt"/><path d="M282.85714,214.28571c-4.73387,0 -8.57143,-3.83756 -8.57143,-8.57143v-51.42857c0,-4.73387 3.83756,-8.57143 8.57143,-8.57143v0c4.73387,0 8.57143,3.83756 8.57143,8.57143v51.42857c0,4.73387 -3.83756,8.57143 -8.57143,8.57143z" fill="#bcd5e0" stroke="none" stroke-width="1" stroke-linecap="butt"/><path d="M231.42857,214.28571c-4.73387,0 -8.57143,-3.83756 -8.57143,-8.57143v0c0,-4.73387 3.83756,-8.57143 8.57143,-8.57143h51.42857c4.73387,0 8.57143,3.83756 8.57143,8.57143v0c0,4.73387 -3.83756,8.57143 -8.57143,8.57143z" fill="#bcd5e0" stroke="none" stroke-width="1" stroke-linecap="butt"/><path d="M231.42857,214.28571c-4.73387,0 -8.57143,-3.83756 -8.57143,-8.57143v-17.14286c0,-4.73387 3.83756,-8.57143 8.57143,-8.57143v0c4.73387,0 8.57143,3.83756 8.57143,8.57143v17.14286c0,4.73387 -3.83756,8.57143 -8.57143,8.57143z" fill="#bcd5e0" stroke="none" stroke-width="1" stroke-linecap="butt"/><path d="M197.14286,197.14286c-4.73387,0 -8.57143,-3.83756 -8.57143,-8.57143v0c0,-4.73387 3.83756,-8.57143 8.57143,-8.57143h34.28571c4.73387,0 8.57143,3.83756 8.57143,8.57143v0c0,4.73387 -3.83756,8.57143 -8.57143,8.57143z" fill="#bcd5e0" stroke="none" stroke-width="1" stroke-linecap="butt"/><path d="M197.14286,214.28571c-4.73387,0 -8.57143,-3.83756 -8.57143,-8.57143v-17.14286c0,-4.73387 3.83756,-8.57143 8.57143,-8.57143v0c4.73387,0 8.57143,3.83756 8.57143,8.57143v17.14286c0,4.73387 -3.83756,8.57143 -8.57143,8.57143z" fill="#bcd5e0" stroke="none" stroke-width="1" stroke-linecap="butt"/><path d="M128.57143,214.28571c-4.73387,0 -8.57143,-3.83756 -8.57143,-8.57143v0c0,-4.73387 3.83756,-8.57143 8.57143,-8.57143h68.57143c4.73387,0 8.57143,3.83756 8.57143,8.57143v0c0,4.73387 -3.83756,8.57143 -8.57143,8.57143z" fill="#bcd5e0" stroke="none" stroke-width="1" stroke-linecap="butt"/><path d="M128.57143,240h68.57143" fill="#000000" stroke="#213a34" stroke-width="12.85714" stroke-linecap="round"/><path d="M197.14286,240v17.14286" fill="#000000" stroke="#213a34" stroke-width="12.85714" stroke-linecap="round"/><path d="M197.14286,257.14286h34.28571" fill="#000000" stroke="#213a34" stroke-width="12.85714" stroke-linecap="round"/><path d="M231.42857,257.14286v-17.14286" fill="#000000" stroke="#213a34" stroke-width="12.85714" stroke-linecap="round"/><path d="M317.14286,240h-85.71429" fill="#000000" stroke="#213a34" stroke-width="12.85714" stroke-linecap="round"/><path d="M317.14286,240v-85.71429" fill="#000000" stroke="#213a34" stroke-width="12.85714" stroke-linecap="round"/><path d="M317.14286,154.28571h17.14286" fill="#000000" stroke="#213a34" stroke-width="12.85714" stroke-linecap="round"/><path d="M334.28571,154.28571v-34.28571" fill="#000000" stroke="#213a34" stroke-width="12.85714" stroke-linecap="round"/><path d="M334.28571,120h-17.14286" fill="#000000" stroke="#213a34" stroke-width="12.85714" stroke-linecap="round"/><path d="M317.14286,102.85714v17.14286" fill="#000000" stroke="#213a34" stroke-width="12.85714" stroke-linecap="round"/><path d="M317.14286,102.85714h-34.28571" fill="#000000" stroke="#213a34" stroke-width="12.85714" stroke-linecap="round"/><path d="M282.85714,102.85714v17.14286" fill="#000000" stroke="#213a34" stroke-width="12.85714" stroke-linecap="round"/><path d="M282.85714,120h-17.14286" fill="#000000" stroke="#213a34" stroke-width="12.85714" stroke-linecap="round"/><path d="M265.71429,120v34.28571" fill="#000000" stroke="#213a34" stroke-width="12.85714" stroke-linecap="round"/><path d="M265.71429,154.28571h17.14286" fill="#000000" stroke="#213a34" stroke-width="12.85714" stroke-linecap="round"/><path d="M282.85714,154.28571v51.42857" fill="#000000" stroke="#213a34" stroke-width="12.85714" stroke-linecap="round"/><path d="M231.42857,205.71429h51.42857" fill="#000000" stroke="#213a34" stroke-width="12.85714" stroke-linecap="round"/><path d="M231.42857,205.71429v-17.14286" fill="#000000" stroke="#213a34" stroke-width="12.85714" stroke-linecap="round"/><path d="M197.14286,188.57143h34.28571" fill="#000000" stroke="#213a34" stroke-width="12.85714" stroke-linecap="round"/><path d="M197.14286,205.71429v-17.14286" fill="#000000" stroke="#213a34" stroke-width="12.85714" stroke-linecap="round"/><path d="M128.57143,205.71429h68.57143" fill="#000000" stroke="#213a34" stroke-width="12.85714" stroke-linecap="round"/><path d="M267.42857,154.28571c0,-3.7871 3.07005,-6.85714 6.85714,-6.85714c3.7871,0 6.85714,3.07005 6.85714,6.85714c0,3.7871 -3.07005,6.85714 -6.85714,6.85714c-3.7871,0 -6.85714,-3.07005 -6.85714,-6.85714z" fill="#5a9622" stroke="none" stroke-width="1" stroke-linecap="butt"/><path d="M258.85714,154.28571c0,-3.7871 3.07005,-6.85714 6.85714,-6.85714c3.7871,0 6.85714,3.07005 6.85714,6.85714c0,3.7871 -3.07005,6.85714 -6.85714,6.85714c-3.7871,0 -6.85714,-3.07005 -6.85714,-6.85714z" fill="#3f6718" stroke="none" stroke-width="1" stroke-linecap="butt"/><path d="M258.85714,145.71429c0,-3.7871 3.07005,-6.85714 6.85714,-6.85714c3.7871,0 6.85714,3.07005 6.85714,6.85714c0,3.7871 -3.07005,6.85714 -6.85714,6.85714c-3.7871,0 -6.85714,-3.07005 -6.85714,-6.85714z" fill="#5a9622" stroke="none" stroke-width="1" stroke-linecap="butt"/><path d="M258.85714,137.14286c0,-3.7871 3.07005,-6.85714 6.85714,-6.85714c3.7871,0 6.85714,3.07005 6.85714,6.85714c0,3.7871 -3.07005,6.85714 -6.85714,6.85714c-3.7871,0 -6.85714,-3.07005 -6.85714,-6.85714z" fill="#3f6718" stroke="none" stroke-width="1" stroke-linecap="butt"/><path d="M258.85714,128.57143c0,-3.7871 3.07005,-6.85714 6.85714,-6.85714c3.7871,0 6.85714,3.07005 6.85714,6.85714c0,3.7871 -3.07005,6.85714 -6.85714,6.85714c-3.7871,0 -6.85714,-3.07005 -6.85714,-6.85714z" fill="#5a9622" stroke="none" stroke-width="1" stroke-linecap="butt"/><path d="M258.85714,120c0,-3.7871 3.07005,-6.85714 6.85714,-6.85714c3.7871,0 6.85714,3.07005 6.85714,6.85714c0,3.7871 -3.07005,6.85714 -6.85714,6.85714c-3.7871,0 -6.85714,-3.07005 -6.85714,-6.85714z" fill="#3f6718" stroke="none" stroke-width="1" stroke-linecap="butt"/><path d="M267.42857,120c0,-3.7871 3.07005,-6.85714 6.85714,-6.85714c3.7871,0 6.85714,3.07005 6.85714,6.85714c0,3.7871 -3.07005,6.85714 -6.85714,6.85714c-3.7871,0 -6.85714,-3.07005 -6.85714,-6.85714z" fill="#5a9622" stroke="none" stroke-width="1" stroke-linecap="butt"/><path d="M276,120c0,-3.7871 3.07005,-6.85714 6.85714,-6.85714c3.7871,0 6.85714,3.07005 6.85714,6.85714c0,3.7871 -3.07005,6.85714 -6.85714,6.85714c-3.7871,0 -6.85714,-3.07005 -6.85714,-6.85714z" fill="#3f6718" stroke="none" stroke-width="1" stroke-linecap="butt"/><path d="M276,111.42857c0,-3.7871 3.07005,-6.85714 6.85714,-6.85714c3.7871,0 6.85714,3.07005 6.85714,6.85714c0,3.7871 -3.07005,6.85714 -6.85714,6.85714c-3.7871,0 -6.85714,-3.07005 -6.85714,-6.85714z" fill="#5a9622" stroke="none" stroke-width="1" stroke-linecap="butt"/><path d="M276,102.85714c0,-3.7871 3.07005,-6.85714 6.85714,-6.85714c3.7871,0 6.85714,3.07005 6.85714,6.85714c0,3.7871 -3.07005,6.85714 -6.85714,6.85714c-3.7871,0 -6.85714,-3.07005 -6.85714,-6.85714z" fill="#3f6718" stroke="none" stroke-width="1" stroke-linecap="butt"/><path d="M284.57143,102.85714c0,-3.7871 3.07005,-6.85714 6.85714,-6.85714c3.7871,0 6.85714,3.07005 6.85714,6.85714c0,3.7871 -3.07005,6.85714 -6.85714,6.85714c-3.7871,0 -6.85714,-3.07005 -6.85714,-6.85714z" fill="#5a9622" stroke="none" stroke-width="1" stroke-linecap="butt"/><path d="M293.14286,102.85714c0,-3.7871 3.07005,-6.85714 6.85714,-6.85714c3.7871,0 6.85714,3.07005 6.85714,6.85714c0,3.7871 -3.07005,6.85714 -6.85714,6.85714c-3.7871,0 -6.85714,-3.07005 -6.85714,-6.85714z" fill="#3f6718" stroke="none" stroke-width="1" stroke-linecap="butt"/><path d="M301.71429,102.85714c0,-3.7871 3.07005,-6.85714 6.85714,-6.85714c3.7871,0 6.85714,3.07005 6.85714,6.85714c0,3.7871 -3.07005,6.85714 -6.85714,6.85714c-3.7871,0 -6.85714,-3.07005 -6.85714,-6.85714z" fill="#5a9622" stroke="none" stroke-width="1" stroke-linecap="butt"/><path d="M310.28571,102.85714c0,-3.7871 3.07005,-6.85714 6.85714,-6.85714c3.7871,0 6.85714,3.07005 6.85714,6.85714c0,3.7871 -3.07005,6.85714 -6.85714,6.85714c-3.7871,0 -6.85714,-3.07005 -6.85714,-6.85714z" fill="#3f6718" stroke="none" stroke-width="1" stroke-linecap="butt"/><path d="M310.28571,111.42857c0,-3.7871 3.07005,-6.85714 6.85714,-6.85714c3.7871,0 6.85714,3.07005 6.85714,6.85714c0,3.7871 -3.07005,6.85714 -6.85714,6.85714c-3.7871,0 -6.85714,-3.07005 -6.85714,-6.85714z" fill="#5a9622" stroke="none" stroke-width="1" stroke-linecap="butt"/><path d="M310.28571,120c0,-3.7871 3.07005,-6.85714 6.85714,-6.85714c3.7871,0 6.85714,3.07005 6.85714,6.85714c0,3.7871 -3.07005,6.85714 -6.85714,6.85714c-3.7871,0 -6.85714,-3.07005 -6.85714,-6.85714z" fill="#3f6718" stroke="none" stroke-width="1" stroke-linecap="butt"/><path d="M318.85714,120c0,-3.7871 3.07005,-6.85714 6.85714,-6.85714c3.7871,0 6.85714,3.07005 6.85714,6.85714c0,3.7871 -3.07005,6.85714 -6.85714,6.85714c-3.7871,0 -6.85714,-3.07005 -6.85714,-6.85714z" fill="#5a9622" stroke="none" stroke-width="1" stroke-linecap="butt"/><path d="M327.42857,120c0,-3.7871 3.07005,-6.85714 6.85714,-6.85714c3.7871,0 6.85714,3.07005 6.85714,6.85714c0,3.7871 -3.07005,6.85714 -6.85714,6.85714c-3.7871,0 -6.85714,-3.07005 -6.85714,-6.85714z" fill="#3f6718" stroke="none" stroke-width="1" stroke-linecap="butt"/><path d="M327.42857,128.57143c0,-3.7871 3.07005,-6.85714 6.85714,-6.85714c3.7871,0 6.85714,3.07005 6.85714,6.85714c0,3.7871 -3.07005,6.85714 -6.85714,6.85714c-3.7871,0 -6.85714,-3.07005 -6.85714,-6.85714z" fill="#5a9622" stroke="none" stroke-width="1" stroke-linecap="butt"/><path d="M327.42857,137.14286c0,-3.7871 3.07005,-6.85714 6.85714,-6.85714c3.7871,0 6.85714,3.07005 6.85714,6.85714c0,3.7871 -3.07005,6.85714 -6.85714,6.85714c-3.7871,0 -6.85714,-3.07005 -6.85714,-6.85714z" fill="#3f6718" stroke="none" stroke-width="1" stroke-linecap="butt"/><path d="M327.42857,145.71429c0,-3.7871 3.07005,-6.85714 6.85714,-6.85714c3.7871,0 6.85714,3.07005 6.85714,6.85714c0,3.7871 -3.07005,6.85714 -6.85714,6.85714c-3.7871,0 -6.85714,-3.07005 -6.85714,-6.85714z" fill="#5a9622" stroke="none" stroke-width="1" stroke-linecap="butt"/><path d="M327.42857,154.28571c0,-3.7871 3.07005,-6.85714 6.85714,-6.85714c3.7871,0 6.85714,3.07005 6.85714,6.85714c0,3.7871 -3.07005,6.85714 -6.85714,6.85714c-3.7871,0 -6.85714,-3.07005 -6.85714,-6.85714z" fill="#3f6718" stroke="none" stroke-width="1" stroke-linecap="butt"/><path d="M327.42857,154.28571c0,-3.7871 3.07005,-6.85714 6.85714,-6.85714c3.7871,0 6.85714,3.07005 6.85714,6.85714c0,3.7871 -3.07005,6.85714 -6.85714,6.85714c-3.7871,0 -6.85714,-3.07005 -6.85714,-6.85714z" fill="#3f6718" stroke="none" stroke-width="1" stroke-linecap="butt"/><path d="M318.85714,154.28571c0,-3.7871 3.07005,-6.85714 6.85714,-6.85714c3.7871,0 6.85714,3.07005 6.85714,6.85714c0,3.7871 -3.07005,6.85714 -6.85714,6.85714c-3.7871,0 -6.85714,-3.07005 -6.85714,-6.85714z" fill="#5a9622" stroke="none" stroke-width="1" stroke-linecap="butt"/><path d="M310.28571,154.28571c0,-3.7871 3.07005,-6.85714 6.85714,-6.85714c3.7871,0 6.85714,3.07005 6.85714,6.85714c0,3.7871 -3.07005,6.85714 -6.85714,6.85714c-3.7871,0 -6.85714,-3.07005 -6.85714,-6.85714z" fill="#3f6718" stroke="none" stroke-width="1" stroke-linecap="butt"/><path d="M120,240c0,-4.73387 3.83756,-8.57143 8.57143,-8.57143c4.73387,0 8.57143,3.83756 8.57143,8.57143c0,4.73387 -3.83756,8.57143 -8.57143,8.57143c-4.73387,0 -8.57143,-3.83756 -8.57143,-8.57143z" fill-opacity="0.35" fill="#00ff44" stroke="none" stroke-width="1" stroke-linecap="butt"/><path d="M120,205.71429c0,-4.73387 3.83756,-8.57143 8.57143,-8.57143c4.73387,0 8.57143,3.83756 8.57143,8.57143c0,4.73387 -3.83756,8.57143 -8.57143,8.57143c-4.73387,0 -8.57143,-3.83756 -8.57143,-8.57143z" fill-opacity="0.35" fill="#ff0404" stroke="none" stroke-width="1" stroke-linecap="butt"/></g></g></svg>