<svg width="480px" height="360px" xmlns="http://www.w3.org/2000/svg"><path fill="#F00" d="M242.106 167.709L250.283 167.709L250.283 179.780Q250.283 181.065 249.916 182.063Q249.549 183.060 248.863 183.746Q248.178 184.432 247.180 184.787Q246.182 185.142 244.933 185.142L244.933 185.142Q244.028 185.142 243.164 184.976Q242.301 184.811 241.604 184.517L241.604 184.517L241.604 182.485Q241.983 182.681 242.418 182.840Q242.852 182.999 243.311 183.109Q243.770 183.220 244.236 183.275Q244.701 183.330 245.142 183.330L245.142 183.330Q246.537 183.330 247.333 182.448Q248.129 181.567 248.129 179.853L248.129 179.853L248.129 169.472L242.106 169.472L242.106 167.709ZM248.998 162.555L248.998 162.555Q249.353 162.555 249.659 162.684Q249.965 162.813 250.191 163.045Q250.418 163.278 250.546 163.584Q250.675 163.890 250.675 164.233L250.675 164.233Q250.675 164.588 250.546 164.888Q250.418 165.187 250.191 165.420Q249.965 165.653 249.659 165.781Q249.353 165.910 248.998 165.910L248.998 165.910Q248.643 165.910 248.337 165.781Q248.031 165.653 247.804 165.420Q247.578 165.187 247.449 164.888Q247.321 164.588 247.321 164.233L247.321 164.233Q247.321 163.890 247.449 163.584Q247.578 163.278 247.804 163.045Q248.031 162.813 248.337 162.684Q248.643 162.555 248.998 162.555Z"/></svg>