<svg version="1.1" xmlns="http://www.w3.org/2000/svg" xmlns:xlink="http://www.w3.org/1999/xlink" width="63.88956" height="60.26072" viewBox="0,0,63.88956,60.26072"><defs><linearGradient x1="271.12823" y1="121.18567" x2="271.12823" y2="179.94638" gradientUnits="userSpaceOnUse" id="color-1"><stop offset="0" stop-color="#545f96"/><stop offset="1" stop-color="#2a3569"/></linearGradient><linearGradient x1="270.89207" y1="167.57145" x2="270.89207" y2="180.14318" gradientUnits="userSpaceOnUse" id="color-2"><stop offset="0" stop-color="#5a76ff"/><stop offset="1" stop-color="#2843c8"/></linearGradient><radialGradient cx="269.50121" cy="143.44428" r="22.30971" gradientUnits="userSpaceOnUse" id="color-3"><stop offset="0" stop-color="#fdff88"/><stop offset="1" stop-color="#fdff88" stop-opacity="0"/></radialGradient><radialGradient cx="290.04916" cy="136.91472" r="5.75" gradientUnits="userSpaceOnUse" id="color-4"><stop offset="0" stop-color="#a7840c"/><stop offset="1" stop-color="#e4e4e4"/></radialGradient><radialGradient cx="290.04916" cy="136.91472" r="5.75" gradientUnits="userSpaceOnUse" id="color-5"><stop offset="0" stop-color="#fdff88"/><stop offset="1" stop-color="#fdff88" stop-opacity="0"/></radialGradient><radialGradient cx="249.03339" cy="152.09239" r="3.89584" gradientUnits="userSpaceOnUse" id="color-6"><stop offset="0" stop-color="#a7840c"/><stop offset="1" stop-color="#e4e4e4"/></radialGradient><radialGradient cx="249.03339" cy="152.09239" r="3.89583" gradientUnits="userSpaceOnUse" id="color-7"><stop offset="0" stop-color="#fdff88"/><stop offset="1" stop-color="#fdff88" stop-opacity="0"/></radialGradient><radialGradient cx="265.66607" cy="133.93268" r="21.77143" gradientUnits="userSpaceOnUse" id="color-8"><stop offset="0" stop-color="#efff00"/><stop offset="1" stop-color="#efff00" stop-opacity="0"/></radialGradient><radialGradient cx="265.66607" cy="133.93268" r="21.77143" gradientUnits="userSpaceOnUse" id="color-9"><stop offset="0" stop-color="#f0ff00"/><stop offset="1" stop-color="#f0ff00" stop-opacity="0"/></radialGradient><radialGradient cx="271.33079" cy="153.15255" r="21.77143" gradientUnits="userSpaceOnUse" id="color-10"><stop offset="0" stop-color="#efff00"/><stop offset="1" stop-color="#efff00" stop-opacity="0"/></radialGradient><radialGradient cx="271.33079" cy="153.15255" r="21.77143" gradientUnits="userSpaceOnUse" id="color-11"><stop offset="0" stop-color="#f0ff00"/><stop offset="1" stop-color="#f0ff00" stop-opacity="0"/></radialGradient></defs><g transform="translate(-238.42045,-120.43566)"><g data-paper-data="{&quot;isPaintingLayer&quot;:true}" fill-rule="nonzero" stroke-linecap="butt" stroke-linejoin="miter" stroke-miterlimit="10" stroke-dasharray="" stroke-dashoffset="0" style="mix-blend-mode: normal"><path d="M240.61343,179.94638v-58.76072h60.94658v58.76072z" fill="url(#color-1)" stroke="#2843c8" stroke-width="1.5"/><path d="M239.96364,180.14318v-12.57143h61.85715v12.57143z" fill="url(#color-2)" stroke="none" stroke-width="0"/><path d="M292.22742,135.47394c2.40657,6.86198 -5.81739,15.99316 -18.36872,20.39505c-12.55134,4.40189 -24.67714,2.4076 -27.0837,-4.45438c-2.40657,-6.86198 5.8174,-15.99315 18.36874,-20.39504c12.55134,-4.40189 24.67712,-2.4076 27.08369,4.45438z" fill="none" stroke="url(#color-3)" stroke-width="4.5"/><path d="M284.34771,136.16911c0.41179,-3.14882 3.29823,-5.36764 6.44706,-4.95585c3.14882,0.41179 5.36764,3.29824 4.95585,6.44706c-0.41179,3.14882 -3.29823,5.36764 -6.44705,4.95585c-3.14882,-0.41179 -5.36764,-3.29824 -4.95585,-6.44706z" fill="url(#color-4)" stroke="url(#color-5)" stroke-width="4"/><path d="M245.17045,151.58721c0.279,-2.13344 2.23467,-3.63676 4.36811,-3.35776c2.13344,0.279 3.63677,2.23466 3.35777,4.3681c-0.279,2.13344 -2.23467,3.63678 -4.36812,3.35778c-2.13344,-0.279 -3.63676,-2.23468 -3.35777,-4.36812z" fill="url(#color-6)" stroke="url(#color-7)" stroke-width="13.5"/><path d="M287.5625,129.1875c0,0.75 -1.625,0.375 -1.625,0.375l0.22791,-2.38957c-2.13286,-0.54551 -4.64039,1.61812 -5.39535,3.51327c-0.27884,0.69997 -0.15873,1.56552 -0.59303,2.18123c-1.30769,1.85392 -4.35716,2.90453 -5.21343,0.14122c-0.32143,-1.0373 -0.20178,-2.20474 -0.37899,-3.26537c-0.31729,-0.94246 -0.51345,-2.05833 -1.03552,-2.9105c-1.71105,-2.79295 -4.73055,0.83629 -5.25294,2.88541c-0.26987,1.05858 -0.03588,2.35475 -0.24581,3.47878c-0.06547,0.35054 -0.21916,1.8066 -0.35334,2.0154c-0.92537,1.43992 -3.01567,1.62316 -4.49808,1.5061c-0.82737,-1.16902 -1.14217,-2.29538 -1.87787,-3.47878c-1.09569,-1.76244 -3.9389,-4.0898 -5.57717,-1.3638c-0.49182,0.81835 0.7685,3.14061 1.02176,3.80066c0.91046,2.37283 -0.00389,5.26556 -1.8698,6.85459c-0.34264,0.23878 -0.63986,0.56192 -1.0279,0.71633c-4.45809,1.77398 -3.25586,-4.89012 -5.26495,-6.71722c-3.12894,-2.84552 -1.1655,3.91121 -1.1655,5.15724c0,0 -0.75,0.875 -1.5,0.875c-0.75,0 -0.5,-1 -0.5,-1c0,-1.12702 -0.22269,-2.18239 -0.12312,-3.30317c0.22122,-2.48999 2.0772,-4.69576 4.20761,-2.91459c1.81685,1.51901 1.37389,8.27779 4.45716,5.99911c4.02636,-3.25386 -1.32572,-6.71005 0.40196,-10.09475c0.2243,-0.43944 0.70674,-0.6893 1.07801,-1.01423c4.04995,-3.54443 7.01583,2.07394 8.46695,5.17165c0.71785,-0.19845 2.07153,-0.30203 2.50192,-0.9939c0.78084,-1.25523 0.0638,-3.6381 0.40085,-5.00582c0.82827,-3.3611 5.36404,-7.47017 7.99015,-3.37236c0.62034,0.96799 0.86238,2.26065 1.22139,3.34727c0.16165,0.97167 -0.08268,2.98131 0.55244,3.77546c0.48017,0.60039 2.10081,-0.8007 2.35514,-1.14961c0.45018,-0.61759 0.12982,-1.12846 0.40697,-1.81877c1.10961,-2.76381 4.43678,-4.61304 7.47965,-4.11173c0,0 0.72791,2.36043 0.72791,3.11043z" fill="url(#color-8)" stroke="url(#color-9)" stroke-width="0.5"/><path d="M249.34736,159.80418c-0.01406,-0.74987 2.36082,-0.01392 2.36082,-0.01392l-1.47769,-0.61554c2.1427,0.50546 5.34047,-0.58429 6.0598,-2.49326c0.26568,-0.70507 0.12937,-1.56823 0.55205,-2.19197c1.27272,-1.87809 4.30197,-2.98566 5.20987,-0.23888c0.34081,1.03109 0.24305,2.20057 0.4401,3.2577c0.3349,0.93635 0.55194,2.04836 1.08988,2.89059c1.76308,2.76039 4.71404,-0.92478 5.19795,-2.98333c0.24999,-1.06346 -0.00824,-2.35501 0.18059,-3.48278c0.05889,-0.3517 0.18527,-1.81039 0.31552,-2.02167c0.89823,-1.45701 2.98472,-1.67938 4.46907,-1.59012c0.84913,1.1533 1.18498,2.27358 1.94272,3.44299c1.12851,1.7416 4.01484,4.01528 5.60174,1.25906c0.4764,-0.82742 -0.8272,-3.12565 -1.09279,-3.78085c-0.95477,-2.35536 -0.09478,-5.26471 1.74103,-6.88842c0.3381,-0.24516 0.62922,-0.57381 1.0143,-0.73547c4.42407,-1.8572 3.34691,4.82825 5.38988,6.61739c3.18171,2.78639 3.10103,-3.46993 3.07769,-4.71574c0,0 -0.01405,-0.74986 0.73582,-0.76392c0.74987,-0.01406 0.76392,0.73582 0.76392,0.73582c0.02112,1.12681 0.14091,2.30515 0.06235,3.4276c-0.17453,2.4937 -3.37298,4.25971 -5.53639,2.51878c-1.84499,-1.4847 -1.52875,-8.2506 -4.56878,-5.91455c-3.96468,3.32873 1.45121,6.68402 -0.21275,10.10051c-0.21603,0.44357 -0.6937,0.70243 -1.05882,1.03426c-3.98282,3.6197 -7.05345,-1.94211 -8.56236,-5.01209c-0.714,0.21187 -2.06551,0.34079 -2.48286,1.0406c-0.75719,1.26964 0.00438,3.63866 -0.30698,5.01245c-0.76515,3.37604 -5.22313,7.56936 -7.92557,3.52148c-0.63837,-0.9562 -0.90459,-2.24409 -1.28389,-3.32379c-0.17984,-0.96847 0.02681,-2.98234 -0.62309,-3.76444c-0.49133,-0.59129 -2.08544,0.83992 -2.33318,1.19353c-0.43853,0.62592 -0.10866,1.1307 -0.37282,1.82608c-1.05763,2.78412 -4.19881,4.81778 -7.25055,4.37357c0,0 -1.10251,-0.9718 -1.11657,-1.72167z" fill="url(#color-10)" stroke="url(#color-11)" stroke-width="0.5"/></g></g></svg>