<svg version="1.1" xmlns="http://www.w3.org/2000/svg" xmlns:xlink="http://www.w3.org/1999/xlink" width="17.80952" height="13.38096" viewBox="0,0,17.80952,13.38096"><defs><radialGradient cx="248.88095" cy="172.83335" r="8.40476" gradientUnits="userSpaceOnUse" id="color-1"><stop offset="0" stop-color="#000000"/><stop offset="1" stop-color="#ffffff"/></radialGradient><radialGradient cx="248.88096" cy="172.83334" r="4.84571" gradientUnits="userSpaceOnUse" id="color-2"><stop offset="0" stop-color="#000000"/><stop offset="1" stop-color="#ffffff"/></radialGradient></defs><g transform="translate(-239.97619,-166.14286)"><g data-paper-data="{&quot;isPaintingLayer&quot;:true}" fill="none" fill-rule="nonzero" stroke-linecap="butt" stroke-linejoin="miter" stroke-miterlimit="10" stroke-dasharray="" stroke-dashoffset="0" style="mix-blend-mode: normal"><path d="M240.47619,172.83335c0,-3.4189 3.76293,-6.19048 8.40476,-6.19048c4.64182,0 8.40476,2.77157 8.40476,6.19048c0,3.4189 -3.76293,6.19047 -8.40476,6.19047c-4.64182,0 -8.40476,-2.77157 -8.40476,-6.19047z" stroke="url(#color-1)" stroke-width="1"/><path d="M253.72666,172.83334c0,1.70295 -2.1695,3.08347 -4.84571,3.08347c-2.67622,0 -4.84571,-1.38052 -4.84571,-3.08347c0,-1.70295 2.1695,-3.08347 4.84571,-3.08347c2.67622,0 4.84571,1.38053 4.84571,3.08347z" stroke="url(#color-2)" stroke-width="3"/></g></g></svg>