<svg version="1.1" xmlns="http://www.w3.org/2000/svg" xmlns:xlink="http://www.w3.org/1999/xlink" width="159.2766" height="158.78257" viewBox="0,0,159.2766,158.78257"><g transform="translate(-84.82937,-4.31704)"><g data-paper-data="{&quot;isPaintingLayer&quot;:true}" fill="#000000" fill-rule="nonzero" stroke="none" stroke-width="1" stroke-linecap="butt" stroke-linejoin="miter" stroke-miterlimit="10" stroke-dasharray="" stroke-dashoffset="0" style="mix-blend-mode: normal"><path d="M136.11054,4.32123c0.53471,-0.03576 0.60622,0.14302 0.42744,1.10518c-0.10727,0.64035 -1.56838,10.94127 -3.24402,22.91782c-1.7114,11.9408 -3.17251,21.99305 -3.24402,22.24172c-0.10727,0.35593 -2.74344,-2.03158 -7.5916,-6.87974l-7.41445,-7.41445l-2.10309,2.38751c-4.88391,5.48851 -9.01858,12.29674 -11.90505,19.49665c-9.303,23.238 -5.34711,48.93665 10.5512,68.61045c6.23613,7.66311 14.11378,13.82936 23.38102,18.2842c8.91131,4.24193 16.8946,6.23776 26.83958,6.6652c20.88787,0.89227 41.55958,-8.26771 54.99725,-24.30742c17.32367,-20.67334 20.95776,-49.29421 9.33876,-73.53175c-8.0548,-16.82309 -22.6334,-29.65454 -40.09847,-35.35758c-1.96007,-0.64198 -3.63571,-1.21245 -3.70722,-1.28396c-0.17878,-0.1414 2.53053,-10.2294 2.85071,-10.62109c0.39331,-0.42907 7.05851,1.78129 11.97656,3.95589c16.64431,7.4502 30.97263,21.31532 38.92178,37.63945c5.66566,11.72789 8.01904,22.02881 8.01904,35.18043c0,8.26933 -0.49896,12.58116 -2.45902,20.13863c-4.41909,17.17902 -14.89878,32.86281 -29.11983,43.55541c-10.51545,7.9134 -21.77852,12.7258 -35.46485,15.11331c-6.62945,1.17669 -18.606,1.17669 -25.16394,0c-17.96403,-3.17089 -32.68565,-10.86975 -44.83936,-23.45254c-11.619,-12.04644 -18.92618,-26.83958 -21.59974,-43.69843c-0.74925,-4.91967 -0.85651,-17.821 -0.17878,-22.1702c1.53262,-9.41027 3.67147,-16.29 7.55584,-24.23754c2.95798,-6.09473 6.05898,-11.01278 9.69469,-15.36198c1.2482,-1.49687 2.70931,-3.27815 3.27978,-3.95589l1.03367,-1.2482l-8.48224,-8.48224c-4.70513,-4.70513 -8.44811,-8.58951 -8.3766,-8.66102c0.10727,-0.07151 10.37242,-1.56838 22.81218,-3.35129c12.43976,-1.78129 22.91782,-3.2424 23.31276,-3.27653z"/></g></g></svg>