<svg width="480px" height="360px" xmlns="http://www.w3.org/2000/svg"><path fill="#F00" d="M245.717 180.147L245.717 180.147Q244.444 179.963 243.501 179.339Q242.559 178.715 241.934 177.692Q241.310 176.670 241.004 175.281Q240.698 173.891 240.698 172.202L240.698 172.202Q240.698 170.023 241.200 168.432Q241.702 166.840 242.565 165.806Q243.428 164.771 244.578 164.275Q245.729 163.780 247.015 163.780L247.015 163.780Q248.557 163.780 249.702 164.337Q250.846 164.894 251.605 165.940Q252.364 166.987 252.738 168.474Q253.111 169.962 253.111 171.822L253.111 171.822Q253.111 173.781 252.695 175.256Q252.279 176.731 251.556 177.760Q250.834 178.788 249.855 179.376Q248.875 179.963 247.749 180.147L247.749 180.147Q247.933 181.224 248.606 181.879Q249.279 182.534 250.503 182.534L250.503 182.534Q251.091 182.534 251.660 182.338Q252.230 182.142 252.817 181.677L252.817 181.677L253.784 183.183Q252.976 183.844 252.119 184.125Q251.262 184.407 250.357 184.407L250.357 184.407Q249.377 184.407 248.557 184.138Q247.737 183.868 247.131 183.336Q246.525 182.803 246.158 182.002Q245.790 181.200 245.717 180.147ZM250.846 172.080L250.846 172.080Q250.846 170.660 250.632 169.490Q250.418 168.321 249.940 167.483Q249.463 166.644 248.710 166.179Q247.957 165.714 246.892 165.714L246.892 165.714Q245.864 165.714 245.123 166.204Q244.383 166.693 243.905 167.532Q243.428 168.370 243.195 169.490Q242.963 170.611 242.963 171.871L242.963 171.871Q242.963 173.328 243.183 174.510Q243.403 175.691 243.875 176.536Q244.346 177.380 245.093 177.839Q245.839 178.298 246.892 178.298L246.892 178.298Q247.920 178.298 248.667 177.809Q249.414 177.319 249.897 176.474Q250.381 175.630 250.614 174.497Q250.846 173.365 250.846 172.080Z"/></svg>