<svg version="1.1" xmlns="http://www.w3.org/2000/svg" xmlns:xlink="http://www.w3.org/1999/xlink" width="6.784" height="6.80403" viewBox="0,0,6.784,6.80403"><g transform="translate(-243.402,-170.61597)"><g data-paper-data="{&quot;isPaintingLayer&quot;:true}" fill="#ff0000" fill-rule="nonzero" stroke="none" stroke-width="1" stroke-linecap="butt" stroke-linejoin="miter" stroke-miterlimit="10" stroke-dasharray="" stroke-dashoffset="0" style="mix-blend-mode: normal"><path d="M246.794,170.61597c0.46295,0 0.90253,0.08847 1.31874,0.26542c0.41509,0.17694 0.77622,0.42233 1.08337,0.73616c0.30604,0.31272 0.54753,0.67717 0.72447,1.09339c0.17694,0.41509 0.26542,0.8608 0.26542,1.3371c0,0.46406 -0.08847,0.90031 -0.26542,1.30872c-0.17694,0.40842 -0.41843,0.7662 -0.72447,1.07335c-0.30715,0.30604 -0.66828,0.54753 -1.08337,0.72447c-0.41621,0.17694 -0.85579,0.26542 -1.31874,0.26542c-0.47631,0 -0.91922,-0.08847 -1.32876,-0.26542c-0.40842,-0.17694 -0.76565,-0.41843 -1.07169,-0.72447c-0.30715,-0.30715 -0.5492,-0.66494 -0.72614,-1.07335c-0.17694,-0.40842 -0.26542,-0.84466 -0.26542,-1.30872c0,-0.47631 0.08847,-0.92201 0.26542,-1.3371c0.17694,-0.41621 0.41899,-0.78067 0.72614,-1.09339c0.30604,-0.31383 0.66327,-0.55921 1.07169,-0.73616c0.40954,-0.17694 0.85245,-0.26542 1.32876,-0.26542z"/></g></g></svg>