<svg width="480px" height="360px" xmlns="http://www.w3.org/2000/svg"><path fill="#F00" d="M252.707 172.006L252.707 172.006Q252.707 173.842 252.340 175.354Q251.972 176.866 251.226 177.950Q250.479 179.033 249.371 179.627Q248.263 180.220 246.770 180.220L246.770 180.220Q245.484 180.220 244.432 179.737Q243.379 179.253 242.632 178.249Q241.885 177.246 241.481 175.691Q241.077 174.136 241.077 172.006L241.077 172.006Q241.077 170.170 241.451 168.652Q241.824 167.134 242.565 166.050Q243.305 164.967 244.419 164.373Q245.533 163.780 247.015 163.780L247.015 163.780Q248.300 163.780 249.353 164.263Q250.406 164.747 251.152 165.757Q251.899 166.767 252.303 168.321Q252.707 169.876 252.707 172.006ZM250.552 172.080L250.552 172.080Q250.552 171.663 250.522 171.253Q250.491 170.843 250.454 170.451L250.454 170.451L243.685 175.483Q243.868 176.119 244.150 176.658Q244.432 177.197 244.829 177.582Q245.227 177.968 245.735 178.182Q246.243 178.396 246.892 178.396L246.892 178.396Q247.725 178.396 248.404 177.992Q249.083 177.588 249.561 176.793Q250.038 175.997 250.295 174.816Q250.552 173.634 250.552 172.080ZM243.232 171.933L243.232 171.933Q243.232 172.312 243.238 172.692Q243.244 173.071 243.281 173.426L243.281 173.426L250.050 168.419Q249.867 167.795 249.585 167.281Q249.304 166.767 248.912 166.393Q248.520 166.020 248.018 165.812Q247.516 165.604 246.892 165.604L246.892 165.604Q246.060 165.604 245.380 166.008Q244.701 166.412 244.223 167.213Q243.746 168.015 243.489 169.197Q243.232 170.378 243.232 171.933Z"/></svg>