<svg width="480px" height="360px" xmlns="http://www.w3.org/2000/svg"><path fill="#F00" d="M251.764 180L249.855 180L249.806 178.347Q248.802 179.339 247.767 179.780Q246.733 180.220 245.594 180.220L245.594 180.220Q244.542 180.220 243.795 179.951Q243.048 179.682 242.565 179.210Q242.081 178.739 241.855 178.103Q241.628 177.466 241.628 176.719L241.628 176.719Q241.628 174.871 243.005 173.824Q244.383 172.777 247.076 172.777L247.076 172.777L249.622 172.777L249.622 171.700Q249.622 170.611 248.924 169.956Q248.226 169.301 246.794 169.301L246.794 169.301Q245.754 169.301 244.744 169.533Q243.734 169.766 242.656 170.194L242.656 170.194L242.656 168.272Q243.060 168.125 243.556 167.985Q244.052 167.844 244.603 167.734Q245.154 167.624 245.754 167.556Q246.353 167.489 246.966 167.489L246.966 167.489Q248.080 167.489 248.973 167.734Q249.867 167.979 250.485 168.480Q251.103 168.982 251.434 169.741Q251.764 170.500 251.764 171.529L251.764 171.529L251.764 180ZM249.622 176.585L249.622 174.406L246.917 174.406Q246.121 174.406 245.546 174.565Q244.970 174.724 244.603 175.018Q244.236 175.311 244.058 175.721Q243.881 176.132 243.881 176.646L243.881 176.646Q243.881 177.001 243.991 177.325Q244.101 177.650 244.346 177.901Q244.591 178.151 244.982 178.298Q245.374 178.445 245.937 178.445L245.937 178.445Q246.672 178.445 247.621 177.998Q248.569 177.552 249.622 176.585L249.622 176.585Z"/></svg>