<svg version="1.1" xmlns="http://www.w3.org/2000/svg" xmlns:xlink="http://www.w3.org/1999/xlink" width="62.36325" height="60.81492" viewBox="0,0,62.36325,60.81492"><defs><linearGradient x1="270.89485" y1="121.10216" x2="270.89485" y2="179.86285" gradientUnits="userSpaceOnUse" id="color-1"><stop offset="0" stop-color="#455f06"/><stop offset="1" stop-color="#233103"/></linearGradient><linearGradient x1="270.892" y1="167.57145" x2="270.892" y2="180.14299" gradientUnits="userSpaceOnUse" id="color-2"><stop offset="0" stop-color="#6b8d06"/><stop offset="1" stop-color="#324203"/></linearGradient><radialGradient cx="265.81349" cy="132.1247" r="11.66744" gradientUnits="userSpaceOnUse" id="color-3"><stop offset="0" stop-color="#8fab00"/><stop offset="1" stop-color="#8fab00" stop-opacity="0"/></radialGradient><radialGradient cx="281.96624" cy="133.94694" r="11.66744" gradientUnits="userSpaceOnUse" id="color-4"><stop offset="0" stop-color="#8fab00"/><stop offset="1" stop-color="#8fab00" stop-opacity="0"/></radialGradient><radialGradient cx="289.23096" cy="148.12497" r="11.08211" gradientUnits="userSpaceOnUse" id="color-5"><stop offset="0" stop-color="#8fab00"/><stop offset="1" stop-color="#8fab00" stop-opacity="0"/></radialGradient><radialGradient cx="278.16653" cy="158.7962" r="11.08211" gradientUnits="userSpaceOnUse" id="color-6"><stop offset="0" stop-color="#8fab00"/><stop offset="1" stop-color="#8fab00" stop-opacity="0"/></radialGradient><radialGradient cx="261.5109" cy="157.42679" r="10.59464" gradientUnits="userSpaceOnUse" id="color-7"><stop offset="0" stop-color="#8fab00"/><stop offset="1" stop-color="#8fab00" stop-opacity="0"/></radialGradient><radialGradient cx="255.63114" cy="143.86196" r="10.59464" gradientUnits="userSpaceOnUse" id="color-8"><stop offset="0" stop-color="#8fab00"/><stop offset="1" stop-color="#8fab00" stop-opacity="0"/></radialGradient><radialGradient cx="272.09556" cy="145.71993" r="14.01361" gradientUnits="userSpaceOnUse" id="color-9"><stop offset="0" stop-color="#8fab00"/><stop offset="1" stop-color="#8fab00" stop-opacity="0"/></radialGradient><radialGradient cx="271.98178" cy="145.39908" r="6.45139" gradientUnits="userSpaceOnUse" id="color-10"><stop offset="0" stop-color="#8fab00"/><stop offset="1" stop-color="#8fab00" stop-opacity="0"/></radialGradient><radialGradient cx="265.6971" cy="132.2003" r="11.66744" gradientUnits="userSpaceOnUse" id="color-11"><stop offset="0" stop-color="#65ff00"/><stop offset="1" stop-color="#65ff00" stop-opacity="0"/></radialGradient><radialGradient cx="281.84985" cy="134.02254" r="11.66744" gradientUnits="userSpaceOnUse" id="color-12"><stop offset="0" stop-color="#65ff00"/><stop offset="1" stop-color="#65ff00" stop-opacity="0"/></radialGradient><radialGradient cx="289.11457" cy="148.20056" r="11.08211" gradientUnits="userSpaceOnUse" id="color-13"><stop offset="0" stop-color="#65ff00"/><stop offset="1" stop-color="#65ff00" stop-opacity="0"/></radialGradient><radialGradient cx="278.05014" cy="158.8718" r="11.08211" gradientUnits="userSpaceOnUse" id="color-14"><stop offset="0" stop-color="#65ff00"/><stop offset="1" stop-color="#65ff00" stop-opacity="0"/></radialGradient><radialGradient cx="261.39451" cy="157.50238" r="10.59464" gradientUnits="userSpaceOnUse" id="color-15"><stop offset="0" stop-color="#65ff00"/><stop offset="1" stop-color="#65ff00" stop-opacity="0"/></radialGradient><radialGradient cx="255.51475" cy="143.93755" r="10.59464" gradientUnits="userSpaceOnUse" id="color-16"><stop offset="0" stop-color="#65ff00"/><stop offset="1" stop-color="#65ff00" stop-opacity="0"/></radialGradient><radialGradient cx="271.97916" cy="145.79552" r="14.01361" gradientUnits="userSpaceOnUse" id="color-17"><stop offset="0" stop-color="#65ff00"/><stop offset="1" stop-color="#65ff00" stop-opacity="0"/></radialGradient><radialGradient cx="271.86539" cy="145.47467" r="6.45139" gradientUnits="userSpaceOnUse" id="color-18"><stop offset="0" stop-color="#65ff00"/><stop offset="1" stop-color="#65ff00" stop-opacity="0"/></radialGradient></defs><g transform="translate(-239.71327,-119.79793)"><g data-paper-data="{&quot;isPaintingLayer&quot;:true}" fill-rule="nonzero" stroke-linejoin="miter" stroke-miterlimit="10" stroke-dasharray="" stroke-dashoffset="0" style="mix-blend-mode: normal"><path d="M240.46327,179.86285v-58.76072h60.86325v58.76072z" fill="url(#color-1)" stroke="#9cbf3d" stroke-width="1.5" stroke-linecap="butt"/><path d="M239.96343,180.14299v-12.57143h61.85715v12.57143z" fill="url(#color-2)" stroke="none" stroke-width="0" stroke-linecap="butt"/><path d="M268.13067,143.03221c0,0 -7.42879,-5.04954 -7.60133,-10.28647c-0.32727,-9.93337 12.38531,-10.1978 12.38531,-10.1978" fill="none" stroke="url(#color-3)" stroke-width="5.5" stroke-linecap="round"/><path d="M278.51892,122.87976c0,0 12.00096,3.75625 8.25917,13.11469c-1.97269,4.93382 -10.78284,7.68895 -10.78284,7.68895" data-paper-data="{&quot;index&quot;:null}" fill="none" stroke="url(#color-4)" stroke-width="5.5" stroke-linecap="round"/><path d="M277.95713,143.45613c0,0 8.92054,-2.45526 13.78596,0.4691c9.22869,5.5469 2.06622,14.93456 2.06622,14.93456" fill="none" stroke="url(#color-5)" stroke-width="5.5" stroke-linecap="round"/><path d="M290.24379,162.73716c0,0 -10.40637,6.52935 -16.74237,-1.63827c-3.34038,-4.30602 -0.71667,-12.30961 -0.71667,-12.30961" data-paper-data="{&quot;index&quot;:null}" fill="none" stroke="url(#color-6)" stroke-width="5.5" stroke-linecap="round"/><path d="M271.15214,150.42278c0,0 -1.4435,8.2395 -6.51907,10.86328c-9.62729,4.97676 -15.92763,-4.89206 -15.92763,-4.89206" fill="none" stroke="url(#color-7)" stroke-width="5.5" stroke-linecap="round"/><path d="M246.36959,151.83035c0,0 -2.0025,-11.21962 8.99185,-12.72419c5.79629,-0.79322 12.69546,4.82421 12.69546,4.82421" data-paper-data="{&quot;index&quot;:null}" fill="none" stroke="url(#color-8)" stroke-width="5.5" stroke-linecap="round"/><path d="M258.21977,143.7594c1.21187,-6.847 8.40669,-11.51983 16.07008,-10.43707c7.66339,1.08277 12.89338,7.51112 11.68151,14.35812c-1.21187,6.847 -8.40669,11.51984 -16.07008,10.43707c-7.66339,-1.08277 -12.89338,-7.51112 -11.68151,-14.35812z" fill="none" stroke="url(#color-9)" stroke-width="7.5" stroke-linecap="butt"/><path d="M265.59385,144.49652c0.5579,-3.15212 3.87015,-5.30333 7.39811,-4.80486c3.52796,0.49847 5.93567,3.45786 5.37777,6.60998c-0.5579,3.15212 -3.87016,5.30334 -7.39811,4.80487c-3.52796,-0.49847 -5.93566,-3.45786 -5.37776,-6.60998z" fill="none" stroke="url(#color-10)" stroke-width="6" stroke-linecap="butt"/><path d="M268.01427,143.1078c0,0 -7.42879,-5.04954 -7.60133,-10.28647c-0.32727,-9.93337 12.38531,-10.1978 12.38531,-10.1978" fill="none" stroke="url(#color-11)" stroke-width="2.5" stroke-linecap="round"/><path d="M278.40253,122.95535c0,0 12.00096,3.75625 8.25917,13.11469c-1.97269,4.93382 -10.78284,7.68895 -10.78284,7.68895" data-paper-data="{&quot;index&quot;:null}" fill="none" stroke="url(#color-12)" stroke-width="2.5" stroke-linecap="round"/><path d="M277.84074,143.53172c0,0 8.92054,-2.45526 13.78596,0.4691c9.22869,5.5469 2.06622,14.93456 2.06622,14.93456" fill="none" stroke="url(#color-13)" stroke-width="2.5" stroke-linecap="round"/><path d="M290.1274,162.81275c0,0 -10.40637,6.52935 -16.74237,-1.63827c-3.34038,-4.30602 -0.71667,-12.30961 -0.71667,-12.30961" data-paper-data="{&quot;index&quot;:null}" fill="none" stroke="url(#color-14)" stroke-width="2.5" stroke-linecap="round"/><path d="M271.03575,150.49837c0,0 -1.4435,8.2395 -6.51907,10.86328c-9.62729,4.97676 -15.92763,-4.89206 -15.92763,-4.89206" fill="none" stroke="url(#color-15)" stroke-width="2.5" stroke-linecap="round"/><path d="M246.2532,151.90594c0,0 -2.0025,-11.21962 8.99185,-12.72419c5.79629,-0.79322 12.69546,4.82421 12.69546,4.82421" data-paper-data="{&quot;index&quot;:null}" fill="none" stroke="url(#color-16)" stroke-width="2.5" stroke-linecap="round"/><path d="M258.10337,143.835c1.21187,-6.847 8.40669,-11.51983 16.07008,-10.43707c7.66339,1.08277 12.89338,7.51112 11.68151,14.35812c-1.21187,6.847 -8.40669,11.51984 -16.07008,10.43707c-7.66339,-1.08277 -12.89338,-7.51112 -11.68151,-14.35812z" fill="none" stroke="url(#color-17)" stroke-width="2.5" stroke-linecap="butt"/><path d="M265.47746,144.57211c0.5579,-3.15212 3.87015,-5.30333 7.39811,-4.80486c3.52796,0.49847 5.93567,3.45786 5.37777,6.60998c-0.5579,3.15212 -3.87016,5.30334 -7.39811,4.80487c-3.52796,-0.49847 -5.93566,-3.45786 -5.37776,-6.60998z" fill="none" stroke="url(#color-18)" stroke-width="2.5" stroke-linecap="butt"/></g></g></svg>