<svg version="1.1" xmlns="http://www.w3.org/2000/svg" xmlns:xlink="http://www.w3.org/1999/xlink" width="55.125" height="55.125" viewBox="0,0,55.125,55.125"><defs><linearGradient x1="240" y1="153.1875" x2="240" y2="206.8125" gradientUnits="userSpaceOnUse" id="color-1"><stop offset="0" stop-color="#361102"/><stop offset="1" stop-color="#000000" stop-opacity="0.60925"/></linearGradient><linearGradient x1="240" y1="153.1875" x2="240" y2="206.8125" gradientUnits="userSpaceOnUse" id="color-2"><stop offset="0" stop-color="#ff4700"/><stop offset="1" stop-color="#ff4700" stop-opacity="0"/></linearGradient><radialGradient cx="226.33292" cy="197.25345" r="2.35714" gradientUnits="userSpaceOnUse" id="color-3"><stop offset="0" stop-color="#ff7171"/><stop offset="1" stop-color="#ff7171" stop-opacity="0"/></radialGradient><radialGradient cx="231.19006" cy="193.37767" r="2.35714" gradientUnits="userSpaceOnUse" id="color-4"><stop offset="0" stop-color="#ff7171"/><stop offset="1" stop-color="#ff7171" stop-opacity="0"/></radialGradient><radialGradient cx="236.26149" cy="188.30935" r="3.42857" gradientUnits="userSpaceOnUse" id="color-5"><stop offset="0" stop-color="#ff7171"/><stop offset="1" stop-color="#ff7171" stop-opacity="0"/></radialGradient><radialGradient cx="240.90434" cy="171.24103" r="21.35714" gradientUnits="userSpaceOnUse" id="color-6"><stop offset="0" stop-color="#ff7171"/><stop offset="1" stop-color="#ff7171" stop-opacity="0"/></radialGradient><radialGradient cx="222.11863" cy="200.16028" r="1.85714" gradientUnits="userSpaceOnUse" id="color-7"><stop offset="0" stop-color="#ff7171"/><stop offset="1" stop-color="#ff7171" stop-opacity="0"/></radialGradient><radialGradient cx="218.28012" cy="203.21618" r="1.73292" gradientUnits="userSpaceOnUse" id="color-8"><stop offset="0" stop-color="#ff7171"/><stop offset="1" stop-color="#ff7171" stop-opacity="0"/></radialGradient><linearGradient x1="249.43339" y1="162.47381" x2="249.43339" y2="179.49834" gradientUnits="userSpaceOnUse" id="color-9"><stop offset="0" stop-color="#00b1d0"/><stop offset="1" stop-color="#00b1d0" stop-opacity="0"/></linearGradient><linearGradient x1="240.80484" y1="164.72825" x2="240.80484" y2="179.58465" gradientUnits="userSpaceOnUse" id="color-10"><stop offset="0" stop-color="#00daff"/><stop offset="1" stop-color="#00daff" stop-opacity="0"/></linearGradient><radialGradient cx="243.66523" cy="163.98855" r="8.88267" gradientUnits="userSpaceOnUse" id="color-11"><stop offset="0" stop-color="#58e6ff"/><stop offset="1" stop-color="#59ccff"/></radialGradient><radialGradient cx="236.46127" cy="177.44783" r="14.89583" gradientUnits="userSpaceOnUse" id="color-12"><stop offset="0" stop-color="#ffffff"/><stop offset="1" stop-color="#ffffff" stop-opacity="0"/></radialGradient><radialGradient cx="231.54343" cy="162.45071" r="6.31988" gradientUnits="userSpaceOnUse" id="color-13"><stop offset="0" stop-color="#ffffff"/><stop offset="1" stop-color="#ffffff" stop-opacity="0"/></radialGradient><radialGradient cx="243.04447" cy="160.79958" r="3.41615" gradientUnits="userSpaceOnUse" id="color-14"><stop offset="0" stop-color="#ffffff"/><stop offset="1" stop-color="#ffffff" stop-opacity="0"/></radialGradient><radialGradient cx="251.41403" cy="171.84512" r="4.66873" gradientUnits="userSpaceOnUse" id="color-15"><stop offset="0" stop-color="#ffffff"/><stop offset="1" stop-color="#ffffff" stop-opacity="0"/></radialGradient><radialGradient cx="251.69871" cy="160.38549" r="4.52382" gradientUnits="userSpaceOnUse" id="color-16"><stop offset="0" stop-color="#ffffff"/><stop offset="1" stop-color="#ffffff" stop-opacity="0"/></radialGradient><radialGradient cx="254.94405" cy="161.59667" r="3.64389" gradientUnits="userSpaceOnUse" id="color-17"><stop offset="0" stop-color="#ffffff"/><stop offset="1" stop-color="#ffffff" stop-opacity="0"/></radialGradient><radialGradient cx="236.0983" cy="170.64947" r="2.78985" gradientUnits="userSpaceOnUse" id="color-18"><stop offset="0" stop-color="#ffffff"/><stop offset="1" stop-color="#ffffff" stop-opacity="0"/></radialGradient><radialGradient cx="248.22563" cy="180.38549" r="4.44099" gradientUnits="userSpaceOnUse" id="color-19"><stop offset="0" stop-color="#ffffff"/><stop offset="1" stop-color="#ffffff" stop-opacity="0"/></radialGradient></defs><g transform="translate(-212.4375,-152.4375)"><g data-paper-data="{&quot;isPaintingLayer&quot;:true}" stroke-linejoin="miter" stroke-miterlimit="10" stroke-dasharray="" stroke-dashoffset="0" style="mix-blend-mode: normal"><path d="M213.1875,206.8125v-53.625h53.625v53.625z" fill="url(#color-1)" fill-rule="nonzero" stroke="url(#color-2)" stroke-width="1.5" stroke-linecap="butt"/><path d="M223.97578,197.25345c0,-0.98794 1.05533,-1.78882 2.35714,-1.78882c1.30181,0 2.35714,0.80088 2.35714,1.78882c0,0.98794 -1.05533,1.78882 -2.35714,1.78882c-1.30181,0 -2.35714,-0.80088 -2.35714,-1.78882z" fill="url(#color-3)" fill-rule="nonzero" stroke="none" stroke-width="NaN" stroke-linecap="butt"/><path d="M228.83292,193.37767c0,-1.07027 1.05533,-1.93789 2.35715,-1.93789c1.30182,0 2.35714,0.86762 2.35714,1.93789c0,1.07027 -1.05532,1.93789 -2.35714,1.93789c-1.30182,0 -2.35715,-0.86762 -2.35715,-1.93789z" fill="url(#color-4)" fill-rule="nonzero" stroke="none" stroke-width="NaN" stroke-linecap="butt"/><path d="M232.83292,188.30935c0,-1.31725 1.53503,-2.38509 3.42857,-2.38509c1.89355,0 3.42857,1.06784 3.42857,2.38509c0,1.31725 -1.53502,2.3851 -3.42857,2.3851c-1.89355,0 -3.42857,-1.06784 -3.42857,-2.3851z" fill="url(#color-5)" fill-rule="nonzero" stroke="none" stroke-width="NaN" stroke-linecap="butt"/><path d="M219.5472,171.241c0,-8.10934 9.56193,-14.68321 21.35717,-14.68321c11.79524,0 21.35711,6.57387 21.35711,14.68321c0,8.10934 -9.56187,14.68325 -21.35711,14.68325c-11.79524,0 -21.35717,-6.57391 -21.35717,-14.68325z" fill="url(#color-6)" fill-rule="nonzero" stroke="none" stroke-width="NaN" stroke-linecap="butt"/><path d="M220.26149,200.16028c0,-0.94677 0.83147,-1.71428 1.85714,-1.71428c1.02567,0 1.85714,0.76751 1.85714,1.71428c0,0.94677 -0.83147,1.71429 -1.85714,1.71429c-1.02567,0 -1.85714,-0.76751 -1.85714,-1.71429z" fill="url(#color-7)" fill-rule="nonzero" stroke="none" stroke-width="NaN" stroke-linecap="butt"/><path d="M216.5472,203.21618c0,-0.74095 0.77586,-1.34161 1.73292,-1.34161c0.95706,0 1.73292,0.60066 1.73292,1.34161c0,0.74095 -0.77585,1.34161 -1.73292,1.34161c-0.95706,0 -1.73292,-0.60066 -1.73292,-1.34161z" fill="url(#color-8)" fill-rule="nonzero" stroke="none" stroke-width="NaN" stroke-linecap="butt"/><path d="M246.95579,165.56976l5.56856,-3.09595l-6.18191,17.02453z" fill="url(#color-9)" fill-rule="evenodd" stroke="none" stroke-width="0" stroke-linecap="butt"/><path d="M234.62673,164.72825l12.35623,0.81075l-0.63734,14.04564z" fill="url(#color-10)" fill-rule="evenodd" stroke="none" stroke-width="0" stroke-linecap="butt"/><path d="M234.78256,164.73976l17.76534,-2.31995l-5.48544,3.1375z" fill="url(#color-11)" fill-rule="evenodd" stroke="none" stroke-width="0" stroke-linecap="butt"/><path d="M221.57967,181.86583l20.61077,-8.90003" fill="none" fill-rule="nonzero" stroke="url(#color-12)" stroke-width="4" stroke-linecap="round"/><path d="M237.86331,166.26542l-12.63975,-7.6294" fill="none" fill-rule="nonzero" stroke="url(#color-13)" stroke-width="2" stroke-linecap="round"/><path d="M243.55689,164.21573l-1.02484,-6.8323" fill="none" fill-rule="nonzero" stroke="url(#color-14)" stroke-width="2" stroke-linecap="round"/><path d="M246.7453,171.61738l9.33748,0.45549" fill="none" fill-rule="nonzero" stroke="url(#color-15)" stroke-width="2" stroke-linecap="round"/><path d="M248.45337,163.5325l4.32712,-6.88406" fill="none" fill-rule="nonzero" stroke="url(#color-16)" stroke-width="2" stroke-linecap="round"/><path d="M250.61693,163.98798l7.6294,-3.75776" fill="none" fill-rule="nonzero" stroke="url(#color-17)" stroke-width="2" stroke-linecap="round"/><path d="M233.30844,171.50351l5.57971,-1.70807" fill="none" fill-rule="nonzero" stroke="url(#color-18)" stroke-width="2" stroke-linecap="round"/><path d="M250.38919,184.82649l-4.32712,-8.88199" fill="none" fill-rule="nonzero" stroke="url(#color-19)" stroke-width="2" stroke-linecap="round"/></g></g></svg>