<svg version="1.1" xmlns="http://www.w3.org/2000/svg" xmlns:xlink="http://www.w3.org/1999/xlink" width="62.36325" height="60.26072" viewBox="0,0,62.36325,60.26072"><defs><linearGradient x1="270.89485" y1="121.10213" x2="270.89485" y2="179.86284" gradientUnits="userSpaceOnUse" id="color-1"><stop offset="0" stop-color="#005761"/><stop offset="1" stop-color="#223f47"/></linearGradient><linearGradient x1="270.892" y1="167.57146" x2="270.892" y2="180.14296" gradientUnits="userSpaceOnUse" id="color-2"><stop offset="0" stop-color="#20a3ab"/><stop offset="1" stop-color="#15696d"/></linearGradient><linearGradient x1="276.94072" y1="127.53695" x2="271.21954" y2="143.25912" gradientUnits="userSpaceOnUse" id="color-3"><stop offset="0" stop-color="#2fa5ff"/><stop offset="1" stop-color="#2effd8"/></linearGradient><radialGradient cx="279.53846" cy="142.53847" r="2.39729" gradientUnits="userSpaceOnUse" id="color-4"><stop offset="0" stop-color="#ff8787"/><stop offset="1" stop-color="#c42626"/></radialGradient><linearGradient x1="291.80639" y1="135.21605" x2="282.13811" y2="149.19904" gradientUnits="userSpaceOnUse" id="color-5"><stop offset="0" stop-color="#2fa5ff"/><stop offset="1" stop-color="#2effd8"/></linearGradient><radialGradient cx="268.04435" cy="155.78151" r="22.17357" gradientUnits="userSpaceOnUse" id="color-6"><stop offset="0" stop-color="#fc4949"/><stop offset="1" stop-color="#fc4949" stop-opacity="0"/></radialGradient></defs><g transform="translate(-239.71327,-120.35211)"><g data-paper-data="{&quot;isPaintingLayer&quot;:true}" fill-rule="nonzero" stroke-linejoin="miter" stroke-miterlimit="10" stroke-dasharray="" stroke-dashoffset="0" style="mix-blend-mode: normal"><path d="M240.46327,179.86284v-58.76072h60.86325v58.76072z" fill="url(#color-1)" stroke="#166f73" stroke-width="1.5" stroke-linecap="butt"/><path d="M239.96343,180.14296v-12.57143h61.85715v12.57143z" fill="url(#color-2)" stroke="none" stroke-width="0" stroke-linecap="butt"/><path d="M264.53981,140.78749l5.70803,-15.68603l3.91871,9.65269l4.30523,-2.28067l1.71565,4.22606l-2.19841,1.1646l1.11127,2.73733l-1.87781,0.99476l1.15027,2.83338l-1.60301,0.84918z" fill="url(#color-3)" stroke="none" stroke-width="0" stroke-linecap="round"/><path d="M277.14118,142.53847c0,-1.32398 1.07331,-2.39729 2.39729,-2.39729c1.32398,0 2.39729,1.07331 2.39729,2.39729c0,1.32398 -1.07331,2.39729 -2.39729,2.39729c-1.32398,0 -2.39729,-1.07331 -2.39729,-2.39729z" fill="url(#color-4)" stroke="none" stroke-width="0" stroke-linecap="butt"/><path d="M282.4141,133.77203l5.29733,-1.24707l1.28696,9.86778l9.8379,-2.31599l-9.66828,13.983l-11.83081,-8.18018l2.16938,-0.51071l-0.35525,-2.72392l1.91713,-0.45133l-0.38877,-2.98089l2.67389,-0.62947z" fill="url(#color-5)" stroke="none" stroke-width="0" stroke-linecap="round"/><path d="M279.42369,142.73519l-30.8189,15.8191" fill="none" stroke="url(#color-6)" stroke-width="7" stroke-linecap="round"/></g></g></svg>