<svg version="1.1" xmlns="http://www.w3.org/2000/svg" xmlns:xlink="http://www.w3.org/1999/xlink" width="62.36325" height="60.26072" viewBox="0,0,62.36325,60.26072"><defs><linearGradient x1="270.89485" y1="121.10212" x2="270.89485" y2="179.86284" gradientUnits="userSpaceOnUse" id="color-1"><stop offset="0" stop-color="#8a7088"/><stop offset="1" stop-color="#615060"/></linearGradient><linearGradient x1="270.892" y1="167.57146" x2="270.892" y2="180.14295" gradientUnits="userSpaceOnUse" id="color-2"><stop offset="0" stop-color="#d091ce"/><stop offset="1" stop-color="#674866"/></linearGradient><radialGradient cx="270.74536" cy="145.66282" r="11.27993" gradientUnits="userSpaceOnUse" id="color-3"><stop offset="0" stop-color="#ca39ff"/><stop offset="1" stop-color="#8000ff"/></radialGradient><radialGradient cx="270.25" cy="142.55001" r="14" gradientUnits="userSpaceOnUse" id="color-4"><stop offset="0" stop-color="#e4a4ff"/><stop offset="1" stop-color="#e4a4ff" stop-opacity="0"/></radialGradient><radialGradient cx="269.6753" cy="138.2669" r="27.6831" gradientUnits="userSpaceOnUse" id="color-5"><stop offset="0" stop-color="#e4a4ff"/><stop offset="1" stop-color="#e4a4ff" stop-opacity="0"/></radialGradient><radialGradient cx="255.1" cy="148.8" r="15.05" gradientUnits="userSpaceOnUse" id="color-6"><stop offset="0" stop-color="#e4a4ff"/><stop offset="1" stop-color="#e4a4ff" stop-opacity="0"/></radialGradient><radialGradient cx="284.8" cy="150.4" r="15.05" gradientUnits="userSpaceOnUse" id="color-7"><stop offset="0" stop-color="#e4a4ff"/><stop offset="1" stop-color="#e4a4ff" stop-opacity="0"/></radialGradient></defs><g transform="translate(-239.71327,-120.35211)"><g data-paper-data="{&quot;isPaintingLayer&quot;:true}" fill-rule="nonzero" stroke-linejoin="miter" stroke-miterlimit="10" stroke-dasharray="" stroke-dashoffset="0" style="mix-blend-mode: normal"><path d="M240.46327,179.86284v-58.76072h60.86325v58.76072z" fill="url(#color-1)" stroke="#bf86bd" stroke-width="1.5" stroke-linecap="butt"/><path d="M239.96343,180.14295v-12.57143h61.85715v12.57143z" fill="url(#color-2)" stroke="none" stroke-width="0" stroke-linecap="butt"/><path d="M261.89396,146.7802c-2.58846,-4.80424 -2.15093,-10.41877 -0.16244,-10.28165c6.38443,0.44026 8.3476,5.56583 8.84912,5.42298c0.99257,-0.28272 2.15538,-5.10784 7.46264,-5.34523c3.55591,-0.15906 3.43303,4.05606 1.61572,8.92633c-2.21516,5.93648 -9.009,11.04738 -9.009,11.04738c0,0 -5.9446,-4.55171 -8.75604,-9.76981z" fill="url(#color-3)" stroke="url(#color-4)" stroke-width="2.5" stroke-linecap="round"/><path d="M253.15236,146.63153c-5.11833,-9.49973 -4.55318,-16.80171 -0.62121,-16.53057c12.62435,0.87055 16.80625,7.20567 17.79794,6.92321c1.96267,-0.55904 4.76197,-6.90007 15.25636,-7.36947c7.03133,-0.31452 6.28835,4.82032 2.69487,14.45062c-4.38018,11.73859 -17.21408,17.7447 -17.21408,17.7447c0,0 -12.35464,-4.90039 -17.91388,-15.21848z" fill="none" stroke="url(#color-5)" stroke-width="2.5" stroke-linecap="round"/><path d="M241.55,133.75c0,0 3.46232,14.75965 9.82642,22.35628c7.94419,9.48274 17.27358,7.74372 17.27358,7.74372" fill="none" stroke="url(#color-6)" stroke-width="2.5" stroke-linecap="round"/><path d="M298.35,135.35c0,0 -3.46231,14.75965 -9.82642,22.35628c-7.94419,9.48273 -17.27358,7.74372 -17.27358,7.74372" data-paper-data="{&quot;index&quot;:null}" fill="none" stroke="url(#color-7)" stroke-width="2.5" stroke-linecap="round"/></g></g></svg>