<svg version="1.1" xmlns="http://www.w3.org/2000/svg" xmlns:xlink="http://www.w3.org/1999/xlink" width="4.064" height="4.076" viewBox="0,0,4.064,4.076"><g transform="translate(-244.72999,-176.086)"><g data-paper-data="{&quot;isPaintingLayer&quot;:true}" fill="#ff0000" fill-rule="nonzero" stroke="none" stroke-width="1" stroke-linecap="butt" stroke-linejoin="miter" stroke-miterlimit="10" stroke-dasharray="" stroke-dashoffset="0" style="mix-blend-mode: normal"><path d="M246.76199,176.086c0.27733,0 0.54067,0.053 0.79,0.159c0.24867,0.106 0.465,0.253 0.649,0.441c0.18333,0.18733 0.328,0.40567 0.434,0.655c0.106,0.24867 0.159,0.51567 0.159,0.801c0,0.278 -0.053,0.53933 -0.159,0.784c-0.106,0.24467 -0.25067,0.459 -0.434,0.643c-0.184,0.18333 -0.40033,0.328 -0.649,0.434c-0.24933,0.106 -0.51267,0.159 -0.79,0.159c-0.28533,0 -0.55067,-0.053 -0.796,-0.159c-0.24467,-0.106 -0.45867,-0.25067 -0.642,-0.434c-0.184,-0.184 -0.329,-0.39833 -0.435,-0.643c-0.106,-0.24467 -0.159,-0.506 -0.159,-0.784c0,-0.28533 0.053,-0.55233 0.159,-0.801c0.106,-0.24933 0.251,-0.46767 0.435,-0.655c0.18333,-0.188 0.39733,-0.335 0.642,-0.441c0.24533,-0.106 0.51067,-0.159 0.796,-0.159z"/></g></g></svg>