<svg width="480px" height="360px" xmlns="http://www.w3.org/2000/svg"><path fill="#F00" d="M252.756 172.398L252.756 174.259L241.028 174.259L241.028 172.398L252.756 172.398ZM246.868 176.487L246.868 176.487Q247.198 176.487 247.492 176.615Q247.786 176.744 248 176.964Q248.214 177.184 248.343 177.484Q248.471 177.784 248.471 178.115L248.471 178.115Q248.471 178.445 248.343 178.739Q248.214 179.033 248 179.247Q247.786 179.461 247.492 179.590Q247.198 179.718 246.868 179.718L246.868 179.718Q246.525 179.718 246.231 179.590Q245.937 179.461 245.717 179.247Q245.497 179.033 245.368 178.739Q245.239 178.445 245.239 178.115L245.239 178.115Q245.239 177.784 245.368 177.484Q245.497 177.184 245.717 176.964Q245.937 176.744 246.231 176.615Q246.525 176.487 246.868 176.487ZM246.868 170.170L246.868 170.170Q246.525 170.170 246.231 170.041Q245.937 169.913 245.717 169.692Q245.497 169.472 245.368 169.178Q245.239 168.884 245.239 168.542L245.239 168.542Q245.239 168.211 245.368 167.917Q245.497 167.624 245.717 167.409Q245.937 167.195 246.231 167.067Q246.525 166.938 246.868 166.938L246.868 166.938Q247.198 166.938 247.492 167.067Q247.786 167.195 248 167.409Q248.214 167.624 248.343 167.917Q248.471 168.211 248.471 168.542L248.471 168.542Q248.471 168.884 248.343 169.178Q248.214 169.472 248 169.692Q247.786 169.913 247.492 170.041Q247.198 170.170 246.868 170.170Z"/></svg>