<svg version="1.1" xmlns="http://www.w3.org/2000/svg" xmlns:xlink="http://www.w3.org/1999/xlink" width="240.63158" height="164.84211" viewBox="0,0,240.63158,164.84211"><defs><linearGradient x1="120" y1="97.89474" x2="120" y2="262.10526" gradientUnits="userSpaceOnUse" id="color-1"><stop offset="0" stop-color="#0b697c"/><stop offset="1" stop-color="#021618"/></linearGradient></defs><g transform="translate(-119.68421,-97.57895)"><g data-paper-data="{&quot;isPaintingLayer&quot;:true}" fill-rule="nonzero" stroke-linejoin="miter" stroke-miterlimit="10" stroke-dasharray="" stroke-dashoffset="0" style="mix-blend-mode: normal"><path d="M120,262.10526v-164.21053h240v164.21053z" fill="url(#color-1)" stroke="none" stroke-width="1" stroke-linecap="butt"/><path d="M120,97.89474h240" fill="#000000" stroke-opacity="0.5" stroke="#ffffff" stroke-width="0.63158" stroke-linecap="butt"/><path d="M120,110.52632h240" fill="#000000" stroke-opacity="0.5" stroke="#ffffff" stroke-width="0.63158" stroke-linecap="butt"/><path d="M120,123.15789h240" fill="#000000" stroke-opacity="0.5" stroke="#ffffff" stroke-width="0.63158" stroke-linecap="butt"/><path d="M120,135.78947h240" fill="#000000" stroke-opacity="0.5" stroke="#ffffff" stroke-width="0.63158" stroke-linecap="butt"/><path d="M120,148.42105h240" fill="#000000" stroke-opacity="0.5" stroke="#ffffff" stroke-width="0.63158" stroke-linecap="butt"/><path d="M120,161.05263h240" fill="#000000" stroke-opacity="0.5" stroke="#ffffff" stroke-width="0.63158" stroke-linecap="butt"/><path d="M120,173.68421h240" fill="#000000" stroke-opacity="0.5" stroke="#ffffff" stroke-width="0.63158" stroke-linecap="butt"/><path d="M120,186.31579h240" fill="#000000" stroke-opacity="0.5" stroke="#ffffff" stroke-width="0.63158" stroke-linecap="butt"/><path d="M120,198.94737h240" fill="#000000" stroke-opacity="0.5" stroke="#ffffff" stroke-width="0.63158" stroke-linecap="butt"/><path d="M120,211.57895h240" fill="#000000" stroke-opacity="0.5" stroke="#ffffff" stroke-width="0.63158" stroke-linecap="butt"/><path d="M120,224.21053h240" fill="#000000" stroke-opacity="0.5" stroke="#ffffff" stroke-width="0.63158" stroke-linecap="butt"/><path d="M120,236.84211h240" fill="#000000" stroke-opacity="0.5" stroke="#ffffff" stroke-width="0.63158" stroke-linecap="butt"/><path d="M120,249.47368h240" fill="#000000" stroke-opacity="0.5" stroke="#ffffff" stroke-width="0.63158" stroke-linecap="butt"/><path d="M360,262.10526h-240" fill="#000000" stroke-opacity="0.5" stroke="#ffffff" stroke-width="0.63158" stroke-linecap="butt"/><path d="M120,97.89474v164.21053" fill="#000000" stroke-opacity="0.5" stroke="#ffffff" stroke-width="0.63158" stroke-linecap="butt"/><path d="M132.63158,97.89474v164.21053" fill="#000000" stroke-opacity="0.5" stroke="#ffffff" stroke-width="0.63158" stroke-linecap="butt"/><path d="M145.26316,97.89474v164.21053" fill="#000000" stroke-opacity="0.5" stroke="#ffffff" stroke-width="0.63158" stroke-linecap="butt"/><path d="M157.89474,262.10526v-164.21053" fill="#000000" stroke-opacity="0.5" stroke="#ffffff" stroke-width="0.63158" stroke-linecap="butt"/><path d="M170.52632,97.89474v164.21053" fill="#000000" stroke-opacity="0.5" stroke="#ffffff" stroke-width="0.63158" stroke-linecap="butt"/><path d="M183.15789,97.89474v164.21053" fill="#000000" stroke-opacity="0.5" stroke="#ffffff" stroke-width="0.63158" stroke-linecap="butt"/><path d="M195.78947,262.10526v-164.21053" fill="#000000" stroke-opacity="0.5" stroke="#ffffff" stroke-width="0.63158" stroke-linecap="butt"/><path d="M208.42105,97.89474v164.21053" fill="#000000" stroke-opacity="0.5" stroke="#ffffff" stroke-width="0.63158" stroke-linecap="butt"/><path d="M221.05263,97.89474v164.21053" fill="#000000" stroke-opacity="0.5" stroke="#ffffff" stroke-width="0.63158" stroke-linecap="butt"/><path d="M233.68421,97.89474v164.21053" fill="#000000" stroke-opacity="0.5" stroke="#ffffff" stroke-width="0.63158" stroke-linecap="butt"/><path d="M246.31579,97.89474v164.21053" fill="#000000" stroke-opacity="0.5" stroke="#ffffff" stroke-width="0.63158" stroke-linecap="butt"/><path d="M258.94737,97.89474v164.21053" fill="#000000" stroke-opacity="0.5" stroke="#ffffff" stroke-width="0.63158" stroke-linecap="butt"/><path d="M271.57895,262.10526v-164.21053" fill="#000000" stroke-opacity="0.5" stroke="#ffffff" stroke-width="0.63158" stroke-linecap="butt"/><path d="M284.21053,97.89474v164.21053" fill="#000000" stroke-opacity="0.5" stroke="#ffffff" stroke-width="0.63158" stroke-linecap="butt"/><path d="M296.84211,97.89474v164.21053" fill="#000000" stroke-opacity="0.5" stroke="#ffffff" stroke-width="0.63158" stroke-linecap="butt"/><path d="M309.47368,97.89474v164.21053" fill="#000000" stroke-opacity="0.5" stroke="#ffffff" stroke-width="0.63158" stroke-linecap="butt"/><path d="M322.10526,97.89474v164.21053" fill="#000000" stroke-opacity="0.5" stroke="#ffffff" stroke-width="0.63158" stroke-linecap="butt"/><path d="M334.73684,97.89474v164.21053" fill="#000000" stroke-opacity="0.5" stroke="#ffffff" stroke-width="0.63158" stroke-linecap="butt"/><path d="M347.36842,97.89474v164.21053" fill="#000000" stroke-opacity="0.5" stroke="#ffffff" stroke-width="0.63158" stroke-linecap="butt"/><path d="M360,97.89474v164.21053" fill="#000000" stroke-opacity="0.5" stroke="#ffffff" stroke-width="0.63158" stroke-linecap="butt"/><path d="M353.68421,255.78947h-227.36842" fill="#000000" stroke-opacity="0.5" stroke="#a3ff33" stroke-width="12" stroke-linecap="round"/><path d="M126.31579,243.15789h227.36842" fill="#000000" stroke-opacity="0.5" stroke="#a3ff33" stroke-width="12" stroke-linecap="round"/><path d="M138.94737,230.52632h202.10526" fill="#000000" stroke-opacity="0.5" stroke="#a3ff33" stroke-width="12" stroke-linecap="round"/><path d="M328.42105,217.89474h-176.84211" fill="#000000" stroke-opacity="0.5" stroke="#a3ff33" stroke-width="12" stroke-linecap="round"/><path d="M252.63158,205.26316h-25.26316" fill="#000000" stroke-opacity="0.5" stroke="#a3ff33" stroke-width="12" stroke-linecap="round"/><path d="M353.68421,255.78947h-227.36842" fill="#000000" stroke="#bbff3d" stroke-width="8.21053" stroke-linecap="round"/><path d="M126.31579,243.15789h227.36842" fill="#000000" stroke="#bbff3d" stroke-width="8.21053" stroke-linecap="round"/><path d="M138.94737,230.52632h202.10526" fill="#000000" stroke="#bbff3d" stroke-width="8.21053" stroke-linecap="round"/><path d="M328.42105,217.89474h-176.84211" fill="#000000" stroke="#bbff3d" stroke-width="8.21053" stroke-linecap="round"/><path d="M252.63158,205.26316h-25.26316" fill="#000000" stroke="#bbff3d" stroke-width="8.21053" stroke-linecap="round"/><path d="M126.31579,236.84211c-3.48811,0 -6.31579,-2.82768 -6.31579,-6.31579v-12.63158c0,-3.48811 2.82768,-6.31579 6.31579,-6.31579v0c3.48811,0 6.31579,2.82768 6.31579,6.31579v12.63158c0,3.48811 -2.82768,6.31579 -6.31579,6.31579z" fill="#bcd5e0" stroke="none" stroke-width="1" stroke-linecap="butt"/><path d="M126.31579,224.21053c-3.48811,0 -6.31579,-2.82768 -6.31579,-6.31579v0c0,-3.48811 2.82768,-6.31579 6.31579,-6.31579h12.63158c3.48811,0 6.31579,2.82768 6.31579,6.31579v0c0,3.48811 -2.82768,6.31579 -6.31579,6.31579z" fill="#bcd5e0" stroke="none" stroke-width="1" stroke-linecap="butt"/><path d="M138.94737,224.21053c-3.48811,0 -6.31579,-2.82768 -6.31579,-6.31579v-12.63158c0,-3.48811 2.82768,-6.31579 6.31579,-6.31579v0c3.48811,0 6.31579,2.82768 6.31579,6.31579v12.63158c0,3.48811 -2.82768,6.31579 -6.31579,6.31579z" fill="#bcd5e0" stroke="none" stroke-width="1" stroke-linecap="butt"/><path d="M138.94737,211.57895c-3.48811,0 -6.31579,-2.82768 -6.31579,-6.31579v0c0,-3.48811 2.82768,-6.31579 6.31579,-6.31579h75.78947c3.48811,0 6.31579,2.82768 6.31579,6.31579v0c0,3.48811 -2.82768,6.31579 -6.31579,6.31579z" fill="#bcd5e0" stroke="none" stroke-width="1" stroke-linecap="butt"/><path d="M214.73684,211.57895c-3.48811,0 -6.31579,-2.82768 -6.31579,-6.31579v-25.26316c0,-3.48811 2.82768,-6.31579 6.31579,-6.31579v0c3.48811,0 6.31579,2.82768 6.31579,6.31579v25.26316c0,3.48811 -2.82768,6.31579 -6.31579,6.31579z" fill="#bcd5e0" stroke="none" stroke-width="1" stroke-linecap="butt"/><path d="M202.10526,186.31579c-3.48811,0 -6.31579,-2.82768 -6.31579,-6.31579v0c0,-3.48811 2.82768,-6.31579 6.31579,-6.31579h12.63158c3.48811,0 6.31579,2.82768 6.31579,6.31579v0c0,3.48811 -2.82768,6.31579 -6.31579,6.31579z" fill="#bcd5e0" stroke="none" stroke-width="1" stroke-linecap="butt"/><path d="M202.10526,186.31579c-3.48811,0 -6.31579,-2.82768 -6.31579,-6.31579v-50.52632c0,-3.48811 2.82768,-6.31579 6.31579,-6.31579v0c3.48811,0 6.31579,2.82768 6.31579,6.31579v50.52632c0,3.48811 -2.82768,6.31579 -6.31579,6.31579z" fill="#bcd5e0" stroke="none" stroke-width="1" stroke-linecap="butt"/><path d="M202.10526,135.78947c-3.48811,0 -6.31579,-2.82768 -6.31579,-6.31579v0c0,-3.48811 2.82768,-6.31579 6.31579,-6.31579h12.63158c3.48811,0 6.31579,2.82768 6.31579,6.31579v0c0,3.48811 -2.82768,6.31579 -6.31579,6.31579z" fill="#bcd5e0" stroke="none" stroke-width="1" stroke-linecap="butt"/><path d="M214.73684,135.78947c-3.48811,0 -6.31579,-2.82768 -6.31579,-6.31579v-12.63158c0,-3.48811 2.82768,-6.31579 6.31579,-6.31579v0c3.48811,0 6.31579,2.82768 6.31579,6.31579v12.63158c0,3.48811 -2.82768,6.31579 -6.31579,6.31579z" fill="#bcd5e0" stroke="none" stroke-width="1" stroke-linecap="butt"/><path d="M214.73684,123.15789c-3.48811,0 -6.31579,-2.82768 -6.31579,-6.31579v0c0,-3.48811 2.82768,-6.31579 6.31579,-6.31579h50.52632c3.48811,0 6.31579,2.82768 6.31579,6.31579v0c0,3.48811 -2.82768,6.31579 -6.31579,6.31579z" fill="#bcd5e0" stroke="none" stroke-width="1" stroke-linecap="butt"/><path d="M265.26316,135.78947c-3.48811,0 -6.31579,-2.82768 -6.31579,-6.31579v-12.63158c0,-3.48811 2.82768,-6.31579 6.31579,-6.31579v0c3.48811,0 6.31579,2.82768 6.31579,6.31579v12.63158c0,3.48811 -2.82768,6.31579 -6.31579,6.31579z" fill="#bcd5e0" stroke="none" stroke-width="1" stroke-linecap="butt"/><path d="M265.26316,135.78947c-3.48811,0 -6.31579,-2.82768 -6.31579,-6.31579v0c0,-3.48811 2.82768,-6.31579 6.31579,-6.31579h12.63158c3.48811,0 6.31579,2.82768 6.31579,6.31579v0c0,3.48811 -2.82768,6.31579 -6.31579,6.31579z" fill="#bcd5e0" stroke="none" stroke-width="1" stroke-linecap="butt"/><path d="M277.89474,186.31579c-3.48811,0 -6.31579,-2.82768 -6.31579,-6.31579v-50.52632c0,-3.48811 2.82768,-6.31579 6.31579,-6.31579v0c3.48811,0 6.31579,2.82768 6.31579,6.31579v50.52632c0,3.48811 -2.82768,6.31579 -6.31579,6.31579z" fill="#bcd5e0" stroke="none" stroke-width="1" stroke-linecap="butt"/><path d="M265.26316,186.31579c-3.48811,0 -6.31579,-2.82768 -6.31579,-6.31579v0c0,-3.48811 2.82768,-6.31579 6.31579,-6.31579h12.63158c3.48811,0 6.31579,2.82768 6.31579,6.31579v0c0,3.48811 -2.82768,6.31579 -6.31579,6.31579z" fill="#bcd5e0" stroke="none" stroke-width="1" stroke-linecap="butt"/><path d="M265.26316,211.57895c-3.48811,0 -6.31579,-2.82768 -6.31579,-6.31579v-25.26316c0,-3.48811 2.82768,-6.31579 6.31579,-6.31579v0c3.48811,0 6.31579,2.82768 6.31579,6.31579v25.26316c0,3.48811 -2.82768,6.31579 -6.31579,6.31579z" fill="#bcd5e0" stroke="none" stroke-width="1" stroke-linecap="butt"/><path d="M265.26316,211.57895c-3.48811,0 -6.31579,-2.82768 -6.31579,-6.31579v0c0,-3.48811 2.82768,-6.31579 6.31579,-6.31579h75.78947c3.48811,0 6.31579,2.82768 6.31579,6.31579v0c0,3.48811 -2.82768,6.31579 -6.31579,6.31579z" fill="#bcd5e0" stroke="none" stroke-width="1" stroke-linecap="butt"/><path d="M341.05263,224.21053c-3.48811,0 -6.31579,-2.82768 -6.31579,-6.31579v-12.63158c0,-3.48811 2.82768,-6.31579 6.31579,-6.31579v0c3.48811,0 6.31579,2.82768 6.31579,6.31579v12.63158c0,3.48811 -2.82768,6.31579 -6.31579,6.31579z" fill="#bcd5e0" stroke="none" stroke-width="1" stroke-linecap="butt"/><path d="M341.05263,224.21053c-3.48811,0 -6.31579,-2.82768 -6.31579,-6.31579v0c0,-3.48811 2.82768,-6.31579 6.31579,-6.31579h12.63158c3.48811,0 6.31579,2.82768 6.31579,6.31579v0c0,3.48811 -2.82768,6.31579 -6.31579,6.31579z" fill="#bcd5e0" stroke="none" stroke-width="1" stroke-linecap="butt"/><path d="M353.68421,236.84211c-3.48811,0 -6.31579,-2.82768 -6.31579,-6.31579v-12.63158c0,-3.48811 2.82768,-6.31579 6.31579,-6.31579v0c3.48811,0 6.31579,2.82768 6.31579,6.31579v12.63158c0,3.48811 -2.82768,6.31579 -6.31579,6.31579z" fill="#bcd5e0" stroke="none" stroke-width="1" stroke-linecap="butt"/><path d="M126.31579,217.89474v12.63158" fill="#000000" stroke="#213a34" stroke-width="9.47368" stroke-linecap="round"/><path d="M126.31579,217.89474h12.63158" fill="#000000" stroke="#213a34" stroke-width="9.47368" stroke-linecap="round"/><path d="M138.94737,217.89474v-12.63158" fill="#000000" stroke="#213a34" stroke-width="9.47368" stroke-linecap="round"/><path d="M138.94737,205.26316h75.78947" fill="#000000" stroke="#213a34" stroke-width="9.47368" stroke-linecap="round"/><path d="M214.73684,205.26316v-25.26316" fill="#000000" stroke="#213a34" stroke-width="9.47368" stroke-linecap="round"/><path d="M214.73684,180h-12.63158" fill="#000000" stroke="#213a34" stroke-width="9.47368" stroke-linecap="round"/><path d="M202.10526,180v-50.52632" fill="#000000" stroke="#213a34" stroke-width="9.47368" stroke-linecap="round"/><path d="M202.10526,129.47368h12.63158" fill="#000000" stroke="#213a34" stroke-width="9.47368" stroke-linecap="round"/><path d="M214.73684,129.47368v-12.63158" fill="#000000" stroke="#213a34" stroke-width="9.47368" stroke-linecap="round"/><path d="M214.73684,116.84211h50.52632" fill="#000000" stroke="#213a34" stroke-width="9.47368" stroke-linecap="round"/><path d="M265.26316,116.84211v12.63158" fill="#000000" stroke="#213a34" stroke-width="9.47368" stroke-linecap="round"/><path d="M265.26316,129.47368h12.63158" fill="#000000" stroke="#213a34" stroke-width="9.47368" stroke-linecap="round"/><path d="M277.89474,129.47368v50.52632" fill="#000000" stroke="#213a34" stroke-width="9.47368" stroke-linecap="round"/><path d="M277.89474,180h-12.63158" fill="#000000" stroke="#213a34" stroke-width="9.47368" stroke-linecap="round"/><path d="M265.26316,180v25.26316" fill="#000000" stroke="#213a34" stroke-width="9.47368" stroke-linecap="round"/><path d="M341.05263,205.26316h-75.78947" fill="#000000" stroke="#213a34" stroke-width="9.47368" stroke-linecap="round"/><path d="M341.05263,205.26316v12.63158" fill="#000000" stroke="#213a34" stroke-width="9.47368" stroke-linecap="round"/><path d="M353.68421,217.89474h-12.63158" fill="#000000" stroke="#213a34" stroke-width="9.47368" stroke-linecap="round"/><path d="M353.68421,230.52632v-12.63158" fill="#000000" stroke="#213a34" stroke-width="9.47368" stroke-linecap="round"/><path d="M238.73684,154.73684c0,-0.69762 0.56554,-1.26316 1.26316,-1.26316c0.69762,0 1.26316,0.56554 1.26316,1.26316c0,0.69762 -0.56554,1.26316 -1.26316,1.26316c-0.69762,0 -1.26316,-0.56554 -1.26316,-1.26316z" fill-opacity="0.8" fill="#75d7ff" stroke="none" stroke-width="1" stroke-linecap="butt"/><path d="M236.21053,154.73684c0,-2.09287 1.69661,-3.78947 3.78947,-3.78947c2.09287,0 3.78947,1.69661 3.78947,3.78947c0,2.09287 -1.69661,3.78947 -3.78947,3.78947c-2.09287,0 -3.78947,-1.69661 -3.78947,-3.78947z" fill-opacity="0.6" fill="#75d7ff" stroke="none" stroke-width="1" stroke-linecap="butt"/><path d="M150.31579,142.10526c0,-0.69762 0.56554,-1.26316 1.26316,-1.26316c0.69762,0 1.26316,0.56554 1.26316,1.26316c0,0.69762 -0.56554,1.26316 -1.26316,1.26316c-0.69762,0 -1.26316,-0.56554 -1.26316,-1.26316z" fill-opacity="0.8" fill="#7d75ff" stroke="none" stroke-width="1" stroke-linecap="butt"/><path d="M147.78947,142.10526c0,-2.09287 1.69661,-3.78947 3.78947,-3.78947c2.09287,0 3.78947,1.69661 3.78947,3.78947c0,2.09287 -1.69661,3.78947 -3.78947,3.78947c-2.09287,0 -3.78947,-1.69661 -3.78947,-3.78947z" fill-opacity="0.6" fill="#7d75ff" stroke="none" stroke-width="1" stroke-linecap="butt"/><path d="M150.31579,192.63158c0,-0.69762 0.56554,-1.26316 1.26316,-1.26316c0.69762,0 1.26316,0.56554 1.26316,1.26316c0,0.69762 -0.56554,1.26316 -1.26316,1.26316c-0.69762,0 -1.26316,-0.56554 -1.26316,-1.26316z" fill-opacity="0.8" fill="#75e4ff" stroke="none" stroke-width="1" stroke-linecap="butt"/><path d="M147.78947,192.63158c0,-2.09287 1.69661,-3.78947 3.78947,-3.78947c2.09287,0 3.78947,1.69661 3.78947,3.78947c0,2.09287 -1.69661,3.78947 -3.78947,3.78947c-2.09287,0 -3.78947,-1.69661 -3.78947,-3.78947z" fill-opacity="0.6" fill="#75e4ff" stroke="none" stroke-width="1" stroke-linecap="butt"/><path d="M175.57895,116.84211c0,-0.69762 0.56554,-1.26316 1.26316,-1.26316c0.69762,0 1.26316,0.56554 1.26316,1.26316c0,0.69762 -0.56554,1.26316 -1.26316,1.26316c-0.69762,0 -1.26316,-0.56554 -1.26316,-1.26316z" fill-opacity="0.8" fill="#75ffca" stroke="none" stroke-width="1" stroke-linecap="butt"/><path d="M173.05263,116.84211c0,-2.09287 1.69661,-3.78947 3.78947,-3.78947c2.09287,0 3.78947,1.69661 3.78947,3.78947c0,2.09287 -1.69661,3.78947 -3.78947,3.78947c-2.09287,0 -3.78947,-1.69661 -3.78947,-3.78947z" fill-opacity="0.6" fill="#75ffca" stroke="none" stroke-width="1" stroke-linecap="butt"/><path d="M301.89474,167.36842c0,-0.69762 0.56554,-1.26316 1.26316,-1.26316c0.69762,0 1.26316,0.56554 1.26316,1.26316c0,0.69762 -0.56554,1.26316 -1.26316,1.26316c-0.69762,0 -1.26316,-0.56554 -1.26316,-1.26316z" fill-opacity="0.8" fill="#75e4ff" stroke="none" stroke-width="1" stroke-linecap="butt"/><path d="M299.36842,167.36842c0,-2.09287 1.69661,-3.78947 3.78947,-3.78947c2.09287,0 3.78947,1.69661 3.78947,3.78947c0,2.09287 -1.69661,3.78947 -3.78947,3.78947c-2.09287,0 -3.78947,-1.69661 -3.78947,-3.78947z" fill-opacity="0.6" fill="#75e4ff" stroke="none" stroke-width="1" stroke-linecap="butt"/><path d="M352.42105,180c0,-0.69762 0.56554,-1.26316 1.26316,-1.26316c0.69762,0 1.26316,0.56554 1.26316,1.26316c0,0.69762 -0.56554,1.26316 -1.26316,1.26316c-0.69762,0 -1.26316,-0.56554 -1.26316,-1.26316z" fill-opacity="0.8" fill="#75c3ff" stroke="none" stroke-width="1" stroke-linecap="butt"/><path d="M349.89474,180c0,-2.09287 1.69661,-3.78947 3.78947,-3.78947c2.09287,0 3.78947,1.69661 3.78947,3.78947c0,2.09287 -1.69661,3.78947 -3.78947,3.78947c-2.09287,0 -3.78947,-1.69661 -3.78947,-3.78947z" fill-opacity="0.6" fill="#75c3ff" stroke="none" stroke-width="1" stroke-linecap="butt"/><path d="M339.78947,129.47368c0,-0.69762 0.56554,-1.26316 1.26316,-1.26316c0.69762,0 1.26316,0.56554 1.26316,1.26316c0,0.69762 -0.56554,1.26316 -1.26316,1.26316c-0.69762,0 -1.26316,-0.56554 -1.26316,-1.26316z" fill-opacity="0.8" fill="#cc75ff" stroke="none" stroke-width="1" stroke-linecap="butt"/><path d="M337.26316,129.47368c0,-2.09287 1.69661,-3.78947 3.78947,-3.78947c2.09287,0 3.78947,1.69661 3.78947,3.78947c0,2.09287 -1.69661,3.78947 -3.78947,3.78947c-2.09287,0 -3.78947,-1.69661 -3.78947,-3.78947z" fill-opacity="0.6" fill="#cc75ff" stroke="none" stroke-width="1" stroke-linecap="butt"/><path d="M125.05263,167.36842c0,-0.69762 0.56554,-1.26316 1.26316,-1.26316c0.69762,0 1.26316,0.56554 1.26316,1.26316c0,0.69762 -0.56554,1.26316 -1.26316,1.26316c-0.69762,0 -1.26316,-0.56554 -1.26316,-1.26316z" fill-opacity="0.8" fill="#75f1ff" stroke="none" stroke-width="1" stroke-linecap="butt"/><path d="M122.52632,167.36842c0,-2.09287 1.69661,-3.78947 3.78947,-3.78947c2.09287,0 3.78947,1.69661 3.78947,3.78947c0,2.09287 -1.69661,3.78947 -3.78947,3.78947c-2.09287,0 -3.78947,-1.69661 -3.78947,-3.78947z" fill-opacity="0.6" fill="#75f1ff" stroke="none" stroke-width="1" stroke-linecap="butt"/><path d="M314.52632,192.63158c0,-0.69762 0.56554,-1.26316 1.26316,-1.26316c0.69762,0 1.26316,0.56554 1.26316,1.26316c0,0.69762 -0.56554,1.26316 -1.26316,1.26316c-0.69762,0 -1.26316,-0.56554 -1.26316,-1.26316z" fill-opacity="0.8" fill="#75a9ff" stroke="none" stroke-width="1" stroke-linecap="butt"/><path d="M312,192.63158c0,-2.09287 1.69661,-3.78947 3.78947,-3.78947c2.09287,0 3.78947,1.69661 3.78947,3.78947c0,2.09287 -1.69661,3.78947 -3.78947,3.78947c-2.09287,0 -3.78947,-1.69661 -3.78947,-3.78947z" fill-opacity="0.6" fill="#75a9ff" stroke="none" stroke-width="1" stroke-linecap="butt"/><path d="M175.57895,167.36842c0,-0.69762 0.56554,-1.26316 1.26316,-1.26316c0.69762,0 1.26316,0.56554 1.26316,1.26316c0,0.69762 -0.56554,1.26316 -1.26316,1.26316c-0.69762,0 -1.26316,-0.56554 -1.26316,-1.26316z" fill-opacity="0.8" fill="#8a75ff" stroke="none" stroke-width="1" stroke-linecap="butt"/><path d="M173.05263,167.36842c0,-2.09287 1.69661,-3.78947 3.78947,-3.78947c2.09287,0 3.78947,1.69661 3.78947,3.78947c0,2.09287 -1.69661,3.78947 -3.78947,3.78947c-2.09287,0 -3.78947,-1.69661 -3.78947,-3.78947z" fill-opacity="0.6" fill="#8a75ff" stroke="none" stroke-width="1" stroke-linecap="butt"/><path d="M301.89474,116.84211c0,-0.69762 0.56554,-1.26316 1.26316,-1.26316c0.69762,0 1.26316,0.56554 1.26316,1.26316c0,0.69762 -0.56554,1.26316 -1.26316,1.26316c-0.69762,0 -1.26316,-0.56554 -1.26316,-1.26316z" fill-opacity="0.8" fill="#7d75ff" stroke="none" stroke-width="1" stroke-linecap="butt"/><path d="M299.36842,116.84211c0,-2.09287 1.69661,-3.78947 3.78947,-3.78947c2.09287,0 3.78947,1.69661 3.78947,3.78947c0,2.09287 -1.69661,3.78947 -3.78947,3.78947c-2.09287,0 -3.78947,-1.69661 -3.78947,-3.78947z" fill-opacity="0.6" fill="#7d75ff" stroke="none" stroke-width="1" stroke-linecap="butt"/><path d="M175.57895,230.52632c0,-0.69762 0.56554,-1.26316 1.26316,-1.26316c0.69762,0 1.26316,0.56554 1.26316,1.26316c0,0.69762 -0.56554,1.26316 -1.26316,1.26316c-0.69762,0 -1.26316,-0.56554 -1.26316,-1.26316z" fill-opacity="0.8" fill="#ed75ff" stroke="none" stroke-width="1" stroke-linecap="butt"/><path d="M173.05263,230.52632c0,-2.09287 1.69661,-3.78947 3.78947,-3.78947c2.09287,0 3.78947,1.69661 3.78947,3.78947c0,2.09287 -1.69661,3.78947 -3.78947,3.78947c-2.09287,0 -3.78947,-1.69661 -3.78947,-3.78947z" fill-opacity="0.6" fill="#ed75ff" stroke="none" stroke-width="1" stroke-linecap="butt"/><path d="M213.47368,243.15789c0,-0.69762 0.56554,-1.26316 1.26316,-1.26316c0.69762,0 1.26316,0.56554 1.26316,1.26316c0,0.69762 -0.56554,1.26316 -1.26316,1.26316c-0.69762,0 -1.26316,-0.56554 -1.26316,-1.26316z" fill-opacity="0.8" fill="#75f8ff" stroke="none" stroke-width="1" stroke-linecap="butt"/><path d="M210.94737,243.15789c0,-2.09287 1.69661,-3.78947 3.78947,-3.78947c2.09287,0 3.78947,1.69661 3.78947,3.78947c0,2.09287 -1.69661,3.78947 -3.78947,3.78947c-2.09287,0 -3.78947,-1.69661 -3.78947,-3.78947z" fill-opacity="0.6" fill="#75f8ff" stroke="none" stroke-width="1" stroke-linecap="butt"/><path d="M289.26316,255.78947c0,-0.69762 0.56554,-1.26316 1.26316,-1.26316c0.69762,0 1.26316,0.56554 1.26316,1.26316c0,0.69762 -0.56554,1.26316 -1.26316,1.26316c-0.69762,0 -1.26316,-0.56554 -1.26316,-1.26316z" fill-opacity="0.8" fill="#75ffca" stroke="none" stroke-width="1" stroke-linecap="butt"/><path d="M286.73684,255.78947c0,-2.09287 1.69661,-3.78947 3.78947,-3.78947c2.09287,0 3.78947,1.69661 3.78947,3.78947c0,2.09287 -1.69661,3.78947 -3.78947,3.78947c-2.09287,0 -3.78947,-1.69661 -3.78947,-3.78947z" fill-opacity="0.6" fill="#75ffca" stroke="none" stroke-width="1" stroke-linecap="butt"/><path d="M289.26316,217.89474c0,-0.69762 0.56554,-1.26316 1.26316,-1.26316c0.69762,0 1.26316,0.56554 1.26316,1.26316c0,0.69762 -0.56554,1.26316 -1.26316,1.26316c-0.69762,0 -1.26316,-0.56554 -1.26316,-1.26316z" fill-opacity="0.8" fill="#75ffd0" stroke="none" stroke-width="1" stroke-linecap="butt"/><path d="M286.73684,217.89474c0,-2.09287 1.69661,-3.78947 3.78947,-3.78947c2.09287,0 3.78947,1.69661 3.78947,3.78947c0,2.09287 -1.69661,3.78947 -3.78947,3.78947c-2.09287,0 -3.78947,-1.69661 -3.78947,-3.78947z" fill-opacity="0.6" fill="#75ffd0" stroke="none" stroke-width="1" stroke-linecap="butt"/><path d="M327.15789,243.15789c0,-0.69762 0.56554,-1.26316 1.26316,-1.26316c0.69762,0 1.26316,0.56554 1.26316,1.26316c0,0.69762 -0.56554,1.26316 -1.26316,1.26316c-0.69762,0 -1.26316,-0.56554 -1.26316,-1.26316z" fill-opacity="0.8" fill="#e675ff" stroke="none" stroke-width="1" stroke-linecap="butt"/><path d="M324.63158,243.15789c0,-2.09287 1.69661,-3.78947 3.78947,-3.78947c2.09287,0 3.78947,1.69661 3.78947,3.78947c0,2.09287 -1.69661,3.78947 -3.78947,3.78947c-2.09287,0 -3.78947,-1.69661 -3.78947,-3.78947z" fill-opacity="0.6" fill="#e675ff" stroke="none" stroke-width="1" stroke-linecap="butt"/><path d="M162.94737,243.15789c0,-0.69762 0.56554,-1.26316 1.26316,-1.26316c0.69762,0 1.26316,0.56554 1.26316,1.26316c0,0.69762 -0.56554,1.26316 -1.26316,1.26316c-0.69762,0 -1.26316,-0.56554 -1.26316,-1.26316z" fill-opacity="0.8" fill="#ab75ff" stroke="none" stroke-width="1" stroke-linecap="butt"/><path d="M160.42105,243.15789c0,-2.09287 1.69661,-3.78947 3.78947,-3.78947c2.09287,0 3.78947,1.69661 3.78947,3.78947c0,2.09287 -1.69661,3.78947 -3.78947,3.78947c-2.09287,0 -3.78947,-1.69661 -3.78947,-3.78947z" fill-opacity="0.6" fill="#ab75ff" stroke="none" stroke-width="1" stroke-linecap="butt"/><path d="M120,230.52632c0,-3.48811 2.82768,-6.31579 6.31579,-6.31579c3.48811,0 6.31579,2.82768 6.31579,6.31579c0,3.48811 -2.82768,6.31579 -6.31579,6.31579c-3.48811,0 -6.31579,-2.82768 -6.31579,-6.31579z" fill-opacity="0.35" fill="#00ff44" stroke="none" stroke-width="1" stroke-linecap="butt"/><path d="M347.36842,230.52632c0,-3.48811 2.82768,-6.31579 6.31579,-6.31579c3.48811,0 6.31579,2.82768 6.31579,6.31579c0,3.48811 -2.82768,6.31579 -6.31579,6.31579c-3.48811,0 -6.31579,-2.82768 -6.31579,-6.31579z" fill-opacity="0.35" fill="#ff0404" stroke="none" stroke-width="1" stroke-linecap="butt"/><path d="M186.31579,192.63158c0,-1.74406 1.41384,-3.15789 3.15789,-3.15789c1.74406,0 3.15789,1.41384 3.15789,3.15789c0,1.74406 -1.41384,3.15789 -3.15789,3.15789c-1.74406,0 -3.15789,-1.41384 -3.15789,-3.15789z" fill-opacity="0.8" fill="#3a627f" stroke="none" stroke-width="1" stroke-linecap="butt"/><path d="M186.31579,104.21053c0,-1.74406 1.41384,-3.15789 3.15789,-3.15789c1.74406,0 3.15789,1.41384 3.15789,3.15789c0,1.74406 -1.41384,3.15789 -3.15789,3.15789c-1.74406,0 -3.15789,-1.41384 -3.15789,-3.15789z" fill-opacity="0.8" fill="#3a627f" stroke="none" stroke-width="1" stroke-linecap="butt"/><path d="M189.47368,192.63158v-88.42105" fill="#000000" stroke-opacity="0.8" stroke="#75c5ff" stroke-width="3.15789" stroke-linecap="round"/><path d="M186.31579,192.63158c0,-1.74406 1.41384,-3.15789 3.15789,-3.15789c1.74406,0 3.15789,1.41384 3.15789,3.15789c0,1.74406 -1.41384,3.15789 -3.15789,3.15789c-1.74406,0 -3.15789,-1.41384 -3.15789,-3.15789z" fill-opacity="0.8" fill="#3a627f" stroke="none" stroke-width="1" stroke-linecap="butt"/><path d="M287.36842,192.63158c0,-1.74406 1.41384,-3.15789 3.15789,-3.15789c1.74406,0 3.15789,1.41384 3.15789,3.15789c0,1.74406 -1.41384,3.15789 -3.15789,3.15789c-1.74406,0 -3.15789,-1.41384 -3.15789,-3.15789z" fill-opacity="0.8" fill="#3a627f" stroke="none" stroke-width="1" stroke-linecap="butt"/><path d="M189.47368,192.63158h101.05263" fill="#000000" stroke-opacity="0.8" stroke="#75c5ff" stroke-width="3.15789" stroke-linecap="round"/><path d="M287.36842,104.21053c0,-1.74406 1.41384,-3.15789 3.15789,-3.15789c1.74406,0 3.15789,1.41384 3.15789,3.15789c0,1.74406 -1.41384,3.15789 -3.15789,3.15789c-1.74406,0 -3.15789,-1.41384 -3.15789,-3.15789z" fill-opacity="0.8" fill="#3a627f" stroke="none" stroke-width="1" stroke-linecap="butt"/><path d="M287.36842,192.63158c0,-1.74406 1.41384,-3.15789 3.15789,-3.15789c1.74406,0 3.15789,1.41384 3.15789,3.15789c0,1.74406 -1.41384,3.15789 -3.15789,3.15789c-1.74406,0 -3.15789,-1.41384 -3.15789,-3.15789z" fill-opacity="0.8" fill="#3a627f" stroke="none" stroke-width="1" stroke-linecap="butt"/><path d="M290.52632,104.21053v88.42105" fill="#000000" stroke-opacity="0.8" stroke="#75c5ff" stroke-width="3.15789" stroke-linecap="round"/><path d="M287.36842,104.21053c0,-1.74406 1.41384,-3.15789 3.15789,-3.15789c1.74406,0 3.15789,1.41384 3.15789,3.15789c0,1.74406 -1.41384,3.15789 -3.15789,3.15789c-1.74406,0 -3.15789,-1.41384 -3.15789,-3.15789z" fill-opacity="0.8" fill="#3a627f" stroke="none" stroke-width="1" stroke-linecap="butt"/><path d="M186.31579,104.21053c0,-1.74406 1.41384,-3.15789 3.15789,-3.15789c1.74406,0 3.15789,1.41384 3.15789,3.15789c0,1.74406 -1.41384,3.15789 -3.15789,3.15789c-1.74406,0 -3.15789,-1.41384 -3.15789,-3.15789z" fill-opacity="0.8" fill="#3a627f" stroke="none" stroke-width="1" stroke-linecap="butt"/><path d="M290.52632,104.21053h-101.05263" fill="#000000" stroke-opacity="0.8" stroke="#75c5ff" stroke-width="3.15789" stroke-linecap="round"/></g></g></svg>