<svg version="1.1" xmlns="http://www.w3.org/2000/svg" xmlns:xlink="http://www.w3.org/1999/xlink" width="241.58824" height="157.05882" viewBox="0,0,241.58824,157.05882"><defs><linearGradient x1="120" y1="102.35294" x2="120" y2="257.64706" gradientUnits="userSpaceOnUse" id="color-1"><stop offset="0" stop-color="#4d6066"/><stop offset="1" stop-color="#00141a"/></linearGradient></defs><g transform="translate(-119.64706,-101.47059)"><g data-paper-data="{&quot;isPaintingLayer&quot;:true}" fill-rule="nonzero" stroke-linejoin="miter" stroke-miterlimit="10" stroke-dasharray="" stroke-dashoffset="0" style="mix-blend-mode: normal"><path d="M120,257.64706v-155.29412h240v155.29412z" fill="url(#color-1)" stroke="none" stroke-width="1" stroke-linecap="butt"/><path d="M120,102.35294h240" fill="#000000" stroke-opacity="0.5" stroke="#ffffff" stroke-width="0.70588" stroke-linecap="butt"/><path d="M120,116.47059h240" fill="#000000" stroke-opacity="0.5" stroke="#ffffff" stroke-width="0.70588" stroke-linecap="butt"/><path d="M120,130.58824h240" fill="#000000" stroke-opacity="0.5" stroke="#ffffff" stroke-width="0.70588" stroke-linecap="butt"/><path d="M120,144.70588h240" fill="#000000" stroke-opacity="0.5" stroke="#ffffff" stroke-width="0.70588" stroke-linecap="butt"/><path d="M120,158.82353h240" fill="#000000" stroke-opacity="0.5" stroke="#ffffff" stroke-width="0.70588" stroke-linecap="butt"/><path d="M120,172.94118h240" fill="#000000" stroke-opacity="0.5" stroke="#ffffff" stroke-width="0.70588" stroke-linecap="butt"/><path d="M120,187.05882h240" fill="#000000" stroke-opacity="0.5" stroke="#ffffff" stroke-width="0.70588" stroke-linecap="butt"/><path d="M120,201.17647h240" fill="#000000" stroke-opacity="0.5" stroke="#ffffff" stroke-width="0.70588" stroke-linecap="butt"/><path d="M120,215.29412h240" fill="#000000" stroke-opacity="0.5" stroke="#ffffff" stroke-width="0.70588" stroke-linecap="butt"/><path d="M120,229.41176h240" fill="#000000" stroke-opacity="0.5" stroke="#ffffff" stroke-width="0.70588" stroke-linecap="butt"/><path d="M120,243.52941h240" fill="#000000" stroke-opacity="0.5" stroke="#ffffff" stroke-width="0.70588" stroke-linecap="butt"/><path d="M120,257.64706h240" fill="#000000" stroke-opacity="0.5" stroke="#ffffff" stroke-width="0.70588" stroke-linecap="butt"/><path d="M120,102.35294v155.29412" fill="#000000" stroke-opacity="0.5" stroke="#ffffff" stroke-width="0.70588" stroke-linecap="butt"/><path d="M134.11765,102.35294v155.29412" fill="#000000" stroke-opacity="0.5" stroke="#ffffff" stroke-width="0.70588" stroke-linecap="butt"/><path d="M148.23529,102.35294v155.29412" fill="#000000" stroke-opacity="0.5" stroke="#ffffff" stroke-width="0.70588" stroke-linecap="butt"/><path d="M162.35294,257.64706v-155.29412" fill="#000000" stroke-opacity="0.5" stroke="#ffffff" stroke-width="0.70588" stroke-linecap="butt"/><path d="M176.47059,102.35294v155.29412" fill="#000000" stroke-opacity="0.5" stroke="#ffffff" stroke-width="0.70588" stroke-linecap="butt"/><path d="M190.58824,102.35294v155.29412" fill="#000000" stroke-opacity="0.5" stroke="#ffffff" stroke-width="0.70588" stroke-linecap="butt"/><path d="M204.70588,257.64706v-155.29412" fill="#000000" stroke-opacity="0.5" stroke="#ffffff" stroke-width="0.70588" stroke-linecap="butt"/><path d="M218.82353,102.35294v155.29412" fill="#000000" stroke-opacity="0.5" stroke="#ffffff" stroke-width="0.70588" stroke-linecap="butt"/><path d="M232.94118,102.35294v155.29412" fill="#000000" stroke-opacity="0.5" stroke="#ffffff" stroke-width="0.70588" stroke-linecap="butt"/><path d="M247.05882,102.35294v155.29412" fill="#000000" stroke-opacity="0.5" stroke="#ffffff" stroke-width="0.70588" stroke-linecap="butt"/><path d="M261.17647,102.35294v155.29412" fill="#000000" stroke-opacity="0.5" stroke="#ffffff" stroke-width="0.70588" stroke-linecap="butt"/><path d="M275.29412,257.64706v-155.29412" fill="#000000" stroke-opacity="0.5" stroke="#ffffff" stroke-width="0.70588" stroke-linecap="butt"/><path d="M289.41176,257.64706v-155.29412" fill="#000000" stroke-opacity="0.5" stroke="#ffffff" stroke-width="0.70588" stroke-linecap="butt"/><path d="M303.52941,102.35294v155.29412" fill="#000000" stroke-opacity="0.5" stroke="#ffffff" stroke-width="0.70588" stroke-linecap="butt"/><path d="M317.64706,102.35294v155.29412" fill="#000000" stroke-opacity="0.5" stroke="#ffffff" stroke-width="0.70588" stroke-linecap="butt"/><path d="M331.76471,102.35294v155.29412" fill="#000000" stroke-opacity="0.5" stroke="#ffffff" stroke-width="0.70588" stroke-linecap="butt"/><path d="M345.88235,102.35294v155.29412" fill="#000000" stroke-opacity="0.5" stroke="#ffffff" stroke-width="0.70588" stroke-linecap="butt"/><path d="M360,102.35294v155.29412" fill="#000000" stroke-opacity="0.5" stroke="#ffffff" stroke-width="0.70588" stroke-linecap="butt"/><path d="M352.94118,180h-225.88235" fill="#000000" stroke-opacity="0.5" stroke="#a3ff33" stroke-width="13.41176" stroke-linecap="round"/><path d="M240,165.88235v28.23529" fill="#000000" stroke-opacity="0.5" stroke="#a3ff33" stroke-width="13.41176" stroke-linecap="round"/><path d="M127.05882,109.41176h225.88235" fill="#000000" stroke-opacity="0.5" stroke="#a3ff33" stroke-width="13.41176" stroke-linecap="round"/><path d="M127.05882,250.58824h225.88235" fill="#000000" stroke-opacity="0.5" stroke="#a3ff33" stroke-width="13.41176" stroke-linecap="round"/><path d="M127.05882,123.52941h56.47059" fill="#000000" stroke-opacity="0.5" stroke="#a3ff33" stroke-width="13.41176" stroke-linecap="round"/><path d="M310.58824,123.52941h42.35294" fill="#000000" stroke-opacity="0.5" stroke="#a3ff33" stroke-width="13.41176" stroke-linecap="round"/><path d="M183.52941,236.47059h-56.47059" fill="#000000" stroke-opacity="0.5" stroke="#a3ff33" stroke-width="13.41176" stroke-linecap="round"/><path d="M310.58824,236.47059h42.35294" fill="#000000" stroke-opacity="0.5" stroke="#a3ff33" stroke-width="13.41176" stroke-linecap="round"/><path d="M352.94118,180h-225.88235" fill="#000000" stroke="#bbff3d" stroke-width="9.17647" stroke-linecap="round"/><path d="M240,165.88235v28.23529" fill="#000000" stroke="#bbff3d" stroke-width="9.17647" stroke-linecap="round"/><path d="M127.05882,109.41176h225.88235" fill="#000000" stroke="#bbff3d" stroke-width="9.17647" stroke-linecap="round"/><path d="M127.05882,250.58824h225.88235" fill="#000000" stroke="#bbff3d" stroke-width="9.17647" stroke-linecap="round"/><path d="M127.05882,123.52941h56.47059" fill="#000000" stroke="#bbff3d" stroke-width="9.17647" stroke-linecap="round"/><path d="M310.58824,123.52941h42.35294" fill="#000000" stroke="#bbff3d" stroke-width="9.17647" stroke-linecap="round"/><path d="M183.52941,236.47059h-56.47059" fill="#000000" stroke="#bbff3d" stroke-width="9.17647" stroke-linecap="round"/><path d="M310.58824,236.47059h42.35294" fill="#000000" stroke="#bbff3d" stroke-width="9.17647" stroke-linecap="round"/><path d="M127.05882,215.29412c-3.89848,0 -7.05882,-3.16034 -7.05882,-7.05882v0c0,-3.89848 3.16034,-7.05882 7.05882,-7.05882h70.58824c3.89848,0 7.05882,3.16034 7.05882,7.05882v0c0,3.89848 -3.16034,7.05882 -7.05882,7.05882z" fill="#bcd5e0" stroke="none" stroke-width="1" stroke-linecap="butt"/><path d="M197.64706,215.29412c-3.89848,0 -7.05882,-3.16034 -7.05882,-7.05882v-14.11765c0,-3.89848 3.16034,-7.05882 7.05882,-7.05882v0c3.89848,0 7.05882,3.16034 7.05882,7.05882v14.11765c0,3.89848 -3.16034,7.05882 -7.05882,7.05882z" fill="#bcd5e0" stroke="none" stroke-width="1" stroke-linecap="butt"/><path d="M197.64706,201.17647c-3.89848,0 -7.05882,-3.16034 -7.05882,-7.05882v0c0,-3.89848 3.16034,-7.05882 7.05882,-7.05882h28.23529c3.89848,0 7.05882,3.16034 7.05882,7.05882v0c0,3.89848 -3.16034,7.05882 -7.05882,7.05882z" fill="#bcd5e0" stroke="none" stroke-width="1" stroke-linecap="butt"/><path d="M225.88235,243.52941c-3.89848,0 -7.05882,-3.16034 -7.05882,-7.05882v-42.35294c0,-3.89848 3.16034,-7.05882 7.05882,-7.05882v0c3.89848,0 7.05882,3.16034 7.05882,7.05882v42.35294c0,3.89848 -3.16034,7.05882 -7.05882,7.05882z" fill="#bcd5e0" stroke="none" stroke-width="1" stroke-linecap="butt"/><path d="M225.88235,243.52941c-3.89848,0 -7.05882,-3.16034 -7.05882,-7.05882v0c0,-3.89848 3.16034,-7.05882 7.05882,-7.05882h28.23529c3.89848,0 7.05882,3.16034 7.05882,7.05882v0c0,3.89848 -3.16034,7.05882 -7.05882,7.05882z" fill="#bcd5e0" stroke="none" stroke-width="1" stroke-linecap="butt"/><path d="M254.11765,243.52941c-3.89848,0 -7.05882,-3.16034 -7.05882,-7.05882v-42.35294c0,-3.89848 3.16034,-7.05882 7.05882,-7.05882v0c3.89848,0 7.05882,3.16034 7.05882,7.05882v42.35294c0,3.89848 -3.16034,7.05882 -7.05882,7.05882z" fill="#bcd5e0" stroke="none" stroke-width="1" stroke-linecap="butt"/><path d="M254.11765,201.17647c-3.89848,0 -7.05882,-3.16034 -7.05882,-7.05882v0c0,-3.89848 3.16034,-7.05882 7.05882,-7.05882h28.23529c3.89848,0 7.05882,3.16034 7.05882,7.05882v0c0,3.89848 -3.16034,7.05882 -7.05882,7.05882z" fill="#bcd5e0" stroke="none" stroke-width="1" stroke-linecap="butt"/><path d="M282.35294,215.29412c-3.89848,0 -7.05882,-3.16034 -7.05882,-7.05882v-14.11765c0,-3.89848 3.16034,-7.05882 7.05882,-7.05882v0c3.89848,0 7.05882,3.16034 7.05882,7.05882v14.11765c0,3.89848 -3.16034,7.05882 -7.05882,7.05882z" fill="#bcd5e0" stroke="none" stroke-width="1" stroke-linecap="butt"/><path d="M282.35294,215.29412c-3.89848,0 -7.05882,-3.16034 -7.05882,-7.05882v0c0,-3.89848 3.16034,-7.05882 7.05882,-7.05882h56.47059c3.89848,0 7.05882,3.16034 7.05882,7.05882v0c0,3.89848 -3.16034,7.05882 -7.05882,7.05882z" fill="#bcd5e0" stroke="none" stroke-width="1" stroke-linecap="butt"/><path d="M338.82353,215.29412c-3.89848,0 -7.05882,-3.16034 -7.05882,-7.05882v-56.47059c0,-3.89848 3.16034,-7.05882 7.05882,-7.05882v0c3.89848,0 7.05882,3.16034 7.05882,7.05882v56.47059c0,3.89848 -3.16034,7.05882 -7.05882,7.05882z" fill="#bcd5e0" stroke="none" stroke-width="1" stroke-linecap="butt"/><path d="M282.35294,158.82353c-3.89848,0 -7.05882,-3.16034 -7.05882,-7.05882v0c0,-3.89848 3.16034,-7.05882 7.05882,-7.05882h56.47059c3.89848,0 7.05882,3.16034 7.05882,7.05882v0c0,3.89848 -3.16034,7.05882 -7.05882,7.05882z" fill="#bcd5e0" stroke="none" stroke-width="1" stroke-linecap="butt"/><path d="M282.35294,172.94118c-3.89848,0 -7.05882,-3.16034 -7.05882,-7.05882v-14.11765c0,-3.89848 3.16034,-7.05882 7.05882,-7.05882v0c3.89848,0 7.05882,3.16034 7.05882,7.05882v14.11765c0,3.89848 -3.16034,7.05882 -7.05882,7.05882z" fill="#bcd5e0" stroke="none" stroke-width="1" stroke-linecap="butt"/><path d="M254.11765,172.94118c-3.89848,0 -7.05882,-3.16034 -7.05882,-7.05882v0c0,-3.89848 3.16034,-7.05882 7.05882,-7.05882h28.23529c3.89848,0 7.05882,3.16034 7.05882,7.05882v0c0,3.89848 -3.16034,7.05882 -7.05882,7.05882z" fill="#bcd5e0" stroke="none" stroke-width="1" stroke-linecap="butt"/><path d="M254.11765,172.94118c-3.89848,0 -7.05882,-3.16034 -7.05882,-7.05882v-42.35294c0,-3.89848 3.16034,-7.05882 7.05882,-7.05882v0c3.89848,0 7.05882,3.16034 7.05882,7.05882v42.35294c0,3.89848 -3.16034,7.05882 -7.05882,7.05882z" fill="#bcd5e0" stroke="none" stroke-width="1" stroke-linecap="butt"/><path d="M225.88235,130.58824c-3.89848,0 -7.05882,-3.16034 -7.05882,-7.05882v0c0,-3.89848 3.16034,-7.05882 7.05882,-7.05882h28.23529c3.89848,0 7.05882,3.16034 7.05882,7.05882v0c0,3.89848 -3.16034,7.05882 -7.05882,7.05882z" fill="#bcd5e0" stroke="none" stroke-width="1" stroke-linecap="butt"/><path d="M225.88235,172.94118c-3.89848,0 -7.05882,-3.16034 -7.05882,-7.05882v-42.35294c0,-3.89848 3.16034,-7.05882 7.05882,-7.05882v0c3.89848,0 7.05882,3.16034 7.05882,7.05882v42.35294c0,3.89848 -3.16034,7.05882 -7.05882,7.05882z" fill="#bcd5e0" stroke="none" stroke-width="1" stroke-linecap="butt"/><path d="M197.64706,172.94118c-3.89848,0 -7.05882,-3.16034 -7.05882,-7.05882v0c0,-3.89848 3.16034,-7.05882 7.05882,-7.05882h28.23529c3.89848,0 7.05882,3.16034 7.05882,7.05882v0c0,3.89848 -3.16034,7.05882 -7.05882,7.05882z" fill="#bcd5e0" stroke="none" stroke-width="1" stroke-linecap="butt"/><path d="M197.64706,172.94118c-3.89848,0 -7.05882,-3.16034 -7.05882,-7.05882v-14.11765c0,-3.89848 3.16034,-7.05882 7.05882,-7.05882v0c3.89848,0 7.05882,3.16034 7.05882,7.05882v14.11765c0,3.89848 -3.16034,7.05882 -7.05882,7.05882z" fill="#bcd5e0" stroke="none" stroke-width="1" stroke-linecap="butt"/><path d="M127.05882,158.82353c-3.89848,0 -7.05882,-3.16034 -7.05882,-7.05882v0c0,-3.89848 3.16034,-7.05882 7.05882,-7.05882h70.58824c3.89848,0 7.05882,3.16034 7.05882,7.05882v0c0,3.89848 -3.16034,7.05882 -7.05882,7.05882z" fill="#bcd5e0" stroke="none" stroke-width="1" stroke-linecap="butt"/><path d="M127.05882,208.23529h70.58824" fill="#000000" stroke="#213a34" stroke-width="10.58824" stroke-linecap="round"/><path d="M197.64706,194.11765v14.11765" fill="#000000" stroke="#213a34" stroke-width="10.58824" stroke-linecap="round"/><path d="M197.64706,194.11765h28.23529" fill="#000000" stroke="#213a34" stroke-width="10.58824" stroke-linecap="round"/><path d="M225.88235,236.47059v-42.35294" fill="#000000" stroke="#213a34" stroke-width="10.58824" stroke-linecap="round"/><path d="M254.11765,236.47059h-28.23529" fill="#000000" stroke="#213a34" stroke-width="10.58824" stroke-linecap="round"/><path d="M254.11765,194.11765v42.35294" fill="#000000" stroke="#213a34" stroke-width="10.58824" stroke-linecap="round"/><path d="M254.11765,194.11765h28.23529" fill="#000000" stroke="#213a34" stroke-width="10.58824" stroke-linecap="round"/><path d="M282.35294,208.23529v-14.11765" fill="#000000" stroke="#213a34" stroke-width="10.58824" stroke-linecap="round"/><path d="M282.35294,208.23529h56.47059" fill="#000000" stroke="#213a34" stroke-width="10.58824" stroke-linecap="round"/><path d="M338.82353,208.23529v-56.47059" fill="#000000" stroke="#213a34" stroke-width="10.58824" stroke-linecap="round"/><path d="M338.82353,151.76471h-56.47059" fill="#000000" stroke="#213a34" stroke-width="10.58824" stroke-linecap="round"/><path d="M282.35294,151.76471v14.11765" fill="#000000" stroke="#213a34" stroke-width="10.58824" stroke-linecap="round"/><path d="M282.35294,165.88235h-28.23529" fill="#000000" stroke="#213a34" stroke-width="10.58824" stroke-linecap="round"/><path d="M254.11765,165.88235v-42.35294" fill="#000000" stroke="#213a34" stroke-width="10.58824" stroke-linecap="round"/><path d="M254.11765,123.52941h-28.23529" fill="#000000" stroke="#213a34" stroke-width="10.58824" stroke-linecap="round"/><path d="M225.88235,123.52941v42.35294" fill="#000000" stroke="#213a34" stroke-width="10.58824" stroke-linecap="round"/><path d="M225.88235,165.88235h-28.23529" fill="#000000" stroke="#213a34" stroke-width="10.58824" stroke-linecap="round"/><path d="M197.64706,165.88235v-14.11765" fill="#000000" stroke="#213a34" stroke-width="10.58824" stroke-linecap="round"/><path d="M197.64706,151.76471h-70.58824" fill="#000000" stroke="#213a34" stroke-width="10.58824" stroke-linecap="round"/><path d="M204.70588,137.64706c0,-19.4924 15.80171,-35.29412 35.29412,-35.29412c19.4924,0 35.29412,15.80171 35.29412,35.29412c0,19.4924 -15.80171,35.29412 -35.29412,35.29412c-19.4924,0 -35.29412,-15.80171 -35.29412,-35.29412z" fill-opacity="0.3" fill="#bbfff4" stroke-opacity="0.6" stroke="#bbfff4" stroke-width="1.76471" stroke-linecap="butt"/><path d="M204.70588,222.35294c0,-19.4924 15.80171,-35.29412 35.29412,-35.29412c19.4924,0 35.29412,15.80171 35.29412,35.29412c0,19.4924 -15.80171,35.29412 -35.29412,35.29412c-19.4924,0 -35.29412,-15.80171 -35.29412,-35.29412z" fill-opacity="0.3" fill="#bbfff4" stroke-opacity="0.6" stroke="#bbfff4" stroke-width="1.76471" stroke-linecap="butt"/><path d="M261.17647,180c0,-27.28936 22.1224,-49.41176 49.41176,-49.41176c27.28936,0 49.41176,22.1224 49.41176,49.41176c0,27.28936 -22.1224,49.41176 -49.41176,49.41176c-27.28936,0 -49.41176,-22.1224 -49.41176,-49.41176z" fill-opacity="0.3" fill="#ff7dfb" stroke-opacity="0.6" stroke="#ff7dfb" stroke-width="2.47059" stroke-linecap="butt"/><path d="M120,208.23529c0,-3.89848 3.16034,-7.05882 7.05882,-7.05882c3.89848,0 7.05882,3.16034 7.05882,7.05882c0,3.89848 -3.16034,7.05882 -7.05882,7.05882c-3.89848,0 -7.05882,-3.16034 -7.05882,-7.05882z" fill-opacity="0.35" fill="#00ff44" stroke="none" stroke-width="1" stroke-linecap="butt"/><path d="M120,151.76471c0,-3.89848 3.16034,-7.05882 7.05882,-7.05882c3.89848,0 7.05882,3.16034 7.05882,7.05882c0,3.89848 -3.16034,7.05882 -7.05882,7.05882c-3.89848,0 -7.05882,-3.16034 -7.05882,-7.05882z" fill-opacity="0.35" fill="#ff0404" stroke="none" stroke-width="1" stroke-linecap="butt"/></g></g></svg>