<svg width="480px" height="360px" xmlns="http://www.w3.org/2000/svg"><path fill="#F00" d="M252.315 164.575L252.315 166.742Q251.422 166.265 250.479 166.002Q249.536 165.738 248.422 165.738L248.422 165.738Q247.149 165.738 246.158 166.191Q245.166 166.644 244.487 167.471Q243.807 168.297 243.446 169.460Q243.085 170.623 243.085 172.031L243.085 172.031Q243.085 173.500 243.379 174.663Q243.673 175.826 244.297 176.634Q244.921 177.441 245.894 177.870Q246.868 178.298 248.226 178.298L248.226 178.298Q248.459 178.298 248.728 178.274Q248.998 178.249 249.267 178.207Q249.536 178.164 249.787 178.103Q250.038 178.041 250.234 177.968L250.234 177.968L250.234 172.875L246.966 172.875L246.966 171.076L252.389 171.076L252.389 179.253Q251.887 179.486 251.330 179.669Q250.773 179.853 250.191 179.976Q249.610 180.098 249.034 180.159Q248.459 180.220 247.920 180.220L247.920 180.220Q246.280 180.220 244.964 179.706Q243.648 179.192 242.724 178.182Q241.800 177.172 241.304 175.666Q240.808 174.161 240.808 172.178L240.808 172.178Q240.808 170.207 241.359 168.646Q241.910 167.085 242.907 166.002Q243.905 164.918 245.307 164.349Q246.708 163.780 248.398 163.780L248.398 163.780Q249.475 163.780 250.448 163.969Q251.422 164.159 252.315 164.575L252.315 164.575Z"/></svg>