<svg version="1.1" xmlns="http://www.w3.org/2000/svg" xmlns:xlink="http://www.w3.org/1999/xlink" width="78.18779" height="60.26072" viewBox="0,0,78.18779,60.26072"><defs><linearGradient x1="270.89485" y1="121.10215" x2="270.89485" y2="179.86284" gradientUnits="userSpaceOnUse" id="color-1"><stop offset="0" stop-color="#455f06"/><stop offset="1" stop-color="#233103"/></linearGradient><radialGradient cx="271.86526" cy="163.28474" r="27.10997" gradientUnits="userSpaceOnUse" id="color-2"><stop offset="0" stop-color="#90c4b8"/><stop offset="1" stop-color="#90c4b8" stop-opacity="0"/></radialGradient><radialGradient cx="271.86526" cy="163.28474" r="27.10997" gradientUnits="userSpaceOnUse" id="color-3"><stop offset="0" stop-color="#c0fff6" stop-opacity="0"/><stop offset="1" stop-color="#c0fff6" stop-opacity="0"/></radialGradient><radialGradient cx="273.27191" cy="165.2029" r="8.18414" gradientUnits="userSpaceOnUse" id="color-4"><stop offset="0" stop-color="#698280"/><stop offset="1" stop-color="#698280" stop-opacity="0"/></radialGradient><linearGradient x1="270.892" y1="167.57146" x2="270.892" y2="180.14298" gradientUnits="userSpaceOnUse" id="color-5"><stop offset="0" stop-color="#6b8d06"/><stop offset="1" stop-color="#324203"/></linearGradient><linearGradient x1="280.09281" y1="129.59523" x2="280.09281" y2="160.69813" gradientUnits="userSpaceOnUse" id="color-6"><stop offset="0" stop-color="#8affd2"/><stop offset="1" stop-color="#8affd2" stop-opacity="0"/></linearGradient><linearGradient x1="264.32894" y1="133.71399" x2="264.32894" y2="160.85582" gradientUnits="userSpaceOnUse" id="color-7"><stop offset="0" stop-color="#8affd2"/><stop offset="1" stop-color="#8affd2" stop-opacity="0"/></linearGradient><linearGradient x1="269.55469" y1="129.4966" x2="269.55469" y2="135.22864" gradientUnits="userSpaceOnUse" id="color-8"><stop offset="0" stop-color="#8affd2"/><stop offset="1" stop-color="#8affd2" stop-opacity="0"/></linearGradient><radialGradient cx="263.4893" cy="150.75277" r="6.96931" gradientUnits="userSpaceOnUse" id="color-9"><stop offset="0" stop-color="#00ff9c"/><stop offset="1" stop-color="#00ff9c" stop-opacity="0"/></radialGradient><radialGradient cx="286.25145" cy="144.42285" r="6.32993" gradientUnits="userSpaceOnUse" id="color-10"><stop offset="0" stop-color="#00ff9c"/><stop offset="1" stop-color="#00ff9c" stop-opacity="0"/></radialGradient><radialGradient cx="267.58137" cy="128.4382" r="4.28388" gradientUnits="userSpaceOnUse" id="color-11"><stop offset="0" stop-color="#00ff9c"/><stop offset="1" stop-color="#00ff9c" stop-opacity="0"/></radialGradient><radialGradient cx="250.19007" cy="136.30265" r="5.81842" gradientUnits="userSpaceOnUse" id="color-12"><stop offset="0" stop-color="#00ff9c"/><stop offset="1" stop-color="#00ff9c" stop-opacity="0"/></radialGradient><radialGradient cx="290.79109" cy="128.69395" r="4.85933" gradientUnits="userSpaceOnUse" id="color-13"><stop offset="0" stop-color="#00ff9c"/><stop offset="1" stop-color="#00ff9c" stop-opacity="0"/></radialGradient><radialGradient cx="272.4407" cy="148.19523" r="10.86957" gradientUnits="userSpaceOnUse" id="color-14"><stop offset="0" stop-color="#98fff0"/><stop offset="1" stop-color="#98fff0" stop-opacity="0"/></radialGradient><radialGradient cx="262.21053" cy="140.90623" r="4.34783" gradientUnits="userSpaceOnUse" id="color-15"><stop offset="0" stop-color="#98fff0"/><stop offset="1" stop-color="#98fff0" stop-opacity="0"/></radialGradient><radialGradient cx="284.26935" cy="137.00597" r="5.75448" gradientUnits="userSpaceOnUse" id="color-16"><stop offset="0" stop-color="#98fff0"/><stop offset="1" stop-color="#98fff0" stop-opacity="0"/></radialGradient><radialGradient cx="262.53022" cy="133.7451" r="4.60359" gradientUnits="userSpaceOnUse" id="color-17"><stop offset="0" stop-color="#98fff0"/><stop offset="1" stop-color="#98fff0" stop-opacity="0"/></radialGradient><radialGradient cx="276.53278" cy="132.14664" r="3.38874" gradientUnits="userSpaceOnUse" id="color-18"><stop offset="0" stop-color="#98fff0"/><stop offset="1" stop-color="#98fff0" stop-opacity="0"/></radialGradient><radialGradient cx="259.26935" cy="143.97528" r="3.45269" gradientUnits="userSpaceOnUse" id="color-19"><stop offset="0" stop-color="#98fff0"/><stop offset="1" stop-color="#98fff0" stop-opacity="0"/></radialGradient><radialGradient cx="274.10311" cy="162.32566" r="4.15601" gradientUnits="userSpaceOnUse" id="color-20"><stop offset="0" stop-color="#98fff0"/><stop offset="1" stop-color="#98fff0" stop-opacity="0"/></radialGradient><radialGradient cx="281.83968" cy="152.09548" r="7.73658" gradientUnits="userSpaceOnUse" id="color-21"><stop offset="0" stop-color="#98fff0"/><stop offset="1" stop-color="#98fff0" stop-opacity="0"/></radialGradient><radialGradient cx="317.90106" cy="138.2208" r="0.0025" gradientUnits="userSpaceOnUse" id="color-22"><stop offset="0" stop-color="#698280"/><stop offset="1" stop-color="#698280" stop-opacity="0"/></radialGradient></defs><g transform="translate(-239.71327,-120.35211)"><g data-paper-data="{&quot;isPaintingLayer&quot;:true}" stroke-linejoin="miter" stroke-miterlimit="10" stroke-dasharray="" stroke-dashoffset="0" style="mix-blend-mode: normal"><path d="M240.46327,179.86284v-58.76072h60.86325v58.76072z" fill="url(#color-1)" fill-rule="nonzero" stroke="#9cbf3d" stroke-width="1.5" stroke-linecap="butt"/><path d="M286.82689,166.99318c0,1.83624 0.01079,0.76726 -14.96164,0.76726c-14.97243,0 -13.81074,1.06898 -13.81074,-0.76726c0,-0.02618 -0.94824,-5.24297 13.81074,-5.24297c14.97243,0 14.96164,3.40673 14.96164,5.24297z" fill="url(#color-2)" fill-rule="nonzero" stroke="url(#color-3)" stroke-width="0" stroke-linecap="butt"/><path d="M281.45605,165.2029c0,0.91812 -3.66417,1.6624 -8.18414,1.6624c-4.51998,0 -8.18414,-0.74428 -8.18414,-1.6624c0,-0.91812 3.66417,-1.6624 8.18414,-1.6624c4.51998,0 8.18414,0.74428 8.18414,1.6624z" fill="url(#color-4)" fill-rule="nonzero" stroke="none" stroke-width="0" stroke-linecap="butt"/><path d="M239.96343,180.14298v-12.57143h61.85715v12.57143z" fill="url(#color-5)" fill-rule="nonzero" stroke="none" stroke-width="0" stroke-linecap="butt"/><path d="M275.56638,135.25138l10.17345,-5.65615c0,0 -0.3691,4.55071 -2.35199,8.81049c-0.38812,0.83377 -3.17464,1.16448 -3.47314,1.98651c-0.65652,1.80802 0.80449,5.23901 -0.01986,8.30733c-1.60474,5.97301 -5.44903,11.99856 -5.44903,11.99856c0,0 1.77298,-11.47859 1.97659,-16.10241c0.15848,-3.5989 -0.85602,-9.34435 -0.85602,-9.34435z" fill="url(#color-6)" fill-rule="evenodd" stroke="none" stroke-width="0" stroke-linecap="butt"/><path d="M253.04184,133.71399c0,0 11.08149,2.99534 15.22351,3.26712c3.02794,0.19868 7.35068,-1.78591 7.35068,-1.78591c0,0 1.20947,4.60113 1.07346,7.59858c-0.21482,4.7343 -2.23783,18.06204 -2.23783,18.06204c0,0 -3.98911,-5.49993 -5.91781,-10.33041c-0.61975,-1.55219 1.49606,-3.83796 0.73486,-4.80295c-0.3952,-0.50101 -3.82113,-0.13039 -4.3729,-0.66831c-4.82984,-4.70865 -11.85396,-11.34016 -11.85396,-11.34016z" fill="url(#color-7)" fill-rule="evenodd" stroke="none" stroke-width="0" stroke-linecap="butt"/><path d="M253.32653,133.73503c0,0 6.95011,-1.28331 11.62482,-1.47581c2.48269,-0.10224 2.67104,1.02129 4.47628,0.78555c1.47934,-0.19318 2.81036,-1.55582 4.72006,-1.95081c5.30291,-1.09679 11.63518,-1.59737 11.63518,-1.59737l-10.0216,5.73204c0,0 -5.2354,1.74857 -8.12253,1.55635c-4.1339,-0.27522 -14.31221,-3.04996 -14.31221,-3.04996z" fill="url(#color-8)" fill-rule="evenodd" stroke="none" stroke-width="0" stroke-linecap="butt"/><path d="M270.4586,145.12617l-13.93862,11.2532" fill="none" fill-rule="nonzero" stroke="url(#color-9)" stroke-width="2.5" stroke-linecap="round"/><path d="M279.92152,140.65047l12.65985,7.54475" fill="none" fill-rule="nonzero" stroke="url(#color-10)" stroke-width="2.5" stroke-linecap="round"/><path d="M269.17984,132.72208l-3.19693,-8.56778" fill="none" fill-rule="nonzero" stroke="url(#color-11)" stroke-width="2.5" stroke-linecap="round"/><path d="M256.00848,136.94203l-11.63683,-1.27877" fill="none" fill-rule="nonzero" stroke="url(#color-12)" stroke-width="2.5" stroke-linecap="round"/><path d="M285.93175,130.9318l9.71867,-4.47571" fill="none" fill-rule="nonzero" stroke="url(#color-13)" stroke-width="2.5" stroke-linecap="round"/><path d="M271.99314,137.32566c0,0 1.56698,6.06764 1.67517,8.69513c0.16528,4.01378 -2.0588,15.21792 -2.0588,15.21792" fill="none" fill-rule="nonzero" stroke="url(#color-14)" stroke-width="1.5" stroke-linecap="round"/><path d="M263.16961,136.5584c0,0 0.10569,4.60186 -0.2374,6.1572c-0.28575,1.2954 -1.68076,2.53845 -1.68076,2.53845" fill="none" fill-rule="nonzero" stroke="url(#color-15)" stroke-width="1.5" stroke-linecap="round"/><path d="M278.51487,134.12873c0,0 2.06961,3.72023 3.93862,4.65473c1.96272,0.98137 4.50128,2.12277 4.50128,2.12277" fill="none" fill-rule="nonzero" stroke="url(#color-16)" stroke-width="1.5" stroke-linecap="round"/><path d="M267.1338,134.64024l-9.20717,-1.79028" fill="none" fill-rule="nonzero" stroke="url(#color-17)" stroke-width="1.5" stroke-linecap="round"/><path d="M273.14403,134.38449l6.77749,-4.47571" fill="none" fill-rule="nonzero" stroke="url(#color-18)" stroke-width="1.5" stroke-linecap="round"/><path d="M260.22843,140.52259l-1.91816,6.90537" fill="none" fill-rule="nonzero" stroke="url(#color-19)" stroke-width="1" stroke-linecap="round"/><path d="M274.03917,158.16965l0.12787,8.31202" fill="none" fill-rule="nonzero" stroke="url(#color-20)" stroke-width="2.5" stroke-linecap="round"/><path d="M277.87549,144.35891c0,0 -0.78226,5.23639 0.4249,7.5923c1.40539,2.74276 4.56231,6.47419 4.56231,6.47419" fill="none" fill-rule="nonzero" stroke="url(#color-21)" stroke-width="2.5" stroke-linecap="round"/><ellipse cx="635.80212" cy="276.4416" transform="scale(0.5,0.5)" rx="0" ry="0" fill="url(#color-22)" fill-rule="nonzero" stroke="none" stroke-width="0" stroke-linecap="butt"/></g></g></svg>