<svg version="1.1" xmlns="http://www.w3.org/2000/svg" xmlns:xlink="http://www.w3.org/1999/xlink" width="55.125" height="55.125" viewBox="0,0,55.125,55.125"><defs><linearGradient x1="240" y1="153.1875" x2="240" y2="206.8125" gradientUnits="userSpaceOnUse" id="color-1"><stop offset="0" stop-color="#480351"/><stop offset="1" stop-color="#000000" stop-opacity="0.60925"/></linearGradient><linearGradient x1="240" y1="153.1875" x2="240" y2="206.8125" gradientUnits="userSpaceOnUse" id="color-2"><stop offset="0" stop-color="#ce09e8"/><stop offset="1" stop-color="#ce09e8" stop-opacity="0"/></linearGradient><radialGradient cx="222.27134" cy="161.30789" r="5.86651" gradientUnits="userSpaceOnUse" id="color-3"><stop offset="0" stop-color="#ff0000" stop-opacity="0.50806"/><stop offset="1" stop-color="#ff0000"/></radialGradient><radialGradient cx="229.16023" cy="166.64123" r="5.86652" gradientUnits="userSpaceOnUse" id="color-4"><stop offset="0" stop-color="#ff0000" stop-opacity="0.50806"/><stop offset="1" stop-color="#ff0000"/></radialGradient><radialGradient cx="236.04912" cy="161.3079" r="5.86651" gradientUnits="userSpaceOnUse" id="color-5"><stop offset="0" stop-color="#ff0000" stop-opacity="0.50806"/><stop offset="1" stop-color="#ff0000"/></radialGradient><radialGradient cx="242.93801" cy="166.64123" r="5.86651" gradientUnits="userSpaceOnUse" id="color-6"><stop offset="0" stop-color="#ff0000" stop-opacity="0.50806"/><stop offset="1" stop-color="#ff0000"/></radialGradient><radialGradient cx="249.93801" cy="161.64123" r="5.86651" gradientUnits="userSpaceOnUse" id="color-7"><stop offset="0" stop-color="#ff0000" stop-opacity="0.50806"/><stop offset="1" stop-color="#ff0000"/></radialGradient><radialGradient cx="256.8269" cy="166.97456" r="5.86651" gradientUnits="userSpaceOnUse" id="color-8"><stop offset="0" stop-color="#ff0000" stop-opacity="0.50806"/><stop offset="1" stop-color="#ff0000"/></radialGradient><radialGradient cx="222.60467" cy="176.64123" r="5.86651" gradientUnits="userSpaceOnUse" id="color-9"><stop offset="0" stop-color="#ff0000" stop-opacity="0.50806"/><stop offset="1" stop-color="#ff0000"/></radialGradient><radialGradient cx="229.49356" cy="181.97456" r="5.86651" gradientUnits="userSpaceOnUse" id="color-10"><stop offset="0" stop-color="#ff0000" stop-opacity="0.50806"/><stop offset="1" stop-color="#ff0000"/></radialGradient><radialGradient cx="236.38245" cy="176.64123" r="5.86652" gradientUnits="userSpaceOnUse" id="color-11"><stop offset="0" stop-color="#ff0000" stop-opacity="0.50806"/><stop offset="1" stop-color="#ff0000"/></radialGradient><radialGradient cx="243.27134" cy="181.97456" r="5.86651" gradientUnits="userSpaceOnUse" id="color-12"><stop offset="0" stop-color="#ff0000" stop-opacity="0.50806"/><stop offset="1" stop-color="#ff0000"/></radialGradient><radialGradient cx="250.27134" cy="176.97456" r="5.86652" gradientUnits="userSpaceOnUse" id="color-13"><stop offset="0" stop-color="#ff0000" stop-opacity="0.50806"/><stop offset="1" stop-color="#ff0000"/></radialGradient><radialGradient cx="257.16023" cy="182.30789" r="5.86651" gradientUnits="userSpaceOnUse" id="color-14"><stop offset="0" stop-color="#ff0000" stop-opacity="0.50806"/><stop offset="1" stop-color="#ff0000"/></radialGradient><radialGradient cx="223.16023" cy="191.86345" r="5.86651" gradientUnits="userSpaceOnUse" id="color-15"><stop offset="0" stop-color="#ff0000" stop-opacity="0.50806"/><stop offset="1" stop-color="#ff0000"/></radialGradient><radialGradient cx="230.04912" cy="197.19678" r="5.86651" gradientUnits="userSpaceOnUse" id="color-16"><stop offset="0" stop-color="#ff0000" stop-opacity="0.50806"/><stop offset="1" stop-color="#ff0000"/></radialGradient><radialGradient cx="236.938" cy="191.86345" r="5.86652" gradientUnits="userSpaceOnUse" id="color-17"><stop offset="0" stop-color="#ff0000" stop-opacity="0.50806"/><stop offset="1" stop-color="#ff0000"/></radialGradient><radialGradient cx="243.82689" cy="197.19678" r="5.86651" gradientUnits="userSpaceOnUse" id="color-18"><stop offset="0" stop-color="#ff0000" stop-opacity="0.50806"/><stop offset="1" stop-color="#ff0000"/></radialGradient><radialGradient cx="250.82689" cy="192.19679" r="5.86651" gradientUnits="userSpaceOnUse" id="color-19"><stop offset="0" stop-color="#ff0000" stop-opacity="0.50806"/><stop offset="1" stop-color="#ff0000"/></radialGradient><radialGradient cx="257.71578" cy="197.53012" r="5.86651" gradientUnits="userSpaceOnUse" id="color-20"><stop offset="0" stop-color="#ff0000" stop-opacity="0.50806"/><stop offset="1" stop-color="#ff0000"/></radialGradient></defs><g transform="translate(-212.4375,-152.4375)"><g data-paper-data="{&quot;isPaintingLayer&quot;:true}" fill-rule="nonzero" stroke-linecap="butt" stroke-linejoin="miter" stroke-miterlimit="10" stroke-dasharray="" stroke-dashoffset="0" style="mix-blend-mode: normal"><path d="M213.1875,206.8125v-53.625h53.625v53.625z" fill="url(#color-1)" stroke="url(#color-2)" stroke-width="1.5"/><path d="M228.13781,159.2223c0,0.40226 -0.06996,0.80669 -0.20987,1.21331c-0.13554,0.40225 -0.32135,0.79794 -0.55745,1.18708c-0.23174,0.38914 -0.50063,0.76734 -0.80669,1.13461c-0.30606,0.36727 -0.62524,0.71705 -0.95754,1.04934c-0.33229,0.32792 -0.66895,0.63179 -1.00998,0.91162c-0.33667,0.27982 -0.65584,0.52904 -0.95752,0.74766c-0.30169,0.21423 -0.57276,0.3935 -0.81325,0.53778c-0.24048,0.14428 -0.42848,0.24265 -0.56403,0.29512c-0.12242,-0.05246 -0.2995,-0.15082 -0.53122,-0.29512c-0.23174,-0.14428 -0.49626,-0.32573 -0.79357,-0.54434c-0.29731,-0.21861 -0.61648,-0.46783 -0.95752,-0.74766c-0.34103,-0.2842 -0.67988,-0.59026 -1.01655,-0.91818c-0.33229,-0.33229 -0.65365,-0.68208 -0.96408,-1.04934c-0.30606,-0.37165 -0.57714,-0.75203 -0.81325,-1.14117c-0.2361,-0.3935 -0.4263,-0.79356 -0.57058,-1.20018c-0.13991,-0.40662 -0.20988,-0.81106 -0.20988,-1.2133c0,-0.18363 0.02187,-0.38257 0.06561,-0.59682c0.04805,-0.21423 0.11801,-0.42847 0.20986,-0.64271c0.09619,-0.21425 0.21425,-0.41975 0.35416,-0.61649c0.14428,-0.19674 0.31044,-0.36945 0.49844,-0.51811c0.18801,-0.15304 0.39787,-0.27327 0.62961,-0.36071c0.2361,-0.09181 0.49625,-0.13772 0.78045,-0.13772c0.25797,0 0.52467,0.03934 0.80012,0.11803c0.27982,0.07437 0.56182,0.19242 0.84603,0.35416c0.2842,0.1574 0.56621,0.35633 0.84602,0.59681c0.2842,0.24048 0.55966,0.52467 0.82636,0.85258c0.23611,-0.30169 0.49408,-0.56621 0.7739,-0.79356c0.27982,-0.23174 0.56621,-0.42411 0.85915,-0.57714c0.29732,-0.15741 0.59464,-0.27546 0.89194,-0.35415c0.29732,-0.08309 0.58589,-0.12462 0.86571,-0.12462c0.28856,0 0.55089,0.04591 0.787,0.13772c0.23611,0.08745 0.44598,0.20767 0.62962,0.36071c0.18363,0.14866 0.34322,0.32137 0.47876,0.51812c0.13554,0.19238 0.24703,0.3935 0.33448,0.60337c0.08745,0.20987 0.15084,0.41975 0.19019,0.62962c0.04374,0.20986 0.06561,0.40443 0.06561,0.58369z" fill="url(#color-3)" stroke="none" stroke-width="0.26459"/><path d="M223.29376,168.72682c0,-0.40226 0.06996,-0.80669 0.20987,-1.21331c0.13553,-0.40225 0.32134,-0.79794 0.55745,-1.18708c0.23174,-0.38914 0.50063,-0.76734 0.80669,-1.13461c0.30607,-0.36727 0.62525,-0.71705 0.95754,-1.04934c0.33229,-0.32792 0.66895,-0.63179 1.00998,-0.91162c0.33667,-0.27982 0.65584,-0.52904 0.95752,-0.74766c0.30169,-0.21423 0.57277,-0.39351 0.81325,-0.53779c0.24047,-0.14428 0.42849,-0.24265 0.56403,-0.29512c0.12242,0.05246 0.29949,0.15082 0.53121,0.29512c0.23174,0.14428 0.49626,0.32573 0.79358,0.54435c0.29731,0.21861 0.61648,0.46783 0.95752,0.74766c0.34103,0.2842 0.67988,0.59027 1.01655,0.91818c0.33229,0.33229 0.65364,0.68208 0.96408,1.04934c0.30606,0.37165 0.57714,0.75204 0.81325,1.14117c0.23611,0.3935 0.4263,0.79355 0.57058,1.20017c0.13991,0.40662 0.20987,0.81106 0.20987,1.2133c0,0.18364 -0.02187,0.38258 -0.06561,0.59682c-0.04805,0.21423 -0.11801,0.42848 -0.20986,0.64272c-0.0962,0.21425 -0.21425,0.41975 -0.35416,0.61648c-0.14428,0.19674 -0.31044,0.36945 -0.49845,0.51811c-0.18801,0.15303 -0.39787,0.27327 -0.62961,0.36071c-0.23611,0.09181 -0.49624,0.13772 -0.78044,0.13772c-0.25796,0 -0.52467,-0.03934 -0.80013,-0.11803c-0.27982,-0.07437 -0.56182,-0.19242 -0.84603,-0.35416c-0.2842,-0.1574 -0.5662,-0.35633 -0.84602,-0.59681c-0.2842,-0.24048 -0.55966,-0.52467 -0.82636,-0.85258c-0.23611,0.30169 -0.49408,0.5662 -0.7739,0.79355c-0.27982,0.23174 -0.56621,0.42411 -0.85915,0.57714c-0.29732,0.15741 -0.59463,0.27546 -0.89195,0.35415c-0.29732,0.08309 -0.58588,0.12463 -0.8657,0.12463c-0.28857,0 -0.5509,-0.04591 -0.787,-0.13772c-0.23611,-0.08745 -0.44598,-0.20768 -0.62962,-0.36071c-0.18364,-0.14867 -0.34322,-0.32137 -0.47875,-0.51811c-0.13554,-0.19238 -0.24704,-0.3935 -0.33448,-0.60337c-0.08745,-0.20987 -0.15084,-0.41975 -0.19019,-0.62962c-0.04374,-0.20986 -0.06561,-0.40443 -0.06561,-0.58369z" fill="url(#color-4)" stroke="none" stroke-width="0.26459"/><path d="M241.91559,159.2223c0,0.40225 -0.06996,0.80669 -0.20987,1.21331c-0.13554,0.40225 -0.32135,0.79794 -0.55746,1.18708c-0.23174,0.38914 -0.50063,0.76734 -0.80669,1.1346c-0.30606,0.36727 -0.62525,0.71705 -0.95754,1.04934c-0.33229,0.32791 -0.66894,0.63179 -1.00998,0.91162c-0.33667,0.27982 -0.65584,0.52903 -0.95753,0.74766c-0.30169,0.21423 -0.57276,0.3935 -0.81324,0.53778c-0.24048,0.14428 -0.42848,0.24266 -0.56403,0.29513c-0.12242,-0.05246 -0.2995,-0.15083 -0.53122,-0.29513c-0.23174,-0.14428 -0.49626,-0.32573 -0.79357,-0.54434c-0.29731,-0.21861 -0.61649,-0.46783 -0.95753,-0.74766c-0.34104,-0.2842 -0.67988,-0.59027 -1.01655,-0.91818c-0.33229,-0.33229 -0.65364,-0.68207 -0.96408,-1.04934c-0.30606,-0.37165 -0.57714,-0.75204 -0.81325,-1.14117c-0.23611,-0.39351 -0.42629,-0.79355 -0.57057,-1.20018c-0.13991,-0.40662 -0.20988,-0.81106 -0.20988,-1.2133c0,-0.18364 0.02187,-0.38257 0.06562,-0.59682c0.04806,-0.21423 0.11801,-0.42848 0.20986,-0.64272c0.09619,-0.21425 0.21425,-0.41975 0.35416,-0.61649c0.14428,-0.19674 0.31043,-0.36944 0.49844,-0.51811c0.18801,-0.15303 0.39786,-0.27327 0.6296,-0.36071c0.23611,-0.09181 0.49625,-0.13772 0.78045,-0.13772c0.25797,0 0.52466,0.03934 0.80012,0.11803c0.27982,0.07437 0.56182,0.19242 0.84604,0.35415c0.2842,0.1574 0.5662,0.35633 0.84602,0.59682c0.2842,0.24048 0.55966,0.52467 0.82636,0.85258c0.23611,-0.30169 0.49408,-0.5662 0.7739,-0.79355c0.27982,-0.23174 0.5662,-0.42411 0.85915,-0.57714c0.29732,-0.15741 0.59463,-0.27545 0.89194,-0.35415c0.29732,-0.08309 0.58589,-0.12463 0.86571,-0.12463c0.28857,0 0.55089,0.04591 0.787,0.13773c0.23611,0.08745 0.44598,0.20767 0.62962,0.36071c0.18364,0.14866 0.34322,0.32136 0.47876,0.51811c0.13554,0.19238 0.24703,0.39351 0.33448,0.60337c0.08745,0.20987 0.15085,0.41975 0.1902,0.62962c0.04374,0.20986 0.06561,0.40443 0.06561,0.58369z" fill="url(#color-5)" stroke="none" stroke-width="0.26459"/><path d="M237.07154,168.72682c0,-0.40225 0.06996,-0.80669 0.20987,-1.21331c0.13554,-0.40225 0.32134,-0.79794 0.55745,-1.18708c0.23174,-0.38914 0.50063,-0.76734 0.80669,-1.13461c0.30606,-0.36727 0.62525,-0.71705 0.95754,-1.04934c0.33229,-0.32791 0.66895,-0.63179 1.00999,-0.91162c0.33667,-0.27982 0.65584,-0.52904 0.95752,-0.74767c0.30169,-0.21423 0.57276,-0.3935 0.81325,-0.53778c0.24048,-0.14428 0.42848,-0.24265 0.56403,-0.29512c0.12242,0.05246 0.2995,0.15082 0.53122,0.29512c0.23174,0.14428 0.49626,0.32573 0.79358,0.54434c0.29731,0.21861 0.61648,0.46783 0.95752,0.74766c0.34104,0.2842 0.67988,0.59027 1.01655,0.91818c0.33229,0.33229 0.65364,0.68207 0.96408,1.04934c0.30606,0.37165 0.57714,0.75204 0.81325,1.14117c0.23611,0.39351 0.4263,0.79355 0.57058,1.20018c0.13991,0.40662 0.20988,0.81106 0.20988,1.2133c0,0.18364 -0.02187,0.38258 -0.06561,0.59682c-0.04806,0.21423 -0.11801,0.42848 -0.20986,0.64272c-0.09619,0.21425 -0.21425,0.41974 -0.35416,0.61648c-0.14428,0.19674 -0.31044,0.36945 -0.49845,0.51811c-0.18801,0.15303 -0.39786,0.27327 -0.6296,0.36071c-0.23611,0.09181 -0.49625,0.13772 -0.78045,0.13772c-0.25797,0 -0.52467,-0.03934 -0.80013,-0.11803c-0.27982,-0.07437 -0.56182,-0.19243 -0.84604,-0.35416c-0.2842,-0.1574 -0.5662,-0.35633 -0.84602,-0.59681c-0.2842,-0.24048 -0.55965,-0.52466 -0.82635,-0.85258c-0.23611,0.30169 -0.49408,0.5662 -0.7739,0.79355c-0.27982,0.23174 -0.56621,0.42411 -0.85916,0.57713c-0.29732,0.15741 -0.59463,0.27545 -0.89194,0.35415c-0.29732,0.08309 -0.58588,0.12463 -0.8657,0.12463c-0.28857,0 -0.55089,-0.04591 -0.787,-0.13773c-0.23611,-0.08745 -0.44598,-0.20767 -0.62962,-0.36071c-0.18364,-0.14866 -0.34322,-0.32137 -0.47876,-0.51812c-0.13554,-0.19238 -0.24704,-0.3935 -0.33449,-0.60337c-0.08745,-0.20987 -0.15084,-0.41975 -0.19019,-0.62962c-0.04374,-0.20986 -0.06561,-0.40443 -0.06561,-0.58369z" fill="url(#color-6)" stroke="none" stroke-width="0.26459"/><path d="M255.80448,159.55563c0,0.40225 -0.06996,0.80669 -0.20987,1.21331c-0.13554,0.40225 -0.32135,0.79794 -0.55746,1.18708c-0.23174,0.38914 -0.50063,0.76734 -0.80669,1.1346c-0.30606,0.36727 -0.62525,0.71705 -0.95754,1.04934c-0.33229,0.32791 -0.66894,0.63179 -1.00998,0.91162c-0.33667,0.27982 -0.65584,0.52903 -0.95753,0.74766c-0.30169,0.21423 -0.57276,0.3935 -0.81324,0.53778c-0.24048,0.14428 -0.42848,0.24266 -0.56403,0.29513c-0.12242,-0.05246 -0.2995,-0.15083 -0.53122,-0.29513c-0.23174,-0.14428 -0.49626,-0.32573 -0.79357,-0.54434c-0.29731,-0.21861 -0.61649,-0.46783 -0.95753,-0.74766c-0.34104,-0.2842 -0.67988,-0.59027 -1.01655,-0.91818c-0.33229,-0.33229 -0.65364,-0.68207 -0.96408,-1.04934c-0.30606,-0.37165 -0.57714,-0.75204 -0.81325,-1.14117c-0.23611,-0.39351 -0.42629,-0.79355 -0.57057,-1.20018c-0.13991,-0.40662 -0.20988,-0.81106 -0.20988,-1.2133c0,-0.18364 0.02187,-0.38257 0.06562,-0.59682c0.04806,-0.21423 0.11801,-0.42848 0.20986,-0.64272c0.09619,-0.21425 0.21425,-0.41975 0.35416,-0.61649c0.14428,-0.19674 0.31043,-0.36944 0.49844,-0.51811c0.18801,-0.15303 0.39786,-0.27327 0.6296,-0.36071c0.23611,-0.09181 0.49625,-0.13772 0.78045,-0.13772c0.25797,0 0.52466,0.03934 0.80012,0.11803c0.27982,0.07437 0.56182,0.19242 0.84604,0.35415c0.2842,0.1574 0.5662,0.35633 0.84602,0.59682c0.2842,0.24048 0.55966,0.52467 0.82636,0.85258c0.23611,-0.30169 0.49408,-0.5662 0.7739,-0.79355c0.27982,-0.23174 0.5662,-0.42411 0.85915,-0.57714c0.29732,-0.15741 0.59463,-0.27545 0.89194,-0.35415c0.29732,-0.08309 0.58589,-0.12463 0.86571,-0.12463c0.28857,0 0.55089,0.04591 0.787,0.13773c0.23611,0.08745 0.44598,0.20767 0.62961,0.36071c0.18364,0.14866 0.34323,0.32136 0.47876,0.51811c0.13554,0.19238 0.24703,0.39351 0.33448,0.60337c0.08745,0.20987 0.15085,0.41975 0.1902,0.62962c0.04374,0.20986 0.06561,0.40443 0.06561,0.58369z" fill="url(#color-7)" stroke="none" stroke-width="0.26459"/><path d="M250.96043,169.06016c0,-0.40225 0.06996,-0.80669 0.20987,-1.21331c0.13554,-0.40225 0.32134,-0.79794 0.55745,-1.18708c0.23174,-0.38914 0.50063,-0.76734 0.80669,-1.13461c0.30606,-0.36727 0.62525,-0.71705 0.95754,-1.04934c0.33229,-0.32791 0.66895,-0.63179 1.00998,-0.91162c0.33667,-0.27982 0.65584,-0.52904 0.95752,-0.74767c0.30169,-0.21423 0.57277,-0.3935 0.81325,-0.53778c0.24048,-0.14428 0.42848,-0.24265 0.56403,-0.29512c0.12242,0.05246 0.2995,0.15082 0.53121,0.29512c0.23174,0.14428 0.49626,0.32573 0.79358,0.54434c0.29731,0.21861 0.61648,0.46783 0.95752,0.74766c0.34104,0.2842 0.67988,0.59027 1.01655,0.91818c0.33229,0.33229 0.65364,0.68207 0.96408,1.04934c0.30606,0.37165 0.57714,0.75204 0.81325,1.14117c0.2361,0.39351 0.4263,0.79355 0.57058,1.20018c0.13991,0.40662 0.20988,0.81106 0.20988,1.2133c0,0.18364 -0.02187,0.38258 -0.06561,0.59682c-0.04805,0.21423 -0.11801,0.42848 -0.20986,0.64272c-0.0962,0.21425 -0.21425,0.41974 -0.35416,0.61648c-0.14428,0.19674 -0.31044,0.36945 -0.49845,0.51811c-0.188,0.15303 -0.39786,0.27327 -0.6296,0.36071c-0.2361,0.09181 -0.49624,0.13772 -0.78044,0.13772c-0.25797,0 -0.52467,-0.03934 -0.80012,-0.11803c-0.27982,-0.07437 -0.56182,-0.19243 -0.84603,-0.35416c-0.2842,-0.1574 -0.56621,-0.35633 -0.84603,-0.59681c-0.2842,-0.24048 -0.55965,-0.52466 -0.82635,-0.85258c-0.23611,0.30169 -0.49408,0.5662 -0.7739,0.79355c-0.27982,0.23174 -0.56621,0.42411 -0.85916,0.57713c-0.29732,0.15741 -0.59463,0.27545 -0.89194,0.35415c-0.29732,0.08309 -0.58588,0.12463 -0.8657,0.12463c-0.28857,0 -0.55089,-0.04591 -0.787,-0.13773c-0.23611,-0.08745 -0.44598,-0.20767 -0.62962,-0.36071c-0.18364,-0.14866 -0.34322,-0.32137 -0.47876,-0.51812c-0.13554,-0.19238 -0.24704,-0.3935 -0.33449,-0.60337c-0.08745,-0.20987 -0.15084,-0.41975 -0.19019,-0.62962c-0.04374,-0.20986 -0.06561,-0.40443 -0.06561,-0.58369z" fill="url(#color-8)" stroke="none" stroke-width="0.26459"/><path d="M228.47114,174.55563c0,0.40225 -0.06996,0.80669 -0.20987,1.21331c-0.13554,0.40225 -0.32135,0.79793 -0.55746,1.18707c-0.23174,0.38914 -0.50063,0.76734 -0.80669,1.1346c-0.30606,0.36727 -0.62525,0.71705 -0.95754,1.04935c-0.33229,0.32791 -0.66894,0.63179 -1.00998,0.91162c-0.33667,0.27982 -0.65584,0.52904 -0.95753,0.74766c-0.30169,0.21423 -0.57277,0.3935 -0.81325,0.53778c-0.24048,0.14428 -0.42848,0.24266 -0.56402,0.29513c-0.12242,-0.05246 -0.2995,-0.15083 -0.53122,-0.29513c-0.23174,-0.14428 -0.49626,-0.32572 -0.79357,-0.54434c-0.29731,-0.21861 -0.61649,-0.46784 -0.95753,-0.74767c-0.34104,-0.2842 -0.67988,-0.59026 -1.01655,-0.91817c-0.33229,-0.33229 -0.65364,-0.68208 -0.96408,-1.04935c-0.30606,-0.37165 -0.57714,-0.75204 -0.81325,-1.14117c-0.23611,-0.39351 -0.4263,-0.79355 -0.57058,-1.20018c-0.13991,-0.40662 -0.20987,-0.81106 -0.20987,-1.2133c0,-0.18364 0.02187,-0.38257 0.06561,-0.59682c0.04806,-0.21423 0.11801,-0.42847 0.20986,-0.64271c0.09619,-0.21425 0.21425,-0.41975 0.35415,-0.61649c0.14428,-0.19674 0.31044,-0.36944 0.49845,-0.51811c0.18801,-0.15303 0.39786,-0.27327 0.6296,-0.36071c0.23611,-0.09181 0.49624,-0.13773 0.78044,-0.13773c0.25797,0 0.52467,0.03934 0.80013,0.11803c0.27982,0.07437 0.56182,0.19243 0.84604,0.35416c0.2842,0.1574 0.5662,0.35632 0.84602,0.59681c0.2842,0.24048 0.55966,0.52467 0.82636,0.85259c0.23611,-0.30169 0.49408,-0.56621 0.7739,-0.79356c0.27982,-0.23174 0.5662,-0.42411 0.85915,-0.57713c0.29732,-0.15741 0.59463,-0.27546 0.89194,-0.35415c0.29732,-0.08309 0.58589,-0.12462 0.86571,-0.12462c0.28857,0 0.55089,0.04591 0.78699,0.13772c0.23611,0.08745 0.44598,0.20767 0.62962,0.36071c0.18364,0.14866 0.34322,0.32137 0.47876,0.51812c0.13554,0.19238 0.24704,0.3935 0.33449,0.60337c0.08745,0.20987 0.15084,0.41975 0.19019,0.62962c0.04374,0.20986 0.06562,0.40442 0.06562,0.58368z" fill="url(#color-9)" stroke="none" stroke-width="0.26459"/><path d="M223.62709,184.06015c0,-0.40225 0.06996,-0.80669 0.20987,-1.21331c0.13554,-0.40225 0.32134,-0.79793 0.55745,-1.18707c0.23174,-0.38914 0.50063,-0.76734 0.80669,-1.13461c0.30606,-0.36727 0.62525,-0.71705 0.95754,-1.04934c0.33229,-0.32791 0.66895,-0.63179 1.00999,-0.91162c0.33667,-0.27982 0.65584,-0.52904 0.95752,-0.74767c0.30169,-0.21423 0.57276,-0.3935 0.81325,-0.53778c0.24048,-0.14428 0.42848,-0.24265 0.56403,-0.29512c0.12242,0.05246 0.2995,0.15082 0.53122,0.29512c0.23174,0.14428 0.49626,0.32573 0.79358,0.54434c0.29731,0.21861 0.61648,0.46783 0.95752,0.74766c0.34104,0.2842 0.67988,0.59027 1.01655,0.91818c0.33229,0.33229 0.65365,0.68207 0.96408,1.04934c0.30606,0.37165 0.57714,0.75204 0.81325,1.14117c0.23611,0.39351 0.4263,0.79355 0.57058,1.20018c0.13991,0.40662 0.20988,0.81106 0.20988,1.2133c0,0.18364 -0.02187,0.38258 -0.06561,0.59682c-0.04806,0.21423 -0.11801,0.42848 -0.20986,0.64272c-0.09619,0.21425 -0.21425,0.41975 -0.35416,0.61649c-0.14428,0.19674 -0.31044,0.36944 -0.49845,0.51811c-0.18801,0.15303 -0.39786,0.27327 -0.6296,0.36071c-0.23611,0.09181 -0.49624,0.13772 -0.78044,0.13772c-0.25797,0 -0.52467,-0.03934 -0.80013,-0.11803c-0.27982,-0.07437 -0.56182,-0.19242 -0.84604,-0.35416c-0.2842,-0.1574 -0.5662,-0.35633 -0.84602,-0.59682c-0.2842,-0.24048 -0.55966,-0.52466 -0.82636,-0.85258c-0.23611,0.30169 -0.49407,0.5662 -0.77389,0.79355c-0.27982,0.23174 -0.56621,0.42411 -0.85916,0.57713c-0.29732,0.15741 -0.59463,0.27545 -0.89194,0.35415c-0.29732,0.08309 -0.58588,0.12463 -0.8657,0.12463c-0.28857,0 -0.55089,-0.04591 -0.787,-0.13773c-0.23611,-0.08745 -0.44598,-0.20767 -0.62962,-0.36071c-0.18364,-0.14866 -0.34322,-0.32136 -0.47876,-0.51811c-0.13554,-0.19238 -0.24704,-0.3935 -0.33449,-0.60337c-0.08745,-0.20987 -0.15084,-0.41975 -0.19019,-0.62962c-0.04374,-0.20986 -0.06561,-0.40443 -0.06561,-0.58369z" fill="url(#color-10)" stroke="none" stroke-width="0.26459"/><path d="M242.24892,174.55563c0,0.40225 -0.06996,0.80669 -0.20987,1.21331c-0.13554,0.40225 -0.32135,0.79794 -0.55746,1.18708c-0.23174,0.38914 -0.50062,0.76734 -0.80669,1.1346c-0.30606,0.36727 -0.62525,0.71705 -0.95754,1.04935c-0.33229,0.32791 -0.66894,0.63179 -1.00998,0.91162c-0.33667,0.27982 -0.65584,0.52903 -0.95753,0.74766c-0.30169,0.21423 -0.57276,0.3935 -0.81324,0.53778c-0.24048,0.14428 -0.42848,0.24266 -0.56403,0.29513c-0.12242,-0.05246 -0.2995,-0.15083 -0.53122,-0.29513c-0.23174,-0.14428 -0.49626,-0.32573 -0.79357,-0.54434c-0.29731,-0.21861 -0.61649,-0.46783 -0.95753,-0.74766c-0.34104,-0.2842 -0.67988,-0.59027 -1.01655,-0.91818c-0.33229,-0.33229 -0.65364,-0.68207 -0.96408,-1.04934c-0.30606,-0.37165 -0.57714,-0.75204 -0.81325,-1.14117c-0.23611,-0.39351 -0.42629,-0.79355 -0.57057,-1.20018c-0.13991,-0.40662 -0.20988,-0.81106 -0.20988,-1.2133c0,-0.18364 0.02187,-0.38257 0.06562,-0.59682c0.04806,-0.21423 0.11801,-0.42847 0.20986,-0.64271c0.09619,-0.21425 0.21425,-0.41975 0.35416,-0.61649c0.14428,-0.19674 0.31043,-0.36945 0.49844,-0.51811c0.18801,-0.15303 0.39786,-0.27327 0.6296,-0.36071c0.23611,-0.09181 0.49625,-0.13772 0.78045,-0.13772c0.25797,0 0.52466,0.03934 0.80012,0.11803c0.27982,0.07437 0.56182,0.19242 0.84604,0.35415c0.2842,0.1574 0.5662,0.35633 0.84602,0.59682c0.2842,0.24048 0.55966,0.52467 0.82636,0.85259c0.23611,-0.30169 0.49408,-0.56621 0.7739,-0.79356c0.27982,-0.23174 0.5662,-0.42411 0.85915,-0.57714c0.29732,-0.15741 0.59464,-0.27545 0.89195,-0.35415c0.29732,-0.08309 0.58589,-0.12463 0.86571,-0.12463c0.28857,0 0.55089,0.04591 0.787,0.13773c0.23611,0.08745 0.44598,0.20767 0.62962,0.36071c0.18364,0.14866 0.34322,0.32137 0.47876,0.51812c0.13554,0.19238 0.24703,0.39351 0.33448,0.60337c0.08745,0.20987 0.15085,0.41975 0.1902,0.62962c0.04374,0.20986 0.06562,0.40442 0.06562,0.58368z" fill="url(#color-11)" stroke="none" stroke-width="0.26459"/><path d="M237.40487,184.06015c0,-0.40225 0.06996,-0.80669 0.20987,-1.21331c0.13554,-0.40225 0.32134,-0.79793 0.55745,-1.18707c0.23174,-0.38914 0.50063,-0.76734 0.80669,-1.13461c0.30606,-0.36727 0.62525,-0.71705 0.95754,-1.04934c0.33229,-0.32791 0.66895,-0.63179 1.00998,-0.91162c0.33667,-0.27982 0.65584,-0.52904 0.95752,-0.74767c0.30169,-0.21423 0.57277,-0.3935 0.81325,-0.53778c0.24048,-0.14428 0.42848,-0.24265 0.56403,-0.29512c0.12242,0.05246 0.2995,0.15082 0.53122,0.29512c0.23174,0.14428 0.49626,0.32573 0.79358,0.54434c0.29731,0.21861 0.61648,0.46783 0.95752,0.74766c0.34104,0.2842 0.67988,0.59027 1.01655,0.91818c0.33229,0.33229 0.65364,0.68207 0.96408,1.04934c0.30606,0.37165 0.57714,0.75204 0.81325,1.14117c0.23611,0.39351 0.4263,0.79355 0.57058,1.20018c0.13991,0.40662 0.20988,0.81106 0.20988,1.2133c0,0.18364 -0.02187,0.38258 -0.06561,0.59682c-0.04806,0.21423 -0.11801,0.42848 -0.20986,0.64272c-0.09619,0.21425 -0.21425,0.41975 -0.35416,0.61649c-0.14428,0.19674 -0.31044,0.36944 -0.49845,0.51811c-0.18801,0.15303 -0.39786,0.27327 -0.6296,0.36071c-0.23611,0.09181 -0.49625,0.13772 -0.78045,0.13772c-0.25797,0 -0.52467,-0.03934 -0.80012,-0.11803c-0.27982,-0.07437 -0.56182,-0.19242 -0.84604,-0.35416c-0.2842,-0.1574 -0.56621,-0.35633 -0.84603,-0.59682c-0.2842,-0.24048 -0.55965,-0.52466 -0.82635,-0.85258c-0.23611,0.30169 -0.49408,0.5662 -0.7739,0.79355c-0.27982,0.23174 -0.56621,0.42411 -0.85915,0.57713c-0.29732,0.15741 -0.59464,0.27545 -0.89195,0.35415c-0.29732,0.08309 -0.58588,0.12463 -0.8657,0.12463c-0.28857,0 -0.55089,-0.04591 -0.787,-0.13773c-0.23611,-0.08745 -0.44598,-0.20767 -0.62962,-0.36071c-0.18364,-0.14866 -0.34322,-0.32136 -0.47876,-0.51811c-0.13554,-0.19238 -0.24703,-0.3935 -0.33448,-0.60337c-0.08745,-0.20987 -0.15084,-0.41975 -0.19019,-0.62962c-0.04374,-0.20986 -0.06562,-0.40443 -0.06562,-0.58369z" fill="url(#color-12)" stroke="none" stroke-width="0.26459"/><path d="M256.13781,174.88896c0,0.40225 -0.06996,0.80669 -0.20987,1.21331c-0.13554,0.40225 -0.32135,0.79794 -0.55746,1.18708c-0.23174,0.38914 -0.50062,0.76734 -0.80669,1.1346c-0.30606,0.36727 -0.62525,0.71705 -0.95754,1.04934c-0.33229,0.32791 -0.66894,0.63179 -1.00998,0.91162c-0.33667,0.27982 -0.65584,0.52903 -0.95753,0.74766c-0.30169,0.21423 -0.57276,0.3935 -0.81324,0.53778c-0.24048,0.14428 -0.42848,0.24266 -0.56403,0.29513c-0.12242,-0.05246 -0.2995,-0.15083 -0.53122,-0.29513c-0.23174,-0.14428 -0.49626,-0.32573 -0.79357,-0.54434c-0.29731,-0.21861 -0.61649,-0.46783 -0.95753,-0.74766c-0.34104,-0.2842 -0.67988,-0.59027 -1.01655,-0.91818c-0.33229,-0.33229 -0.65364,-0.68207 -0.96408,-1.04934c-0.30606,-0.37165 -0.57714,-0.75204 -0.81325,-1.14117c-0.23611,-0.39351 -0.42629,-0.79355 -0.57057,-1.20018c-0.13991,-0.40662 -0.20988,-0.81106 -0.20988,-1.2133c0,-0.18364 0.02187,-0.38257 0.06562,-0.59682c0.04806,-0.21423 0.11801,-0.42848 0.20986,-0.64272c0.09619,-0.21425 0.21425,-0.41975 0.35416,-0.61649c0.14428,-0.19674 0.31043,-0.36944 0.49844,-0.51811c0.18801,-0.15303 0.39786,-0.27327 0.6296,-0.36071c0.23611,-0.09181 0.49625,-0.13772 0.78045,-0.13772c0.25797,0 0.52466,0.03934 0.80012,0.11803c0.27982,0.07437 0.56182,0.19242 0.84604,0.35415c0.2842,0.1574 0.5662,0.35633 0.84602,0.59682c0.2842,0.24048 0.55966,0.52467 0.82636,0.85258c0.23611,-0.30169 0.49408,-0.5662 0.7739,-0.79355c0.27982,-0.23174 0.5662,-0.42411 0.85915,-0.57714c0.29732,-0.15741 0.59463,-0.27545 0.89194,-0.35415c0.29732,-0.08309 0.58589,-0.12463 0.86571,-0.12463c0.28857,0 0.55089,0.04591 0.787,0.13773c0.23611,0.08745 0.44598,0.20767 0.62962,0.36071c0.18364,0.14866 0.34322,0.32136 0.47876,0.51811c0.13553,0.19238 0.24703,0.39351 0.33448,0.60337c0.08745,0.20987 0.15085,0.41975 0.1902,0.62962c0.04374,0.20986 0.06562,0.40443 0.06562,0.58369z" fill="url(#color-13)" stroke="none" stroke-width="0.26459"/><path d="M251.29376,184.39349c0,-0.40225 0.06996,-0.80669 0.20987,-1.21331c0.13554,-0.40225 0.32134,-0.79794 0.55745,-1.18708c0.23174,-0.38914 0.50063,-0.76734 0.80669,-1.13461c0.30606,-0.36727 0.62525,-0.71705 0.95754,-1.04934c0.33229,-0.32791 0.66895,-0.63179 1.00999,-0.91162c0.33667,-0.27982 0.65584,-0.52904 0.95752,-0.74767c0.30169,-0.21423 0.57277,-0.3935 0.81325,-0.53778c0.24048,-0.14428 0.42849,-0.24265 0.56403,-0.29512c0.12242,0.05246 0.29949,0.15082 0.53121,0.29512c0.23174,0.14428 0.49627,0.32573 0.79358,0.54434c0.29731,0.21861 0.61648,0.46783 0.95752,0.74766c0.34103,0.2842 0.67988,0.59027 1.01655,0.91818c0.33229,0.33229 0.65364,0.68207 0.96408,1.04934c0.30606,0.37165 0.57714,0.75204 0.81325,1.14117c0.23611,0.39351 0.4263,0.79355 0.57058,1.20018c0.13991,0.40662 0.20987,0.81106 0.20987,1.2133c0,0.18364 -0.02187,0.38258 -0.06561,0.59682c-0.04805,0.21423 -0.11801,0.42848 -0.20986,0.64272c-0.0962,0.21425 -0.21425,0.41974 -0.35416,0.61648c-0.14428,0.19674 -0.31044,0.36945 -0.49845,0.51811c-0.188,0.15303 -0.39787,0.27327 -0.62961,0.36071c-0.23611,0.09181 -0.49624,0.13772 -0.78044,0.13772c-0.25797,0 -0.52467,-0.03934 -0.80012,-0.11803c-0.27982,-0.07437 -0.56183,-0.19243 -0.84604,-0.35416c-0.2842,-0.1574 -0.56621,-0.35633 -0.84602,-0.59681c-0.2842,-0.24048 -0.55965,-0.52466 -0.82635,-0.85258c-0.23611,0.30169 -0.49408,0.5662 -0.7739,0.79355c-0.27982,0.23174 -0.56621,0.42411 -0.85915,0.57713c-0.29732,0.15741 -0.59463,0.27545 -0.89194,0.35415c-0.29732,0.08309 -0.58588,0.12463 -0.8657,0.12463c-0.28857,0 -0.55089,-0.04591 -0.787,-0.13773c-0.23611,-0.08745 -0.44598,-0.20767 -0.62962,-0.36071c-0.18364,-0.14866 -0.34322,-0.32137 -0.47876,-0.51812c-0.13554,-0.19238 -0.24704,-0.3935 -0.33449,-0.60337c-0.08745,-0.20987 -0.15084,-0.41975 -0.19019,-0.62962c-0.04374,-0.20986 -0.06561,-0.40443 -0.06561,-0.58369z" fill="url(#color-14)" stroke="none" stroke-width="0.26459"/><path d="M229.02669,189.77786c0,0.40225 -0.06996,0.80669 -0.20987,1.21331c-0.13554,0.40225 -0.32135,0.79793 -0.55746,1.18707c-0.23174,0.38914 -0.50063,0.76734 -0.80669,1.1346c-0.30606,0.36727 -0.62525,0.71705 -0.95754,1.04935c-0.33229,0.32791 -0.66894,0.63179 -1.00998,0.91162c-0.33667,0.27982 -0.65584,0.52904 -0.95753,0.74766c-0.30169,0.21423 -0.57277,0.3935 -0.81325,0.53778c-0.24048,0.14428 -0.42848,0.24266 -0.56402,0.29513c-0.12242,-0.05246 -0.2995,-0.15083 -0.53122,-0.29513c-0.23174,-0.14428 -0.49626,-0.32572 -0.79357,-0.54434c-0.29731,-0.21861 -0.61649,-0.46784 -0.95753,-0.74767c-0.34104,-0.2842 -0.67988,-0.59026 -1.01655,-0.91817c-0.33229,-0.33229 -0.65364,-0.68208 -0.96408,-1.04935c-0.30606,-0.37165 -0.57714,-0.75204 -0.81325,-1.14117c-0.23611,-0.39351 -0.4263,-0.79355 -0.57058,-1.20018c-0.13991,-0.40662 -0.20987,-0.81106 -0.20987,-1.2133c0,-0.18364 0.02187,-0.38257 0.06561,-0.59682c0.04806,-0.21423 0.11801,-0.42847 0.20986,-0.64271c0.09619,-0.21425 0.21425,-0.41975 0.35415,-0.61649c0.14428,-0.19674 0.31044,-0.36944 0.49845,-0.51811c0.18801,-0.15303 0.39786,-0.27327 0.6296,-0.36071c0.23611,-0.09181 0.49624,-0.13773 0.78044,-0.13773c0.25797,0 0.52467,0.03934 0.80013,0.11803c0.27982,0.07437 0.56182,0.19243 0.84604,0.35416c0.2842,0.1574 0.5662,0.35632 0.84602,0.59681c0.2842,0.24048 0.55966,0.52467 0.82636,0.85259c0.23611,-0.30169 0.49408,-0.56621 0.7739,-0.79356c0.27982,-0.23174 0.5662,-0.42411 0.85915,-0.57713c0.29732,-0.15741 0.59463,-0.27546 0.89194,-0.35415c0.29732,-0.08309 0.58589,-0.12462 0.86571,-0.12462c0.28857,0 0.55089,0.04591 0.78699,0.13772c0.23611,0.08745 0.44598,0.20767 0.62962,0.36071c0.18364,0.14866 0.34322,0.32137 0.47876,0.51812c0.13554,0.19238 0.24704,0.3935 0.33449,0.60337c0.08745,0.20987 0.15084,0.41975 0.19019,0.62962c0.04374,0.20986 0.06562,0.40442 0.06562,0.58368z" fill="url(#color-15)" stroke="none" stroke-width="0.26459"/><path d="M224.18265,199.28238c0,-0.40225 0.06996,-0.80669 0.20987,-1.21331c0.13554,-0.40225 0.32134,-0.79793 0.55745,-1.18707c0.23174,-0.38914 0.50063,-0.76734 0.80669,-1.13461c0.30606,-0.36727 0.62525,-0.71705 0.95754,-1.04934c0.33229,-0.32791 0.66895,-0.63179 1.00999,-0.91162c0.33667,-0.27982 0.65584,-0.52904 0.95752,-0.74767c0.30169,-0.21423 0.57276,-0.3935 0.81325,-0.53778c0.24048,-0.14428 0.42848,-0.24265 0.56403,-0.29512c0.12242,0.05246 0.2995,0.15082 0.53122,0.29512c0.23174,0.14428 0.49626,0.32573 0.79358,0.54434c0.29731,0.21861 0.61648,0.46783 0.95752,0.74766c0.34104,0.2842 0.67988,0.59027 1.01655,0.91818c0.33229,0.33229 0.65365,0.68207 0.96408,1.04934c0.30606,0.37165 0.57714,0.75204 0.81325,1.14117c0.23611,0.39351 0.4263,0.79355 0.57058,1.20018c0.13991,0.40662 0.20988,0.81106 0.20988,1.2133c0,0.18364 -0.02187,0.38258 -0.06561,0.59682c-0.04806,0.21423 -0.11801,0.42848 -0.20986,0.64272c-0.09619,0.21425 -0.21425,0.41975 -0.35416,0.61649c-0.14428,0.19674 -0.31044,0.36944 -0.49845,0.51811c-0.18801,0.15303 -0.39786,0.27327 -0.6296,0.36071c-0.23611,0.09181 -0.49624,0.13772 -0.78044,0.13772c-0.25797,0 -0.52467,-0.03934 -0.80013,-0.11803c-0.27982,-0.07437 -0.56182,-0.19242 -0.84604,-0.35416c-0.2842,-0.1574 -0.5662,-0.35633 -0.84602,-0.59682c-0.2842,-0.24048 -0.55966,-0.52466 -0.82636,-0.85258c-0.23611,0.30169 -0.49407,0.5662 -0.77389,0.79355c-0.27982,0.23174 -0.56621,0.42411 -0.85916,0.57713c-0.29732,0.15741 -0.59463,0.27545 -0.89194,0.35415c-0.29732,0.08309 -0.58588,0.12463 -0.8657,0.12463c-0.28857,0 -0.55089,-0.04591 -0.787,-0.13773c-0.23611,-0.08745 -0.44598,-0.20767 -0.62962,-0.36071c-0.18364,-0.14866 -0.34322,-0.32136 -0.47876,-0.51811c-0.13554,-0.19238 -0.24704,-0.3935 -0.33449,-0.60337c-0.08745,-0.20987 -0.15084,-0.41975 -0.19019,-0.62962c-0.04374,-0.20986 -0.06561,-0.40443 -0.06561,-0.58369z" fill="url(#color-16)" stroke="none" stroke-width="0.26459"/><path d="M242.80447,189.77785c0,0.40225 -0.06996,0.80669 -0.20987,1.21331c-0.13554,0.40225 -0.32135,0.79794 -0.55746,1.18708c-0.23174,0.38914 -0.50062,0.76734 -0.80669,1.1346c-0.30606,0.36727 -0.62525,0.71705 -0.95754,1.04935c-0.33229,0.32791 -0.66894,0.63179 -1.00998,0.91162c-0.33667,0.27982 -0.65584,0.52903 -0.95753,0.74766c-0.30169,0.21423 -0.57276,0.3935 -0.81324,0.53778c-0.24048,0.14428 -0.42848,0.24266 -0.56403,0.29513c-0.12242,-0.05246 -0.2995,-0.15083 -0.53122,-0.29513c-0.23174,-0.14428 -0.49626,-0.32573 -0.79357,-0.54434c-0.29731,-0.21861 -0.61649,-0.46783 -0.95753,-0.74766c-0.34104,-0.2842 -0.67988,-0.59027 -1.01655,-0.91818c-0.33229,-0.33229 -0.65364,-0.68207 -0.96408,-1.04934c-0.30606,-0.37165 -0.57714,-0.75204 -0.81325,-1.14117c-0.23611,-0.39351 -0.42629,-0.79355 -0.57057,-1.20018c-0.13991,-0.40662 -0.20988,-0.81106 -0.20988,-1.2133c0,-0.18364 0.02187,-0.38257 0.06562,-0.59682c0.04806,-0.21423 0.11801,-0.42847 0.20986,-0.64271c0.09619,-0.21425 0.21425,-0.41975 0.35416,-0.61649c0.14428,-0.19674 0.31043,-0.36945 0.49844,-0.51811c0.18801,-0.15303 0.39786,-0.27327 0.6296,-0.36071c0.23611,-0.09181 0.49625,-0.13772 0.78045,-0.13772c0.25797,0 0.52466,0.03934 0.80012,0.11803c0.27982,0.07437 0.56182,0.19242 0.84604,0.35415c0.2842,0.1574 0.5662,0.35633 0.84602,0.59682c0.2842,0.24048 0.55966,0.52467 0.82636,0.85259c0.23611,-0.30169 0.49408,-0.56621 0.7739,-0.79356c0.27982,-0.23174 0.5662,-0.42411 0.85915,-0.57714c0.29732,-0.15741 0.59464,-0.27545 0.89195,-0.35415c0.29732,-0.08309 0.58589,-0.12463 0.86571,-0.12463c0.28857,0 0.55089,0.04591 0.787,0.13773c0.23611,0.08745 0.44598,0.20767 0.62962,0.36071c0.18364,0.14866 0.34322,0.32137 0.47876,0.51812c0.13554,0.19238 0.24703,0.39351 0.33448,0.60337c0.08745,0.20987 0.15085,0.41975 0.1902,0.62962c0.04374,0.20986 0.06562,0.40442 0.06562,0.58368z" fill="url(#color-17)" stroke="none" stroke-width="0.26459"/><path d="M237.96042,199.28238c0,-0.40225 0.06996,-0.80669 0.20987,-1.21331c0.13554,-0.40225 0.32134,-0.79793 0.55745,-1.18707c0.23174,-0.38914 0.50063,-0.76734 0.80669,-1.13461c0.30606,-0.36727 0.62525,-0.71705 0.95754,-1.04934c0.33229,-0.32791 0.66895,-0.63179 1.00998,-0.91162c0.33667,-0.27982 0.65584,-0.52904 0.95752,-0.74767c0.30169,-0.21423 0.57277,-0.3935 0.81325,-0.53778c0.24048,-0.14428 0.42848,-0.24265 0.56403,-0.29512c0.12242,0.05246 0.2995,0.15082 0.53122,0.29512c0.23174,0.14428 0.49626,0.32573 0.79358,0.54434c0.29731,0.21861 0.61648,0.46783 0.95752,0.74766c0.34104,0.2842 0.67988,0.59027 1.01655,0.91818c0.33229,0.33229 0.65364,0.68207 0.96408,1.04934c0.30606,0.37165 0.57714,0.75204 0.81325,1.14117c0.23611,0.39351 0.4263,0.79355 0.57058,1.20018c0.13991,0.40662 0.20988,0.81106 0.20988,1.2133c0,0.18364 -0.02187,0.38258 -0.06561,0.59682c-0.04806,0.21423 -0.11801,0.42848 -0.20986,0.64272c-0.09619,0.21425 -0.21425,0.41975 -0.35416,0.61649c-0.14428,0.19674 -0.31044,0.36944 -0.49845,0.51811c-0.18801,0.15303 -0.39786,0.27327 -0.6296,0.36071c-0.23611,0.09181 -0.49625,0.13772 -0.78045,0.13772c-0.25797,0 -0.52467,-0.03934 -0.80012,-0.11803c-0.27982,-0.07437 -0.56182,-0.19242 -0.84604,-0.35416c-0.2842,-0.1574 -0.56621,-0.35633 -0.84603,-0.59682c-0.2842,-0.24048 -0.55965,-0.52466 -0.82635,-0.85258c-0.23611,0.30169 -0.49408,0.5662 -0.7739,0.79355c-0.27982,0.23174 -0.56621,0.42411 -0.85915,0.57713c-0.29732,0.15741 -0.59464,0.27545 -0.89195,0.35415c-0.29732,0.08309 -0.58588,0.12463 -0.8657,0.12463c-0.28857,0 -0.55089,-0.04591 -0.787,-0.13773c-0.23611,-0.08745 -0.44598,-0.20767 -0.62962,-0.36071c-0.18364,-0.14866 -0.34322,-0.32136 -0.47876,-0.51811c-0.13554,-0.19238 -0.24703,-0.3935 -0.33448,-0.60337c-0.08745,-0.20987 -0.15084,-0.41975 -0.19019,-0.62962c-0.04374,-0.20986 -0.06562,-0.40443 -0.06562,-0.58369z" fill="url(#color-18)" stroke="none" stroke-width="0.26459"/><path d="M256.69336,190.11119c0,0.40225 -0.06996,0.80669 -0.20987,1.21331c-0.13554,0.40225 -0.32135,0.79794 -0.55746,1.18708c-0.23174,0.38914 -0.50062,0.76734 -0.80669,1.1346c-0.30606,0.36727 -0.62524,0.71705 -0.95754,1.04934c-0.33229,0.32791 -0.66894,0.63179 -1.00998,0.91162c-0.33667,0.27982 -0.65584,0.52903 -0.95753,0.74766c-0.30169,0.21423 -0.57276,0.3935 -0.81324,0.53778c-0.24048,0.14428 -0.42848,0.24266 -0.56403,0.29513c-0.12242,-0.05246 -0.2995,-0.15083 -0.53122,-0.29513c-0.23174,-0.14428 -0.49626,-0.32573 -0.79357,-0.54434c-0.29731,-0.21861 -0.61649,-0.46783 -0.95753,-0.74766c-0.34104,-0.2842 -0.67988,-0.59027 -1.01655,-0.91818c-0.33229,-0.33229 -0.65364,-0.68207 -0.96408,-1.04934c-0.30606,-0.37165 -0.57714,-0.75204 -0.81325,-1.14117c-0.23611,-0.39351 -0.42629,-0.79355 -0.57057,-1.20018c-0.13991,-0.40662 -0.20988,-0.81106 -0.20988,-1.2133c0,-0.18364 0.02187,-0.38257 0.06562,-0.59682c0.04806,-0.21423 0.11801,-0.42848 0.20986,-0.64272c0.09619,-0.21425 0.21425,-0.41975 0.35416,-0.61649c0.14428,-0.19674 0.31043,-0.36944 0.49844,-0.51811c0.18801,-0.15303 0.39786,-0.27327 0.6296,-0.36071c0.23611,-0.09181 0.49625,-0.13772 0.78045,-0.13772c0.25797,0 0.52466,0.03934 0.80012,0.11803c0.27982,0.07437 0.56182,0.19242 0.84604,0.35415c0.2842,0.1574 0.5662,0.35633 0.84602,0.59682c0.2842,0.24048 0.55966,0.52467 0.82636,0.85258c0.23611,-0.30169 0.49408,-0.5662 0.7739,-0.79355c0.27982,-0.23174 0.5662,-0.42411 0.85915,-0.57714c0.29732,-0.15741 0.59463,-0.27545 0.89194,-0.35415c0.29732,-0.08309 0.58589,-0.12463 0.86571,-0.12463c0.28857,0 0.55089,0.04591 0.78699,0.13773c0.23611,0.08745 0.44598,0.20767 0.62962,0.36071c0.18363,0.14866 0.34322,0.32136 0.47876,0.51811c0.13554,0.19238 0.24703,0.39351 0.33448,0.60337c0.08745,0.20987 0.15085,0.41975 0.1902,0.62962c0.04374,0.20986 0.06561,0.40443 0.06561,0.58369z" fill="url(#color-19)" stroke="none" stroke-width="0.26459"/><path d="M251.84931,199.61571c0,-0.40225 0.06996,-0.80669 0.20987,-1.21331c0.13554,-0.40225 0.32134,-0.79794 0.55745,-1.18708c0.23174,-0.38914 0.50063,-0.76734 0.80669,-1.13461c0.30606,-0.36727 0.62525,-0.71705 0.95754,-1.04934c0.33229,-0.32791 0.66895,-0.63179 1.00999,-0.91162c0.33667,-0.27982 0.65584,-0.52904 0.95752,-0.74767c0.30169,-0.21423 0.57277,-0.3935 0.81325,-0.53778c0.24048,-0.14428 0.42849,-0.24265 0.56403,-0.29512c0.12242,0.05246 0.29949,0.15082 0.53121,0.29512c0.23174,0.14428 0.49627,0.32573 0.79358,0.54434c0.29731,0.21861 0.61648,0.46783 0.95752,0.74766c0.34103,0.2842 0.67988,0.59027 1.01655,0.91818c0.33229,0.33229 0.65364,0.68207 0.96408,1.04934c0.30606,0.37165 0.57714,0.75204 0.81325,1.14117c0.23611,0.39351 0.4263,0.79355 0.57058,1.20018c0.13991,0.40662 0.20987,0.81106 0.20987,1.2133c0,0.18364 -0.02187,0.38258 -0.06561,0.59682c-0.04805,0.21423 -0.11801,0.42848 -0.20986,0.64272c-0.0962,0.21425 -0.21425,0.41974 -0.35416,0.61648c-0.14428,0.19674 -0.31044,0.36945 -0.49845,0.51811c-0.188,0.15303 -0.39787,0.27327 -0.62961,0.36071c-0.23611,0.09181 -0.49624,0.13772 -0.78044,0.13772c-0.25797,0 -0.52467,-0.03934 -0.80012,-0.11803c-0.27982,-0.07437 -0.56183,-0.19243 -0.84604,-0.35416c-0.2842,-0.1574 -0.56621,-0.35633 -0.84602,-0.59681c-0.2842,-0.24048 -0.55965,-0.52466 -0.82635,-0.85258c-0.23611,0.30169 -0.49408,0.5662 -0.7739,0.79355c-0.27982,0.23174 -0.56621,0.42411 -0.85915,0.57713c-0.29732,0.15741 -0.59463,0.27545 -0.89195,0.35415c-0.29732,0.08309 -0.58588,0.12463 -0.8657,0.12463c-0.28857,0 -0.55089,-0.04591 -0.787,-0.13773c-0.23611,-0.08745 -0.44598,-0.20767 -0.62962,-0.36071c-0.18364,-0.14866 -0.34322,-0.32137 -0.47876,-0.51812c-0.13554,-0.19238 -0.24704,-0.3935 -0.33449,-0.60337c-0.08745,-0.20987 -0.15084,-0.41975 -0.19019,-0.62962c-0.04374,-0.20986 -0.06561,-0.40443 -0.06561,-0.58369z" fill="url(#color-20)" stroke="none" stroke-width="0.26459"/></g></g></svg>