<svg version="1.1" xmlns="http://www.w3.org/2000/svg" xmlns:xlink="http://www.w3.org/1999/xlink" width="62.36325" height="60.26072" viewBox="0,0,62.36325,60.26072"><defs><linearGradient x1="270.89485" y1="121.10216" x2="270.89485" y2="179.86287" gradientUnits="userSpaceOnUse" id="color-1"><stop offset="0" stop-color="#735656"/><stop offset="1" stop-color="#562828"/></linearGradient><linearGradient x1="271.08999" y1="134.1195" x2="271.08999" y2="169.8948" gradientUnits="userSpaceOnUse" id="color-2"><stop offset="0" stop-color="#290b0b"/><stop offset="1" stop-color="#290b0b" stop-opacity="0"/></linearGradient><radialGradient cx="270.80166" cy="153.50608" r="26.38462" gradientUnits="userSpaceOnUse" id="color-3"><stop offset="0" stop-color="#fff473" stop-opacity="0"/><stop offset="1" stop-color="#fff473"/></radialGradient><linearGradient x1="270.892" y1="167.57145" x2="270.892" y2="180.14297" gradientUnits="userSpaceOnUse" id="color-4"><stop offset="0" stop-color="#a04848"/><stop offset="1" stop-color="#5b2929"/></linearGradient><radialGradient cx="270.17008" cy="146.87428" r="8.49522" gradientUnits="userSpaceOnUse" id="color-5"><stop offset="0" stop-color="#ffa5a5"/><stop offset="1" stop-color="#ffa3a3"/></radialGradient><linearGradient x1="267.63826" y1="150.9041" x2="267.63826" y2="153.82763" gradientUnits="userSpaceOnUse" id="color-6"><stop offset="0" stop-color="#870000"/><stop offset="1" stop-color="#d65d5d"/></linearGradient><radialGradient cx="267.88975" cy="147.42048" r="6.49338" gradientUnits="userSpaceOnUse" id="color-7"><stop offset="0" stop-color="#ff9e9e"/><stop offset="1" stop-color="#ff3333"/></radialGradient><linearGradient x1="277.0757" y1="147.92555" x2="277.03542" y2="149.94059" gradientUnits="userSpaceOnUse" id="color-8"><stop offset="0" stop-color="#fff7f7"/><stop offset="1" stop-color="#ffd2d2"/></linearGradient><radialGradient cx="268.4679" cy="148.90616" r="7.44085" gradientUnits="userSpaceOnUse" id="color-9"><stop offset="0" stop-color="#ffa5a5"/><stop offset="1" stop-color="#ffa3a3"/></radialGradient><radialGradient cx="270.61367" cy="142.27495" r="26.12021" gradientUnits="userSpaceOnUse" id="color-10"><stop offset="0" stop-color="#fff473" stop-opacity="0"/><stop offset="1" stop-color="#fff473"/></radialGradient><radialGradient cx="270.72423" cy="154.35224" r="26.38461" gradientUnits="userSpaceOnUse" id="color-11"><stop offset="0" stop-color="#fff473" stop-opacity="0"/><stop offset="1" stop-color="#fff473"/></radialGradient><radialGradient cx="266.41654" cy="139.81375" r="23.53846" gradientUnits="userSpaceOnUse" id="color-12"><stop offset="0" stop-color="#fff473" stop-opacity="0"/><stop offset="1" stop-color="#fff473"/></radialGradient></defs><g transform="translate(-239.71327,-120.35215)"><g data-paper-data="{&quot;isPaintingLayer&quot;:true}" fill-rule="nonzero" stroke-linejoin="miter" stroke-miterlimit="10" stroke-dasharray="" stroke-dashoffset="0" style="mix-blend-mode: normal"><path d="M240.46327,179.86287v-58.76072h60.86325v58.76072z" fill="url(#color-1)" stroke="#733434" stroke-width="1.5" stroke-linecap="butt"/><path d="M241.20632,169.8948v-35.77529h59.76739v35.77529z" data-paper-data="{&quot;index&quot;:null}" fill="url(#color-2)" stroke="none" stroke-width="0" stroke-linecap="butt"/><path d="M241.40299,134.07714h59.38095" fill="none" stroke="#ff8787" stroke-width="0.5" stroke-linecap="round"/><path d="M244.41705,153.50608c0,0 -0.48386,-10 28.46153,-10.23077c24.33172,0.24126 24.3077,10.23077 24.3077,10.23077" fill="none" stroke="url(#color-3)" stroke-width="1" stroke-linecap="round"/><path d="M239.96343,180.14297v-12.57143h61.85715v12.57143z" fill="url(#color-4)" stroke="none" stroke-width="0" stroke-linecap="butt"/><g stroke="none" stroke-width="0"><path d="M269.99617,147.63457c-4.66289,-0.39287 -8.36504,-1.05175 -8.269,-1.47164c0.09603,-0.41989 3.9539,-0.44179 8.61678,-0.04892c4.66289,0.39287 7.34132,1.30768 7.24529,1.72758c0,0 -3.54528,0.13405 -7.59307,-0.20701z" fill="url(#color-5)" stroke-linecap="butt"/><path d="M270.29599,151.01486l2.28123,2.28123c0,0 -1.92264,1.12666 -4.82506,0.98399c-2.77468,0.14806 -5.05287,-0.98399 -5.05287,-0.98399l2.43627,-2.39197z" fill="url(#color-6)" stroke-linecap="round"/><path d="M261.37182,146.09966c0.2201,-2.43065 3.35204,-3.56236 6.91648,-3.08026c3.56444,0.4821 6.17959,3.35521 5.9595,5.78586c-0.2201,2.43065 -3.19209,3.49838 -6.75653,3.01628c-3.56444,-0.4821 -6.33955,-3.29123 -6.11945,-5.72188z" fill="url(#color-7)" stroke-linecap="butt"/><path d="M282.09849,148.89932c0,0 0.39749,0.46911 0.36202,0.65692c-0.03873,0.20514 -0.58551,0.65449 -0.58551,0.65449l-8.62925,-1.46181c0,0 -0.02369,-0.35997 0.0263,-0.52309c0.04435,-0.14475 0.19216,-0.40847 0.19216,-0.40847z" fill="url(#color-8)" stroke-linecap="round"/><path d="M276.66171,150.94196c-0.09161,1.037 -4.27608,0.6305 -8.35967,-0.15813c-4.0836,-0.78863 -7.06381,-3.10039 -6.97219,-4.13739c0.09161,-1.037 2.7498,0.40767 6.83339,1.1963c4.0836,0.78863 8.59008,2.06223 8.49847,3.09922z" fill="url(#color-9)" stroke-linecap="butt"/></g><path d="M244.49346,152.58301c0,0 0.47169,-20.49713 24.15385,-20.61538c29.43311,-0.14697 28.07692,20.61538 28.07692,20.61538" fill="none" stroke="url(#color-10)" stroke-width="2.5" stroke-linecap="round"/><path d="M296.955,153.12147c0,0 0.63771,11.23077 -28.30769,11.46154c-24.33171,-0.24127 -24.30769,-11.15385 -24.30769,-11.15385" fill="none" stroke="url(#color-11)" stroke-width="2" stroke-linecap="round"/><path d="M267.18577,164.27531c0,0 -3.6984,-27.76682 1.99828,-31.2299c4.35114,-2.7308 4.92479,9.84528 4.92479,9.84528" fill="none" stroke="url(#color-12)" stroke-width="2.5" stroke-linecap="round"/></g></g></svg>