<svg version="1.1" xmlns="http://www.w3.org/2000/svg" xmlns:xlink="http://www.w3.org/1999/xlink" width="20.55858" height="20.55858" viewBox="0,0,20.55858,20.55858"><g transform="translate(-236.5,-161.4593)"><g data-paper-data="{&quot;isPaintingLayer&quot;:true}" fill-rule="nonzero" stroke-linecap="butt" stroke-linejoin="miter" stroke-miterlimit="10" stroke-dasharray="" stroke-dashoffset="0" style="mix-blend-mode: normal"><path d="M243.47953,171.73859c0,-1.82241 1.47735,-3.29976 3.29976,-3.29976c1.82241,0 3.29976,1.47735 3.29976,3.29976c0,1.82241 -1.47735,3.29976 -3.29976,3.29976c-1.82241,0 -3.29976,-1.47735 -3.29976,-3.29976z" fill="#ffffff" stroke="none" stroke-width="NaN"/><path d="M237,171.73859c0,-5.40095 4.37833,-9.77929 9.77929,-9.77929c5.40095,0 9.77929,4.37833 9.77929,9.77929c0,5.40095 -4.37833,9.77929 -9.77929,9.77929c-5.40095,0 -9.77929,-4.37833 -9.77929,-9.77929z" fill="none" stroke="#ffffff" stroke-width="0.5"/><path d="M237,171.73859c0,-5.40095 4.37833,-9.77929 9.77929,-9.77929c5.40095,0 9.77929,4.37833 9.77929,9.77929c0,5.40095 -4.37833,9.77929 -9.77929,9.77929c-5.40095,0 -9.77929,-4.37833 -9.77929,-9.77929z" fill="none" stroke="#ffffff" stroke-width="1"/><path d="M240.83972,171.73859c0,-3.28033 2.65924,-5.93957 5.93957,-5.93957c3.28033,0 5.93956,2.65924 5.93956,5.93957c0,3.28033 -2.65923,5.93957 -5.93956,5.93957c-3.28033,0 -5.93957,-2.65924 -5.93957,-5.93957z" fill="none" stroke="#ffffff" stroke-width="1"/><path d="M250.799,164.17911c0,-1.29225 1.04758,-2.33984 2.33983,-2.33984c1.29225,0 2.33983,1.04758 2.33983,2.33984c0,1.29225 -1.04758,2.33984 -2.33983,2.33984c-1.29225,0 -2.33983,-1.04758 -2.33983,-2.33984z" fill="#ffffff" stroke="none" stroke-width="NaN"/></g></g></svg>