<svg version="1.1" xmlns="http://www.w3.org/2000/svg" xmlns:xlink="http://www.w3.org/1999/xlink" width="18.88893" height="9.72868" viewBox="0,0,18.88893,9.72868"><defs><linearGradient x1="244.91638" y1="165.52038" x2="244.91638" y2="175.24906" gradientUnits="userSpaceOnUse" id="color-1"><stop offset="0" stop-color="#1dff00"/><stop offset="1" stop-color="#ffe100"/></linearGradient><linearGradient x1="254.22888" y1="165.52038" x2="254.22888" y2="175.24906" gradientUnits="userSpaceOnUse" id="color-2"><stop offset="0" stop-color="#1dff00"/><stop offset="1" stop-color="#ffe100"/></linearGradient><linearGradient x1="249.47888" y1="165.52038" x2="249.47888" y2="175.24906" gradientUnits="userSpaceOnUse" id="color-3"><stop offset="0" stop-color="#1dff00"/><stop offset="1" stop-color="#ffe100"/></linearGradient></defs><g transform="translate(-240.12817,-165.52038)"><g data-paper-data="{&quot;isPaintingLayer&quot;:true}" fill-rule="nonzero" stroke="none" stroke-width="0.26459" stroke-linecap="butt" stroke-linejoin="miter" stroke-miterlimit="10" stroke-dasharray="" stroke-dashoffset="0" style="mix-blend-mode: normal"><path d="M242.03977,170.38472l2.87354,-2.92233l2.87353,2.92233l-2.87353,2.92232zM241.05946,170.38472l3.85385,3.92126l3.85997,-3.92126l-3.85997,-3.92125zM240.12818,170.38472l4.78515,-4.86434l4.79128,4.86434l-4.79128,4.86434z" fill="url(#color-1)"/><path d="M251.35227,170.38472l2.87354,-2.92233l2.87353,2.92233l-2.87353,2.92232zM250.37196,170.38472l3.85385,3.92126l3.85997,-3.92126l-3.85997,-3.92125zM249.44068,170.38472l4.78515,-4.86434l4.79128,4.86434l-4.79128,4.86434z" fill="url(#color-2)"/><path d="M246.60227,170.38472l2.87354,-2.92233l2.87353,2.92233l-2.87353,2.92232zM245.62196,170.38472l3.85385,3.92126l3.85997,-3.92126l-3.85997,-3.92125zM244.69068,170.38472l4.78515,-4.86434l4.79128,4.86434l-4.79128,4.86434z" fill="url(#color-3)"/></g></g></svg>