<svg version="1.1" xmlns="http://www.w3.org/2000/svg" xmlns:xlink="http://www.w3.org/1999/xlink" width="62.36325" height="29.68929" viewBox="0,0,62.36325,29.68929"><defs><linearGradient x1="270.62701" y1="151.79844" x2="270.62701" y2="179.98773" gradientUnits="userSpaceOnUse" id="color-1"><stop offset="0" stop-color="#455c8f"/><stop offset="1" stop-color="#003758"/></linearGradient><linearGradient x1="270.78229" y1="171.30076" x2="270.78229" y2="179.27941" gradientUnits="userSpaceOnUse" id="color-2"><stop offset="0" stop-color="#0b1228"/><stop offset="1" stop-color="#0b1228" stop-opacity="0"/></linearGradient><linearGradient x1="254.52575" y1="170.97385" x2="254.52575" y2="176.05078" gradientUnits="userSpaceOnUse" id="color-3"><stop offset="0" stop-color="#008710"/><stop offset="1" stop-color="#34d606"/></linearGradient><linearGradient x1="285.68431" y1="155.46278" x2="285.68431" y2="164.55727" gradientUnits="userSpaceOnUse" id="color-4"><stop offset="0" stop-color="#00ff21"/><stop offset="1" stop-color="#a0ffb7"/></linearGradient><linearGradient x1="285.67958" y1="157.64594" x2="285.67958" y2="162.37473" gradientUnits="userSpaceOnUse" id="color-5"><stop offset="0" stop-color="#00ff15"/><stop offset="1" stop-color="#9affad"/></linearGradient></defs><g transform="translate(-239.44543,-151.04844)"><g data-paper-data="{&quot;isPaintingLayer&quot;:true}" fill-rule="nonzero" stroke-linejoin="miter" stroke-miterlimit="10" stroke-dasharray="" stroke-dashoffset="0" style="mix-blend-mode: normal"><path d="M240.19543,179.98773v-28.18929h60.86325v28.18929z" fill="url(#color-1)" stroke="#3dab20" stroke-width="1.5" stroke-linecap="butt"/><g><path d="M241.0953,171.15407h59.38095" fill="none" stroke-opacity="0.70968" stroke="#ffffff" stroke-width="0.5" stroke-linecap="round"/><path d="M240.89862,179.27941v-7.97865h59.76739v7.97865z" data-paper-data="{&quot;index&quot;:null}" fill="url(#color-2)" stroke="none" stroke-width="0" stroke-linecap="butt"/></g><path d="M259.14108,171.16616l3.96154,3.96154c0,0 -3.33882,1.95654 -8.37912,1.70879c-4.81847,0.25712 -8.77472,-1.70879 -8.77472,-1.70879l4.23077,-4.15385z" fill="url(#color-3)" stroke="none" stroke-width="0" stroke-linecap="round"/><text transform="translate(294.83126,160.49343) scale(0.20671,0.20671)" font-size="40" xml:space="preserve" fill="#ffffff" fill-rule="nonzero" stroke="none" stroke-width="1" stroke-linecap="butt" stroke-linejoin="miter" stroke-miterlimit="10" stroke-dasharray="" stroke-dashoffset="0" font-family="Sans Serif" font-weight="normal" text-anchor="start" style="mix-blend-mode: normal"><tspan x="0" dy="0">6</tspan></text><path d="M266.84193,157.60564l-21,-1.75" fill="none" stroke="#64ff63" stroke-width="2" stroke-linecap="round"/><path d="M246.59192,156.35564l8.91667,8.25" fill="none" stroke="#64ff63" stroke-width="1.5" stroke-linecap="round"/><path d="M256.09189,164.0223l9.66667,-6.25" fill="none" stroke="#64ff63" stroke-width="1.5" stroke-linecap="round"/><path d="M255.34196,164.60564l-1.16667,8.5" fill="none" stroke="#64ff63" stroke-width="1.5" stroke-linecap="round"/><path d="M266.42524,158.10563l-11.75,14.33334" fill="none" stroke="#64ff63" stroke-width="2" stroke-linecap="round"/><path d="M253.84192,172.68897l-8,-16.75" fill="none" stroke="#64ff63" stroke-width="2" stroke-linecap="round"/><path d="M278.32728,161.3312v13.1911" fill="none" stroke="#64ff63" stroke-width="2" stroke-linecap="round"/><path d="M271.30024,167.74184h13.68423" fill="none" stroke="#64ff63" stroke-width="2" stroke-linecap="round"/><g stroke-linecap="round"><path d="M282.73892,160.03339l2.9408,-4.57061l2.94996,4.56144l-2.95821,4.53304z" fill="none" stroke="url(#color-4)" stroke-width="1"/><path d="M284.12942,160.0055l1.53178,-2.35956l1.56853,2.3673l-1.55886,2.36149z" fill="url(#color-5)" stroke="none" stroke-width="0"/></g></g></g></svg>