<svg version="1.1" xmlns="http://www.w3.org/2000/svg" xmlns:xlink="http://www.w3.org/1999/xlink" width="13.70767" height="18.93371" viewBox="0,0,13.70767,18.93371"><g transform="translate(-239.30297,-163.5723)"><g data-paper-data="{&quot;isPaintingLayer&quot;:true}" fill="#ff0000" fill-rule="nonzero" stroke="none" stroke-width="1" stroke-linecap="butt" stroke-linejoin="miter" stroke-miterlimit="10" stroke-dasharray="" stroke-dashoffset="0" style="mix-blend-mode: normal"><path d="M253.01063,174.79566v3.85507c0,0.23654 -0.19182,0.42837 -0.42837,0.42837h-0.24151v2.57019h0.24151c0.23654,0 0.42837,0.19182 0.42837,0.42837c0,0.23654 -0.19182,0.42837 -0.42837,0.42837h-11.13748c-1.18101,0 -2.14182,-0.96082 -2.14182,-2.14182v-14.65007c0,-1.18101 0.96082,-2.14182 2.14182,-2.14182h11.13748c0.23654,0 0.42837,0.19182 0.42837,0.42837v3.85507v0.00043v6.93908zM252.1539,175.82965l-2.39272,2.39272h2.39272zM252.1539,164.42902h-2.39272l2.39272,2.39272zM240.1597,178.65171c0.3582,-0.26944 0.80335,-0.42935 1.2851,-0.42935v-2.14182c0,-0.23654 0.19182,-0.42837 0.42837,-0.42837c0.23654,0 0.42837,0.19182 0.42837,0.42837v2.14182h6.248l3.60438,-3.60435v-6.5846l-3.60438,-3.60438h-6.248v10.19032c0,0.23654 -0.19182,0.42837 -0.42837,0.42837c-0.23654,0 -0.42837,-0.19182 -0.42837,-0.42837v-10.19032c-0.70861,0 -1.2851,0.57649 -1.2851,1.2851zM251.48403,179.07909h-10.03924c-0.70861,0 -1.2851,0.57649 -1.2851,1.2851c0,0.70861 0.57649,1.2851 1.2851,1.2851h10.03924z"/></g></g></svg>