<svg width="480px" height="360px" xmlns="http://www.w3.org/2000/svg"><path fill="#F00" d="M242.436 164L250.736 164L250.736 175.116Q250.736 176.144 250.430 177.068Q250.124 177.992 249.500 178.678Q248.875 179.363 247.933 179.767Q246.990 180.171 245.717 180.171L245.717 180.171Q245.239 180.171 244.744 180.104Q244.248 180.037 243.789 179.920Q243.330 179.804 242.926 179.639Q242.522 179.474 242.228 179.278L242.228 179.278L242.228 177.086Q242.987 177.637 243.911 177.956Q244.836 178.274 245.741 178.274L245.741 178.274Q247.076 178.274 247.798 177.460Q248.520 176.646 248.520 175.116L248.520 175.116L248.520 165.885L242.436 165.885L242.436 164Z"/></svg>