<svg version="1.1" xmlns="http://www.w3.org/2000/svg" xmlns:xlink="http://www.w3.org/1999/xlink" width="55.125" height="55.125" viewBox="0,0,55.125,55.125"><defs><linearGradient x1="240" y1="153.1875" x2="240" y2="206.8125" gradientUnits="userSpaceOnUse" id="color-1"><stop offset="0" stop-color="#023636"/><stop offset="1" stop-color="#000000" stop-opacity="0.60925"/></linearGradient><linearGradient x1="240" y1="153.1875" x2="240" y2="206.8125" gradientUnits="userSpaceOnUse" id="color-2"><stop offset="0" stop-color="#00fffc"/><stop offset="1" stop-color="#00fffc" stop-opacity="0"/></linearGradient></defs><g transform="translate(-212.4375,-152.4375)"><g data-paper-data="{&quot;isPaintingLayer&quot;:true}" fill-rule="nonzero" stroke-linejoin="miter" stroke-miterlimit="10" stroke-dasharray="" stroke-dashoffset="0" style="mix-blend-mode: normal"><path d="M213.1875,206.8125v-53.625h53.625v53.625z" fill="url(#color-1)" stroke="url(#color-2)" stroke-width="1.5" stroke-linecap="butt"/><path d="M214.84426,172.32088h50.31148" fill="#000000" stroke-opacity="0.5" stroke="#a3ff33" stroke-width="2.5" stroke-linecap="round"/><path d="M214.84426,188.20872h5.29595" fill="#000000" stroke-opacity="0.5" stroke="#a3ff33" stroke-width="2.5" stroke-linecap="round"/><path d="M241.32399,190.85669v-18.53581" fill="#000000" stroke-opacity="0.5" stroke="#a3ff33" stroke-width="2.5" stroke-linecap="round"/><path d="M214.84426,172.32088h50.31148" fill="#000000" stroke="#bbff3d" stroke-width="2.5" stroke-linecap="round"/><path d="M214.84426,188.20872h5.29595" fill="#000000" stroke="#bbff3d" stroke-width="2.5" stroke-linecap="round"/><path d="M241.32399,190.85669v-18.53581" fill="#000000" stroke="#bbff3d" stroke-width="2.5" stroke-linecap="round"/><path d="M214.84426,194.82865c-0.73122,0 -1.32399,-0.59277 -1.32399,-1.32399v0c0,-0.73122 0.59277,-1.32398 1.32399,-1.32398h10.59189c0.73122,0 1.32398,0.59277 1.32398,1.32398v0c0,0.73122 -0.59277,1.32399 -1.32398,1.32399z" fill="#bcd5e0" stroke="none" stroke-width="2.5" stroke-linecap="butt"/><path d="M225.43615,194.82865c-0.73122,0 -1.32399,-0.59277 -1.32399,-1.32399v-10.59189c0,-0.73122 0.59277,-1.32399 1.32399,-1.32399v0c0.73122,0 1.32398,0.59277 1.32398,1.32399v10.59189c0,0.73122 -0.59277,1.32399 -1.32398,1.32399z" fill="#bcd5e0" stroke="none" stroke-width="2.5" stroke-linecap="butt"/><path d="M220.1402,184.23676c-0.73122,0 -1.32399,-0.59277 -1.32399,-1.32398v0c0,-0.73122 0.59277,-1.32399 1.32399,-1.32399h5.29595c0.73122,0 1.32398,0.59277 1.32398,1.32399v0c0,0.73122 -0.59277,1.32398 -1.32398,1.32398z" fill="#bcd5e0" stroke="none" stroke-width="2.5" stroke-linecap="butt"/><path d="M220.1402,184.23676c-0.73122,0 -1.32399,-0.59277 -1.32399,-1.32398v-15.88784c0,-0.73122 0.59277,-1.32398 1.32399,-1.32398v0c0.73122,0 1.32398,0.59277 1.32398,1.32398v15.88784c0,0.73122 -0.59277,1.32398 -1.32398,1.32398z" fill="#bcd5e0" stroke="none" stroke-width="2.5" stroke-linecap="butt"/><path d="M220.1402,168.34892c-0.73122,0 -1.32399,-0.59277 -1.32399,-1.32399v0c0,-0.73122 0.59277,-1.32398 1.32399,-1.32398h10.59189c0.73122,0 1.32399,0.59277 1.32399,1.32398v0c0,0.73122 -0.59277,1.32399 -1.32399,1.32399z" fill="#bcd5e0" stroke="none" stroke-width="2.5" stroke-linecap="butt"/><path d="M230.73209,168.34892c-0.73122,0 -1.32398,-0.59277 -1.32398,-1.32399v-5.29595c0,-0.73122 0.59277,-1.32399 1.32398,-1.32399v0c0.73122,0 1.32399,0.59277 1.32399,1.32399v5.29595c0,0.73122 -0.59277,1.32399 -1.32399,1.32399z" fill="#bcd5e0" stroke="none" stroke-width="2.5" stroke-linecap="butt"/><path d="M230.73209,163.05297c-0.73122,0 -1.32398,-0.59277 -1.32398,-1.32398v0c0,-0.73122 0.59277,-1.32399 1.32398,-1.32399h5.29595c0.73122,0 1.32399,0.59277 1.32399,1.32399v0c0,0.73122 -0.59277,1.32398 -1.32399,1.32398z" fill="#bcd5e0" stroke="none" stroke-width="2.5" stroke-linecap="butt"/><path d="M236.02804,194.82865c-0.73122,0 -1.32398,-0.59277 -1.32398,-1.32399v-31.77568c0,-0.73122 0.59277,-1.32399 1.32398,-1.32399v0c0.73122,0 1.32399,0.59277 1.32399,1.32399v31.77568c0,0.73122 -0.59277,1.32399 -1.32399,1.32399z" fill="#bcd5e0" stroke="none" stroke-width="2.5" stroke-linecap="butt"/><path d="M236.02804,194.82865c-0.73122,0 -1.32398,-0.59277 -1.32398,-1.32399v0c0,-0.73122 0.59277,-1.32398 1.32398,-1.32398h21.18378c0.73122,0 1.32399,0.59277 1.32399,1.32398v0c0,0.73122 -0.59277,1.32399 -1.32399,1.32399z" fill="#bcd5e0" stroke="none" stroke-width="2.5" stroke-linecap="butt"/><path d="M257.21182,194.82865c-0.73122,0 -1.32398,-0.59277 -1.32398,-1.32399v-10.59189c0,-0.73122 0.59277,-1.32399 1.32398,-1.32399v0c0.73122,0 1.32399,0.59277 1.32399,1.32399v10.59189c0,0.73122 -0.59277,1.32399 -1.32399,1.32399z" fill="#bcd5e0" stroke="none" stroke-width="2.5" stroke-linecap="butt"/><path d="M246.61993,184.23676c-0.73122,0 -1.32399,-0.59277 -1.32399,-1.32398v0c0,-0.73122 0.59277,-1.32399 1.32399,-1.32399h10.59189c0.73122,0 1.32399,0.59277 1.32399,1.32399v0c0,0.73122 -0.59277,1.32398 -1.32399,1.32398z" fill="#bcd5e0" stroke="none" stroke-width="2.5" stroke-linecap="butt"/><path d="M246.61993,184.23676c-0.73122,0 -1.32399,-0.59277 -1.32399,-1.32398v-15.88784c0,-0.73122 0.59277,-1.32398 1.32399,-1.32398v0c0.73122,0 1.32398,0.59277 1.32398,1.32398v15.88784c0,0.73122 -0.59277,1.32398 -1.32398,1.32398z" fill="#bcd5e0" stroke="none" stroke-width="2.5" stroke-linecap="butt"/><path d="M246.61993,168.34892c-0.73122,0 -1.32399,-0.59277 -1.32399,-1.32399v0c0,-0.73122 0.59277,-1.32398 1.32399,-1.32398h18.53581c0.73122,0 1.32399,0.59277 1.32399,1.32398v0c0,0.73122 -0.59277,1.32399 -1.32399,1.32399z" fill="#bcd5e0" stroke="none" stroke-width="2.5" stroke-linecap="butt"/><path d="M214.84426,193.50466h10.59189" fill="#000000" stroke="#213a34" stroke-width="2" stroke-linecap="round"/><path d="M225.43615,193.50466v-10.59189" fill="#000000" stroke="#213a34" stroke-width="2" stroke-linecap="round"/><path d="M220.1402,182.91277h5.29595" fill="#000000" stroke="#213a34" stroke-width="2" stroke-linecap="round"/><path d="M220.1402,182.91277v-15.88784" fill="#000000" stroke="#213a34" stroke-width="2" stroke-linecap="round"/><path d="M230.73209,167.02493h-10.59189" fill="#000000" stroke="#213a34" stroke-width="2" stroke-linecap="round"/><path d="M230.73209,161.72899v5.29595" fill="#000000" stroke="#213a34" stroke-width="2" stroke-linecap="round"/><path d="M230.73209,161.72899h5.29595" fill="#000000" stroke="#213a34" stroke-width="2" stroke-linecap="round"/><path d="M236.02804,161.72899v31.77568" fill="#000000" stroke="#213a34" stroke-width="2" stroke-linecap="round"/><path d="M236.02804,193.50466h21.18378" fill="#000000" stroke="#213a34" stroke-width="2" stroke-linecap="round"/><path d="M257.21182,193.50466v-10.59189" fill="#000000" stroke="#213a34" stroke-width="2" stroke-linecap="round"/><path d="M257.21182,182.91277h-10.59189" fill="#000000" stroke="#213a34" stroke-width="2" stroke-linecap="round"/><path d="M246.61993,167.02493v15.88784" fill="#000000" stroke="#213a34" stroke-width="2" stroke-linecap="round"/><path d="M246.61993,167.02493h18.53581" fill="#000000" stroke="#213a34" stroke-width="2" stroke-linecap="round"/><path d="M222.52338,198.80061c0,-0.14624 0.11856,-0.2648 0.2648,-0.2648c0.14624,0 0.2648,0.11856 0.2648,0.2648c0,0.14624 -0.11856,0.2648 -0.2648,0.2648c-0.14624,0 -0.2648,-0.11856 -0.2648,-0.2648z" fill-opacity="0.8" fill="#75afff" stroke="none" stroke-width="2.5" stroke-linecap="butt"/><path d="M221.99378,198.80061c0,-0.43873 0.35566,-0.79439 0.79439,-0.79439c0.43873,0 0.79439,0.35566 0.79439,0.79439c0,0.43873 -0.35566,0.79439 -0.79439,0.79439c-0.43873,0 -0.79439,-0.35566 -0.79439,-0.79439z" fill-opacity="0.6" fill="#75afff" stroke="none" stroke-width="2.5" stroke-linecap="butt"/><path d="M251.65108,198.80061c0,-0.14624 0.11856,-0.2648 0.2648,-0.2648c0.14624,0 0.2648,0.11856 0.2648,0.2648c0,0.14624 -0.11856,0.2648 -0.2648,0.2648c-0.14624,0 -0.2648,-0.11856 -0.2648,-0.2648z" fill-opacity="0.8" fill="#d275ff" stroke="none" stroke-width="2.5" stroke-linecap="butt"/><path d="M251.12149,198.80061c0,-0.43873 0.35566,-0.79439 0.79439,-0.79439c0.43873,0 0.79439,0.35566 0.79439,0.79439c0,0.43873 -0.35566,0.79439 -0.79439,0.79439c-0.43873,0 -0.79439,-0.35566 -0.79439,-0.79439z" fill-opacity="0.6" fill="#d275ff" stroke="none" stroke-width="2.5" stroke-linecap="butt"/><path d="M243.70716,196.15264c0,-0.14624 0.11856,-0.2648 0.2648,-0.2648c0.14624,0 0.2648,0.11856 0.2648,0.2648c0,0.14624 -0.11856,0.2648 -0.2648,0.2648c-0.14624,0 -0.2648,-0.11856 -0.2648,-0.2648z" fill-opacity="0.8" fill="#7595ff" stroke="none" stroke-width="2.5" stroke-linecap="butt"/><path d="M243.17757,196.15264c0,-0.43873 0.35566,-0.79439 0.79439,-0.79439c0.43873,0 0.79439,0.35566 0.79439,0.79439c0,0.43873 -0.35566,0.79439 -0.79439,0.79439c-0.43873,0 -0.79439,-0.35566 -0.79439,-0.79439z" fill-opacity="0.6" fill="#7595ff" stroke="none" stroke-width="2.5" stroke-linecap="butt"/><path d="M262.24297,193.50466c0,-0.14624 0.11856,-0.2648 0.2648,-0.2648c0.14624,0 0.2648,0.11856 0.2648,0.2648c0,0.14624 -0.11856,0.2648 -0.2648,0.2648c-0.14624,0 -0.2648,-0.11856 -0.2648,-0.2648z" fill-opacity="0.8" fill="#9e75ff" stroke="none" stroke-width="2.5" stroke-linecap="butt"/><path d="M261.71338,193.50466c0,-0.43873 0.35566,-0.79439 0.79439,-0.79439c0.43873,0 0.79439,0.35566 0.79439,0.79439c0,0.43873 -0.35566,0.79439 -0.79439,0.79439c-0.43873,0 -0.79439,-0.35566 -0.79439,-0.79439z" fill-opacity="0.6" fill="#9e75ff" stroke="none" stroke-width="2.5" stroke-linecap="butt"/><path d="M227.81932,190.85669c0,-0.14624 0.11856,-0.2648 0.2648,-0.2648c0.14624,0 0.2648,0.11856 0.2648,0.2648c0,0.14624 -0.11856,0.2648 -0.2648,0.2648c-0.14624,0 -0.2648,-0.11856 -0.2648,-0.2648z" fill-opacity="0.8" fill="#a475ff" stroke="none" stroke-width="2.5" stroke-linecap="butt"/><path d="M227.28973,190.85669c0,-0.43873 0.35566,-0.79439 0.79439,-0.79439c0.43873,0 0.79439,0.35566 0.79439,0.79439c0,0.43873 -0.35566,0.79439 -0.79439,0.79439c-0.43873,0 -0.79439,-0.35566 -0.79439,-0.79439z" fill-opacity="0.6" fill="#a475ff" stroke="none" stroke-width="2.5" stroke-linecap="butt"/><path d="M246.35514,188.20872c0,-0.14624 0.11856,-0.2648 0.2648,-0.2648c0.14624,0 0.2648,0.11856 0.2648,0.2648c0,0.14624 -0.11856,0.2648 -0.2648,0.2648c-0.14624,0 -0.2648,-0.11856 -0.2648,-0.2648z" fill-opacity="0.8" fill="#ed75ff" stroke="none" stroke-width="2.5" stroke-linecap="butt"/><path d="M245.82554,188.20872c0,-0.43873 0.35566,-0.79439 0.79439,-0.79439c0.43873,0 0.79439,0.35566 0.79439,0.79439c0,0.43873 -0.35566,0.79439 -0.79439,0.79439c-0.43873,0 -0.79439,-0.35566 -0.79439,-0.79439z" fill-opacity="0.6" fill="#ed75ff" stroke="none" stroke-width="2.5" stroke-linecap="butt"/><path d="M259.595,185.56074c0,-0.14624 0.11856,-0.2648 0.2648,-0.2648c0.14624,0 0.2648,0.11856 0.2648,0.2648c0,0.14624 -0.11856,0.2648 -0.2648,0.2648c-0.14624,0 -0.2648,-0.11856 -0.2648,-0.2648z" fill-opacity="0.8" fill="#75a2ff" stroke="none" stroke-width="2.5" stroke-linecap="butt"/><path d="M259.06541,185.56074c0,-0.43873 0.35566,-0.79439 0.79439,-0.79439c0.43873,0 0.79439,0.35566 0.79439,0.79439c0,0.43873 -0.35566,0.79439 -0.79439,0.79439c-0.43873,0 -0.79439,-0.35566 -0.79439,-0.79439z" fill-opacity="0.6" fill="#75a2ff" stroke="none" stroke-width="2.5" stroke-linecap="butt"/><path d="M214.57946,182.91277c0,-0.14624 0.11856,-0.2648 0.2648,-0.2648c0.14624,0 0.26479,0.11856 0.26479,0.2648c0,0.14624 -0.11855,0.2648 -0.26479,0.2648c-0.14624,0 -0.2648,-0.11856 -0.2648,-0.2648z" fill-opacity="0.8" fill="#75ffd0" stroke="none" stroke-width="2.5" stroke-linecap="butt"/><path d="M214.04987,182.91277c0,-0.43873 0.35566,-0.79439 0.79439,-0.79439c0.43873,0 0.79439,0.35566 0.79439,0.79439c0,0.43873 -0.35566,0.79439 -0.79439,0.79439c-0.43873,0 -0.79439,-0.35566 -0.79439,-0.79439z" fill-opacity="0.6" fill="#75ffd0" stroke="none" stroke-width="2.5" stroke-linecap="butt"/><path d="M233.11527,182.91277c0,-0.14624 0.11856,-0.2648 0.2648,-0.2648c0.14624,0 0.2648,0.11856 0.2648,0.2648c0,0.14624 -0.11856,0.2648 -0.2648,0.2648c-0.14624,0 -0.2648,-0.11856 -0.2648,-0.2648z" fill-opacity="0.8" fill="#75ffd7" stroke="none" stroke-width="2.5" stroke-linecap="butt"/><path d="M232.58568,182.91277c0,-0.43873 0.35566,-0.79439 0.79439,-0.79439c0.43873,0 0.79439,0.35566 0.79439,0.79439c0,0.43873 -0.35566,0.79439 -0.79439,0.79439c-0.43873,0 -0.79439,-0.35566 -0.79439,-0.79439z" fill-opacity="0.6" fill="#75ffd7" stroke="none" stroke-width="2.5" stroke-linecap="butt"/><path d="M225.17135,180.2648c0,-0.14624 0.11856,-0.2648 0.2648,-0.2648c0.14624,0 0.2648,0.11856 0.2648,0.2648c0,0.14624 -0.11856,0.26479 -0.2648,0.26479c-0.14624,0 -0.2648,-0.11855 -0.2648,-0.26479z" fill-opacity="0.8" fill="#9075ff" stroke="none" stroke-width="2.5" stroke-linecap="butt"/><path d="M224.64176,180.2648c0,-0.43873 0.35566,-0.79439 0.79439,-0.79439c0.43873,0 0.79439,0.35566 0.79439,0.79439c0,0.43873 -0.35566,0.79439 -0.79439,0.79439c-0.43873,0 -0.79439,-0.35566 -0.79439,-0.79439z" fill-opacity="0.6" fill="#9075ff" stroke="none" stroke-width="2.5" stroke-linecap="butt"/><path d="M243.70716,180.2648c0,-0.14624 0.11856,-0.2648 0.2648,-0.2648c0.14624,0 0.2648,0.11856 0.2648,0.2648c0,0.14624 -0.11856,0.26479 -0.2648,0.26479c-0.14624,0 -0.2648,-0.11855 -0.2648,-0.26479z" fill-opacity="0.8" fill="#9775ff" stroke="none" stroke-width="2.5" stroke-linecap="butt"/><path d="M243.17757,180.2648c0,-0.43873 0.35566,-0.79439 0.79439,-0.79439c0.43873,0 0.79439,0.35566 0.79439,0.79439c0,0.43873 -0.35566,0.79439 -0.79439,0.79439c-0.43873,0 -0.79439,-0.35566 -0.79439,-0.79439z" fill-opacity="0.6" fill="#9775ff" stroke="none" stroke-width="2.5" stroke-linecap="butt"/><path d="M256.94703,180.2648c0,-0.14624 0.11856,-0.2648 0.2648,-0.2648c0.14624,0 0.2648,0.11856 0.2648,0.2648c0,0.14624 -0.11856,0.26479 -0.2648,0.26479c-0.14624,0 -0.2648,-0.11855 -0.2648,-0.26479z" fill-opacity="0.8" fill="#75ffc3" stroke="none" stroke-width="2.5" stroke-linecap="butt"/><path d="M256.41743,180.2648c0,-0.43873 0.35566,-0.79439 0.79439,-0.79439c0.43873,0 0.79439,0.35566 0.79439,0.79439c0,0.43873 -0.35566,0.79439 -0.79439,0.79439c-0.43873,0 -0.79439,-0.35566 -0.79439,-0.79439z" fill-opacity="0.6" fill="#75ffc3" stroke="none" stroke-width="2.5" stroke-linecap="butt"/><path d="M264.89095,177.61682c0,-0.14624 0.11855,-0.26479 0.26479,-0.26479c0.14624,0 0.2648,0.11855 0.2648,0.26479c0,0.14624 -0.11856,0.2648 -0.2648,0.2648c-0.14624,0 -0.26479,-0.11856 -0.26479,-0.2648z" fill-opacity="0.8" fill="#b175ff" stroke="none" stroke-width="2.5" stroke-linecap="butt"/><path d="M264.36135,177.61682c0,-0.43873 0.35566,-0.79439 0.79439,-0.79439c0.43873,0 0.79439,0.35566 0.79439,0.79439c0,0.43873 -0.35566,0.79439 -0.79439,0.79439c-0.43873,0 -0.79439,-0.35566 -0.79439,-0.79439z" fill-opacity="0.6" fill="#b175ff" stroke="none" stroke-width="2.5" stroke-linecap="butt"/><path d="M233.11527,174.96885c0,-0.14624 0.11856,-0.2648 0.2648,-0.2648c0.14624,0 0.2648,0.11856 0.2648,0.2648c0,0.14624 -0.11856,0.2648 -0.2648,0.2648c-0.14624,0 -0.2648,-0.11856 -0.2648,-0.2648z" fill-opacity="0.8" fill="#8a75ff" stroke="none" stroke-width="2.5" stroke-linecap="butt"/><path d="M232.58568,174.96885c0,-0.43873 0.35566,-0.79439 0.79439,-0.79439c0.43873,0 0.79439,0.35566 0.79439,0.79439c0,0.43873 -0.35566,0.79439 -0.79439,0.79439c-0.43873,0 -0.79439,-0.35566 -0.79439,-0.79439z" fill-opacity="0.6" fill="#8a75ff" stroke="none" stroke-width="2.5" stroke-linecap="butt"/><path d="M227.81932,169.67291c0,-0.14624 0.11856,-0.2648 0.2648,-0.2648c0.14624,0 0.2648,0.11856 0.2648,0.2648c0,0.14624 -0.11856,0.2648 -0.2648,0.2648c-0.14624,0 -0.2648,-0.11856 -0.2648,-0.2648z" fill-opacity="0.8" fill="#75caff" stroke="none" stroke-width="2.5" stroke-linecap="butt"/><path d="M227.28973,169.67291c0,-0.43873 0.35566,-0.79439 0.79439,-0.79439c0.43873,0 0.79439,0.35566 0.79439,0.79439c0,0.43873 -0.35566,0.79439 -0.79439,0.79439c-0.43873,0 -0.79439,-0.35566 -0.79439,-0.79439z" fill-opacity="0.6" fill="#75caff" stroke="none" stroke-width="2.5" stroke-linecap="butt"/><path d="M254.29905,164.37696c0,-0.14624 0.11856,-0.2648 0.2648,-0.2648c0.14624,0 0.2648,0.11856 0.2648,0.2648c0,0.14624 -0.11856,0.2648 -0.2648,0.2648c-0.14624,0 -0.2648,-0.11856 -0.2648,-0.2648z" fill-opacity="0.8" fill="#75caff" stroke="none" stroke-width="2.5" stroke-linecap="butt"/><path d="M219.87541,161.72899c0,-0.14624 0.11856,-0.2648 0.2648,-0.2648c0.14624,0 0.2648,0.11856 0.2648,0.2648c0,0.14624 -0.11856,0.2648 -0.2648,0.2648c-0.14624,0 -0.2648,-0.11856 -0.2648,-0.2648z" fill-opacity="0.8" fill="#75c3ff" stroke="none" stroke-width="2.5" stroke-linecap="butt"/><path d="M219.34581,161.72899c0,-0.43873 0.35566,-0.79439 0.79439,-0.79439c0.43873,0 0.79439,0.35566 0.79439,0.79439c0,0.43873 -0.35566,0.79439 -0.79439,0.79439c-0.43873,0 -0.79439,-0.35566 -0.79439,-0.79439z" fill-opacity="0.6" fill="#75c3ff" stroke="none" stroke-width="2.5" stroke-linecap="butt"/><path d="M213.52027,193.50466c0,-0.73122 0.59277,-1.32398 1.32399,-1.32398c0.73122,0 1.32398,0.59277 1.32398,1.32398c0,0.73122 -0.59277,1.32399 -1.32398,1.32399c-0.73122,0 -1.32399,-0.59277 -1.32399,-1.32399z" fill-opacity="0.35" fill="#00ff44" stroke="none" stroke-width="2.5" stroke-linecap="butt"/><path d="M263.83176,167.02493c0,-0.73122 0.59277,-1.32398 1.32398,-1.32398c0.73122,0 1.32399,0.59277 1.32399,1.32398c0,0.73122 -0.59277,1.32399 -1.32399,1.32399c-0.73122,0 -1.32398,-0.59277 -1.32398,-1.32399z" fill-opacity="0.35" fill="#ff0404" stroke="none" stroke-width="2.5" stroke-linecap="butt"/></g></g></svg>