<svg version="1.1" xmlns="http://www.w3.org/2000/svg" xmlns:xlink="http://www.w3.org/1999/xlink" width="62.44658" height="60.26072" viewBox="0,0,62.44658,60.26072"><defs><linearGradient x1="271.06156" y1="121.10222" x2="271.06156" y2="179.86293" gradientUnits="userSpaceOnUse" id="color-1"><stop offset="0" stop-color="#567357"/><stop offset="1" stop-color="#2e5729"/></linearGradient><linearGradient x1="270.89207" y1="167.57146" x2="270.89207" y2="180.14306" gradientUnits="userSpaceOnUse" id="color-2"><stop offset="0" stop-color="#70bb5b"/><stop offset="1" stop-color="#296f15"/></linearGradient><radialGradient cx="247.32225" cy="137.82694" r="3.01019" gradientUnits="userSpaceOnUse" id="color-3"><stop offset="0" stop-color="#ff4545"/><stop offset="1" stop-color="#ff8989"/></radialGradient><radialGradient cx="247.31341" cy="144.16839" r="3.01018" gradientUnits="userSpaceOnUse" id="color-4"><stop offset="0" stop-color="#ff4545"/><stop offset="1" stop-color="#ff8989"/></radialGradient><radialGradient cx="254.04738" cy="137.73782" r="3.01018" gradientUnits="userSpaceOnUse" id="color-5"><stop offset="0" stop-color="#ff4545"/><stop offset="1" stop-color="#ff8989"/></radialGradient><radialGradient cx="253.9671" cy="144.07928" r="3.01019" gradientUnits="userSpaceOnUse" id="color-6"><stop offset="0" stop-color="#ff4545"/><stop offset="1" stop-color="#ff8989"/></radialGradient><radialGradient cx="247.26868" cy="150.63051" r="3.01019" gradientUnits="userSpaceOnUse" id="color-7"><stop offset="0" stop-color="#ff4545"/><stop offset="1" stop-color="#ff8989"/></radialGradient><radialGradient cx="253.92238" cy="150.61282" r="3.01018" gradientUnits="userSpaceOnUse" id="color-8"><stop offset="0" stop-color="#ff4545"/><stop offset="1" stop-color="#ff8989"/></radialGradient><radialGradient cx="260.50282" cy="143.98999" r="3.01018" gradientUnits="userSpaceOnUse" id="color-9"><stop offset="0" stop-color="#3793cc"/><stop offset="1" stop-color="#8ad7ff"/></radialGradient><radialGradient cx="260.45809" cy="150.52354" r="3.01018" gradientUnits="userSpaceOnUse" id="color-10"><stop offset="0" stop-color="#3793cc"/><stop offset="1" stop-color="#8ad7ff"/></radialGradient><radialGradient cx="267.05638" cy="144.00785" r="3.01019" gradientUnits="userSpaceOnUse" id="color-11"><stop offset="0" stop-color="#3793cc"/><stop offset="1" stop-color="#8ad7ff"/></radialGradient><radialGradient cx="267.01167" cy="150.54139" r="3.01018" gradientUnits="userSpaceOnUse" id="color-12"><stop offset="0" stop-color="#3793cc"/><stop offset="1" stop-color="#8ad7ff"/></radialGradient><radialGradient cx="273.52068" cy="143.98999" r="3.01018" gradientUnits="userSpaceOnUse" id="color-13"><stop offset="0" stop-color="#3793cc"/><stop offset="1" stop-color="#8ad7ff"/></radialGradient><radialGradient cx="273.47595" cy="150.52354" r="3.01018" gradientUnits="userSpaceOnUse" id="color-14"><stop offset="0" stop-color="#3793cc"/><stop offset="1" stop-color="#8ad7ff"/></radialGradient><radialGradient cx="280.19024" cy="150.59496" r="3.01018" gradientUnits="userSpaceOnUse" id="color-15"><stop offset="0" stop-color="#adcc37"/><stop offset="1" stop-color="#fcff8a"/></radialGradient><radialGradient cx="280.19024" cy="144.09496" r="3.01018" gradientUnits="userSpaceOnUse" id="color-16"><stop offset="0" stop-color="#adcc37"/><stop offset="1" stop-color="#fcff8a"/></radialGradient><radialGradient cx="286.83309" cy="150.79139" r="3.01018" gradientUnits="userSpaceOnUse" id="color-17"><stop offset="0" stop-color="#adcc37"/><stop offset="1" stop-color="#fcff8a"/></radialGradient><radialGradient cx="293.38667" cy="150.71996" r="3.01018" gradientUnits="userSpaceOnUse" id="color-18"><stop offset="0" stop-color="#adcc37"/><stop offset="1" stop-color="#fcff8a"/></radialGradient><radialGradient cx="286.76167" cy="144.14854" r="3.01018" gradientUnits="userSpaceOnUse" id="color-19"><stop offset="0" stop-color="#adcc37"/><stop offset="1" stop-color="#fcff8a"/></radialGradient><radialGradient cx="293.40452" cy="144.25568" r="3.01018" gradientUnits="userSpaceOnUse" id="color-20"><stop offset="0" stop-color="#adcc37"/><stop offset="1" stop-color="#fcff8a"/></radialGradient><radialGradient cx="280.17238" cy="137.64854" r="3.01018" gradientUnits="userSpaceOnUse" id="color-21"><stop offset="0" stop-color="#adcc37"/><stop offset="1" stop-color="#fcff8a"/></radialGradient><radialGradient cx="286.81524" cy="137.77354" r="3.01018" gradientUnits="userSpaceOnUse" id="color-22"><stop offset="0" stop-color="#adcc37"/><stop offset="1" stop-color="#fcff8a"/></radialGradient><radialGradient cx="293.45809" cy="137.73782" r="3.01018" gradientUnits="userSpaceOnUse" id="color-23"><stop offset="0" stop-color="#adcc37"/><stop offset="1" stop-color="#fcff8a"/></radialGradient><radialGradient cx="247.37582" cy="131.41622" r="3.01019" gradientUnits="userSpaceOnUse" id="color-24"><stop offset="0" stop-color="#ff4545"/><stop offset="1" stop-color="#ff8989"/></radialGradient><radialGradient cx="293.4294" cy="131.16622" r="3.01018" gradientUnits="userSpaceOnUse" id="color-25"><stop offset="0" stop-color="#ff4545"/><stop offset="1" stop-color="#ff8989"/></radialGradient><radialGradient cx="253.77952" cy="159.50568" r="3.01018" gradientUnits="userSpaceOnUse" id="color-26"><stop offset="0" stop-color="#4dd63b"/><stop offset="1" stop-color="#aaffa9"/></radialGradient><radialGradient cx="260.45809" cy="159.55925" r="3.01018" gradientUnits="userSpaceOnUse" id="color-27"><stop offset="0" stop-color="#4dd63b"/><stop offset="1" stop-color="#aaffa9"/></radialGradient><radialGradient cx="267.01167" cy="159.5771" r="3.01018" gradientUnits="userSpaceOnUse" id="color-28"><stop offset="0" stop-color="#4dd63b"/><stop offset="1" stop-color="#aaffa9"/></radialGradient><radialGradient cx="273.47595" cy="159.48782" r="3.01018" gradientUnits="userSpaceOnUse" id="color-29"><stop offset="0" stop-color="#4dd63b"/><stop offset="1" stop-color="#aaffa9"/></radialGradient><radialGradient cx="280.26167" cy="159.63068" r="3.01018" gradientUnits="userSpaceOnUse" id="color-30"><stop offset="0" stop-color="#4dd63b"/><stop offset="1" stop-color="#aaffa9"/></radialGradient><radialGradient cx="287.04738" cy="159.68425" r="3.01018" gradientUnits="userSpaceOnUse" id="color-31"><stop offset="0" stop-color="#4dd63b"/><stop offset="1" stop-color="#aaffa9"/></radialGradient></defs><g transform="translate(-239.79665,-120.35221)"><g data-paper-data="{&quot;isPaintingLayer&quot;:true}" fill-rule="nonzero" stroke-linecap="butt" stroke-linejoin="miter" stroke-miterlimit="10" stroke-dasharray="" stroke-dashoffset="0" style="mix-blend-mode: normal"><path d="M240.54666,179.86293v-58.76072h60.94658v58.76072z" fill="url(#color-1)" stroke="#3dab20" stroke-width="1.5"/><path d="M239.96351,180.14306v-12.57143h61.85715v12.57143z" fill="url(#color-2)" stroke="none" stroke-width="0"/><path d="M244.31207,140.83712v-6.02036h6.02037v6.02036z" fill="url(#color-3)" stroke="none" stroke-width="0"/><path d="M244.30323,147.17857v-6.02036h6.02036v6.02036z" fill="url(#color-4)" stroke="none" stroke-width="0"/><path d="M251.03719,140.74801v-6.02037h6.02036v6.02037z" fill="url(#color-5)" stroke="none" stroke-width="0"/><path d="M250.95692,147.08945v-6.02036h6.02037v6.02036z" fill="url(#color-6)" stroke="none" stroke-width="0"/><path d="M244.2585,153.64068v-6.02036h6.02037v6.02036z" fill="url(#color-7)" stroke="none" stroke-width="0"/><path d="M250.91219,153.62301v-6.02037h6.02036v6.02037z" fill="url(#color-8)" stroke="none" stroke-width="0"/><path d="M257.49262,147.00017v-6.02036h6.02037v6.02036z" fill="url(#color-9)" stroke="none" stroke-width="0"/><path d="M257.44791,153.53372v-6.02037h6.02036v6.02037z" fill="url(#color-10)" stroke="none" stroke-width="0"/><path d="M264.04621,147.01803v-6.02036h6.02037v6.02036z" fill="url(#color-11)" stroke="none" stroke-width="0"/><path d="M264.00148,153.55158v-6.02037h6.02037v6.02037z" fill="url(#color-12)" stroke="none" stroke-width="0"/><path d="M270.5105,147.00017v-6.02036h6.02036v6.02036z" fill="url(#color-13)" stroke="none" stroke-width="0"/><path d="M270.46577,153.53372v-6.02037h6.02037v6.02037z" fill="url(#color-14)" stroke="none" stroke-width="0"/><path d="M277.18005,153.60515v-6.02037h6.02036v6.02037z" fill="url(#color-15)" stroke="none" stroke-width="0"/><path d="M277.18005,147.10515v-6.02037h6.02036v6.02037z" fill="url(#color-16)" stroke="none" stroke-width="0"/><path d="M283.82291,153.80158v-6.02037h6.02036v6.02037z" fill="url(#color-17)" stroke="none" stroke-width="0"/><path d="M290.37648,153.73015v-6.02037h6.02037v6.02037z" fill="url(#color-18)" stroke="none" stroke-width="0"/><path d="M283.75148,147.15872v-6.02037h6.02037v6.02037z" fill="url(#color-19)" stroke="none" stroke-width="0"/><path d="M290.39432,147.26586v-6.02037h6.02037v6.02037z" fill="url(#color-20)" stroke="none" stroke-width="0"/><path d="M277.16219,140.65872v-6.02037h6.02037v6.02037z" fill="url(#color-21)" stroke="none" stroke-width="0"/><path d="M283.80505,140.78372v-6.02037h6.02036v6.02037z" fill="url(#color-22)" stroke="none" stroke-width="0"/><path d="M290.44791,140.74801v-6.02037h6.02036v6.02037z" fill="url(#color-23)" stroke="none" stroke-width="0"/><path d="M244.36564,134.4264v-6.02036h6.02037v6.02036z" fill="url(#color-24)" stroke="none" stroke-width="0"/><path d="M290.41921,134.1764v-6.02036h6.02037v6.02036z" fill="url(#color-25)" stroke="none" stroke-width="0"/><path d="M250.76934,162.51586v-6.02037h6.02036v6.02037z" fill="url(#color-26)" stroke="none" stroke-width="0"/><path d="M257.44791,162.56943v-6.02037h6.02036v6.02037z" fill="url(#color-27)" stroke="none" stroke-width="0"/><path d="M264.00148,162.58729v-6.02037h6.02037v6.02037z" fill="url(#color-28)" stroke="none" stroke-width="0"/><path d="M270.46577,162.49801v-6.02037h6.02037v6.02037z" fill="url(#color-29)" stroke="none" stroke-width="0"/><path d="M277.25148,162.64086v-6.02037h6.02037v6.02037z" fill="url(#color-30)" stroke="none" stroke-width="0"/><path d="M284.03719,162.69444v-6.02037h6.02037v6.02037z" fill="url(#color-31)" stroke="none" stroke-width="0"/></g></g></svg>