<svg version="1.1" xmlns="http://www.w3.org/2000/svg" xmlns:xlink="http://www.w3.org/1999/xlink" width="55.125" height="55.125" viewBox="0,0,55.125,55.125"><defs><linearGradient x1="240" y1="153.1875" x2="240" y2="206.8125" gradientUnits="userSpaceOnUse" id="color-1"><stop offset="0" stop-color="#360220"/><stop offset="1" stop-color="#000000" stop-opacity="0.60925"/></linearGradient><linearGradient x1="240" y1="153.1875" x2="240" y2="206.8125" gradientUnits="userSpaceOnUse" id="color-2"><stop offset="0" stop-color="#ff008d"/><stop offset="1" stop-color="#ff008d" stop-opacity="0"/></linearGradient><linearGradient x1="240.20801" y1="162.48354" x2="240.20801" y2="195.73354" gradientUnits="userSpaceOnUse" id="color-3"><stop offset="0" stop-color="#ffe7a8"/><stop offset="1" stop-color="#ffa100"/></linearGradient><linearGradient x1="240.20801" y1="162.48354" x2="240.20801" y2="196.53354" gradientUnits="userSpaceOnUse" id="color-4"><stop offset="0" stop-color="#ffe8c1"/><stop offset="1" stop-color="#ffe8c1" stop-opacity="0"/></linearGradient><radialGradient cx="240.05801" cy="173.98354" r="6.3" gradientUnits="userSpaceOnUse" id="color-5"><stop offset="0" stop-color="#ff00d2"/><stop offset="1" stop-color="#ff0000"/></radialGradient><linearGradient x1="240.05801" y1="169.93354" x2="240.05801" y2="178.03354" gradientUnits="userSpaceOnUse" id="color-6"><stop offset="0" stop-color="#ff0000"/><stop offset="1" stop-color="#ff0000" stop-opacity="0"/></linearGradient><radialGradient cx="224.75801" cy="177.96926" r="4.1" gradientUnits="userSpaceOnUse" id="color-7"><stop offset="0" stop-color="#ff00d2"/><stop offset="1" stop-color="#ff0000"/></radialGradient><linearGradient x1="224.75801" y1="175.33354" x2="224.75801" y2="180.60497" gradientUnits="userSpaceOnUse" id="color-8"><stop offset="0" stop-color="#ff0000"/><stop offset="1" stop-color="#ff0000" stop-opacity="0"/></linearGradient><radialGradient cx="254.85801" cy="178.46926" r="4.1" gradientUnits="userSpaceOnUse" id="color-9"><stop offset="0" stop-color="#ff00d2"/><stop offset="1" stop-color="#ff0000"/></radialGradient><linearGradient x1="254.85801" y1="175.83354" x2="254.85801" y2="181.10497" gradientUnits="userSpaceOnUse" id="color-10"><stop offset="0" stop-color="#ff0000"/><stop offset="1" stop-color="#ff0000" stop-opacity="0"/></linearGradient></defs><g transform="translate(-212.4375,-152.4375)"><g data-paper-data="{&quot;isPaintingLayer&quot;:true}" fill-rule="nonzero" stroke-linejoin="miter" stroke-miterlimit="10" stroke-dasharray="" stroke-dashoffset="0" style="mix-blend-mode: normal"><path d="M213.1875,206.8125v-53.625h53.625v53.625z" fill="url(#color-1)" stroke="url(#color-2)" stroke-width="1.5" stroke-linecap="butt"/><path d="M261.35801,195.53354v-32.4l-10.2,10.2l-10.85,-10.85l-10.95,10.95l-10.3,-10.3v31.9c0,0 14.4622,-2.55033 21.19611,-2.47073c7.31753,0.0865 21.10389,2.97073 21.10389,2.97073z" fill="url(#color-3)" stroke="url(#color-4)" stroke-width="2" stroke-linecap="round"/><path d="M238.15801,169.93354h4.1l4.1,4.1l-4,4h-4.8l-3.8,-3.8z" fill="url(#color-5)" stroke="url(#color-6)" stroke-width="0.5" stroke-linecap="round"/><path d="M223.5215,175.33354h2.66825l2.66826,2.66825l-2.60317,2.60318h-3.12381l-2.47302,-2.47302z" fill="url(#color-7)" stroke="url(#color-8)" stroke-width="0.5" stroke-linecap="round"/><path d="M253.6215,175.83354h2.66826l2.66825,2.66825l-2.60318,2.60318h-3.12381l-2.47301,-2.47302z" fill="url(#color-9)" stroke="url(#color-10)" stroke-width="0.5" stroke-linecap="round"/></g></g></svg>