<svg width="480px" height="360px" xmlns="http://www.w3.org/2000/svg"><path fill="#F00" d="M243.060 184.187L243.060 182.510Q243.685 182.534 244.272 182.399Q244.860 182.265 245.307 182.002Q245.754 181.738 246.023 181.347Q246.292 180.955 246.292 180.453L246.292 180.453Q246.292 179.939 246.115 179.621Q245.937 179.302 245.717 179.033Q245.497 178.764 245.319 178.458Q245.142 178.151 245.142 177.637L245.142 177.637Q245.142 177.380 245.239 177.099Q245.337 176.817 245.539 176.585Q245.741 176.352 246.054 176.205Q246.366 176.058 246.794 176.058L246.794 176.058Q247.223 176.058 247.621 176.236Q248.018 176.413 248.318 176.780Q248.618 177.148 248.796 177.699Q248.973 178.249 248.973 178.996L248.973 178.996Q248.973 180.012 248.600 180.949Q248.226 181.885 247.486 182.607Q246.745 183.330 245.637 183.758Q244.529 184.187 243.060 184.187L243.060 184.187ZM246.892 167.489L246.892 167.489Q247.272 167.489 247.614 167.642Q247.957 167.795 248.214 168.052Q248.471 168.309 248.624 168.652Q248.777 168.995 248.777 169.374L248.777 169.374Q248.777 169.766 248.624 170.103Q248.471 170.439 248.214 170.696Q247.957 170.953 247.614 171.100Q247.272 171.247 246.892 171.247L246.892 171.247Q246.500 171.247 246.164 171.100Q245.827 170.953 245.570 170.696Q245.313 170.439 245.166 170.103Q245.019 169.766 245.019 169.374L245.019 169.374Q245.019 168.995 245.166 168.652Q245.313 168.309 245.570 168.052Q245.827 167.795 246.164 167.642Q246.500 167.489 246.892 167.489Z"/></svg>