<svg version="1.1" xmlns="http://www.w3.org/2000/svg" xmlns:xlink="http://www.w3.org/1999/xlink" width="48.36794" height="42.4335" viewBox="0,0,48.36794,42.4335"><defs><radialGradient cx="240" cy="180" r="24.18397" gradientUnits="userSpaceOnUse" id="color-1"><stop offset="0" stop-color="#ffffff"/><stop offset="1" stop-color="#ffffff" stop-opacity="0"/></radialGradient><radialGradient cx="240" cy="180" r="24.18397" gradientUnits="userSpaceOnUse" id="color-2"><stop offset="0" stop-color="#000000" stop-opacity="0"/><stop offset="1" stop-color="#000000" stop-opacity="0"/></radialGradient><radialGradient cx="240" cy="180" r="17.02424" gradientUnits="userSpaceOnUse" id="color-3"><stop offset="0" stop-color="#ffffff"/><stop offset="1" stop-color="#ffffff" stop-opacity="0"/></radialGradient><radialGradient cx="240" cy="180" r="17.02424" gradientUnits="userSpaceOnUse" id="color-4"><stop offset="0" stop-color="#000000" stop-opacity="0"/><stop offset="1" stop-color="#000000" stop-opacity="0"/></radialGradient><radialGradient cx="240" cy="180" r="21.39963" gradientUnits="userSpaceOnUse" id="color-5"><stop offset="0" stop-color="#ffffff"/><stop offset="1" stop-color="#ffffff" stop-opacity="0"/></radialGradient><radialGradient cx="240" cy="180" r="21.39963" gradientUnits="userSpaceOnUse" id="color-6"><stop offset="0" stop-color="#000000" stop-opacity="0"/><stop offset="1" stop-color="#000000" stop-opacity="0"/></radialGradient></defs><g transform="translate(-215.81603,-158.78325)"><g data-paper-data="{&quot;isPaintingLayer&quot;:true}" fill-rule="nonzero" stroke-width="0" stroke-linecap="butt" stroke-linejoin="miter" stroke-miterlimit="10" stroke-dasharray="" stroke-dashoffset="0" style="mix-blend-mode: normal"><path d="M215.81603,180c0,-11.71769 10.82753,-21.21675 24.18397,-21.21675c13.35644,0 24.18397,9.49906 24.18397,21.21675c0,11.71769 -10.82753,21.21675 -24.18397,21.21675c-13.35644,0 -24.18397,-9.49906 -24.18397,-21.21675z" fill="url(#color-1)" stroke="url(#color-2)"/><path d="M222.97576,180c0,-8.24864 7.62201,-14.93548 17.02424,-14.93548c9.40223,0 17.02424,6.68684 17.02424,14.93548c0,8.24864 -7.62201,14.93548 -17.02424,14.93548c-9.40223,0 -17.02424,-6.68684 -17.02424,-14.93548z" fill="url(#color-3)" stroke="url(#color-4)"/><path d="M218.60037,180c0,-10.36861 9.58094,-18.77404 21.39963,-18.77404c11.81869,0 21.39963,8.40542 21.39963,18.77404c0,10.36861 -9.58094,18.77404 -21.39963,18.77404c-11.81869,0 -21.39963,-8.40542 -21.39963,-18.77404z" fill="url(#color-5)" stroke="url(#color-6)"/></g></g></svg>