<svg version="1.1" xmlns="http://www.w3.org/2000/svg" xmlns:xlink="http://www.w3.org/1999/xlink" width="240.75" height="210.75" viewBox="0,0,240.75,210.75"><defs><linearGradient x1="120" y1="75" x2="120" y2="285" gradientUnits="userSpaceOnUse" id="color-1"><stop offset="0" stop-color="#0b697c"/><stop offset="1" stop-color="#021618"/></linearGradient></defs><g transform="translate(-119.625,-74.625)"><g data-paper-data="{&quot;isPaintingLayer&quot;:true}" fill-rule="nonzero" stroke-linejoin="miter" stroke-miterlimit="10" stroke-dasharray="" stroke-dashoffset="0" style="mix-blend-mode: normal"><path d="M120,285v-210h240v210z" fill="url(#color-1)" stroke="none" stroke-width="1" stroke-linecap="butt"/><path d="M120,75h240" fill="#000000" stroke-opacity="0.5" stroke="#ffffff" stroke-width="0.75" stroke-linecap="butt"/><path d="M120,90h240" fill="#000000" stroke-opacity="0.5" stroke="#ffffff" stroke-width="0.75" stroke-linecap="butt"/><path d="M120,105h240" fill="#000000" stroke-opacity="0.5" stroke="#ffffff" stroke-width="0.75" stroke-linecap="butt"/><path d="M120,120h240" fill="#000000" stroke-opacity="0.5" stroke="#ffffff" stroke-width="0.75" stroke-linecap="butt"/><path d="M120,135h240" fill="#000000" stroke-opacity="0.5" stroke="#ffffff" stroke-width="0.75" stroke-linecap="butt"/><path d="M120,150h240" fill="#000000" stroke-opacity="0.5" stroke="#ffffff" stroke-width="0.75" stroke-linecap="butt"/><path d="M120,165h240" fill="#000000" stroke-opacity="0.5" stroke="#ffffff" stroke-width="0.75" stroke-linecap="butt"/><path d="M120,180h240" fill="#000000" stroke-opacity="0.5" stroke="#ffffff" stroke-width="0.75" stroke-linecap="butt"/><path d="M120,195h240" fill="#000000" stroke-opacity="0.5" stroke="#ffffff" stroke-width="0.75" stroke-linecap="butt"/><path d="M120,210h240" fill="#000000" stroke-opacity="0.5" stroke="#ffffff" stroke-width="0.75" stroke-linecap="butt"/><path d="M120,225h240" fill="#000000" stroke-opacity="0.5" stroke="#ffffff" stroke-width="0.75" stroke-linecap="butt"/><path d="M120,240h240" fill="#000000" stroke-opacity="0.5" stroke="#ffffff" stroke-width="0.75" stroke-linecap="butt"/><path d="M120,255h240" fill="#000000" stroke-opacity="0.5" stroke="#ffffff" stroke-width="0.75" stroke-linecap="butt"/><path d="M120,270h240" fill="#000000" stroke-opacity="0.5" stroke="#ffffff" stroke-width="0.75" stroke-linecap="butt"/><path d="M120,285h240" fill="#000000" stroke-opacity="0.5" stroke="#ffffff" stroke-width="0.75" stroke-linecap="butt"/><path d="M120,75v210" fill="#000000" stroke-opacity="0.5" stroke="#ffffff" stroke-width="0.75" stroke-linecap="butt"/><path d="M135,75v210" fill="#000000" stroke-opacity="0.5" stroke="#ffffff" stroke-width="0.75" stroke-linecap="butt"/><path d="M150,75v210" fill="#000000" stroke-opacity="0.5" stroke="#ffffff" stroke-width="0.75" stroke-linecap="butt"/><path d="M165,75v210" fill="#000000" stroke-opacity="0.5" stroke="#ffffff" stroke-width="0.75" stroke-linecap="butt"/><path d="M180,75v210" fill="#000000" stroke-opacity="0.5" stroke="#ffffff" stroke-width="0.75" stroke-linecap="butt"/><path d="M195,75v210" fill="#000000" stroke-opacity="0.5" stroke="#ffffff" stroke-width="0.75" stroke-linecap="butt"/><path d="M210,75v210" fill="#000000" stroke-opacity="0.5" stroke="#ffffff" stroke-width="0.75" stroke-linecap="butt"/><path d="M225,75v210" fill="#000000" stroke-opacity="0.5" stroke="#ffffff" stroke-width="0.75" stroke-linecap="butt"/><path d="M240,75v210" fill="#000000" stroke-opacity="0.5" stroke="#ffffff" stroke-width="0.75" stroke-linecap="butt"/><path d="M255,75v210" fill="#000000" stroke-opacity="0.5" stroke="#ffffff" stroke-width="0.75" stroke-linecap="butt"/><path d="M270,75v210" fill="#000000" stroke-opacity="0.5" stroke="#ffffff" stroke-width="0.75" stroke-linecap="butt"/><path d="M285,75v210" fill="#000000" stroke-opacity="0.5" stroke="#ffffff" stroke-width="0.75" stroke-linecap="butt"/><path d="M300,75v210" fill="#000000" stroke-opacity="0.5" stroke="#ffffff" stroke-width="0.75" stroke-linecap="butt"/><path d="M315,75v210" fill="#000000" stroke-opacity="0.5" stroke="#ffffff" stroke-width="0.75" stroke-linecap="butt"/><path d="M330,75v210" fill="#000000" stroke-opacity="0.5" stroke="#ffffff" stroke-width="0.75" stroke-linecap="butt"/><path d="M345,75v210" fill="#000000" stroke-opacity="0.5" stroke="#ffffff" stroke-width="0.75" stroke-linecap="butt"/><path d="M360,75v210" fill="#000000" stroke-opacity="0.5" stroke="#ffffff" stroke-width="0.75" stroke-linecap="butt"/><path d="M127.5,202.5h75" fill="#000000" stroke-opacity="0.5" stroke="#a3ff33" stroke-width="14.25" stroke-linecap="round"/><path d="M202.5,202.5v15" fill="#000000" stroke-opacity="0.5" stroke="#a3ff33" stroke-width="14.25" stroke-linecap="round"/><path d="M202.5,217.5h15" fill="#000000" stroke-opacity="0.5" stroke="#a3ff33" stroke-width="14.25" stroke-linecap="round"/><path d="M217.5,217.5v15" fill="#000000" stroke-opacity="0.5" stroke="#a3ff33" stroke-width="14.25" stroke-linecap="round"/><path d="M217.5,232.5h135" fill="#000000" stroke-opacity="0.5" stroke="#a3ff33" stroke-width="14.25" stroke-linecap="round"/><path d="M127.5,157.5h75" fill="#000000" stroke-opacity="0.5" stroke="#a3ff33" stroke-width="14.25" stroke-linecap="round"/><path d="M202.5,157.5v-15" fill="#000000" stroke-opacity="0.5" stroke="#a3ff33" stroke-width="14.25" stroke-linecap="round"/><path d="M202.5,142.5h15" fill="#000000" stroke-opacity="0.5" stroke="#a3ff33" stroke-width="14.25" stroke-linecap="round"/><path d="M217.5,142.5v-15" fill="#000000" stroke-opacity="0.5" stroke="#a3ff33" stroke-width="14.25" stroke-linecap="round"/><path d="M217.5,127.5h135" fill="#000000" stroke-opacity="0.5" stroke="#a3ff33" stroke-width="14.25" stroke-linecap="round"/><path d="M127.5,202.5h75" fill="#000000" stroke="#bbff3d" stroke-width="9.75" stroke-linecap="round"/><path d="M202.5,202.5v15" fill="#000000" stroke="#bbff3d" stroke-width="9.75" stroke-linecap="round"/><path d="M202.5,217.5h15" fill="#000000" stroke="#bbff3d" stroke-width="9.75" stroke-linecap="round"/><path d="M217.5,217.5v15" fill="#000000" stroke="#bbff3d" stroke-width="9.75" stroke-linecap="round"/><path d="M217.5,232.5h135" fill="#000000" stroke="#bbff3d" stroke-width="9.75" stroke-linecap="round"/><path d="M127.5,157.5h75" fill="#000000" stroke="#bbff3d" stroke-width="9.75" stroke-linecap="round"/><path d="M202.5,157.5v-15" fill="#000000" stroke="#bbff3d" stroke-width="9.75" stroke-linecap="round"/><path d="M202.5,142.5h15" fill="#000000" stroke="#bbff3d" stroke-width="9.75" stroke-linecap="round"/><path d="M217.5,142.5v-15" fill="#000000" stroke="#bbff3d" stroke-width="9.75" stroke-linecap="round"/><path d="M217.5,127.5h135" fill="#000000" stroke="#bbff3d" stroke-width="9.75" stroke-linecap="round"/><path d="M127.5,225c-4.14214,0 -7.5,-3.35786 -7.5,-7.5v0c0,-4.14214 3.35786,-7.5 7.5,-7.5h60c4.14214,0 7.5,3.35786 7.5,7.5v0c0,4.14214 -3.35786,7.5 -7.5,7.5z" fill="#bcd5e0" stroke="none" stroke-width="1" stroke-linecap="butt"/><path d="M187.5,255c-4.14214,0 -7.5,-3.35786 -7.5,-7.5v-30c0,-4.14214 3.35786,-7.5 7.5,-7.5v0c4.14214,0 7.5,3.35786 7.5,7.5v30c0,4.14214 -3.35786,7.5 -7.5,7.5z" fill="#bcd5e0" stroke="none" stroke-width="1" stroke-linecap="butt"/><path d="M187.5,255c-4.14214,0 -7.5,-3.35786 -7.5,-7.5v0c0,-4.14214 3.35786,-7.5 7.5,-7.5h30c4.14214,0 7.5,3.35786 7.5,7.5v0c0,4.14214 -3.35786,7.5 -7.5,7.5z" fill="#bcd5e0" stroke="none" stroke-width="1" stroke-linecap="butt"/><path d="M217.5,270c-4.14214,0 -7.5,-3.35786 -7.5,-7.5v-15c0,-4.14214 3.35786,-7.5 7.5,-7.5v0c4.14214,0 7.5,3.35786 7.5,7.5v15c0,4.14214 -3.35786,7.5 -7.5,7.5z" fill="#bcd5e0" stroke="none" stroke-width="1" stroke-linecap="butt"/><path d="M217.5,270c-4.14214,0 -7.5,-3.35786 -7.5,-7.5v0c0,-4.14214 3.35786,-7.5 7.5,-7.5h75c4.14214,0 7.5,3.35786 7.5,7.5v0c0,4.14214 -3.35786,7.5 -7.5,7.5z" fill="#bcd5e0" stroke="none" stroke-width="1" stroke-linecap="butt"/><path d="M292.5,270c-4.14214,0 -7.5,-3.35786 -7.5,-7.5v-15c0,-4.14214 3.35786,-7.5 7.5,-7.5v0c4.14214,0 7.5,3.35786 7.5,7.5v15c0,4.14214 -3.35786,7.5 -7.5,7.5z" fill="#bcd5e0" stroke="none" stroke-width="1" stroke-linecap="butt"/><path d="M292.5,255c-4.14214,0 -7.5,-3.35786 -7.5,-7.5v0c0,-4.14214 3.35786,-7.5 7.5,-7.5h30c4.14214,0 7.5,3.35786 7.5,7.5v0c0,4.14214 -3.35786,7.5 -7.5,7.5z" fill="#bcd5e0" stroke="none" stroke-width="1" stroke-linecap="butt"/><path d="M322.5,255c-4.14214,0 -7.5,-3.35786 -7.5,-7.5v-30c0,-4.14214 3.35786,-7.5 7.5,-7.5v0c4.14214,0 7.5,3.35786 7.5,7.5v30c0,4.14214 -3.35786,7.5 -7.5,7.5z" fill="#bcd5e0" stroke="none" stroke-width="1" stroke-linecap="butt"/><path d="M322.5,225c-4.14214,0 -7.5,-3.35786 -7.5,-7.5v0c0,-4.14214 3.35786,-7.5 7.5,-7.5h15c4.14214,0 7.5,3.35786 7.5,7.5v0c0,4.14214 -3.35786,7.5 -7.5,7.5z" fill="#bcd5e0" stroke="none" stroke-width="1" stroke-linecap="butt"/><path d="M337.5,225c-4.14214,0 -7.5,-3.35786 -7.5,-7.5v-30c0,-4.14214 3.35786,-7.5 7.5,-7.5v0c4.14214,0 7.5,3.35786 7.5,7.5v30c0,4.14214 -3.35786,7.5 -7.5,7.5z" fill="#bcd5e0" stroke="none" stroke-width="1" stroke-linecap="butt"/><path d="M292.5,195c-4.14214,0 -7.5,-3.35786 -7.5,-7.5v0c0,-4.14214 3.35786,-7.5 7.5,-7.5h45c4.14214,0 7.5,3.35786 7.5,7.5v0c0,4.14214 -3.35786,7.5 -7.5,7.5z" fill="#bcd5e0" stroke="none" stroke-width="1" stroke-linecap="butt"/><path d="M292.5,210c-4.14214,0 -7.5,-3.35786 -7.5,-7.5v-15c0,-4.14214 3.35786,-7.5 7.5,-7.5v0c4.14214,0 7.5,3.35786 7.5,7.5v15c0,4.14214 -3.35786,7.5 -7.5,7.5z" fill="#bcd5e0" stroke="none" stroke-width="1" stroke-linecap="butt"/><path d="M277.5,210c-4.14214,0 -7.5,-3.35786 -7.5,-7.5v0c0,-4.14214 3.35786,-7.5 7.5,-7.5h15c4.14214,0 7.5,3.35786 7.5,7.5v0c0,4.14214 -3.35786,7.5 -7.5,7.5z" fill="#bcd5e0" stroke="none" stroke-width="1" stroke-linecap="butt"/><path d="M277.5,225c-4.14214,0 -7.5,-3.35786 -7.5,-7.5v-15c0,-4.14214 3.35786,-7.5 7.5,-7.5v0c4.14214,0 7.5,3.35786 7.5,7.5v15c0,4.14214 -3.35786,7.5 -7.5,7.5z" fill="#bcd5e0" stroke="none" stroke-width="1" stroke-linecap="butt"/><path d="M232.5,225c-4.14214,0 -7.5,-3.35786 -7.5,-7.5v0c0,-4.14214 3.35786,-7.5 7.5,-7.5h45c4.14214,0 7.5,3.35786 7.5,7.5v0c0,4.14214 -3.35786,7.5 -7.5,7.5z" fill="#bcd5e0" stroke="none" stroke-width="1" stroke-linecap="butt"/><path d="M232.5,225c-4.14214,0 -7.5,-3.35786 -7.5,-7.5v-15c0,-4.14214 3.35786,-7.5 7.5,-7.5v0c4.14214,0 7.5,3.35786 7.5,7.5v15c0,4.14214 -3.35786,7.5 -7.5,7.5z" fill="#bcd5e0" stroke="none" stroke-width="1" stroke-linecap="butt"/><path d="M217.5,210c-4.14214,0 -7.5,-3.35786 -7.5,-7.5v0c0,-4.14214 3.35786,-7.5 7.5,-7.5h15c4.14214,0 7.5,3.35786 7.5,7.5v0c0,4.14214 -3.35786,7.5 -7.5,7.5z" fill="#bcd5e0" stroke="none" stroke-width="1" stroke-linecap="butt"/><path d="M217.5,210c-4.14214,0 -7.5,-3.35786 -7.5,-7.5v-45c0,-4.14214 3.35786,-7.5 7.5,-7.5v0c4.14214,0 7.5,3.35786 7.5,7.5v45c0,4.14214 -3.35786,7.5 -7.5,7.5z" fill="#bcd5e0" stroke="none" stroke-width="1" stroke-linecap="butt"/><path d="M217.5,165c-4.14214,0 -7.5,-3.35786 -7.5,-7.5v0c0,-4.14214 3.35786,-7.5 7.5,-7.5h15c4.14214,0 7.5,3.35786 7.5,7.5v0c0,4.14214 -3.35786,7.5 -7.5,7.5z" fill="#bcd5e0" stroke="none" stroke-width="1" stroke-linecap="butt"/><path d="M232.5,165c-4.14214,0 -7.5,-3.35786 -7.5,-7.5v-15c0,-4.14214 3.35786,-7.5 7.5,-7.5v0c4.14214,0 7.5,3.35786 7.5,7.5v15c0,4.14214 -3.35786,7.5 -7.5,7.5z" fill="#bcd5e0" stroke="none" stroke-width="1" stroke-linecap="butt"/><path d="M232.5,150c-4.14214,0 -7.5,-3.35786 -7.5,-7.5v0c0,-4.14214 3.35786,-7.5 7.5,-7.5h45c4.14214,0 7.5,3.35786 7.5,7.5v0c0,4.14214 -3.35786,7.5 -7.5,7.5z" fill="#bcd5e0" stroke="none" stroke-width="1" stroke-linecap="butt"/><path d="M277.5,165c-4.14214,0 -7.5,-3.35786 -7.5,-7.5v-15c0,-4.14214 3.35786,-7.5 7.5,-7.5v0c4.14214,0 7.5,3.35786 7.5,7.5v15c0,4.14214 -3.35786,7.5 -7.5,7.5z" fill="#bcd5e0" stroke="none" stroke-width="1" stroke-linecap="butt"/><path d="M277.5,165c-4.14214,0 -7.5,-3.35786 -7.5,-7.5v0c0,-4.14214 3.35786,-7.5 7.5,-7.5h15c4.14214,0 7.5,3.35786 7.5,7.5v0c0,4.14214 -3.35786,7.5 -7.5,7.5z" fill="#bcd5e0" stroke="none" stroke-width="1" stroke-linecap="butt"/><path d="M292.5,180c-4.14214,0 -7.5,-3.35786 -7.5,-7.5v-15c0,-4.14214 3.35786,-7.5 7.5,-7.5v0c4.14214,0 7.5,3.35786 7.5,7.5v15c0,4.14214 -3.35786,7.5 -7.5,7.5z" fill="#bcd5e0" stroke="none" stroke-width="1" stroke-linecap="butt"/><path d="M292.5,180c-4.14214,0 -7.5,-3.35786 -7.5,-7.5v0c0,-4.14214 3.35786,-7.5 7.5,-7.5h45c4.14214,0 7.5,3.35786 7.5,7.5v0c0,4.14214 -3.35786,7.5 -7.5,7.5z" fill="#bcd5e0" stroke="none" stroke-width="1" stroke-linecap="butt"/><path d="M337.5,180c-4.14214,0 -7.5,-3.35786 -7.5,-7.5v-30c0,-4.14214 3.35786,-7.5 7.5,-7.5v0c4.14214,0 7.5,3.35786 7.5,7.5v30c0,4.14214 -3.35786,7.5 -7.5,7.5z" fill="#bcd5e0" stroke="none" stroke-width="1" stroke-linecap="butt"/><path d="M322.5,150c-4.14214,0 -7.5,-3.35786 -7.5,-7.5v0c0,-4.14214 3.35786,-7.5 7.5,-7.5h15c4.14214,0 7.5,3.35786 7.5,7.5v0c0,4.14214 -3.35786,7.5 -7.5,7.5z" fill="#bcd5e0" stroke="none" stroke-width="1" stroke-linecap="butt"/><path d="M322.5,150c-4.14214,0 -7.5,-3.35786 -7.5,-7.5v-30c0,-4.14214 3.35786,-7.5 7.5,-7.5v0c4.14214,0 7.5,3.35786 7.5,7.5v30c0,4.14214 -3.35786,7.5 -7.5,7.5z" fill="#bcd5e0" stroke="none" stroke-width="1" stroke-linecap="butt"/><path d="M292.5,120c-4.14214,0 -7.5,-3.35786 -7.5,-7.5v0c0,-4.14214 3.35786,-7.5 7.5,-7.5h30c4.14214,0 7.5,3.35786 7.5,7.5v0c0,4.14214 -3.35786,7.5 -7.5,7.5z" fill="#bcd5e0" stroke="none" stroke-width="1" stroke-linecap="butt"/><path d="M292.5,120c-4.14214,0 -7.5,-3.35786 -7.5,-7.5v-15c0,-4.14214 3.35786,-7.5 7.5,-7.5v0c4.14214,0 7.5,3.35786 7.5,7.5v15c0,4.14214 -3.35786,7.5 -7.5,7.5z" fill="#bcd5e0" stroke="none" stroke-width="1" stroke-linecap="butt"/><path d="M217.5,105c-4.14214,0 -7.5,-3.35786 -7.5,-7.5v0c0,-4.14214 3.35786,-7.5 7.5,-7.5h75c4.14214,0 7.5,3.35786 7.5,7.5v0c0,4.14214 -3.35786,7.5 -7.5,7.5z" fill="#bcd5e0" stroke="none" stroke-width="1" stroke-linecap="butt"/><path d="M217.5,120c-4.14214,0 -7.5,-3.35786 -7.5,-7.5v-15c0,-4.14214 3.35786,-7.5 7.5,-7.5v0c4.14214,0 7.5,3.35786 7.5,7.5v15c0,4.14214 -3.35786,7.5 -7.5,7.5z" fill="#bcd5e0" stroke="none" stroke-width="1" stroke-linecap="butt"/><path d="M187.5,120c-4.14214,0 -7.5,-3.35786 -7.5,-7.5v0c0,-4.14214 3.35786,-7.5 7.5,-7.5h30c4.14214,0 7.5,3.35786 7.5,7.5v0c0,4.14214 -3.35786,7.5 -7.5,7.5z" fill="#bcd5e0" stroke="none" stroke-width="1" stroke-linecap="butt"/><path d="M187.5,150c-4.14214,0 -7.5,-3.35786 -7.5,-7.5v-30c0,-4.14214 3.35786,-7.5 7.5,-7.5v0c4.14214,0 7.5,3.35786 7.5,7.5v30c0,4.14214 -3.35786,7.5 -7.5,7.5z" fill="#bcd5e0" stroke="none" stroke-width="1" stroke-linecap="butt"/><path d="M127.5,150c-4.14214,0 -7.5,-3.35786 -7.5,-7.5v0c0,-4.14214 3.35786,-7.5 7.5,-7.5h60c4.14214,0 7.5,3.35786 7.5,7.5v0c0,4.14214 -3.35786,7.5 -7.5,7.5z" fill="#bcd5e0" stroke="none" stroke-width="1" stroke-linecap="butt"/><path d="M127.5,217.5h60" fill="#000000" stroke="#213a34" stroke-width="11.25" stroke-linecap="round"/><path d="M187.5,217.5v30" fill="#000000" stroke="#213a34" stroke-width="11.25" stroke-linecap="round"/><path d="M187.5,247.5h30" fill="#000000" stroke="#213a34" stroke-width="11.25" stroke-linecap="round"/><path d="M217.5,247.5v15" fill="#000000" stroke="#213a34" stroke-width="11.25" stroke-linecap="round"/><path d="M217.5,262.5h75" fill="#000000" stroke="#213a34" stroke-width="11.25" stroke-linecap="round"/><path d="M292.5,262.5v-15" fill="#000000" stroke="#213a34" stroke-width="11.25" stroke-linecap="round"/><path d="M292.5,247.5h30" fill="#000000" stroke="#213a34" stroke-width="11.25" stroke-linecap="round"/><path d="M322.5,247.5v-30" fill="#000000" stroke="#213a34" stroke-width="11.25" stroke-linecap="round"/><path d="M322.5,217.5h15" fill="#000000" stroke="#213a34" stroke-width="11.25" stroke-linecap="round"/><path d="M337.5,217.5v-30" fill="#000000" stroke="#213a34" stroke-width="11.25" stroke-linecap="round"/><path d="M337.5,187.5h-45" fill="#000000" stroke="#213a34" stroke-width="11.25" stroke-linecap="round"/><path d="M292.5,187.5v15" fill="#000000" stroke="#213a34" stroke-width="11.25" stroke-linecap="round"/><path d="M292.5,202.5h-15" fill="#000000" stroke="#213a34" stroke-width="11.25" stroke-linecap="round"/><path d="M277.5,202.5v15" fill="#000000" stroke="#213a34" stroke-width="11.25" stroke-linecap="round"/><path d="M277.5,217.5h-45" fill="#000000" stroke="#213a34" stroke-width="11.25" stroke-linecap="round"/><path d="M232.5,217.5v-15" fill="#000000" stroke="#213a34" stroke-width="11.25" stroke-linecap="round"/><path d="M232.5,202.5h-15" fill="#000000" stroke="#213a34" stroke-width="11.25" stroke-linecap="round"/><path d="M217.5,202.5v-45" fill="#000000" stroke="#213a34" stroke-width="11.25" stroke-linecap="round"/><path d="M217.5,157.5h15" fill="#000000" stroke="#213a34" stroke-width="11.25" stroke-linecap="round"/><path d="M232.5,157.5v-15" fill="#000000" stroke="#213a34" stroke-width="11.25" stroke-linecap="round"/><path d="M232.5,142.5h45" fill="#000000" stroke="#213a34" stroke-width="11.25" stroke-linecap="round"/><path d="M277.5,142.5v15" fill="#000000" stroke="#213a34" stroke-width="11.25" stroke-linecap="round"/><path d="M277.5,157.5h15" fill="#000000" stroke="#213a34" stroke-width="11.25" stroke-linecap="round"/><path d="M292.5,157.5v15" fill="#000000" stroke="#213a34" stroke-width="11.25" stroke-linecap="round"/><path d="M292.5,172.5h45" fill="#000000" stroke="#213a34" stroke-width="11.25" stroke-linecap="round"/><path d="M337.5,172.5v-30" fill="#000000" stroke="#213a34" stroke-width="11.25" stroke-linecap="round"/><path d="M337.5,142.5h-15" fill="#000000" stroke="#213a34" stroke-width="11.25" stroke-linecap="round"/><path d="M322.5,142.5v-30" fill="#000000" stroke="#213a34" stroke-width="11.25" stroke-linecap="round"/><path d="M322.5,112.5h-30" fill="#000000" stroke="#213a34" stroke-width="11.25" stroke-linecap="round"/><path d="M292.5,112.5v-15" fill="#000000" stroke="#213a34" stroke-width="11.25" stroke-linecap="round"/><path d="M292.5,97.5h-75" fill="#000000" stroke="#213a34" stroke-width="11.25" stroke-linecap="round"/><path d="M217.5,97.5v15" fill="#000000" stroke="#213a34" stroke-width="11.25" stroke-linecap="round"/><path d="M217.5,112.5h-30" fill="#000000" stroke="#213a34" stroke-width="11.25" stroke-linecap="round"/><path d="M187.5,112.5v30" fill="#000000" stroke="#213a34" stroke-width="11.25" stroke-linecap="round"/><path d="M187.5,142.5h-60" fill="#000000" stroke="#213a34" stroke-width="11.25" stroke-linecap="round"/><path d="M246,202.5c0,-0.82843 0.67157,-1.5 1.5,-1.5c0.82843,0 1.5,0.67157 1.5,1.5c0,0.82843 -0.67157,1.5 -1.5,1.5c-0.82843,0 -1.5,-0.67157 -1.5,-1.5z" fill-opacity="0.8" fill="#758eff" stroke="none" stroke-width="1" stroke-linecap="butt"/><path d="M243,202.5c0,-2.48528 2.01472,-4.5 4.5,-4.5c2.48528,0 4.5,2.01472 4.5,4.5c0,2.48528 -2.01472,4.5 -4.5,4.5c-2.48528,0 -4.5,-2.01472 -4.5,-4.5z" fill-opacity="0.6" fill="#758eff" stroke="none" stroke-width="1" stroke-linecap="butt"/><path d="M261,202.5c0,-0.82843 0.67157,-1.5 1.5,-1.5c0.82843,0 1.5,0.67157 1.5,1.5c0,0.82843 -0.67157,1.5 -1.5,1.5c-0.82843,0 -1.5,-0.67157 -1.5,-1.5z" fill-opacity="0.8" fill="#75bcff" stroke="none" stroke-width="1" stroke-linecap="butt"/><path d="M258,202.5c0,-2.48528 2.01472,-4.5 4.5,-4.5c2.48528,0 4.5,2.01472 4.5,4.5c0,2.48528 -2.01472,4.5 -4.5,4.5c-2.48528,0 -4.5,-2.01472 -4.5,-4.5z" fill-opacity="0.6" fill="#75bcff" stroke="none" stroke-width="1" stroke-linecap="butt"/><path d="M231,187.5c0,-0.82843 0.67157,-1.5 1.5,-1.5c0.82843,0 1.5,0.67157 1.5,1.5c0,0.82843 -0.67157,1.5 -1.5,1.5c-0.82843,0 -1.5,-0.67157 -1.5,-1.5z" fill-opacity="0.8" fill="#75afff" stroke="none" stroke-width="1" stroke-linecap="butt"/><path d="M228,187.5c0,-2.48528 2.01472,-4.5 4.5,-4.5c2.48528,0 4.5,2.01472 4.5,4.5c0,2.48528 -2.01472,4.5 -4.5,4.5c-2.48528,0 -4.5,-2.01472 -4.5,-4.5z" fill-opacity="0.6" fill="#75afff" stroke="none" stroke-width="1" stroke-linecap="butt"/><path d="M246,187.5c0,-0.82843 0.67157,-1.5 1.5,-1.5c0.82843,0 1.5,0.67157 1.5,1.5c0,0.82843 -0.67157,1.5 -1.5,1.5c-0.82843,0 -1.5,-0.67157 -1.5,-1.5z" fill-opacity="0.8" fill="#75ddff" stroke="none" stroke-width="1" stroke-linecap="butt"/><path d="M243,187.5c0,-2.48528 2.01472,-4.5 4.5,-4.5c2.48528,0 4.5,2.01472 4.5,4.5c0,2.48528 -2.01472,4.5 -4.5,4.5c-2.48528,0 -4.5,-2.01472 -4.5,-4.5z" fill-opacity="0.6" fill="#75ddff" stroke="none" stroke-width="1" stroke-linecap="butt"/><path d="M261,187.5c0,-0.82843 0.67157,-1.5 1.5,-1.5c0.82843,0 1.5,0.67157 1.5,1.5c0,0.82843 -0.67157,1.5 -1.5,1.5c-0.82843,0 -1.5,-0.67157 -1.5,-1.5z" fill-opacity="0.8" fill="#75fff1" stroke="none" stroke-width="1" stroke-linecap="butt"/><path d="M258,187.5c0,-2.48528 2.01472,-4.5 4.5,-4.5c2.48528,0 4.5,2.01472 4.5,4.5c0,2.48528 -2.01472,4.5 -4.5,4.5c-2.48528,0 -4.5,-2.01472 -4.5,-4.5z" fill-opacity="0.6" fill="#75fff1" stroke="none" stroke-width="1" stroke-linecap="butt"/><path d="M276,187.5c0,-0.82843 0.67157,-1.5 1.5,-1.5c0.82843,0 1.5,0.67157 1.5,1.5c0,0.82843 -0.67157,1.5 -1.5,1.5c-0.82843,0 -1.5,-0.67157 -1.5,-1.5z" fill-opacity="0.8" fill="#75ffc3" stroke="none" stroke-width="1" stroke-linecap="butt"/><path d="M273,187.5c0,-2.48528 2.01472,-4.5 4.5,-4.5c2.48528,0 4.5,2.01472 4.5,4.5c0,2.48528 -2.01472,4.5 -4.5,4.5c-2.48528,0 -4.5,-2.01472 -4.5,-4.5z" fill-opacity="0.6" fill="#75ffc3" stroke="none" stroke-width="1" stroke-linecap="butt"/><path d="M231,172.5c0,-0.82843 0.67157,-1.5 1.5,-1.5c0.82843,0 1.5,0.67157 1.5,1.5c0,0.82843 -0.67157,1.5 -1.5,1.5c-0.82843,0 -1.5,-0.67157 -1.5,-1.5z" fill-opacity="0.8" fill="#75ffff" stroke="none" stroke-width="1" stroke-linecap="butt"/><path d="M228,172.5c0,-2.48528 2.01472,-4.5 4.5,-4.5c2.48528,0 4.5,2.01472 4.5,4.5c0,2.48528 -2.01472,4.5 -4.5,4.5c-2.48528,0 -4.5,-2.01472 -4.5,-4.5z" fill-opacity="0.6" fill="#75ffff" stroke="none" stroke-width="1" stroke-linecap="butt"/><path d="M246,172.5c0,-0.82843 0.67157,-1.5 1.5,-1.5c0.82843,0 1.5,0.67157 1.5,1.5c0,0.82843 -0.67157,1.5 -1.5,1.5c-0.82843,0 -1.5,-0.67157 -1.5,-1.5z" fill-opacity="0.8" fill="#75ffd0" stroke="none" stroke-width="1" stroke-linecap="butt"/><path d="M243,172.5c0,-2.48528 2.01472,-4.5 4.5,-4.5c2.48528,0 4.5,2.01472 4.5,4.5c0,2.48528 -2.01472,4.5 -4.5,4.5c-2.48528,0 -4.5,-2.01472 -4.5,-4.5z" fill-opacity="0.6" fill="#75ffd0" stroke="none" stroke-width="1" stroke-linecap="butt"/><path d="M261,172.5c0,-0.82843 0.67157,-1.5 1.5,-1.5c0.82843,0 1.5,0.67157 1.5,1.5c0,0.82843 -0.67157,1.5 -1.5,1.5c-0.82843,0 -1.5,-0.67157 -1.5,-1.5z" fill-opacity="0.8" fill="#d975ff" stroke="none" stroke-width="1" stroke-linecap="butt"/><path d="M258,172.5c0,-2.48528 2.01472,-4.5 4.5,-4.5c2.48528,0 4.5,2.01472 4.5,4.5c0,2.48528 -2.01472,4.5 -4.5,4.5c-2.48528,0 -4.5,-2.01472 -4.5,-4.5z" fill-opacity="0.6" fill="#d975ff" stroke="none" stroke-width="1" stroke-linecap="butt"/><path d="M276,172.5c0,-0.82843 0.67157,-1.5 1.5,-1.5c0.82843,0 1.5,0.67157 1.5,1.5c0,0.82843 -0.67157,1.5 -1.5,1.5c-0.82843,0 -1.5,-0.67157 -1.5,-1.5z" fill-opacity="0.8" fill="#ab75ff" stroke="none" stroke-width="1" stroke-linecap="butt"/><path d="M273,172.5c0,-2.48528 2.01472,-4.5 4.5,-4.5c2.48528,0 4.5,2.01472 4.5,4.5c0,2.48528 -2.01472,4.5 -4.5,4.5c-2.48528,0 -4.5,-2.01472 -4.5,-4.5z" fill-opacity="0.6" fill="#ab75ff" stroke="none" stroke-width="1" stroke-linecap="butt"/><path d="M246,157.5c0,-0.82843 0.67157,-1.5 1.5,-1.5c0.82843,0 1.5,0.67157 1.5,1.5c0,0.82843 -0.67157,1.5 -1.5,1.5c-0.82843,0 -1.5,-0.67157 -1.5,-1.5z" fill-opacity="0.8" fill="#b875ff" stroke="none" stroke-width="1" stroke-linecap="butt"/><path d="M243,157.5c0,-2.48528 2.01472,-4.5 4.5,-4.5c2.48528,0 4.5,2.01472 4.5,4.5c0,2.48528 -2.01472,4.5 -4.5,4.5c-2.48528,0 -4.5,-2.01472 -4.5,-4.5z" fill-opacity="0.6" fill="#b875ff" stroke="none" stroke-width="1" stroke-linecap="butt"/><path d="M261,157.5c0,-0.82843 0.67157,-1.5 1.5,-1.5c0.82843,0 1.5,0.67157 1.5,1.5c0,0.82843 -0.67157,1.5 -1.5,1.5c-0.82843,0 -1.5,-0.67157 -1.5,-1.5z" fill-opacity="0.8" fill="#8a75ff" stroke="none" stroke-width="1" stroke-linecap="butt"/><path d="M258,157.5c0,-2.48528 2.01472,-4.5 4.5,-4.5c2.48528,0 4.5,2.01472 4.5,4.5c0,2.48528 -2.01472,4.5 -4.5,4.5c-2.48528,0 -4.5,-2.01472 -4.5,-4.5z" fill-opacity="0.6" fill="#8a75ff" stroke="none" stroke-width="1" stroke-linecap="butt"/><path d="M306,157.5c0,-0.82843 0.67157,-1.5 1.5,-1.5c0.82843,0 1.5,0.67157 1.5,1.5c0,0.82843 -0.67157,1.5 -1.5,1.5c-0.82843,0 -1.5,-0.67157 -1.5,-1.5z" fill-opacity="0.8" fill="#75ebff" stroke="none" stroke-width="1" stroke-linecap="butt"/><path d="M303,157.5c0,-2.48528 2.01472,-4.5 4.5,-4.5c2.48528,0 4.5,2.01472 4.5,4.5c0,2.48528 -2.01472,4.5 -4.5,4.5c-2.48528,0 -4.5,-2.01472 -4.5,-4.5z" fill-opacity="0.6" fill="#75ebff" stroke="none" stroke-width="1" stroke-linecap="butt"/><path d="M306,202.5c0,-0.82843 0.67157,-1.5 1.5,-1.5c0.82843,0 1.5,0.67157 1.5,1.5c0,0.82843 -0.67157,1.5 -1.5,1.5c-0.82843,0 -1.5,-0.67157 -1.5,-1.5z" fill-opacity="0.8" fill="#ed75ff" stroke="none" stroke-width="1" stroke-linecap="butt"/><path d="M303,202.5c0,-2.48528 2.01472,-4.5 4.5,-4.5c2.48528,0 4.5,2.01472 4.5,4.5c0,2.48528 -2.01472,4.5 -4.5,4.5c-2.48528,0 -4.5,-2.01472 -4.5,-4.5z" fill-opacity="0.6" fill="#ed75ff" stroke="none" stroke-width="1" stroke-linecap="butt"/><path d="M321,157.5c0,-0.82843 0.67157,-1.5 1.5,-1.5c0.82843,0 1.5,0.67157 1.5,1.5c0,0.82843 -0.67157,1.5 -1.5,1.5c-0.82843,0 -1.5,-0.67157 -1.5,-1.5z" fill-opacity="0.8" fill="#75ffe4" stroke="none" stroke-width="1" stroke-linecap="butt"/><path d="M318,157.5c0,-2.48528 2.01472,-4.5 4.5,-4.5c2.48528,0 4.5,2.01472 4.5,4.5c0,2.48528 -2.01472,4.5 -4.5,4.5c-2.48528,0 -4.5,-2.01472 -4.5,-4.5z" fill-opacity="0.6" fill="#75ffe4" stroke="none" stroke-width="1" stroke-linecap="butt"/><path d="M321,202.5c0,-0.82843 0.67157,-1.5 1.5,-1.5c0.82843,0 1.5,0.67157 1.5,1.5c0,0.82843 -0.67157,1.5 -1.5,1.5c-0.82843,0 -1.5,-0.67157 -1.5,-1.5z" fill-opacity="0.8" fill="#bf75ff" stroke="none" stroke-width="1" stroke-linecap="butt"/><path d="M318,202.5c0,-2.48528 2.01472,-4.5 4.5,-4.5c2.48528,0 4.5,2.01472 4.5,4.5c0,2.48528 -2.01472,4.5 -4.5,4.5c-2.48528,0 -4.5,-2.01472 -4.5,-4.5z" fill-opacity="0.6" fill="#bf75ff" stroke="none" stroke-width="1" stroke-linecap="butt"/><path d="M291,142.5c0,-0.82843 0.67157,-1.5 1.5,-1.5c0.82843,0 1.5,0.67157 1.5,1.5c0,0.82843 -0.67157,1.5 -1.5,1.5c-0.82843,0 -1.5,-0.67157 -1.5,-1.5z" fill-opacity="0.8" fill="#75fff1" stroke="none" stroke-width="1" stroke-linecap="butt"/><path d="M288,142.5c0,-2.48528 2.01472,-4.5 4.5,-4.5c2.48528,0 4.5,2.01472 4.5,4.5c0,2.48528 -2.01472,4.5 -4.5,4.5c-2.48528,0 -4.5,-2.01472 -4.5,-4.5z" fill-opacity="0.6" fill="#75fff1" stroke="none" stroke-width="1" stroke-linecap="butt"/><path d="M291,217.5c0,-0.82843 0.67157,-1.5 1.5,-1.5c0.82843,0 1.5,0.67157 1.5,1.5c0,0.82843 -0.67157,1.5 -1.5,1.5c-0.82843,0 -1.5,-0.67157 -1.5,-1.5z" fill-opacity="0.8" fill="#75caff" stroke="none" stroke-width="1" stroke-linecap="butt"/><path d="M288,217.5c0,-2.48528 2.01472,-4.5 4.5,-4.5c2.48528,0 4.5,2.01472 4.5,4.5c0,2.48528 -2.01472,4.5 -4.5,4.5c-2.48528,0 -4.5,-2.01472 -4.5,-4.5z" fill-opacity="0.6" fill="#75caff" stroke="none" stroke-width="1" stroke-linecap="butt"/><path d="M306,142.5c0,-0.82843 0.67157,-1.5 1.5,-1.5c0.82843,0 1.5,0.67157 1.5,1.5c0,0.82843 -0.67157,1.5 -1.5,1.5c-0.82843,0 -1.5,-0.67157 -1.5,-1.5z" fill-opacity="0.8" fill="#75ffc3" stroke="none" stroke-width="1" stroke-linecap="butt"/><path d="M303,142.5c0,-2.48528 2.01472,-4.5 4.5,-4.5c2.48528,0 4.5,2.01472 4.5,4.5c0,2.48528 -2.01472,4.5 -4.5,4.5c-2.48528,0 -4.5,-2.01472 -4.5,-4.5z" fill-opacity="0.6" fill="#75ffc3" stroke="none" stroke-width="1" stroke-linecap="butt"/><path d="M306,217.5c0,-0.82843 0.67157,-1.5 1.5,-1.5c0.82843,0 1.5,0.67157 1.5,1.5c0,0.82843 -0.67157,1.5 -1.5,1.5c-0.82843,0 -1.5,-0.67157 -1.5,-1.5z" fill-opacity="0.8" fill="#75f8ff" stroke="none" stroke-width="1" stroke-linecap="butt"/><path d="M303,217.5c0,-2.48528 2.01472,-4.5 4.5,-4.5c2.48528,0 4.5,2.01472 4.5,4.5c0,2.48528 -2.01472,4.5 -4.5,4.5c-2.48528,0 -4.5,-2.01472 -4.5,-4.5z" fill-opacity="0.6" fill="#75f8ff" stroke="none" stroke-width="1" stroke-linecap="butt"/><path d="M141,97.5c0,-0.82843 0.67157,-1.5 1.5,-1.5c0.82843,0 1.5,0.67157 1.5,1.5c0,0.82843 -0.67157,1.5 -1.5,1.5c-0.82843,0 -1.5,-0.67157 -1.5,-1.5z" fill-opacity="0.8" fill="#bf75ff" stroke="none" stroke-width="1" stroke-linecap="butt"/><path d="M138,97.5c0,-2.48528 2.01472,-4.5 4.5,-4.5c2.48528,0 4.5,2.01472 4.5,4.5c0,2.48528 -2.01472,4.5 -4.5,4.5c-2.48528,0 -4.5,-2.01472 -4.5,-4.5z" fill-opacity="0.6" fill="#bf75ff" stroke="none" stroke-width="1" stroke-linecap="butt"/><path d="M156,97.5c0,-0.82843 0.67157,-1.5 1.5,-1.5c0.82843,0 1.5,0.67157 1.5,1.5c0,0.82843 -0.67157,1.5 -1.5,1.5c-0.82843,0 -1.5,-0.67157 -1.5,-1.5z" fill-opacity="0.8" fill="#9075ff" stroke="none" stroke-width="1" stroke-linecap="butt"/><path d="M153,97.5c0,-2.48528 2.01472,-4.5 4.5,-4.5c2.48528,0 4.5,2.01472 4.5,4.5c0,2.48528 -2.01472,4.5 -4.5,4.5c-2.48528,0 -4.5,-2.01472 -4.5,-4.5z" fill-opacity="0.6" fill="#9075ff" stroke="none" stroke-width="1" stroke-linecap="butt"/><path d="M141,112.5c0,-0.82843 0.67157,-1.5 1.5,-1.5c0.82843,0 1.5,0.67157 1.5,1.5c0,0.82843 -0.67157,1.5 -1.5,1.5c-0.82843,0 -1.5,-0.67157 -1.5,-1.5z" fill-opacity="0.8" fill="#75ffd7" stroke="none" stroke-width="1" stroke-linecap="butt"/><path d="M138,112.5c0,-2.48528 2.01472,-4.5 4.5,-4.5c2.48528,0 4.5,2.01472 4.5,4.5c0,2.48528 -2.01472,4.5 -4.5,4.5c-2.48528,0 -4.5,-2.01472 -4.5,-4.5z" fill-opacity="0.6" fill="#75ffd7" stroke="none" stroke-width="1" stroke-linecap="butt"/><path d="M156,112.5c0,-0.82843 0.67157,-1.5 1.5,-1.5c0.82843,0 1.5,0.67157 1.5,1.5c0,0.82843 -0.67157,1.5 -1.5,1.5c-0.82843,0 -1.5,-0.67157 -1.5,-1.5z" fill-opacity="0.8" fill="#e075ff" stroke="none" stroke-width="1" stroke-linecap="butt"/><path d="M153,112.5c0,-2.48528 2.01472,-4.5 4.5,-4.5c2.48528,0 4.5,2.01472 4.5,4.5c0,2.48528 -2.01472,4.5 -4.5,4.5c-2.48528,0 -4.5,-2.01472 -4.5,-4.5z" fill-opacity="0.6" fill="#e075ff" stroke="none" stroke-width="1" stroke-linecap="butt"/><path d="M141,262.5c0,-0.82843 0.67157,-1.5 1.5,-1.5c0.82843,0 1.5,0.67157 1.5,1.5c0,0.82843 -0.67157,1.5 -1.5,1.5c-0.82843,0 -1.5,-0.67157 -1.5,-1.5z" fill-opacity="0.8" fill="#75a2ff" stroke="none" stroke-width="1" stroke-linecap="butt"/><path d="M138,262.5c0,-2.48528 2.01472,-4.5 4.5,-4.5c2.48528,0 4.5,2.01472 4.5,4.5c0,2.48528 -2.01472,4.5 -4.5,4.5c-2.48528,0 -4.5,-2.01472 -4.5,-4.5z" fill-opacity="0.6" fill="#75a2ff" stroke="none" stroke-width="1" stroke-linecap="butt"/><path d="M156,262.5c0,-0.82843 0.67157,-1.5 1.5,-1.5c0.82843,0 1.5,0.67157 1.5,1.5c0,0.82843 -0.67157,1.5 -1.5,1.5c-0.82843,0 -1.5,-0.67157 -1.5,-1.5z" fill-opacity="0.8" fill="#75d0ff" stroke="none" stroke-width="1" stroke-linecap="butt"/><path d="M153,262.5c0,-2.48528 2.01472,-4.5 4.5,-4.5c2.48528,0 4.5,2.01472 4.5,4.5c0,2.48528 -2.01472,4.5 -4.5,4.5c-2.48528,0 -4.5,-2.01472 -4.5,-4.5z" fill-opacity="0.6" fill="#75d0ff" stroke="none" stroke-width="1" stroke-linecap="butt"/><path d="M141,247.5c0,-0.82843 0.67157,-1.5 1.5,-1.5c0.82843,0 1.5,0.67157 1.5,1.5c0,0.82843 -0.67157,1.5 -1.5,1.5c-0.82843,0 -1.5,-0.67157 -1.5,-1.5z" fill-opacity="0.8" fill="#75f1ff" stroke="none" stroke-width="1" stroke-linecap="butt"/><path d="M138,247.5c0,-2.48528 2.01472,-4.5 4.5,-4.5c2.48528,0 4.5,2.01472 4.5,4.5c0,2.48528 -2.01472,4.5 -4.5,4.5c-2.48528,0 -4.5,-2.01472 -4.5,-4.5z" fill-opacity="0.6" fill="#75f1ff" stroke="none" stroke-width="1" stroke-linecap="butt"/><path d="M156,247.5c0,-0.82843 0.67157,-1.5 1.5,-1.5c0.82843,0 1.5,0.67157 1.5,1.5c0,0.82843 -0.67157,1.5 -1.5,1.5c-0.82843,0 -1.5,-0.67157 -1.5,-1.5z" fill-opacity="0.8" fill="#75ffdd" stroke="none" stroke-width="1" stroke-linecap="butt"/><path d="M153,247.5c0,-2.48528 2.01472,-4.5 4.5,-4.5c2.48528,0 4.5,2.01472 4.5,4.5c0,2.48528 -2.01472,4.5 -4.5,4.5c-2.48528,0 -4.5,-2.01472 -4.5,-4.5z" fill-opacity="0.6" fill="#75ffdd" stroke="none" stroke-width="1" stroke-linecap="butt"/><path d="M156,187.5c0,-0.82843 0.67157,-1.5 1.5,-1.5c0.82843,0 1.5,0.67157 1.5,1.5c0,0.82843 -0.67157,1.5 -1.5,1.5c-0.82843,0 -1.5,-0.67157 -1.5,-1.5z" fill-opacity="0.8" fill="#75ffeb" stroke="none" stroke-width="1" stroke-linecap="butt"/><path d="M153,187.5c0,-2.48528 2.01472,-4.5 4.5,-4.5c2.48528,0 4.5,2.01472 4.5,4.5c0,2.48528 -2.01472,4.5 -4.5,4.5c-2.48528,0 -4.5,-2.01472 -4.5,-4.5z" fill-opacity="0.6" fill="#75ffeb" stroke="none" stroke-width="1" stroke-linecap="butt"/><path d="M156,172.5c0,-0.82843 0.67157,-1.5 1.5,-1.5c0.82843,0 1.5,0.67157 1.5,1.5c0,0.82843 -0.67157,1.5 -1.5,1.5c-0.82843,0 -1.5,-0.67157 -1.5,-1.5z" fill-opacity="0.8" fill="#d275ff" stroke="none" stroke-width="1" stroke-linecap="butt"/><path d="M153,172.5c0,-2.48528 2.01472,-4.5 4.5,-4.5c2.48528,0 4.5,2.01472 4.5,4.5c0,2.48528 -2.01472,4.5 -4.5,4.5c-2.48528,0 -4.5,-2.01472 -4.5,-4.5z" fill-opacity="0.6" fill="#d275ff" stroke="none" stroke-width="1" stroke-linecap="butt"/><path d="M171,187.5c0,-0.82843 0.67157,-1.5 1.5,-1.5c0.82843,0 1.5,0.67157 1.5,1.5c0,0.82843 -0.67157,1.5 -1.5,1.5c-0.82843,0 -1.5,-0.67157 -1.5,-1.5z" fill-opacity="0.8" fill="#75ffbc" stroke="none" stroke-width="1" stroke-linecap="butt"/><path d="M168,187.5c0,-2.48528 2.01472,-4.5 4.5,-4.5c2.48528,0 4.5,2.01472 4.5,4.5c0,2.48528 -2.01472,4.5 -4.5,4.5c-2.48528,0 -4.5,-2.01472 -4.5,-4.5z" fill-opacity="0.6" fill="#75ffbc" stroke="none" stroke-width="1" stroke-linecap="butt"/><path d="M171,172.5c0,-0.82843 0.67157,-1.5 1.5,-1.5c0.82843,0 1.5,0.67157 1.5,1.5c0,0.82843 -0.67157,1.5 -1.5,1.5c-0.82843,0 -1.5,-0.67157 -1.5,-1.5z" fill-opacity="0.8" fill="#a475ff" stroke="none" stroke-width="1" stroke-linecap="butt"/><path d="M168,172.5c0,-2.48528 2.01472,-4.5 4.5,-4.5c2.48528,0 4.5,2.01472 4.5,4.5c0,2.48528 -2.01472,4.5 -4.5,4.5c-2.48528,0 -4.5,-2.01472 -4.5,-4.5z" fill-opacity="0.6" fill="#a475ff" stroke="none" stroke-width="1" stroke-linecap="butt"/><path d="M210,180c0,-24.85281 20.14719,-45 45,-45c24.85281,0 45,20.14719 45,45c0,24.85281 -20.14719,45 -45,45c-24.85281,0 -45,-20.14719 -45,-45z" fill-opacity="0.3" fill="#2d00b5" stroke-opacity="0.6" stroke="#2d00b5" stroke-width="2.25" stroke-linecap="butt"/><path d="M120,217.5c0,-4.14214 3.35786,-7.5 7.5,-7.5c4.14214,0 7.5,3.35786 7.5,7.5c0,4.14214 -3.35786,7.5 -7.5,7.5c-4.14214,0 -7.5,-3.35786 -7.5,-7.5z" fill-opacity="0.35" fill="#00ff44" stroke="none" stroke-width="1" stroke-linecap="butt"/><path d="M120,142.5c0,-4.14214 3.35786,-7.5 7.5,-7.5c4.14214,0 7.5,3.35786 7.5,7.5c0,4.14214 -3.35786,7.5 -7.5,7.5c-4.14214,0 -7.5,-3.35786 -7.5,-7.5z" fill-opacity="0.35" fill="#ff0404" stroke="none" stroke-width="1" stroke-linecap="butt"/></g></g></svg>