<svg version="1.1" xmlns="http://www.w3.org/2000/svg" xmlns:xlink="http://www.w3.org/1999/xlink" width="27.33801" height="16.25597" viewBox="0,0,27.33801,16.25597"><g transform="translate(-241.54899,-163.94403)"><g data-paper-data="{&quot;isPaintingLayer&quot;:true}" fill="#ff0000" fill-rule="nonzero" stroke="none" stroke-width="1" stroke-linecap="butt" stroke-linejoin="miter" stroke-miterlimit="10" stroke-dasharray="" stroke-dashoffset="0" style="mix-blend-mode: normal"><path d="M252.68226,163.94403h1.99901l-1.10634,8.02764h-2.90505l-2.03702,-2.85583l-0.56601,-0.91515l-0.59066,0.9884l-1.88601,2.78258h-2.80436l-1.13202,-8.02764h2.11202l0.64202,5.4603l0.18798,1.49866l0.79303,-1.27138l1.98668,-2.97876h1.54702l2.2887,3.1935l0.76631,1.05664l0.05033,-1.10581z"/><path d="M263.50424,163.94403l5.38276,8.02764h-2.43969l-1.14434,-1.75053h-6.84143l-1.15667,1.75053h-2.32671l5.45774,-8.02764zM259.10355,169.24478h5.55841l-2.77971,-4.29328z"/><path d="M253.21847,172.17236h2.38936l-5.58306,8.02764h-3.01804l-5.45774,-8.02764h2.52804l3.54604,5.41113l1.00567,1.58446l1.03135,-1.58446z"/><path d="M266.92908,179.26629v0.93371h-9.34277v-8.02764h9.34277v0.92117h-7.1044v2.48756h6.82808v0.92117h-6.82808v2.76402z"/></g></g></svg>