<svg version="1.1" xmlns="http://www.w3.org/2000/svg" xmlns:xlink="http://www.w3.org/1999/xlink" width="507.5" height="385.5" viewBox="0,0,507.5,385.5"><defs><linearGradient x1="240" y1="-12.75" x2="240" y2="372.75" gradientUnits="userSpaceOnUse" id="color-1"><stop offset="0" stop-color="#000000"/><stop offset="1" stop-color="#001a1e"/></linearGradient><linearGradient x1="240" y1="-0.99233" x2="240" y2="360.99233" gradientUnits="userSpaceOnUse" id="color-2"><stop offset="0" stop-color="#00c9e8"/><stop offset="1" stop-color="#00c9e8" stop-opacity="0"/></linearGradient><linearGradient x1="240" y1="-0.99233" x2="240" y2="360.99233" gradientUnits="userSpaceOnUse" id="color-3"><stop offset="0" stop-color="#00a9c3" stop-opacity="0"/><stop offset="1" stop-color="#00a9c3"/></linearGradient><linearGradient x1="401.66066" y1="57.13589" x2="401.66066" y2="350.05465" gradientUnits="userSpaceOnUse" id="color-4"><stop offset="0" stop-color="#174c4c"/><stop offset="1" stop-color="#174c4c" stop-opacity="0"/></linearGradient><linearGradient x1="401.66066" y1="57.13589" x2="401.66066" y2="350.05465" gradientUnits="userSpaceOnUse" id="color-5"><stop offset="0" stop-color="#00a9c3" stop-opacity="0"/><stop offset="1" stop-color="#00a9c3"/></linearGradient><linearGradient x1="401.66516" y1="67.95215" x2="401.66516" y2="164.95215" gradientUnits="userSpaceOnUse" id="color-6"><stop offset="0" stop-color="#0a2020"/><stop offset="1" stop-color="#0a2020" stop-opacity="0"/></linearGradient><linearGradient x1="401.66516" y1="67.95215" x2="401.66516" y2="164.95215" gradientUnits="userSpaceOnUse" id="color-7"><stop offset="0" stop-color="#00a9c3" stop-opacity="0"/><stop offset="1" stop-color="#00a9c3"/></linearGradient><linearGradient x1="401.66516" y1="85.96644" x2="401.66516" y2="164.95215" gradientUnits="userSpaceOnUse" id="color-8"><stop offset="0" stop-color="#081b1b"/><stop offset="1" stop-color="#081b1b" stop-opacity="0"/></linearGradient></defs><g transform="translate(13.75,12.75)"><g data-paper-data="{&quot;isPaintingLayer&quot;:true}" fill-rule="nonzero" stroke-linecap="butt" stroke-linejoin="miter" stroke-miterlimit="10" stroke-dasharray="" stroke-dashoffset="0" style="mix-blend-mode: normal"><path d="M-13.75,372.75v-385.5h507.5v385.5z" fill="url(#color-1)" stroke="none" stroke-width="6"/><path d="M0.27506,360.99233v-361.98466c0,0 8.26389,0 18.57868,0c51.37395,0 460.8712,0 460.8712,0v361.98466z" fill="url(#color-2)" stroke="url(#color-3)" stroke-width="6"/><path d="M334.84384,350.05465v-292.91877h133.63363v292.91877z" fill="url(#color-4)" stroke="url(#color-5)" stroke-width="5"/><path d="M342.16516,164.95215v-97h119v97z" fill="url(#color-6)" stroke="url(#color-7)" stroke-width="4"/><path d="M344.16516,164.95215v-78.98571h115v78.98571z" fill="url(#color-8)" stroke="none" stroke-width="4"/></g></g></svg>