<svg width="480px" height="360px" xmlns="http://www.w3.org/2000/svg"><path fill="#F00" d="M251.507 162.702L253.539 162.702L242.252 180L240.245 180L251.507 162.702ZM247.015 166.130L247.015 166.130Q247.015 166.926 246.782 167.605Q246.549 168.285 246.115 168.780Q245.680 169.276 245.062 169.564Q244.444 169.852 243.685 169.852L243.685 169.852Q242.938 169.852 242.344 169.619Q241.751 169.386 241.328 168.927Q240.906 168.468 240.679 167.795Q240.453 167.122 240.453 166.240L240.453 166.240Q240.453 165.457 240.686 164.777Q240.918 164.098 241.353 163.596Q241.787 163.094 242.406 162.813Q243.024 162.531 243.783 162.531L243.783 162.531Q244.529 162.531 245.123 162.764Q245.717 162.996 246.139 163.449Q246.562 163.902 246.788 164.575Q247.015 165.249 247.015 166.130ZM245.215 166.191L245.215 166.191Q245.215 165.114 244.823 164.600Q244.432 164.086 243.734 164.086L243.734 164.086Q243.379 164.086 243.103 164.245Q242.828 164.404 242.638 164.686Q242.448 164.967 242.350 165.353Q242.252 165.738 242.252 166.191L242.252 166.191Q242.252 167.269 242.644 167.783Q243.036 168.297 243.734 168.297L243.734 168.297Q244.089 168.297 244.364 168.138Q244.640 167.979 244.829 167.697Q245.019 167.415 245.117 167.030Q245.215 166.644 245.215 166.191ZM253.344 176.462L253.344 176.462Q253.344 177.258 253.105 177.931Q252.866 178.604 252.432 179.106Q251.997 179.608 251.379 179.890Q250.761 180.171 250.002 180.171L250.002 180.171Q249.255 180.171 248.661 179.939Q248.067 179.706 247.645 179.253Q247.223 178.800 246.996 178.121Q246.770 177.441 246.770 176.560L246.770 176.560Q246.770 175.777 247.002 175.097Q247.235 174.418 247.669 173.916Q248.104 173.414 248.722 173.132Q249.340 172.851 250.099 172.851L250.099 172.851Q250.846 172.851 251.446 173.083Q252.046 173.316 252.468 173.775Q252.891 174.234 253.117 174.907Q253.344 175.581 253.344 176.462ZM251.544 176.511L251.544 176.511Q251.544 175.434 251.146 174.920Q250.748 174.406 250.050 174.406L250.050 174.406Q249.695 174.406 249.420 174.565Q249.145 174.724 248.955 175.005Q248.765 175.287 248.667 175.673Q248.569 176.058 248.569 176.511L248.569 176.511Q248.569 177.588 248.961 178.103Q249.353 178.617 250.050 178.617L250.050 178.617Q250.406 178.617 250.681 178.458Q250.956 178.298 251.152 178.017Q251.348 177.735 251.446 177.350Q251.544 176.964 251.544 176.511Z"/></svg>