<svg version="1.1" xmlns="http://www.w3.org/2000/svg" xmlns:xlink="http://www.w3.org/1999/xlink" width="19.01393" height="19.41618" viewBox="0,0,19.01393,19.41618"><defs><linearGradient x1="244.29138" y1="165.52038" x2="244.29138" y2="175.24906" gradientUnits="userSpaceOnUse" id="color-1"><stop offset="0" stop-color="#1dff00"/><stop offset="1" stop-color="#ffe100"/></linearGradient><linearGradient x1="253.72888" y1="165.52038" x2="253.72888" y2="175.24906" gradientUnits="userSpaceOnUse" id="color-2"><stop offset="0" stop-color="#1dff00"/><stop offset="1" stop-color="#ffe100"/></linearGradient><linearGradient x1="249.10388" y1="160.70788" x2="249.10388" y2="170.43656" gradientUnits="userSpaceOnUse" id="color-3"><stop offset="0" stop-color="#1dff00"/><stop offset="1" stop-color="#ffe100"/></linearGradient><linearGradient x1="249.10388" y1="170.39538" x2="249.10388" y2="180.12406" gradientUnits="userSpaceOnUse" id="color-4"><stop offset="0" stop-color="#1dff00"/><stop offset="1" stop-color="#ffe100"/></linearGradient></defs><g transform="translate(-239.50317,-160.70788)"><g data-paper-data="{&quot;isPaintingLayer&quot;:true}" fill-rule="nonzero" stroke="none" stroke-width="0.26459" stroke-linecap="butt" stroke-linejoin="miter" stroke-miterlimit="10" stroke-dasharray="" stroke-dashoffset="0" style="mix-blend-mode: normal"><path d="M241.41477,170.38472l2.87354,-2.92233l2.87353,2.92233l-2.87353,2.92232zM240.43446,170.38472l3.85385,3.92126l3.85997,-3.92126l-3.85997,-3.92125zM239.50318,170.38472l4.78515,-4.86434l4.79128,4.86434l-4.79128,4.86434z" fill="url(#color-1)"/><path d="M250.85227,170.38472l2.87354,-2.92233l2.87353,2.92233l-2.87353,2.92232zM249.87196,170.38472l3.85385,3.92126l3.85997,-3.92126l-3.85997,-3.92125zM248.94068,170.38472l4.78515,-4.86434l4.79128,4.86434l-4.79128,4.86434z" fill="url(#color-2)"/><path d="M246.22727,165.57222l2.87354,-2.92233l2.87353,2.92233l-2.87353,2.92232zM245.24696,165.57222l3.85385,3.92126l3.85997,-3.92126l-3.85997,-3.92125zM244.31568,165.57222l4.78515,-4.86434l4.79128,4.86434l-4.79128,4.86434z" fill="url(#color-3)"/><path d="M246.22727,175.25972l2.87354,-2.92233l2.87353,2.92233l-2.87353,2.92232zM245.24696,175.25972l3.85385,3.92126l3.85997,-3.92126l-3.85997,-3.92125zM244.31568,175.25972l4.78515,-4.86434l4.79128,4.86434l-4.79128,4.86434z" fill="url(#color-4)"/></g></g></svg>