<svg version="1.1" xmlns="http://www.w3.org/2000/svg" xmlns:xlink="http://www.w3.org/1999/xlink" width="240.8" height="176.8" viewBox="0,0,240.8,176.8"><defs><linearGradient x1="120" y1="92" x2="120" y2="268" gradientUnits="userSpaceOnUse" id="color-1"><stop offset="0" stop-color="#5a950d"/><stop offset="1" stop-color="#203504"/></linearGradient></defs><g transform="translate(-119.6,-91.6)"><g data-paper-data="{&quot;isPaintingLayer&quot;:true}" fill-rule="nonzero" stroke-linejoin="miter" stroke-miterlimit="10" stroke-dasharray="" stroke-dashoffset="0" style="mix-blend-mode: normal"><path d="M120,268v-176h240v176z" fill="url(#color-1)" stroke="none" stroke-width="1" stroke-linecap="butt"/><path d="M120,92h240" fill="#000000" stroke-opacity="0.5" stroke="#ffffff" stroke-width="0.8" stroke-linecap="butt"/><path d="M120,108h240" fill="#000000" stroke-opacity="0.5" stroke="#ffffff" stroke-width="0.8" stroke-linecap="butt"/><path d="M120,124h240" fill="#000000" stroke-opacity="0.5" stroke="#ffffff" stroke-width="0.8" stroke-linecap="butt"/><path d="M120,140h240" fill="#000000" stroke-opacity="0.5" stroke="#ffffff" stroke-width="0.8" stroke-linecap="butt"/><path d="M120,156h240" fill="#000000" stroke-opacity="0.5" stroke="#ffffff" stroke-width="0.8" stroke-linecap="butt"/><path d="M120,172h240" fill="#000000" stroke-opacity="0.5" stroke="#ffffff" stroke-width="0.8" stroke-linecap="butt"/><path d="M120,188h240" fill="#000000" stroke-opacity="0.5" stroke="#ffffff" stroke-width="0.8" stroke-linecap="butt"/><path d="M120,204h240" fill="#000000" stroke-opacity="0.5" stroke="#ffffff" stroke-width="0.8" stroke-linecap="butt"/><path d="M120,220h240" fill="#000000" stroke-opacity="0.5" stroke="#ffffff" stroke-width="0.8" stroke-linecap="butt"/><path d="M120,236h240" fill="#000000" stroke-opacity="0.5" stroke="#ffffff" stroke-width="0.8" stroke-linecap="butt"/><path d="M120,252h240" fill="#000000" stroke-opacity="0.5" stroke="#ffffff" stroke-width="0.8" stroke-linecap="butt"/><path d="M120,268h240" fill="#000000" stroke-opacity="0.5" stroke="#ffffff" stroke-width="0.8" stroke-linecap="butt"/><path d="M120,92v176" fill="#000000" stroke-opacity="0.5" stroke="#ffffff" stroke-width="0.8" stroke-linecap="butt"/><path d="M136,92v176" fill="#000000" stroke-opacity="0.5" stroke="#ffffff" stroke-width="0.8" stroke-linecap="butt"/><path d="M152,92v176" fill="#000000" stroke-opacity="0.5" stroke="#ffffff" stroke-width="0.8" stroke-linecap="butt"/><path d="M168,92v176" fill="#000000" stroke-opacity="0.5" stroke="#ffffff" stroke-width="0.8" stroke-linecap="butt"/><path d="M184,92v176" fill="#000000" stroke-opacity="0.5" stroke="#ffffff" stroke-width="0.8" stroke-linecap="butt"/><path d="M200,92v176" fill="#000000" stroke-opacity="0.5" stroke="#ffffff" stroke-width="0.8" stroke-linecap="butt"/><path d="M216,92v176" fill="#000000" stroke-opacity="0.5" stroke="#ffffff" stroke-width="0.8" stroke-linecap="butt"/><path d="M232,92v176" fill="#000000" stroke-opacity="0.5" stroke="#ffffff" stroke-width="0.8" stroke-linecap="butt"/><path d="M248,92v176" fill="#000000" stroke-opacity="0.5" stroke="#ffffff" stroke-width="0.8" stroke-linecap="butt"/><path d="M264,92v176" fill="#000000" stroke-opacity="0.5" stroke="#ffffff" stroke-width="0.8" stroke-linecap="butt"/><path d="M280,92v176" fill="#000000" stroke-opacity="0.5" stroke="#ffffff" stroke-width="0.8" stroke-linecap="butt"/><path d="M296,268v-176" fill="#000000" stroke-opacity="0.5" stroke="#ffffff" stroke-width="0.8" stroke-linecap="butt"/><path d="M312,92v176" fill="#000000" stroke-opacity="0.5" stroke="#ffffff" stroke-width="0.8" stroke-linecap="butt"/><path d="M328,92v176" fill="#000000" stroke-opacity="0.5" stroke="#ffffff" stroke-width="0.8" stroke-linecap="butt"/><path d="M344,92v176" fill="#000000" stroke-opacity="0.5" stroke="#ffffff" stroke-width="0.8" stroke-linecap="butt"/><path d="M360,92v176" fill="#000000" stroke-opacity="0.5" stroke="#ffffff" stroke-width="0.8" stroke-linecap="butt"/><path d="M128,132v96" fill="#000000" stroke-opacity="0.5" stroke="#a3ff33" stroke-width="15.2" stroke-linecap="round"/><path d="M192,132v96" fill="#000000" stroke-opacity="0.5" stroke="#a3ff33" stroke-width="15.2" stroke-linecap="round"/><path d="M256,132v96" fill="#000000" stroke-opacity="0.5" stroke="#a3ff33" stroke-width="15.2" stroke-linecap="round"/><path d="M320,132v96" fill="#000000" stroke-opacity="0.5" stroke="#a3ff33" stroke-width="15.2" stroke-linecap="round"/><path d="M128,180h192" fill="#000000" stroke-opacity="0.5" stroke="#a3ff33" stroke-width="15.2" stroke-linecap="round"/><path d="M128,132v96" fill="#000000" stroke="#2d456f" stroke-width="10.4" stroke-linecap="round"/><path d="M192,132v96" fill="#000000" stroke="#2d456f" stroke-width="10.4" stroke-linecap="round"/><path d="M256,132v96" fill="#000000" stroke="#2d456f" stroke-width="10.4" stroke-linecap="round"/><path d="M320,132v96" fill="#000000" stroke="#2d456f" stroke-width="10.4" stroke-linecap="round"/><path d="M128,180h192" fill="#000000" stroke="#2d456f" stroke-width="10.4" stroke-linecap="round"/><path d="M128,252c-4.41828,0 -8,-3.58172 -8,-8v0c0,-4.41828 3.58172,-8 8,-8h16c4.41828,0 8,3.58172 8,8v0c0,4.41828 -3.58172,8 -8,8z" fill="#bcd5e0" stroke="none" stroke-width="1" stroke-linecap="butt"/><path d="M144,252c-4.41828,0 -8,-3.58172 -8,-8v-16c0,-4.41828 3.58172,-8 8,-8v0c4.41828,0 8,3.58172 8,8v16c0,4.41828 -3.58172,8 -8,8z" fill="#bcd5e0" stroke="none" stroke-width="1" stroke-linecap="butt"/><path d="M144,236c-4.41828,0 -8,-3.58172 -8,-8v0c0,-4.41828 3.58172,-8 8,-8h32c4.41828,0 8,3.58172 8,8v0c0,4.41828 -3.58172,8 -8,8z" fill="#bcd5e0" stroke="none" stroke-width="1" stroke-linecap="butt"/><path d="M176,252c-4.41828,0 -8,-3.58172 -8,-8v-16c0,-4.41828 3.58172,-8 8,-8v0c4.41828,0 8,3.58172 8,8v16c0,4.41828 -3.58172,8 -8,8z" fill="#bcd5e0" stroke="none" stroke-width="1" stroke-linecap="butt"/><path d="M176,252c-4.41828,0 -8,-3.58172 -8,-8v0c0,-4.41828 3.58172,-8 8,-8h32c4.41828,0 8,3.58172 8,8v0c0,4.41828 -3.58172,8 -8,8z" fill="#bcd5e0" stroke="none" stroke-width="1" stroke-linecap="butt"/><path d="M208,252c-4.41828,0 -8,-3.58172 -8,-8v-16c0,-4.41828 3.58172,-8 8,-8v0c4.41828,0 8,3.58172 8,8v16c0,4.41828 -3.58172,8 -8,8z" fill="#bcd5e0" stroke="none" stroke-width="1" stroke-linecap="butt"/><path d="M208,236c-4.41828,0 -8,-3.58172 -8,-8v0c0,-4.41828 3.58172,-8 8,-8h32c4.41828,0 8,3.58172 8,8v0c0,4.41828 -3.58172,8 -8,8z" fill="#bcd5e0" stroke="none" stroke-width="1" stroke-linecap="butt"/><path d="M240,252c-4.41828,0 -8,-3.58172 -8,-8v-16c0,-4.41828 3.58172,-8 8,-8v0c4.41828,0 8,3.58172 8,8v16c0,4.41828 -3.58172,8 -8,8z" fill="#bcd5e0" stroke="none" stroke-width="1" stroke-linecap="butt"/><path d="M240,252c-4.41828,0 -8,-3.58172 -8,-8v0c0,-4.41828 3.58172,-8 8,-8h32c4.41828,0 8,3.58172 8,8v0c0,4.41828 -3.58172,8 -8,8z" fill="#bcd5e0" stroke="none" stroke-width="1" stroke-linecap="butt"/><path d="M272,252c-4.41828,0 -8,-3.58172 -8,-8v-16c0,-4.41828 3.58172,-8 8,-8v0c4.41828,0 8,3.58172 8,8v16c0,4.41828 -3.58172,8 -8,8z" fill="#bcd5e0" stroke="none" stroke-width="1" stroke-linecap="butt"/><path d="M272,236c-4.41828,0 -8,-3.58172 -8,-8v0c0,-4.41828 3.58172,-8 8,-8h32c4.41828,0 8,3.58172 8,8v0c0,4.41828 -3.58172,8 -8,8z" fill="#bcd5e0" stroke="none" stroke-width="1" stroke-linecap="butt"/><path d="M304,252c-4.41828,0 -8,-3.58172 -8,-8v-16c0,-4.41828 3.58172,-8 8,-8v0c4.41828,0 8,3.58172 8,8v16c0,4.41828 -3.58172,8 -8,8z" fill="#bcd5e0" stroke="none" stroke-width="1" stroke-linecap="butt"/><path d="M304,252c-4.41828,0 -8,-3.58172 -8,-8v0c0,-4.41828 3.58172,-8 8,-8h32c4.41828,0 8,3.58172 8,8v0c0,4.41828 -3.58172,8 -8,8z" fill="#bcd5e0" stroke="none" stroke-width="1" stroke-linecap="butt"/><path d="M336,252c-4.41828,0 -8,-3.58172 -8,-8v-128c0,-4.41828 3.58172,-8 8,-8v0c4.41828,0 8,3.58172 8,8v128c0,4.41828 -3.58172,8 -8,8z" fill="#bcd5e0" stroke="none" stroke-width="1" stroke-linecap="butt"/><path d="M304,124c-4.41828,0 -8,-3.58172 -8,-8v0c0,-4.41828 3.58172,-8 8,-8h32c4.41828,0 8,3.58172 8,8v0c0,4.41828 -3.58172,8 -8,8z" fill="#bcd5e0" stroke="none" stroke-width="1" stroke-linecap="butt"/><path d="M304,140c-4.41828,0 -8,-3.58172 -8,-8v-16c0,-4.41828 3.58172,-8 8,-8v0c4.41828,0 8,3.58172 8,8v16c0,4.41828 -3.58172,8 -8,8z" fill="#bcd5e0" stroke="none" stroke-width="1" stroke-linecap="butt"/><path d="M272,140c-4.41828,0 -8,-3.58172 -8,-8v0c0,-4.41828 3.58172,-8 8,-8h32c4.41828,0 8,3.58172 8,8v0c0,4.41828 -3.58172,8 -8,8z" fill="#bcd5e0" stroke="none" stroke-width="1" stroke-linecap="butt"/><path d="M272,140c-4.41828,0 -8,-3.58172 -8,-8v-16c0,-4.41828 3.58172,-8 8,-8v0c4.41828,0 8,3.58172 8,8v16c0,4.41828 -3.58172,8 -8,8z" fill="#bcd5e0" stroke="none" stroke-width="1" stroke-linecap="butt"/><path d="M240,124c-4.41828,0 -8,-3.58172 -8,-8v0c0,-4.41828 3.58172,-8 8,-8h32c4.41828,0 8,3.58172 8,8v0c0,4.41828 -3.58172,8 -8,8z" fill="#bcd5e0" stroke="none" stroke-width="1" stroke-linecap="butt"/><path d="M240,140c-4.41828,0 -8,-3.58172 -8,-8v-16c0,-4.41828 3.58172,-8 8,-8v0c4.41828,0 8,3.58172 8,8v16c0,4.41828 -3.58172,8 -8,8z" fill="#bcd5e0" stroke="none" stroke-width="1" stroke-linecap="butt"/><path d="M208,140c-4.41828,0 -8,-3.58172 -8,-8v0c0,-4.41828 3.58172,-8 8,-8h32c4.41828,0 8,3.58172 8,8v0c0,4.41828 -3.58172,8 -8,8z" fill="#bcd5e0" stroke="none" stroke-width="1" stroke-linecap="butt"/><path d="M208,140c-4.41828,0 -8,-3.58172 -8,-8v-16c0,-4.41828 3.58172,-8 8,-8v0c4.41828,0 8,3.58172 8,8v16c0,4.41828 -3.58172,8 -8,8z" fill="#bcd5e0" stroke="none" stroke-width="1" stroke-linecap="butt"/><path d="M176,124c-4.41828,0 -8,-3.58172 -8,-8v0c0,-4.41828 3.58172,-8 8,-8h32c4.41828,0 8,3.58172 8,8v0c0,4.41828 -3.58172,8 -8,8z" fill="#bcd5e0" stroke="none" stroke-width="1" stroke-linecap="butt"/><path d="M176,140c-4.41828,0 -8,-3.58172 -8,-8v-16c0,-4.41828 3.58172,-8 8,-8v0c4.41828,0 8,3.58172 8,8v16c0,4.41828 -3.58172,8 -8,8z" fill="#bcd5e0" stroke="none" stroke-width="1" stroke-linecap="butt"/><path d="M144,140c-4.41828,0 -8,-3.58172 -8,-8v0c0,-4.41828 3.58172,-8 8,-8h32c4.41828,0 8,3.58172 8,8v0c0,4.41828 -3.58172,8 -8,8z" fill="#bcd5e0" stroke="none" stroke-width="1" stroke-linecap="butt"/><path d="M144,140c-4.41828,0 -8,-3.58172 -8,-8v-16c0,-4.41828 3.58172,-8 8,-8v0c4.41828,0 8,3.58172 8,8v16c0,4.41828 -3.58172,8 -8,8z" fill="#bcd5e0" stroke="none" stroke-width="1" stroke-linecap="butt"/><path d="M128,124c-4.41828,0 -8,-3.58172 -8,-8v0c0,-4.41828 3.58172,-8 8,-8h16c4.41828,0 8,3.58172 8,8v0c0,4.41828 -3.58172,8 -8,8z" fill="#bcd5e0" stroke="none" stroke-width="1" stroke-linecap="butt"/><path d="M128,244h16" fill="#000000" stroke="#213a34" stroke-width="12" stroke-linecap="round"/><path d="M144,244v-16" fill="#000000" stroke="#213a34" stroke-width="12" stroke-linecap="round"/><path d="M144,228h32" fill="#000000" stroke="#213a34" stroke-width="12" stroke-linecap="round"/><path d="M176,228v16" fill="#000000" stroke="#213a34" stroke-width="12" stroke-linecap="round"/><path d="M176,244h32" fill="#000000" stroke="#213a34" stroke-width="12" stroke-linecap="round"/><path d="M208,228v16" fill="#000000" stroke="#213a34" stroke-width="12" stroke-linecap="round"/><path d="M208,228h32" fill="#000000" stroke="#213a34" stroke-width="12" stroke-linecap="round"/><path d="M240,228v16" fill="#000000" stroke="#213a34" stroke-width="12" stroke-linecap="round"/><path d="M272,244h-32" fill="#000000" stroke="#213a34" stroke-width="12" stroke-linecap="round"/><path d="M272,228v16" fill="#000000" stroke="#213a34" stroke-width="12" stroke-linecap="round"/><path d="M304,228h-32" fill="#000000" stroke="#213a34" stroke-width="12" stroke-linecap="round"/><path d="M304,228v16" fill="#000000" stroke="#213a34" stroke-width="12" stroke-linecap="round"/><path d="M304,244h32" fill="#000000" stroke="#213a34" stroke-width="12" stroke-linecap="round"/><path d="M336,244v-128" fill="#000000" stroke="#213a34" stroke-width="12" stroke-linecap="round"/><path d="M336,116h-32" fill="#000000" stroke="#213a34" stroke-width="12" stroke-linecap="round"/><path d="M304,116v16" fill="#000000" stroke="#213a34" stroke-width="12" stroke-linecap="round"/><path d="M272,132h32" fill="#000000" stroke="#213a34" stroke-width="12" stroke-linecap="round"/><path d="M272,132v-16" fill="#000000" stroke="#213a34" stroke-width="12" stroke-linecap="round"/><path d="M272,116h-32" fill="#000000" stroke="#213a34" stroke-width="12" stroke-linecap="round"/><path d="M240,116v16" fill="#000000" stroke="#213a34" stroke-width="12" stroke-linecap="round"/><path d="M240,132h-32" fill="#000000" stroke="#213a34" stroke-width="12" stroke-linecap="round"/><path d="M208,116v16" fill="#000000" stroke="#213a34" stroke-width="12" stroke-linecap="round"/><path d="M208,116h-32" fill="#000000" stroke="#213a34" stroke-width="12" stroke-linecap="round"/><path d="M176,116v16" fill="#000000" stroke="#213a34" stroke-width="12" stroke-linecap="round"/><path d="M176,132h-32" fill="#000000" stroke="#213a34" stroke-width="12" stroke-linecap="round"/><path d="M144,132v-16" fill="#000000" stroke="#213a34" stroke-width="12" stroke-linecap="round"/><path d="M144,116h-16" fill="#000000" stroke="#213a34" stroke-width="12" stroke-linecap="round"/><path d="M120,244c0,-4.41828 3.58172,-8 8,-8c4.41828,0 8,3.58172 8,8c0,4.41828 -3.58172,8 -8,8c-4.41828,0 -8,-3.58172 -8,-8z" fill-opacity="0.35" fill="#00ff44" stroke="none" stroke-width="1" stroke-linecap="butt"/><path d="M120,116c0,-4.41828 3.58172,-8 8,-8c4.41828,0 8,3.58172 8,8c0,4.41828 -3.58172,8 -8,8c-4.41828,0 -8,-3.58172 -8,-8z" fill-opacity="0.35" fill="#ff0404" stroke="none" stroke-width="1" stroke-linecap="butt"/><path d="M124,228c0,-2.20914 1.79086,-4 4,-4c2.20914,0 4,1.79086 4,4c0,2.20914 -1.79086,4 -4,4c-2.20914,0 -4,-1.79086 -4,-4z" fill-opacity="0.8" fill="#3a627f" stroke="none" stroke-width="1" stroke-linecap="butt"/><path d="M316,228c0,-2.20914 1.79086,-4 4,-4c2.20914,0 4,1.79086 4,4c0,2.20914 -1.79086,4 -4,4c-2.20914,0 -4,-1.79086 -4,-4z" fill-opacity="0.8" fill="#3a627f" stroke="none" stroke-width="1" stroke-linecap="butt"/><path d="M128,228h192" fill="#000000" stroke-opacity="0.8" stroke="#75c5ff" stroke-width="4" stroke-linecap="round"/><path d="M156,244c0,-2.20914 1.79086,-4 4,-4c2.20914,0 4,1.79086 4,4c0,2.20914 -1.79086,4 -4,4c-2.20914,0 -4,-1.79086 -4,-4z" fill-opacity="0.8" fill="#3a627f" stroke="none" stroke-width="1" stroke-linecap="butt"/><path d="M284,244c0,-2.20914 1.79086,-4 4,-4c2.20914,0 4,1.79086 4,4c0,2.20914 -1.79086,4 -4,4c-2.20914,0 -4,-1.79086 -4,-4z" fill-opacity="0.8" fill="#3a627f" stroke="none" stroke-width="1" stroke-linecap="butt"/><path d="M160,244h128" fill="#000000" stroke-opacity="0.8" stroke="#75c5ff" stroke-width="4" stroke-linecap="round"/><path d="M124,132c0,-2.20914 1.79086,-4 4,-4c2.20914,0 4,1.79086 4,4c0,2.20914 -1.79086,4 -4,4c-2.20914,0 -4,-1.79086 -4,-4z" fill-opacity="0.8" fill="#503a7f" stroke="none" stroke-width="1" stroke-linecap="butt"/><path d="M316,132c0,-2.20914 1.79086,-4 4,-4c2.20914,0 4,1.79086 4,4c0,2.20914 -1.79086,4 -4,4c-2.20914,0 -4,-1.79086 -4,-4z" fill-opacity="0.8" fill="#503a7f" stroke="none" stroke-width="1" stroke-linecap="butt"/><path d="M128,132h192" fill="#000000" stroke-opacity="0.8" stroke="#a175ff" stroke-width="4" stroke-linecap="round"/><path d="M156,116c0,-2.20914 1.79086,-4 4,-4c2.20914,0 4,1.79086 4,4c0,2.20914 -1.79086,4 -4,4c-2.20914,0 -4,-1.79086 -4,-4z" fill-opacity="0.8" fill="#503a7f" stroke="none" stroke-width="1" stroke-linecap="butt"/><path d="M284,116c0,-2.20914 1.79086,-4 4,-4c2.20914,0 4,1.79086 4,4c0,2.20914 -1.79086,4 -4,4c-2.20914,0 -4,-1.79086 -4,-4z" fill-opacity="0.8" fill="#503a7f" stroke="none" stroke-width="1" stroke-linecap="butt"/><path d="M160,116h128" fill="#000000" stroke-opacity="0.8" stroke="#a175ff" stroke-width="4" stroke-linecap="round"/></g></g></svg>