<svg width="480px" height="360px" xmlns="http://www.w3.org/2000/svg"><path fill="#F00" d="M250.381 171.651L252.536 171.651Q252.536 173.255 252.217 174.565Q251.899 175.875 251.311 176.915L251.311 176.915L253.784 180L250.956 180L249.879 178.666Q249.010 179.400 247.939 179.786Q246.868 180.171 245.619 180.171L245.619 180.171Q244.432 180.171 243.513 179.841Q242.595 179.510 241.971 178.917Q241.347 178.323 241.022 177.503Q240.698 176.682 240.698 175.691L240.698 175.691Q240.698 174.761 240.943 174.032Q241.187 173.304 241.604 172.735Q242.020 172.165 242.565 171.731Q243.109 171.296 243.709 170.929L243.709 170.929L243.440 170.549Q242.754 169.705 242.418 168.836Q242.081 167.966 242.081 167.134L242.081 167.134Q242.081 166.252 242.363 165.506Q242.644 164.759 243.189 164.214Q243.734 163.669 244.536 163.363Q245.337 163.057 246.366 163.057L246.366 163.057Q247.357 163.057 248.104 163.339Q248.851 163.621 249.353 164.110Q249.855 164.600 250.106 165.243Q250.357 165.885 250.357 166.607L250.357 166.607Q250.357 167.526 250.044 168.217Q249.732 168.909 249.224 169.441Q248.716 169.974 248.061 170.390Q247.406 170.806 246.721 171.198L246.721 171.198L249.879 175.140Q250.418 173.695 250.381 171.651L250.381 171.651ZM242.914 175.434L242.914 175.434Q242.914 176.083 243.122 176.621Q243.330 177.160 243.715 177.546Q244.101 177.931 244.658 178.139Q245.215 178.347 245.913 178.347L245.913 178.347Q247.504 178.347 248.704 177.172L248.704 177.172L244.811 172.300Q244.395 172.581 244.046 172.900Q243.697 173.218 243.446 173.598Q243.195 173.977 243.054 174.430Q242.914 174.883 242.914 175.434ZM248.202 166.816L248.202 166.816Q248.202 165.897 247.688 165.377Q247.174 164.857 246.292 164.857L246.292 164.857Q245.803 164.857 245.429 165.016Q245.056 165.175 244.799 165.457Q244.542 165.738 244.413 166.118Q244.285 166.497 244.285 166.938L244.285 166.938Q244.285 167.599 244.529 168.168Q244.774 168.738 245.313 169.423L245.313 169.423L245.643 169.852Q246.170 169.558 246.635 169.258Q247.100 168.958 247.449 168.597Q247.798 168.236 248 167.801Q248.202 167.366 248.202 166.816Z"/></svg>