<svg version="1.1" xmlns="http://www.w3.org/2000/svg" xmlns:xlink="http://www.w3.org/1999/xlink" width="62.36325" height="60.26072" viewBox="0,0,62.36325,60.26072"><defs><linearGradient x1="270.89485" y1="121.10216" x2="270.89485" y2="179.86287" gradientUnits="userSpaceOnUse" id="color-1"><stop offset="0" stop-color="#5a4882"/><stop offset="1" stop-color="#342d42"/></linearGradient><radialGradient cx="271.83307" cy="143.95358" r="17.875" gradientUnits="userSpaceOnUse" id="color-2"><stop offset="0" stop-color="#00c7ff"/><stop offset="1" stop-color="#00c7ff" stop-opacity="0"/></radialGradient><radialGradient cx="271.83307" cy="143.95358" r="17.875" gradientUnits="userSpaceOnUse" id="color-3"><stop offset="0" stop-color="#99e2ff" stop-opacity="0.29839"/><stop offset="1" stop-color="#99e2ff" stop-opacity="0"/></radialGradient><linearGradient x1="270.892" y1="167.57146" x2="270.892" y2="180.14297" gradientUnits="userSpaceOnUse" id="color-4"><stop offset="0" stop-color="#a78be3"/><stop offset="1" stop-color="#643db8"/></linearGradient><radialGradient cx="271.13356" cy="140.6032" r="12.19293" gradientUnits="userSpaceOnUse" id="color-5"><stop offset="0" stop-color="#2d7eb5" stop-opacity="0.56452"/><stop offset="1" stop-color="#a3e3ff" stop-opacity="0.41129"/></radialGradient><radialGradient cx="271.47839" cy="159.01187" r="17.9741" gradientUnits="userSpaceOnUse" id="color-6"><stop offset="0" stop-color="#2d7eb5" stop-opacity="0.44355"/><stop offset="1" stop-color="#a3e3ff" stop-opacity="0.71935"/></radialGradient><radialGradient cx="284.3841" cy="147.45047" r="16.16438" gradientUnits="userSpaceOnUse" id="color-7"><stop offset="0" stop-color="#2d7eb5" stop-opacity="0.44355"/><stop offset="1" stop-color="#a3e3ff" stop-opacity="0.71935"/></radialGradient><radialGradient cx="261.16648" cy="151.49723" r="14.72542" gradientUnits="userSpaceOnUse" id="color-8"><stop offset="0" stop-color="#2d7eb5" stop-opacity="0.44355"/><stop offset="1" stop-color="#a3e3ff" stop-opacity="0.71935"/></radialGradient><radialGradient cx="271.64963" cy="132.95911" r="17.17165" gradientUnits="userSpaceOnUse" id="color-9"><stop offset="0" stop-color="#2d7eb5" stop-opacity="0.44355"/><stop offset="1" stop-color="#a3e3ff" stop-opacity="0.71935"/></radialGradient></defs><g transform="translate(-239.71327,-120.35215)"><g data-paper-data="{&quot;isPaintingLayer&quot;:true}" fill-rule="nonzero" stroke-linejoin="miter" stroke-miterlimit="10" stroke-dasharray="" stroke-dashoffset="0" style="mix-blend-mode: normal"><path d="M240.46327,179.86287v-58.76072h60.86325v58.76072z" fill="url(#color-1)" stroke="#916fdc" stroke-width="1.5" stroke-linecap="butt"/><path d="M253.95807,143.95358c0,-9.87209 8.00291,-17.875 17.875,-17.875c9.87209,0 17.875,8.00291 17.875,17.875c0,9.87209 -8.00291,17.875 -17.875,17.875c-9.87209,0 -17.875,-8.00291 -17.875,-17.875z" fill="url(#color-2)" stroke="url(#color-3)" stroke-width="5" stroke-linecap="butt"/><path d="M239.96343,180.14297v-12.57143h61.85715v12.57143z" fill="url(#color-4)" stroke="none" stroke-width="0" stroke-linecap="butt"/><path d="M271.25309,126.49765l0.30738,23.42955" fill="none" stroke="url(#color-5)" stroke-width="4.5" stroke-linecap="round"/><path d="M271.32741,150.78105l14.42004,5.63163l-13.89065,8.33673l-14.80704,-7.85289z" fill="none" stroke="url(#color-6)" stroke-width="4.5" stroke-linecap="round"/><path d="M273.48437,137.14457l17.83222,-5.60495l-1.18466,23.53069l-15.93201,8.456z" fill="none" stroke="url(#color-7)" stroke-width="4.5" stroke-linecap="round"/><path d="M251.67977,132.25023l17.56956,4.45068l0.79313,26.6165l-17.09864,-8.04952z" fill="none" stroke="url(#color-8)" stroke-width="4.5" stroke-linecap="round"/><path d="M271.17437,125.35161l14.48769,3.55988l-13.92415,4.34617l-14.55419,-3.8177z" fill="none" stroke="url(#color-9)" stroke-width="4.5" stroke-linecap="round"/></g></g></svg>