<svg version="1.1" xmlns="http://www.w3.org/2000/svg" xmlns:xlink="http://www.w3.org/1999/xlink" width="240.92308" height="222.46154" viewBox="0,0,240.92308,222.46154"><defs><linearGradient x1="120" y1="69.23077" x2="120" y2="290.76923" gradientUnits="userSpaceOnUse" id="color-1"><stop offset="0" stop-color="#4d6066"/><stop offset="1" stop-color="#00141a"/></linearGradient></defs><g transform="translate(-119.53846,-68.76923)"><g data-paper-data="{&quot;isPaintingLayer&quot;:true}" fill-rule="nonzero" stroke-linejoin="miter" stroke-miterlimit="10" stroke-dasharray="" stroke-dashoffset="0" style="mix-blend-mode: normal"><path d="M120,290.76923v-221.53846h240v221.53846z" fill="url(#color-1)" stroke="none" stroke-width="1" stroke-linecap="butt"/><path d="M120,69.23077h240" fill="#000000" stroke-opacity="0.5" stroke="#ffffff" stroke-width="0.92308" stroke-linecap="butt"/><path d="M120,87.69231h240" fill="#000000" stroke-opacity="0.5" stroke="#ffffff" stroke-width="0.92308" stroke-linecap="butt"/><path d="M120,106.15385h240" fill="#000000" stroke-opacity="0.5" stroke="#ffffff" stroke-width="0.92308" stroke-linecap="butt"/><path d="M120,124.61538h240" fill="#000000" stroke-opacity="0.5" stroke="#ffffff" stroke-width="0.92308" stroke-linecap="butt"/><path d="M120,143.07692h240" fill="#000000" stroke-opacity="0.5" stroke="#ffffff" stroke-width="0.92308" stroke-linecap="butt"/><path d="M120,161.53846h240" fill="#000000" stroke-opacity="0.5" stroke="#ffffff" stroke-width="0.92308" stroke-linecap="butt"/><path d="M120,180h240" fill="#000000" stroke-opacity="0.5" stroke="#ffffff" stroke-width="0.92308" stroke-linecap="butt"/><path d="M120,198.46154h240" fill="#000000" stroke-opacity="0.5" stroke="#ffffff" stroke-width="0.92308" stroke-linecap="butt"/><path d="M120,216.92308h240" fill="#000000" stroke-opacity="0.5" stroke="#ffffff" stroke-width="0.92308" stroke-linecap="butt"/><path d="M120,235.38462h240" fill="#000000" stroke-opacity="0.5" stroke="#ffffff" stroke-width="0.92308" stroke-linecap="butt"/><path d="M120,253.84615h240" fill="#000000" stroke-opacity="0.5" stroke="#ffffff" stroke-width="0.92308" stroke-linecap="butt"/><path d="M120,272.30769h240" fill="#000000" stroke-opacity="0.5" stroke="#ffffff" stroke-width="0.92308" stroke-linecap="butt"/><path d="M120,290.76923h240" fill="#000000" stroke-opacity="0.5" stroke="#ffffff" stroke-width="0.92308" stroke-linecap="butt"/><path d="M120,69.23077v221.53846" fill="#000000" stroke-opacity="0.5" stroke="#ffffff" stroke-width="0.92308" stroke-linecap="butt"/><path d="M138.46154,69.23077v221.53846" fill="#000000" stroke-opacity="0.5" stroke="#ffffff" stroke-width="0.92308" stroke-linecap="butt"/><path d="M156.92308,69.23077v221.53846" fill="#000000" stroke-opacity="0.5" stroke="#ffffff" stroke-width="0.92308" stroke-linecap="butt"/><path d="M175.38462,69.23077v221.53846" fill="#000000" stroke-opacity="0.5" stroke="#ffffff" stroke-width="0.92308" stroke-linecap="butt"/><path d="M193.84615,69.23077v221.53846" fill="#000000" stroke-opacity="0.5" stroke="#ffffff" stroke-width="0.92308" stroke-linecap="butt"/><path d="M212.30769,69.23077v221.53846" fill="#000000" stroke-opacity="0.5" stroke="#ffffff" stroke-width="0.92308" stroke-linecap="butt"/><path d="M230.76923,69.23077v221.53846" fill="#000000" stroke-opacity="0.5" stroke="#ffffff" stroke-width="0.92308" stroke-linecap="butt"/><path d="M249.23077,69.23077v221.53846" fill="#000000" stroke-opacity="0.5" stroke="#ffffff" stroke-width="0.92308" stroke-linecap="butt"/><path d="M267.69231,69.23077v221.53846" fill="#000000" stroke-opacity="0.5" stroke="#ffffff" stroke-width="0.92308" stroke-linecap="butt"/><path d="M286.15385,69.23077v221.53846" fill="#000000" stroke-opacity="0.5" stroke="#ffffff" stroke-width="0.92308" stroke-linecap="butt"/><path d="M304.61538,69.23077v221.53846" fill="#000000" stroke-opacity="0.5" stroke="#ffffff" stroke-width="0.92308" stroke-linecap="butt"/><path d="M323.07692,290.76923v-221.53846" fill="#000000" stroke-opacity="0.5" stroke="#ffffff" stroke-width="0.92308" stroke-linecap="butt"/><path d="M341.53846,69.23077v221.53846" fill="#000000" stroke-opacity="0.5" stroke="#ffffff" stroke-width="0.92308" stroke-linecap="butt"/><path d="M360,69.23077v221.53846" fill="#000000" stroke-opacity="0.5" stroke="#ffffff" stroke-width="0.92308" stroke-linecap="butt"/><path d="M166.15385,115.38462v129.23077" fill="#000000" stroke-opacity="0.5" stroke="#a3ff33" stroke-width="17.53846" stroke-linecap="round"/><path d="M166.15385,115.38462h147.69231" fill="#000000" stroke-opacity="0.5" stroke="#a3ff33" stroke-width="17.53846" stroke-linecap="round"/><path d="M313.84615,152.30769v-36.92308" fill="#000000" stroke-opacity="0.5" stroke="#a3ff33" stroke-width="17.53846" stroke-linecap="round"/><path d="M313.84615,152.30769h-110.76923" fill="#000000" stroke-opacity="0.5" stroke="#a3ff33" stroke-width="17.53846" stroke-linecap="round"/><path d="M203.07692,244.61538v-92.30769" fill="#000000" stroke-opacity="0.5" stroke="#a3ff33" stroke-width="17.53846" stroke-linecap="round"/><path d="M203.07692,244.61538h-36.92308" fill="#000000" stroke-opacity="0.5" stroke="#a3ff33" stroke-width="17.53846" stroke-linecap="round"/><path d="M166.15385,115.38462v129.23077" fill="#000000" stroke="#bbff3d" stroke-width="12" stroke-linecap="round"/><path d="M166.15385,115.38462h147.69231" fill="#000000" stroke="#bbff3d" stroke-width="12" stroke-linecap="round"/><path d="M313.84615,152.30769v-36.92308" fill="#000000" stroke="#bbff3d" stroke-width="12" stroke-linecap="round"/><path d="M313.84615,152.30769h-110.76923" fill="#000000" stroke="#bbff3d" stroke-width="12" stroke-linecap="round"/><path d="M203.07692,244.61538v-92.30769" fill="#000000" stroke="#bbff3d" stroke-width="12" stroke-linecap="round"/><path d="M203.07692,244.61538h-36.92308" fill="#000000" stroke="#bbff3d" stroke-width="12" stroke-linecap="round"/><path d="M129.23077,180c-5.09801,0 -9.23077,-4.13276 -9.23077,-9.23077v0c0,-5.09801 4.13276,-9.23077 9.23077,-9.23077h129.23077c5.09801,0 9.23077,4.13276 9.23077,9.23077v0c0,5.09801 -4.13276,9.23077 -9.23077,9.23077z" fill="#bcd5e0" stroke="none" stroke-width="1" stroke-linecap="butt"/><path d="M258.46154,235.38462c-5.09801,0 -9.23077,-4.13276 -9.23077,-9.23077v-55.38462c0,-5.09801 4.13276,-9.23077 9.23077,-9.23077v0c5.09801,0 9.23077,4.13276 9.23077,9.23077v55.38462c0,5.09801 -4.13276,9.23077 -9.23077,9.23077z" fill="#bcd5e0" stroke="none" stroke-width="1" stroke-linecap="butt"/><path d="M184.61538,235.38462c-5.09801,0 -9.23077,-4.13276 -9.23077,-9.23077v0c0,-5.09801 4.13276,-9.23077 9.23077,-9.23077h73.84615c5.09801,0 9.23077,4.13276 9.23077,9.23077v0c0,5.09801 -4.13276,9.23077 -9.23077,9.23077z" fill="#bcd5e0" stroke="none" stroke-width="1" stroke-linecap="butt"/><path d="M184.61538,235.38462c-5.09801,0 -9.23077,-4.13276 -9.23077,-9.23077v-92.30769c0,-5.09801 4.13276,-9.23077 9.23077,-9.23077v0c5.09801,0 9.23077,4.13276 9.23077,9.23077v92.30769c0,5.09801 -4.13276,9.23077 -9.23077,9.23077z" fill="#bcd5e0" stroke="none" stroke-width="1" stroke-linecap="butt"/><path d="M184.61538,143.07692c-5.09801,0 -9.23077,-4.13276 -9.23077,-9.23077v0c0,-5.09801 4.13276,-9.23077 9.23077,-9.23077h110.76923c5.09801,0 9.23077,4.13276 9.23077,9.23077v0c0,5.09801 -4.13276,9.23077 -9.23077,9.23077z" fill="#bcd5e0" stroke="none" stroke-width="1" stroke-linecap="butt"/><path d="M295.38462,272.30769c-5.09801,0 -9.23077,-4.13276 -9.23077,-9.23077v-129.23077c0,-5.09801 4.13276,-9.23077 9.23077,-9.23077v0c5.09801,0 9.23077,4.13276 9.23077,9.23077v129.23077c0,5.09801 -4.13276,9.23077 -9.23077,9.23077z" fill="#bcd5e0" stroke="none" stroke-width="1" stroke-linecap="butt"/><path d="M147.69231,272.30769c-5.09801,0 -9.23077,-4.13276 -9.23077,-9.23077v0c0,-5.09801 4.13276,-9.23077 9.23077,-9.23077h147.69231c5.09801,0 9.23077,4.13276 9.23077,9.23077v0c0,5.09801 -4.13276,9.23077 -9.23077,9.23077z" fill="#bcd5e0" stroke="none" stroke-width="1" stroke-linecap="butt"/><path d="M147.69231,272.30769c-5.09801,0 -9.23077,-4.13276 -9.23077,-9.23077v-166.15385c0,-5.09801 4.13276,-9.23077 9.23077,-9.23077v0c5.09801,0 9.23077,4.13276 9.23077,9.23077v166.15385c0,5.09801 -4.13276,9.23077 -9.23077,9.23077z" fill="#bcd5e0" stroke="none" stroke-width="1" stroke-linecap="butt"/><path d="M147.69231,106.15385c-5.09801,0 -9.23077,-4.13276 -9.23077,-9.23077v0c0,-5.09801 4.13276,-9.23077 9.23077,-9.23077v0c5.09801,0 9.23077,4.13276 9.23077,9.23077v0c0,5.09801 -4.13276,9.23077 -9.23077,9.23077z" fill="#bcd5e0" stroke="none" stroke-width="1" stroke-linecap="butt"/><path d="M147.69231,106.15385c-5.09801,0 -9.23077,-4.13276 -9.23077,-9.23077v0c0,-5.09801 4.13276,-9.23077 9.23077,-9.23077h184.61538c5.09801,0 9.23077,4.13276 9.23077,9.23077v0c0,5.09801 -4.13276,9.23077 -9.23077,9.23077z" fill="#bcd5e0" stroke="none" stroke-width="1" stroke-linecap="butt"/><path d="M332.30769,290.76923c-5.09801,0 -9.23077,-4.13276 -9.23077,-9.23077v-184.61538c0,-5.09801 4.13276,-9.23077 9.23077,-9.23077v0c5.09801,0 9.23077,4.13276 9.23077,9.23077v184.61538c0,5.09801 -4.13276,9.23077 -9.23077,9.23077z" fill="#bcd5e0" stroke="none" stroke-width="1" stroke-linecap="butt"/><path d="M129.23077,170.76923h129.23077" fill="#000000" stroke="#213a34" stroke-width="13.84615" stroke-linecap="round"/><path d="M258.46154,170.76923v55.38462" fill="#000000" stroke="#213a34" stroke-width="13.84615" stroke-linecap="round"/><path d="M258.46154,226.15385h-73.84615" fill="#000000" stroke="#213a34" stroke-width="13.84615" stroke-linecap="round"/><path d="M184.61538,226.15385v-92.30769" fill="#000000" stroke="#213a34" stroke-width="13.84615" stroke-linecap="round"/><path d="M184.61538,133.84615h110.76923" fill="#000000" stroke="#213a34" stroke-width="13.84615" stroke-linecap="round"/><path d="M295.38462,133.84615v129.23077" fill="#000000" stroke="#213a34" stroke-width="13.84615" stroke-linecap="round"/><path d="M295.38462,263.07692h-147.69231" fill="#000000" stroke="#213a34" stroke-width="13.84615" stroke-linecap="round"/><path d="M147.69231,263.07692v-166.15385" fill="#000000" stroke="#213a34" stroke-width="13.84615" stroke-linecap="round"/><path d="M147.69231,96.92308v0" fill="#000000" stroke="#213a34" stroke-width="13.84615" stroke-linecap="round"/><path d="M147.69231,96.92308h184.61538" fill="#000000" stroke="#213a34" stroke-width="13.84615" stroke-linecap="round"/><path d="M332.30769,96.92308v184.61538" fill="#000000" stroke="#213a34" stroke-width="13.84615" stroke-linecap="round"/><path d="M184.61538,183.69231v-25.84615" fill="#000000" stroke="#1c332c" stroke-width="11.07692" stroke-linecap="round"/><path d="M197.53846,170.76923h-25.84615" fill="#000000" stroke="#213a33" stroke-width="11.07692" stroke-linecap="round"/><path d="M147.69231,183.69231v-25.84615" fill="#000000" stroke="#1c332c" stroke-width="11.07692" stroke-linecap="round"/><path d="M160.61538,170.76923h-25.84615" fill="#000000" stroke="#213a33" stroke-width="11.07692" stroke-linecap="round"/><path d="M175.38462,189.23077c0,-25.49007 20.66378,-46.15385 46.15385,-46.15385c25.49007,0 46.15385,20.66378 46.15385,46.15385c0,25.49007 -20.66378,46.15385 -46.15385,46.15385c-25.49007,0 -46.15385,-20.66378 -46.15385,-46.15385z" fill-opacity="0.3" fill="#bbfff4" stroke-opacity="0.6" stroke="#bbfff4" stroke-width="2.30769" stroke-linecap="butt"/><path d="M212.30769,207.69231c0,-35.68609 28.92929,-64.61538 64.61538,-64.61538c35.68609,0 64.61538,28.92929 64.61538,64.61538c0,35.68609 -28.92929,64.61538 -64.61538,64.61538c-35.68609,0 -64.61538,-28.92929 -64.61538,-64.61538z" fill-opacity="0.3" fill="#ff7dfb" stroke-opacity="0.6" stroke="#ff7dfb" stroke-width="3.23077" stroke-linecap="butt"/><path d="M120,170.76923c0,-5.09801 4.13276,-9.23077 9.23077,-9.23077c5.09801,0 9.23077,4.13276 9.23077,9.23077c0,5.09801 -4.13276,9.23077 -9.23077,9.23077c-5.09801,0 -9.23077,-4.13276 -9.23077,-9.23077z" fill-opacity="0.35" fill="#00ff44" stroke="none" stroke-width="1" stroke-linecap="butt"/><path d="M323.07692,281.53846c0,-5.09801 4.13276,-9.23077 9.23077,-9.23077c5.09801,0 9.23077,4.13276 9.23077,9.23077c0,5.09801 -4.13276,9.23077 -9.23077,9.23077c-5.09801,0 -9.23077,-4.13276 -9.23077,-9.23077z" fill-opacity="0.35" fill="#ff0404" stroke="none" stroke-width="1" stroke-linecap="butt"/></g></g></svg>