<svg version="1.1" xmlns="http://www.w3.org/2000/svg" xmlns:xlink="http://www.w3.org/1999/xlink" width="62.36325" height="29.68929" viewBox="0,0,62.36325,29.68929"><defs><linearGradient x1="270.66865" y1="151.58255" x2="270.66865" y2="179.77184" gradientUnits="userSpaceOnUse" id="color-1"><stop offset="0" stop-color="#455c8f"/><stop offset="1" stop-color="#003758"/></linearGradient><linearGradient x1="270.78229" y1="171.30076" x2="270.78229" y2="179.27941" gradientUnits="userSpaceOnUse" id="color-2"><stop offset="0" stop-color="#0b1228"/><stop offset="1" stop-color="#0b1228" stop-opacity="0"/></linearGradient><linearGradient x1="255.81736" y1="171.05721" x2="255.81736" y2="176.13414" gradientUnits="userSpaceOnUse" id="color-3"><stop offset="0" stop-color="#624d00"/><stop offset="1" stop-color="#947400"/></linearGradient><radialGradient cx="255.68494" cy="163.34209" r="11.4316" gradientUnits="userSpaceOnUse" id="color-4"><stop offset="0" stop-color="#ffd952"/><stop offset="1" stop-color="#b58e00"/></radialGradient><linearGradient x1="257.03087" y1="166.14873" x2="273.3295" y2="166.14873" gradientUnits="userSpaceOnUse" id="color-5"><stop offset="0" stop-color="#fffffb"/><stop offset="1" stop-color="#ffed61"/></linearGradient><radialGradient cx="280.40635" cy="166.72778" r="12.28591" gradientUnits="userSpaceOnUse" id="color-6"><stop offset="0" stop-color="#ffe1ba" stop-opacity="0"/><stop offset="1" stop-color="#ffe1ba"/></radialGradient></defs><g transform="translate(-239.48706,-150.83255)"><g data-paper-data="{&quot;isPaintingLayer&quot;:true}" fill-rule="nonzero" stroke-linejoin="miter" stroke-miterlimit="10" stroke-dasharray="" stroke-dashoffset="0" style="mix-blend-mode: normal"><path d="M240.23706,179.77184v-28.18929h60.86325v28.18929z" fill="url(#color-1)" stroke="#543f10" stroke-width="1.5" stroke-linecap="butt"/><g><path d="M241.09529,171.15407h59.38095" fill="none" stroke-opacity="0.70968" stroke="#ffffff" stroke-width="0.5" stroke-linecap="round"/><path d="M240.89862,179.27941v-7.97865h59.76739v7.97865z" data-paper-data="{&quot;index&quot;:null}" fill="url(#color-2)" stroke="none" stroke-width="0" stroke-linecap="butt"/></g><path d="M259.30773,169.62452l5.08654,5.58654c0,0 -3.33882,1.95654 -8.37912,1.70879c-4.81847,0.25712 -8.77472,-1.70879 -8.77472,-1.70879l4.48077,-5.40385z" fill="url(#color-3)" stroke="none" stroke-width="0" stroke-linecap="round"/><text transform="translate(294.83124,160.49345) scale(0.20671,0.20671)" font-size="40" xml:space="preserve" fill="#ffffff" fill-rule="nonzero" stroke="none" stroke-width="1" stroke-linecap="butt" stroke-linejoin="miter" stroke-miterlimit="10" stroke-dasharray="" stroke-dashoffset="0" font-family="Sans Serif" font-weight="normal" text-anchor="start" style="mix-blend-mode: normal"><tspan x="0" dy="0">5</tspan></text><path d="M244.25332,163.34209c0,-6.3135 5.26986,-7.48618 11.58337,-7.48618c6.31351,0 11.27986,1.17267 11.27986,7.48618c0,6.3135 -5.1181,8.70016 -11.4316,8.70016c-6.3135,0 -11.43162,-2.38666 -11.43162,-8.70016z" fill="url(#color-4)" stroke="none" stroke-width="0" stroke-linecap="butt"/><path d="M277.10784,166.63364c-0.03048,1.0433 -3.8403,2.53437 -8.61853,2.31302c-4.98647,-0.231 -10.95338,-2.20075 -11.14527,-2.31091c-0.40999,-0.23537 3.64861,-0.26305 7.98942,-1.50232c2.23894,-0.6392 1.70437,-1.52966 1.70437,-1.52966c0,0 10.14289,0.53565 10.07001,3.02987z" fill="url(#color-5)" stroke="none" stroke-width="0" stroke-linecap="round"/><path d="M273.52498,164.17957c4.35598,0.04007 23.8422,1.16679 17.68725,5.50854c-4.88307,3.44455 -24.89179,-0.32255 -24.89179,-0.32255c2.18496,0 10.29133,0.05444 12.45744,-2.09467c1.97581,-1.96031 -5.2529,-3.09132 -5.2529,-3.09132z" fill="url(#color-6)" stroke="none" stroke-width="0.5" stroke-linecap="butt"/></g></g></svg>