<svg version="1.1" xmlns="http://www.w3.org/2000/svg" xmlns:xlink="http://www.w3.org/1999/xlink" width="19.80508" height="13.36395" viewBox="0,0,19.80508,13.36395"><g transform="translate(-245.2689,-164.73747)"><g data-paper-data="{&quot;isPaintingLayer&quot;:true}" fill="#ff0000" fill-rule="nonzero" stroke="none" stroke-width="0.26459" stroke-linecap="butt" stroke-linejoin="miter" stroke-miterlimit="10" stroke-dasharray="" stroke-dashoffset="0" style="mix-blend-mode: normal"><path d="M256.50496,171.45455c0.65385,1.59851 1.23888,2.6916 1.7551,3.27929c0.52768,0.58768 1.14139,0.88152 1.84111,0.88152c0.81446,0 1.47978,-0.39375 1.99601,-1.18125c0.52768,-0.7875 0.79151,-1.81594 0.79151,-3.08533c0,-1.25765 -0.24089,-2.26261 -0.72269,-3.01485c-0.48179,-0.75224 -1.12419,-1.12836 -1.92718,-1.12836c-0.7571,0 -1.43963,0.34674 -2.04759,1.0402c-0.5965,0.68173 -1.1586,1.75133 -1.68628,3.20877zM253.80347,171.31365c-0.64239,-1.57499 -1.22742,-2.65046 -1.7551,-3.22641c-0.52768,-0.58768 -1.14139,-0.88152 -1.84111,-0.88152c-0.81446,0 -1.48551,0.39375 -2.01319,1.18125c-0.51622,0.77576 -0.77433,1.78659 -0.77433,3.03248c0,1.28116 0.23517,2.30372 0.70551,3.06769c0.48179,0.75224 1.1127,1.12836 1.89272,1.12836c0.76858,0 1.45688,-0.34674 2.06484,-1.0402c0.60796,-0.69347 1.18152,-1.78068 1.72068,-3.26165zM255.1628,169.03932c0.53915,-1.3752 1.22742,-2.43305 2.06484,-3.17352c0.84887,-0.75222 1.79524,-1.12832 2.83914,-1.12832c1.36507,0 2.54088,0.64644 3.52739,1.93933c0.98654,1.28118 1.4798,2.86205 1.4798,4.74265c0,1.96286 -0.47032,3.56724 -1.41098,4.81314c-0.92918,1.2459 -2.11645,1.86884 -3.56182,1.86884c-0.95211,0 -1.79524,-0.29385 -2.52941,-0.88155c-0.73416,-0.58768 -1.54861,-1.6514 -2.44336,-3.19113c-0.74564,1.45747 -1.497,2.50355 -2.2541,3.13824c-0.7571,0.62296 -1.62316,0.93444 -2.59823,0.93444c-1.4339,0 -2.62691,-0.62883 -3.57904,-1.88648c-0.95211,-1.25765 -1.42816,-2.85614 -1.42816,-4.79549c0,-2.03339 0.44737,-3.65542 1.34211,-4.86605c0.90624,-1.21062 2.11647,-1.81593 3.63065,-1.81593c1.0783,0 2.00748,0.34085 2.78752,1.02256c0.78004,0.66995 1.49125,1.76305 2.13363,3.27929z"/></g></g></svg>