<svg version="1.1" xmlns="http://www.w3.org/2000/svg" xmlns:xlink="http://www.w3.org/1999/xlink" width="20.03333" height="15.68925" viewBox="0,0,20.03333,15.68925"><defs><radialGradient cx="248.579" cy="166.36129" r="3.176" gradientUnits="userSpaceOnUse" id="color-1"><stop offset="0" stop-color="#c1ff21"/><stop offset="1" stop-color="#5d7810" stop-opacity="0.46384"/></radialGradient><radialGradient cx="248.579" cy="166.36129" r="3.176" gradientUnits="userSpaceOnUse" id="color-2"><stop offset="0" stop-color="#b2ff00"/><stop offset="1" stop-color="#b2ff00" stop-opacity="0"/></radialGradient><radialGradient cx="244.655" cy="167.39462" r="3.3" gradientUnits="userSpaceOnUse" id="color-3"><stop offset="0" stop-color="#c1ff21"/><stop offset="1" stop-color="#5d7810" stop-opacity="0.46384"/></radialGradient><radialGradient cx="244.655" cy="167.39462" r="3.3" gradientUnits="userSpaceOnUse" id="color-4"><stop offset="0" stop-color="#b2ff00"/><stop offset="1" stop-color="#b2ff00" stop-opacity="0"/></radialGradient><radialGradient cx="252.655" cy="167.12795" r="3.3" gradientUnits="userSpaceOnUse" id="color-5"><stop offset="0" stop-color="#c1ff21"/><stop offset="1" stop-color="#5d7810" stop-opacity="0.46384"/></radialGradient><radialGradient cx="252.655" cy="167.12795" r="3.3" gradientUnits="userSpaceOnUse" id="color-6"><stop offset="0" stop-color="#b2ff00"/><stop offset="1" stop-color="#b2ff00" stop-opacity="0"/></radialGradient><radialGradient cx="243.00434" cy="170.92796" r="3.38267" gradientUnits="userSpaceOnUse" id="color-7"><stop offset="0" stop-color="#c1ff21"/><stop offset="1" stop-color="#5d7810" stop-opacity="0.46384"/></radialGradient><radialGradient cx="243.00434" cy="170.92796" r="3.38267" gradientUnits="userSpaceOnUse" id="color-8"><stop offset="0" stop-color="#b2ff00"/><stop offset="1" stop-color="#b2ff00" stop-opacity="0"/></radialGradient><radialGradient cx="254.755" cy="170.98064" r="3.4" gradientUnits="userSpaceOnUse" id="color-9"><stop offset="0" stop-color="#c1ff21"/><stop offset="1" stop-color="#5d7810" stop-opacity="0.46384"/></radialGradient><radialGradient cx="254.755" cy="170.98064" r="3.4" gradientUnits="userSpaceOnUse" id="color-10"><stop offset="0" stop-color="#b2ff00"/><stop offset="1" stop-color="#b2ff00" stop-opacity="0"/></radialGradient><radialGradient cx="244.08833" cy="173.86021" r="3.46667" gradientUnits="userSpaceOnUse" id="color-11"><stop offset="0" stop-color="#c1ff21"/><stop offset="1" stop-color="#5d7810" stop-opacity="0.46384"/></radialGradient><radialGradient cx="244.08833" cy="173.86021" r="3.46667" gradientUnits="userSpaceOnUse" id="color-12"><stop offset="0" stop-color="#b2ff00"/><stop offset="1" stop-color="#b2ff00" stop-opacity="0"/></radialGradient><radialGradient cx="253.58833" cy="174.03333" r="3.5" gradientUnits="userSpaceOnUse" id="color-13"><stop offset="0" stop-color="#c1ff21"/><stop offset="1" stop-color="#5d7810" stop-opacity="0.46384"/></radialGradient><radialGradient cx="253.58833" cy="174.03333" r="3.5" gradientUnits="userSpaceOnUse" id="color-14"><stop offset="0" stop-color="#b2ff00"/><stop offset="1" stop-color="#b2ff00" stop-opacity="0"/></radialGradient><radialGradient cx="248.62167" cy="175.13978" r="3.53333" gradientUnits="userSpaceOnUse" id="color-15"><stop offset="0" stop-color="#c1ff21"/><stop offset="1" stop-color="#5d7810" stop-opacity="0.46384"/></radialGradient><radialGradient cx="248.62167" cy="175.13978" r="3.53333" gradientUnits="userSpaceOnUse" id="color-16"><stop offset="0" stop-color="#b2ff00"/><stop offset="1" stop-color="#b2ff00" stop-opacity="0"/></radialGradient></defs><g transform="translate(-238.87167,-163.05)"><g data-paper-data="{&quot;isPaintingLayer&quot;:true}" fill-rule="nonzero" stroke-width="1.5" stroke-linecap="butt" stroke-linejoin="miter" stroke-miterlimit="10" stroke-dasharray="" stroke-dashoffset="0" style="mix-blend-mode: normal"><path d="M251.755,166.36129c0,1.41456 -1.42195,2.56129 -3.176,2.56129c-1.75405,0 -3.176,-1.14673 -3.176,-2.56129c0,-1.41456 1.42194,-2.56129 3.176,-2.56129c1.75405,0 3.176,1.14673 3.176,2.56129z" fill="url(#color-1)" stroke="url(#color-2)"/><path d="M247.955,167.39462c0,1.46979 -1.47746,2.66129 -3.3,2.66129c-1.82254,0 -3.3,-1.1915 -3.3,-2.66129c0,-1.46979 1.47746,-2.66129 3.3,-2.66129c1.82254,0 3.3,1.1915 3.3,2.66129z" fill="url(#color-3)" stroke="url(#color-4)"/><path d="M255.955,167.12795c0,1.46979 -1.47746,2.66129 -3.3,2.66129c-1.82254,0 -3.3,-1.1915 -3.3,-2.66129c0,-1.46979 1.47746,-2.66129 3.3,-2.66129c1.82254,0 3.3,1.1915 3.3,2.66129z" fill="url(#color-5)" stroke="url(#color-6)"/><path d="M246.38701,170.92796c0,1.50661 -1.51448,2.72796 -3.38267,2.72796c-1.86819,0 -3.38267,-1.22135 -3.38267,-2.72796c0,-1.50661 1.51447,-2.72796 3.38267,-2.72796c1.86819,0 3.38267,1.22135 3.38267,2.72796z" fill="url(#color-7)" stroke="url(#color-8)"/><path d="M258.155,170.98064c0,1.51433 -1.52223,2.74194 -3.4,2.74194c-1.87777,0 -3.4,-1.22761 -3.4,-2.74194c0,-1.51433 1.52223,-2.74193 3.4,-2.74193c1.87777,0 3.4,1.2276 3.4,2.74193z" fill="url(#color-9)" stroke="url(#color-10)"/><path d="M247.555,173.86021c0,1.54402 -1.55209,2.79569 -3.46667,2.79569c-1.91458,0 -3.46667,-1.25168 -3.46667,-2.79569c0,-1.54402 1.55208,-2.7957 3.46667,-2.7957c1.91458,0 3.46667,1.25168 3.46667,2.7957z" fill="url(#color-11)" stroke="url(#color-12)"/><path d="M257.08833,174.03333c0,1.55887 -1.56701,2.82258 -3.5,2.82258c-1.933,0 -3.5,-1.26371 -3.5,-2.82258c0,-1.55887 1.567,-2.82258 3.5,-2.82258c1.933,0 3.5,1.26371 3.5,2.82258z" fill="url(#color-13)" stroke="url(#color-14)"/><path d="M252.155,175.13978c0,1.57371 -1.58193,2.84947 -3.53333,2.84947c-1.9514,0 -3.53333,-1.27575 -3.53333,-2.84947c0,-1.57371 1.58193,-2.84946 3.53333,-2.84946c1.9514,0 3.53333,1.27575 3.53333,2.84946z" fill="url(#color-15)" stroke="url(#color-16)"/></g></g></svg>