<svg version="1.1" xmlns="http://www.w3.org/2000/svg" xmlns:xlink="http://www.w3.org/1999/xlink" width="62.36325" height="60.26072" viewBox="0,0,62.36325,60.26072"><defs><linearGradient x1="270.89485" y1="121.10212" x2="270.89485" y2="179.86284" gradientUnits="userSpaceOnUse" id="color-1"><stop offset="0" stop-color="#8a7088"/><stop offset="1" stop-color="#615060"/></linearGradient><radialGradient cx="270.4" cy="143.95" r="28.95" gradientUnits="userSpaceOnUse" id="color-2"><stop offset="0" stop-color="#a65dac"/><stop offset="1" stop-color="#542b5a"/></radialGradient><radialGradient cx="270.4" cy="143.95" r="28.95" gradientUnits="userSpaceOnUse" id="color-3"><stop offset="0" stop-color="#cccccc"/><stop offset="1" stop-color="#cccccc" stop-opacity="0"/></radialGradient><radialGradient cx="251.85" cy="144" r="14.95" gradientUnits="userSpaceOnUse" id="color-4"><stop offset="0" stop-color="#da94ff"/><stop offset="1" stop-color="#da94ff" stop-opacity="0"/></radialGradient><radialGradient cx="265.35" cy="143.7" r="14.25" gradientUnits="userSpaceOnUse" id="color-5"><stop offset="0" stop-color="#da94ff"/><stop offset="1" stop-color="#da94ff" stop-opacity="0"/></radialGradient><radialGradient cx="255.8" cy="143.75" r="15" gradientUnits="userSpaceOnUse" id="color-6"><stop offset="0" stop-color="#da94ff"/><stop offset="1" stop-color="#da94ff" stop-opacity="0"/></radialGradient><radialGradient cx="274.75" cy="143.35001" r="13.9" gradientUnits="userSpaceOnUse" id="color-7"><stop offset="0" stop-color="#da94ff"/><stop offset="1" stop-color="#da94ff" stop-opacity="0"/></radialGradient><radialGradient cx="277.85" cy="143.65001" r="13.8" gradientUnits="userSpaceOnUse" id="color-8"><stop offset="0" stop-color="#da94ff"/><stop offset="1" stop-color="#da94ff" stop-opacity="0"/></radialGradient><radialGradient cx="283.75" cy="143.2" r="13.85" gradientUnits="userSpaceOnUse" id="color-9"><stop offset="0" stop-color="#da94ff"/><stop offset="1" stop-color="#da94ff" stop-opacity="0"/></radialGradient><radialGradient cx="292.3" cy="142.30001" r="14.25" gradientUnits="userSpaceOnUse" id="color-10"><stop offset="0" stop-color="#da94ff"/><stop offset="1" stop-color="#da94ff" stop-opacity="0"/></radialGradient><linearGradient x1="270.892" y1="167.57146" x2="270.892" y2="180.14295" gradientUnits="userSpaceOnUse" id="color-11"><stop offset="0" stop-color="#d091ce"/><stop offset="1" stop-color="#674866"/></linearGradient><radialGradient cx="251.75" cy="144.30001" r="14.95" gradientUnits="userSpaceOnUse" id="color-12"><stop offset="0" stop-color="#a600ff"/><stop offset="1" stop-color="#a600ff" stop-opacity="0"/></radialGradient><radialGradient cx="265.25" cy="144" r="14.25" gradientUnits="userSpaceOnUse" id="color-13"><stop offset="0" stop-color="#a600ff"/><stop offset="1" stop-color="#a600ff" stop-opacity="0"/></radialGradient><radialGradient cx="255.7" cy="144.05001" r="15" gradientUnits="userSpaceOnUse" id="color-14"><stop offset="0" stop-color="#a600ff"/><stop offset="1" stop-color="#a600ff" stop-opacity="0"/></radialGradient><radialGradient cx="274.65" cy="143.65001" r="13.9" gradientUnits="userSpaceOnUse" id="color-15"><stop offset="0" stop-color="#a600ff"/><stop offset="1" stop-color="#a600ff" stop-opacity="0"/></radialGradient><radialGradient cx="277.75" cy="143.95" r="13.8" gradientUnits="userSpaceOnUse" id="color-16"><stop offset="0" stop-color="#a600ff"/><stop offset="1" stop-color="#a600ff" stop-opacity="0"/></radialGradient><radialGradient cx="283.65" cy="143.5" r="13.85" gradientUnits="userSpaceOnUse" id="color-17"><stop offset="0" stop-color="#a600ff"/><stop offset="1" stop-color="#a600ff" stop-opacity="0"/></radialGradient><radialGradient cx="292.2" cy="142.60001" r="14.25" gradientUnits="userSpaceOnUse" id="color-18"><stop offset="0" stop-color="#a600ff"/><stop offset="1" stop-color="#a600ff" stop-opacity="0"/></radialGradient></defs><g transform="translate(-239.71327,-120.35212)"><g data-paper-data="{&quot;isPaintingLayer&quot;:true}" fill-rule="nonzero" stroke-linejoin="miter" stroke-miterlimit="10" stroke-dasharray="" stroke-dashoffset="0" style="mix-blend-mode: normal"><path d="M240.46327,179.86284v-58.76072h60.86325v58.76072z" fill="url(#color-1)" stroke="#bf86bd" stroke-width="1.5" stroke-linecap="butt"/><path d="M241.25,154.95l0.3,-21.4c0,0 13.92256,-4.57262 28.69931,-4.49913c14.95657,0.07439 30.10069,4.59913 30.10069,4.59913l0.1,21.7c0,0 -15.36395,3.82869 -30,3.6c-14.66505,-0.22914 -29.2,-4 -29.2,-4z" fill="url(#color-2)" stroke="url(#color-3)" stroke-width="2.5" stroke-linecap="butt"/><path d="M252.55,130.85001c0,0 7.05338,5.78518 7.2,10.4c0.3,9.44253 -10.33426,-0.45054 -10.64868,7.28207c-0.40129,9.86881 2.74868,10.41793 2.74868,10.41793" fill="none" stroke="url(#color-4)" stroke-width="5.5" stroke-linecap="round"/><path d="M265.35001,129.45001c0,0 -4.32868,9.28723 -0.97442,15.2736c2.45209,4.37625 5.77441,4.40547 5.77441,6.6264c0,3.57278 -4.8,6.6 -4.8,6.6" fill="none" stroke="url(#color-5)" stroke-width="5.5" stroke-linecap="round"/><path d="M259.95,158.75c0,0 -5.52673,-0.87655 -5.07393,-5.76049c0.07238,-0.78071 1.0011,-2.09601 2.14938,-3.53863c2.08586,-2.62054 4.89618,-5.66122 4.61405,-6.68097c-1.35556,-4.89961 -3.3895,-12.1199 -3.3895,-12.1199" fill="none" stroke="url(#color-6)" stroke-width="5.5" stroke-linecap="round"/><path d="M274.75,129.45001c0,0 -3.12253,6.50418 -2.3637,9.27229c0.96594,3.52365 5.8637,3.72314 5.8637,6.42771c0,4.39684 -3.5,12.1 -3.5,12.1" fill="none" stroke="url(#color-7)" stroke-width="5.5" stroke-linecap="round"/><path d="M276.95,156.75c0,0 -5.6,-8.80496 -5.6,-12.2c0,-4.91629 7.5,-8 7.5,-8" fill="none" stroke="url(#color-8)" stroke-width="5.5" stroke-linecap="round"/><path d="M283.75,129.35001c0,0 -2.87983,7.99108 -1.45765,12.42221c0.71771,2.23617 6.25765,0.95707 6.25765,2.57779c0,4.35029 -4.8,12.7 -4.8,12.7" fill="none" stroke="url(#color-9)" stroke-width="5.5" stroke-linecap="round"/><path d="M292.75,156.55001c0,0 -10.78098,-3.43091 -10.89745,-7.11903c-0.16577,-5.2493 9.29744,-11.18097 9.29744,-11.18097" fill="none" stroke="url(#color-10)" stroke-width="5.5" stroke-linecap="round"/><path d="M239.96343,180.14295v-12.57143h61.85715v12.57143z" fill="url(#color-11)" stroke="none" stroke-width="0" stroke-linecap="butt"/><path d="M253.45,132.05001c0,0 6.05338,4.88518 6.2,9.5c0.3,9.44253 -10.33425,-0.45054 -10.64868,7.28207c-0.40129,9.86881 2.74868,10.41793 2.74868,10.41793" fill="none" stroke="url(#color-12)" stroke-width="2.5" stroke-linecap="round"/><path d="M265.25,129.75001c0,0 -4.32868,9.28723 -0.97442,15.2736c2.45209,4.37625 5.77442,4.40547 5.77442,6.6264c0,3.57278 -4.8,6.6 -4.8,6.6" fill="none" stroke="url(#color-13)" stroke-width="2.5" stroke-linecap="round"/><path d="M259.85,159.05c0,0 -5.52673,-0.87656 -5.07393,-5.7605c0.07238,-0.78071 1.0011,-2.09601 2.14938,-3.53863c2.08586,-2.62054 4.89618,-5.66121 4.61405,-6.68096c-1.35556,-4.89961 -2.3895,-11.0199 -2.3895,-11.0199" fill="none" stroke="url(#color-14)" stroke-width="2.5" stroke-linecap="round"/><path d="M274.65,129.75001c0,0 -3.12253,6.50418 -2.3637,9.27229c0.96594,3.52366 5.8637,3.72314 5.8637,6.42771c0,4.39683 -3.5,12.1 -3.5,12.1" fill="none" stroke="url(#color-15)" stroke-width="2.5" stroke-linecap="round"/><path d="M276.85,157.05001c0,0 -5.6,-8.80496 -5.6,-12.2c0,-4.91629 7.5,-8 7.5,-8" fill="none" stroke="url(#color-16)" stroke-width="2.5" stroke-linecap="round"/><path d="M283.65,129.65001c0,0 -2.87983,7.99108 -1.45765,12.42221c0.71771,2.23617 6.25765,0.95707 6.25765,2.57779c0,4.3503 -4.8,12.7 -4.8,12.7" fill="none" stroke="url(#color-17)" stroke-width="2.5" stroke-linecap="round"/><path d="M292.65,156.85001c0,0 -10.78098,-3.43091 -10.89745,-7.11903c-0.16577,-5.2493 9.29745,-11.18097 9.29745,-11.18097" fill="none" stroke="url(#color-18)" stroke-width="2.5" stroke-linecap="round"/></g></g></svg>