<svg width="480px" height="360px" xmlns="http://www.w3.org/2000/svg"><path fill="#F00" d="M251.691 176.646L251.691 176.646Q251.691 177.295 251.471 177.809Q251.250 178.323 250.871 178.721Q250.491 179.119 249.989 179.400Q249.487 179.682 248.918 179.865Q248.349 180.049 247.749 180.135Q247.149 180.220 246.574 180.220L246.574 180.220Q245.325 180.220 244.279 180.110Q243.232 180 242.228 179.755L242.228 179.755L242.228 177.796Q243.305 178.103 244.370 178.262Q245.435 178.421 246.488 178.421L246.488 178.421Q248.018 178.421 248.753 178.005Q249.487 177.588 249.487 176.817L249.487 176.817Q249.487 176.487 249.371 176.223Q249.255 175.960 248.949 175.721Q248.643 175.483 248 175.226Q247.357 174.969 246.243 174.638L246.243 174.638Q245.411 174.393 244.707 174.081Q244.003 173.769 243.489 173.340Q242.975 172.912 242.681 172.337Q242.387 171.761 242.387 170.978L242.387 170.978Q242.387 170.464 242.626 169.852Q242.865 169.239 243.440 168.713Q244.015 168.187 244.995 167.838Q245.974 167.489 247.443 167.489L247.443 167.489Q248.165 167.489 249.047 167.568Q249.928 167.648 250.883 167.844L250.883 167.844L250.883 169.741Q249.879 169.497 248.979 169.380Q248.080 169.264 247.419 169.264L247.419 169.264Q246.623 169.264 246.078 169.386Q245.533 169.509 245.197 169.723Q244.860 169.937 244.713 170.225Q244.566 170.513 244.566 170.843L244.566 170.843Q244.566 171.174 244.695 171.443Q244.823 171.712 245.172 171.963Q245.521 172.214 246.145 172.465Q246.770 172.716 247.774 173.010L247.774 173.010Q248.863 173.328 249.610 173.677Q250.357 174.026 250.822 174.454Q251.287 174.883 251.489 175.422Q251.691 175.960 251.691 176.646Z"/></svg>