<svg width="480px" height="360px" xmlns="http://www.w3.org/2000/svg"><path fill="#F00" d="M246.941 164.024L247.247 161.699L249.022 161.699L248.704 164.086Q249.340 164.147 249.983 164.245Q250.626 164.343 251.177 164.477L251.177 164.477L251.177 166.363Q250.503 166.191 249.818 166.069Q249.132 165.946 248.471 165.885L248.471 165.885L247.774 171.125Q248.594 171.443 249.402 171.816Q250.210 172.190 250.852 172.698Q251.495 173.206 251.893 173.904Q252.291 174.601 252.291 175.568L252.291 175.568Q252.291 176.597 251.875 177.393Q251.458 178.188 250.712 178.739Q249.965 179.290 248.912 179.602Q247.859 179.914 246.598 179.976L246.598 179.976L246.194 182.889L244.407 182.889L244.811 179.976Q243.819 179.902 242.920 179.761Q242.020 179.621 241.359 179.449L241.359 179.449L241.359 177.417Q242.130 177.686 243.042 177.858Q243.954 178.029 245.068 178.090L245.068 178.090L245.790 172.581Q244.995 172.275 244.223 171.920Q243.452 171.565 242.846 171.070Q242.240 170.574 241.861 169.901Q241.481 169.227 241.481 168.297L241.481 168.297Q241.481 167.538 241.800 166.797Q242.118 166.057 242.791 165.463Q243.464 164.869 244.493 164.484Q245.521 164.098 246.941 164.024L246.941 164.024ZM246.072 170.451L246.696 165.861Q245.166 165.995 244.462 166.577Q243.758 167.158 243.758 168.064L243.758 168.064Q243.758 168.909 244.340 169.454Q244.921 169.998 246.072 170.451L246.072 170.451ZM247.467 173.255L246.843 178.090Q248.496 177.968 249.249 177.356Q250.002 176.744 250.002 175.691L250.002 175.691Q250.002 175.250 249.842 174.901Q249.683 174.552 249.365 174.271Q249.047 173.989 248.575 173.744Q248.104 173.500 247.467 173.255L247.467 173.255Z"/></svg>