<svg version="1.1" xmlns="http://www.w3.org/2000/svg" xmlns:xlink="http://www.w3.org/1999/xlink" width="62.36325" height="60.26072" viewBox="0,0,62.36325,60.26072"><defs><linearGradient x1="270.89485" y1="121.10216" x2="270.89485" y2="179.86287" gradientUnits="userSpaceOnUse" id="color-1"><stop offset="0" stop-color="#5a4882"/><stop offset="1" stop-color="#342d42"/></linearGradient><radialGradient cx="272.5795" cy="152.56251" r="23.25" gradientUnits="userSpaceOnUse" id="color-2"><stop offset="0" stop-color="#b42db5"/><stop offset="1" stop-color="#df65ff" stop-opacity="0.57191"/></radialGradient><linearGradient x1="270.892" y1="167.57149" x2="270.892" y2="180.14296" gradientUnits="userSpaceOnUse" id="color-3"><stop offset="0" stop-color="#a78be3"/><stop offset="1" stop-color="#643db8"/></linearGradient><radialGradient cx="255.642" cy="142.37501" r="10.8125" gradientUnits="userSpaceOnUse" id="color-4"><stop offset="0" stop-color="#b42db5"/><stop offset="1" stop-color="#df65ff" stop-opacity="0.57191"/></radialGradient><radialGradient cx="284.4545" cy="143.62501" r="12.625" gradientUnits="userSpaceOnUse" id="color-5"><stop offset="0" stop-color="#b42db5"/><stop offset="1" stop-color="#df65ff" stop-opacity="0.57191"/></radialGradient><radialGradient cx="271.392" cy="141.62501" r="6.25" gradientUnits="userSpaceOnUse" id="color-6"><stop offset="0" stop-color="#fb59ff" stop-opacity="0.65323"/><stop offset="1" stop-color="#ca00ff" stop-opacity="0.19355"/></radialGradient><radialGradient cx="271.892" cy="136.06251" r="9.0625" gradientUnits="userSpaceOnUse" id="color-7"><stop offset="0" stop-color="#febdff"/><stop offset="1" stop-color="#febdff" stop-opacity="0"/></radialGradient><radialGradient cx="271.892" cy="136.06251" r="9.0625" gradientUnits="userSpaceOnUse" id="color-8"><stop offset="0" stop-color="#ff98e8"/><stop offset="1" stop-color="#ff98e8" stop-opacity="0"/></radialGradient><radialGradient cx="270.392" cy="145.31251" r="8.9375" gradientUnits="userSpaceOnUse" id="color-9"><stop offset="0" stop-color="#ff98e8"/><stop offset="1" stop-color="#ff98e8" stop-opacity="0"/></radialGradient><radialGradient cx="270.892" cy="147.50001" r="13.875" gradientUnits="userSpaceOnUse" id="color-10"><stop offset="0" stop-color="#b42db5"/><stop offset="1" stop-color="#df65ff" stop-opacity="0.57191"/></radialGradient></defs><g transform="translate(-239.71327,-120.35215)"><g data-paper-data="{&quot;isPaintingLayer&quot;:true}" fill-rule="nonzero" stroke-linejoin="miter" stroke-miterlimit="10" stroke-dasharray="" stroke-dashoffset="0" style="mix-blend-mode: normal"><path d="M240.46327,179.86287v-58.76072h60.86325v58.76072z" fill="url(#color-1)" stroke="#916fdc" stroke-width="1.5" stroke-linecap="butt"/><path d="M271.7045,147.87501l19.625,7.125l-19.5,6.375l-21.125,-6.25z" fill="none" stroke="url(#color-2)" stroke-width="4.5" stroke-linecap="round"/><path d="M239.96343,180.14296v-12.57143h61.85715v12.57143z" fill="url(#color-3)" stroke="none" stroke-width="0" stroke-linecap="butt"/><path d="M244.2045,153.37501l20.125,-15.875" fill="none" stroke="url(#color-4)" stroke-width="4.5" stroke-linecap="round"/><path d="M296.7045,153.37501l-17.125,-15.125" fill="none" stroke="url(#color-5)" stroke-width="4.5" stroke-linecap="round"/><path d="M271.4545,147.87501l0.25,-11.5" fill="none" stroke="url(#color-6)" stroke-width="4.5" stroke-linecap="round"/><path d="M262.8295,136.06251c0,-5.00508 4.05742,-9.0625 9.0625,-9.0625c5.00508,0 9.0625,4.05742 9.0625,9.0625c0,5.00508 -4.05742,9.0625 -9.0625,9.0625c-5.00508,0 -9.0625,-4.05742 -9.0625,-9.0625z" fill="url(#color-7)" stroke="url(#color-8)" stroke-width="5" stroke-linecap="butt"/><path d="M271.9545,155.62501l-0.125,-19.25" fill="none" stroke="url(#color-9)" stroke-width="10" stroke-linecap="round"/><path d="M271.7045,161.37501l0.25,-17.75" fill="none" stroke="url(#color-10)" stroke-width="4.5" stroke-linecap="round"/></g></g></svg>