<svg version="1.1" xmlns="http://www.w3.org/2000/svg" xmlns:xlink="http://www.w3.org/1999/xlink" width="18.86134" height="16.9664" viewBox="0,0,18.86134,16.9664"><g transform="translate(-236.68831,-165.30913)"><g data-paper-data="{&quot;isPaintingLayer&quot;:true}" fill="#ff0000" fill-rule="nonzero" stroke="none" stroke-width="0" stroke-linecap="butt" stroke-linejoin="miter" stroke-miterlimit="10" stroke-dasharray="" stroke-dashoffset="0" style="mix-blend-mode: normal"><path d="M241.31961,171.70673c0,-2.70254 2.19084,-4.89338 4.89338,-4.89338c2.70254,0 4.89338,2.19084 4.89338,4.89338c0,2.70254 -2.19084,4.89338 -4.89338,4.89338c-2.70254,0 -4.89338,-2.19084 -4.89338,-4.89338z"/><path d="M251.72612,167.46355c0,-1.05584 0.85593,-1.91176 1.91176,-1.91176c1.05584,0 1.91176,0.85593 1.91176,1.91176c0,1.05584 -0.85593,1.91176 -1.91176,1.91176c-1.05584,0 -1.91176,-0.85593 -1.91176,-1.91176z"/><path d="M236.68831,167.2209c0,-1.05584 0.85593,-1.91177 1.91177,-1.91177c1.05584,0 1.91177,0.85593 1.91177,1.91177c0,1.05584 -0.85593,1.91177 -1.91177,1.91177c-1.05584,0 -1.91177,-0.85593 -1.91177,-1.91177z"/><path d="M244.23453,180.36376c0,-1.05584 0.85593,-1.91177 1.91177,-1.91177c1.05584,0 1.91177,0.85593 1.91177,1.91177c0,1.05584 -0.85593,1.91177 -1.91177,1.91177c-1.05584,0 -1.91177,-0.85593 -1.91177,-1.91177z"/></g></g></svg>