<svg width="480px" height="360px" xmlns="http://www.w3.org/2000/svg"><path fill="#F00" d="M251.838 167.709L251.838 180L249.928 180L249.855 178.017Q249.304 178.653 248.808 179.076Q248.312 179.498 247.822 179.755Q247.333 180.012 246.837 180.116Q246.341 180.220 245.790 180.220L245.790 180.220Q243.893 180.220 242.926 179.106Q241.959 177.992 241.959 175.740L241.959 175.740L241.959 167.709L244.089 167.709L244.089 175.568Q244.089 178.396 246.219 178.396L246.219 178.396Q246.611 178.396 246.984 178.280Q247.357 178.164 247.767 177.876Q248.178 177.588 248.649 177.099Q249.120 176.609 249.708 175.862L249.708 175.862L249.708 167.709L251.838 167.709Z"/></svg>