<svg version="1.1" xmlns="http://www.w3.org/2000/svg" xmlns:xlink="http://www.w3.org/1999/xlink" width="55.125" height="55.125" viewBox="0,0,55.125,55.125"><defs><linearGradient x1="240" y1="153.1875" x2="240" y2="206.8125" gradientUnits="userSpaceOnUse" id="color-1"><stop offset="0" stop-color="#283602"/><stop offset="1" stop-color="#000000" stop-opacity="0.60925"/></linearGradient><linearGradient x1="240" y1="153.1875" x2="240" y2="206.8125" gradientUnits="userSpaceOnUse" id="color-2"><stop offset="0" stop-color="#a8ff00"/><stop offset="1" stop-color="#a8ff00" stop-opacity="0"/></linearGradient><linearGradient x1="239.96882" y1="170.5178" x2="239.87353" y2="189.5719" gradientUnits="userSpaceOnUse" id="color-3"><stop offset="0" stop-color="#8bff00"/><stop offset="1" stop-color="#efffd9"/></linearGradient><linearGradient x1="240.14339" y1="158.98241" x2="240.14339" y2="204.21836" gradientUnits="userSpaceOnUse" id="color-4"><stop offset="0" stop-color="#afec00" stop-opacity="0.23387"/><stop offset="1" stop-color="#c8ff63" stop-opacity="0.51613"/></linearGradient></defs><g transform="translate(-212.4375,-152.4375)"><g data-paper-data="{&quot;isPaintingLayer&quot;:true}" fill-rule="nonzero" stroke-linecap="butt" stroke-linejoin="miter" stroke-miterlimit="10" stroke-dasharray="" stroke-dashoffset="0" style="mix-blend-mode: normal"><path d="M213.1875,206.8125v-53.625h53.625v53.625z" fill="url(#color-1)" stroke="url(#color-2)" stroke-width="1.5"/><path d="M236.21483,180.02631l3.73101,-5.70502l3.67373,5.74206l-3.73099,5.70498zM234.95177,180.02l4.92704,7.70479l5.01174,-7.65508l-4.93492,-7.70484zM233.75186,180.014l6.21301,-9.49621l6.12561,9.55792l-6.22091,9.49617z" fill="url(#color-3)" stroke="none" stroke-width="0.26459"/><path d="M241.27524,194.92296l5.25574,-9.42867l0.02499,3.4483l11.0612,-0.02498c1.97647,-0.2095 3.70932,-1.01291 4.96421,-2.52376c-4.00505,8.19266 -5.15861,13.98958 -13.46834,13.99307h-2.55707l-0.02499,3.83144zM228.61485,200.47022c-5.91374,-1.79838 -8.6729,-9.08401 -11.3777,-14.21797c1.23972,1.12714 3.55971,2.74055 4.9072,2.74068c2.5844,0.00603 5.1688,0.01086 7.7532,0.0163h7.82946l-0.02499,11.42767l-0.02499,0.03334zM216.81008,183.2669l3.77959,-7.70882l-3.68568,-2.02452h11.04453l5.33903,9.69519l-3.6208,-2.16802c-1.16134,2.45237 -2.32268,4.90475 -3.48402,7.35712c-1.33655,-0.02339 -2.6731,-0.04675 -4.00965,-0.07012c-2.60618,-0.60762 -4.41927,-2.65859 -5.36299,-5.08082zM253.71909,188.30124l-4.88092,-8.99555l9.86179,-5.97204l4.77262,9.56192c0.14451,2.28832 -3.55011,5.47268 -5.84328,5.4479zM224.85004,167.25332l5.03851,-7.55121c4.88689,-1.82007 7.71768,2.10919 9.50429,4.58601l-4.74765,9.11215zM243.94059,171.31797c-1.0134,-2.3891 -2.36741,-5.12191 -4.06061,-7.49802c-1.5159,-2.1273 -3.34749,-3.98333 -4.73504,-4.81255l12.7437,-0.02498c2.28861,0.20546 3.40063,1.53969 4.61437,3.365l1.83242,3.2234l2.83194,-1.80744l-5.33069,9.49531l-11.49431,0.02498z" fill="url(#color-4)" stroke="none" stroke-width="0.26459"/></g></g></svg>