<svg version="1.1" xmlns="http://www.w3.org/2000/svg" xmlns:xlink="http://www.w3.org/1999/xlink" width="62.36325" height="60.26073" viewBox="0,0,62.36325,60.26073"><defs><linearGradient x1="270.89485" y1="121.10216" x2="270.89485" y2="179.86287" gradientUnits="userSpaceOnUse" id="color-1"><stop offset="0" stop-color="#7d6ca3"/><stop offset="1" stop-color="#3f375e"/></linearGradient><linearGradient x1="270.89485" y1="121.10217" x2="270.89485" y2="179.86288" gradientUnits="userSpaceOnUse" id="color-2"><stop offset="0" stop-color="#5a4882"/><stop offset="1" stop-color="#342d42"/></linearGradient><linearGradient x1="270.892" y1="167.57146" x2="270.892" y2="180.143" gradientUnits="userSpaceOnUse" id="color-3"><stop offset="0" stop-color="#a78be3"/><stop offset="1" stop-color="#643db8"/></linearGradient><radialGradient cx="271.3125" cy="145.04316" r="26.75035" gradientUnits="userSpaceOnUse" id="color-4"><stop offset="0" stop-color="#ca8aff"/><stop offset="1" stop-color="#c8b3ff"/></radialGradient><radialGradient cx="271.3125" cy="145.04316" r="26.75035" gradientUnits="userSpaceOnUse" id="color-5"><stop offset="0" stop-color="#000000" stop-opacity="0"/><stop offset="1" stop-color="#000000" stop-opacity="0"/></radialGradient><radialGradient cx="271.37142" cy="145.12211" r="23.74539" gradientUnits="userSpaceOnUse" id="color-6"><stop offset="0" stop-color="#b861ff"/><stop offset="1" stop-color="#9c78ff" stop-opacity="0.74194"/></radialGradient><radialGradient cx="271.37142" cy="145.12211" r="23.74539" gradientUnits="userSpaceOnUse" id="color-7"><stop offset="0" stop-color="#000000" stop-opacity="0"/><stop offset="1" stop-color="#000000" stop-opacity="0"/></radialGradient><radialGradient cx="271.37142" cy="145.14398" r="19.67986" gradientUnits="userSpaceOnUse" id="color-8"><stop offset="0" stop-color="#914dca"/><stop offset="1" stop-color="#775cc3"/></radialGradient><radialGradient cx="271.37142" cy="145.14398" r="19.67986" gradientUnits="userSpaceOnUse" id="color-9"><stop offset="0" stop-color="#000000" stop-opacity="0"/><stop offset="1" stop-color="#000000" stop-opacity="0"/></radialGradient><radialGradient cx="271.37142" cy="145.15921" r="16.85166" gradientUnits="userSpaceOnUse" id="color-10"><stop offset="0" stop-color="#753ea2"/><stop offset="1" stop-color="#624ca1"/></radialGradient><radialGradient cx="271.37142" cy="145.15921" r="16.85166" gradientUnits="userSpaceOnUse" id="color-11"><stop offset="0" stop-color="#000000" stop-opacity="0"/><stop offset="1" stop-color="#000000" stop-opacity="0"/></radialGradient><radialGradient cx="271.37142" cy="145.17925" r="13.13966" gradientUnits="userSpaceOnUse" id="color-12"><stop offset="0" stop-color="#64358b"/><stop offset="1" stop-color="#493877"/></radialGradient><radialGradient cx="271.37142" cy="145.17925" r="13.13966" gradientUnits="userSpaceOnUse" id="color-13"><stop offset="0" stop-color="#000000" stop-opacity="0"/><stop offset="1" stop-color="#000000" stop-opacity="0"/></radialGradient></defs><g transform="translate(-239.71327,-120.35214)"><g data-paper-data="{&quot;isPaintingLayer&quot;:true}" fill-rule="nonzero" stroke-linecap="butt" stroke-linejoin="miter" stroke-miterlimit="10" stroke-dasharray="" stroke-dashoffset="0" style="mix-blend-mode: normal"><path d="M240.46327,179.86287v-58.76072h60.86325v58.76072z" fill="url(#color-1)" stroke="#916fdc" stroke-width="1.5"/><path d="M240.46327,179.86288v-58.76072h60.86325v58.76072z" fill="url(#color-2)" stroke="#916fdc" stroke-width="1.5"/><path d="M239.96343,180.143v-12.57143h61.85715v12.57143z" fill="url(#color-3)" stroke="none" stroke-width="0"/><path d="M298.06285,154.56832c0,8.83034 -11.97654,6.46351 -26.75035,6.46351c-14.77381,0 -26.75035,1.00604 -26.75035,-7.82424c0,-8.83034 11.97654,-24.15313 26.75035,-24.15313c14.77381,0 26.75035,16.68357 26.75035,25.51391z" fill="url(#color-4)" stroke="url(#color-5)" stroke-width="0"/><path d="M295.11681,153.57727c0,7.83839 -10.63117,5.73745 -23.74539,5.73745c-13.11422,0 -23.74539,0.89303 -23.74539,-6.94531c0,-7.83839 10.63117,-21.43993 23.74539,-21.43993c13.11422,0 23.74539,14.80945 23.74539,22.64784z" fill="url(#color-6)" stroke="url(#color-7)" stroke-width="0"/><path d="M291.05128,152.1515c0,6.49636 -8.81097,4.75512 -19.67986,4.75512c-10.86889,0 -19.67986,0.74013 -19.67986,-5.75618c0,-6.49636 8.81097,-17.76912 19.67986,-17.76912c10.86889,0 19.67986,12.27387 19.67986,18.77023z" fill="url(#color-8)" stroke="url(#color-9)" stroke-width="0"/><path d="M288.22308,151.15974c0,5.56276 -7.54475,4.07176 -16.85166,4.07176c-9.30692,0 -16.85166,0.63377 -16.85166,-4.92896c0,-5.56276 7.54475,-15.21552 16.85166,-15.21552c9.30692,0 16.85166,10.50999 16.85166,16.07276z" fill="url(#color-10)" stroke="url(#color-11)" stroke-width="0"/><path d="M284.51108,149.85798c0,4.33742 -5.88283,3.17485 -13.13966,3.17485c-7.25683,0 -13.13966,0.49416 -13.13966,-3.84324c0,-4.33742 5.88283,-11.86391 13.13966,-11.86391c7.25683,0 13.13966,8.1949 13.13966,12.53232z" fill="url(#color-12)" stroke="url(#color-13)" stroke-width="0"/></g></g></svg>