<svg version="1.1" xmlns="http://www.w3.org/2000/svg" xmlns:xlink="http://www.w3.org/1999/xlink" width="26.97123" height="16.75948" viewBox="0,0,26.97123,16.75948"><defs><linearGradient x1="246.63433" y1="162.9861" x2="246.63433" y2="179.56194" gradientUnits="userSpaceOnUse" id="color-1"><stop offset="0" stop-color="#ffffff"/><stop offset="1" stop-color="#ffffff"/></linearGradient><linearGradient x1="260.4073" y1="163.16974" x2="260.4073" y2="179.74558" gradientUnits="userSpaceOnUse" id="color-2"><stop offset="0" stop-color="#ffffff"/><stop offset="1" stop-color="#ffffff"/></linearGradient></defs><g transform="translate(-240.0352,-162.9861)"><g data-paper-data="{&quot;isPaintingLayer&quot;:true}" fill-rule="evenodd" stroke="none" stroke-width="1" stroke-linecap="butt" stroke-linejoin="miter" stroke-miterlimit="10" stroke-dasharray="" stroke-dashoffset="0" style="mix-blend-mode: normal"><path d="M251.18936,170.55468c4.51635,4.21828 0.23044,8.25242 -0.39284,9.00726c-1.28836,-2.23172 -5.36879,-3.93665 -7.32547,-4.82756c-2.17046,-0.98826 5.48623,-0.03624 6.0827,-0.23621c-2.09294,-0.28465 -7.52267,-2.98744 -8.08193,-3.72787c-0.8834,-1.16958 4.74736,-1.00448 5.64661,-1.0386c-4.73678,-2.06517 -7.83788,-4.31656 -6.9233,-6.7456c1.39829,1.11734 6.50811,3.37855 10.99423,7.56858z" fill="url(#color-1)"/><path d="M266.8465,163.16974c0.91458,2.42903 -2.18651,4.68042 -6.92329,6.74559c0.89926,0.03412 6.53001,-0.13097 5.64661,1.03861c-0.55926,0.74043 -5.98899,3.44323 -8.08193,3.72787c0.59647,0.19998 8.25316,-0.75205 6.0827,0.2362c-1.95668,0.89091 -6.0371,2.59584 -7.32547,4.82757c-0.62328,-0.75484 -4.9092,-4.78898 -0.39284,-9.00726c4.48612,-4.19003 9.59594,-6.45125 10.99423,-7.56858z" data-paper-data="{&quot;index&quot;:null}" fill="url(#color-2)"/></g></g></svg>