<svg version="1.1" xmlns="http://www.w3.org/2000/svg" xmlns:xlink="http://www.w3.org/1999/xlink" width="55.125" height="55.125" viewBox="0,0,55.125,55.125"><defs><linearGradient x1="240" y1="153.1875" x2="240" y2="206.8125" gradientUnits="userSpaceOnUse" id="color-1"><stop offset="0" stop-color="#023636"/><stop offset="1" stop-color="#000000" stop-opacity="0.60925"/></linearGradient><linearGradient x1="240" y1="153.1875" x2="240" y2="206.8125" gradientUnits="userSpaceOnUse" id="color-2"><stop offset="0" stop-color="#00ddff"/><stop offset="1" stop-color="#00ddff" stop-opacity="0"/></linearGradient><linearGradient x1="240" y1="158.1875" x2="240" y2="201.8125" gradientUnits="userSpaceOnUse" id="color-3"><stop offset="0" stop-color="#021e36" stop-opacity="0.1371"/><stop offset="1" stop-color="#000000"/></linearGradient><linearGradient x1="240" y1="158.1875" x2="240" y2="201.8125" gradientUnits="userSpaceOnUse" id="color-4"><stop offset="0" stop-color="#0095ff"/><stop offset="1" stop-color="#0095ff" stop-opacity="0"/></linearGradient><linearGradient x1="231.433" y1="163.601" x2="231.433" y2="197.726" gradientUnits="userSpaceOnUse" id="color-5"><stop offset="0" stop-color="#0095ff"/><stop offset="1" stop-color="#0095ff" stop-opacity="0"/></linearGradient><linearGradient x1="241.433" y1="161.476" x2="241.433" y2="193.226" gradientUnits="userSpaceOnUse" id="color-6"><stop offset="0" stop-color="#0095ff"/><stop offset="1" stop-color="#0095ff" stop-opacity="0"/></linearGradient></defs><g transform="translate(-212.4375,-152.4375)"><g data-paper-data="{&quot;isPaintingLayer&quot;:true}" fill-rule="nonzero" stroke-linejoin="miter" stroke-miterlimit="10" stroke-dasharray="" stroke-dashoffset="0" style="mix-blend-mode: normal"><path d="M213.1875,206.8125v-53.625h53.625v53.625z" fill="url(#color-1)" stroke="url(#color-2)" stroke-width="1.5" stroke-linecap="butt"/><path d="M218.1875,180c0,-12.04671 9.76579,-21.8125 21.8125,-21.8125c12.04671,0 21.8125,9.76579 21.8125,21.8125c0,12.04671 -9.76579,21.8125 -21.8125,21.8125c-12.04671,0 -21.8125,-9.76579 -21.8125,-21.8125z" fill="url(#color-3)" stroke="url(#color-4)" stroke-width="1.5" stroke-linecap="butt"/><path d="M231.433,163.601v34.125" fill="none" stroke="url(#color-5)" stroke-width="4" stroke-linecap="round"/><path d="M225.558,171.976l16.375,21.25l13.75,-21.75" fill="none" stroke="url(#color-6)" stroke-width="4" stroke-linecap="round"/></g></g></svg>