<svg version="1.1" xmlns="http://www.w3.org/2000/svg" xmlns:xlink="http://www.w3.org/1999/xlink" width="55.125" height="55.125" viewBox="0,0,55.125,55.125"><defs><linearGradient x1="240" y1="153.1875" x2="240" y2="206.8125" gradientUnits="userSpaceOnUse" id="color-1"><stop offset="0" stop-color="#363102"/><stop offset="1" stop-color="#000000" stop-opacity="0.60925"/></linearGradient><linearGradient x1="240" y1="153.1875" x2="240" y2="206.8125" gradientUnits="userSpaceOnUse" id="color-2"><stop offset="0" stop-color="#ffe700"/><stop offset="1" stop-color="#ffe700" stop-opacity="0"/></linearGradient><radialGradient cx="240" cy="180" r="24.04251" gradientUnits="userSpaceOnUse" id="color-3"><stop offset="0" stop-color="#cfb600" stop-opacity="0"/><stop offset="1" stop-color="#cfb600" stop-opacity="0.54032"/></radialGradient><radialGradient cx="239.75289" cy="180.55555" r="16.01761" gradientUnits="userSpaceOnUse" id="color-4"><stop offset="0" stop-color="#cfb600" stop-opacity="0"/><stop offset="1" stop-color="#cfb600" stop-opacity="0.54032"/></radialGradient><radialGradient cx="239.96274" cy="180.53847" r="9.99315" gradientUnits="userSpaceOnUse" id="color-5"><stop offset="0" stop-color="#cfb600" stop-opacity="0"/><stop offset="1" stop-color="#cfb600" stop-opacity="0.54032"/></radialGradient></defs><g transform="translate(-212.4375,-152.4375)"><g data-paper-data="{&quot;isPaintingLayer&quot;:true}" fill-rule="nonzero" stroke-linecap="butt" stroke-linejoin="miter" stroke-miterlimit="10" stroke-dasharray="" stroke-dashoffset="0" style="mix-blend-mode: normal"><path d="M213.1875,206.8125v-53.625h53.625v53.625z" fill="url(#color-1)" stroke="url(#color-2)" stroke-width="1.5"/><path d="M231.43909,156.03333c0.16143,-0.0108 0.18302,0.04318 0.12904,0.33365c-0.03239,0.19332 -0.47349,3.30312 -0.97936,6.9188c-0.51666,3.60488 -0.95776,6.63962 -0.97935,6.7147c-0.03239,0.10745 -0.82824,-0.61333 -2.29188,-2.07697l-2.23839,-2.23839l-0.63492,0.72078c-1.47443,1.65696 -2.72267,3.71234 -3.59409,5.88596c-2.80854,7.01547 -1.61427,14.77379 3.18537,20.71323c1.88267,2.31347 4.2609,4.17504 7.05865,5.51994c2.69029,1.28062 5.10042,1.88316 8.10277,2.0122c6.30597,0.26937 12.54668,-2.49599 16.60347,-7.33832c5.22995,-6.2412 6.32707,-14.88173 2.81934,-22.19896c-2.43171,-5.07883 -6.83294,-8.9526 -12.10558,-10.67433c-0.59173,-0.19381 -1.09761,-0.36603 -1.1192,-0.38762c-0.05398,-0.04269 0.76395,-3.08821 0.86061,-3.20646c0.11874,-0.12954 2.13094,0.53776 3.61568,1.19427c5.02486,2.24919 9.35052,6.43501 11.75034,11.36321c1.71044,3.54061 2.42092,6.65042 2.42092,10.62084c0,2.49648 -0.15063,3.7982 -0.74237,6.07977c-1.33411,5.18628 -4.49788,9.92116 -8.79117,13.14921c-3.17458,2.38903 -6.57485,3.84187 -10.7067,4.56265c-2.00141,0.35524 -5.61709,0.35524 -7.5969,0c-5.42327,-0.95728 -9.86767,-3.28153 -13.53683,-7.08023c-3.50773,-3.63677 -5.71375,-8.10277 -6.52088,-13.19239c-0.22619,-1.48523 -0.25858,-5.3801 -0.05398,-6.69311c0.46269,-2.84092 1.10841,-4.91789 2.28109,-7.31722c0.893,-1.83998 1.82918,-3.32472 2.92679,-4.63772c0.37682,-0.4519 0.81793,-0.98967 0.99015,-1.19427l0.31206,-0.37682l-2.56076,-2.56076c-1.42047,-1.42047 -2.55045,-2.59314 -2.52886,-2.61473c0.03239,-0.02159 3.13139,-0.47349 6.88691,-1.01174c3.75552,-0.53777 6.91881,-0.97887 7.03804,-0.98917z" fill="url(#color-3)" stroke="none" stroke-width="1"/><path d="M247.84946,165.65848c0.07707,0.07535 0.05986,0.11005 -0.10833,0.21229c-0.11037,0.0698 -1.85035,1.23224 -3.87027,2.58724c-2.01935,1.34485 -3.72206,2.47394 -3.76892,2.49657c-0.06774,0.03165 -0.0634,-0.68368 0.01312,-2.06056l0.11702,-2.10572l-0.63991,0.00495c-1.47766,0.004 -3.05267,0.29729 -4.51898,0.8302c-4.73082,1.72198 -8.05233,5.76137 -8.86918,10.78285c-0.31232,1.96244 -0.18013,3.9702 0.39495,5.95673c0.55926,1.90462 1.33073,3.36892 2.60037,4.91692c2.66751,3.2506 6.8128,5.12069 11.01915,4.98382c5.42204,-0.1758 10.19946,-3.4694 12.27427,-8.46148c1.44143,-3.46349 1.40964,-7.36953 -0.07774,-10.75225c-0.16664,-0.37989 -0.30585,-0.70756 -0.30472,-0.72787c-0.00278,-0.04576 1.87268,-0.99255 1.97433,-0.99709c0.11706,0.00141 0.67961,1.2969 1.01321,2.32572c1.11543,3.494 0.95871,7.50115 -0.4221,10.88189c-0.99811,2.42206 -2.22653,4.15626 -4.19786,5.92002c-1.23951,1.10899 -1.95274,1.61246 -3.34841,2.33219c-3.16765,1.64148 -6.92396,2.17399 -10.43387,1.47634c-2.59638,-0.51493 -4.8282,-1.55779 -7.02154,-3.28908c-1.06545,-0.8359 -2.67162,-2.6311 -3.37472,-3.77189c-1.93385,-3.11792 -2.75416,-6.35707 -2.49802,-9.86629c0.24745,-3.35714 1.48488,-6.43633 3.65334,-9.09801c0.63694,-0.77208 2.55637,-2.51835 3.29917,-3.00003c1.61607,-1.03228 2.93413,-1.63431 4.64634,-2.11791c1.31025,-0.37398 2.4633,-0.56872 3.60279,-0.60702c0.39176,-0.01365 0.85472,-0.03353 1.03281,-0.03891l0.32572,-0.01246l0.13388,-2.40897c0.07426,-1.33627 0.15453,-2.41824 0.17484,-2.41711c0.02511,0.00649 1.62613,1.34442 3.56166,2.96994c1.93529,1.62574 3.55951,3.00037 3.61759,3.05499z" fill="url(#color-4)" stroke="none" stroke-width="1"/><path d="M231.58498,186.99669c-0.02497,-0.06244 -0.0064,-0.0779 0.11537,-0.09381c0.08059,-0.01199 1.36667,-0.23639 2.86106,-0.50007c1.49151,-0.25802 2.74791,-0.47281 2.78036,-0.4739c0.04664,-0.00098 -0.13627,0.40611 -0.52725,1.17249l-0.59793,1.17204l0.3664,0.15859c0.84419,0.37045 1.8169,0.60038 2.78803,0.66616c3.13385,0.21073 6.04808,-1.25638 7.78083,-3.91568c0.67323,-1.04103 1.10424,-2.22003 1.27719,-3.49864c0.16131,-1.22788 0.09045,-2.25804 -0.24355,-3.46161c-0.70219,-2.52772 -2.59584,-4.64045 -5.03058,-5.62338c-3.13826,-1.26737 -6.69514,-0.59306 -9.13829,1.73215c-1.69615,1.61274 -2.66329,3.84961 -2.66784,6.15504c-0.00074,0.25881 -0.00396,0.4809 -0.00972,0.4922c-0.00996,0.02682 -1.31895,0.094 -1.3781,0.07094c-0.06644,-0.03033 -0.06066,-0.91147 0.00849,-1.58268c0.24486,-2.2751 1.34507,-4.52212 2.98576,-6.10293c1.18049,-1.13031 2.31889,-1.81001 3.88867,-2.31918c0.98703,-0.32015 1.521,-0.42753 2.49894,-0.48617c2.22157,-0.13764 4.49932,0.50601 6.32616,1.78946c1.35165,0.94875 2.36212,2.10679 3.17696,3.64795c0.39711,0.74573 0.86079,2.17526 0.97424,3.00356c0.31701,2.26695 -0.03196,4.32218 -1.0633,6.25999c-0.98802,1.85323 -2.47083,3.29814 -4.37959,4.26995c-0.5582,0.2799 -2.09396,0.79219 -2.63931,0.87967c-1.18254,0.18139 -2.08651,0.19245 -3.18551,0.0365c-0.84199,-0.1171 -1.54906,-0.29683 -2.20894,-0.56241c-0.22699,-0.09103 -0.49618,-0.19647 -0.59916,-0.23832l-0.189,-0.07505l-0.68405,1.34083c-0.37944,0.74377 -0.69817,1.34091 -0.70947,1.33514c-0.01269,-0.01004 -0.58877,-1.17733 -1.28319,-2.59311c-0.69423,-1.41584 -1.27429,-2.60994 -1.29366,-2.65575z" fill="url(#color-5)" stroke="none" stroke-width="1"/></g></g></svg>