<svg width="480px" height="360px" xmlns="http://www.w3.org/2000/svg"><path fill="#F00" d="M251.862 177.992L251.862 179.829Q251.140 180.012 250.369 180.092Q249.598 180.171 248.802 180.171L248.802 180.171Q246.488 180.171 245.350 179.125Q244.211 178.078 244.211 175.911L244.211 175.911L244.211 169.497L240.771 169.497L240.771 167.709L244.211 167.709L244.211 164.331L246.341 163.780L246.341 167.709L251.862 167.709L251.862 169.497L246.341 169.497L246.341 175.740Q246.341 177.062 247.045 177.717Q247.749 178.372 249.120 178.372L249.120 178.372Q249.708 178.372 250.406 178.280Q251.103 178.188 251.862 177.992L251.862 177.992Z"/></svg>