<svg version="1.1" xmlns="http://www.w3.org/2000/svg" xmlns:xlink="http://www.w3.org/1999/xlink" width="62.36325" height="60.26072" viewBox="0,0,62.36325,60.26072"><defs><linearGradient x1="270.89485" y1="121.10212" x2="270.89485" y2="179.86284" gradientUnits="userSpaceOnUse" id="color-1"><stop offset="0" stop-color="#8a7088"/><stop offset="1" stop-color="#615060"/></linearGradient><radialGradient cx="270.91959" cy="144.93378" r="29.59887" gradientUnits="userSpaceOnUse" id="color-2"><stop offset="0" stop-color="#de75b4"/><stop offset="1" stop-color="#de75b4" stop-opacity="0"/></radialGradient><linearGradient x1="270.892" y1="167.57146" x2="270.892" y2="180.14295" gradientUnits="userSpaceOnUse" id="color-3"><stop offset="0" stop-color="#d091ce"/><stop offset="1" stop-color="#674866"/></linearGradient><linearGradient x1="245.25127" y1="127.80878" x2="245.25127" y2="157.55878" gradientUnits="userSpaceOnUse" id="color-4"><stop offset="0" stop-color="#ffd9f6" stop-opacity="0"/><stop offset="1" stop-color="#ffd9f6"/></linearGradient><linearGradient x1="251.67141" y1="128.18378" x2="251.67141" y2="157.68378" gradientUnits="userSpaceOnUse" id="color-5"><stop offset="0" stop-color="#4d414a" stop-opacity="0"/><stop offset="1" stop-color="#4d414a"/></linearGradient><linearGradient x1="257.87627" y1="126.93378" x2="257.87627" y2="157.68378" gradientUnits="userSpaceOnUse" id="color-6"><stop offset="0" stop-color="#ffd9f6" stop-opacity="0"/><stop offset="1" stop-color="#ffd9f6"/></linearGradient><linearGradient x1="251.56377" y1="157.43378" x2="251.56377" y2="160.05878" gradientUnits="userSpaceOnUse" id="color-7"><stop offset="0" stop-color="#ffd9f6"/><stop offset="1" stop-color="#ffd9f6" stop-opacity="0"/></linearGradient><radialGradient cx="251.69571" cy="146.30878" r="17.5" gradientUnits="userSpaceOnUse" id="color-8"><stop offset="0" stop-color="#ff5ed9"/><stop offset="1" stop-color="#ff5ed9" stop-opacity="0"/></radialGradient><linearGradient x1="264.37627" y1="127.55878" x2="264.37627" y2="157.30878" gradientUnits="userSpaceOnUse" id="color-9"><stop offset="0" stop-color="#ffd9f6" stop-opacity="0"/><stop offset="1" stop-color="#ffd9f6"/></linearGradient><linearGradient x1="270.79641" y1="127.93378" x2="270.79641" y2="157.43378" gradientUnits="userSpaceOnUse" id="color-10"><stop offset="0" stop-color="#4d414a" stop-opacity="0"/><stop offset="1" stop-color="#4d414a"/></linearGradient><linearGradient x1="277.00127" y1="126.68378" x2="277.00127" y2="157.43378" gradientUnits="userSpaceOnUse" id="color-11"><stop offset="0" stop-color="#ffd9f6" stop-opacity="0"/><stop offset="1" stop-color="#ffd9f6"/></linearGradient><linearGradient x1="270.68877" y1="157.18378" x2="270.68877" y2="159.80878" gradientUnits="userSpaceOnUse" id="color-12"><stop offset="0" stop-color="#ffd9f6"/><stop offset="1" stop-color="#ffd9f6" stop-opacity="0"/></linearGradient><radialGradient cx="270.69571" cy="146.05878" r="17.5" gradientUnits="userSpaceOnUse" id="color-13"><stop offset="0" stop-color="#ff5ed9"/><stop offset="1" stop-color="#ff5ed9" stop-opacity="0"/></radialGradient><linearGradient x1="282.75127" y1="127.55878" x2="282.75127" y2="157.30878" gradientUnits="userSpaceOnUse" id="color-14"><stop offset="0" stop-color="#ffd9f6" stop-opacity="0"/><stop offset="1" stop-color="#ffd9f6"/></linearGradient><linearGradient x1="289.17141" y1="127.93378" x2="289.17141" y2="157.43378" gradientUnits="userSpaceOnUse" id="color-15"><stop offset="0" stop-color="#4d414a" stop-opacity="0"/><stop offset="1" stop-color="#4d414a"/></linearGradient><linearGradient x1="295.37627" y1="126.68378" x2="295.37627" y2="157.43378" gradientUnits="userSpaceOnUse" id="color-16"><stop offset="0" stop-color="#ffd9f6" stop-opacity="0"/><stop offset="1" stop-color="#ffd9f6"/></linearGradient><linearGradient x1="289.06377" y1="157.18378" x2="289.06377" y2="159.80878" gradientUnits="userSpaceOnUse" id="color-17"><stop offset="0" stop-color="#ffd9f6"/><stop offset="1" stop-color="#ffd9f6" stop-opacity="0"/></linearGradient><radialGradient cx="289.19571" cy="146.05878" r="17.5" gradientUnits="userSpaceOnUse" id="color-18"><stop offset="0" stop-color="#ff5ed9"/><stop offset="1" stop-color="#ff5ed9" stop-opacity="0"/></radialGradient></defs><g transform="translate(-239.71327,-120.35211)"><g data-paper-data="{&quot;isPaintingLayer&quot;:true}" fill-rule="nonzero" stroke-linejoin="miter" stroke-miterlimit="10" stroke-dasharray="" stroke-dashoffset="0" style="mix-blend-mode: normal"><path d="M240.46327,179.86284v-58.76072h60.86325v58.76072z" fill="url(#color-1)" stroke="#bf86bd" stroke-width="1.5" stroke-linecap="butt"/><path d="M241.32071,167.30878v-44.75h59.19775v44.75z" fill="url(#color-2)" stroke="none" stroke-width="0" stroke-linecap="butt"/><path d="M239.96343,180.14295v-12.57143h61.85715v12.57143z" fill="url(#color-3)" stroke="none" stroke-width="0" stroke-linecap="butt"/><path d="M243.69571,157.55878v-29.75h3.11111v29.75z" fill="url(#color-4)" stroke="none" stroke-width="0" stroke-linecap="butt"/><path d="M247.00821,157.68378v-29.5h9.32639v29.5z" fill="url(#color-5)" stroke="none" stroke-width="0" stroke-linecap="butt"/><path d="M256.32071,157.68378v-30.75h3.11111v30.75z" fill="url(#color-6)" stroke="none" stroke-width="0" stroke-linecap="butt"/><path d="M243.69571,160.05878v-2.625h15.73611v2.625z" fill="url(#color-7)" stroke="none" stroke-width="0" stroke-linecap="butt"/><path d="M247.82071,128.80878l7.625,2.625l-6.625,3l5.125,3.125l-4.75,2.875l4.75,3.125l-4.95122,2.875l5.10366,3.06425l-4.90244,1.96262l5.24543,3.0257l-5.21341,2.12617" data-paper-data="{&quot;index&quot;:null}" fill="none" stroke="url(#color-8)" stroke-width="2.5" stroke-linecap="round"/><path d="M262.82071,157.30878v-29.75h3.11111v29.75z" fill="url(#color-9)" stroke="none" stroke-width="0" stroke-linecap="butt"/><path d="M266.13321,157.43378v-29.5h9.32639v29.5z" fill="url(#color-10)" stroke="none" stroke-width="0" stroke-linecap="butt"/><path d="M275.44571,157.43378v-30.75h3.11111v30.75z" fill="url(#color-11)" stroke="none" stroke-width="0" stroke-linecap="butt"/><path d="M262.82071,159.80878v-2.625h15.73611v2.625z" fill="url(#color-12)" stroke="none" stroke-width="0" stroke-linecap="butt"/><path d="M273.1637,156.36252l-5.21341,-2.12617l5.24543,-3.0257l-4.90244,-1.96262l5.10366,-3.06425l-4.95122,-2.875l4.75,-3.125l-4.75,-2.875l5.125,-3.125l-6.625,-3l7.625,-2.625" fill="none" stroke="url(#color-13)" stroke-width="2.5" stroke-linecap="round"/><path d="M281.19571,157.30878v-29.75h3.11111v29.75z" fill="url(#color-14)" stroke="none" stroke-width="0" stroke-linecap="butt"/><path d="M284.50821,157.43378v-29.5h9.32639v29.5z" fill="url(#color-15)" stroke="none" stroke-width="0" stroke-linecap="butt"/><path d="M293.82071,157.43378v-30.75h3.11111v30.75z" fill="url(#color-16)" stroke="none" stroke-width="0" stroke-linecap="butt"/><path d="M281.19571,159.80878v-2.625h15.73611v2.625z" fill="url(#color-17)" stroke="none" stroke-width="0" stroke-linecap="butt"/><path d="M285.32071,128.55878l7.625,2.625l-6.625,3l5.125,3.125l-4.75,2.875l4.75,3.125l-4.95122,2.875l5.10366,3.06425l-4.90244,1.96262l5.24542,3.0257l-5.21341,2.12617" data-paper-data="{&quot;index&quot;:null}" fill="none" stroke="url(#color-18)" stroke-width="2.5" stroke-linecap="round"/></g></g></svg>