<svg version="1.1" xmlns="http://www.w3.org/2000/svg" xmlns:xlink="http://www.w3.org/1999/xlink" width="19.617" height="18.53851" viewBox="0,0,19.617,18.53851"><g transform="translate(-240.80613,-160.39405)"><g data-paper-data="{&quot;isPaintingLayer&quot;:true}" fill-rule="nonzero" stroke-linejoin="miter" stroke-miterlimit="10" stroke-dasharray="" stroke-dashoffset="0" style="mix-blend-mode: normal"><path d="M255.7269,161.14405v7.89246" fill="none" stroke="#000000" stroke-width="1.5" stroke-linecap="round"/><path d="M251.78067,165.09027h7.89246" fill="none" stroke="#000000" stroke-width="1.5" stroke-linecap="round"/><path d="M253.33672,171.37498c0,0.42961 -0.07471,0.86153 -0.22414,1.29579c-0.14475,0.42959 -0.3432,0.85218 -0.59535,1.26777c-0.24749,0.41559 -0.53466,0.8195 -0.86153,1.21174c-0.32687,0.39223 -0.66775,0.76579 -1.02263,1.12067c-0.35488,0.35021 -0.71443,0.67475 -1.07864,0.97359c-0.35956,0.29884 -0.70043,0.56501 -1.02262,0.79848c-0.3222,0.2288 -0.61171,0.42025 -0.86853,0.57434c-0.25682,0.15409 -0.45762,0.25915 -0.60237,0.31519c-0.13074,-0.05603 -0.31985,-0.16108 -0.56733,-0.31519c-0.24749,-0.15409 -0.53,-0.34787 -0.84752,-0.58135c-0.31752,-0.23347 -0.65839,-0.49964 -1.02262,-0.79848c-0.36422,-0.30353 -0.7261,-0.63039 -1.08566,-0.9806c-0.35488,-0.35488 -0.69808,-0.72844 -1.02962,-1.12067c-0.32687,-0.39691 -0.61638,-0.80316 -0.86853,-1.21875c-0.25215,-0.42025 -0.45528,-0.8475 -0.60937,-1.28177c-0.14943,-0.43427 -0.22414,-0.8662 -0.22414,-1.29578c0,-0.19612 0.02336,-0.40858 0.07008,-0.63739c0.05132,-0.2288 0.12603,-0.45761 0.22413,-0.68641c0.10273,-0.22881 0.22881,-0.44828 0.37824,-0.6584c0.15409,-0.21012 0.33153,-0.39457 0.53232,-0.55333c0.20078,-0.16343 0.42491,-0.29184 0.6724,-0.38523c0.25215,-0.09805 0.52998,-0.14709 0.83351,-0.14709c0.2755,0 0.56034,0.04202 0.85452,0.12605c0.29884,0.07942 0.60002,0.20551 0.90354,0.37824c0.30353,0.1681 0.6047,0.38056 0.90354,0.63738c0.30353,0.25682 0.5977,0.56033 0.88253,0.91054c0.25216,-0.3222 0.52767,-0.60469 0.82651,-0.8475c0.29885,-0.24749 0.6047,-0.45294 0.91755,-0.61638c0.31752,-0.1681 0.63505,-0.29419 0.95258,-0.37823c0.31752,-0.08873 0.62572,-0.1331 0.92457,-0.1331c0.30819,0 0.58835,0.04904 0.8405,0.14709c0.25216,0.09339 0.47629,0.2218 0.67242,0.38523c0.19612,0.15876 0.36655,0.34322 0.5113,0.55334c0.14476,0.20546 0.26383,0.42025 0.35722,0.64438c0.09339,0.22413 0.16109,0.44828 0.20312,0.67242c0.04672,0.22413 0.07008,0.43192 0.07008,0.62337z" fill="#ff0000" stroke="none" stroke-width="0.26459" stroke-linecap="butt"/></g></g></svg>