<svg width="480px" height="360px" xmlns="http://www.w3.org/2000/svg"><path fill="#F00" d="M252.891 171.822L252.891 171.822Q252.891 172.973 252.713 174.026Q252.536 175.079 252.144 175.985Q251.752 176.891 251.128 177.631Q250.503 178.372 249.598 178.898Q248.692 179.425 247.492 179.712Q246.292 180 244.762 180L244.762 180L241.334 180L241.334 164L245.460 164Q249.206 164 251.048 165.928Q252.891 167.856 252.891 171.822ZM250.601 171.982L250.601 171.982Q250.601 170.280 250.283 169.105Q249.965 167.930 249.316 167.207Q248.667 166.485 247.688 166.161Q246.708 165.836 245.386 165.836L245.386 165.836L243.513 165.836L243.513 178.115L245.142 178.115Q250.601 178.115 250.601 171.982Z"/></svg>