<svg version="1.1" xmlns="http://www.w3.org/2000/svg" xmlns:xlink="http://www.w3.org/1999/xlink" width="78.46395" height="60.26072" viewBox="0,0,78.46395,60.26072"><defs><linearGradient x1="270.89485" y1="121.10213" x2="270.89485" y2="179.86282" gradientUnits="userSpaceOnUse" id="color-1"><stop offset="0" stop-color="#455f06"/><stop offset="1" stop-color="#233103"/></linearGradient><linearGradient x1="270.892" y1="167.57146" x2="270.892" y2="180.14296" gradientUnits="userSpaceOnUse" id="color-2"><stop offset="0" stop-color="#6b8d06"/><stop offset="1" stop-color="#324203"/></linearGradient><radialGradient cx="262.86188" cy="151.73263" r="20.92797" gradientUnits="userSpaceOnUse" id="color-3"><stop offset="0" stop-color="#477700"/><stop offset="1" stop-color="#204900"/></radialGradient><linearGradient x1="262.86188" y1="136.53053" x2="262.86188" y2="166.93472" gradientUnits="userSpaceOnUse" id="color-4"><stop offset="0" stop-color="#daff83"/><stop offset="1" stop-color="#daff83" stop-opacity="0"/></linearGradient><radialGradient cx="322.27639" cy="154.20007" r="4.09917" gradientUnits="userSpaceOnUse" id="color-5"><stop offset="0" stop-color="#ffffff"/><stop offset="1" stop-color="#ffffff" stop-opacity="0"/></radialGradient><radialGradient cx="276.73715" cy="143.69594" r="23.63429" gradientUnits="userSpaceOnUse" id="color-6"><stop offset="0" stop-color="#e5ffc6"/><stop offset="1" stop-color="#e5ffc6" stop-opacity="0"/></radialGradient><radialGradient cx="280.78132" cy="140.18644" r="23.6343" gradientUnits="userSpaceOnUse" id="color-7"><stop offset="0" stop-color="#e5ffc6"/><stop offset="1" stop-color="#e5ffc6" stop-opacity="0"/></radialGradient><radialGradient cx="270.90863" cy="147.15462" r="28.30991" gradientUnits="userSpaceOnUse" id="color-8"><stop offset="0" stop-color="#e5ffc6"/><stop offset="1" stop-color="#e5ffc6" stop-opacity="0"/></radialGradient><radialGradient cx="282.82186" cy="134.53685" r="9.28719" gradientUnits="userSpaceOnUse" id="color-9"><stop offset="0" stop-color="#e5ffc6"/><stop offset="1" stop-color="#e5ffc6" stop-opacity="0"/></radialGradient><radialGradient cx="284.87144" cy="138.37982" r="9.28719" gradientUnits="userSpaceOnUse" id="color-10"><stop offset="0" stop-color="#e5ffc6"/><stop offset="1" stop-color="#e5ffc6" stop-opacity="0"/></radialGradient><radialGradient cx="275.9045" cy="131.07817" r="8.5186" gradientUnits="userSpaceOnUse" id="color-11"><stop offset="0" stop-color="#e5ffc6" stop-opacity="0.33065"/><stop offset="1" stop-color="#e5ffc6" stop-opacity="0"/></radialGradient><radialGradient cx="288.92089" cy="147.89828" r="8.5186" gradientUnits="userSpaceOnUse" id="color-12"><stop offset="0" stop-color="#e5ffc6" stop-opacity="0.33065"/><stop offset="1" stop-color="#e5ffc6" stop-opacity="0"/></radialGradient></defs><g transform="translate(-239.71327,-120.35209)"><g data-paper-data="{&quot;isPaintingLayer&quot;:true}" fill-rule="nonzero" stroke-linejoin="miter" stroke-miterlimit="10" stroke-dasharray="" stroke-dashoffset="0" style="mix-blend-mode: normal"><path d="M240.46327,179.86282v-58.76072h60.86325v58.76072z" fill="url(#color-1)" stroke="#9cbf3d" stroke-width="1.5" stroke-linecap="butt"/><path d="M239.96343,180.14296v-12.57143h61.85715v12.57143z" fill="url(#color-2)" stroke="none" stroke-width="0" stroke-linecap="butt"/><path d="M249.96499,166.93472l33.82487,-21.8991l-5.50642,-8.50509l-36.25393,22.40544l-0.09558,7.92072z" fill="url(#color-3)" stroke="url(#color-4)" stroke-width="1.5" stroke-linecap="round"/><path d="M318.17722,153.68767" fill="none" stroke="url(#color-5)" stroke-width="1.5" stroke-linecap="round"/><path d="M251.82186,158.42734c0,0 19.79794,-11.23626 31.22525,-19.07319c9.80836,-6.89069 15.65904,-1.42266 15.65904,-1.42266" fill="none" stroke="url(#color-6)" stroke-width="3.5" stroke-linecap="round"/><path d="M295.79149,123.14059c0,0 2.26099,7.68231 -8.29847,13.35533c-12.1316,6.69518 -31.05739,19.34534 -31.05739,19.34534" data-paper-data="{&quot;index&quot;:null}" fill="none" stroke="url(#color-7)" stroke-width="3.5" stroke-linecap="round"/><path d="M246.82599,162.27032c0,0 23.86873,-13.43214 34.11495,-21.08203c5.52918,-4.12812 4.3148,-15.42624 4.3148,-15.42624" fill="none" stroke="url(#color-8)" stroke-width="3.5" stroke-linecap="round"/><path d="M276.0326,143.82404c0,0 4.50281,-5.12874 5.86503,-7.8953c2.78658,-5.65934 -6.12122,-9.1419 -6.12122,-9.1419" fill="none" stroke="url(#color-9)" stroke-width="1.5" stroke-linecap="round"/><path d="M278.08218,147.66701c0,0 2.61502,-6.8085 10.13029,-7.35413c8.72983,-0.6338 10.10939,4.79215 10.10939,4.79215" fill="none" stroke="url(#color-10)" stroke-width="1.5" stroke-linecap="round"/><path d="M284.35904,139.59676c0,0 -6.13591,-6.31437 -9.12221,-9.3233c-2.59488,-2.61454 -16.24142,2.40595 -16.24142,2.40595" fill="none" stroke="url(#color-11)" stroke-width="3.5" stroke-linecap="round"/><path d="M282.0445,138.06157c0,0 4.35185,3.06336 6.78072,6.53787c2.11052,3.0191 -5.77287,10.04486 -5.77287,10.04486" data-paper-data="{&quot;index&quot;:null}" fill="none" stroke="url(#color-12)" stroke-width="3.5" stroke-linecap="round"/></g></g></svg>