<svg version="1.1" xmlns="http://www.w3.org/2000/svg" xmlns:xlink="http://www.w3.org/1999/xlink" width="62.36325" height="29.68929" viewBox="0,0,62.36325,29.68929"><defs><linearGradient x1="270.75199" y1="151.67344" x2="270.75199" y2="179.86273" gradientUnits="userSpaceOnUse" id="color-1"><stop offset="0" stop-color="#455c8f"/><stop offset="1" stop-color="#003758"/></linearGradient><linearGradient x1="270.78229" y1="171.30076" x2="270.78229" y2="179.27941" gradientUnits="userSpaceOnUse" id="color-2"><stop offset="0" stop-color="#0b1228"/><stop offset="1" stop-color="#0b1228" stop-opacity="0"/></linearGradient><linearGradient x1="257.10783" y1="170.13411" x2="257.10783" y2="176.13996" gradientUnits="userSpaceOnUse" id="color-3"><stop offset="0" stop-color="#0000c7"/><stop offset="1" stop-color="#4471ff"/></linearGradient><radialGradient cx="258.76203" cy="164.32392" r="13.24984" gradientUnits="userSpaceOnUse" id="color-4"><stop offset="0" stop-color="#3449fa"/><stop offset="1" stop-color="#6078ff"/></radialGradient><radialGradient cx="273.33277" cy="167.8007" r="1.97917" gradientUnits="userSpaceOnUse" id="color-5"><stop offset="0" stop-color="#a6d5d5"/><stop offset="1" stop-color="#c8ffff"/></radialGradient><linearGradient x1="287.12278" y1="166.07692" x2="287.12278" y2="169.92307" gradientUnits="userSpaceOnUse" id="color-6"><stop offset="0" stop-color="#ffffff"/><stop offset="1" stop-color="#8ac1ff"/></linearGradient></defs><g transform="translate(-239.57043,-150.92344)"><g data-paper-data="{&quot;isPaintingLayer&quot;:true}" fill-rule="nonzero" stroke-linejoin="miter" stroke-miterlimit="10" stroke-dasharray="" stroke-dashoffset="0" style="mix-blend-mode: normal"><path d="M240.32043,179.86273v-28.18929h60.86325v28.18929z" fill="url(#color-1)" stroke="#2843c8" stroke-width="1.5" stroke-linecap="butt"/><g><path d="M241.09529,171.15407h59.38095" fill="none" stroke-opacity="0.70968" stroke="#ffffff" stroke-width="0.5" stroke-linecap="round"/><path d="M240.89862,179.27941v-7.97865h59.76739v7.97865z" data-paper-data="{&quot;index&quot;:null}" fill="url(#color-2)" stroke="none" stroke-width="0" stroke-linecap="butt"/></g><path d="M262.56766,170.36161l4.68637,4.68638c0,0 -3.94972,2.31453 -9.91224,2.02145c-5.7001,0.30417 -10.38022,-2.02144 -10.38022,-2.02144l5.00487,-4.91388z" fill="url(#color-3)" stroke="none" stroke-width="0" stroke-linecap="round"/><path d="M242.60616,158.60513c0.67996,-2.39867 10.02006,0.64523 16.30805,0.69588c4.16109,0.03352 5.47323,-2.30805 8.3306,-1.73594c3.58338,0.71748 0.37034,8.4583 -3.66665,11.51266c-4.0466,3.06162 -8.92471,1.43471 -11.68214,0.37968c-5.80173,-2.21981 -9.84485,-8.89445 -9.28986,-10.85229z" fill="url(#color-4)" stroke="none" stroke-width="0" stroke-linecap="butt"/><text transform="translate(294.83124,160.49343) scale(0.20671,0.20671)" font-size="40" xml:space="preserve" fill="#ffffff" fill-rule="nonzero" stroke="none" stroke-width="1" stroke-linecap="butt" stroke-linejoin="miter" stroke-miterlimit="10" stroke-dasharray="" stroke-dashoffset="0" font-family="Sans Serif" font-weight="normal" text-anchor="start" style="mix-blend-mode: normal"><tspan x="0" dy="0">3</tspan></text><path d="M258.69969,165.07692l13.69231,2.46153" fill="none" stroke="#c8ffff" stroke-width="2.5" stroke-linecap="round"/><path d="M271.3536,167.8007c0,-1.09306 0.8861,-1.97916 1.97916,-1.97916c1.09306,0 1.97917,0.8861 1.97917,1.97916c0,1.09306 -0.8861,1.97916 -1.97917,1.97916c-1.09306,0 -1.97916,-0.8861 -1.97916,-1.97916z" fill="url(#color-5)" stroke="none" stroke-width="0" stroke-linecap="butt"/><path d="M298.85353,168.15384l-5.76923,3.30769l-7.07692,-4.38461c0,0 -2.85061,3.06258 -3.11825,3.13379c-1.05958,0.28191 -7.49713,-1.90302 -7.49713,-1.90302" fill="none" stroke="url(#color-6)" stroke-width="2.5" stroke-linecap="round"/></g></g></svg>