<svg version="1.1" xmlns="http://www.w3.org/2000/svg" xmlns:xlink="http://www.w3.org/1999/xlink" width="62.44658" height="60.26072" viewBox="0,0,62.44658,60.26072"><defs><linearGradient x1="271.06156" y1="121.10222" x2="271.06156" y2="179.86293" gradientUnits="userSpaceOnUse" id="color-1"><stop offset="0" stop-color="#567357"/><stop offset="1" stop-color="#2e5729"/></linearGradient><linearGradient x1="270.89207" y1="167.57146" x2="270.89207" y2="180.14306" gradientUnits="userSpaceOnUse" id="color-2"><stop offset="0" stop-color="#70bb5b"/><stop offset="1" stop-color="#296f15"/></linearGradient><radialGradient cx="254.83378" cy="144.73607" r="19.55" gradientUnits="userSpaceOnUse" id="color-3"><stop offset="0" stop-color="#b6ffc0"/><stop offset="1" stop-color="#b6ffc0" stop-opacity="0"/></radialGradient><radialGradient cx="259.15961" cy="135.6267" r="12.5" gradientUnits="userSpaceOnUse" id="color-4"><stop offset="0" stop-color="#69ff94" stop-opacity="0"/><stop offset="1" stop-color="#69ff94"/></radialGradient><linearGradient x1="275.45428" y1="143.30795" x2="278.43932" y2="156.18707" gradientUnits="userSpaceOnUse" id="color-5"><stop offset="0" stop-color="#00ff21"/><stop offset="1" stop-color="#deffd8"/></linearGradient><linearGradient x1="291.06634" y1="138.46707" x2="285.12791" y2="156.42395" gradientUnits="userSpaceOnUse" id="color-6"><stop offset="0" stop-color="#00ff21"/><stop offset="1" stop-color="#deffd8"/></linearGradient><linearGradient x1="297.19568" y1="152.62847" x2="290.55404" y2="162.76127" gradientUnits="userSpaceOnUse" id="color-7"><stop offset="0" stop-color="#00ff21"/><stop offset="1" stop-color="#deffd8"/></linearGradient></defs><g transform="translate(-239.79665,-120.35221)"><g data-paper-data="{&quot;isPaintingLayer&quot;:true}" fill-rule="nonzero" stroke-linejoin="miter" stroke-miterlimit="10" stroke-dasharray="" stroke-dashoffset="0" style="mix-blend-mode: normal"><path d="M240.54666,179.86293v-58.76072h60.94658v58.76072z" fill="url(#color-1)" stroke="#3dab20" stroke-width="1.5" stroke-linecap="butt"/><path d="M239.96351,180.14306v-12.57143h61.85715v12.57143z" fill="url(#color-2)" stroke="none" stroke-width="0" stroke-linecap="butt"/><path d="M247.97524,159.36486l18.17378,-29.21001" fill="none" stroke="url(#color-3)" stroke-width="4" stroke-linecap="round"/><path d="M250.85254,130.2825c0,0 3.14551,-0.0976 14.00556,2.53037c7.02878,8.4714 7.45523,10.52495 7.45523,10.52495" fill="none" stroke="url(#color-4)" stroke-width="4.5" stroke-linecap="round"/><path d="M274.4416,150.32815l1.60587,-4.44869l3.39917,3.28866l-1.60587,4.44867zM273.58786,150.52602l4.55942,4.41318l2.15845,-5.9702l-4.56475,-4.41194zM272.77682,150.714l2.6748,-7.40543l5.66517,5.47245l-2.68014,7.40667z" fill="url(#color-5)" stroke="none" stroke-width="0.26459" stroke-linecap="butt"/><path d="M284.60421,146.29038l5.27299,-4.24006l1.70535,6.54783l-5.27296,4.24003zM283.41389,145.89674l2.28597,8.78525l7.0805,-5.68771l-2.29339,-8.78771zM282.28307,145.52277l8.77955,-7.05692l2.84856,10.90241l-8.78699,7.05446z" fill="url(#color-6)" stroke="none" stroke-width="0.26459" stroke-linecap="butt"/><path d="M291.90386,156.40296l3.96393,-1.7532l-0.02616,4.33425l-3.96391,1.75319zM291.23218,155.9627l-0.0364,5.81493l5.32176,-2.35059l0.03221,-5.81768zM290.59408,155.54445l6.59951,-2.91736l-0.03793,7.2182l-6.60371,2.9146z" fill="url(#color-7)" stroke="none" stroke-width="0.26459" stroke-linecap="butt"/></g></g></svg>