<svg version="1.1" xmlns="http://www.w3.org/2000/svg" xmlns:xlink="http://www.w3.org/1999/xlink" width="55.125" height="55.125" viewBox="0,0,55.125,55.125"><defs><linearGradient x1="240" y1="153.1875" x2="240" y2="206.8125" gradientUnits="userSpaceOnUse" id="color-1"><stop offset="0" stop-color="#023636"/><stop offset="1" stop-color="#000000" stop-opacity="0.60925"/></linearGradient><linearGradient x1="240" y1="153.1875" x2="240" y2="206.8125" gradientUnits="userSpaceOnUse" id="color-2"><stop offset="0" stop-color="#00ddff"/><stop offset="1" stop-color="#00ddff" stop-opacity="0"/></linearGradient><linearGradient x1="231.55366" y1="197.64784" x2="230.08274" y2="201.01144" gradientUnits="userSpaceOnUse" id="color-3"><stop offset="0" stop-color="#690087"/><stop offset="1" stop-color="#8a06d6"/></linearGradient><linearGradient x1="243.34262" y1="196.54294" x2="241.89398" y2="199.85557" gradientUnits="userSpaceOnUse" id="color-4"><stop offset="0" stop-color="#dfb1ff"/><stop offset="1" stop-color="#ff43f1"/></linearGradient><radialGradient cx="233.61955" cy="192.88334" r="6.80925" gradientUnits="userSpaceOnUse" id="color-5"><stop offset="0" stop-color="#e79eff"/><stop offset="1" stop-color="#b633ff"/></radialGradient><linearGradient x1="242.8913" y1="190.13043" x2="239.55944" y2="197.74947" gradientUnits="userSpaceOnUse" id="color-6"><stop offset="0" stop-color="#dfb1ff"/><stop offset="1" stop-color="#ff43f1"/></linearGradient><linearGradient x1="237.79469" y1="198.58908" x2="237.21525" y2="199.91413" gradientUnits="userSpaceOnUse" id="color-7"><stop offset="0" stop-color="#ff43f1"/><stop offset="1" stop-color="#dfb1ff"/></linearGradient><linearGradient x1="238.73634" y1="196.69896" x2="238.12067" y2="198.10683" gradientUnits="userSpaceOnUse" id="color-8"><stop offset="0" stop-color="#dfb1ff"/><stop offset="1" stop-color="#ff43f1"/></linearGradient><linearGradient x1="229.6634" y1="175.45978" x2="227.21425" y2="173.65769" gradientUnits="userSpaceOnUse" id="color-9"><stop offset="0" stop-color="#008710"/><stop offset="1" stop-color="#34d606"/></linearGradient><linearGradient x1="233.80545" y1="164.50601" x2="236.43218" y2="162.56381" gradientUnits="userSpaceOnUse" id="color-10"><stop offset="0" stop-color="#0000c7"/><stop offset="1" stop-color="#4471ff"/></linearGradient><radialGradient cx="230.72936" cy="165.66144" r="7.207" gradientUnits="userSpaceOnUse" id="color-11"><stop offset="0" stop-color="#3449fa"/><stop offset="1" stop-color="#6078ff"/></radialGradient><radialGradient cx="227.53803" cy="158.16445" r="1.07653" gradientUnits="userSpaceOnUse" id="color-12"><stop offset="0" stop-color="#a6d5d5"/><stop offset="1" stop-color="#c8ffff"/></radialGradient><radialGradient cx="247.50128" cy="168.47423" r="6.30423" gradientUnits="userSpaceOnUse" id="color-13"><stop offset="0" stop-color="#8860db"/><stop offset="1" stop-color="#ad73d6"/></radialGradient><radialGradient cx="245.10309" cy="170.87457" r="3.35901" gradientUnits="userSpaceOnUse" id="color-14"><stop offset="0" stop-color="#c48dee"/><stop offset="1" stop-color="#613b7e" stop-opacity="0.79288"/></radialGradient><linearGradient x1="247.94922" y1="168.14031" x2="249.57497" y2="166.40474" gradientUnits="userSpaceOnUse" id="color-15"><stop offset="0" stop-color="#a167ce"/><stop offset="1" stop-color="#7922c5"/></linearGradient><radialGradient cx="242.54373" cy="173.90258" r="3.75055" gradientUnits="userSpaceOnUse" id="color-16"><stop offset="0" stop-color="#d4c8ed"/><stop offset="1" stop-color="#b37eff"/></radialGradient><radialGradient cx="242.54373" cy="173.90258" r="3.25941" gradientUnits="userSpaceOnUse" id="color-17"><stop offset="0" stop-color="#8364c7" stop-opacity="0"/><stop offset="1" stop-color="#8364c7" stop-opacity="0"/></radialGradient><radialGradient cx="245.42426" cy="186.66755" r="11.23965" gradientUnits="userSpaceOnUse" id="color-18"><stop offset="0" stop-color="#ffa5a5"/><stop offset="1" stop-color="#ffa3a3"/></radialGradient><linearGradient x1="250.87578" y1="189.81857" x2="254.74113" y2="189.67606" gradientUnits="userSpaceOnUse" id="color-19"><stop offset="0" stop-color="#870000"/><stop offset="1" stop-color="#d65d5d"/></linearGradient><radialGradient cx="246.25756" cy="189.65586" r="8.59112" gradientUnits="userSpaceOnUse" id="color-20"><stop offset="0" stop-color="#ff9e9e"/><stop offset="1" stop-color="#ff3333"/></radialGradient><linearGradient x1="246.47758" y1="177.48598" x2="249.14376" y2="177.441" gradientUnits="userSpaceOnUse" id="color-21"><stop offset="0" stop-color="#fff7f7"/><stop offset="1" stop-color="#ffd2d2"/></linearGradient><radialGradient cx="248.19372" cy="188.81905" r="9.84467" gradientUnits="userSpaceOnUse" id="color-22"><stop offset="0" stop-color="#ffa5a5"/><stop offset="1" stop-color="#ffa3a3"/></radialGradient></defs><g transform="translate(-212.4375,-152.4375)"><g data-paper-data="{&quot;isPaintingLayer&quot;:true}" fill-rule="nonzero" stroke-linejoin="miter" stroke-miterlimit="10" stroke-dasharray="" stroke-dashoffset="0" style="mix-blend-mode: normal"><path d="M213.1875,206.8125v-53.625h53.625v53.625z" fill="url(#color-1)" stroke="url(#color-2)" stroke-width="1.5" stroke-linecap="butt"/><path d="M234.55574,199.11245l1.47686,3.77239c0,0 -2.77892,0.32891 -6.04647,-1.29554c-3.26686,-1.22569 -5.3184,-3.6744 -5.3184,-3.6744l4.00649,-1.52627z" fill="url(#color-3)" stroke="none" stroke-width="0" stroke-linecap="round"/><path d="M245.28943,201.34043l-5.34226,-6.28234" fill="none" stroke="url(#color-4)" stroke-width="1" stroke-linecap="round"/><path d="M227.38078,190.15509c1.50678,-3.44559 5.52146,-5.01729 8.96706,-3.51052c3.44559,1.50678 5.01729,5.52146 3.51052,8.96706c-1.50678,3.44559 -5.52146,5.01729 -8.96704,3.51052c-3.44559,-1.50678 -5.01731,-5.52146 -3.51053,-8.96706z" fill="url(#color-5)" stroke="none" stroke-width="0" stroke-linecap="butt"/><path d="M237.35988,187.51419l7.9277,13.00333" fill="none" stroke="url(#color-6)" stroke-width="1" stroke-linecap="round"/><path d="M245.05304,201.20418l-14.23342,-2.87016" fill="none" stroke="url(#color-7)" stroke-width="1" stroke-linecap="round"/><path d="M231.68637,191.84019l13.5633,8.98959" fill="none" stroke="url(#color-8)" stroke-width="1" stroke-linecap="round"/><path d="M227.93238,177.61799l-3.31726,0.50489c0,0 0.24129,-2.30516 2.14991,-4.6487c1.58631,-2.41573 3.93899,-3.62644 3.93899,-3.62644l0.5021,3.51539z" fill="url(#color-9)" stroke="none" stroke-width="0" stroke-linecap="round"/><path d="M231.74059,186.14634l8.29833,-9.50938" fill="none" stroke="#64ff63" stroke-width="1" stroke-linecap="round"/><path d="M232.3866,178.19436l7.1449,-1.37307" fill="none" stroke="#64ff63" stroke-width="1" stroke-linecap="round"/><path d="M232.46096,178.68281l-0.41622,6.88176" fill="none" stroke="#64ff63" stroke-width="1" stroke-linecap="round"/><path d="M232.44575,178.11397l-3.68634,-3.57995" fill="none" stroke="#64ff63" stroke-width="1" stroke-linecap="round"/><path d="M228.90355,175.01184l2.74375,10.75602" fill="none" stroke="#64ff63" stroke-width="1" stroke-linecap="round"/><path d="M229.07874,174.5211l10.91999,2.08629" fill="none" stroke="#64ff63" stroke-width="1" stroke-linecap="round"/><path d="M232.13933,162.04453l0.53415,-3.56513c0,0 2.28956,0.97897 4.08956,3.68152c1.97635,2.39464 2.4727,5.1936 2.4727,5.1936l-3.76763,-0.59987z" fill="url(#color-10)" stroke="none" stroke-width="0" stroke-linecap="round"/><path d="M233.45273,174.57675c-1.26897,0.4783 -2.95812,-4.59104 -4.96941,-7.35754c-1.33097,-1.83074 -2.7794,-1.64739 -3.45321,-3.0821c-0.84501,-1.79925 3.57957,-2.89725 6.22092,-2.11936c2.64764,0.77975 3.5136,3.43935 3.94387,4.98653c0.90533,3.25529 -0.70642,7.18207 -1.74218,7.57247z" fill="url(#color-11)" stroke="none" stroke-width="0" stroke-linecap="butt"/><path d="M231.07886,165.4452l-3.35129,-6.7845" fill="none" stroke="#c8ffff" stroke-width="1" stroke-linecap="round"/><path d="M228.17806,159.03005c-0.47806,0.35348 -1.15216,0.25248 -1.50563,-0.22558c-0.35348,-0.47806 -0.25248,-1.15216 0.22558,-1.50564c0.47806,-0.35348 1.15216,-0.25248 1.50564,0.22558c0.35348,0.47806 0.25248,1.15216 -0.22558,1.50563z" fill="url(#color-12)" stroke="none" stroke-width="0" stroke-linecap="butt"/><path d="M249.45531,170.44503l-2.35834,-1.61846l-1.88849,-2.73935" fill="none" stroke="#63458a" stroke-width="2" stroke-linecap="round"/><path d="M242.82975,164.23977l5.5377,3.00601l3.56116,5.72363l-5.52733,-3.48576z" fill="none" stroke="url(#color-13)" stroke-width="1.5" stroke-linecap="round"/><path d="M247.01903,168.93516l-2.52579,2.68315" fill="none" stroke="url(#color-14)" stroke-width="2.5" stroke-linecap="round"/><path d="M241.79509,162.21737l7.55035,3.97236l4.83683,7.78924" fill="none" stroke="url(#color-15)" stroke-width="1.5" stroke-linecap="round"/><path d="M244.92251,176.13084c-1.23063,1.31376 -3.29329,1.38115 -4.60705,0.15052c-1.31376,-1.23063 -1.38115,-3.29328 -0.15052,-4.60704c1.23063,-1.31376 3.29328,-1.38115 4.60704,-0.15052c1.31376,1.23063 1.38116,3.29329 0.15053,4.60705z" fill="url(#color-16)" stroke="url(#color-17)" stroke-width="0" stroke-linecap="butt"/><path d="M246.43795,186.86042c-0.29214,6.18422 -0.98283,11.11118 -1.54267,11.00467c-0.55985,-0.1065 -0.77685,-5.20615 -0.48471,-11.39037c0.29214,-6.18423 1.37111,-9.77014 1.93096,-9.66364c0,0 0.35004,4.68088 0.09642,10.04934z" fill="url(#color-18)" stroke="none" stroke-width="0" stroke-linecap="butt"/><path d="M250.89264,186.29924l2.90495,-3.12735c0,0 1.58334,2.48712 1.5362,6.33154c0.33101,3.66136 -1.0547,6.72866 -1.0547,6.72866l-3.28132,-3.10453z" fill="url(#color-19)" stroke="none" stroke-width="0" stroke-linecap="round"/><path d="M244.82895,198.33799c-3.22443,-0.17252 -4.8734,-4.25829 -4.40973,-8.99454c0.46367,-4.73625 4.1349,-8.33395 7.35933,-8.16143c3.22443,0.17252 4.78101,4.04992 4.31734,8.78617c-0.46367,4.73625 -4.04251,8.54232 -7.26694,8.3698z" fill="url(#color-20)" stroke="none" stroke-width="0" stroke-linecap="butt"/><path d="M247.52022,170.79759c0,0 0.60085,-0.54841 0.8509,-0.51067c0.27311,0.04122 0.89389,0.74224 0.89389,0.74224l-1.51211,11.48049c0,0 -0.47479,0.04886 -0.69289,-0.00928c-0.19354,-0.05158 -0.54944,-0.23415 -0.54944,-0.23415z" fill="url(#color-21)" stroke="none" stroke-width="0" stroke-linecap="round"/><path d="M250.48593,177.88631c1.37555,0.07058 1.04206,5.62292 0.19842,11.06052c-0.84364,5.43761 -3.75488,9.4906 -5.13043,9.42002c-1.37555,-0.07058 0.40496,-3.65554 1.2486,-9.09314c0.84364,-5.43761 2.30786,-11.45798 3.6834,-11.3874z" fill="url(#color-22)" stroke="none" stroke-width="0" stroke-linecap="butt"/></g></g></svg>