<svg version="1.1" xmlns="http://www.w3.org/2000/svg" xmlns:xlink="http://www.w3.org/1999/xlink" width="62.36325" height="60.26072" viewBox="0,0,62.36325,60.26072"><defs><linearGradient x1="270.89485" y1="121.1021" x2="270.89485" y2="179.86282" gradientUnits="userSpaceOnUse" id="color-1"><stop offset="0" stop-color="#005761"/><stop offset="1" stop-color="#223f47"/></linearGradient><linearGradient x1="270.892" y1="167.57145" x2="270.892" y2="180.14293" gradientUnits="userSpaceOnUse" id="color-2"><stop offset="0" stop-color="#20a3ab"/><stop offset="1" stop-color="#15696d"/></linearGradient><radialGradient cx="291.23077" cy="134" r="3.32036" gradientUnits="userSpaceOnUse" id="color-3"><stop offset="0" stop-color="#ff8787"/><stop offset="1" stop-color="#c42626"/></radialGradient><radialGradient cx="258.75582" cy="147.03005" r="8.42075" gradientUnits="userSpaceOnUse" id="color-4"><stop offset="0" stop-color="#fffc87"/><stop offset="1" stop-color="#ffce87"/></radialGradient><radialGradient cx="261.60784" cy="147.24895" r="8.20184" gradientUnits="userSpaceOnUse" id="color-5"><stop offset="0" stop-color="#b3521e"/><stop offset="1" stop-color="#f6912a"/></radialGradient><radialGradient cx="275.44118" cy="139.45302" r="7.06031" gradientUnits="userSpaceOnUse" id="color-6"><stop offset="0" stop-color="#fffc87"/><stop offset="1" stop-color="#ffce87"/></radialGradient><radialGradient cx="279.29398" cy="141.71348" r="6.87677" gradientUnits="userSpaceOnUse" id="color-7"><stop offset="0" stop-color="#b3521e"/><stop offset="1" stop-color="#f6912a"/></radialGradient><radialGradient cx="273.44509" cy="157.37445" r="31.58032" gradientUnits="userSpaceOnUse" id="color-8"><stop offset="0" stop-color="#fc4949"/><stop offset="1" stop-color="#fc4949" stop-opacity="0"/></radialGradient><radialGradient cx="267.22834" cy="149.27334" r="8.41897" gradientUnits="userSpaceOnUse" id="color-9"><stop offset="0" stop-color="#fffc87"/><stop offset="1" stop-color="#ffce87"/></radialGradient><radialGradient cx="282.24936" cy="141.83997" r="7.05882" gradientUnits="userSpaceOnUse" id="color-10"><stop offset="0" stop-color="#fffc87"/><stop offset="1" stop-color="#ffce87"/></radialGradient><radialGradient cx="265.13501" cy="142.83508" r="1.46216" gradientUnits="userSpaceOnUse" id="color-11"><stop offset="0" stop-color="#ffc366"/><stop offset="1" stop-color="#ffa666"/></radialGradient><radialGradient cx="273.69184" cy="131.48377" r="1.5972" gradientUnits="userSpaceOnUse" id="color-12"><stop offset="0" stop-color="#ffc366"/><stop offset="1" stop-color="#ffa666"/></radialGradient><radialGradient cx="266.30237" cy="137.683" r="2.68681" gradientUnits="userSpaceOnUse" id="color-13"><stop offset="0" stop-color="#ffc366"/><stop offset="1" stop-color="#ffa666"/></radialGradient><radialGradient cx="282.74066" cy="132.20088" r="1.45954" gradientUnits="userSpaceOnUse" id="color-14"><stop offset="0" stop-color="#ffc366"/><stop offset="1" stop-color="#ffa666"/></radialGradient></defs><g transform="translate(-239.71327,-120.35209)"><g data-paper-data="{&quot;isPaintingLayer&quot;:true}" fill-rule="nonzero" stroke-linejoin="miter" stroke-miterlimit="10" stroke-dasharray="" stroke-dashoffset="0" style="mix-blend-mode: normal"><path d="M240.46327,179.86282v-58.76072h60.86325v58.76072z" fill="url(#color-1)" stroke="#166f73" stroke-width="1.5" stroke-linecap="butt"/><path d="M239.96343,180.14293v-12.57143h61.85715v12.57143z" fill="url(#color-2)" stroke="none" stroke-width="0" stroke-linecap="butt"/><path d="M287.91041,134c0,-1.83378 1.48659,-3.32037 3.32037,-3.32037c1.83378,0 3.32037,1.48659 3.32037,3.32037c0,1.83378 -1.48659,3.32037 -3.32037,3.32037c-1.83378,0 -3.32037,-1.48659 -3.32037,-3.32037z" fill="url(#color-3)" stroke="none" stroke-width="0" stroke-linecap="butt"/><g stroke="none" stroke-width="0" stroke-linecap="butt"><path d="M253.80115,147.02829c0,-4.64967 3.7693,-8.41898 8.41897,-8.41898c1.79548,0 0.28232,1.78432 -1.07797,3.82917c-0.62001,0.93204 -1.13986,1.78137 -1.42081,2.78183c-0.38662,1.37673 3.21803,2.22036 2.67303,3.54567c-0.44022,1.07052 -3.23962,1.41102 -3.23962,2.32068c0,4.64967 7.71504,4.3606 3.06537,4.3606c-4.64967,0 -8.41897,-3.7693 -8.41897,-8.41897z" fill="url(#color-4)"/><path d="M261.74521,152.29555c0,3.1355 3.13185,2.00023 1.19857,2.78419c-0.9336,0.37859 -2.23782,0.36753 -0.72365,0.36753c4.64967,0 -3.06537,0.28907 -3.06537,-4.3606c0,-0.90966 2.7994,-1.25016 3.23962,-2.32068c0.545,-1.32531 -3.05964,-2.16894 -2.67302,-3.54567c0.28095,-1.00046 2.70046,-5.04469 3.32047,-5.97673c0.7848,-1.17976 0.6056,3.23811 -0.60313,5.66917c-0.08734,0.17565 1.63413,1.95542 1.62216,2.16756c-0.13934,2.46888 -2.31565,3.40378 -2.31565,5.21522z" fill="url(#color-5)"/></g><g stroke="none" stroke-width="0" stroke-linecap="butt"><path d="M271.28698,139.45154c0,-3.89848 3.62189,-6.67421 7.52037,-6.67421c1.5054,0 1.00594,2.95758 -0.13458,4.67207c-0.51984,0.78146 -1.10956,0.10896 -1.34512,0.94779c-0.32416,1.15431 -0.45571,0.7078 -0.91266,1.819c-0.3691,0.89756 1.43761,1.79845 1.43761,2.56114c0,0.86671 -0.93678,2.45565 -0.642,2.9671c1.03114,1.78907 2.78236,1.38131 -0.24941,1.38131c-3.89848,0 -5.67421,-3.77572 -5.67421,-7.6742z" fill="url(#color-6)"/><path d="M278.75965,147.18849c-0.5345,-0.11802 -1.62771,0.03036 -1.62771,-1.88889c0,-0.76269 0.29855,-1.10892 0.66765,-2.00648c0.08084,-0.19657 -1.43045,-2.16656 -1.53993,-2.29809c-0.71774,-0.8623 0.67493,-2.49992 0.83317,-3.06343c0.11031,-0.39281 1.04769,0.63858 1.40801,-0.77398c0.40913,-1.60392 0.45183,-3.58682 0.72823,-4.00234c0.65801,-0.98915 0.62112,4.79189 -0.39232,6.8302c-0.07323,0.14727 0.52398,1.79335 0.51394,1.97122c-0.11683,2.07002 0.05846,2.46925 0.05846,3.98804c0,0 -0.0983,1.36545 -0.64951,1.24374z" fill="url(#color-7)"/></g><path d="M287.46079,136.27366l-41.70214,25.04986" fill="none" stroke="url(#color-8)" stroke-width="5.5" stroke-linecap="round"/><path d="M267.4442,151.34571c0,-3.31461 -2.77692,-2.28908 -2.588,-3.41036c0.0761,-0.45163 2.6777,-6.64924 4.01276,-6.64924c4.64967,0 6.77835,3.33756 6.77835,7.98723c0,4.64967 -3.7693,8.41898 -8.41897,8.41898c-1.63876,0 -1.9083,-0.67479 -2.32338,-1.53434c-0.42699,-0.88423 -0.96777,-1.96903 -0.38575,-3.08163c0.45747,-0.87454 2.925,-0.40554 2.925,-1.73064z" fill="url(#color-9)" stroke="none" stroke-width="0" stroke-linecap="butt"/><path d="M280.35343,143.88522c0,-2.77911 1.93425,-3.45027 2.45686,-4.54119c0.74616,-1.55755 0.15634,-4.20089 0.81464,-4.20089c3.89848,0 5.68325,2.79835 5.68325,6.69683c0,3.89848 -3.16034,7.05883 -7.05882,7.05883c-1.37401,0 -0.75943,-3.01431 -0.27145,-3.94716c0.38356,-0.73325 -1.62448,0.04459 -1.62448,-1.06643z" fill="url(#color-10)" stroke="none" stroke-width="0" stroke-linecap="butt"/><path d="M266.30813,143.01972c0,0.30031 -0.54882,0.04819 -0.66373,0.26582c-0.15396,0.29158 0.08925,1.00647 -0.17646,1.00647c-0.46402,0 -1.27228,0.10253 -1.27228,-0.60013c0,-0.51481 -0.42222,-2.11046 -0.13177,-2.31074c0.10599,-0.07309 1.28,0.36631 1.40406,0.36631c0.46402,0 0.84019,0.56962 0.84019,1.27228z" fill="url(#color-11)" stroke="none" stroke-width="0" stroke-linecap="butt"/><path d="M275.11289,131.68623c0,0.32921 -0.62977,1.39474 -0.92105,1.39474c-0.50869,0 -1.92105,-0.62445 -1.92105,-1.39474c0,-0.56436 0.06346,-1.57674 0.38186,-1.7963c0.11619,-0.08012 0.92951,1.2963 1.06551,1.2963c0.50869,0 1.39474,-0.27029 1.39474,0.5z" fill="url(#color-12)" stroke="none" stroke-width="0" stroke-linecap="butt"/><path d="M267.25607,139.72956c-0.43634,0.26612 -1.03006,0.6137 -1.44809,0.63958c-0.5601,0.03468 0.03774,-1.29421 -0.19773,-1.68028c-0.41121,-0.67423 -2.22381,-0.81041 -1.20284,-1.43309c0.74802,-0.45621 2.69234,-2.48373 3.24075,-2.23919c0.20012,0.08924 0.60206,2.18446 0.71199,2.36471c0.41121,0.67423 -0.08311,1.72559 -1.10408,2.34827z" fill="url(#color-13)" stroke="none" stroke-width="0" stroke-linecap="butt"/><path d="M283.88708,132.38814c0,0.30031 -0.57448,1.27229 -0.84019,1.27229c-0.46402,0 -0.58807,-0.37115 -0.58807,-1.07382c0,-0.5148 -1.10644,-1.63677 -0.81599,-1.83706c0.10599,-0.07308 1.28,0.36631 1.40406,0.36631c0.46402,0 0.84019,0.56962 0.84019,1.27228z" fill="url(#color-14)" stroke="none" stroke-width="0" stroke-linecap="butt"/></g></g></svg>