<svg version="1.1" xmlns="http://www.w3.org/2000/svg" xmlns:xlink="http://www.w3.org/1999/xlink" width="62.36325" height="29.68929" viewBox="0,0,62.36325,29.68929"><defs><linearGradient x1="270.62703" y1="151.79844" x2="270.62703" y2="179.98773" gradientUnits="userSpaceOnUse" id="color-1"><stop offset="0" stop-color="#455c8f"/><stop offset="1" stop-color="#003758"/></linearGradient><linearGradient x1="270.78229" y1="171.30076" x2="270.78229" y2="179.27941" gradientUnits="userSpaceOnUse" id="color-2"><stop offset="0" stop-color="#0b1228"/><stop offset="1" stop-color="#0b1228" stop-opacity="0"/></linearGradient><radialGradient cx="258.79722" cy="172.76016" r="9.94711" gradientUnits="userSpaceOnUse" id="color-3"><stop offset="0" stop-color="#8860db"/><stop offset="1" stop-color="#ad73d6"/></radialGradient><radialGradient cx="258.96966" cy="167.4092" r="5.3" gradientUnits="userSpaceOnUse" id="color-4"><stop offset="0" stop-color="#c48dee"/><stop offset="1" stop-color="#613b7e" stop-opacity="0.79288"/></radialGradient><linearGradient x1="258.64159" y1="173.62789" x2="258.64159" y2="177.38013" gradientUnits="userSpaceOnUse" id="color-5"><stop offset="0" stop-color="#a167ce"/><stop offset="1" stop-color="#7922c5"/></linearGradient><radialGradient cx="258.65061" cy="161.16158" r="5.91781" gradientUnits="userSpaceOnUse" id="color-6"><stop offset="0" stop-color="#d4c8ed"/><stop offset="1" stop-color="#b37eff"/></radialGradient><radialGradient cx="258.65061" cy="161.16158" r="5.14286" gradientUnits="userSpaceOnUse" id="color-7"><stop offset="0" stop-color="#8364c7" stop-opacity="0"/><stop offset="1" stop-color="#8364c7" stop-opacity="0"/></radialGradient><radialGradient cx="274.84516" cy="166.93832" r="17.375" gradientUnits="userSpaceOnUse" id="color-8"><stop offset="0" stop-color="#8364c7"/><stop offset="1" stop-color="#8364c7" stop-opacity="0"/></radialGradient><radialGradient cx="288.47016" cy="173.11489" r="7.375" gradientUnits="userSpaceOnUse" id="color-9"><stop offset="0" stop-color="#b861ff"/><stop offset="1" stop-color="#9c78ff" stop-opacity="0.74194"/></radialGradient><radialGradient cx="288.47016" cy="173.11489" r="7.375" gradientUnits="userSpaceOnUse" id="color-10"><stop offset="0" stop-color="#000000" stop-opacity="0"/><stop offset="1" stop-color="#000000" stop-opacity="0"/></radialGradient></defs><g transform="translate(-239.44548,-151.04844)"><g data-paper-data="{&quot;isPaintingLayer&quot;:true}" fill-rule="nonzero" stroke-linejoin="miter" stroke-miterlimit="10" stroke-dasharray="" stroke-dashoffset="0" style="mix-blend-mode: normal"><path d="M240.19549,179.98773v-28.18929h60.86325v28.18929z" fill="url(#color-1)" stroke="#916fdc" stroke-width="1.5" stroke-linecap="butt"/><g><path d="M241.09529,171.15407h59.38095" fill="none" stroke-opacity="0.70968" stroke="#ffffff" stroke-width="0.5" stroke-linecap="round"/><path d="M240.89862,179.27941v-7.97865h59.76739v7.97865z" data-paper-data="{&quot;index&quot;:null}" fill="url(#color-2)" stroke="none" stroke-width="0" stroke-linecap="butt"/></g><text transform="translate(294.83128,160.49343) scale(0.20671,0.20671)" font-size="40" xml:space="preserve" fill="#ffffff" fill-rule="nonzero" stroke="none" stroke-width="1" stroke-linecap="butt" stroke-linejoin="miter" stroke-miterlimit="10" stroke-dasharray="" stroke-dashoffset="0" font-family="Sans Serif" font-weight="normal" text-anchor="start" style="mix-blend-mode: normal"><tspan x="0" dy="0">8</tspan></text><path d="M254.42121,172.59847l4.46154,-0.68016l5.12955,1.11741" fill="none" stroke="#63458a" stroke-width="3" stroke-linecap="round"/><path d="M268.74433,172.59725l-9.61943,2.51184l-10.2748,-2.74966l10.125,-1.94821z" fill="none" stroke="url(#color-3)" stroke-width="2" stroke-linecap="round"/><path d="M258.85537,171.7092l0.01429,-5.81429" fill="none" stroke="url(#color-4)" stroke-width="4.5" stroke-linecap="round"/><path d="M245.16588,173.62789l13.97193,3.75224l12.97949,-3.57006" fill="none" stroke="url(#color-5)" stroke-width="3" stroke-linecap="round"/><path d="M253.50775,161.16158c0,-2.84032 2.30254,-5.14286 5.14286,-5.14286c2.84032,0 5.14286,2.30254 5.14286,5.14286c0,2.84032 -2.30254,5.14286 -5.14286,5.14286c-2.84032,0 -5.14286,-2.30254 -5.14286,-5.14286z" fill="url(#color-6)" stroke="url(#color-7)" stroke-width="0" stroke-linecap="butt"/><path d="M257.47016,159.8694l34.75,14.13783" fill="none" stroke="url(#color-8)" stroke-width="3" stroke-linecap="round"/><path d="M295.84516,174.78021c0,1.54384 -3.3019,1.13004 -7.375,1.13004c-4.0731,0 -7.375,0.17589 -7.375,-1.36794c0,-1.54384 3.3019,-4.22278 7.375,-4.22278c4.0731,0 7.375,2.91685 7.375,4.46069z" fill="url(#color-9)" stroke="url(#color-10)" stroke-width="0" stroke-linecap="butt"/></g></g></svg>