<svg version="1.1" xmlns="http://www.w3.org/2000/svg" xmlns:xlink="http://www.w3.org/1999/xlink" width="62.36325" height="60.26072" viewBox="0,0,62.36325,60.26072"><defs><linearGradient x1="270.89485" y1="121.10212" x2="270.89485" y2="179.86282" gradientUnits="userSpaceOnUse" id="color-1"><stop offset="0" stop-color="#005761"/><stop offset="1" stop-color="#223f47"/></linearGradient><radialGradient cx="270.37669" cy="144.42915" r="23.49861" gradientUnits="userSpaceOnUse" id="color-2"><stop offset="0" stop-color="#ff5c5c"/><stop offset="1" stop-color="#ffc7c7"/></radialGradient><linearGradient x1="270.892" y1="167.57146" x2="270.892" y2="180.14295" gradientUnits="userSpaceOnUse" id="color-3"><stop offset="0" stop-color="#20a3ab"/><stop offset="1" stop-color="#15696d"/></linearGradient><radialGradient cx="270.53192" cy="143.54453" r="17.73077" gradientUnits="userSpaceOnUse" id="color-4"><stop offset="0" stop-color="#ff5c5c"/><stop offset="1" stop-color="#ffc7c7"/></radialGradient><radialGradient cx="261.37807" cy="134.62147" r="3.42308" gradientUnits="userSpaceOnUse" id="color-5"><stop offset="0" stop-color="#ffa0a0"/><stop offset="1" stop-color="#ff6666"/></radialGradient><radialGradient cx="278.14731" cy="134.08301" r="3.42307" gradientUnits="userSpaceOnUse" id="color-6"><stop offset="0" stop-color="#ffa0a0"/><stop offset="1" stop-color="#ff6666"/></radialGradient><radialGradient cx="259.80117" cy="145.65992" r="5.30769" gradientUnits="userSpaceOnUse" id="color-7"><stop offset="0" stop-color="#ffa0a0"/><stop offset="1" stop-color="#ff6666"/></radialGradient><radialGradient cx="281.26271" cy="145.42915" r="5.30768" gradientUnits="userSpaceOnUse" id="color-8"><stop offset="0" stop-color="#ffa0a0"/><stop offset="1" stop-color="#ff6666"/></radialGradient><radialGradient cx="250.60885" cy="152.04453" r="8.96154" gradientUnits="userSpaceOnUse" id="color-9"><stop offset="0" stop-color="#fc4949"/><stop offset="1" stop-color="#fc4949" stop-opacity="0"/></radialGradient><radialGradient cx="290.22423" cy="152.54453" r="8.42308" gradientUnits="userSpaceOnUse" id="color-10"><stop offset="0" stop-color="#fc4949"/><stop offset="1" stop-color="#fc4949" stop-opacity="0"/></radialGradient><radialGradient cx="253.99346" cy="130.42915" r="7.65385" gradientUnits="userSpaceOnUse" id="color-11"><stop offset="0" stop-color="#fc4949"/><stop offset="1" stop-color="#fc4949" stop-opacity="0"/></radialGradient><radialGradient cx="286.57038" cy="130.92915" r="8.15385" gradientUnits="userSpaceOnUse" id="color-12"><stop offset="0" stop-color="#fc4949"/><stop offset="1" stop-color="#fc4949" stop-opacity="0"/></radialGradient></defs><g transform="translate(-239.71327,-120.35209)"><g data-paper-data="{&quot;isPaintingLayer&quot;:true}" fill-rule="nonzero" stroke-linejoin="miter" stroke-miterlimit="10" stroke-dasharray="" stroke-dashoffset="0" style="mix-blend-mode: normal"><path d="M240.46327,179.86282v-58.76072h60.86325v58.76072z" fill="url(#color-1)" stroke="#166f73" stroke-width="1.5" stroke-linecap="butt"/><path d="M293.8753,144.42915c0,7.00977 -10.52069,12.6923 -23.49861,12.6923c-12.97792,0 -23.49861,-5.68253 -23.49861,-12.6923c0,-7.00977 10.52069,-12.6923 23.49861,-12.6923c12.97792,0 23.49861,5.68253 23.49861,12.6923z" fill="none" stroke="url(#color-2)" stroke-width="1" stroke-linecap="butt"/><path d="M239.96343,180.14295v-12.57143h61.85715v12.57143z" fill="url(#color-3)" stroke="none" stroke-width="0" stroke-linecap="butt"/><path d="M288.26269,143.54453c0,5.28919 -7.93834,9.57692 -17.73077,9.57692c-9.79243,0 -17.73077,-4.28773 -17.73077,-9.57692c0,-5.28919 7.93834,-9.57692 17.73077,-9.57692c9.79243,0 17.73077,4.28773 17.73077,9.57692z" fill="none" stroke="url(#color-4)" stroke-width="2" stroke-linecap="butt"/><path d="M257.95499,134.62147c0,-1.89051 1.53256,-3.42308 3.42308,-3.42308c1.89051,0 3.42308,1.53256 3.42308,3.42308c0,1.89051 -1.53256,3.42308 -3.42308,3.42308c-1.89051,0 -3.42308,-1.53256 -3.42308,-3.42308z" fill="url(#color-5)" stroke="none" stroke-width="0" stroke-linecap="butt"/><path d="M274.72423,134.08301c0,-1.89051 1.53256,-3.42308 3.42308,-3.42308c1.89051,0 3.42307,1.53256 3.42307,3.42308c0,1.89051 -1.53256,3.42308 -3.42307,3.42308c-1.89051,0 -3.42308,-1.53257 -3.42308,-3.42308z" fill="url(#color-6)" stroke="none" stroke-width="0" stroke-linecap="butt"/><path d="M254.49347,145.65992c0,-2.93136 2.37634,-5.30769 5.3077,-5.30769c2.93136,0 5.30769,2.37633 5.30769,5.30769c0,2.93136 -2.37633,5.3077 -5.30769,5.3077c-2.93136,0 -5.3077,-2.37634 -5.3077,-5.3077z" fill="url(#color-7)" stroke="none" stroke-width="0" stroke-linecap="butt"/><path d="M275.95501,145.42915c0,-2.93136 2.37634,-5.30769 5.3077,-5.30769c2.93136,0 5.30768,2.37633 5.30768,5.30769c0,2.93136 -2.37632,5.3077 -5.30768,5.3077c-2.93136,0 -5.3077,-2.37634 -5.3077,-5.3077z" fill="url(#color-8)" stroke="none" stroke-width="0" stroke-linecap="butt"/><path d="M259.80115,145.89069l-16.38461,13.76923" fill="none" stroke="url(#color-9)" stroke-width="7" stroke-linecap="round"/><path d="M281.64731,145.96761l15.23077,14.69231" fill="none" stroke="url(#color-10)" stroke-width="7" stroke-linecap="round"/><path d="M261.64731,134.73684l-17.46154,-5.46154" fill="none" stroke="url(#color-11)" stroke-width="5" stroke-linecap="round"/><path d="M278.41654,134.04453l15.15385,-4.07692" fill="none" stroke="url(#color-12)" stroke-width="5" stroke-linecap="round"/></g></g></svg>