<svg version="1.1" xmlns="http://www.w3.org/2000/svg" xmlns:xlink="http://www.w3.org/1999/xlink" width="66.31183" height="67.63159" viewBox="0,0,66.31183,67.63159"><defs><linearGradient x1="271.06156" y1="121.10227" x2="271.06156" y2="179.86298" gradientUnits="userSpaceOnUse" id="color-1"><stop offset="0" stop-color="#755569"/><stop offset="1" stop-color="#542844"/></linearGradient><radialGradient cx="271.04859" cy="145.19607" r="31.46408" gradientUnits="userSpaceOnUse" id="color-2"><stop offset="0" stop-color="#3b004a"/><stop offset="1" stop-color="#3b004a" stop-opacity="0"/></radialGradient><radialGradient cx="271.0486" cy="145.19607" r="31.46409" gradientUnits="userSpaceOnUse" id="color-3"><stop offset="0" stop-color="#f0b4ff"/><stop offset="1" stop-color="#f0b4ff" stop-opacity="0"/></radialGradient><radialGradient cx="271.04858" cy="145.19607" r="30.82788" gradientUnits="userSpaceOnUse" id="color-4"><stop offset="0" stop-color="#3b004a"/><stop offset="1" stop-color="#3b004a" stop-opacity="0"/></radialGradient><radialGradient cx="271.0486" cy="145.19607" r="31.18346" gradientUnits="userSpaceOnUse" id="color-5"><stop offset="0" stop-color="#f0b4ff"/><stop offset="1" stop-color="#f0b4ff" stop-opacity="0"/></radialGradient><radialGradient cx="271.04859" cy="145.19606" r="26.94975" gradientUnits="userSpaceOnUse" id="color-6"><stop offset="0" stop-color="#3b004a"/><stop offset="1" stop-color="#3b004a" stop-opacity="0"/></radialGradient><radialGradient cx="271.0486" cy="145.19607" r="29.54705" gradientUnits="userSpaceOnUse" id="color-7"><stop offset="0" stop-color="#f0b4ff"/><stop offset="1" stop-color="#f0b4ff" stop-opacity="0"/></radialGradient><radialGradient cx="271.0486" cy="145.19607" r="19.33345" gradientUnits="userSpaceOnUse" id="color-8"><stop offset="0" stop-color="#3b004a"/><stop offset="1" stop-color="#3b004a" stop-opacity="0"/></radialGradient><radialGradient cx="271.0486" cy="145.19607" r="26.70963" gradientUnits="userSpaceOnUse" id="color-9"><stop offset="0" stop-color="#f0b4ff"/><stop offset="1" stop-color="#f0b4ff" stop-opacity="0"/></radialGradient><radialGradient cx="271.0486" cy="145.19607" r="22.96308" gradientUnits="userSpaceOnUse" id="color-10"><stop offset="0" stop-color="#3b004a"/><stop offset="1" stop-color="#3b004a" stop-opacity="0"/></radialGradient><radialGradient cx="271.0486" cy="145.19607" r="24.37369" gradientUnits="userSpaceOnUse" id="color-11"><stop offset="0" stop-color="#f0b4ff"/><stop offset="1" stop-color="#f0b4ff" stop-opacity="0"/></radialGradient><radialGradient cx="271.0486" cy="145.19607" r="23.71472" gradientUnits="userSpaceOnUse" id="color-12"><stop offset="0" stop-color="#3b004a"/><stop offset="1" stop-color="#3b004a" stop-opacity="0"/></radialGradient><radialGradient cx="271.0486" cy="145.19607" r="23.80756" gradientUnits="userSpaceOnUse" id="color-13"><stop offset="0" stop-color="#f0b4ff"/><stop offset="1" stop-color="#f0b4ff" stop-opacity="0"/></radialGradient><radialGradient cx="271.04859" cy="145.19608" r="21.1954" gradientUnits="userSpaceOnUse" id="color-14"><stop offset="0" stop-color="#3b004a"/><stop offset="1" stop-color="#3b004a" stop-opacity="0"/></radialGradient><radialGradient cx="271.0486" cy="145.19607" r="25.58813" gradientUnits="userSpaceOnUse" id="color-15"><stop offset="0" stop-color="#f0b4ff"/><stop offset="1" stop-color="#f0b4ff" stop-opacity="0"/></radialGradient><radialGradient cx="271.0486" cy="145.19606" r="21.74252" gradientUnits="userSpaceOnUse" id="color-16"><stop offset="0" stop-color="#3b004a"/><stop offset="1" stop-color="#3b004a" stop-opacity="0"/></radialGradient><radialGradient cx="271.0486" cy="145.19607" r="27.57898" gradientUnits="userSpaceOnUse" id="color-17"><stop offset="0" stop-color="#f0b4ff"/><stop offset="1" stop-color="#f0b4ff" stop-opacity="0"/></radialGradient><radialGradient cx="271.0486" cy="145.19606" r="26.85781" gradientUnits="userSpaceOnUse" id="color-18"><stop offset="0" stop-color="#3b004a"/><stop offset="1" stop-color="#3b004a" stop-opacity="0"/></radialGradient><radialGradient cx="271.0486" cy="145.19607" r="29.5099" gradientUnits="userSpaceOnUse" id="color-19"><stop offset="0" stop-color="#f0b4ff"/><stop offset="1" stop-color="#f0b4ff" stop-opacity="0"/></radialGradient><radialGradient cx="271.04859" cy="145.19607" r="31.00163" gradientUnits="userSpaceOnUse" id="color-20"><stop offset="0" stop-color="#3b004a"/><stop offset="1" stop-color="#3b004a" stop-opacity="0"/></radialGradient><radialGradient cx="271.0486" cy="145.19607" r="31.25978" gradientUnits="userSpaceOnUse" id="color-21"><stop offset="0" stop-color="#f0b4ff"/><stop offset="1" stop-color="#f0b4ff" stop-opacity="0"/></radialGradient><linearGradient x1="270.89207" y1="167.57145" x2="270.89207" y2="180.14311" gradientUnits="userSpaceOnUse" id="color-22"><stop offset="0" stop-color="#a559a2"/><stop offset="1" stop-color="#733473"/></linearGradient></defs><g transform="translate(-237.9516,-112.98139)"><g data-paper-data="{&quot;isPaintingLayer&quot;:true}" fill-rule="nonzero" stroke-linecap="butt" stroke-linejoin="miter" stroke-miterlimit="10" stroke-dasharray="" stroke-dashoffset="0" style="mix-blend-mode: normal"><path d="M240.54673,179.86298v-58.76072h60.94658v58.76072z" fill="url(#color-1)" stroke="#7e1b8b" stroke-width="1.5"/><g stroke-width="3"><path d="M302.36473,142.14846c0.44902,2.99126 -13.2077,6.78063 -30.50312,8.46379c-17.29543,1.68316 -31.68013,0.62272 -32.12915,-2.36855c-0.44902,-2.99126 13.20769,-6.78065 30.50312,-8.46381c17.29543,-1.68316 31.68014,-0.62272 32.12915,2.36857z" fill="url(#color-2)" stroke="url(#color-3)"/><path d="M302.6438,148.4304c-0.18331,2.9894 -14.47757,3.96472 -31.92714,2.17844c-17.44955,-1.78627 -31.4466,-5.65771 -31.26329,-8.64711c0.18331,-2.9894 14.47757,-3.96471 31.92714,-2.17843c17.44956,1.78628 31.44659,5.6577 31.26328,8.64711z" fill="url(#color-4)" stroke="url(#color-5)"/><path d="M300.11869,158.64058c-1.22454,2.70314 -15.23233,-1.12487 -31.2873,-8.55006c-16.05497,-7.42519 -28.07743,-15.63584 -26.85289,-18.33898c1.22452,-2.70314 15.23233,1.12487 31.2873,8.55007c16.05497,7.42519 28.07741,15.63584 26.85289,18.33898z" fill="url(#color-6)" stroke="url(#color-7)"/><path d="M293.26187,168.05955c-2.20553,2.00859 -13.93867,-6.59943 -26.20672,-19.22659c-12.26806,-12.62715 -20.42535,-24.49178 -18.21982,-26.50037c2.20553,-2.00859 13.93867,6.59944 26.20672,19.22659c12.26806,12.62715 20.42535,24.49177 18.21982,26.50035z" fill="url(#color-8)" stroke="url(#color-9)"/><path d="M283.68651,173.907c-2.8386,1.07174 -10.79793,-10.91377 -17.77765,-26.77038c-6.97972,-15.85661 -10.33677,-29.57974 -7.49817,-30.65148c2.8386,-1.07174 10.79793,10.91376 17.77765,26.77037c6.97972,15.85661 10.33678,29.57975 7.49817,30.6515z" fill="url(#color-10)" stroke="url(#color-11)"/><path d="M273.51826,175.91075c-3.08668,0.09589 -6.69465,-13.5778 -8.05861,-30.54105c-1.36396,-16.96325 0.0326,-30.79243 3.11928,-30.88832c3.08668,-0.09589 6.69465,13.5778 8.0586,30.54105c1.36396,16.96325 -0.03259,30.79243 -3.11927,30.88832z" fill="url(#color-12)" stroke="url(#color-13)"/><path d="M260.72512,173.75188c-2.92681,-1.1107 -0.67749,-14.79594 5.02402,-30.56688c5.7015,-15.77094 12.69611,-27.65541 15.62292,-26.54473c2.92681,1.11068 0.67748,14.79592 -5.02402,30.56688c-5.7015,15.77094 -12.69611,27.65543 -15.62292,26.54473z" fill="url(#color-14)" stroke="url(#color-15)"/><path d="M253.17117,169.72614c-2.55493,-1.81071 3.37786,-14.26105 13.2513,-27.80864c9.87344,-13.54758 19.94861,-23.06222 22.50355,-21.25151c2.55494,1.8107 -3.37786,14.26106 -13.2513,27.80866c-9.87344,13.54758 -19.94861,23.0622 -22.50355,21.2515z" fill="url(#color-16)" stroke="url(#color-17)"/><path d="M246.91131,163.97053c-2.00275,-2.37986 7.18032,-12.7147 20.51099,-23.08355c13.33066,-10.36887 25.76084,-16.84523 27.76358,-14.46539c2.00275,2.37986 -7.18034,12.71471 -20.511,23.08356c-13.33066,10.36887 -25.76081,16.84523 -27.76357,14.46537z" fill="url(#color-18)" stroke="url(#color-19)"/><path d="M241.00498,153.50642c-0.97405,-2.89409 11.68729,-8.9609 28.27993,-13.55056c16.59264,-4.58967 30.83324,-5.96421 31.80729,-3.07013c0.97405,2.89408 -11.68728,8.96087 -28.27993,13.55053c-16.59264,4.58967 -30.83324,5.96425 -31.80729,3.07016z" fill="url(#color-20)" stroke="url(#color-21)"/></g><path d="M239.96356,180.14311v-12.57143c0,0 9.2599,0 15.94982,0c11.34971,0 45.90733,0 45.90733,0v12.57143z" fill="url(#color-22)" stroke="none" stroke-width="0"/></g></g></svg>