<svg version="1.1" xmlns="http://www.w3.org/2000/svg" xmlns:xlink="http://www.w3.org/1999/xlink" width="62.36325" height="60.26072" viewBox="0,0,62.36325,60.26072"><defs><linearGradient x1="270.89485" y1="121.10207" x2="270.89485" y2="179.86279" gradientUnits="userSpaceOnUse" id="color-1"><stop offset="0" stop-color="#005761"/><stop offset="1" stop-color="#223f47"/></linearGradient><radialGradient cx="283.266" cy="145.72365" r="8.65" gradientUnits="userSpaceOnUse" id="color-2"><stop offset="0" stop-color="#008ffc"/><stop offset="1" stop-color="#008ffc" stop-opacity="0"/></radialGradient><radialGradient cx="279.666" cy="141.32365" r="8.05" gradientUnits="userSpaceOnUse" id="color-3"><stop offset="0" stop-color="#008ffc"/><stop offset="1" stop-color="#008ffc" stop-opacity="0"/></radialGradient><radialGradient cx="276.916" cy="138.27364" r="9.1" gradientUnits="userSpaceOnUse" id="color-4"><stop offset="0" stop-color="#008ffc"/><stop offset="1" stop-color="#008ffc" stop-opacity="0"/></radialGradient><radialGradient cx="271.816" cy="135.12365" r="10" gradientUnits="userSpaceOnUse" id="color-5"><stop offset="0" stop-color="#008ffc"/><stop offset="1" stop-color="#008ffc" stop-opacity="0"/></radialGradient><linearGradient x1="270.892" y1="167.57145" x2="270.892" y2="180.1429" gradientUnits="userSpaceOnUse" id="color-6"><stop offset="0" stop-color="#20a3ab"/><stop offset="1" stop-color="#15696d"/></linearGradient><linearGradient x1="254.60655" y1="139.4798" x2="252.34956" y2="142.01083" gradientUnits="userSpaceOnUse" id="color-7"><stop offset="0" stop-color="#00a6ff"/><stop offset="1" stop-color="#ffffff"/></linearGradient><linearGradient x1="261.2351" y1="141.81348" x2="258.97812" y2="144.34453" gradientUnits="userSpaceOnUse" id="color-8"><stop offset="0" stop-color="#00a6ff"/><stop offset="1" stop-color="#ffffff"/></linearGradient><linearGradient x1="275.47281" y1="154.27624" x2="273.21583" y2="156.8073" gradientUnits="userSpaceOnUse" id="color-9"><stop offset="0" stop-color="#00a6ff"/><stop offset="1" stop-color="#ffffff"/></linearGradient><linearGradient x1="270.82477" y1="149.19833" x2="268.56779" y2="151.72938" gradientUnits="userSpaceOnUse" id="color-10"><stop offset="0" stop-color="#00a6ff"/><stop offset="1" stop-color="#ffffff"/></linearGradient><linearGradient x1="266.5608" y1="145.08501" x2="264.30381" y2="147.61605" gradientUnits="userSpaceOnUse" id="color-11"><stop offset="0" stop-color="#00a6ff"/><stop offset="1" stop-color="#ffffff"/></linearGradient><linearGradient x1="255.1976" y1="143.2396" x2="252.13494" y2="146.67414" gradientUnits="userSpaceOnUse" id="color-12"><stop offset="0" stop-color="#00a6ff"/><stop offset="1" stop-color="#ffffff"/></linearGradient><linearGradient x1="274.34073" y1="158.58756" x2="270.85868" y2="162.49242" gradientUnits="userSpaceOnUse" id="color-13"><stop offset="0" stop-color="#00a6ff"/><stop offset="1" stop-color="#ffffff"/></linearGradient><linearGradient x1="259.69937" y1="150.02012" x2="256.50429" y2="153.60315" gradientUnits="userSpaceOnUse" id="color-14"><stop offset="0" stop-color="#00a6ff"/><stop offset="1" stop-color="#ffffff"/></linearGradient><linearGradient x1="267.43458" y1="156.19568" x2="263.87528" y2="160.18715" gradientUnits="userSpaceOnUse" id="color-15"><stop offset="0" stop-color="#00a6ff"/><stop offset="1" stop-color="#ffffff"/></linearGradient><linearGradient x1="278.48386" y1="125.97198" x2="277.03704" y2="127.59447" gradientUnits="userSpaceOnUse" id="color-16"><stop offset="0" stop-color="#00a6ff"/><stop offset="1" stop-color="#ffffff"/></linearGradient><linearGradient x1="282.73301" y1="127.46796" x2="281.2862" y2="129.09044" gradientUnits="userSpaceOnUse" id="color-17"><stop offset="0" stop-color="#00a6ff"/><stop offset="1" stop-color="#ffffff"/></linearGradient><linearGradient x1="291.85993" y1="135.45708" x2="290.41312" y2="137.07957" gradientUnits="userSpaceOnUse" id="color-18"><stop offset="0" stop-color="#00a6ff"/><stop offset="1" stop-color="#ffffff"/></linearGradient><linearGradient x1="288.88036" y1="132.20192" x2="287.43355" y2="133.82441" gradientUnits="userSpaceOnUse" id="color-19"><stop offset="0" stop-color="#00a6ff"/><stop offset="1" stop-color="#ffffff"/></linearGradient><linearGradient x1="286.14699" y1="129.56513" x2="284.70017" y2="131.18763" gradientUnits="userSpaceOnUse" id="color-20"><stop offset="0" stop-color="#00a6ff"/><stop offset="1" stop-color="#ffffff"/></linearGradient><linearGradient x1="278.86274" y1="128.38215" x2="276.89946" y2="130.58381" gradientUnits="userSpaceOnUse" id="color-21"><stop offset="0" stop-color="#00a6ff"/><stop offset="1" stop-color="#ffffff"/></linearGradient><linearGradient x1="291.13422" y1="138.22079" x2="288.9021" y2="140.72394" gradientUnits="userSpaceOnUse" id="color-22"><stop offset="0" stop-color="#00a6ff"/><stop offset="1" stop-color="#ffffff"/></linearGradient><linearGradient x1="281.74855" y1="132.72873" x2="279.70038" y2="135.02559" gradientUnits="userSpaceOnUse" id="color-23"><stop offset="0" stop-color="#00a6ff"/><stop offset="1" stop-color="#ffffff"/></linearGradient><linearGradient x1="286.70712" y1="136.68749" x2="284.42547" y2="139.24619" gradientUnits="userSpaceOnUse" id="color-24"><stop offset="0" stop-color="#00a6ff"/><stop offset="1" stop-color="#ffffff"/></linearGradient><radialGradient cx="277.84508" cy="150.74032" r="18.21844" gradientUnits="userSpaceOnUse" id="color-25"><stop offset="0" stop-color="#000000"/><stop offset="1" stop-color="#000000" stop-opacity="0"/></radialGradient><radialGradient cx="277.84508" cy="150.74032" r="18.21844" gradientUnits="userSpaceOnUse" id="color-26"><stop offset="0" stop-color="#008ffc"/><stop offset="1" stop-color="#008ffc" stop-opacity="0"/></radialGradient><radialGradient cx="263.116" cy="136.92365" r="12" gradientUnits="userSpaceOnUse" id="color-27"><stop offset="0" stop-color="#008ffc"/><stop offset="1" stop-color="#008ffc" stop-opacity="0"/></radialGradient><radialGradient cx="267.516" cy="144.47365" r="11.6" gradientUnits="userSpaceOnUse" id="color-28"><stop offset="0" stop-color="#008ffc"/><stop offset="1" stop-color="#008ffc" stop-opacity="0"/></radialGradient><radialGradient cx="274.866" cy="149.87365" r="10.6" gradientUnits="userSpaceOnUse" id="color-29"><stop offset="0" stop-color="#008ffc"/><stop offset="1" stop-color="#008ffc" stop-opacity="0"/></radialGradient><radialGradient cx="281.966" cy="152.32365" r="11.05" gradientUnits="userSpaceOnUse" id="color-30"><stop offset="0" stop-color="#008ffc"/><stop offset="1" stop-color="#008ffc" stop-opacity="0"/></radialGradient></defs><g transform="translate(-239.71327,-120.35206)"><g data-paper-data="{&quot;isPaintingLayer&quot;:true}" fill-rule="nonzero" stroke-linejoin="miter" stroke-miterlimit="10" stroke-dasharray="" stroke-dashoffset="0" style="mix-blend-mode: normal"><path d="M240.46327,179.86279v-58.76072h60.86325v58.76072z" fill="url(#color-1)" stroke="#166f73" stroke-width="1.5" stroke-linecap="butt"/><path d="M276.216,154.37365l14.1,-17.3" fill="none" stroke="url(#color-2)" stroke-width="0.5" stroke-linecap="round"/><path d="M271.616,149.07365l16.1,-15.5" fill="none" stroke="url(#color-3)" stroke-width="0.5" stroke-linecap="round"/><path d="M267.816,145.57365l18.2,-14.6" fill="none" stroke="url(#color-4)" stroke-width="0.5" stroke-linecap="round"/><path d="M261.816,141.87365l20,-13.5" fill="none" stroke="url(#color-5)" stroke-width="0.5" stroke-linecap="round"/><path d="M239.96343,180.1429v-12.57143h61.85715v12.57143z" fill="url(#color-6)" stroke="none" stroke-width="0" stroke-linecap="butt"/><g><path d="M258.79657,143.32723l-1.58882,0.81426l-3.6922,-4.90774c0,0 0.6595,-0.32914 1.10675,-0.29488c0.55906,0.04283 1.98762,0.53196 1.98762,0.53196z" fill="url(#color-7)" stroke="none" stroke-width="0" stroke-linecap="round"/><path d="M263.01398,142.50698l-0.52529,2.75309l-2.3975,-0.83913l-0.96352,-3.87149z" fill="url(#color-8)" stroke="none" stroke-width="0" stroke-linecap="round"/><path d="M272.00291,155.72572l-0.33653,-2.28863l3.10096,0.21009l2.12248,4.14782z" fill="url(#color-9)" stroke="none" stroke-width="0" stroke-linecap="round"/><path d="M269.28075,151.97632l-1.30583,-1.9865l2.25088,-1.71441l2.48641,2.60602z" fill="url(#color-10)" stroke="none" stroke-width="0" stroke-linecap="round"/><path d="M266.23549,148.32763l-1.5914,-1.23022l1.31774,-2.93533l2.54959,2.27353z" fill="url(#color-11)" stroke="none" stroke-width="0" stroke-linecap="round"/><path d="M271.15891,156.39811c-1.08581,1.21766 -5.03311,-0.53022 -8.81654,-3.90399c-3.78343,-3.37376 -5.97029,-7.09585 -4.88448,-8.31351c1.08581,-1.21766 5.03311,0.53022 8.81654,3.90399c3.78343,3.37376 5.97028,7.09585 4.88447,8.31351z" fill="none" stroke="#00ffff" stroke-width="2.5" stroke-linecap="butt"/><path d="M256.64567,144.53088c0,0 -0.14612,1.10996 0.11147,1.64833c0.28634,0.59845 1.02226,1.8496 1.02226,1.8496l-5.74496,-1.07241c0,0 -1.29218,-2.04746 -1.4714,-3.00759c-0.19737,-1.05739 0.33635,-3.07315 0.33635,-3.07315z" fill="url(#color-12)" stroke="none" stroke-width="0" stroke-linecap="round"/><path d="M269.76186,157.35181c0,0 0.91485,0.14555 1.20154,-0.02916c0.34956,-0.21301 0.86359,-0.45601 0.86359,-0.45601l4.14662,5.67655c0,0 -0.98788,0.864 -1.74777,0.95557c-0.72363,0.0872 -2.7081,-0.41863 -2.7081,-0.41863z" fill="url(#color-13)" stroke="none" stroke-width="0" stroke-linecap="round"/><path d="M258.69377,149.12339c0,0 0.937,1.56378 1.55351,2.18018c0.61682,0.6167 1.99871,1.68485 1.99871,1.68485l-3.44817,2.95743c0,0 -2.16906,-2.14248 -2.98519,-3.1031c-0.73213,-0.86175 -1.65453,-2.51607 -1.65453,-2.51607z" fill="url(#color-14)" stroke="none" stroke-width="0" stroke-linecap="round"/><path d="M264.01299,154.74427c0,0 1.30292,0.87835 1.86649,1.13826c0.65973,0.30425 1.84904,0.57525 1.84904,0.57525l-0.14559,5.25376c0,0 -1.90618,-0.92236 -2.88118,-1.51026c-0.99565,-0.60036 -3.03205,-2.05527 -3.03205,-2.05527z" fill="url(#color-15)" stroke="none" stroke-width="0" stroke-linecap="round"/><path d="M276.26617,162.38564c-2.4877,2.78977 -10.12644,0.03798 -17.06161,-6.14626c-6.93517,-6.18425 -10.54058,-13.45911 -8.05288,-16.24888c2.4877,-2.78977 10.12643,-0.03798 17.0616,6.14626c6.93517,6.18425 10.54059,13.45911 8.05289,16.24888z" fill="none" stroke="#00ffff" stroke-width="1" stroke-linecap="butt"/></g><g><path d="M281.16982,128.43831l-1.0185,0.52197l-2.36684,-3.14605c0,0 0.42277,-0.21099 0.70947,-0.18903c0.35838,0.02746 1.27414,0.341 1.27414,0.341z" fill="url(#color-16)" stroke="none" stroke-width="0" stroke-linecap="round"/><path d="M283.87334,127.91251l-0.33673,1.76484l-1.53688,-0.53791l-0.61766,-2.48177z" fill="url(#color-17)" stroke="none" stroke-width="0" stroke-linecap="round"/><path d="M289.63559,136.38623l-0.21573,-1.4671l1.98783,0.13468l1.36059,2.65892z" fill="url(#color-18)" stroke="none" stroke-width="0" stroke-linecap="round"/><path d="M287.89058,133.98272l-0.83709,-1.27343l1.4429,-1.099l1.59389,1.67055z" fill="url(#color-19)" stroke="none" stroke-width="0" stroke-linecap="round"/><path d="M285.93845,131.64378l-1.02014,-0.78862l0.84472,-1.88166l1.63439,1.45743z" fill="url(#color-20)" stroke="none" stroke-width="0" stroke-linecap="round"/><path d="M289.09456,136.81725c-0.69605,0.78056 -3.22642,-0.33989 -5.65174,-2.5026c-2.42532,-2.16271 -3.82718,-4.54871 -3.13114,-5.32928c0.69605,-0.78056 3.22642,0.33989 5.65174,2.50261c2.42532,2.16271 3.82718,4.54871 3.13114,5.32927z" fill="none" stroke="#00ffff" stroke-width="1.5" stroke-linecap="butt"/><path d="M279.79101,129.20989c0,0 -0.09367,0.71152 0.07146,1.05664c0.18356,0.38363 0.6553,1.18566 0.6553,1.18566l-3.68274,-0.68745c0,0 -0.82833,-1.3125 -0.94322,-1.92798c-0.12653,-0.67783 0.21562,-1.97001 0.21562,-1.97001z" fill="url(#color-21)" stroke="none" stroke-width="0" stroke-linecap="round"/><path d="M288.19899,137.42862c0,0 0.58645,0.09331 0.77023,-0.01869c0.22408,-0.13655 0.55359,-0.29233 0.55359,-0.29233l2.65814,3.63888c0,0 -0.63326,0.55387 -1.12038,0.61256c-0.46387,0.05589 -1.73599,-0.26836 -1.73599,-0.26836z" fill="url(#color-22)" stroke="none" stroke-width="0" stroke-linecap="round"/><path d="M281.10392,132.15389c0,0 0.60065,1.00244 0.99586,1.39758c0.3954,0.39533 1.28125,1.08006 1.28125,1.08006l-2.21041,1.89583c0,0 -1.39045,-1.37342 -1.91362,-1.98921c-0.46933,-0.55241 -1.06062,-1.61289 -1.06062,-1.61289z" fill="url(#color-23)" stroke="none" stroke-width="0" stroke-linecap="round"/><path d="M284.51375,135.75707c0,0 0.83522,0.56306 1.19649,0.72967c0.42291,0.19503 1.18531,0.36875 1.18531,0.36875l-0.09333,3.36786c0,0 -1.22194,-0.59127 -1.84695,-0.96813c-0.63825,-0.38485 -1.94366,-1.31751 -1.94366,-1.31751z" fill="url(#color-24)" stroke="none" stroke-width="0" stroke-linecap="round"/><path d="M292.36851,140.6555c-1.59471,1.78835 -6.49144,0.02435 -10.93715,-3.93999c-4.44571,-3.96434 -6.75691,-8.6278 -5.1622,-10.41616c1.59471,-1.78835 6.49143,-0.02435 10.93714,3.93999c4.44571,3.96434 6.75692,8.6278 5.16221,10.41616z" fill="none" stroke="#00ffff" stroke-width="0.5" stroke-linecap="butt"/></g><path d="M265.216,159.87366" fill="url(#color-25)" stroke="url(#color-26)" stroke-width="1.5" stroke-linecap="round"/><path d="M251.116,144.17365l24.1,-16.4" fill="none" stroke="url(#color-27)" stroke-width="1.5" stroke-linecap="round"/><path d="M279.116,135.27364l-23.2,18.4" fill="none" stroke="url(#color-28)" stroke-width="1.5" stroke-linecap="round"/><path d="M264.916,160.47365l19.9,-21.2" fill="none" stroke="url(#color-29)" stroke-width="1.5" stroke-linecap="round"/><path d="M290.816,141.27364l-17.7,22.1" fill="none" stroke="url(#color-30)" stroke-width="1.5" stroke-linecap="round"/></g></g></svg>