<svg version="1.1" xmlns="http://www.w3.org/2000/svg" xmlns:xlink="http://www.w3.org/1999/xlink" width="62.44658" height="60.26072" viewBox="0,0,62.44658,60.26072"><defs><linearGradient x1="271.06156" y1="121.10234" x2="271.06156" y2="179.86304" gradientUnits="userSpaceOnUse" id="color-1"><stop offset="0" stop-color="#81704a"/><stop offset="1" stop-color="#54472c"/></linearGradient><linearGradient x1="270.89207" y1="167.57146" x2="270.89207" y2="180.14315" gradientUnits="userSpaceOnUse" id="color-2"><stop offset="0" stop-color="#8d7134"/><stop offset="1" stop-color="#5b4d28"/></linearGradient><linearGradient x1="271.09007" y1="134.11953" x2="271.09007" y2="169.89484" gradientUnits="userSpaceOnUse" id="color-3"><stop offset="0" stop-color="#34270a"/><stop offset="1" stop-color="#34270a" stop-opacity="0"/></linearGradient><radialGradient cx="271.68976" cy="147.9264" r="22.18674" gradientUnits="userSpaceOnUse" id="color-4"><stop offset="0" stop-color="#987e46"/><stop offset="1" stop-color="#987e46" stop-opacity="0"/></radialGradient><linearGradient x1="270.61932" y1="148.70668" x2="270.61932" y2="152.14727" gradientUnits="userSpaceOnUse" id="color-5"><stop offset="0" stop-color="#624d00"/><stop offset="1" stop-color="#947400"/></linearGradient><linearGradient x1="271.19255" y1="143.82637" x2="260.16426" y2="143.21132" gradientUnits="userSpaceOnUse" id="color-6"><stop offset="0" stop-color="#fffffb"/><stop offset="1" stop-color="#ffed61"/></linearGradient><linearGradient x1="270.18886" y1="143.58009" x2="281.21717" y2="142.96504" gradientUnits="userSpaceOnUse" id="color-7"><stop offset="0" stop-color="#fffffb"/><stop offset="1" stop-color="#ffed61"/></linearGradient><radialGradient cx="270.52957" cy="143.47821" r="7.7471" gradientUnits="userSpaceOnUse" id="color-8"><stop offset="0" stop-color="#ffd952"/><stop offset="1" stop-color="#b58e00"/></radialGradient><linearGradient x1="271.34767" y1="145.94444" x2="282.3931" y2="145.94444" gradientUnits="userSpaceOnUse" id="color-9"><stop offset="0" stop-color="#fffffb"/><stop offset="1" stop-color="#ffed61"/></linearGradient><linearGradient x1="269.50778" y1="146.22652" x2="258.46234" y2="146.22652" gradientUnits="userSpaceOnUse" id="color-10"><stop offset="0" stop-color="#fffffb"/><stop offset="1" stop-color="#ffed61"/></linearGradient><linearGradient x1="270.99677" y1="139.32272" x2="269.05958" y2="150.19696" gradientUnits="userSpaceOnUse" id="color-11"><stop offset="0" stop-color="#fffffb"/><stop offset="1" stop-color="#ffed61"/></linearGradient><radialGradient cx="271.01568" cy="147.3712" r="24.01567" gradientUnits="userSpaceOnUse" id="color-12"><stop offset="0" stop-color="#ffe9ba" stop-opacity="0"/><stop offset="1" stop-color="#ffe9ba"/></radialGradient></defs><g transform="translate(-239.79682,-120.35232)"><g data-paper-data="{&quot;isPaintingLayer&quot;:true}" fill-rule="nonzero" stroke-linejoin="miter" stroke-miterlimit="10" stroke-dasharray="" stroke-dashoffset="0" style="mix-blend-mode: normal"><path d="M240.54683,179.86304v-58.76072h60.94658v58.76072z" fill="url(#color-1)" stroke="#543f10" stroke-width="1.5" stroke-linecap="butt"/><path d="M239.96365,180.14315v-12.57143c0,0 9.2599,0 15.94982,0c11.34971,0 45.90733,0 45.90733,0v12.57143z" fill="url(#color-2)" stroke="none" stroke-width="0" stroke-linecap="butt"/><path d="M241.2064,169.89484v-35.77529h59.76739v35.77529z" data-paper-data="{&quot;index&quot;:null}" fill="url(#color-3)" stroke="none" stroke-width="0" stroke-linecap="butt"/><path d="M300.784,134.07716h-59.38095" fill="none" stroke="#a0771e" stroke-width="0.5" stroke-linecap="round"/><path d="M249.50305,146.59519c0,-5.36446 1.99677,-11.84193 22.13083,-11.85877c17.80473,-0.01489 22.24263,6.44026 22.24263,11.85877c0,10.78299 -9.56355,18.78476 -21.81694,18.78476c-12.25339,0 -22.55652,-8.00178 -22.55652,-18.78476z" fill="url(#color-4)" stroke="none" stroke-width="0.5" stroke-linecap="butt"/><g stroke="none" stroke-width="0"><path d="M272.9847,147.73575l3.44711,3.78595c0,0 -2.26269,1.32593 -5.67846,1.15803c-3.26543,0.17425 -5.94655,-1.15803 -5.94655,-1.15803l3.03657,-3.66214z" fill="url(#color-5)" stroke-linecap="round"/><path d="M257.62598,142.74062c0.06,-0.70479 2.69413,-1.56992 5.91892,-1.23984c3.36533,0.34447 7.32844,1.90246 7.45413,1.98424c0.26853,0.17473 -2.47872,0.04031 -5.46266,0.71504c-1.53908,0.34802 -1.21097,0.97071 -1.21097,0.97071c0,0 -6.84286,-0.74521 -6.69943,-2.43015z" fill="url(#color-6)" stroke-linecap="round"/><path d="M277.05602,144.92449c0,0 0.32811,-0.62269 -1.21097,-0.97071c-2.98394,-0.67473 -5.73119,-0.54031 -5.46266,-0.71504c0.12569,-0.08178 4.0888,-1.63977 7.45413,-1.98424c3.22479,-0.33009 5.85893,0.53505 5.91892,1.23984c0.14344,1.68493 -6.69943,2.43015 -6.69943,2.43015z" data-paper-data="{&quot;index&quot;:null}" fill="url(#color-7)" stroke-linecap="round"/><path d="M262.78246,143.47821c0,-4.27861 3.57133,-5.07332 7.84994,-5.07332c4.27861,0 7.64427,0.79471 7.64427,5.07332c0,4.27861 -3.46849,5.89602 -7.7471,5.89602c-4.27861,0 -7.74711,-1.61741 -7.74711,-5.89602z" fill="url(#color-8)" stroke-linecap="butt"/><path d="M284.95366,146.27305c-0.02066,0.70704 -2.60255,1.71752 -5.84071,1.56752c-3.37929,-0.15655 -7.42301,-1.49143 -7.55305,-1.56609c-0.27785,-0.15951 2.47264,-0.17826 5.41436,-1.01811c1.51731,-0.43318 1.15504,-1.03664 1.15504,-1.03664c0,0 6.87375,0.36301 6.82436,2.05332z" fill="url(#color-9)" stroke-linecap="round"/><path d="M262.72614,144.50183c0,0 -0.36227,0.60346 1.15504,1.03664c2.94173,0.83984 5.69221,0.8586 5.41436,1.01811c-0.13005,0.07465 -4.17377,1.40954 -7.55305,1.56609c-3.23817,0.15001 -5.82006,-0.86048 -5.84071,-1.56752c-0.04939,-1.69031 6.82436,-2.05332 6.82436,-2.05332z" data-paper-data="{&quot;index&quot;:null}" fill="url(#color-10)" stroke-linecap="round"/><path d="M266.88702,146.35498c0,0 8.50549,-0.0915 7.45027,-0.17739c-0.92178,-0.07503 0.03322,4.59916 -4.21183,4.49588c-2.66792,-0.06491 -3.23845,-4.31849 -3.23845,-4.31849z" data-paper-data="{&quot;index&quot;:null}" fill="url(#color-11)" stroke-linecap="round"/></g><path d="M247.00003,145.93025c0,-11.67186 10.75217,-21.13377 24.01566,-21.13377c13.26349,0 24.01566,9.46191 24.01566,21.13377c0,11.67186 -10.43195,20.2532 -23.69545,20.2532c-13.26347,0 -24.33587,-8.58134 -24.33587,-20.2532z" fill="url(#color-12)" stroke="none" stroke-width="0.5" stroke-linecap="butt"/></g></g></svg>