<svg width="480px" height="360px" xmlns="http://www.w3.org/2000/svg"><path fill="#F00" d="M251.287 168.138L251.287 168.138Q251.287 170.121 250.185 171.143Q249.083 172.165 246.990 172.300L246.990 172.300L246.892 175.311L245.068 175.311L244.909 170.623L246.341 170.623Q247.088 170.623 247.590 170.464Q248.092 170.305 248.398 170.011Q248.704 169.717 248.839 169.295Q248.973 168.872 248.973 168.346L248.973 168.346Q248.973 167.452 248.606 166.754Q248.239 166.057 247.578 165.579Q246.917 165.102 246.005 164.857Q245.093 164.612 244.015 164.612L244.015 164.612L243.709 164.612L243.709 162.702L244.040 162.702Q245.276 162.702 246.298 162.935Q247.321 163.168 248.122 163.565Q248.924 163.963 249.518 164.502Q250.112 165.041 250.510 165.640Q250.907 166.240 251.097 166.883Q251.287 167.526 251.287 168.138ZM245.962 176.989L245.962 176.989Q246.305 176.989 246.598 177.117Q246.892 177.246 247.106 177.466Q247.321 177.686 247.443 177.986Q247.565 178.286 247.565 178.617L247.565 178.617Q247.565 178.947 247.443 179.241Q247.321 179.535 247.106 179.749Q246.892 179.963 246.598 180.092Q246.305 180.220 245.962 180.220L245.962 180.220Q245.631 180.220 245.337 180.092Q245.044 179.963 244.823 179.749Q244.603 179.535 244.480 179.241Q244.358 178.947 244.358 178.617L244.358 178.617Q244.358 178.286 244.480 177.986Q244.603 177.686 244.823 177.466Q245.044 177.246 245.337 177.117Q245.631 176.989 245.962 176.989Z"/></svg>