<svg version="1.1" xmlns="http://www.w3.org/2000/svg" xmlns:xlink="http://www.w3.org/1999/xlink" width="55.125" height="55.125" viewBox="0,0,55.125,55.125"><defs><linearGradient x1="240" y1="153.1875" x2="240" y2="206.8125" gradientUnits="userSpaceOnUse" id="color-1"><stop offset="0" stop-color="#1e3602"/><stop offset="1" stop-color="#000000" stop-opacity="0.60925"/></linearGradient><linearGradient x1="240" y1="153.1875" x2="240" y2="206.8125" gradientUnits="userSpaceOnUse" id="color-2"><stop offset="0" stop-color="#61841f"/><stop offset="1" stop-color="#61841f" stop-opacity="0"/></linearGradient><linearGradient x1="239.25782" y1="182.66093" x2="239.25782" y2="200.77204" gradientUnits="userSpaceOnUse" id="color-3"><stop offset="0" stop-color="#ffffff" stop-opacity="0"/><stop offset="1" stop-color="#ffffff"/></linearGradient><linearGradient x1="239.25782" y1="182.66093" x2="239.25782" y2="200.77204" gradientUnits="userSpaceOnUse" id="color-4"><stop offset="0" stop-color="#141918"/><stop offset="1" stop-color="#242d2b"/></linearGradient><linearGradient x1="239.88278" y1="173.66093" x2="239.88278" y2="205.54981" gradientUnits="userSpaceOnUse" id="color-5"><stop offset="0" stop-color="#1eff00"/><stop offset="1" stop-color="#1eff00" stop-opacity="0"/></linearGradient><linearGradient x1="239.66056" y1="174.77204" x2="239.66056" y2="193.66093" gradientUnits="userSpaceOnUse" id="color-6"><stop offset="0" stop-color="#5babe6"/><stop offset="1" stop-color="#005991"/></linearGradient><radialGradient cx="230.75641" cy="176.12554" r="5.49089" gradientUnits="userSpaceOnUse" id="color-7"><stop offset="0" stop-color="#ffb4c8"/><stop offset="1" stop-color="#ffb4c8" stop-opacity="0"/></radialGradient><radialGradient cx="231.93473" cy="180.50432" r="6.15535" gradientUnits="userSpaceOnUse" id="color-8"><stop offset="0" stop-color="#c87896"/><stop offset="1" stop-color="#c87896" stop-opacity="0"/></radialGradient><radialGradient cx="235.59419" cy="176.81834" r="8.36296" gradientUnits="userSpaceOnUse" id="color-9"><stop offset="0" stop-color="#ffb4c8"/><stop offset="1" stop-color="#ffb4c8" stop-opacity="0"/></radialGradient><radialGradient cx="229.27343" cy="177.74052" r="6.40922" gradientUnits="userSpaceOnUse" id="color-10"><stop offset="0" stop-color="#ffb4c8"/><stop offset="1" stop-color="#ffb4c8" stop-opacity="0"/></radialGradient><radialGradient cx="248.38136" cy="178.59115" r="6.94276" gradientUnits="userSpaceOnUse" id="color-11"><stop offset="0" stop-color="#ffa5a5"/><stop offset="1" stop-color="#ffa3a3"/></radialGradient><linearGradient x1="246.31222" y1="181.88456" x2="246.31222" y2="184.27383" gradientUnits="userSpaceOnUse" id="color-12"><stop offset="0" stop-color="#870000"/><stop offset="1" stop-color="#d65d5d"/></linearGradient><radialGradient cx="246.51776" cy="179.03752" r="5.30676" gradientUnits="userSpaceOnUse" id="color-13"><stop offset="0" stop-color="#ff9e9e"/><stop offset="1" stop-color="#ff3333"/></radialGradient><linearGradient x1="254.02502" y1="179.45029" x2="253.99211" y2="181.0971" gradientUnits="userSpaceOnUse" id="color-14"><stop offset="0" stop-color="#fff7f7"/><stop offset="1" stop-color="#ffd2d2"/></linearGradient><radialGradient cx="246.99025" cy="180.25172" r="6.08108" gradientUnits="userSpaceOnUse" id="color-15"><stop offset="0" stop-color="#ffa5a5"/><stop offset="1" stop-color="#ffa3a3"/></radialGradient><radialGradient cx="218.45988" cy="161.80907" r="7.59259" gradientUnits="userSpaceOnUse" id="color-16"><stop offset="0" stop-color="#33ff00" stop-opacity="0.40323"/><stop offset="1" stop-color="#33ff00" stop-opacity="0"/></radialGradient><radialGradient cx="221.03922" cy="168.75352" r="6.31481" gradientUnits="userSpaceOnUse" id="color-17"><stop offset="0" stop-color="#33ff00" stop-opacity="0.40323"/><stop offset="1" stop-color="#33ff00" stop-opacity="0"/></radialGradient><radialGradient cx="223.75835" cy="160.86463" r="6.87037" gradientUnits="userSpaceOnUse" id="color-18"><stop offset="0" stop-color="#33ff00" stop-opacity="0.40323"/><stop offset="1" stop-color="#33ff00" stop-opacity="0"/></radialGradient><radialGradient cx="252.26145" cy="168.75351" r="6.31482" gradientUnits="userSpaceOnUse" id="color-19"><stop offset="0" stop-color="#33ff00" stop-opacity="0.40323"/><stop offset="1" stop-color="#33ff00" stop-opacity="0"/></radialGradient><radialGradient cx="257.817" cy="165.97574" r="6.31482" gradientUnits="userSpaceOnUse" id="color-20"><stop offset="0" stop-color="#33ff00" stop-opacity="0.40323"/><stop offset="1" stop-color="#33ff00" stop-opacity="0"/></radialGradient><radialGradient cx="254.846" cy="160.86462" r="7.09259" gradientUnits="userSpaceOnUse" id="color-21"><stop offset="0" stop-color="#33ff00" stop-opacity="0.40323"/><stop offset="1" stop-color="#33ff00" stop-opacity="0"/></radialGradient><radialGradient cx="235.92811" cy="167.19796" r="6.31482" gradientUnits="userSpaceOnUse" id="color-22"><stop offset="0" stop-color="#33ff00" stop-opacity="0.40323"/><stop offset="1" stop-color="#33ff00" stop-opacity="0"/></radialGradient><radialGradient cx="241.37256" cy="160.86462" r="6.31481" gradientUnits="userSpaceOnUse" id="color-23"><stop offset="0" stop-color="#33ff00" stop-opacity="0.40323"/><stop offset="1" stop-color="#33ff00" stop-opacity="0"/></radialGradient><radialGradient cx="226.03922" cy="173.42018" r="6.31482" gradientUnits="userSpaceOnUse" id="color-24"><stop offset="0" stop-color="#33ff00" stop-opacity="0.40323"/><stop offset="1" stop-color="#33ff00" stop-opacity="0"/></radialGradient><radialGradient cx="245.03922" cy="171.30907" r="6.31482" gradientUnits="userSpaceOnUse" id="color-25"><stop offset="0" stop-color="#33ff00" stop-opacity="0.40323"/><stop offset="1" stop-color="#33ff00" stop-opacity="0"/></radialGradient><radialGradient cx="262.37256" cy="171.86462" r="6.31482" gradientUnits="userSpaceOnUse" id="color-26"><stop offset="0" stop-color="#33ff00" stop-opacity="0.40323"/><stop offset="1" stop-color="#33ff00" stop-opacity="0"/></radialGradient></defs><g transform="translate(-212.4375,-152.4375)"><g data-paper-data="{&quot;isPaintingLayer&quot;:true}" fill-rule="nonzero" stroke-linejoin="miter" stroke-miterlimit="10" stroke-dasharray="" stroke-dashoffset="0" style="mix-blend-mode: normal"><path d="M213.1875,206.8125v-53.625h53.625v53.625z" fill="url(#color-1)" stroke="url(#color-2)" stroke-width="1.5" stroke-linecap="butt"/><path d="M239.25782,182.66093v18.11111" fill="url(#color-3)" stroke="url(#color-4)" stroke-width="9" stroke-linecap="round"/><path d="M213.77167,205.54981v-31.88889h52.22222v31.88889z" fill="url(#color-5)" stroke="none" stroke-width="0" stroke-linecap="butt"/><path d="M259.77167,184.21648c0,5.21602 -9.00405,9.44444 -20.11111,9.44444c-11.10706,0 -20.11111,-4.22842 -20.11111,-9.44444c0,-5.21602 9.00405,-9.44444 20.11111,-9.44444c11.10706,0 20.11111,4.22842 20.11111,9.44444z" fill="url(#color-6)" stroke="#2e9696" stroke-width="1.5" stroke-linecap="butt"/><path d="M231.71621,178.36087l-2.02928,-4.72612" fill="none" stroke="url(#color-7)" stroke-width="2" stroke-linecap="round"/><path d="M231.93473,185.21226v-5.30714" fill="none" stroke="url(#color-8)" stroke-width="2" stroke-linecap="round"/><path d="M232.60674,179.00995l6.31624,-4.63369" fill="none" stroke="url(#color-9)" stroke-width="2" stroke-linecap="round"/><path d="M231.59157,179.38038l-4.90121,-3.46714" fill="none" stroke="url(#color-10)" stroke-width="2" stroke-linecap="round"/><path d="M248.23923,179.21249c-3.81077,-0.32108 -6.83639,-0.85956 -6.7579,-1.20272c0.07848,-0.34316 3.23135,-0.36105 7.04212,-0.03998c3.81078,0.32108 5.99974,1.06871 5.92126,1.41188c0,0 -2.89739,0.10955 -6.20548,-0.16918z" fill="url(#color-11)" stroke="none" stroke-width="0" stroke-linecap="butt"/><path d="M248.48426,181.97507l1.86435,1.86435c0,0 -1.57129,0.92077 -3.94332,0.80417c-2.26763,0.121 -4.12948,-0.80417 -4.12948,-0.80417l1.99105,-1.95486z" fill="url(#color-12)" stroke="none" stroke-width="0" stroke-linecap="round"/><path d="M241.19094,177.95807c0.17988,-1.98647 2.73948,-2.91136 5.65254,-2.51736c2.91305,0.394 5.05031,2.74206 4.87043,4.72853c-0.17988,1.98647 -2.60876,2.85908 -5.52182,2.46508c-2.91305,-0.394 -5.18104,-2.68978 -5.00116,-4.67625z" fill="url(#color-13)" stroke="none" stroke-width="0" stroke-linecap="butt"/><path d="M258.12993,180.24611c0,0 0.32485,0.38338 0.29586,0.53687c-0.03166,0.16764 -0.47852,0.5349 -0.47852,0.5349l-7.0523,-1.19468c0,0 -0.01936,-0.29418 0.0215,-0.42749c0.03625,-0.1183 0.15704,-0.33383 0.15704,-0.33383z" fill="url(#color-14)" stroke="none" stroke-width="0" stroke-linecap="round"/><path d="M253.68668,181.91547c-0.07487,0.8475 -3.49465,0.51529 -6.83199,-0.12923c-3.33735,-0.64452 -5.77294,-2.53381 -5.69807,-3.38131c0.07487,-0.8475 2.24729,0.33317 5.58463,0.97768c3.33734,0.64452 7.0203,1.68537 6.94543,2.53286z" fill="url(#color-15)" stroke="none" stroke-width="0" stroke-linecap="butt"/><path d="M218.45988,154.21648v15.18519" fill="none" stroke="url(#color-16)" stroke-width="1.5" stroke-linecap="round"/><path d="M221.03922,162.4387v12.62963" fill="none" stroke="url(#color-17)" stroke-width="2" stroke-linecap="round"/><path d="M223.75835,153.99426v13.74074" fill="none" stroke="url(#color-18)" stroke-width="1.5" stroke-linecap="round"/><path d="M252.26145,162.4387v12.62963" fill="none" stroke="url(#color-19)" stroke-width="2" stroke-linecap="round"/><path d="M257.817,159.66092v12.62963" fill="none" stroke="url(#color-20)" stroke-width="2" stroke-linecap="round"/><path d="M254.846,153.77203v14.18519" fill="none" stroke="url(#color-21)" stroke-width="1.5" stroke-linecap="round"/><path d="M235.92811,160.88314v12.62963" fill="none" stroke="url(#color-22)" stroke-width="2.5" stroke-linecap="round"/><path d="M241.37256,167.17944v-12.62963" fill="none" stroke="url(#color-23)" stroke-width="1.5" stroke-linecap="round"/><path d="M226.03922,167.10537v12.62963" fill="none" stroke="url(#color-24)" stroke-width="2" stroke-linecap="round"/><path d="M245.03922,164.99425v12.62963" fill="none" stroke="url(#color-25)" stroke-width="2.5" stroke-linecap="round"/><path d="M262.37256,165.54981v12.62963" fill="none" stroke="url(#color-26)" stroke-width="2" stroke-linecap="round"/></g></g></svg>