<svg width="480px" height="360px" xmlns="http://www.w3.org/2000/svg"><path fill="#F00" d="M242.914 184.187L242.914 182.510Q243.538 182.534 244.125 182.399Q244.713 182.265 245.160 182.002Q245.607 181.738 245.876 181.347Q246.145 180.955 246.145 180.453L246.145 180.453Q246.145 179.939 245.968 179.621Q245.790 179.302 245.570 179.033Q245.350 178.764 245.172 178.458Q244.995 178.151 244.995 177.637L244.995 177.637Q244.995 177.380 245.093 177.099Q245.191 176.817 245.393 176.585Q245.594 176.352 245.907 176.205Q246.219 176.058 246.647 176.058L246.647 176.058Q247.076 176.058 247.474 176.236Q247.871 176.413 248.171 176.780Q248.471 177.148 248.649 177.699Q248.826 178.249 248.826 178.996L248.826 178.996Q248.826 180.012 248.453 180.949Q248.080 181.885 247.339 182.607Q246.598 183.330 245.490 183.758Q244.383 184.187 242.914 184.187L242.914 184.187Z"/></svg>