<svg version="1.1" xmlns="http://www.w3.org/2000/svg" xmlns:xlink="http://www.w3.org/1999/xlink" width="55.125" height="55.125" viewBox="0,0,55.125,55.125"><defs><linearGradient x1="240" y1="153.1875" x2="240" y2="206.8125" gradientUnits="userSpaceOnUse" id="color-1"><stop offset="0" stop-color="#363636"/><stop offset="1" stop-color="#000000" stop-opacity="0.60925"/></linearGradient><linearGradient x1="240" y1="153.1875" x2="240" y2="206.8125" gradientUnits="userSpaceOnUse" id="color-2"><stop offset="0" stop-color="#ffffff"/><stop offset="1" stop-color="#ffffff" stop-opacity="0"/></linearGradient></defs><g transform="translate(-212.4375,-152.4375)"><g data-paper-data="{&quot;isPaintingLayer&quot;:true}" fill-rule="nonzero" stroke-linecap="butt" stroke-linejoin="miter" stroke-miterlimit="10" stroke-dasharray="" stroke-dashoffset="0" style="mix-blend-mode: normal"><path d="M213.1875,206.8125v-53.625h53.625v53.625z" fill="url(#color-1)" stroke="url(#color-2)" stroke-width="1.5"/><path d="M229.97007,182.8495c0,1.322 -0.36733,2.32367 -1.102,3.005c-0.73467,0.68133 -1.79967,1.067 -3.195,1.157l-0.098,3.011h-1.824l-0.159,-4.688h1.432c0.498,0 0.91433,-0.053 1.249,-0.159c0.33467,-0.106 0.604,-0.257 0.808,-0.453c0.204,-0.196 0.351,-0.43466 0.441,-0.716c0.08934,-0.282 0.134,-0.59833 0.134,-0.949c0,-0.596 -0.12234,-1.12667 -0.367,-1.592c-0.24466,-0.46466 -0.58733,-0.85633 -1.028,-1.175c-0.44066,-0.318 -0.965,-0.55867 -1.573,-0.722c-0.608,-0.16333 -1.27134,-0.245 -1.99,-0.245h-0.306v-1.91h0.331c0.824,0 1.57667,0.07766 2.258,0.233c0.682,0.15534 1.29,0.36533 1.824,0.63c0.53466,0.26533 1,0.57767 1.396,0.937c0.396,0.35933 0.72666,0.73866 0.992,1.138c0.26467,0.4 0.46034,0.81434 0.587,1.243c0.12667,0.42866 0.19,0.847 0.19,1.255zM224.64507,191.7005c0.22867,0 0.44067,0.04266 0.636,0.128c0.196,0.086 0.36533,0.20234 0.508,0.349c0.14334,0.14667 0.25567,0.32 0.337,0.52c0.08133,0.2 0.122,0.41034 0.122,0.631c0,0.22 -0.04066,0.428 -0.122,0.624c-0.08133,0.196 -0.19367,0.36533 -0.337,0.508c-0.14266,0.14266 -0.312,0.257 -0.508,0.343c-0.19534,0.08533 -0.40734,0.128 -0.636,0.128c-0.22066,0 -0.429,-0.04266 -0.625,-0.128c-0.19534,-0.086 -0.36666,-0.20034 -0.514,-0.343c-0.14667,-0.14266 -0.261,-0.312 -0.343,-0.508c-0.08133,-0.196 -0.122,-0.404 -0.122,-0.624c0,-0.22066 0.04066,-0.431 0.122,-0.631c0.082,-0.2 0.19634,-0.37333 0.343,-0.52c0.14733,-0.14667 0.31866,-0.263 0.514,-0.349c0.196,-0.08533 0.40434,-0.128 0.625,-0.128z" fill="#ffffff" stroke="none" stroke-width="1"/><path d="M248.7606,167.69585c0,2.25741 -0.62725,3.96782 -1.88174,5.13125c-1.25449,1.16343 -3.07305,1.82198 -5.45568,1.97566l-0.16734,5.14149h-3.11461l-0.2715,-8.00509h2.44524c0.85037,0 1.56129,-0.0905 2.13275,-0.2715c0.57146,-0.181 1.03137,-0.43885 1.37972,-0.77353c0.34834,-0.33468 0.59936,-0.74222 0.75304,-1.22262c0.15255,-0.48153 0.22881,-1.0217 0.22881,-1.62048c0,-1.01771 -0.2089,-1.92386 -0.62668,-2.71845c-0.41778,-0.79345 -1.00292,-1.46225 -1.75538,-2.00639c-0.75247,-0.54301 -1.6478,-0.95396 -2.68601,-1.23287c-1.0382,-0.27891 -2.17089,-0.41835 -3.39806,-0.41835h-0.52252v-3.26146h0.56521c1.40704,0 2.69227,0.13262 3.85569,0.39786c1.16456,0.26525 2.20276,0.62383 3.11461,1.07577c0.91298,0.45308 1.70757,0.9864 2.38377,1.59999c0.6762,0.61359 1.24083,1.26132 1.69391,1.94321c0.45193,0.68303 0.78605,1.39053 1.00234,2.12251c0.21629,0.73198 0.32444,1.44631 0.32444,2.143zM239.6678,182.80955c0.39046,0 0.75247,0.07285 1.08601,0.21857c0.33468,0.14685 0.62383,0.3455 0.86745,0.59594c0.24475,0.25044 0.43657,0.54642 0.57545,0.88794c0.13889,0.34151 0.20832,0.70068 0.20832,1.07748c0,0.37567 -0.06944,0.73084 -0.20832,1.06552c-0.13889,0.33468 -0.3307,0.62383 -0.57545,0.86745c-0.24361,0.24361 -0.53276,0.43885 -0.86745,0.5857c-0.33355,0.14572 -0.69555,0.21857 -1.08601,0.21857c-0.3768,0 -0.73255,-0.07285 -1.06723,-0.21857c-0.33355,-0.14685 -0.62611,-0.34209 -0.87769,-0.5857c-0.25044,-0.24361 -0.44568,-0.53276 -0.5857,-0.86745c-0.13889,-0.33468 -0.20832,-0.68986 -0.20832,-1.06552c0,-0.3768 0.06944,-0.73596 0.20832,-1.07748c0.14002,-0.34151 0.33526,-0.6375 0.5857,-0.88794c0.25158,-0.25044 0.54414,-0.44909 0.87769,-0.59594c0.33468,-0.14572 0.69043,-0.21857 1.06723,-0.21857z" fill="#ffffff" stroke="none" stroke-width="1"/><path d="M259.2903,188.79044c0,1.20341 -0.33438,2.11522 -1.00315,2.73544c-0.66876,0.62022 -1.63823,0.97129 -2.9084,1.05321l-0.08921,2.7409h-1.66038l-0.14474,-4.26747h1.30354c0.45333,0 0.83232,-0.04825 1.13696,-0.14474c0.30464,-0.09649 0.54982,-0.23395 0.73552,-0.41236c0.1857,-0.17842 0.31951,-0.39567 0.40144,-0.65177c0.08132,-0.2567 0.12198,-0.54466 0.12198,-0.86387c0,-0.54254 -0.11136,-1.0256 -0.33408,-1.44919c-0.22272,-0.42298 -0.53465,-0.77952 -0.93578,-1.0696c-0.40114,-0.28947 -0.87844,-0.50855 -1.4319,-0.65723c-0.55346,-0.14868 -1.15729,-0.22302 -1.81149,-0.22302h-0.27855v-1.73867h0.30131c0.75008,0 1.43523,0.0707 2.05545,0.2121c0.62082,0.1414 1.17428,0.33256 1.66038,0.57349c0.4867,0.24153 0.9103,0.52585 1.27077,0.85295c0.36048,0.3271 0.66148,0.6724 0.90301,1.03592c0.24092,0.36412 0.41904,0.74129 0.53434,1.1315c0.1153,0.39021 0.17296,0.77102 0.17296,1.14242zM254.44297,196.84748c0.20815,0 0.40114,0.03884 0.57895,0.11652c0.17842,0.07829 0.33256,0.18418 0.46243,0.31769c0.13048,0.13351 0.23273,0.29129 0.30677,0.47335c0.07404,0.18206 0.11106,0.37353 0.11106,0.5744c0,0.20027 -0.03702,0.38961 -0.11106,0.56802c-0.07404,0.17842 -0.17629,0.33256 -0.30677,0.46243c-0.12987,0.12987 -0.28401,0.23395 -0.46243,0.31223c-0.17781,0.07768 -0.3708,0.11652 -0.57895,0.11652c-0.20087,0 -0.39052,-0.03884 -0.56894,-0.11652c-0.17781,-0.07829 -0.33377,-0.18236 -0.46789,-0.31223c-0.13351,-0.12987 -0.23759,-0.28401 -0.31223,-0.46243c-0.07404,-0.17842 -0.11106,-0.36776 -0.11106,-0.56802c0,-0.20087 0.03702,-0.39234 0.11106,-0.5744c0.07464,-0.18206 0.17872,-0.33985 0.31223,-0.47335c0.13412,-0.13351 0.29008,-0.23941 0.46789,-0.31769c0.17842,-0.07768 0.36806,-0.11652 0.56894,-0.11652z" fill="#ffffff" stroke="none" stroke-width="1"/></g></g></svg>