<svg version="1.1" xmlns="http://www.w3.org/2000/svg" xmlns:xlink="http://www.w3.org/1999/xlink" width="55.125" height="55.125" viewBox="0,0,55.125,55.125"><defs><linearGradient x1="240" y1="153.18007" x2="240" y2="206.80508" gradientUnits="userSpaceOnUse" id="color-1"><stop offset="0" stop-color="#023636"/><stop offset="1" stop-color="#000000" stop-opacity="0.60925"/></linearGradient><linearGradient x1="240" y1="153.18007" x2="240" y2="206.80508" gradientUnits="userSpaceOnUse" id="color-2"><stop offset="0" stop-color="#ae00ff"/><stop offset="1" stop-color="#ae00ff" stop-opacity="0"/></linearGradient><radialGradient cx="239.92117" cy="179.25218" r="5.69922" gradientUnits="userSpaceOnUse" id="color-3"><stop offset="0" stop-color="#fc27ff"/><stop offset="1" stop-color="#de26ff"/></radialGradient><linearGradient x1="223.03077" y1="179.25218" x2="256.81157" y2="179.25218" gradientUnits="userSpaceOnUse" id="color-4"><stop offset="0" stop-color="#fb00ff"/><stop offset="1" stop-color="#510086"/></linearGradient><linearGradient x1="229.66258" y1="179.25218" x2="250.17974" y2="179.25218" gradientUnits="userSpaceOnUse" id="color-5"><stop offset="0" stop-color="#fb00ff"/><stop offset="1" stop-color="#510086"/></linearGradient><radialGradient cx="250.90512" cy="166.19573" r="4.04128" gradientUnits="userSpaceOnUse" id="color-6"><stop offset="0" stop-color="#941796"/><stop offset="1" stop-color="#7f1692"/></radialGradient><linearGradient x1="216.66056" y1="180.00001" x2="266.77167" y2="180.00001" gradientUnits="userSpaceOnUse" id="color-7"><stop offset="0" stop-color="#620098" stop-opacity="0"/><stop offset="1" stop-color="#620098"/></linearGradient><radialGradient cx="235.35963" cy="177.25364" r="21.32735" gradientUnits="userSpaceOnUse" id="color-8"><stop offset="0" stop-color="#ffffff"/><stop offset="1" stop-color="#ffffff" stop-opacity="0"/></radialGradient><radialGradient cx="238.86842" cy="181.25062" r="21.05275" gradientUnits="userSpaceOnUse" id="color-9"><stop offset="0" stop-color="#ffffff"/><stop offset="1" stop-color="#ffffff" stop-opacity="0"/></radialGradient></defs><g transform="translate(-212.4375,-152.43007)"><g data-paper-data="{&quot;isPaintingLayer&quot;:true}" fill-rule="nonzero" stroke-linejoin="miter" stroke-miterlimit="10" stroke-dasharray="" stroke-dashoffset="0" style="mix-blend-mode: normal"><path d="M213.1875,206.80508v-53.625h53.625v53.625z" fill="url(#color-1)" stroke="url(#color-2)" stroke-width="1.5" stroke-linecap="butt"/><path d="M234.22196,179.25218c0,-3.14759 2.55162,-5.69922 5.69922,-5.69922c3.14759,0 5.69922,2.55162 5.69922,5.69922c0,3.14759 -2.55162,5.69922 -5.69922,5.69922c-3.14759,0 -5.69922,-2.55162 -5.69922,-5.69922z" fill="url(#color-3)" stroke="#fb00ff" stroke-width="NaN" stroke-linecap="butt"/><path d="M223.03077,179.25218c0,-9.3283 7.56207,-16.8904 16.8904,-16.8904c9.32831,0 16.8904,7.56207 16.8904,16.8904c0,9.32831 -7.56207,16.8904 -16.8904,16.8904c-9.3283,0 -16.8904,-7.56207 -16.8904,-16.8904z" fill="none" stroke="#fb00ff" stroke-width="0.5" stroke-linecap="butt"/><path d="M223.03077,179.25218c0,-9.3283 7.56207,-16.8904 16.8904,-16.8904c9.32831,0 16.8904,7.56207 16.8904,16.8904c0,9.32831 -7.56207,16.8904 -16.8904,16.8904c-9.3283,0 -16.8904,-7.56207 -16.8904,-16.8904z" fill="none" stroke="url(#color-4)" stroke-width="1.5" stroke-linecap="butt"/><path d="M229.66258,179.25218c0,-5.66565 4.59294,-10.25859 10.25859,-10.25859c5.66565,0 10.25857,4.59294 10.25857,10.25859c0,5.66565 -4.59292,10.25859 -10.25857,10.25859c-5.66565,0 -10.25859,-4.59294 -10.25859,-10.25859z" fill="none" stroke="url(#color-5)" stroke-width="1.5" stroke-linecap="butt"/><path d="M246.86386,166.19573c0,-2.23192 1.80934,-4.04128 4.04126,-4.04128c2.23192,0 4.04126,1.80934 4.04126,4.04128c0,2.23192 -1.80934,4.04128 -4.04126,4.04128c-2.23192,0 -4.04126,-1.80934 -4.04126,-4.04128z" fill="url(#color-6)" stroke="#fb00ff" stroke-width="NaN" stroke-linecap="butt"/><path d="M216.66056,206.87573v-53.75145h50.11111v53.75145z" fill="url(#color-7)" stroke="none" stroke-width="0" stroke-linecap="butt"/><path d="M214.03228,155.92629l42.6547,42.6547" fill="none" stroke="url(#color-8)" stroke-width="2.5" stroke-linecap="round"/><path d="M259.92116,160.19786l-42.10549,42.1055" fill="none" stroke="url(#color-9)" stroke-width="2.5" stroke-linecap="round"/></g></g></svg>