<svg version="1.1" xmlns="http://www.w3.org/2000/svg" xmlns:xlink="http://www.w3.org/1999/xlink" width="62.44658" height="60.26072" viewBox="0,0,62.44658,60.26072"><defs><linearGradient x1="270.93656" y1="121.22725" x2="270.93656" y2="179.98796" gradientUnits="userSpaceOnUse" id="color-1"><stop offset="0" stop-color="#8c896b"/><stop offset="1" stop-color="#52503f"/></linearGradient><radialGradient cx="277.57295" cy="144.81118" r="4.43868" gradientUnits="userSpaceOnUse" id="color-2"><stop offset="0" stop-color="#d8c6c6"/><stop offset="1" stop-color="#ea7676"/></radialGradient><radialGradient cx="267.03833" cy="148.5625" r="47" gradientUnits="userSpaceOnUse" id="color-3"><stop offset="0" stop-color="#ffffff"/><stop offset="1" stop-color="#ffffff" stop-opacity="0"/></radialGradient><linearGradient x1="270.89207" y1="167.57146" x2="270.89207" y2="180.14309" gradientUnits="userSpaceOnUse" id="color-4"><stop offset="0" stop-color="#aba682"/><stop offset="1" stop-color="#848064"/></linearGradient><radialGradient cx="266.87167" cy="150.89583" r="47" gradientUnits="userSpaceOnUse" id="color-5"><stop offset="0" stop-color="#ffffff"/><stop offset="1" stop-color="#ffffff" stop-opacity="0"/></radialGradient><radialGradient cx="268.7137" cy="146.21741" r="4.43868" gradientUnits="userSpaceOnUse" id="color-6"><stop offset="0" stop-color="#b9cfe2"/><stop offset="1" stop-color="#5cb8ff"/></radialGradient><radialGradient cx="269.72764" cy="133.76184" r="4.43868" gradientUnits="userSpaceOnUse" id="color-7"><stop offset="0" stop-color="#b9cfe2"/><stop offset="1" stop-color="#5cb8ff"/></radialGradient><radialGradient cx="269.86789" cy="138.61499" r="4.43868" gradientUnits="userSpaceOnUse" id="color-8"><stop offset="0" stop-color="#d8c6c6"/><stop offset="1" stop-color="#ea7676"/></radialGradient><radialGradient cx="264.33348" cy="151.45802" r="4.43868" gradientUnits="userSpaceOnUse" id="color-9"><stop offset="0" stop-color="#d8c6c6"/><stop offset="1" stop-color="#ea7676"/></radialGradient><radialGradient cx="274.26527" cy="154.33492" r="4.43868" gradientUnits="userSpaceOnUse" id="color-10"><stop offset="0" stop-color="#d8c6c6"/><stop offset="1" stop-color="#ea7676"/></radialGradient><radialGradient cx="257.32819" cy="144.88388" r="4.43868" gradientUnits="userSpaceOnUse" id="color-11"><stop offset="0" stop-color="#d8c6c6"/><stop offset="1" stop-color="#ea7676"/></radialGradient><radialGradient cx="279.57266" cy="137.02392" r="4.43868" gradientUnits="userSpaceOnUse" id="color-12"><stop offset="0" stop-color="#d8c6c6"/><stop offset="1" stop-color="#ea7676"/></radialGradient><radialGradient cx="283.29851" cy="148.81196" r="4.43868" gradientUnits="userSpaceOnUse" id="color-13"><stop offset="0" stop-color="#d8c6c6"/><stop offset="1" stop-color="#ea7676"/></radialGradient><radialGradient cx="259.75677" cy="149.29844" r="4.43868" gradientUnits="userSpaceOnUse" id="color-14"><stop offset="0" stop-color="#b9cfe2"/><stop offset="1" stop-color="#5cb8ff"/></radialGradient><radialGradient cx="264.82759" cy="147.37923" r="4.43868" gradientUnits="userSpaceOnUse" id="color-15"><stop offset="0" stop-color="#d8c6c6"/><stop offset="1" stop-color="#ea7676"/></radialGradient><radialGradient cx="279.96375" cy="144.06355" r="4.43868" gradientUnits="userSpaceOnUse" id="color-16"><stop offset="0" stop-color="#b9cfe2"/><stop offset="1" stop-color="#5cb8ff"/></radialGradient><radialGradient cx="274.1543" cy="132.13148" r="4.43868" gradientUnits="userSpaceOnUse" id="color-17"><stop offset="0" stop-color="#d8c6c6"/><stop offset="1" stop-color="#ea7676"/></radialGradient><radialGradient cx="268.54009" cy="153.72825" r="4.43868" gradientUnits="userSpaceOnUse" id="color-18"><stop offset="0" stop-color="#b9cfe2"/><stop offset="1" stop-color="#5cb8ff"/></radialGradient><radialGradient cx="283.84731" cy="142.3313" r="4.43868" gradientUnits="userSpaceOnUse" id="color-19"><stop offset="0" stop-color="#d8c6c6"/><stop offset="1" stop-color="#ea7676"/></radialGradient><radialGradient cx="265.62376" cy="133.63447" r="4.43868" gradientUnits="userSpaceOnUse" id="color-20"><stop offset="0" stop-color="#d8c6c6"/><stop offset="1" stop-color="#ea7676"/></radialGradient><radialGradient cx="260.16249" cy="137.61914" r="4.43868" gradientUnits="userSpaceOnUse" id="color-21"><stop offset="0" stop-color="#d8c6c6"/><stop offset="1" stop-color="#ea7676"/></radialGradient><radialGradient cx="269.47298" cy="145.38562" r="4.43868" gradientUnits="userSpaceOnUse" id="color-22"><stop offset="0" stop-color="#b9cfe2"/><stop offset="1" stop-color="#5cb8ff"/></radialGradient><radialGradient cx="263.82475" cy="141.66486" r="4.43868" gradientUnits="userSpaceOnUse" id="color-23"><stop offset="0" stop-color="#d8c6c6"/><stop offset="1" stop-color="#ea7676"/></radialGradient><radialGradient cx="264.63491" cy="135.94604" r="4.43868" gradientUnits="userSpaceOnUse" id="color-24"><stop offset="0" stop-color="#b9cfe2"/><stop offset="1" stop-color="#5cb8ff"/></radialGradient><radialGradient cx="277.80035" cy="152.67326" r="4.43868" gradientUnits="userSpaceOnUse" id="color-25"><stop offset="0" stop-color="#b9cfe2"/><stop offset="1" stop-color="#5cb8ff"/></radialGradient><radialGradient cx="274.56098" cy="135.09518" r="4.43868" gradientUnits="userSpaceOnUse" id="color-26"><stop offset="0" stop-color="#b9cfe2"/><stop offset="1" stop-color="#5cb8ff"/></radialGradient><radialGradient cx="274.90628" cy="141.64451" r="4.43868" gradientUnits="userSpaceOnUse" id="color-27"><stop offset="0" stop-color="#d8c6c6"/><stop offset="1" stop-color="#ea7676"/></radialGradient><radialGradient cx="273.2885" cy="150.39349" r="4.43868" gradientUnits="userSpaceOnUse" id="color-28"><stop offset="0" stop-color="#d8c6c6"/><stop offset="1" stop-color="#ea7676"/></radialGradient><radialGradient cx="274.705" cy="141.5625" r="47" gradientUnits="userSpaceOnUse" id="color-29"><stop offset="0" stop-color="#ffffff"/><stop offset="1" stop-color="#ffffff" stop-opacity="0"/></radialGradient><radialGradient cx="274.705" cy="146.39583" r="47" gradientUnits="userSpaceOnUse" id="color-30"><stop offset="0" stop-color="#ffffff"/><stop offset="1" stop-color="#ffffff" stop-opacity="0"/></radialGradient></defs><g transform="translate(-239.67168,-120.47724)"><g data-paper-data="{&quot;isPaintingLayer&quot;:true}" fill-rule="nonzero" stroke-linejoin="miter" stroke-miterlimit="10" stroke-dasharray="" stroke-dashoffset="0" style="mix-blend-mode: normal"><path d="M240.42169,179.98796v-58.76072h60.94658v58.76072z" fill="url(#color-1)" stroke="#c0bb92" stroke-width="1.5" stroke-linecap="butt"/><path d="M279.68102,140.90504c2.1573,1.16425 2.96231,3.85691 1.79806,6.01421c-1.16426,2.1573 -3.85691,2.96231 -6.01421,1.79806c-2.1573,-1.16425 -2.96232,-3.85691 -1.79806,-6.01421c1.16426,-2.1573 3.85691,-2.96232 6.01421,-1.79806z" fill="url(#color-2)" stroke="none" stroke-width="0" stroke-linecap="butt"/><path d="M300.03833,134.5625c0,0 -13.83362,-2.49999 -29,-2.49999c-16.10996,0 -29.16667,2.49999 -29.16667,2.49999" fill="none" stroke="url(#color-3)" stroke-width="1.5" stroke-linecap="round"/><path d="M239.96353,180.14309v-12.57143h61.85715v12.57143z" fill="url(#color-4)" stroke="none" stroke-width="0" stroke-linecap="butt"/><path d="M299.53833,138.5625c0,0 -13.50029,-4.16667 -28.66666,-4.16667c-16.10997,0 -29,3.83333 -29,3.83333" fill="none" stroke="url(#color-5)" stroke-width="1.5" stroke-linecap="round"/><path d="M270.82177,142.31127c2.1573,1.16426 2.96232,3.85691 1.79806,6.01421c-1.16426,2.1573 -3.85691,2.96232 -6.01421,1.79806c-2.1573,-1.16426 -2.96232,-3.85691 -1.79806,-6.01421c1.16426,-2.1573 3.85691,-2.96232 6.01421,-1.79806z" fill="url(#color-6)" stroke="none" stroke-width="0" stroke-linecap="butt"/><path d="M271.83572,129.85571c2.15729,1.16425 2.96231,3.85691 1.79806,6.01421c-1.16426,2.1573 -3.85691,2.96231 -6.01421,1.79806c-2.15729,-1.16425 -2.96232,-3.85691 -1.79807,-6.01421c1.16426,-2.1573 3.85692,-2.96231 6.01421,-1.79806z" fill="url(#color-7)" stroke="none" stroke-width="0" stroke-linecap="butt"/><path d="M271.97596,134.70885c2.1573,1.16426 2.96232,3.85691 1.79806,6.01421c-1.16426,2.1573 -3.85691,2.96232 -6.01421,1.79806c-2.1573,-1.16426 -2.96232,-3.85691 -1.79806,-6.01421c1.16426,-2.1573 3.85691,-2.96232 6.01421,-1.79806z" fill="url(#color-8)" stroke="none" stroke-width="0" stroke-linecap="butt"/><path d="M266.44156,147.55188c2.1573,1.16426 2.96232,3.85691 1.79806,6.01421c-1.16426,2.1573 -3.85691,2.96232 -6.01421,1.79806c-2.1573,-1.16426 -2.96232,-3.85691 -1.79806,-6.01421c1.16426,-2.1573 3.85691,-2.96232 6.01421,-1.79806z" fill="url(#color-9)" stroke="none" stroke-width="0" stroke-linecap="butt"/><path d="M276.37335,150.42878c2.1573,1.16426 2.96232,3.85691 1.79806,6.01421c-1.16426,2.1573 -3.85691,2.96232 -6.01421,1.79806c-2.1573,-1.16426 -2.96232,-3.85691 -1.79806,-6.01421c1.16426,-2.1573 3.85691,-2.96232 6.01421,-1.79806z" fill="url(#color-10)" stroke="none" stroke-width="0" stroke-linecap="butt"/><path d="M259.43627,140.97775c2.1573,1.16426 2.96232,3.85691 1.79806,6.01421c-1.16426,2.1573 -3.85691,2.96232 -6.01421,1.79806c-2.1573,-1.16426 -2.96232,-3.85691 -1.79806,-6.01421c1.16426,-2.1573 3.85691,-2.96232 6.01421,-1.79806z" fill="url(#color-11)" stroke="none" stroke-width="0" stroke-linecap="butt"/><path d="M281.68073,133.11778c2.1573,1.16426 2.96232,3.85691 1.79806,6.01421c-1.16426,2.1573 -3.85691,2.96232 -6.01421,1.79806c-2.1573,-1.16426 -2.96232,-3.85691 -1.79806,-6.01421c1.16426,-2.1573 3.85691,-2.96232 6.01421,-1.79806z" fill="url(#color-12)" stroke="none" stroke-width="0" stroke-linecap="butt"/><path d="M285.40658,144.90582c2.1573,1.16426 2.96232,3.85691 1.79806,6.01421c-1.16426,2.1573 -3.85691,2.96232 -6.01421,1.79806c-2.1573,-1.16426 -2.96232,-3.85691 -1.79806,-6.01421c1.16426,-2.1573 3.85691,-2.96232 6.01421,-1.79806z" fill="url(#color-13)" stroke="none" stroke-width="0" stroke-linecap="butt"/><path d="M261.86484,145.3923c2.1573,1.16426 2.96232,3.85691 1.79806,6.01421c-1.16426,2.1573 -3.85691,2.96232 -6.01421,1.79806c-2.1573,-1.16426 -2.96232,-3.85691 -1.79806,-6.01421c1.16426,-2.1573 3.85691,-2.96232 6.01421,-1.79806z" fill="url(#color-14)" stroke="none" stroke-width="0" stroke-linecap="butt"/><path d="M266.93567,143.4731c2.1573,1.16426 2.96232,3.85691 1.79806,6.01421c-1.16426,2.1573 -3.85691,2.96232 -6.01421,1.79806c-2.1573,-1.16426 -2.96232,-3.85691 -1.79806,-6.01421c1.16426,-2.1573 3.85691,-2.96232 6.01421,-1.79806z" fill="url(#color-15)" stroke="none" stroke-width="0" stroke-linecap="butt"/><path d="M282.07182,140.15741c2.1573,1.16426 2.96232,3.85691 1.79806,6.01421c-1.16426,2.1573 -3.85691,2.96232 -6.01421,1.79806c-2.1573,-1.16426 -2.96232,-3.85691 -1.79806,-6.01421c1.16426,-2.1573 3.85691,-2.96232 6.01421,-1.79806z" fill="url(#color-16)" stroke="none" stroke-width="0" stroke-linecap="butt"/><path d="M276.26237,128.22534c2.1573,1.16426 2.96232,3.85691 1.79806,6.01421c-1.16426,2.1573 -3.85691,2.96232 -6.01421,1.79806c-2.1573,-1.16426 -2.96232,-3.85691 -1.79806,-6.01421c1.16426,-2.1573 3.85691,-2.96232 6.01421,-1.79806z" fill="url(#color-17)" stroke="none" stroke-width="0" stroke-linecap="butt"/><path d="M270.64816,149.82212c2.1573,1.16426 2.96232,3.85691 1.79806,6.01421c-1.16426,2.1573 -3.85691,2.96232 -6.01421,1.79806c-2.1573,-1.16426 -2.96232,-3.85691 -1.79806,-6.01421c1.16426,-2.1573 3.85691,-2.96232 6.01421,-1.79806z" fill="url(#color-18)" stroke="none" stroke-width="0" stroke-linecap="butt"/><path d="M285.95538,138.42517c2.1573,1.16426 2.96232,3.85691 1.79806,6.01421c-1.16426,2.1573 -3.85691,2.96232 -6.01421,1.79806c-2.1573,-1.16426 -2.96232,-3.85691 -1.79806,-6.01421c1.16426,-2.1573 3.85691,-2.96232 6.01421,-1.79806z" fill="url(#color-19)" stroke="none" stroke-width="0" stroke-linecap="butt"/><path d="M267.73184,129.72833c2.1573,1.16426 2.96232,3.85691 1.79806,6.01421c-1.16426,2.1573 -3.85691,2.96232 -6.01421,1.79806c-2.1573,-1.16426 -2.96232,-3.85691 -1.79806,-6.01421c1.16426,-2.1573 3.85691,-2.96232 6.01421,-1.79806z" fill="url(#color-20)" stroke="none" stroke-width="0" stroke-linecap="butt"/><path d="M262.27056,133.713c2.1573,1.16426 2.96232,3.85691 1.79806,6.01421c-1.16426,2.1573 -3.85691,2.96232 -6.01421,1.79806c-2.1573,-1.16426 -2.96232,-3.85691 -1.79806,-6.01421c1.16426,-2.1573 3.85691,-2.96232 6.01421,-1.79806z" fill="url(#color-21)" stroke="none" stroke-width="0" stroke-linecap="butt"/><path d="M271.58106,141.47949c2.1573,1.16426 2.96232,3.85691 1.79806,6.01421c-1.16426,2.1573 -3.85691,2.96232 -6.01421,1.79806c-2.1573,-1.16426 -2.96232,-3.85691 -1.79806,-6.01421c1.16426,-2.1573 3.85691,-2.96232 6.01421,-1.79806z" fill="url(#color-22)" stroke="none" stroke-width="0" stroke-linecap="butt"/><path d="M265.93282,137.75872c2.1573,1.16426 2.96232,3.85691 1.79806,6.01421c-1.16426,2.1573 -3.85691,2.96232 -6.01421,1.79806c-2.1573,-1.16426 -2.96232,-3.85691 -1.79806,-6.01421c1.16426,-2.1573 3.85691,-2.96232 6.01421,-1.79806z" fill="url(#color-23)" stroke="none" stroke-width="0" stroke-linecap="butt"/><path d="M266.74298,132.0399c2.1573,1.16426 2.96232,3.85691 1.79806,6.01421c-1.16426,2.1573 -3.85691,2.96232 -6.01421,1.79806c-2.1573,-1.16426 -2.96232,-3.85691 -1.79806,-6.01421c1.16426,-2.1573 3.85691,-2.96232 6.01421,-1.79806z" fill="url(#color-24)" stroke="none" stroke-width="0" stroke-linecap="butt"/><path d="M279.90842,148.76713c2.1573,1.16426 2.96232,3.85691 1.79806,6.01421c-1.16426,2.1573 -3.85691,2.96232 -6.01421,1.79806c-2.1573,-1.16426 -2.96232,-3.85691 -1.79806,-6.01421c1.16426,-2.1573 3.85691,-2.96232 6.01421,-1.79806z" fill="url(#color-25)" stroke="none" stroke-width="0" stroke-linecap="butt"/><path d="M276.66905,131.18904c2.1573,1.16426 2.96232,3.85691 1.79806,6.01421c-1.16426,2.1573 -3.85691,2.96232 -6.01421,1.79806c-2.1573,-1.16426 -2.96232,-3.85691 -1.79806,-6.01421c1.16426,-2.1573 3.85691,-2.96232 6.01421,-1.79806z" fill="url(#color-26)" stroke="none" stroke-width="0" stroke-linecap="butt"/><path d="M277.01435,137.73837c2.1573,1.16426 2.96232,3.85691 1.79806,6.01421c-1.16426,2.1573 -3.85691,2.96232 -6.01421,1.79806c-2.1573,-1.16426 -2.96232,-3.85691 -1.79806,-6.01421c1.16426,-2.1573 3.85691,-2.96232 6.01421,-1.79806z" fill="url(#color-27)" stroke="none" stroke-width="0" stroke-linecap="butt"/><path d="M275.39657,146.48735c2.1573,1.16426 2.96232,3.85691 1.79806,6.01421c-1.16426,2.1573 -3.85691,2.96232 -6.01421,1.79806c-2.1573,-1.16426 -2.96232,-3.85691 -1.79806,-6.01421c1.16426,-2.1573 3.85691,-2.96232 6.01421,-1.79806z" fill="url(#color-28)" stroke="none" stroke-width="0" stroke-linecap="butt"/><path d="M242.03833,153.89583c0,0 13.50029,4.16667 28.66667,4.16667c16.10997,0 29,-3.83333 29,-3.83333" fill="none" stroke="url(#color-29)" stroke-width="2" stroke-linecap="round"/><path d="M241.705,160.39583c0,0 13.83362,2.5 29,2.5c16.10996,0 29.16667,-2.5 29.16667,-2.5" fill="none" stroke="url(#color-30)" stroke-width="2" stroke-linecap="round"/></g></g></svg>