<svg width="480px" height="360px" xmlns="http://www.w3.org/2000/svg"><path fill="#F00" d="M251.936 174.883L251.936 174.883Q251.936 176.070 251.422 177.050Q250.907 178.029 250.008 178.733Q249.108 179.437 247.884 179.829Q246.660 180.220 245.239 180.220L245.239 180.220Q244.884 180.220 244.474 180.202Q244.064 180.184 243.660 180.153Q243.256 180.122 242.871 180.086Q242.485 180.049 242.179 180L242.179 180L242.179 178.066Q242.840 178.225 243.691 178.298Q244.542 178.372 245.411 178.372L245.411 178.372Q246.390 178.372 247.174 178.139Q247.957 177.907 248.508 177.472Q249.059 177.037 249.353 176.419Q249.647 175.801 249.647 175.030L249.647 175.030Q249.647 173.536 248.575 172.857Q247.504 172.178 245.497 172.178L245.497 172.178L242.461 172.178L242.461 164L251.079 164L251.079 165.861L244.468 165.861L244.468 170.353L245.864 170.353Q247.015 170.353 248.104 170.562Q249.194 170.770 250.044 171.290Q250.895 171.810 251.415 172.686Q251.936 173.561 251.936 174.883Z"/></svg>